%TF.GenerationSoftware,KiCad,Pcbnew,7.0.7*%
%TF.CreationDate,2023-09-03T15:00:53+02:00*%
%TF.ProjectId,DevelopmentBoard,44657665-6c6f-4706-9d65-6e74426f6172,v1.0*%
%TF.SameCoordinates,Original*%
%TF.FileFunction,Copper,L1,Top*%
%TF.FilePolarity,Positive*%
%FSLAX46Y46*%
G04 Gerber Fmt 4.6, Leading zero omitted, Abs format (unit mm)*
G04 Created by KiCad (PCBNEW 7.0.7) date 2023-09-03 15:00:53*
%MOMM*%
%LPD*%
G01*
G04 APERTURE LIST*
G04 Aperture macros list*
%AMRoundRect*
0 Rectangle with rounded corners*
0 $1 Rounding radius*
0 $2 $3 $4 $5 $6 $7 $8 $9 X,Y pos of 4 corners*
0 Add a 4 corners polygon primitive as box body*
4,1,4,$2,$3,$4,$5,$6,$7,$8,$9,$2,$3,0*
0 Add four circle primitives for the rounded corners*
1,1,$1+$1,$2,$3*
1,1,$1+$1,$4,$5*
1,1,$1+$1,$6,$7*
1,1,$1+$1,$8,$9*
0 Add four rect primitives between the rounded corners*
20,1,$1+$1,$2,$3,$4,$5,0*
20,1,$1+$1,$4,$5,$6,$7,0*
20,1,$1+$1,$6,$7,$8,$9,0*
20,1,$1+$1,$8,$9,$2,$3,0*%
G04 Aperture macros list end*
%TA.AperFunction,ComponentPad*%
%ADD10R,1.524000X1.524000*%
%TD*%
%TA.AperFunction,ComponentPad*%
%ADD11C,1.524000*%
%TD*%
%TA.AperFunction,ComponentPad*%
%ADD12C,2.000000*%
%TD*%
%TA.AperFunction,ComponentPad*%
%ADD13C,1.440000*%
%TD*%
%TA.AperFunction,ComponentPad*%
%ADD14C,1.600000*%
%TD*%
%TA.AperFunction,ComponentPad*%
%ADD15O,1.600000X1.600000*%
%TD*%
%TA.AperFunction,ComponentPad*%
%ADD16R,1.700000X1.700000*%
%TD*%
%TA.AperFunction,ComponentPad*%
%ADD17O,1.700000X1.700000*%
%TD*%
%TA.AperFunction,ComponentPad*%
%ADD18R,3.500000X3.500000*%
%TD*%
%TA.AperFunction,ComponentPad*%
%ADD19RoundRect,0.750000X0.750000X1.000000X-0.750000X1.000000X-0.750000X-1.000000X0.750000X-1.000000X0*%
%TD*%
%TA.AperFunction,ComponentPad*%
%ADD20RoundRect,0.875000X0.875000X0.875000X-0.875000X0.875000X-0.875000X-0.875000X0.875000X-0.875000X0*%
%TD*%
%TA.AperFunction,ComponentPad*%
%ADD21C,2.340000*%
%TD*%
%TA.AperFunction,ViaPad*%
%ADD22C,1.524000*%
%TD*%
%TA.AperFunction,Conductor*%
%ADD23C,0.762000*%
%TD*%
G04 APERTURE END LIST*
D10*
%TO.P,A1,1,3V3*%
%TO.N,VCC*%
X127000000Y-58420000D03*
D11*
%TO.P,A1,2,EN*%
%TO.N,Net-(A1-EN)*%
X127000000Y-60960000D03*
%TO.P,A1,3,VP*%
%TO.N,Net-(A1-VP)*%
X127000000Y-63500000D03*
%TO.P,A1,4,VN*%
%TO.N,Net-(A1-VN)*%
X127000000Y-66040000D03*
%TO.P,A1,5,34*%
%TO.N,Net-(A1-34)*%
X127000000Y-68580000D03*
%TO.P,A1,6,35*%
%TO.N,Net-(A1-35)*%
X127000000Y-71120000D03*
%TO.P,A1,7,32*%
%TO.N,unconnected-(A1-32-Pad7)*%
X127000000Y-73660000D03*
%TO.P,A1,8,33*%
%TO.N,unconnected-(A1-33-Pad8)*%
X127000000Y-76200000D03*
%TO.P,A1,9,25*%
%TO.N,Net-(A1-25)*%
X127000000Y-78740000D03*
%TO.P,A1,10,26*%
%TO.N,Net-(A1-26)*%
X127000000Y-81280000D03*
%TO.P,A1,11,27*%
%TO.N,Net-(A1-27)*%
X127000000Y-83820000D03*
%TO.P,A1,12,14*%
%TO.N,Net-(A1-14)*%
X127000000Y-86360000D03*
%TO.P,A1,13,12*%
%TO.N,Net-(A1-12)*%
X127000000Y-88900000D03*
%TO.P,A1,14,GND*%
%TO.N,unconnected-(A1-GND-Pad14)*%
X127000000Y-91440000D03*
%TO.P,A1,15,13*%
%TO.N,Net-(A1-13)*%
X127000000Y-93980000D03*
%TO.P,A1,16,D2*%
%TO.N,unconnected-(A1-D2-Pad16)*%
X127000000Y-96520000D03*
%TO.P,A1,17,D3*%
%TO.N,unconnected-(A1-D3-Pad17)*%
X127000000Y-99060000D03*
%TO.P,A1,18,CMD*%
%TO.N,unconnected-(A1-CMD-Pad18)*%
X127000000Y-101600000D03*
%TO.P,A1,19,5V*%
%TO.N,unconnected-(A1-5V-Pad19)*%
X127000000Y-104140000D03*
%TO.P,A1,20,CLK*%
%TO.N,unconnected-(A1-CLK-Pad20)*%
X152400000Y-104140000D03*
%TO.P,A1,21,D0*%
%TO.N,unconnected-(A1-D0-Pad21)*%
X152400000Y-101600000D03*
%TO.P,A1,22,D1*%
%TO.N,unconnected-(A1-D1-Pad22)*%
X152400000Y-99060000D03*
%TO.P,A1,23,15*%
%TO.N,Net-(A1-15)*%
X152400000Y-96520000D03*
%TO.P,A1,24,2*%
%TO.N,unconnected-(A1-2-Pad24)*%
X152400000Y-93980000D03*
%TO.P,A1,25,0*%
%TO.N,unconnected-(A1-0-Pad25)*%
X152400000Y-91440000D03*
%TO.P,A1,26,4*%
%TO.N,unconnected-(A1-4-Pad26)*%
X152400000Y-88900000D03*
%TO.P,A1,27,16*%
%TO.N,unconnected-(A1-16-Pad27)*%
X152400000Y-86360000D03*
%TO.P,A1,28,17*%
%TO.N,unconnected-(A1-17-Pad28)*%
X152400000Y-83820000D03*
%TO.P,A1,29,5*%
%TO.N,unconnected-(A1-5-Pad29)*%
X152400000Y-81280000D03*
%TO.P,A1,30,18*%
%TO.N,Net-(A1-18)*%
X152400000Y-78740000D03*
%TO.P,A1,31,19*%
%TO.N,Net-(A1-19)*%
X152400000Y-76200000D03*
%TO.P,A1,32,GND*%
%TO.N,unconnected-(A1-GND-Pad32)*%
X152400000Y-73660000D03*
%TO.P,A1,33,21*%
%TO.N,unconnected-(A1-21-Pad33)*%
X152400000Y-71120000D03*
%TO.P,A1,34,RX*%
%TO.N,unconnected-(A1-RX-Pad34)*%
X152400000Y-68580000D03*
%TO.P,A1,35,TX*%
%TO.N,unconnected-(A1-TX-Pad35)*%
X152400000Y-66040000D03*
%TO.P,A1,36,22*%
%TO.N,unconnected-(A1-22-Pad36)*%
X152400000Y-63500000D03*
%TO.P,A1,37,23*%
%TO.N,unconnected-(A1-23-Pad37)*%
X152400000Y-60960000D03*
%TO.P,A1,38,GND*%
%TO.N,GND*%
X152400000Y-58420000D03*
%TD*%
D12*
%TO.P,SW1,1,1*%
%TO.N,GND*%
X91850000Y-64080000D03*
X98350000Y-64080000D03*
%TO.P,SW1,2,2*%
%TO.N,Net-(A1-VP)*%
X91850000Y-68580000D03*
X98350000Y-68580000D03*
%TD*%
D13*
%TO.P,TrimPot2,1,1*%
%TO.N,VCC*%
X114300000Y-93980000D03*
%TO.P,TrimPot2,2,2*%
%TO.N,Net-(A1-27)*%
X114300000Y-96520000D03*
%TO.P,TrimPot2,3,3*%
%TO.N,GND*%
X114300000Y-99060000D03*
%TD*%
D14*
%TO.P,R2,1*%
%TO.N,VCC*%
X140970000Y-68580000D03*
D15*
%TO.P,R2,2*%
%TO.N,Net-(A1-VN)*%
X133350000Y-68580000D03*
%TD*%
D12*
%TO.P,SW4,1,1*%
%TO.N,GND*%
X105260000Y-76780000D03*
X111760000Y-76780000D03*
%TO.P,SW4,2,2*%
%TO.N,Net-(A1-35)*%
X105260000Y-81280000D03*
X111760000Y-81280000D03*
%TD*%
D14*
%TO.P,R3,1*%
%TO.N,VCC*%
X140970000Y-76200000D03*
D15*
%TO.P,R3,2*%
%TO.N,Net-(A1-34)*%
X133350000Y-76200000D03*
%TD*%
D13*
%TO.P,TrimPot1,1,1*%
%TO.N,VCC*%
X106680000Y-93980000D03*
%TO.P,TrimPot1,2,2*%
%TO.N,Net-(A1-26)*%
X106680000Y-96520000D03*
%TO.P,TrimPot1,3,3*%
%TO.N,GND*%
X106680000Y-99060000D03*
%TD*%
D16*
%TO.P,J2,1,Pin_1*%
%TO.N,GND*%
X170180000Y-58420000D03*
D17*
%TO.P,J2,2,Pin_2*%
%TO.N,Net-(J2-Pin_2)*%
X167640000Y-58420000D03*
%TO.P,J2,3,Pin_3*%
%TO.N,Net-(A1-19)*%
X165100000Y-58420000D03*
%TD*%
D16*
%TO.P,J3,1,Pin_1*%
%TO.N,GND*%
X170180000Y-66040000D03*
D17*
%TO.P,J3,2,Pin_2*%
%TO.N,Net-(J2-Pin_2)*%
X167640000Y-66040000D03*
%TO.P,J3,3,Pin_3*%
%TO.N,Net-(A1-18)*%
X165100000Y-66040000D03*
%TD*%
D12*
%TO.P,SW3,1,1*%
%TO.N,GND*%
X91850000Y-76780000D03*
X98350000Y-76780000D03*
%TO.P,SW3,2,2*%
%TO.N,Net-(A1-34)*%
X91850000Y-81280000D03*
X98350000Y-81280000D03*
%TD*%
D14*
%TO.P,R4,1*%
%TO.N,VCC*%
X140970000Y-83820000D03*
D15*
%TO.P,R4,2*%
%TO.N,Net-(A1-35)*%
X133350000Y-83820000D03*
%TD*%
D16*
%TO.P,J4,1,Pin_1*%
%TO.N,VCC*%
X166624000Y-88646000D03*
D17*
%TO.P,J4,2,Pin_2*%
%TO.N,unconnected-(J4-Pin_2-Pad2)*%
X169164000Y-88646000D03*
%TO.P,J4,3,Pin_3*%
%TO.N,Net-(A1-EN)*%
X166624000Y-91186000D03*
%TO.P,J4,4,Pin_4*%
%TO.N,GND*%
X169164000Y-91186000D03*
%TO.P,J4,5,Pin_5*%
%TO.N,Net-(A1-12)*%
X166624000Y-93726000D03*
%TO.P,J4,6,Pin_6*%
%TO.N,GND*%
X169164000Y-93726000D03*
%TO.P,J4,7,Pin_7*%
%TO.N,Net-(A1-14)*%
X166624000Y-96266000D03*
%TO.P,J4,8,Pin_8*%
%TO.N,GND*%
X169164000Y-96266000D03*
%TO.P,J4,9,Pin_9*%
%TO.N,Net-(A1-13)*%
X166624000Y-98806000D03*
%TO.P,J4,10,Pin_10*%
%TO.N,GND*%
X169164000Y-98806000D03*
%TO.P,J4,11,Pin_11*%
%TO.N,unconnected-(J4-Pin_11-Pad11)*%
X166624000Y-101346000D03*
%TO.P,J4,12,Pin_12*%
%TO.N,GND*%
X169164000Y-101346000D03*
%TO.P,J4,13,Pin_13*%
%TO.N,Net-(A1-15)*%
X166624000Y-103886000D03*
%TO.P,J4,14,Pin_14*%
%TO.N,GND*%
X169164000Y-103886000D03*
%TO.P,J4,15,Pin_15*%
%TO.N,unconnected-(J4-Pin_15-Pad15)*%
X166624000Y-106426000D03*
%TO.P,J4,16,Pin_16*%
%TO.N,GND*%
X169164000Y-106426000D03*
%TO.P,J4,17,Pin_17*%
%TO.N,unconnected-(J4-Pin_17-Pad17)*%
X166624000Y-108966000D03*
%TO.P,J4,18,Pin_18*%
%TO.N,GND*%
X169164000Y-108966000D03*
%TO.P,J4,19,Pin_19*%
%TO.N,unconnected-(J4-Pin_19-Pad19)*%
X166624000Y-111506000D03*
%TO.P,J4,20,Pin_20*%
%TO.N,GND*%
X169164000Y-111506000D03*
%TD*%
D12*
%TO.P,SW2,1,1*%
%TO.N,GND*%
X105260000Y-64080000D03*
X111760000Y-64080000D03*
%TO.P,SW2,2,2*%
%TO.N,Net-(A1-VN)*%
X105260000Y-68580000D03*
X111760000Y-68580000D03*
%TD*%
D18*
%TO.P,J1,1*%
%TO.N,Net-(J2-Pin_2)*%
X163672000Y-78173500D03*
D19*
%TO.P,J1,2*%
%TO.N,GND*%
X169672000Y-78173500D03*
D20*
%TO.P,J1,3*%
%TO.N,N/C*%
X166672000Y-73473500D03*
%TD*%
D21*
%TO.P,Pot1,1,1*%
%TO.N,VCC*%
X93980000Y-91440000D03*
%TO.P,Pot1,2,2*%
%TO.N,Net-(A1-25)*%
X93980000Y-96440000D03*
%TO.P,Pot1,3,3*%
%TO.N,GND*%
X93980000Y-101440000D03*
%TD*%
D14*
%TO.P,R1,1*%
%TO.N,VCC*%
X140970000Y-60960000D03*
D15*
%TO.P,R1,2*%
%TO.N,Net-(A1-VP)*%
X133350000Y-60960000D03*
%TD*%
D22*
%TO.N,VCC*%
X137922000Y-99822000D03*
X102108000Y-95504000D03*
X146050000Y-91948000D03*
X102108000Y-86614000D03*
%TO.N,Net-(A1-12)*%
X159766000Y-102108000D03*
X159766000Y-108204000D03*
%TO.N,Net-(A1-15)*%
X156718000Y-116078000D03*
X155956000Y-96520000D03*
%TO.N,GND*%
X114300000Y-103124000D03*
X106680000Y-108712000D03*
X114300000Y-108712000D03*
X106680000Y-103124000D03*
%TD*%
D23*
%TO.N,VCC*%
X138176000Y-99822000D02*
X137922000Y-99822000D01*
X146050000Y-91948000D02*
X138176000Y-99822000D01*
X102108000Y-95504000D02*
X102108000Y-86614000D01*
%TO.N,Net-(A1-12)*%
X159766000Y-102108000D02*
X159766000Y-108204000D01*
%TO.N,Net-(A1-15)*%
X155956000Y-96520000D02*
X156718000Y-97282000D01*
X156718000Y-97282000D02*
X156718000Y-116078000D01*
%TO.N,GND*%
X106680000Y-103378000D02*
X106680000Y-108712000D01*
X114300000Y-103124000D02*
X114300000Y-108712000D01*
%TD*%
M02*
