%TF.GenerationSoftware,KiCad,Pcbnew,7.0.7*%
%TF.CreationDate,2023-09-02T13:45:52+02:00*%
%TF.ProjectId,DevelopmentBoard,44657665-6c6f-4706-9d65-6e74426f6172,v1.0*%
%TF.SameCoordinates,Original*%
%TF.FileFunction,Copper,L2,Bot*%
%TF.FilePolarity,Positive*%
%FSLAX46Y46*%
G04 Gerber Fmt 4.6, Leading zero omitted, Abs format (unit mm)*
G04 Created by KiCad (PCBNEW 7.0.7) date 2023-09-02 13:45:52*
%MOMM*%
%LPD*%
G01*
G04 APERTURE LIST*
G04 Aperture macros list*
%AMRoundRect*
0 Rectangle with rounded corners*
0 $1 Rounding radius*
0 $2 $3 $4 $5 $6 $7 $8 $9 X,Y pos of 4 corners*
0 Add a 4 corners polygon primitive as box body*
4,1,4,$2,$3,$4,$5,$6,$7,$8,$9,$2,$3,0*
0 Add four circle primitives for the rounded corners*
1,1,$1+$1,$2,$3*
1,1,$1+$1,$4,$5*
1,1,$1+$1,$6,$7*
1,1,$1+$1,$8,$9*
0 Add four rect primitives between the rounded corners*
20,1,$1+$1,$2,$3,$4,$5,0*
20,1,$1+$1,$4,$5,$6,$7,0*
20,1,$1+$1,$6,$7,$8,$9,0*
20,1,$1+$1,$8,$9,$2,$3,0*%
G04 Aperture macros list end*
%TA.AperFunction,ComponentPad*%
%ADD10C,2.000000*%
%TD*%
%TA.AperFunction,ComponentPad*%
%ADD11C,1.440000*%
%TD*%
%TA.AperFunction,ComponentPad*%
%ADD12C,1.600000*%
%TD*%
%TA.AperFunction,ComponentPad*%
%ADD13O,1.600000X1.600000*%
%TD*%
%TA.AperFunction,ComponentPad*%
%ADD14R,1.700000X1.700000*%
%TD*%
%TA.AperFunction,ComponentPad*%
%ADD15O,1.700000X1.700000*%
%TD*%
%TA.AperFunction,ComponentPad*%
%ADD16R,1.524000X1.524000*%
%TD*%
%TA.AperFunction,ComponentPad*%
%ADD17C,1.524000*%
%TD*%
%TA.AperFunction,ComponentPad*%
%ADD18R,3.500000X3.500000*%
%TD*%
%TA.AperFunction,ComponentPad*%
%ADD19RoundRect,0.750000X0.750000X1.000000X-0.750000X1.000000X-0.750000X-1.000000X0.750000X-1.000000X0*%
%TD*%
%TA.AperFunction,ComponentPad*%
%ADD20RoundRect,0.875000X0.875000X0.875000X-0.875000X0.875000X-0.875000X-0.875000X0.875000X-0.875000X0*%
%TD*%
%TA.AperFunction,ComponentPad*%
%ADD21C,2.340000*%
%TD*%
%TA.AperFunction,ViaPad*%
%ADD22C,1.524000*%
%TD*%
%TA.AperFunction,Conductor*%
%ADD23C,0.762000*%
%TD*%
%TA.AperFunction,Conductor*%
%ADD24C,1.524000*%
%TD*%
G04 APERTURE END LIST*
D10*
%TO.P,SW1,1,1*%
%TO.N,GND*%
X91850000Y-64080000D03*
X98350000Y-64080000D03*
%TO.P,SW1,2,2*%
%TO.N,Net-(A1-VP)*%
X91850000Y-68580000D03*
X98350000Y-68580000D03*
%TD*%
D11*
%TO.P,TrimPot2,1,1*%
%TO.N,VCC*%
X114300000Y-93980000D03*
%TO.P,TrimPot2,2,2*%
%TO.N,Net-(A1-27)*%
X114300000Y-96520000D03*
%TO.P,TrimPot2,3,3*%
%TO.N,GND*%
X114300000Y-99060000D03*
%TD*%
D12*
%TO.P,R2,1*%
%TO.N,VCC*%
X140970000Y-68580000D03*
D13*
%TO.P,R2,2*%
%TO.N,Net-(A1-VN)*%
X133350000Y-68580000D03*
%TD*%
D10*
%TO.P,SW4,1,1*%
%TO.N,GND*%
X105260000Y-76780000D03*
X111760000Y-76780000D03*
%TO.P,SW4,2,2*%
%TO.N,Net-(A1-35)*%
X105260000Y-81280000D03*
X111760000Y-81280000D03*
%TD*%
D12*
%TO.P,R3,1*%
%TO.N,VCC*%
X140970000Y-76200000D03*
D13*
%TO.P,R3,2*%
%TO.N,Net-(A1-34)*%
X133350000Y-76200000D03*
%TD*%
D11*
%TO.P,TrimPot1,1,1*%
%TO.N,VCC*%
X106680000Y-93980000D03*
%TO.P,TrimPot1,2,2*%
%TO.N,Net-(A1-26)*%
X106680000Y-96520000D03*
%TO.P,TrimPot1,3,3*%
%TO.N,GND*%
X106680000Y-99060000D03*
%TD*%
D14*
%TO.P,J2,1,Pin_1*%
%TO.N,GND*%
X170180000Y-58420000D03*
D15*
%TO.P,J2,2,Pin_2*%
%TO.N,Net-(J2-Pin_2)*%
X167640000Y-58420000D03*
%TO.P,J2,3,Pin_3*%
%TO.N,Net-(A1-19)*%
X165100000Y-58420000D03*
%TD*%
D14*
%TO.P,J3,1,Pin_1*%
%TO.N,GND*%
X170180000Y-66040000D03*
D15*
%TO.P,J3,2,Pin_2*%
%TO.N,Net-(J2-Pin_2)*%
X167640000Y-66040000D03*
%TO.P,J3,3,Pin_3*%
%TO.N,Net-(A1-18)*%
X165100000Y-66040000D03*
%TD*%
D10*
%TO.P,SW3,1,1*%
%TO.N,GND*%
X91850000Y-76780000D03*
X98350000Y-76780000D03*
%TO.P,SW3,2,2*%
%TO.N,Net-(A1-34)*%
X91850000Y-81280000D03*
X98350000Y-81280000D03*
%TD*%
D16*
%TO.P,A1,1,3V3*%
%TO.N,VCC*%
X124460000Y-58420000D03*
D17*
%TO.P,A1,2,EN*%
%TO.N,Net-(A1-EN)*%
X124460000Y-60960000D03*
%TO.P,A1,3,VP*%
%TO.N,Net-(A1-VP)*%
X124460000Y-63500000D03*
%TO.P,A1,4,VN*%
%TO.N,Net-(A1-VN)*%
X124460000Y-66040000D03*
%TO.P,A1,5,34*%
%TO.N,Net-(A1-34)*%
X124460000Y-68580000D03*
%TO.P,A1,6,35*%
%TO.N,Net-(A1-35)*%
X124460000Y-71120000D03*
%TO.P,A1,7,32*%
%TO.N,unconnected-(A1-32-Pad7)*%
X124460000Y-73660000D03*
%TO.P,A1,8,33*%
%TO.N,unconnected-(A1-33-Pad8)*%
X124460000Y-76200000D03*
%TO.P,A1,9,25*%
%TO.N,Net-(A1-25)*%
X124460000Y-78740000D03*
%TO.P,A1,10,26*%
%TO.N,Net-(A1-26)*%
X124460000Y-81280000D03*
%TO.P,A1,11,27*%
%TO.N,Net-(A1-27)*%
X124460000Y-83820000D03*
%TO.P,A1,12,14*%
%TO.N,Net-(A1-14)*%
X124460000Y-86360000D03*
%TO.P,A1,13,12*%
%TO.N,Net-(A1-12)*%
X124460000Y-88900000D03*
%TO.P,A1,14,GND*%
%TO.N,unconnected-(A1-GND-Pad14)*%
X124460000Y-91440000D03*
%TO.P,A1,15,13*%
%TO.N,Net-(A1-13)*%
X124460000Y-93980000D03*
%TO.P,A1,16,D2*%
%TO.N,unconnected-(A1-D2-Pad16)*%
X124460000Y-96520000D03*
%TO.P,A1,17,D3*%
%TO.N,unconnected-(A1-D3-Pad17)*%
X124460000Y-99060000D03*
%TO.P,A1,18,CMD*%
%TO.N,unconnected-(A1-CMD-Pad18)*%
X124460000Y-101600000D03*
%TO.P,A1,19,5V*%
%TO.N,unconnected-(A1-5V-Pad19)*%
X124460000Y-104140000D03*
%TO.P,A1,20,CLK*%
%TO.N,unconnected-(A1-CLK-Pad20)*%
X152400000Y-104140000D03*
%TO.P,A1,21,D0*%
%TO.N,unconnected-(A1-D0-Pad21)*%
X152400000Y-101600000D03*
%TO.P,A1,22,D1*%
%TO.N,unconnected-(A1-D1-Pad22)*%
X152400000Y-99060000D03*
%TO.P,A1,23,15*%
%TO.N,Net-(A1-15)*%
X152400000Y-96520000D03*
%TO.P,A1,24,2*%
%TO.N,unconnected-(A1-2-Pad24)*%
X152400000Y-93980000D03*
%TO.P,A1,25,0*%
%TO.N,unconnected-(A1-0-Pad25)*%
X152400000Y-91440000D03*
%TO.P,A1,26,4*%
%TO.N,unconnected-(A1-4-Pad26)*%
X152400000Y-88900000D03*
%TO.P,A1,27,16*%
%TO.N,unconnected-(A1-16-Pad27)*%
X152400000Y-86360000D03*
%TO.P,A1,28,17*%
%TO.N,unconnected-(A1-17-Pad28)*%
X152400000Y-83820000D03*
%TO.P,A1,29,5*%
%TO.N,unconnected-(A1-5-Pad29)*%
X152400000Y-81280000D03*
%TO.P,A1,30,18*%
%TO.N,Net-(A1-18)*%
X152400000Y-78740000D03*
%TO.P,A1,31,19*%
%TO.N,Net-(A1-19)*%
X152400000Y-76200000D03*
%TO.P,A1,32,GND*%
%TO.N,unconnected-(A1-GND-Pad32)*%
X152400000Y-73660000D03*
%TO.P,A1,33,21*%
%TO.N,unconnected-(A1-21-Pad33)*%
X152400000Y-71120000D03*
%TO.P,A1,34,RX*%
%TO.N,unconnected-(A1-RX-Pad34)*%
X152400000Y-68580000D03*
%TO.P,A1,35,TX*%
%TO.N,unconnected-(A1-TX-Pad35)*%
X152400000Y-66040000D03*
%TO.P,A1,36,22*%
%TO.N,unconnected-(A1-22-Pad36)*%
X152400000Y-63500000D03*
%TO.P,A1,37,23*%
%TO.N,unconnected-(A1-23-Pad37)*%
X152400000Y-60960000D03*
%TO.P,A1,38,GND*%
%TO.N,GND*%
X152400000Y-58420000D03*
%TD*%
D12*
%TO.P,R4,1*%
%TO.N,VCC*%
X140970000Y-83820000D03*
D13*
%TO.P,R4,2*%
%TO.N,Net-(A1-35)*%
X133350000Y-83820000D03*
%TD*%
D14*
%TO.P,J4,1,Pin_1*%
%TO.N,VCC*%
X166624000Y-88646000D03*
D15*
%TO.P,J4,2,Pin_2*%
%TO.N,unconnected-(J4-Pin_2-Pad2)*%
X169164000Y-88646000D03*
%TO.P,J4,3,Pin_3*%
%TO.N,Net-(A1-EN)*%
X166624000Y-91186000D03*
%TO.P,J4,4,Pin_4*%
%TO.N,GND*%
X169164000Y-91186000D03*
%TO.P,J4,5,Pin_5*%
%TO.N,Net-(A1-12)*%
X166624000Y-93726000D03*
%TO.P,J4,6,Pin_6*%
%TO.N,GND*%
X169164000Y-93726000D03*
%TO.P,J4,7,Pin_7*%
%TO.N,Net-(A1-14)*%
X166624000Y-96266000D03*
%TO.P,J4,8,Pin_8*%
%TO.N,GND*%
X169164000Y-96266000D03*
%TO.P,J4,9,Pin_9*%
%TO.N,Net-(A1-13)*%
X166624000Y-98806000D03*
%TO.P,J4,10,Pin_10*%
%TO.N,GND*%
X169164000Y-98806000D03*
%TO.P,J4,11,Pin_11*%
%TO.N,unconnected-(J4-Pin_11-Pad11)*%
X166624000Y-101346000D03*
%TO.P,J4,12,Pin_12*%
%TO.N,GND*%
X169164000Y-101346000D03*
%TO.P,J4,13,Pin_13*%
%TO.N,Net-(A1-15)*%
X166624000Y-103886000D03*
%TO.P,J4,14,Pin_14*%
%TO.N,GND*%
X169164000Y-103886000D03*
%TO.P,J4,15,Pin_15*%
%TO.N,unconnected-(J4-Pin_15-Pad15)*%
X166624000Y-106426000D03*
%TO.P,J4,16,Pin_16*%
%TO.N,GND*%
X169164000Y-106426000D03*
%TO.P,J4,17,Pin_17*%
%TO.N,unconnected-(J4-Pin_17-Pad17)*%
X166624000Y-108966000D03*
%TO.P,J4,18,Pin_18*%
%TO.N,GND*%
X169164000Y-108966000D03*
%TO.P,J4,19,Pin_19*%
%TO.N,unconnected-(J4-Pin_19-Pad19)*%
X166624000Y-111506000D03*
%TO.P,J4,20,Pin_20*%
%TO.N,GND*%
X169164000Y-111506000D03*
%TD*%
D10*
%TO.P,SW2,1,1*%
%TO.N,GND*%
X105260000Y-64080000D03*
X111760000Y-64080000D03*
%TO.P,SW2,2,2*%
%TO.N,Net-(A1-VN)*%
X105260000Y-68580000D03*
X111760000Y-68580000D03*
%TD*%
D18*
%TO.P,J1,1*%
%TO.N,Net-(J2-Pin_2)*%
X163672000Y-78173500D03*
D19*
%TO.P,J1,2*%
%TO.N,GND*%
X169672000Y-78173500D03*
D20*
%TO.P,J1,3*%
%TO.N,N/C*%
X166672000Y-73473500D03*
%TD*%
D21*
%TO.P,Pot1,1,1*%
%TO.N,VCC*%
X93980000Y-91440000D03*
%TO.P,Pot1,2,2*%
%TO.N,Net-(A1-25)*%
X93980000Y-96440000D03*
%TO.P,Pot1,3,3*%
%TO.N,GND*%
X93980000Y-101440000D03*
%TD*%
D12*
%TO.P,R1,1*%
%TO.N,VCC*%
X140970000Y-60960000D03*
D13*
%TO.P,R1,2*%
%TO.N,Net-(A1-VP)*%
X133350000Y-60960000D03*
%TD*%
D22*
%TO.N,VCC*%
X137922000Y-99822000D03*
X102108000Y-95504000D03*
X146050000Y-91948000D03*
X102108000Y-86614000D03*
%TO.N,Net-(A1-12)*%
X159766000Y-102108000D03*
X159766000Y-108204000D03*
%TO.N,Net-(A1-15)*%
X156718000Y-116078000D03*
X155956000Y-96520000D03*
%TO.N,GND*%
X114300000Y-103124000D03*
X106680000Y-108712000D03*
X114300000Y-108712000D03*
X106680000Y-103124000D03*
%TD*%
D23*
%TO.N,VCC*%
X157480000Y-98298000D02*
X157480000Y-91186000D01*
X136906000Y-56896000D02*
X140970000Y-60960000D01*
X93980000Y-91440000D02*
X96266000Y-91440000D01*
X128016000Y-58420000D02*
X129540000Y-56896000D01*
X140970000Y-86868000D02*
X140970000Y-83820000D01*
X108204000Y-105410000D02*
X110490000Y-105410000D01*
X110490000Y-96520000D02*
X110490000Y-105410000D01*
X124460000Y-58420000D02*
X128016000Y-58420000D01*
X157480000Y-91186000D02*
X160020000Y-88646000D01*
X97536000Y-90170000D02*
X101092000Y-86614000D01*
X117856000Y-105410000D02*
X120650000Y-108204000D01*
X120650000Y-108204000D02*
X128778000Y-108204000D01*
X96266000Y-91440000D02*
X97536000Y-90170000D01*
X103632000Y-93980000D02*
X102108000Y-95504000D01*
X150114000Y-96012000D02*
X150114000Y-104902000D01*
X124460000Y-58420000D02*
X124714000Y-58166000D01*
X101092000Y-86614000D02*
X102108000Y-86614000D01*
X140970000Y-76200000D02*
X140970000Y-83820000D01*
X128778000Y-108204000D02*
X135382000Y-101600000D01*
X146050000Y-91948000D02*
X140970000Y-86868000D01*
X137922000Y-99822000D02*
X136144000Y-101600000D01*
X129540000Y-56896000D02*
X136906000Y-56896000D01*
X146050000Y-91948000D02*
X150114000Y-96012000D01*
X160020000Y-88646000D02*
X166624000Y-88646000D01*
X140970000Y-60960000D02*
X140970000Y-68580000D01*
X155956000Y-99822000D02*
X155956000Y-104394000D01*
X151384000Y-106172000D02*
X154178000Y-106172000D01*
X150114000Y-104902000D02*
X151384000Y-106172000D01*
X114300000Y-93980000D02*
X113030000Y-93980000D01*
X110490000Y-105410000D02*
X117856000Y-105410000D01*
X105156000Y-105410000D02*
X102108000Y-102362000D01*
X154178000Y-106172000D02*
X155956000Y-104394000D01*
X108204000Y-105410000D02*
X105156000Y-105410000D01*
X113030000Y-93980000D02*
X110490000Y-96520000D01*
X140970000Y-68580000D02*
X140970000Y-76200000D01*
X102108000Y-102362000D02*
X102108000Y-95504000D01*
X106680000Y-93980000D02*
X103632000Y-93980000D01*
X157480000Y-98298000D02*
X155956000Y-99822000D01*
X136144000Y-101600000D02*
X135382000Y-101600000D01*
%TO.N,Net-(A1-EN)*%
X124460000Y-60960000D02*
X128524000Y-60960000D01*
X158750000Y-94234000D02*
X161798000Y-91186000D01*
X150876000Y-107950000D02*
X154940000Y-107950000D01*
X137668000Y-59944000D02*
X137668000Y-87122000D01*
X148082000Y-97536000D02*
X148082000Y-105156000D01*
X154940000Y-107950000D02*
X157480000Y-105410000D01*
X128524000Y-60960000D02*
X130810000Y-58674000D01*
X130810000Y-58674000D02*
X136398000Y-58674000D01*
X148082000Y-105156000D02*
X150876000Y-107950000D01*
X136398000Y-58674000D02*
X137668000Y-59944000D01*
X157480000Y-100838000D02*
X157480000Y-105410000D01*
X161798000Y-91186000D02*
X166624000Y-91186000D01*
X158750000Y-99568000D02*
X157480000Y-100838000D01*
X137668000Y-87122000D02*
X148082000Y-97536000D01*
X158750000Y-94234000D02*
X158750000Y-99568000D01*
%TO.N,Net-(A1-VP)*%
X114046000Y-60198000D02*
X103124000Y-60198000D01*
X117348000Y-63500000D02*
X114046000Y-60198000D01*
X124460000Y-63500000D02*
X117348000Y-63500000D01*
X131318000Y-60960000D02*
X128778000Y-63500000D01*
X98350000Y-68580000D02*
X91850000Y-68580000D01*
X103124000Y-60198000D02*
X102108000Y-61214000D01*
X102108000Y-61214000D02*
X102108000Y-64822000D01*
X128778000Y-63500000D02*
X124460000Y-63500000D01*
X133350000Y-60960000D02*
X131318000Y-60960000D01*
X102108000Y-64822000D02*
X98350000Y-68580000D01*
%TO.N,Net-(A1-VN)*%
X124460000Y-66040000D02*
X117348000Y-66040000D01*
X114808000Y-68580000D02*
X111760000Y-68580000D01*
X130810000Y-66040000D02*
X133350000Y-68580000D01*
X117348000Y-66040000D02*
X114808000Y-68580000D01*
X105260000Y-68580000D02*
X111760000Y-68580000D01*
X124460000Y-66040000D02*
X130810000Y-66040000D01*
%TO.N,Net-(A1-34)*%
X130810000Y-73660000D02*
X133350000Y-76200000D01*
X124460000Y-68580000D02*
X119380000Y-68580000D01*
X124460000Y-68580000D02*
X127000000Y-68580000D01*
X101854000Y-75692000D02*
X101854000Y-77776000D01*
X101854000Y-77776000D02*
X98350000Y-81280000D01*
X127000000Y-68580000D02*
X130810000Y-72390000D01*
X103886000Y-73660000D02*
X101854000Y-75692000D01*
X130810000Y-72390000D02*
X130810000Y-73660000D01*
X119380000Y-68580000D02*
X114300000Y-73660000D01*
X114300000Y-73660000D02*
X103886000Y-73660000D01*
X98350000Y-81280000D02*
X91850000Y-81280000D01*
%TO.N,Net-(A1-35)*%
X127000000Y-71120000D02*
X128270000Y-72390000D01*
X120904000Y-71120000D02*
X117348000Y-74676000D01*
X117348000Y-74676000D02*
X117348000Y-78740000D01*
X117348000Y-78740000D02*
X114808000Y-81280000D01*
X111760000Y-81280000D02*
X105260000Y-81280000D01*
X128270000Y-78740000D02*
X133350000Y-83820000D01*
X114808000Y-81280000D02*
X111760000Y-81280000D01*
X128270000Y-72390000D02*
X128270000Y-78740000D01*
X124460000Y-71120000D02*
X120904000Y-71120000D01*
X124460000Y-71120000D02*
X127000000Y-71120000D01*
%TO.N,Net-(A1-25)*%
X96346000Y-96440000D02*
X105410000Y-87376000D01*
X93980000Y-96440000D02*
X96346000Y-96440000D01*
X105410000Y-87376000D02*
X110998000Y-87376000D01*
X110998000Y-87376000D02*
X119634000Y-78740000D01*
X119634000Y-78740000D02*
X124460000Y-78740000D01*
%TO.N,Net-(A1-26)*%
X110744000Y-90170000D02*
X119634000Y-81280000D01*
X107950000Y-96520000D02*
X110744000Y-93726000D01*
X106680000Y-96520000D02*
X107950000Y-96520000D01*
X110744000Y-93726000D02*
X110744000Y-90170000D01*
X119634000Y-81280000D02*
X124460000Y-81280000D01*
%TO.N,Net-(A1-27)*%
X116078000Y-96520000D02*
X119888000Y-92710000D01*
X114300000Y-96520000D02*
X116078000Y-96520000D01*
X119888000Y-92710000D02*
X119888000Y-88392000D01*
X119888000Y-88392000D02*
X124460000Y-83820000D01*
%TO.N,Net-(A1-14)*%
X161544000Y-100076000D02*
X165354000Y-96266000D01*
X146050000Y-105918000D02*
X149860000Y-109728000D01*
X161544000Y-103632000D02*
X161544000Y-100076000D01*
X149860000Y-109728000D02*
X155448000Y-109728000D01*
X155448000Y-109728000D02*
X161544000Y-103632000D01*
X131572000Y-88392000D02*
X136144000Y-88392000D01*
X136144000Y-88392000D02*
X146050000Y-98298000D01*
X165354000Y-96266000D02*
X166624000Y-96266000D01*
X146050000Y-98298000D02*
X146050000Y-105918000D01*
X129540000Y-86360000D02*
X131572000Y-88392000D01*
X124460000Y-86360000D02*
X129540000Y-86360000D01*
%TO.N,Net-(A1-12)*%
X130302000Y-90678000D02*
X135128000Y-90678000D01*
X159258000Y-108712000D02*
X155702000Y-112268000D01*
X159766000Y-102108000D02*
X160274000Y-101600000D01*
X160274000Y-101600000D02*
X160274000Y-94488000D01*
X135128000Y-90678000D02*
X143764000Y-99314000D01*
X143764000Y-106426000D02*
X149606000Y-112268000D01*
X128524000Y-88900000D02*
X130302000Y-90678000D01*
X149606000Y-112268000D02*
X155702000Y-112268000D01*
X161036000Y-93726000D02*
X166624000Y-93726000D01*
X124460000Y-88900000D02*
X128524000Y-88900000D01*
X160274000Y-94488000D02*
X161036000Y-93726000D01*
X143764000Y-99314000D02*
X143764000Y-106426000D01*
%TO.N,Net-(A1-13)*%
X163068000Y-101092000D02*
X165354000Y-98806000D01*
X124460000Y-93980000D02*
X135382000Y-93980000D01*
X141732000Y-100330000D02*
X141732000Y-109220000D01*
X135382000Y-93980000D02*
X141732000Y-100330000D01*
X156464000Y-114300000D02*
X163068000Y-107696000D01*
X165354000Y-98806000D02*
X166624000Y-98806000D01*
X141732000Y-109220000D02*
X146812000Y-114300000D01*
X146812000Y-114300000D02*
X156464000Y-114300000D01*
X163068000Y-107696000D02*
X163068000Y-101092000D01*
%TO.N,Net-(A1-15)*%
X152400000Y-96520000D02*
X155956000Y-96520000D01*
X158242000Y-116078000D02*
X156718000Y-116078000D01*
X156718000Y-116078000D02*
X156972000Y-116078000D01*
X164846000Y-109474000D02*
X158242000Y-116078000D01*
X164846000Y-105664000D02*
X164846000Y-109474000D01*
X166624000Y-103886000D02*
X164846000Y-105664000D01*
%TO.N,Net-(A1-18)*%
X159766000Y-68072000D02*
X159766000Y-71374000D01*
X159766000Y-71374000D02*
X152400000Y-78740000D01*
X161798000Y-66040000D02*
X159766000Y-68072000D01*
X165100000Y-66040000D02*
X161798000Y-66040000D01*
%TO.N,Net-(A1-19)*%
X152400000Y-76200000D02*
X157988000Y-70612000D01*
X157988000Y-70612000D02*
X157988000Y-62230000D01*
X157988000Y-62230000D02*
X161798000Y-58420000D01*
X161798000Y-58420000D02*
X165100000Y-58420000D01*
%TO.N,GND*%
X114300000Y-99060000D02*
X114300000Y-103124000D01*
X106680000Y-99060000D02*
X106680000Y-103378000D01*
D24*
%TO.N,Net-(J2-Pin_2)*%
X167640000Y-66040000D02*
X167640000Y-58420000D01*
X163672000Y-70030555D02*
X166720868Y-66981687D01*
X163672000Y-78173500D02*
X163672000Y-70030555D01*
X166709590Y-66970410D02*
X167640000Y-66040000D01*
%TD*%
%TA.AperFunction,Conductor*%
%TO.N,GND*%
G36*
X169260288Y-109484954D02*
G01*
X169341070Y-109538930D01*
X169395046Y-109619712D01*
X169414000Y-109715000D01*
X169414000Y-110757000D01*
X169395046Y-110852288D01*
X169341070Y-110933070D01*
X169260288Y-110987046D01*
X169165000Y-111006000D01*
X169163000Y-111006000D01*
X169067712Y-110987046D01*
X168986930Y-110933070D01*
X168932954Y-110852288D01*
X168914000Y-110757000D01*
X168914000Y-109715000D01*
X168932954Y-109619712D01*
X168986930Y-109538930D01*
X169067712Y-109484954D01*
X169163000Y-109466000D01*
X169165000Y-109466000D01*
X169260288Y-109484954D01*
G37*
%TD.AperFunction*%
%TA.AperFunction,Conductor*%
G36*
X169260288Y-106944954D02*
G01*
X169341070Y-106998930D01*
X169395046Y-107079712D01*
X169414000Y-107175000D01*
X169414000Y-108217000D01*
X169395046Y-108312288D01*
X169341070Y-108393070D01*
X169260288Y-108447046D01*
X169165000Y-108466000D01*
X169163000Y-108466000D01*
X169067712Y-108447046D01*
X168986930Y-108393070D01*
X168932954Y-108312288D01*
X168914000Y-108217000D01*
X168914000Y-107175000D01*
X168932954Y-107079712D01*
X168986930Y-106998930D01*
X169067712Y-106944954D01*
X169163000Y-106926000D01*
X169165000Y-106926000D01*
X169260288Y-106944954D01*
G37*
%TD.AperFunction*%
%TA.AperFunction,Conductor*%
G36*
X123088247Y-86797184D02*
G01*
X123169029Y-86851160D01*
X123220987Y-86927209D01*
X123257606Y-87010695D01*
X123257608Y-87010697D01*
X123257610Y-87010701D01*
X123288455Y-87057912D01*
X123381109Y-87199731D01*
X123381112Y-87199735D01*
X123534033Y-87365852D01*
X123534036Y-87365854D01*
X123534041Y-87365860D01*
X123613273Y-87427529D01*
X123620949Y-87433503D01*
X123684504Y-87506987D01*
X123715099Y-87599199D01*
X123708077Y-87696100D01*
X123664507Y-87782937D01*
X123620952Y-87826493D01*
X123534049Y-87894133D01*
X123534033Y-87894147D01*
X123381112Y-88060264D01*
X123381109Y-88060268D01*
X123257608Y-88249302D01*
X123257606Y-88249304D01*
X123166908Y-88456079D01*
X123166905Y-88456087D01*
X123111478Y-88674960D01*
X123111476Y-88674967D01*
X123092830Y-88900000D01*
X123111476Y-89125032D01*
X123111478Y-89125039D01*
X123165592Y-89338727D01*
X123166907Y-89343919D01*
X123181964Y-89378246D01*
X123257606Y-89550695D01*
X123257608Y-89550697D01*
X123257610Y-89550701D01*
X123286900Y-89595532D01*
X123381109Y-89739731D01*
X123381112Y-89739735D01*
X123534033Y-89905852D01*
X123534036Y-89905854D01*
X123534041Y-89905860D01*
X123534050Y-89905867D01*
X123620949Y-89973503D01*
X123684504Y-90046987D01*
X123715099Y-90139199D01*
X123708077Y-90236100D01*
X123664507Y-90322937D01*
X123620952Y-90366493D01*
X123534049Y-90434133D01*
X123534033Y-90434147D01*
X123381112Y-90600264D01*
X123381109Y-90600268D01*
X123257608Y-90789302D01*
X123257606Y-90789304D01*
X123166908Y-90996079D01*
X123166905Y-90996087D01*
X123111478Y-91214960D01*
X123111476Y-91214967D01*
X123092830Y-91439999D01*
X123111476Y-91665032D01*
X123111478Y-91665039D01*
X123126149Y-91722971D01*
X123166907Y-91883919D01*
X123185029Y-91925233D01*
X123257606Y-92090695D01*
X123257608Y-92090697D01*
X123257610Y-92090701D01*
X123261243Y-92096261D01*
X123381109Y-92279731D01*
X123381112Y-92279735D01*
X123534033Y-92445852D01*
X123534036Y-92445854D01*
X123534041Y-92445860D01*
X123534050Y-92445867D01*
X123620949Y-92513503D01*
X123684504Y-92586987D01*
X123715099Y-92679199D01*
X123708077Y-92776100D01*
X123664507Y-92862937D01*
X123620952Y-92906493D01*
X123534049Y-92974133D01*
X123534033Y-92974147D01*
X123381112Y-93140264D01*
X123381109Y-93140268D01*
X123257608Y-93329302D01*
X123257606Y-93329304D01*
X123166908Y-93536079D01*
X123166905Y-93536087D01*
X123111478Y-93754960D01*
X123111476Y-93754967D01*
X123092830Y-93980000D01*
X123111476Y-94205032D01*
X123111478Y-94205039D01*
X123123366Y-94251982D01*
X123166907Y-94423919D01*
X123171050Y-94433363D01*
X123257606Y-94630695D01*
X123257608Y-94630697D01*
X123257610Y-94630701D01*
X123282959Y-94669500D01*
X123381109Y-94819731D01*
X123381112Y-94819735D01*
X123534033Y-94985852D01*
X123534037Y-94985855D01*
X123534041Y-94985860D01*
X123534045Y-94985863D01*
X123534046Y-94985864D01*
X123620951Y-95053505D01*
X123684504Y-95126989D01*
X123715099Y-95219201D01*
X123708077Y-95316102D01*
X123664506Y-95402940D01*
X123620951Y-95446495D01*
X123534046Y-95514135D01*
X123534033Y-95514147D01*
X123381112Y-95680264D01*
X123381109Y-95680268D01*
X123257608Y-95869302D01*
X123257606Y-95869304D01*
X123166908Y-96076079D01*
X123166905Y-96076087D01*
X123111478Y-96294960D01*
X123111476Y-96294967D01*
X123092830Y-96519999D01*
X123111476Y-96745032D01*
X123111478Y-96745039D01*
X123142709Y-96868365D01*
X123166907Y-96963919D01*
X123171050Y-96973363D01*
X123257606Y-97170695D01*
X123257608Y-97170697D01*
X123257610Y-97170701D01*
X123301136Y-97237322D01*
X123381109Y-97359731D01*
X123381112Y-97359735D01*
X123534033Y-97525852D01*
X123534037Y-97525855D01*
X123534041Y-97525860D01*
X123534044Y-97525862D01*
X123534046Y-97525864D01*
X123620951Y-97593505D01*
X123684504Y-97666989D01*
X123715099Y-97759201D01*
X123708077Y-97856102D01*
X123664506Y-97942940D01*
X123620951Y-97986495D01*
X123534046Y-98054135D01*
X123534033Y-98054147D01*
X123381112Y-98220264D01*
X123381109Y-98220268D01*
X123257608Y-98409302D01*
X123257606Y-98409304D01*
X123166908Y-98616079D01*
X123166905Y-98616087D01*
X123111478Y-98834960D01*
X123111476Y-98834967D01*
X123092830Y-99060000D01*
X123111476Y-99285032D01*
X123111478Y-99285039D01*
X123166905Y-99503912D01*
X123166907Y-99503919D01*
X123173794Y-99519619D01*
X123257606Y-99710695D01*
X123257608Y-99710697D01*
X123257610Y-99710701D01*
X123294005Y-99766408D01*
X123381109Y-99899731D01*
X123381112Y-99899735D01*
X123534033Y-100065852D01*
X123534037Y-100065855D01*
X123534041Y-100065860D01*
X123534044Y-100065862D01*
X123534046Y-100065864D01*
X123620951Y-100133505D01*
X123684504Y-100206989D01*
X123715099Y-100299201D01*
X123708077Y-100396102D01*
X123664506Y-100482940D01*
X123620951Y-100526495D01*
X123534046Y-100594135D01*
X123534033Y-100594147D01*
X123381112Y-100760264D01*
X123381109Y-100760268D01*
X123257608Y-100949302D01*
X123257606Y-100949304D01*
X123166908Y-101156079D01*
X123166905Y-101156087D01*
X123111478Y-101374960D01*
X123111476Y-101374967D01*
X123092830Y-101600000D01*
X123111476Y-101825032D01*
X123111478Y-101825039D01*
X123165592Y-102038727D01*
X123166907Y-102043919D01*
X123187120Y-102090000D01*
X123257606Y-102250695D01*
X123257608Y-102250697D01*
X123257610Y-102250701D01*
X123301136Y-102317322D01*
X123381109Y-102439731D01*
X123381112Y-102439735D01*
X123534033Y-102605852D01*
X123534037Y-102605855D01*
X123534041Y-102605860D01*
X123534044Y-102605862D01*
X123534046Y-102605864D01*
X123620951Y-102673505D01*
X123684504Y-102746989D01*
X123715099Y-102839201D01*
X123708077Y-102936102D01*
X123664506Y-103022940D01*
X123620951Y-103066495D01*
X123534046Y-103134135D01*
X123534033Y-103134147D01*
X123381112Y-103300264D01*
X123381109Y-103300268D01*
X123257608Y-103489302D01*
X123257606Y-103489304D01*
X123166908Y-103696079D01*
X123166905Y-103696087D01*
X123111478Y-103914960D01*
X123111476Y-103914967D01*
X123092830Y-104140000D01*
X123111476Y-104365032D01*
X123111478Y-104365039D01*
X123137725Y-104468683D01*
X123166907Y-104583919D01*
X123170614Y-104592370D01*
X123257606Y-104790695D01*
X123257608Y-104790697D01*
X123257610Y-104790701D01*
X123283083Y-104829690D01*
X123381109Y-104979731D01*
X123381112Y-104979735D01*
X123534033Y-105145852D01*
X123534035Y-105145854D01*
X123534041Y-105145860D01*
X123661071Y-105244731D01*
X123712222Y-105284544D01*
X123712223Y-105284545D01*
X123712229Y-105284549D01*
X123903190Y-105387892D01*
X123910816Y-105392019D01*
X123979809Y-105415704D01*
X124124380Y-105465335D01*
X124347100Y-105502500D01*
X124572900Y-105502500D01*
X124795620Y-105465335D01*
X125009186Y-105392018D01*
X125207771Y-105284549D01*
X125385959Y-105145860D01*
X125538889Y-104979733D01*
X125662390Y-104790701D01*
X125667098Y-104779969D01*
X125697847Y-104709867D01*
X125753093Y-104583919D01*
X125808524Y-104365029D01*
X125827170Y-104140000D01*
X125808524Y-103914971D01*
X125753093Y-103696081D01*
X125686134Y-103543430D01*
X125662393Y-103489304D01*
X125662391Y-103489302D01*
X125662390Y-103489299D01*
X125538889Y-103300267D01*
X125538887Y-103300264D01*
X125385966Y-103134147D01*
X125385963Y-103134144D01*
X125385959Y-103134140D01*
X125340196Y-103098521D01*
X125299048Y-103066494D01*
X125235494Y-102993009D01*
X125204900Y-102900797D01*
X125211922Y-102803896D01*
X125255493Y-102717059D01*
X125299046Y-102673506D01*
X125385959Y-102605860D01*
X125538889Y-102439733D01*
X125662390Y-102250701D01*
X125662695Y-102250007D01*
X125697847Y-102169867D01*
X125753093Y-102043919D01*
X125808524Y-101825029D01*
X125827170Y-101600000D01*
X125808524Y-101374971D01*
X125753093Y-101156081D01*
X125691298Y-101015202D01*
X125662393Y-100949304D01*
X125662391Y-100949302D01*
X125662390Y-100949299D01*
X125558492Y-100790271D01*
X125538890Y-100760268D01*
X125538887Y-100760264D01*
X125385966Y-100594147D01*
X125385962Y-100594143D01*
X125385959Y-100594140D01*
X125299047Y-100526494D01*
X125235495Y-100453012D01*
X125204900Y-100360800D01*
X125211922Y-100263899D01*
X125255492Y-100177061D01*
X125299046Y-100133506D01*
X125385959Y-100065860D01*
X125538889Y-99899733D01*
X125662390Y-99710701D01*
X125667098Y-99699969D01*
X125689910Y-99647962D01*
X125753093Y-99503919D01*
X125808524Y-99285029D01*
X125827170Y-99060000D01*
X125808524Y-98834971D01*
X125753093Y-98616081D01*
X125689278Y-98470597D01*
X125662393Y-98409304D01*
X125662391Y-98409302D01*
X125662390Y-98409299D01*
X125547254Y-98233070D01*
X125538890Y-98220268D01*
X125538887Y-98220264D01*
X125385966Y-98054147D01*
X125385962Y-98054143D01*
X125385959Y-98054140D01*
X125299047Y-97986494D01*
X125235495Y-97913012D01*
X125204900Y-97820800D01*
X125211922Y-97723899D01*
X125255492Y-97637061D01*
X125299046Y-97593506D01*
X125385959Y-97525860D01*
X125538889Y-97359733D01*
X125662390Y-97170701D01*
X125662695Y-97170007D01*
X125694392Y-97097744D01*
X125753093Y-96963919D01*
X125808524Y-96745029D01*
X125827170Y-96520000D01*
X125808524Y-96294971D01*
X125753093Y-96076081D01*
X125691298Y-95935202D01*
X125662393Y-95869304D01*
X125662391Y-95869302D01*
X125662390Y-95869299D01*
X125547254Y-95693070D01*
X125538890Y-95680268D01*
X125538887Y-95680264D01*
X125385966Y-95514147D01*
X125385962Y-95514143D01*
X125385959Y-95514140D01*
X125385953Y-95514135D01*
X125299049Y-95446495D01*
X125235496Y-95373011D01*
X125204901Y-95280799D01*
X125211923Y-95183898D01*
X125255494Y-95097060D01*
X125299051Y-95053503D01*
X125349801Y-95014003D01*
X125436638Y-94970434D01*
X125502739Y-94961500D01*
X134872309Y-94961500D01*
X134967597Y-94980454D01*
X135048379Y-95034430D01*
X138048382Y-98034433D01*
X138102356Y-98115212D01*
X138121310Y-98210500D01*
X138102356Y-98305788D01*
X138048380Y-98386570D01*
X137967598Y-98440546D01*
X137872310Y-98459500D01*
X137809100Y-98459500D01*
X137586383Y-98496664D01*
X137586379Y-98496665D01*
X137372816Y-98569980D01*
X137174222Y-98677455D01*
X136996045Y-98816137D01*
X136996033Y-98816147D01*
X136843112Y-98982264D01*
X136843109Y-98982268D01*
X136719608Y-99171302D01*
X136719606Y-99171304D01*
X136628908Y-99378079D01*
X136628905Y-99378087D01*
X136573478Y-99596960D01*
X136573475Y-99596978D01*
X136564252Y-99708271D01*
X136537493Y-99801668D01*
X136492173Y-99863775D01*
X135810381Y-100545569D01*
X135729600Y-100599546D01*
X135634311Y-100618500D01*
X135394431Y-100618500D01*
X135307091Y-100616286D01*
X135307086Y-100616287D01*
X135250235Y-100626475D01*
X135240868Y-100627789D01*
X135183408Y-100633632D01*
X135155106Y-100642511D01*
X135139789Y-100646271D01*
X135110600Y-100651502D01*
X135056956Y-100672929D01*
X135048045Y-100676102D01*
X134992944Y-100693389D01*
X134992935Y-100693393D01*
X134967007Y-100707784D01*
X134952767Y-100714547D01*
X134925221Y-100725552D01*
X134876991Y-100757337D01*
X134868903Y-100762237D01*
X134818413Y-100790262D01*
X134818400Y-100790271D01*
X134795899Y-100809587D01*
X134783309Y-100819080D01*
X134758549Y-100835398D01*
X134717707Y-100876240D01*
X134710769Y-100882670D01*
X134666946Y-100920290D01*
X134648794Y-100943741D01*
X134638369Y-100955577D01*
X128444380Y-107149570D01*
X128363598Y-107203546D01*
X128268310Y-107222500D01*
X121159690Y-107222500D01*
X121064402Y-107203546D01*
X120983620Y-107149570D01*
X118558835Y-104724785D01*
X118498617Y-104661436D01*
X118451206Y-104628436D01*
X118443650Y-104622739D01*
X118412220Y-104597112D01*
X118398898Y-104586249D01*
X118394424Y-104583912D01*
X118372608Y-104572515D01*
X118359127Y-104564349D01*
X118334780Y-104547403D01*
X118316858Y-104539712D01*
X118281698Y-104524623D01*
X118273150Y-104520563D01*
X118221967Y-104493827D01*
X118221966Y-104493826D01*
X118221965Y-104493826D01*
X118193449Y-104485666D01*
X118178596Y-104480378D01*
X118157462Y-104471309D01*
X118151343Y-104468683D01*
X118151341Y-104468682D01*
X118151340Y-104468682D01*
X118132169Y-104464742D01*
X118094774Y-104457057D01*
X118085586Y-104454802D01*
X118030048Y-104438911D01*
X118030040Y-104438910D01*
X118000469Y-104436657D01*
X117984857Y-104434468D01*
X117960969Y-104429560D01*
X117955809Y-104428500D01*
X117955808Y-104428500D01*
X117898063Y-104428500D01*
X117888605Y-104428140D01*
X117831009Y-104423754D01*
X117831008Y-104423754D01*
X117801577Y-104427502D01*
X117785838Y-104428500D01*
X111720500Y-104428500D01*
X111625212Y-104409546D01*
X111544430Y-104355570D01*
X111490454Y-104274788D01*
X111471500Y-104179500D01*
X111471500Y-97029690D01*
X111490454Y-96934402D01*
X111544430Y-96853620D01*
X112416194Y-95981856D01*
X112687553Y-95710496D01*
X112768334Y-95656522D01*
X112863622Y-95637568D01*
X112958910Y-95656522D01*
X113039692Y-95710498D01*
X113093668Y-95791280D01*
X113112622Y-95886568D01*
X113093668Y-95981856D01*
X113089293Y-95991799D01*
X113054396Y-96066636D01*
X112994594Y-96289820D01*
X112994592Y-96289834D01*
X112974456Y-96519994D01*
X112974456Y-96520005D01*
X112994592Y-96750165D01*
X112994594Y-96750179D01*
X113051865Y-96963919D01*
X113054396Y-96973363D01*
X113152045Y-97182772D01*
X113284574Y-97372043D01*
X113447957Y-97535426D01*
X113447960Y-97535428D01*
X113447961Y-97535429D01*
X113607835Y-97647375D01*
X113675019Y-97717556D01*
X113710231Y-97808105D01*
X113708112Y-97905237D01*
X113668982Y-97994164D01*
X113632661Y-98030484D01*
X113631967Y-98038414D01*
X114017863Y-98424311D01*
X114071839Y-98505092D01*
X114090793Y-98600380D01*
X114071839Y-98695668D01*
X114017863Y-98776450D01*
X114016450Y-98777863D01*
X113935668Y-98831839D01*
X113840380Y-98850793D01*
X113745092Y-98831839D01*
X113664311Y-98777863D01*
X113278414Y-98391967D01*
X113239411Y-98447672D01*
X113239410Y-98447673D01*
X113149196Y-98641140D01*
X113093945Y-98847341D01*
X113093945Y-98847342D01*
X113075340Y-99059999D01*
X113093945Y-99272657D01*
X113093945Y-99272658D01*
X113149195Y-99478856D01*
X113239413Y-99672329D01*
X113278415Y-99728030D01*
X113664309Y-99342136D01*
X113745091Y-99288159D01*
X113840379Y-99269205D01*
X113935667Y-99288159D01*
X114016448Y-99342135D01*
X114016449Y-99342135D01*
X114017863Y-99343549D01*
X114071839Y-99424331D01*
X114090793Y-99519619D01*
X114071839Y-99614907D01*
X114017863Y-99695688D01*
X113631968Y-100081583D01*
X113631968Y-100081585D01*
X113687661Y-100120581D01*
X113687671Y-100120587D01*
X113881140Y-100210803D01*
X114087341Y-100266054D01*
X114300000Y-100284659D01*
X114512657Y-100266054D01*
X114512658Y-100266054D01*
X114718859Y-100210803D01*
X114912329Y-100120587D01*
X114968030Y-100081584D01*
X114968030Y-100081583D01*
X114582136Y-99695688D01*
X114528160Y-99614907D01*
X114509206Y-99519619D01*
X114528160Y-99424331D01*
X114582133Y-99343552D01*
X114583552Y-99342133D01*
X114664331Y-99288160D01*
X114759619Y-99269206D01*
X114854907Y-99288160D01*
X114935688Y-99342136D01*
X115321583Y-99728030D01*
X115321584Y-99728030D01*
X115360587Y-99672329D01*
X115450803Y-99478859D01*
X115506054Y-99272658D01*
X115506054Y-99272657D01*
X115524659Y-99060000D01*
X115506054Y-98847342D01*
X115506054Y-98847341D01*
X115450803Y-98641140D01*
X115360587Y-98447671D01*
X115360581Y-98447661D01*
X115321585Y-98391968D01*
X115321583Y-98391968D01*
X114935688Y-98777863D01*
X114854907Y-98831839D01*
X114759619Y-98850793D01*
X114664331Y-98831839D01*
X114583549Y-98777863D01*
X114582135Y-98776449D01*
X114528159Y-98695667D01*
X114509205Y-98600379D01*
X114528159Y-98505091D01*
X114582135Y-98424309D01*
X114582136Y-98424309D01*
X114968030Y-98038415D01*
X114967230Y-98029265D01*
X114924979Y-97985130D01*
X114889767Y-97894581D01*
X114891886Y-97797449D01*
X114931016Y-97708522D01*
X114992162Y-97647375D01*
X115107232Y-97566803D01*
X115136184Y-97546531D01*
X115225112Y-97507402D01*
X115279004Y-97501500D01*
X116065546Y-97501500D01*
X116152912Y-97503714D01*
X116152912Y-97503713D01*
X116152913Y-97503714D01*
X116209791Y-97493518D01*
X116219118Y-97492210D01*
X116276593Y-97486367D01*
X116304885Y-97477489D01*
X116320210Y-97473728D01*
X116349400Y-97468497D01*
X116403057Y-97447063D01*
X116411913Y-97443910D01*
X116467057Y-97426609D01*
X116493002Y-97412208D01*
X116507235Y-97405449D01*
X116534775Y-97394449D01*
X116583001Y-97362664D01*
X116591074Y-97357773D01*
X116641592Y-97329734D01*
X116664094Y-97310414D01*
X116676680Y-97300924D01*
X116701450Y-97284601D01*
X116742292Y-97243758D01*
X116749222Y-97237335D01*
X116793053Y-97199709D01*
X116811205Y-97176256D01*
X116821631Y-97164419D01*
X120573234Y-93412817D01*
X120636560Y-93352621D01*
X120636560Y-93352620D01*
X120636562Y-93352619D01*
X120669569Y-93305195D01*
X120675247Y-93297666D01*
X120677169Y-93295309D01*
X120711751Y-93252898D01*
X120725488Y-93226597D01*
X120733646Y-93213132D01*
X120750597Y-93188780D01*
X120773382Y-93135683D01*
X120777423Y-93127173D01*
X120804174Y-93075964D01*
X120812330Y-93047454D01*
X120817621Y-93032595D01*
X120829318Y-93005340D01*
X120840947Y-92948745D01*
X120843200Y-92939570D01*
X120859088Y-92884048D01*
X120861340Y-92854472D01*
X120863531Y-92838853D01*
X120869500Y-92809809D01*
X120869500Y-92752061D01*
X120869860Y-92742603D01*
X120871159Y-92725546D01*
X120874246Y-92685008D01*
X120870497Y-92655572D01*
X120869499Y-92639855D01*
X120869499Y-88901689D01*
X120888453Y-88806402D01*
X120942426Y-88725623D01*
X122816892Y-86851157D01*
X122897671Y-86797184D01*
X122992959Y-86778230D01*
X123088247Y-86797184D01*
G37*
%TD.AperFunction*%
%TA.AperFunction,Conductor*%
G36*
X169260288Y-104404954D02*
G01*
X169341070Y-104458930D01*
X169395046Y-104539712D01*
X169414000Y-104635000D01*
X169414000Y-105677000D01*
X169395046Y-105772288D01*
X169341070Y-105853070D01*
X169260288Y-105907046D01*
X169165000Y-105926000D01*
X169163000Y-105926000D01*
X169067712Y-105907046D01*
X168986930Y-105853070D01*
X168932954Y-105772288D01*
X168914000Y-105677000D01*
X168914000Y-104635000D01*
X168932954Y-104539712D01*
X168986930Y-104458930D01*
X169067712Y-104404954D01*
X169163000Y-104386000D01*
X169165000Y-104386000D01*
X169260288Y-104404954D01*
G37*
%TD.AperFunction*%
%TA.AperFunction,Conductor*%
G36*
X105796284Y-94980454D02*
G01*
X105843816Y-95006531D01*
X105900228Y-95046031D01*
X105967412Y-95116212D01*
X106002625Y-95206761D01*
X106000506Y-95303893D01*
X105961377Y-95392820D01*
X105900230Y-95453967D01*
X105869352Y-95475589D01*
X105827958Y-95504573D01*
X105664573Y-95667958D01*
X105532046Y-95857226D01*
X105434395Y-96066639D01*
X105374594Y-96289820D01*
X105374592Y-96289834D01*
X105354456Y-96519994D01*
X105354456Y-96520005D01*
X105374592Y-96750165D01*
X105374594Y-96750179D01*
X105431865Y-96963919D01*
X105434396Y-96973363D01*
X105532045Y-97182772D01*
X105664574Y-97372043D01*
X105827957Y-97535426D01*
X105827960Y-97535428D01*
X105827961Y-97535429D01*
X105987835Y-97647375D01*
X106055019Y-97717556D01*
X106090231Y-97808105D01*
X106088112Y-97905237D01*
X106048982Y-97994164D01*
X106012661Y-98030484D01*
X106011967Y-98038414D01*
X106397863Y-98424311D01*
X106451839Y-98505092D01*
X106470793Y-98600380D01*
X106451839Y-98695668D01*
X106397863Y-98776450D01*
X106396450Y-98777863D01*
X106315668Y-98831839D01*
X106220380Y-98850793D01*
X106125092Y-98831839D01*
X106044311Y-98777863D01*
X105658414Y-98391967D01*
X105619411Y-98447672D01*
X105619410Y-98447673D01*
X105529196Y-98641140D01*
X105473945Y-98847341D01*
X105473945Y-98847342D01*
X105455340Y-99059999D01*
X105473945Y-99272657D01*
X105473945Y-99272658D01*
X105529195Y-99478856D01*
X105619413Y-99672329D01*
X105658415Y-99728030D01*
X106044309Y-99342136D01*
X106125091Y-99288159D01*
X106220379Y-99269205D01*
X106315667Y-99288159D01*
X106396448Y-99342135D01*
X106396449Y-99342135D01*
X106397863Y-99343549D01*
X106451839Y-99424331D01*
X106470793Y-99519619D01*
X106451839Y-99614907D01*
X106397863Y-99695688D01*
X106011968Y-100081583D01*
X106011968Y-100081585D01*
X106067661Y-100120581D01*
X106067671Y-100120587D01*
X106261140Y-100210803D01*
X106467341Y-100266054D01*
X106680000Y-100284659D01*
X106892657Y-100266054D01*
X106892658Y-100266054D01*
X107098859Y-100210803D01*
X107292329Y-100120587D01*
X107348030Y-100081584D01*
X107348030Y-100081583D01*
X106962136Y-99695688D01*
X106908160Y-99614907D01*
X106889206Y-99519619D01*
X106908160Y-99424331D01*
X106962133Y-99343552D01*
X106963552Y-99342133D01*
X107044331Y-99288160D01*
X107139619Y-99269206D01*
X107234907Y-99288160D01*
X107315688Y-99342136D01*
X107701583Y-99728030D01*
X107701584Y-99728030D01*
X107740587Y-99672329D01*
X107830803Y-99478859D01*
X107886054Y-99272658D01*
X107886054Y-99272657D01*
X107904659Y-99059999D01*
X107886054Y-98847342D01*
X107886054Y-98847341D01*
X107830803Y-98641140D01*
X107740587Y-98447671D01*
X107740581Y-98447661D01*
X107701585Y-98391968D01*
X107701583Y-98391968D01*
X107315688Y-98777863D01*
X107234907Y-98831839D01*
X107139619Y-98850793D01*
X107044331Y-98831839D01*
X106963549Y-98777863D01*
X106962135Y-98776449D01*
X106908159Y-98695667D01*
X106889205Y-98600379D01*
X106908159Y-98505091D01*
X106962135Y-98424309D01*
X106962136Y-98424309D01*
X107348030Y-98038415D01*
X107347230Y-98029265D01*
X107304979Y-97985130D01*
X107269767Y-97894581D01*
X107271886Y-97797449D01*
X107311016Y-97708522D01*
X107372162Y-97647375D01*
X107487232Y-97566803D01*
X107516184Y-97546531D01*
X107605112Y-97507402D01*
X107659004Y-97501500D01*
X107937546Y-97501500D01*
X108024912Y-97503714D01*
X108024912Y-97503713D01*
X108024913Y-97503714D01*
X108081791Y-97493518D01*
X108091118Y-97492210D01*
X108148593Y-97486367D01*
X108176885Y-97477489D01*
X108192210Y-97473728D01*
X108221400Y-97468497D01*
X108275057Y-97447063D01*
X108283913Y-97443910D01*
X108339057Y-97426609D01*
X108365002Y-97412208D01*
X108379235Y-97405449D01*
X108406775Y-97394449D01*
X108455001Y-97362664D01*
X108463074Y-97357773D01*
X108513592Y-97329734D01*
X108536094Y-97310414D01*
X108548680Y-97300924D01*
X108573450Y-97284601D01*
X108614292Y-97243758D01*
X108621222Y-97237335D01*
X108665053Y-97199709D01*
X108683205Y-97176256D01*
X108693631Y-97164419D01*
X108885642Y-96972408D01*
X109083432Y-96774617D01*
X109164211Y-96720644D01*
X109259499Y-96701690D01*
X109354787Y-96720644D01*
X109435569Y-96774620D01*
X109489545Y-96855402D01*
X109508499Y-96950690D01*
X109508500Y-104179500D01*
X109489546Y-104274788D01*
X109435570Y-104355570D01*
X109354788Y-104409546D01*
X109259500Y-104428500D01*
X105665691Y-104428500D01*
X105570403Y-104409546D01*
X105489621Y-104355570D01*
X103162430Y-102028379D01*
X103108454Y-101947597D01*
X103089500Y-101852309D01*
X103089500Y-96546686D01*
X103108454Y-96451398D01*
X103155305Y-96378042D01*
X103186889Y-96343733D01*
X103310390Y-96154701D01*
X103401093Y-95947919D01*
X103456524Y-95729029D01*
X103465746Y-95617727D01*
X103492503Y-95524335D01*
X103537822Y-95462227D01*
X103965620Y-95034430D01*
X104046402Y-94980454D01*
X104141690Y-94961500D01*
X105700996Y-94961500D01*
X105796284Y-94980454D01*
G37*
%TD.AperFunction*%
%TA.AperFunction,Conductor*%
G36*
X169260288Y-101864954D02*
G01*
X169341070Y-101918930D01*
X169395046Y-101999712D01*
X169414000Y-102095000D01*
X169414000Y-103137000D01*
X169395046Y-103232288D01*
X169341070Y-103313070D01*
X169260288Y-103367046D01*
X169165000Y-103386000D01*
X169163000Y-103386000D01*
X169067712Y-103367046D01*
X168986930Y-103313070D01*
X168932954Y-103232288D01*
X168914000Y-103137000D01*
X168914000Y-102095000D01*
X168932954Y-101999712D01*
X168986930Y-101918930D01*
X169067712Y-101864954D01*
X169163000Y-101846000D01*
X169165000Y-101846000D01*
X169260288Y-101864954D01*
G37*
%TD.AperFunction*%
%TA.AperFunction,Conductor*%
G36*
X169260288Y-99324954D02*
G01*
X169341070Y-99378930D01*
X169395046Y-99459712D01*
X169414000Y-99555000D01*
X169414000Y-100597000D01*
X169395046Y-100692288D01*
X169341070Y-100773070D01*
X169260288Y-100827046D01*
X169165000Y-100846000D01*
X169163000Y-100846000D01*
X169067712Y-100827046D01*
X168986930Y-100773070D01*
X168932954Y-100692288D01*
X168914000Y-100597000D01*
X168914000Y-99555000D01*
X168932954Y-99459712D01*
X168986930Y-99378930D01*
X169067712Y-99324954D01*
X169163000Y-99306000D01*
X169165000Y-99306000D01*
X169260288Y-99324954D01*
G37*
%TD.AperFunction*%
%TA.AperFunction,Conductor*%
G36*
X169260288Y-96784954D02*
G01*
X169341070Y-96838930D01*
X169395046Y-96919712D01*
X169414000Y-97015000D01*
X169414000Y-98057000D01*
X169395046Y-98152288D01*
X169341070Y-98233070D01*
X169260288Y-98287046D01*
X169165000Y-98306000D01*
X169163000Y-98306000D01*
X169067712Y-98287046D01*
X168986930Y-98233070D01*
X168932954Y-98152288D01*
X168914000Y-98057000D01*
X168914000Y-97015000D01*
X168932954Y-96919712D01*
X168986930Y-96838930D01*
X169067712Y-96784954D01*
X169163000Y-96766000D01*
X169165000Y-96766000D01*
X169260288Y-96784954D01*
G37*
%TD.AperFunction*%
%TA.AperFunction,Conductor*%
G36*
X169260288Y-94244954D02*
G01*
X169341070Y-94298930D01*
X169395046Y-94379712D01*
X169414000Y-94475000D01*
X169414000Y-95517000D01*
X169395046Y-95612288D01*
X169341070Y-95693070D01*
X169260288Y-95747046D01*
X169165000Y-95766000D01*
X169163000Y-95766000D01*
X169067712Y-95747046D01*
X168986930Y-95693070D01*
X168932954Y-95612288D01*
X168914000Y-95517000D01*
X168914000Y-94475000D01*
X168932954Y-94379712D01*
X168986930Y-94298930D01*
X169067712Y-94244954D01*
X169163000Y-94226000D01*
X169165000Y-94226000D01*
X169260288Y-94244954D01*
G37*
%TD.AperFunction*%
%TA.AperFunction,Conductor*%
G36*
X169260288Y-91704954D02*
G01*
X169341070Y-91758930D01*
X169395046Y-91839712D01*
X169414000Y-91935000D01*
X169414000Y-92977000D01*
X169395046Y-93072288D01*
X169341070Y-93153070D01*
X169260288Y-93207046D01*
X169165000Y-93226000D01*
X169163000Y-93226000D01*
X169067712Y-93207046D01*
X168986930Y-93153070D01*
X168932954Y-93072288D01*
X168914000Y-92977000D01*
X168914000Y-91935000D01*
X168932954Y-91839712D01*
X168986930Y-91758930D01*
X169067712Y-91704954D01*
X169163000Y-91686000D01*
X169165000Y-91686000D01*
X169260288Y-91704954D01*
G37*
%TD.AperFunction*%
%TA.AperFunction,Conductor*%
G36*
X178661788Y-53359454D02*
G01*
X178742570Y-53413430D01*
X178796546Y-53494212D01*
X178815500Y-53589500D01*
X178815500Y-119384500D01*
X178796546Y-119479788D01*
X178742570Y-119560570D01*
X178661788Y-119614546D01*
X178566500Y-119633500D01*
X85339500Y-119633500D01*
X85244212Y-119614546D01*
X85163430Y-119560570D01*
X85109454Y-119479788D01*
X85090500Y-119384500D01*
X85090500Y-101440000D01*
X92305317Y-101440000D01*
X92324023Y-101689602D01*
X92379715Y-101933613D01*
X92471161Y-102166614D01*
X92471167Y-102166626D01*
X92596310Y-102383380D01*
X92596315Y-102383387D01*
X92634799Y-102431645D01*
X93167197Y-101899248D01*
X93247979Y-101845272D01*
X93343267Y-101826318D01*
X93438555Y-101845272D01*
X93513709Y-101893795D01*
X93515167Y-101895164D01*
X93571659Y-101974207D01*
X93593602Y-102068852D01*
X93577655Y-102164689D01*
X93526248Y-102247129D01*
X93520795Y-102252756D01*
X92988402Y-102785148D01*
X93142657Y-102890316D01*
X93142667Y-102890322D01*
X93368162Y-102998915D01*
X93368168Y-102998917D01*
X93607342Y-103072693D01*
X93854854Y-103110000D01*
X94105146Y-103110000D01*
X94352657Y-103072693D01*
X94591828Y-102998918D01*
X94817345Y-102890315D01*
X94971596Y-102785149D01*
X94441812Y-102255364D01*
X94387836Y-102174583D01*
X94368882Y-102079295D01*
X94387836Y-101984007D01*
X94426037Y-101920561D01*
X94427317Y-101919014D01*
X94502665Y-101857681D01*
X94595749Y-101829851D01*
X94692397Y-101839761D01*
X94777896Y-101885903D01*
X94795232Y-101901678D01*
X95325198Y-102431644D01*
X95363688Y-102383381D01*
X95488837Y-102166615D01*
X95488838Y-102166614D01*
X95580284Y-101933613D01*
X95635976Y-101689602D01*
X95654682Y-101440000D01*
X95635976Y-101190397D01*
X95580284Y-100946386D01*
X95488838Y-100713385D01*
X95488832Y-100713373D01*
X95363690Y-100496620D01*
X95325198Y-100448353D01*
X94792800Y-100980751D01*
X94712019Y-101034727D01*
X94616731Y-101053681D01*
X94521443Y-101034727D01*
X94446289Y-100986204D01*
X94444831Y-100984835D01*
X94388339Y-100905792D01*
X94366396Y-100811147D01*
X94382343Y-100715310D01*
X94433750Y-100632870D01*
X94439203Y-100627242D01*
X94971595Y-100094849D01*
X94817343Y-99989683D01*
X94817338Y-99989680D01*
X94591828Y-99881081D01*
X94352657Y-99807306D01*
X94105146Y-99770000D01*
X93854854Y-99770000D01*
X93607342Y-99807306D01*
X93368168Y-99881082D01*
X93368162Y-99881084D01*
X93142662Y-99989679D01*
X93142661Y-99989680D01*
X92988402Y-100094850D01*
X93518187Y-100624635D01*
X93572163Y-100705416D01*
X93591117Y-100800704D01*
X93572163Y-100895992D01*
X93533912Y-100959499D01*
X93532632Y-100961045D01*
X93457264Y-101022354D01*
X93364171Y-101050154D01*
X93267526Y-101040213D01*
X93182042Y-100994045D01*
X93164767Y-100978320D01*
X92634800Y-100448353D01*
X92596310Y-100496619D01*
X92471167Y-100713373D01*
X92471161Y-100713385D01*
X92379715Y-100946386D01*
X92324023Y-101190397D01*
X92305317Y-101440000D01*
X85090500Y-101440000D01*
X85090500Y-91440000D01*
X92204535Y-91440000D01*
X92224364Y-91704614D01*
X92224364Y-91704617D01*
X92224365Y-91704619D01*
X92228553Y-91722969D01*
X92283412Y-91963323D01*
X92380357Y-92210337D01*
X92380365Y-92210353D01*
X92513040Y-92440153D01*
X92678491Y-92647622D01*
X92678495Y-92647626D01*
X92704301Y-92671570D01*
X92873016Y-92828114D01*
X92873019Y-92828116D01*
X93092264Y-92977596D01*
X93092266Y-92977597D01*
X93092268Y-92977598D01*
X93204203Y-93031503D01*
X93331345Y-93092732D01*
X93331353Y-93092735D01*
X93584918Y-93170949D01*
X93584919Y-93170949D01*
X93584922Y-93170950D01*
X93847319Y-93210500D01*
X93847322Y-93210500D01*
X94112678Y-93210500D01*
X94112681Y-93210500D01*
X94375078Y-93170950D01*
X94517062Y-93127154D01*
X94628644Y-93092736D01*
X94628645Y-93092735D01*
X94628650Y-93092734D01*
X94867733Y-92977598D01*
X95086984Y-92828114D01*
X95281508Y-92647623D01*
X95387071Y-92515250D01*
X95461301Y-92452569D01*
X95553868Y-92423066D01*
X95581747Y-92421500D01*
X96253546Y-92421500D01*
X96340912Y-92423714D01*
X96340912Y-92423713D01*
X96340913Y-92423714D01*
X96397791Y-92413518D01*
X96407118Y-92412210D01*
X96464593Y-92406367D01*
X96492885Y-92397489D01*
X96508210Y-92393728D01*
X96537400Y-92388497D01*
X96591057Y-92367063D01*
X96599913Y-92363910D01*
X96655057Y-92346609D01*
X96680999Y-92332209D01*
X96695235Y-92325449D01*
X96722775Y-92314449D01*
X96771001Y-92282664D01*
X96779074Y-92277773D01*
X96829592Y-92249734D01*
X96852094Y-92230414D01*
X96864680Y-92220924D01*
X96889450Y-92204601D01*
X96930292Y-92163758D01*
X96937222Y-92157335D01*
X96981053Y-92119709D01*
X96999212Y-92096247D01*
X97009622Y-92084427D01*
X98159447Y-90934602D01*
X98159450Y-90934601D01*
X101212898Y-87881151D01*
X101293677Y-87827178D01*
X101388965Y-87808224D01*
X101484253Y-87827178D01*
X101507477Y-87838236D01*
X101558811Y-87866017D01*
X101558814Y-87866018D01*
X101772380Y-87939335D01*
X101995100Y-87976500D01*
X102220900Y-87976500D01*
X102443620Y-87939335D01*
X102657186Y-87866018D01*
X102855771Y-87758549D01*
X103033959Y-87619860D01*
X103186889Y-87453733D01*
X103310390Y-87264701D01*
X103313143Y-87258426D01*
X103337998Y-87201760D01*
X103401093Y-87057919D01*
X103456524Y-86839029D01*
X103475170Y-86614000D01*
X103456524Y-86388971D01*
X103401093Y-86170081D01*
X103348316Y-86049763D01*
X103310393Y-85963304D01*
X103310391Y-85963302D01*
X103310390Y-85963299D01*
X103206492Y-85804271D01*
X103186890Y-85774268D01*
X103186887Y-85774264D01*
X103033966Y-85608147D01*
X103033963Y-85608145D01*
X103033959Y-85608140D01*
X102891684Y-85497403D01*
X102855777Y-85469455D01*
X102855774Y-85469453D01*
X102855771Y-85469451D01*
X102706948Y-85388912D01*
X102657183Y-85361980D01*
X102443620Y-85288665D01*
X102443616Y-85288664D01*
X102220900Y-85251500D01*
X101995100Y-85251500D01*
X101772383Y-85288664D01*
X101772379Y-85288665D01*
X101558816Y-85361980D01*
X101360222Y-85469455D01*
X101219533Y-85578958D01*
X101132696Y-85622527D01*
X101060290Y-85631381D01*
X101017094Y-85630286D01*
X101017089Y-85630287D01*
X101017088Y-85630287D01*
X101017087Y-85630287D01*
X100981186Y-85636720D01*
X100960244Y-85640474D01*
X100950878Y-85641787D01*
X100947687Y-85642112D01*
X100893406Y-85647632D01*
X100865093Y-85656514D01*
X100849783Y-85660272D01*
X100820602Y-85665503D01*
X100820598Y-85665504D01*
X100766971Y-85686923D01*
X100758064Y-85690095D01*
X100702940Y-85707391D01*
X100702940Y-85707392D01*
X100677014Y-85721781D01*
X100662767Y-85728547D01*
X100635227Y-85739548D01*
X100586990Y-85771337D01*
X100578902Y-85776237D01*
X100528414Y-85804262D01*
X100528400Y-85804271D01*
X100505899Y-85823587D01*
X100493309Y-85833080D01*
X100468549Y-85849398D01*
X100427707Y-85890240D01*
X100420769Y-85896670D01*
X100376946Y-85934290D01*
X100358794Y-85957741D01*
X100348369Y-85969577D01*
X96912552Y-89405397D01*
X95932380Y-90385569D01*
X95851598Y-90439546D01*
X95756310Y-90458500D01*
X95581747Y-90458500D01*
X95486459Y-90439546D01*
X95405677Y-90385570D01*
X95387071Y-90364749D01*
X95281508Y-90232377D01*
X95281504Y-90232373D01*
X95086983Y-90051885D01*
X94867730Y-89902400D01*
X94628651Y-89787266D01*
X94628644Y-89787263D01*
X94375081Y-89709050D01*
X94243879Y-89689274D01*
X94112681Y-89669500D01*
X93847319Y-89669500D01*
X93734863Y-89686449D01*
X93584918Y-89709050D01*
X93331353Y-89787264D01*
X93331345Y-89787267D01*
X93092269Y-89902401D01*
X93092264Y-89902403D01*
X92873019Y-90051883D01*
X92678495Y-90232373D01*
X92678491Y-90232377D01*
X92513040Y-90439846D01*
X92380365Y-90669646D01*
X92380357Y-90669662D01*
X92283412Y-90916676D01*
X92224365Y-91175381D01*
X92224364Y-91175385D01*
X92204535Y-91440000D01*
X85090500Y-91440000D01*
X85090500Y-81280005D01*
X90244551Y-81280005D01*
X90264316Y-81531145D01*
X90323126Y-81776108D01*
X90323129Y-81776116D01*
X90419533Y-82008858D01*
X90419537Y-82008864D01*
X90551158Y-82223652D01*
X90551160Y-82223654D01*
X90551163Y-82223657D01*
X90551164Y-82223659D01*
X90714776Y-82415224D01*
X90893633Y-82567982D01*
X90906345Y-82578839D01*
X90906347Y-82578841D01*
X91060017Y-82673009D01*
X91121141Y-82710466D01*
X91353889Y-82806873D01*
X91598852Y-82865683D01*
X91670608Y-82871330D01*
X91849995Y-82885449D01*
X91850000Y-82885449D01*
X91850005Y-82885449D01*
X92006967Y-82873095D01*
X92101148Y-82865683D01*
X92346111Y-82806873D01*
X92578859Y-82710466D01*
X92732847Y-82616102D01*
X92793652Y-82578841D01*
X92793654Y-82578839D01*
X92793653Y-82578839D01*
X92793659Y-82578836D01*
X92985224Y-82415224D01*
X92985231Y-82415215D01*
X92985235Y-82415212D01*
X93041966Y-82348788D01*
X93118263Y-82288639D01*
X93211771Y-82262268D01*
X93231307Y-82261500D01*
X96968693Y-82261500D01*
X97063981Y-82280454D01*
X97144763Y-82334430D01*
X97158034Y-82348788D01*
X97214765Y-82415212D01*
X97214770Y-82415217D01*
X97214776Y-82415224D01*
X97393633Y-82567982D01*
X97406345Y-82578839D01*
X97406347Y-82578841D01*
X97560017Y-82673009D01*
X97621141Y-82710466D01*
X97853889Y-82806873D01*
X98098852Y-82865683D01*
X98170608Y-82871330D01*
X98349995Y-82885449D01*
X98350000Y-82885449D01*
X98350005Y-82885449D01*
X98506967Y-82873095D01*
X98601148Y-82865683D01*
X98846111Y-82806873D01*
X99078859Y-82710466D01*
X99232847Y-82616102D01*
X99293652Y-82578841D01*
X99293654Y-82578839D01*
X99293653Y-82578839D01*
X99293659Y-82578836D01*
X99485224Y-82415224D01*
X99648836Y-82223659D01*
X99648839Y-82223653D01*
X99648841Y-82223652D01*
X99712523Y-82119731D01*
X99780466Y-82008859D01*
X99876873Y-81776111D01*
X99935683Y-81531148D01*
X99955449Y-81280000D01*
X99948593Y-81192901D01*
X99960013Y-81096419D01*
X100007484Y-81011651D01*
X100020744Y-80997305D01*
X101277595Y-79740454D01*
X102539214Y-78478836D01*
X102560329Y-78458763D01*
X102602562Y-78418619D01*
X102635572Y-78371190D01*
X102641239Y-78363674D01*
X102677751Y-78318898D01*
X102691482Y-78292609D01*
X102699657Y-78279118D01*
X102701080Y-78277072D01*
X102716597Y-78254780D01*
X102739372Y-78201705D01*
X102743430Y-78193163D01*
X102765664Y-78150598D01*
X102770174Y-78141965D01*
X102778335Y-78113438D01*
X102783619Y-78098598D01*
X102795318Y-78071340D01*
X102806950Y-78014729D01*
X102809193Y-78005595D01*
X102825088Y-77950049D01*
X102827339Y-77920470D01*
X102829529Y-77904860D01*
X102835500Y-77875809D01*
X102835500Y-77818052D01*
X102835860Y-77808595D01*
X102840245Y-77751008D01*
X102836498Y-77721593D01*
X102835499Y-77705845D01*
X102835499Y-76965915D01*
X102835499Y-76779999D01*
X103754859Y-76779999D01*
X103775387Y-77027741D01*
X103775389Y-77027748D01*
X103836410Y-77268714D01*
X103836413Y-77268722D01*
X103936266Y-77496364D01*
X104036564Y-77649882D01*
X104517939Y-77168507D01*
X104598721Y-77114530D01*
X104694009Y-77095576D01*
X104789297Y-77114530D01*
X104870078Y-77168506D01*
X104875946Y-77174577D01*
X104877321Y-77176049D01*
X104928522Y-77258614D01*
X104944230Y-77354491D01*
X104922052Y-77449080D01*
X104871444Y-77522106D01*
X104389941Y-78003610D01*
X104436766Y-78040054D01*
X104436770Y-78040057D01*
X104655388Y-78158366D01*
X104655390Y-78158367D01*
X104890509Y-78239083D01*
X104890512Y-78239084D01*
X105135706Y-78280000D01*
X105384294Y-78280000D01*
X105629487Y-78239084D01*
X105629490Y-78239083D01*
X105864607Y-78158368D01*
X106083230Y-78040055D01*
X106083238Y-78040050D01*
X106130056Y-78003610D01*
X105651106Y-77524660D01*
X105597130Y-77443878D01*
X105578176Y-77348590D01*
X105597130Y-77253302D01*
X105651106Y-77172520D01*
X105670060Y-77155417D01*
X105671619Y-77154149D01*
X105757503Y-77108728D01*
X105854231Y-77099631D01*
X105947078Y-77128242D01*
X106004804Y-77171252D01*
X106483434Y-77649881D01*
X106483435Y-77649881D01*
X106583731Y-77496368D01*
X106683586Y-77268722D01*
X106683589Y-77268714D01*
X106744610Y-77027748D01*
X106744612Y-77027741D01*
X106765140Y-76779999D01*
X110254859Y-76779999D01*
X110275387Y-77027741D01*
X110275389Y-77027748D01*
X110336410Y-77268714D01*
X110336413Y-77268722D01*
X110436266Y-77496364D01*
X110536564Y-77649882D01*
X111017939Y-77168507D01*
X111098721Y-77114530D01*
X111194009Y-77095576D01*
X111289297Y-77114530D01*
X111370078Y-77168506D01*
X111375946Y-77174577D01*
X111377321Y-77176049D01*
X111428522Y-77258614D01*
X111444230Y-77354491D01*
X111422052Y-77449080D01*
X111371444Y-77522106D01*
X110889941Y-78003610D01*
X110936766Y-78040054D01*
X110936770Y-78040057D01*
X111155388Y-78158366D01*
X111155390Y-78158367D01*
X111390509Y-78239083D01*
X111390512Y-78239084D01*
X111635706Y-78280000D01*
X111884294Y-78280000D01*
X112129487Y-78239084D01*
X112129490Y-78239083D01*
X112364607Y-78158368D01*
X112583230Y-78040055D01*
X112583238Y-78040050D01*
X112630056Y-78003610D01*
X112151106Y-77524660D01*
X112097130Y-77443878D01*
X112078176Y-77348590D01*
X112097130Y-77253302D01*
X112151106Y-77172520D01*
X112170060Y-77155417D01*
X112171619Y-77154149D01*
X112257503Y-77108728D01*
X112354231Y-77099631D01*
X112447078Y-77128242D01*
X112504804Y-77171252D01*
X112983434Y-77649881D01*
X112983435Y-77649881D01*
X113083731Y-77496368D01*
X113183586Y-77268722D01*
X113183589Y-77268714D01*
X113244610Y-77027748D01*
X113244612Y-77027741D01*
X113265140Y-76779999D01*
X113244612Y-76532258D01*
X113244610Y-76532251D01*
X113183589Y-76291285D01*
X113183586Y-76291277D01*
X113083730Y-76063628D01*
X112983436Y-75910117D01*
X112983434Y-75910117D01*
X112502058Y-76391492D01*
X112421277Y-76445468D01*
X112325989Y-76464422D01*
X112230700Y-76445468D01*
X112149919Y-76391491D01*
X112143999Y-76385365D01*
X112142619Y-76383887D01*
X112091446Y-76301303D01*
X112075770Y-76205421D01*
X112097981Y-76110839D01*
X112148555Y-76037890D01*
X112630057Y-75556388D01*
X112583241Y-75519951D01*
X112583230Y-75519944D01*
X112364607Y-75401631D01*
X112129490Y-75320916D01*
X112129487Y-75320915D01*
X111884294Y-75280000D01*
X111635706Y-75280000D01*
X111390512Y-75320915D01*
X111390509Y-75320916D01*
X111155392Y-75401631D01*
X110936768Y-75519944D01*
X110936758Y-75519951D01*
X110889941Y-75556388D01*
X111368893Y-76035340D01*
X111422869Y-76116122D01*
X111441823Y-76211410D01*
X111422869Y-76306698D01*
X111368893Y-76387480D01*
X111349864Y-76404643D01*
X111348305Y-76405910D01*
X111262404Y-76451298D01*
X111165672Y-76460358D01*
X111072837Y-76431711D01*
X111015195Y-76388747D01*
X110536564Y-75910117D01*
X110436268Y-76063630D01*
X110436268Y-76063631D01*
X110336413Y-76291277D01*
X110336410Y-76291285D01*
X110275389Y-76532251D01*
X110275387Y-76532258D01*
X110254859Y-76779999D01*
X106765140Y-76779999D01*
X106744612Y-76532258D01*
X106744610Y-76532251D01*
X106683589Y-76291285D01*
X106683586Y-76291277D01*
X106583730Y-76063628D01*
X106483436Y-75910117D01*
X106483434Y-75910117D01*
X106002058Y-76391492D01*
X105921277Y-76445468D01*
X105825989Y-76464422D01*
X105730700Y-76445468D01*
X105649919Y-76391491D01*
X105643999Y-76385365D01*
X105642619Y-76383887D01*
X105591446Y-76301303D01*
X105575770Y-76205421D01*
X105597981Y-76110839D01*
X105648555Y-76037890D01*
X106130057Y-75556388D01*
X106083241Y-75519951D01*
X106083230Y-75519944D01*
X105864607Y-75401631D01*
X105629490Y-75320916D01*
X105629487Y-75320915D01*
X105384294Y-75280000D01*
X105135706Y-75280000D01*
X104890512Y-75320915D01*
X104890509Y-75320916D01*
X104655392Y-75401631D01*
X104436768Y-75519944D01*
X104436758Y-75519951D01*
X104389941Y-75556388D01*
X104868893Y-76035340D01*
X104922869Y-76116122D01*
X104941823Y-76211410D01*
X104922869Y-76306698D01*
X104868893Y-76387480D01*
X104849864Y-76404643D01*
X104848305Y-76405910D01*
X104762404Y-76451298D01*
X104665672Y-76460358D01*
X104572837Y-76431711D01*
X104515195Y-76388747D01*
X104036564Y-75910117D01*
X103936268Y-76063630D01*
X103936268Y-76063631D01*
X103836413Y-76291277D01*
X103836410Y-76291285D01*
X103775389Y-76532251D01*
X103775387Y-76532258D01*
X103754859Y-76779999D01*
X102835499Y-76779999D01*
X102835499Y-76201685D01*
X102854453Y-76106402D01*
X102908426Y-76025623D01*
X104219619Y-74714430D01*
X104300402Y-74660454D01*
X104395690Y-74641500D01*
X114287546Y-74641500D01*
X114374912Y-74643714D01*
X114374912Y-74643713D01*
X114374913Y-74643714D01*
X114431791Y-74633518D01*
X114441118Y-74632210D01*
X114498593Y-74626367D01*
X114526885Y-74617489D01*
X114542210Y-74613728D01*
X114571400Y-74608497D01*
X114625057Y-74587063D01*
X114633913Y-74583910D01*
X114689057Y-74566609D01*
X114714999Y-74552209D01*
X114729235Y-74545449D01*
X114756775Y-74534449D01*
X114805001Y-74502664D01*
X114813074Y-74497773D01*
X114863592Y-74469734D01*
X114886094Y-74450414D01*
X114898680Y-74440924D01*
X114923450Y-74424601D01*
X114964292Y-74383758D01*
X114971222Y-74377335D01*
X115015053Y-74339709D01*
X115033212Y-74316247D01*
X115043631Y-74304419D01*
X119713620Y-69634430D01*
X119794402Y-69580454D01*
X119889690Y-69561500D01*
X123417261Y-69561500D01*
X123512549Y-69580454D01*
X123570201Y-69614005D01*
X123620950Y-69653505D01*
X123684504Y-69726990D01*
X123715098Y-69819202D01*
X123708075Y-69916103D01*
X123664505Y-70002940D01*
X123620950Y-70046495D01*
X123570201Y-70085995D01*
X123483364Y-70129565D01*
X123417261Y-70138500D01*
X120916431Y-70138500D01*
X120829093Y-70136286D01*
X120829089Y-70136287D01*
X120829088Y-70136287D01*
X120829087Y-70136287D01*
X120793186Y-70142720D01*
X120772244Y-70146474D01*
X120762878Y-70147787D01*
X120759687Y-70148112D01*
X120705406Y-70153632D01*
X120677093Y-70162514D01*
X120661783Y-70166272D01*
X120632602Y-70171503D01*
X120632598Y-70171504D01*
X120578971Y-70192923D01*
X120570064Y-70196095D01*
X120514940Y-70213391D01*
X120514940Y-70213392D01*
X120489014Y-70227781D01*
X120474767Y-70234547D01*
X120447227Y-70245548D01*
X120398990Y-70277337D01*
X120390902Y-70282237D01*
X120340414Y-70310262D01*
X120340400Y-70310271D01*
X120317899Y-70329587D01*
X120305309Y-70339080D01*
X120280549Y-70355398D01*
X120239707Y-70396240D01*
X120232769Y-70402670D01*
X120188946Y-70440290D01*
X120170794Y-70463741D01*
X120160369Y-70475577D01*
X116662785Y-73973164D01*
X116599436Y-74033382D01*
X116566443Y-74080785D01*
X116560747Y-74088340D01*
X116524252Y-74133097D01*
X116524247Y-74133104D01*
X116510516Y-74159390D01*
X116502347Y-74172873D01*
X116485407Y-74197212D01*
X116485401Y-74197222D01*
X116462628Y-74250291D01*
X116458569Y-74258836D01*
X116431827Y-74310031D01*
X116431824Y-74310040D01*
X116423665Y-74338551D01*
X116418377Y-74353404D01*
X116406684Y-74380652D01*
X116406683Y-74380655D01*
X116395056Y-74437230D01*
X116392801Y-74446418D01*
X116376912Y-74501951D01*
X116376910Y-74501962D01*
X116374657Y-74531532D01*
X116372468Y-74547144D01*
X116366500Y-74576189D01*
X116366499Y-74576191D01*
X116366499Y-74633942D01*
X116366139Y-74643396D01*
X116361753Y-74700988D01*
X116361754Y-74700993D01*
X116365501Y-74730417D01*
X116366500Y-74746162D01*
X116366500Y-78230309D01*
X116347546Y-78325597D01*
X116293570Y-78406379D01*
X114474380Y-80225570D01*
X114393598Y-80279546D01*
X114298310Y-80298500D01*
X113141307Y-80298500D01*
X113046019Y-80279546D01*
X112965237Y-80225570D01*
X112951966Y-80211212D01*
X112895232Y-80144785D01*
X112895229Y-80144782D01*
X112895224Y-80144776D01*
X112703659Y-79981164D01*
X112703657Y-79981163D01*
X112703654Y-79981160D01*
X112703652Y-79981158D01*
X112488864Y-79849537D01*
X112488858Y-79849533D01*
X112256116Y-79753129D01*
X112256108Y-79753126D01*
X112011145Y-79694316D01*
X111760005Y-79674551D01*
X111759995Y-79674551D01*
X111508854Y-79694316D01*
X111263891Y-79753126D01*
X111263883Y-79753129D01*
X111031141Y-79849533D01*
X111031135Y-79849537D01*
X110816347Y-79981158D01*
X110816345Y-79981160D01*
X110624779Y-80144773D01*
X110624767Y-80144785D01*
X110568034Y-80211212D01*
X110491737Y-80271361D01*
X110398229Y-80297732D01*
X110378693Y-80298500D01*
X106641307Y-80298500D01*
X106546019Y-80279546D01*
X106465237Y-80225570D01*
X106451966Y-80211212D01*
X106395232Y-80144785D01*
X106395229Y-80144782D01*
X106395224Y-80144776D01*
X106203659Y-79981164D01*
X106203657Y-79981163D01*
X106203654Y-79981160D01*
X106203652Y-79981158D01*
X105988864Y-79849537D01*
X105988858Y-79849533D01*
X105756116Y-79753129D01*
X105756108Y-79753126D01*
X105511145Y-79694316D01*
X105260005Y-79674551D01*
X105259995Y-79674551D01*
X105008854Y-79694316D01*
X104763891Y-79753126D01*
X104763883Y-79753129D01*
X104531141Y-79849533D01*
X104531135Y-79849537D01*
X104316347Y-79981158D01*
X104316345Y-79981160D01*
X104124779Y-80144773D01*
X104124773Y-80144779D01*
X103961160Y-80336345D01*
X103961158Y-80336347D01*
X103829537Y-80551135D01*
X103829533Y-80551141D01*
X103733129Y-80783883D01*
X103733126Y-80783891D01*
X103674316Y-81028854D01*
X103654551Y-81279994D01*
X103654551Y-81280005D01*
X103674316Y-81531145D01*
X103733126Y-81776108D01*
X103733129Y-81776116D01*
X103829533Y-82008858D01*
X103829537Y-82008864D01*
X103961158Y-82223652D01*
X103961160Y-82223654D01*
X103961163Y-82223657D01*
X103961164Y-82223659D01*
X104124776Y-82415224D01*
X104303633Y-82567982D01*
X104316345Y-82578839D01*
X104316347Y-82578841D01*
X104470017Y-82673009D01*
X104531141Y-82710466D01*
X104763889Y-82806873D01*
X105008852Y-82865683D01*
X105080608Y-82871330D01*
X105259995Y-82885449D01*
X105260000Y-82885449D01*
X105260005Y-82885449D01*
X105416967Y-82873095D01*
X105511148Y-82865683D01*
X105756111Y-82806873D01*
X105988859Y-82710466D01*
X106142847Y-82616102D01*
X106203652Y-82578841D01*
X106203654Y-82578839D01*
X106203653Y-82578839D01*
X106203659Y-82578836D01*
X106395224Y-82415224D01*
X106395231Y-82415215D01*
X106395235Y-82415212D01*
X106451966Y-82348788D01*
X106528263Y-82288639D01*
X106621771Y-82262268D01*
X106641307Y-82261500D01*
X110378693Y-82261500D01*
X110473981Y-82280454D01*
X110554763Y-82334430D01*
X110568034Y-82348788D01*
X110624765Y-82415212D01*
X110624770Y-82415217D01*
X110624776Y-82415224D01*
X110803633Y-82567982D01*
X110816345Y-82578839D01*
X110816347Y-82578841D01*
X110970017Y-82673009D01*
X111031141Y-82710466D01*
X111263889Y-82806873D01*
X111508852Y-82865683D01*
X111580608Y-82871330D01*
X111759995Y-82885449D01*
X111760000Y-82885449D01*
X111760005Y-82885449D01*
X111916967Y-82873095D01*
X112011148Y-82865683D01*
X112256111Y-82806873D01*
X112488859Y-82710466D01*
X112642847Y-82616102D01*
X112703652Y-82578841D01*
X112703654Y-82578839D01*
X112703653Y-82578839D01*
X112703659Y-82578836D01*
X112895224Y-82415224D01*
X112895231Y-82415215D01*
X112895235Y-82415212D01*
X112951966Y-82348788D01*
X113028263Y-82288639D01*
X113121771Y-82262268D01*
X113141307Y-82261500D01*
X114123309Y-82261500D01*
X114218597Y-82280454D01*
X114299379Y-82334430D01*
X114353355Y-82415212D01*
X114372309Y-82510500D01*
X114353355Y-82605788D01*
X114299379Y-82686570D01*
X110664380Y-86321570D01*
X110583598Y-86375546D01*
X110488310Y-86394500D01*
X105422453Y-86394500D01*
X105335089Y-86392285D01*
X105278236Y-86402475D01*
X105268871Y-86403789D01*
X105250798Y-86405627D01*
X105211412Y-86409632D01*
X105211407Y-86409633D01*
X105183103Y-86418512D01*
X105167794Y-86422269D01*
X105138607Y-86427501D01*
X105138596Y-86427504D01*
X105084976Y-86448922D01*
X105076067Y-86452094D01*
X105020940Y-86469391D01*
X105020938Y-86469392D01*
X104995007Y-86483784D01*
X104980767Y-86490547D01*
X104953226Y-86501549D01*
X104953226Y-86501550D01*
X104905001Y-86533332D01*
X104896910Y-86538234D01*
X104846406Y-86566266D01*
X104846404Y-86566268D01*
X104823898Y-86585589D01*
X104811306Y-86595083D01*
X104786549Y-86611399D01*
X104745714Y-86652234D01*
X104738776Y-86658664D01*
X104694946Y-86696290D01*
X104676791Y-86719745D01*
X104666366Y-86731581D01*
X96012380Y-95385570D01*
X95931598Y-95439546D01*
X95836310Y-95458500D01*
X95581747Y-95458500D01*
X95486459Y-95439546D01*
X95405677Y-95385570D01*
X95387071Y-95364749D01*
X95281508Y-95232377D01*
X95281504Y-95232373D01*
X95086983Y-95051885D01*
X94867730Y-94902400D01*
X94628651Y-94787266D01*
X94628644Y-94787263D01*
X94375081Y-94709050D01*
X94243879Y-94689274D01*
X94112681Y-94669500D01*
X93847319Y-94669500D01*
X93734863Y-94686449D01*
X93584918Y-94709050D01*
X93331353Y-94787264D01*
X93331345Y-94787267D01*
X93092269Y-94902401D01*
X93092264Y-94902403D01*
X92873019Y-95051883D01*
X92678495Y-95232373D01*
X92678491Y-95232377D01*
X92513040Y-95439846D01*
X92380365Y-95669646D01*
X92380357Y-95669662D01*
X92283412Y-95916676D01*
X92224365Y-96175381D01*
X92224364Y-96175385D01*
X92204535Y-96440000D01*
X92224364Y-96704614D01*
X92224365Y-96704618D01*
X92283412Y-96963323D01*
X92380357Y-97210337D01*
X92380365Y-97210353D01*
X92513040Y-97440153D01*
X92678491Y-97647622D01*
X92678495Y-97647626D01*
X92696734Y-97664549D01*
X92873016Y-97828114D01*
X92873019Y-97828116D01*
X93092264Y-97977596D01*
X93092266Y-97977597D01*
X93092268Y-97977598D01*
X93202087Y-98030484D01*
X93331345Y-98092732D01*
X93331353Y-98092735D01*
X93584918Y-98170949D01*
X93584919Y-98170949D01*
X93584922Y-98170950D01*
X93847319Y-98210500D01*
X93847322Y-98210500D01*
X94112678Y-98210500D01*
X94112681Y-98210500D01*
X94375078Y-98170950D01*
X94562067Y-98113272D01*
X94628644Y-98092736D01*
X94628645Y-98092735D01*
X94628650Y-98092734D01*
X94867733Y-97977598D01*
X95086984Y-97828114D01*
X95281508Y-97647623D01*
X95387071Y-97515250D01*
X95461301Y-97452569D01*
X95553868Y-97423066D01*
X95581747Y-97421500D01*
X96333546Y-97421500D01*
X96420912Y-97423714D01*
X96420912Y-97423713D01*
X96420913Y-97423714D01*
X96477791Y-97413518D01*
X96487118Y-97412210D01*
X96544593Y-97406367D01*
X96572885Y-97397489D01*
X96588210Y-97393728D01*
X96617400Y-97388497D01*
X96671057Y-97367063D01*
X96679913Y-97363910D01*
X96735057Y-97346609D01*
X96760999Y-97332209D01*
X96775235Y-97325449D01*
X96802775Y-97314449D01*
X96851001Y-97282664D01*
X96859074Y-97277773D01*
X96909592Y-97249734D01*
X96932094Y-97230414D01*
X96944680Y-97220924D01*
X96969450Y-97204601D01*
X97010292Y-97163758D01*
X97017222Y-97157335D01*
X97061053Y-97119709D01*
X97079205Y-97096256D01*
X97089631Y-97084419D01*
X105743621Y-88430430D01*
X105824403Y-88376454D01*
X105919691Y-88357500D01*
X110567309Y-88357500D01*
X110662597Y-88376454D01*
X110743379Y-88430430D01*
X110797355Y-88511212D01*
X110816309Y-88606500D01*
X110797355Y-88701788D01*
X110743379Y-88782569D01*
X110058785Y-89467164D01*
X109995436Y-89527382D01*
X109962443Y-89574785D01*
X109956747Y-89582340D01*
X109920252Y-89627097D01*
X109920247Y-89627104D01*
X109906516Y-89653390D01*
X109898347Y-89666873D01*
X109881407Y-89691212D01*
X109881401Y-89691222D01*
X109858628Y-89744291D01*
X109854569Y-89752836D01*
X109827827Y-89804031D01*
X109827824Y-89804040D01*
X109819665Y-89832551D01*
X109814377Y-89847404D01*
X109802684Y-89874652D01*
X109802683Y-89874655D01*
X109791056Y-89931230D01*
X109788801Y-89940418D01*
X109772912Y-89995951D01*
X109772910Y-89995962D01*
X109770657Y-90025531D01*
X109768467Y-90041145D01*
X109762500Y-90070188D01*
X109762500Y-90127936D01*
X109762140Y-90137394D01*
X109759657Y-90170000D01*
X109757754Y-90194992D01*
X109761501Y-90224424D01*
X109762499Y-90240154D01*
X109762499Y-93216310D01*
X109743545Y-93311598D01*
X109689569Y-93392380D01*
X108292447Y-94789501D01*
X108211665Y-94843477D01*
X108116377Y-94862431D01*
X108021089Y-94843477D01*
X107940307Y-94789501D01*
X107886331Y-94708719D01*
X107867377Y-94613431D01*
X107886331Y-94518143D01*
X107890684Y-94508247D01*
X107925604Y-94433363D01*
X107985406Y-94210178D01*
X107991570Y-94139724D01*
X108005544Y-93980005D01*
X108005544Y-93979994D01*
X107985856Y-93754967D01*
X107985406Y-93749822D01*
X107925604Y-93526637D01*
X107827955Y-93317228D01*
X107695426Y-93127957D01*
X107532043Y-92964574D01*
X107342772Y-92832045D01*
X107133363Y-92734396D01*
X107133360Y-92734395D01*
X106910179Y-92674594D01*
X106910165Y-92674592D01*
X106680006Y-92654456D01*
X106679994Y-92654456D01*
X106449834Y-92674592D01*
X106449820Y-92674594D01*
X106226639Y-92734395D01*
X106017226Y-92832046D01*
X105973105Y-92862940D01*
X105857162Y-92944125D01*
X105843817Y-92953469D01*
X105754890Y-92992598D01*
X105700996Y-92998500D01*
X103644431Y-92998500D01*
X103557093Y-92996286D01*
X103557089Y-92996287D01*
X103557088Y-92996287D01*
X103557087Y-92996287D01*
X103521186Y-93002720D01*
X103500244Y-93006474D01*
X103490878Y-93007787D01*
X103487687Y-93008112D01*
X103433406Y-93013632D01*
X103405093Y-93022514D01*
X103389783Y-93026272D01*
X103360602Y-93031503D01*
X103360598Y-93031504D01*
X103306971Y-93052923D01*
X103298064Y-93056095D01*
X103242940Y-93073391D01*
X103242940Y-93073392D01*
X103217014Y-93087781D01*
X103202767Y-93094547D01*
X103175227Y-93105548D01*
X103126990Y-93137337D01*
X103118902Y-93142237D01*
X103068414Y-93170262D01*
X103068400Y-93170271D01*
X103045899Y-93189587D01*
X103033309Y-93199080D01*
X103008549Y-93215398D01*
X102967707Y-93256240D01*
X102960769Y-93262670D01*
X102916946Y-93300290D01*
X102898791Y-93323745D01*
X102888366Y-93335581D01*
X102154884Y-94069065D01*
X102074102Y-94123042D01*
X102005244Y-94139724D01*
X102005258Y-94139805D01*
X102004146Y-94139990D01*
X101999381Y-94141145D01*
X101995102Y-94141499D01*
X101772383Y-94178664D01*
X101772379Y-94178665D01*
X101558816Y-94251980D01*
X101360222Y-94359455D01*
X101182045Y-94498137D01*
X101182033Y-94498147D01*
X101029112Y-94664264D01*
X101029109Y-94664268D01*
X100905608Y-94853302D01*
X100905606Y-94853304D01*
X100814908Y-95060079D01*
X100814905Y-95060087D01*
X100759478Y-95278960D01*
X100759476Y-95278967D01*
X100740830Y-95504000D01*
X100759476Y-95729032D01*
X100759478Y-95729039D01*
X100812164Y-95937087D01*
X100814907Y-95947919D01*
X100829793Y-95981856D01*
X100905606Y-96154695D01*
X100905608Y-96154697D01*
X100905610Y-96154701D01*
X100919121Y-96175381D01*
X101029108Y-96343730D01*
X101060695Y-96378042D01*
X101111287Y-96460985D01*
X101126500Y-96546686D01*
X101126500Y-102349547D01*
X101124285Y-102436910D01*
X101124286Y-102436917D01*
X101134475Y-102493762D01*
X101135790Y-102503134D01*
X101141632Y-102560588D01*
X101141633Y-102560596D01*
X101150510Y-102588890D01*
X101154268Y-102604203D01*
X101159502Y-102633397D01*
X101159503Y-102633400D01*
X101180927Y-102687036D01*
X101184096Y-102695938D01*
X101201390Y-102751054D01*
X101201394Y-102751063D01*
X101215782Y-102776985D01*
X101222548Y-102791233D01*
X101233549Y-102818771D01*
X101233549Y-102818772D01*
X101233551Y-102818775D01*
X101252740Y-102847892D01*
X101265331Y-102866996D01*
X101270226Y-102875075D01*
X101298266Y-102925592D01*
X101317584Y-102948095D01*
X101327081Y-102960690D01*
X101343395Y-102985445D01*
X101343397Y-102985447D01*
X101343399Y-102985450D01*
X101372872Y-103014923D01*
X101384236Y-103026287D01*
X101390660Y-103033218D01*
X101428291Y-103077053D01*
X101451743Y-103095206D01*
X101463576Y-103105628D01*
X103705916Y-105347966D01*
X104453165Y-106095215D01*
X104513381Y-106158562D01*
X104560786Y-106191556D01*
X104568333Y-106197246D01*
X104613102Y-106233751D01*
X104639388Y-106247481D01*
X104652872Y-106255650D01*
X104677220Y-106272597D01*
X104730292Y-106295372D01*
X104738825Y-106299423D01*
X104790036Y-106326174D01*
X104808308Y-106331402D01*
X104818544Y-106334331D01*
X104833410Y-106339624D01*
X104860651Y-106351315D01*
X104860657Y-106351317D01*
X104860660Y-106351318D01*
X104917232Y-106362943D01*
X104926414Y-106365197D01*
X104951504Y-106372376D01*
X104981951Y-106381088D01*
X105011523Y-106383339D01*
X105027136Y-106385529D01*
X105045846Y-106389374D01*
X105056185Y-106391499D01*
X105056187Y-106391499D01*
X105056191Y-106391500D01*
X105113937Y-106391500D01*
X105123395Y-106391860D01*
X105139120Y-106393057D01*
X105180992Y-106396246D01*
X105210422Y-106392497D01*
X105226162Y-106391500D01*
X108104191Y-106391500D01*
X110390191Y-106391500D01*
X110461974Y-106391500D01*
X110468272Y-106391659D01*
X110539969Y-106395296D01*
X110546009Y-106394371D01*
X110583712Y-106391500D01*
X117346309Y-106391500D01*
X117441597Y-106410454D01*
X117522379Y-106464430D01*
X119947183Y-108889234D01*
X120007381Y-108952562D01*
X120025251Y-108965000D01*
X120054783Y-108985555D01*
X120062334Y-108991248D01*
X120107102Y-109027751D01*
X120107104Y-109027752D01*
X120133386Y-109041480D01*
X120146881Y-109049656D01*
X120171220Y-109066597D01*
X120224292Y-109089372D01*
X120232825Y-109093423D01*
X120284036Y-109120174D01*
X120302308Y-109125402D01*
X120312544Y-109128331D01*
X120327410Y-109133624D01*
X120354649Y-109145314D01*
X120354654Y-109145315D01*
X120354660Y-109145318D01*
X120411258Y-109156948D01*
X120420407Y-109159194D01*
X120475952Y-109175088D01*
X120505526Y-109177340D01*
X120521127Y-109179527D01*
X120550191Y-109185500D01*
X120607937Y-109185500D01*
X120617395Y-109185860D01*
X120633120Y-109187057D01*
X120674992Y-109190246D01*
X120704422Y-109186497D01*
X120720162Y-109185500D01*
X128765546Y-109185500D01*
X128852912Y-109187714D01*
X128852912Y-109187713D01*
X128852913Y-109187714D01*
X128909791Y-109177518D01*
X128919118Y-109176210D01*
X128976593Y-109170367D01*
X129004885Y-109161489D01*
X129020210Y-109157728D01*
X129049400Y-109152497D01*
X129103057Y-109131063D01*
X129111913Y-109127910D01*
X129167057Y-109110609D01*
X129192999Y-109096209D01*
X129207235Y-109089449D01*
X129234775Y-109078449D01*
X129283001Y-109046664D01*
X129291074Y-109041773D01*
X129341592Y-109013734D01*
X129364094Y-108994414D01*
X129376680Y-108984924D01*
X129401450Y-108968601D01*
X129442292Y-108927758D01*
X129449222Y-108921335D01*
X129493053Y-108883709D01*
X129511212Y-108860247D01*
X129521631Y-108848419D01*
X135715620Y-102654430D01*
X135796402Y-102600454D01*
X135891690Y-102581500D01*
X136131546Y-102581500D01*
X136218912Y-102583714D01*
X136218912Y-102583713D01*
X136218913Y-102583714D01*
X136275791Y-102573518D01*
X136285118Y-102572210D01*
X136342593Y-102566367D01*
X136370885Y-102557489D01*
X136386210Y-102553728D01*
X136415400Y-102548497D01*
X136469057Y-102527063D01*
X136477913Y-102523910D01*
X136533057Y-102506609D01*
X136558999Y-102492209D01*
X136573235Y-102485449D01*
X136600775Y-102474449D01*
X136649001Y-102442664D01*
X136657074Y-102437773D01*
X136707592Y-102409734D01*
X136730094Y-102390414D01*
X136742680Y-102380924D01*
X136767450Y-102364601D01*
X136808292Y-102323758D01*
X136815222Y-102317335D01*
X136859053Y-102279709D01*
X136877205Y-102256256D01*
X136887631Y-102244419D01*
X137875118Y-101256933D01*
X137955899Y-101202957D01*
X138024755Y-101186277D01*
X138024742Y-101186195D01*
X138025879Y-101186005D01*
X138030636Y-101184853D01*
X138034889Y-101184500D01*
X138034900Y-101184500D01*
X138257620Y-101147335D01*
X138471186Y-101074018D01*
X138669771Y-100966549D01*
X138847959Y-100827860D01*
X139000889Y-100661733D01*
X139124390Y-100472701D01*
X139128026Y-100464413D01*
X139173474Y-100360800D01*
X139215093Y-100265919D01*
X139270524Y-100047029D01*
X139286649Y-99852423D01*
X139313406Y-99759029D01*
X139373869Y-99682981D01*
X139458831Y-99635859D01*
X139555359Y-99624838D01*
X139648757Y-99651596D01*
X139710868Y-99696918D01*
X140677570Y-100663620D01*
X140731546Y-100744402D01*
X140750500Y-100839690D01*
X140750500Y-109207547D01*
X140748285Y-109294910D01*
X140748286Y-109294917D01*
X140758475Y-109351762D01*
X140759790Y-109361134D01*
X140765632Y-109418588D01*
X140765633Y-109418596D01*
X140774510Y-109446890D01*
X140778268Y-109462203D01*
X140783502Y-109491397D01*
X140783503Y-109491400D01*
X140804927Y-109545036D01*
X140808096Y-109553938D01*
X140825390Y-109609054D01*
X140825394Y-109609063D01*
X140839782Y-109634985D01*
X140846548Y-109649233D01*
X140857549Y-109676771D01*
X140857549Y-109676772D01*
X140889331Y-109724996D01*
X140894226Y-109733075D01*
X140922266Y-109783592D01*
X140941584Y-109806095D01*
X140951081Y-109818690D01*
X140967395Y-109843445D01*
X140967397Y-109843447D01*
X140967399Y-109843450D01*
X141008236Y-109884287D01*
X141014660Y-109891218D01*
X141052291Y-109935053D01*
X141075743Y-109953206D01*
X141087576Y-109963628D01*
X146109164Y-114985214D01*
X146121751Y-114998456D01*
X146169381Y-115048562D01*
X146216786Y-115081556D01*
X146224333Y-115087246D01*
X146269102Y-115123751D01*
X146295388Y-115137481D01*
X146308872Y-115145650D01*
X146333220Y-115162597D01*
X146386292Y-115185372D01*
X146394825Y-115189423D01*
X146446036Y-115216174D01*
X146464308Y-115221402D01*
X146474544Y-115224331D01*
X146489410Y-115229624D01*
X146516651Y-115241315D01*
X146516657Y-115241317D01*
X146516660Y-115241318D01*
X146573232Y-115252943D01*
X146582414Y-115255197D01*
X146607504Y-115262376D01*
X146637951Y-115271088D01*
X146667523Y-115273339D01*
X146683136Y-115275529D01*
X146701846Y-115279374D01*
X146712185Y-115281499D01*
X146712187Y-115281499D01*
X146712191Y-115281500D01*
X146769937Y-115281500D01*
X146779395Y-115281860D01*
X146795120Y-115283057D01*
X146836992Y-115286246D01*
X146866422Y-115282497D01*
X146882162Y-115281500D01*
X155198441Y-115281500D01*
X155293729Y-115300454D01*
X155374511Y-115354430D01*
X155428487Y-115435212D01*
X155447441Y-115530500D01*
X155428487Y-115625788D01*
X155426468Y-115630523D01*
X155424908Y-115634078D01*
X155424905Y-115634087D01*
X155369478Y-115852960D01*
X155369476Y-115852967D01*
X155350830Y-116077999D01*
X155369476Y-116303032D01*
X155369478Y-116303039D01*
X155424905Y-116521912D01*
X155424907Y-116521919D01*
X155451295Y-116582077D01*
X155515606Y-116728695D01*
X155515608Y-116728697D01*
X155515610Y-116728701D01*
X155519243Y-116734261D01*
X155639109Y-116917731D01*
X155639112Y-116917735D01*
X155792033Y-117083852D01*
X155792035Y-117083854D01*
X155792041Y-117083860D01*
X155919071Y-117182731D01*
X155970222Y-117222544D01*
X155970223Y-117222545D01*
X155970229Y-117222549D01*
X156168814Y-117330018D01*
X156168816Y-117330019D01*
X156237809Y-117353704D01*
X156382380Y-117403335D01*
X156605100Y-117440500D01*
X156830900Y-117440500D01*
X157053620Y-117403335D01*
X157267186Y-117330018D01*
X157465771Y-117222549D01*
X157607798Y-117112004D01*
X157694638Y-117068434D01*
X157760739Y-117059500D01*
X158229546Y-117059500D01*
X158316912Y-117061714D01*
X158316912Y-117061713D01*
X158316913Y-117061714D01*
X158373791Y-117051518D01*
X158383118Y-117050210D01*
X158440593Y-117044367D01*
X158468885Y-117035489D01*
X158484210Y-117031728D01*
X158513400Y-117026497D01*
X158567057Y-117005063D01*
X158575913Y-117001910D01*
X158631057Y-116984609D01*
X158656999Y-116970209D01*
X158671235Y-116963449D01*
X158698775Y-116952449D01*
X158747001Y-116920664D01*
X158755074Y-116915773D01*
X158805592Y-116887734D01*
X158828094Y-116868414D01*
X158840680Y-116858924D01*
X158865450Y-116842601D01*
X158906292Y-116801758D01*
X158913222Y-116795335D01*
X158957053Y-116757709D01*
X158975212Y-116734247D01*
X158985622Y-116722427D01*
X164802170Y-110905878D01*
X164882949Y-110851905D01*
X164978237Y-110832951D01*
X165073525Y-110851905D01*
X165154307Y-110905881D01*
X165208283Y-110986663D01*
X165227237Y-111081951D01*
X165219618Y-111143075D01*
X165188380Y-111266431D01*
X165168529Y-111505999D01*
X165188380Y-111745566D01*
X165247389Y-111978590D01*
X165343949Y-112198725D01*
X165343950Y-112198727D01*
X165413713Y-112305506D01*
X165475429Y-112399969D01*
X165638236Y-112576825D01*
X165827933Y-112724472D01*
X166039344Y-112838882D01*
X166266703Y-112916934D01*
X166503808Y-112956500D01*
X166744192Y-112956500D01*
X166981297Y-112916934D01*
X167208656Y-112838882D01*
X167420067Y-112724472D01*
X167609764Y-112576825D01*
X167772571Y-112399969D01*
X167772574Y-112399964D01*
X167777132Y-112395013D01*
X167855613Y-112337744D01*
X167950037Y-112314868D01*
X168046027Y-112329867D01*
X168128970Y-112380459D01*
X168136398Y-112387585D01*
X168292923Y-112544110D01*
X168486423Y-112679600D01*
X168700511Y-112779431D01*
X168914000Y-112836635D01*
X168914000Y-112255000D01*
X168932954Y-112159712D01*
X168986930Y-112078930D01*
X169067712Y-112024954D01*
X169163000Y-112006000D01*
X169165000Y-112006000D01*
X169260288Y-112024954D01*
X169341070Y-112078930D01*
X169395046Y-112159712D01*
X169414000Y-112255000D01*
X169414000Y-112836635D01*
X169627488Y-112779431D01*
X169841576Y-112679600D01*
X170035076Y-112544110D01*
X170202110Y-112377076D01*
X170337600Y-112183576D01*
X170437433Y-111969485D01*
X170437433Y-111969483D01*
X170494636Y-111756001D01*
X170494636Y-111756000D01*
X169913000Y-111756000D01*
X169817712Y-111737046D01*
X169736930Y-111683070D01*
X169682954Y-111602288D01*
X169664000Y-111507000D01*
X169664000Y-111505000D01*
X169682954Y-111409712D01*
X169736930Y-111328930D01*
X169817712Y-111274954D01*
X169913000Y-111256000D01*
X170494636Y-111256000D01*
X170494636Y-111255998D01*
X170437433Y-111042516D01*
X170437429Y-111042505D01*
X170337603Y-110828428D01*
X170337599Y-110828420D01*
X170202110Y-110634923D01*
X170035076Y-110467889D01*
X169995202Y-110439969D01*
X169928018Y-110369787D01*
X169892806Y-110279238D01*
X169894925Y-110182106D01*
X169934054Y-110093179D01*
X169995202Y-110032031D01*
X170035076Y-110004110D01*
X170202110Y-109837076D01*
X170337600Y-109643576D01*
X170437433Y-109429485D01*
X170437433Y-109429483D01*
X170494636Y-109216001D01*
X170494636Y-109216000D01*
X169913000Y-109216000D01*
X169817712Y-109197046D01*
X169736930Y-109143070D01*
X169682954Y-109062288D01*
X169664000Y-108967000D01*
X169664000Y-108965000D01*
X169682954Y-108869712D01*
X169736930Y-108788930D01*
X169817712Y-108734954D01*
X169913000Y-108716000D01*
X170494636Y-108716000D01*
X170494636Y-108715998D01*
X170437433Y-108502516D01*
X170437429Y-108502505D01*
X170337603Y-108288428D01*
X170337599Y-108288420D01*
X170202110Y-108094923D01*
X170035075Y-107927888D01*
X169995203Y-107899970D01*
X169928018Y-107829789D01*
X169892805Y-107739240D01*
X169894924Y-107642108D01*
X169934052Y-107553181D01*
X169995203Y-107492030D01*
X170035075Y-107464111D01*
X170202110Y-107297076D01*
X170337600Y-107103576D01*
X170437433Y-106889485D01*
X170437433Y-106889483D01*
X170494636Y-106676001D01*
X170494636Y-106676000D01*
X169913000Y-106676000D01*
X169817712Y-106657046D01*
X169736930Y-106603070D01*
X169682954Y-106522288D01*
X169664000Y-106427000D01*
X169664000Y-106425000D01*
X169682954Y-106329712D01*
X169736930Y-106248930D01*
X169817712Y-106194954D01*
X169913000Y-106176000D01*
X170494636Y-106176000D01*
X170494636Y-106175998D01*
X170437433Y-105962516D01*
X170437429Y-105962505D01*
X170337603Y-105748428D01*
X170337599Y-105748420D01*
X170202110Y-105554923D01*
X170035075Y-105387888D01*
X169995203Y-105359970D01*
X169928018Y-105289789D01*
X169892805Y-105199240D01*
X169894924Y-105102108D01*
X169934052Y-105013181D01*
X169995203Y-104952030D01*
X170035075Y-104924111D01*
X170202110Y-104757076D01*
X170337600Y-104563576D01*
X170437433Y-104349485D01*
X170437433Y-104349483D01*
X170494636Y-104136001D01*
X170494636Y-104136000D01*
X169913000Y-104136000D01*
X169817712Y-104117046D01*
X169736930Y-104063070D01*
X169682954Y-103982288D01*
X169664000Y-103887000D01*
X169664000Y-103885000D01*
X169682954Y-103789712D01*
X169736930Y-103708930D01*
X169817712Y-103654954D01*
X169913000Y-103636000D01*
X170494636Y-103636000D01*
X170494636Y-103635998D01*
X170437433Y-103422516D01*
X170437429Y-103422505D01*
X170337603Y-103208428D01*
X170337599Y-103208420D01*
X170202110Y-103014923D01*
X170035075Y-102847888D01*
X169995203Y-102819970D01*
X169928018Y-102749789D01*
X169892805Y-102659240D01*
X169894924Y-102562108D01*
X169934052Y-102473181D01*
X169995203Y-102412030D01*
X170035075Y-102384111D01*
X170202110Y-102217076D01*
X170337600Y-102023576D01*
X170437433Y-101809485D01*
X170437433Y-101809483D01*
X170494636Y-101596001D01*
X170494636Y-101596000D01*
X169913000Y-101596000D01*
X169817712Y-101577046D01*
X169736930Y-101523070D01*
X169682954Y-101442288D01*
X169664000Y-101347000D01*
X169664000Y-101345000D01*
X169682954Y-101249712D01*
X169736930Y-101168930D01*
X169817712Y-101114954D01*
X169913000Y-101096000D01*
X170494636Y-101096000D01*
X170494636Y-101095998D01*
X170437433Y-100882516D01*
X170437429Y-100882505D01*
X170337603Y-100668428D01*
X170337599Y-100668420D01*
X170202110Y-100474923D01*
X170035075Y-100307888D01*
X169995203Y-100279970D01*
X169928018Y-100209789D01*
X169892805Y-100119240D01*
X169894924Y-100022108D01*
X169934052Y-99933181D01*
X169995203Y-99872030D01*
X170035075Y-99844111D01*
X170202110Y-99677076D01*
X170337600Y-99483576D01*
X170437433Y-99269485D01*
X170437433Y-99269483D01*
X170494636Y-99056001D01*
X170494636Y-99056000D01*
X169913000Y-99056000D01*
X169817712Y-99037046D01*
X169736930Y-98983070D01*
X169682954Y-98902288D01*
X169664000Y-98807000D01*
X169664000Y-98805000D01*
X169682954Y-98709712D01*
X169736930Y-98628930D01*
X169817712Y-98574954D01*
X169913000Y-98556000D01*
X170494636Y-98556000D01*
X170494636Y-98555998D01*
X170437433Y-98342516D01*
X170437429Y-98342505D01*
X170337603Y-98128428D01*
X170337599Y-98128420D01*
X170202110Y-97934923D01*
X170035075Y-97767888D01*
X169995203Y-97739970D01*
X169928018Y-97669789D01*
X169892805Y-97579240D01*
X169894924Y-97482108D01*
X169934052Y-97393181D01*
X169995203Y-97332030D01*
X170035075Y-97304111D01*
X170202110Y-97137076D01*
X170337600Y-96943576D01*
X170437433Y-96729485D01*
X170437433Y-96729483D01*
X170494636Y-96516001D01*
X170494636Y-96516000D01*
X169913000Y-96516000D01*
X169817712Y-96497046D01*
X169736930Y-96443070D01*
X169682954Y-96362288D01*
X169664000Y-96267000D01*
X169664000Y-96265000D01*
X169682954Y-96169712D01*
X169736930Y-96088930D01*
X169817712Y-96034954D01*
X169913000Y-96016000D01*
X170494636Y-96016000D01*
X170494636Y-96015998D01*
X170437433Y-95802516D01*
X170437429Y-95802505D01*
X170337603Y-95588428D01*
X170337599Y-95588420D01*
X170202110Y-95394923D01*
X170035075Y-95227888D01*
X169995203Y-95199970D01*
X169928018Y-95129789D01*
X169892805Y-95039240D01*
X169894924Y-94942108D01*
X169934052Y-94853181D01*
X169995203Y-94792030D01*
X170035075Y-94764111D01*
X170202110Y-94597076D01*
X170337600Y-94403576D01*
X170437433Y-94189485D01*
X170437433Y-94189483D01*
X170494636Y-93976001D01*
X170494636Y-93976000D01*
X169913000Y-93976000D01*
X169817712Y-93957046D01*
X169736930Y-93903070D01*
X169682954Y-93822288D01*
X169664000Y-93727000D01*
X169664000Y-93725000D01*
X169682954Y-93629712D01*
X169736930Y-93548930D01*
X169817712Y-93494954D01*
X169913000Y-93476000D01*
X170494636Y-93476000D01*
X170494636Y-93475998D01*
X170437433Y-93262516D01*
X170437429Y-93262505D01*
X170337603Y-93048428D01*
X170337599Y-93048420D01*
X170202110Y-92854923D01*
X170035075Y-92687888D01*
X169995203Y-92659970D01*
X169928018Y-92589789D01*
X169892805Y-92499240D01*
X169894924Y-92402108D01*
X169934052Y-92313181D01*
X169995203Y-92252030D01*
X170035075Y-92224111D01*
X170202110Y-92057076D01*
X170337600Y-91863576D01*
X170437433Y-91649485D01*
X170437433Y-91649483D01*
X170494636Y-91436001D01*
X170494636Y-91436000D01*
X169913000Y-91436000D01*
X169817712Y-91417046D01*
X169736930Y-91363070D01*
X169682954Y-91282288D01*
X169664000Y-91187000D01*
X169664000Y-91185000D01*
X169682954Y-91089712D01*
X169736930Y-91008930D01*
X169817712Y-90954954D01*
X169913000Y-90936000D01*
X170494636Y-90936000D01*
X170494636Y-90935998D01*
X170437433Y-90722516D01*
X170437429Y-90722505D01*
X170337603Y-90508428D01*
X170337599Y-90508420D01*
X170202110Y-90314923D01*
X170042253Y-90155066D01*
X169988277Y-90074284D01*
X169969323Y-89978996D01*
X169988277Y-89883708D01*
X170042253Y-89802926D01*
X170065378Y-89782504D01*
X170149764Y-89716825D01*
X170312571Y-89539969D01*
X170444049Y-89338728D01*
X170540610Y-89118591D01*
X170599620Y-88885563D01*
X170619471Y-88646000D01*
X170599620Y-88406437D01*
X170540610Y-88173409D01*
X170449759Y-87966290D01*
X170444050Y-87953274D01*
X170444049Y-87953272D01*
X170444049Y-87953271D01*
X170312571Y-87752031D01*
X170149764Y-87575175D01*
X169960067Y-87427528D01*
X169817610Y-87350434D01*
X169748655Y-87313117D01*
X169521297Y-87235066D01*
X169521294Y-87235065D01*
X169284192Y-87195500D01*
X169043808Y-87195500D01*
X168806705Y-87235065D01*
X168806702Y-87235066D01*
X168579344Y-87313117D01*
X168367929Y-87427530D01*
X168302982Y-87478080D01*
X168216144Y-87521649D01*
X168119243Y-87528669D01*
X168027031Y-87498074D01*
X167953547Y-87434519D01*
X167952500Y-87433163D01*
X167902286Y-87367723D01*
X167902285Y-87367722D01*
X167902282Y-87367718D01*
X167902277Y-87367714D01*
X167902276Y-87367713D01*
X167776844Y-87271466D01*
X167776843Y-87271465D01*
X167776841Y-87271464D01*
X167630762Y-87210956D01*
X167630760Y-87210955D01*
X167513362Y-87195500D01*
X165734639Y-87195500D01*
X165734637Y-87195501D01*
X165617238Y-87210955D01*
X165508475Y-87256006D01*
X165471159Y-87271464D01*
X165471158Y-87271464D01*
X165471155Y-87271466D01*
X165345723Y-87367713D01*
X165345713Y-87367723D01*
X165249466Y-87493155D01*
X165249463Y-87493159D01*
X165242161Y-87510790D01*
X165188184Y-87591571D01*
X165107402Y-87645547D01*
X165012116Y-87664500D01*
X160032431Y-87664500D01*
X159945093Y-87662286D01*
X159945089Y-87662287D01*
X159945088Y-87662287D01*
X159945087Y-87662287D01*
X159909186Y-87668720D01*
X159888244Y-87672474D01*
X159878878Y-87673787D01*
X159875687Y-87674112D01*
X159821406Y-87679632D01*
X159793093Y-87688514D01*
X159777783Y-87692272D01*
X159748602Y-87697503D01*
X159748598Y-87697504D01*
X159694971Y-87718923D01*
X159686064Y-87722095D01*
X159630940Y-87739391D01*
X159630940Y-87739392D01*
X159605014Y-87753781D01*
X159590767Y-87760547D01*
X159563227Y-87771548D01*
X159514990Y-87803337D01*
X159506902Y-87808237D01*
X159456414Y-87836262D01*
X159456400Y-87836271D01*
X159433899Y-87855587D01*
X159421309Y-87865080D01*
X159396549Y-87881398D01*
X159355707Y-87922240D01*
X159348769Y-87928670D01*
X159304946Y-87966290D01*
X159286794Y-87989741D01*
X159276369Y-88001577D01*
X156794784Y-90483165D01*
X156731436Y-90543382D01*
X156698443Y-90590785D01*
X156692747Y-90598340D01*
X156656252Y-90643097D01*
X156656247Y-90643104D01*
X156642516Y-90669390D01*
X156634347Y-90682873D01*
X156617407Y-90707212D01*
X156617401Y-90707222D01*
X156594628Y-90760291D01*
X156590569Y-90768836D01*
X156563827Y-90820031D01*
X156563824Y-90820040D01*
X156555665Y-90848551D01*
X156550377Y-90863404D01*
X156538684Y-90890652D01*
X156538683Y-90890655D01*
X156527056Y-90947230D01*
X156524801Y-90956418D01*
X156508912Y-91011951D01*
X156508910Y-91011962D01*
X156506657Y-91041531D01*
X156504467Y-91057145D01*
X156498500Y-91086188D01*
X156498500Y-91143936D01*
X156498140Y-91153393D01*
X156493753Y-91210990D01*
X156493754Y-91210993D01*
X156497501Y-91240417D01*
X156498500Y-91256162D01*
X156498500Y-94935193D01*
X156479546Y-95030481D01*
X156425570Y-95111263D01*
X156344788Y-95165239D01*
X156249500Y-95184193D01*
X156208518Y-95180797D01*
X156068901Y-95157500D01*
X156068900Y-95157500D01*
X155843100Y-95157500D01*
X155620383Y-95194664D01*
X155620379Y-95194665D01*
X155406816Y-95267980D01*
X155269867Y-95342094D01*
X155211310Y-95373784D01*
X155208222Y-95375455D01*
X155066200Y-95485996D01*
X154979362Y-95529566D01*
X154913261Y-95538500D01*
X153442739Y-95538500D01*
X153347451Y-95519546D01*
X153289798Y-95485995D01*
X153239048Y-95446494D01*
X153175495Y-95373009D01*
X153144901Y-95280796D01*
X153151924Y-95183896D01*
X153195494Y-95097058D01*
X153239051Y-95053503D01*
X153263556Y-95034430D01*
X153325959Y-94985860D01*
X153478889Y-94819733D01*
X153602390Y-94630701D01*
X153607098Y-94619969D01*
X153644426Y-94534868D01*
X153693093Y-94423919D01*
X153748524Y-94205029D01*
X153767170Y-93980000D01*
X153748524Y-93754971D01*
X153693093Y-93536081D01*
X153625916Y-93382933D01*
X153602393Y-93329304D01*
X153602391Y-93329302D01*
X153602390Y-93329299D01*
X153498492Y-93170271D01*
X153478890Y-93140268D01*
X153478887Y-93140264D01*
X153325966Y-92974147D01*
X153325963Y-92974144D01*
X153325959Y-92974140D01*
X153281543Y-92939570D01*
X153239048Y-92906494D01*
X153175494Y-92833009D01*
X153144900Y-92740797D01*
X153151922Y-92643896D01*
X153195493Y-92557059D01*
X153239046Y-92513506D01*
X153325959Y-92445860D01*
X153478889Y-92279733D01*
X153602390Y-92090701D01*
X153607098Y-92079969D01*
X153658261Y-91963327D01*
X153693093Y-91883919D01*
X153748524Y-91665029D01*
X153767170Y-91440000D01*
X153748524Y-91214971D01*
X153693093Y-90996081D01*
X153640316Y-90875763D01*
X153602393Y-90789304D01*
X153602391Y-90789302D01*
X153602390Y-90789299D01*
X153506871Y-90643097D01*
X153478890Y-90600268D01*
X153478887Y-90600264D01*
X153325966Y-90434147D01*
X153325963Y-90434144D01*
X153325959Y-90434140D01*
X153283036Y-90400732D01*
X153239048Y-90366494D01*
X153175494Y-90293009D01*
X153144900Y-90200797D01*
X153151922Y-90103896D01*
X153195493Y-90017059D01*
X153239046Y-89973506D01*
X153325959Y-89905860D01*
X153478889Y-89739733D01*
X153602390Y-89550701D01*
X153607098Y-89539969D01*
X153624291Y-89500772D01*
X153693093Y-89343919D01*
X153748524Y-89125029D01*
X153767170Y-88900000D01*
X153748524Y-88674971D01*
X153693093Y-88456081D01*
X153640316Y-88335763D01*
X153602393Y-88249304D01*
X153602391Y-88249302D01*
X153602390Y-88249299D01*
X153478889Y-88060267D01*
X153478887Y-88060264D01*
X153325966Y-87894147D01*
X153325963Y-87894144D01*
X153325959Y-87894140D01*
X153268088Y-87849097D01*
X153239048Y-87826494D01*
X153175494Y-87753009D01*
X153144900Y-87660797D01*
X153151922Y-87563896D01*
X153195493Y-87477059D01*
X153239046Y-87433506D01*
X153325959Y-87365860D01*
X153478889Y-87199733D01*
X153602390Y-87010701D01*
X153603078Y-87009134D01*
X153632123Y-86942917D01*
X153693093Y-86803919D01*
X153748524Y-86585029D01*
X153767170Y-86360000D01*
X153748524Y-86134971D01*
X153693093Y-85916081D01*
X153630744Y-85773939D01*
X153602393Y-85709304D01*
X153602391Y-85709302D01*
X153602390Y-85709299D01*
X153478889Y-85520267D01*
X153478887Y-85520264D01*
X153325966Y-85354147D01*
X153325963Y-85354144D01*
X153325959Y-85354140D01*
X153241837Y-85288665D01*
X153239048Y-85286494D01*
X153175494Y-85213009D01*
X153144900Y-85120797D01*
X153151922Y-85023896D01*
X153195493Y-84937059D01*
X153239046Y-84893506D01*
X153325959Y-84825860D01*
X153478889Y-84659733D01*
X153602390Y-84470701D01*
X153693093Y-84263919D01*
X153748524Y-84045029D01*
X153767170Y-83820000D01*
X153748524Y-83594971D01*
X153693093Y-83376081D01*
X153640316Y-83255763D01*
X153602393Y-83169304D01*
X153602391Y-83169302D01*
X153602390Y-83169299D01*
X153478889Y-82980267D01*
X153478887Y-82980264D01*
X153325966Y-82814147D01*
X153325963Y-82814144D01*
X153325959Y-82814140D01*
X153288558Y-82785030D01*
X153239048Y-82746494D01*
X153175494Y-82673009D01*
X153144900Y-82580797D01*
X153151922Y-82483896D01*
X153195493Y-82397059D01*
X153239046Y-82353506D01*
X153325959Y-82285860D01*
X153478889Y-82119733D01*
X153602390Y-81930701D01*
X153693093Y-81723919D01*
X153748524Y-81505029D01*
X153767170Y-81280000D01*
X153748524Y-81054971D01*
X153693093Y-80836081D01*
X153640316Y-80715763D01*
X153602393Y-80629304D01*
X153602391Y-80629302D01*
X153602390Y-80629299D01*
X153478889Y-80440267D01*
X153478887Y-80440264D01*
X153325966Y-80274147D01*
X153325963Y-80274144D01*
X153325959Y-80274140D01*
X153264547Y-80226341D01*
X153239048Y-80206494D01*
X153175494Y-80133009D01*
X153144900Y-80040797D01*
X153151922Y-79943896D01*
X153195493Y-79857059D01*
X153239046Y-79813506D01*
X153325959Y-79745860D01*
X153478889Y-79579733D01*
X153602390Y-79390701D01*
X153614344Y-79363450D01*
X153635238Y-79315815D01*
X153693093Y-79183919D01*
X153748524Y-78965029D01*
X153757746Y-78853729D01*
X153784503Y-78760336D01*
X153829822Y-78698227D01*
X157132639Y-75395410D01*
X160451214Y-72076836D01*
X160473076Y-72056054D01*
X160514562Y-72016619D01*
X160547572Y-71969190D01*
X160553239Y-71961674D01*
X160589751Y-71916898D01*
X160603482Y-71890609D01*
X160611657Y-71877118D01*
X160613080Y-71875072D01*
X160628597Y-71852780D01*
X160651372Y-71799705D01*
X160655430Y-71791163D01*
X160666474Y-71770019D01*
X160682174Y-71739965D01*
X160690335Y-71711438D01*
X160695619Y-71696598D01*
X160707318Y-71669340D01*
X160718950Y-71612729D01*
X160721194Y-71603589D01*
X160737088Y-71548049D01*
X160739339Y-71518475D01*
X160741531Y-71502854D01*
X160747499Y-71473812D01*
X160747500Y-71473809D01*
X160747500Y-71416061D01*
X160747860Y-71406604D01*
X160748854Y-71393549D01*
X160752246Y-71349008D01*
X160748497Y-71319577D01*
X160747500Y-71303838D01*
X160747500Y-68581689D01*
X160766454Y-68486401D01*
X160820427Y-68405622D01*
X162131619Y-67094430D01*
X162212402Y-67040454D01*
X162307690Y-67021500D01*
X163922785Y-67021500D01*
X164018073Y-67040454D01*
X164098855Y-67094430D01*
X164105968Y-67101844D01*
X164114236Y-67110825D01*
X164141553Y-67132087D01*
X164201356Y-67178633D01*
X164264911Y-67252117D01*
X164295506Y-67344329D01*
X164288484Y-67441230D01*
X164244914Y-67528067D01*
X164224488Y-67551199D01*
X162742054Y-69033632D01*
X162736275Y-69039055D01*
X162684779Y-69084379D01*
X162684778Y-69084380D01*
X162621013Y-69163350D01*
X162592592Y-69197058D01*
X162555575Y-69240963D01*
X162549474Y-69249591D01*
X162549326Y-69249486D01*
X162544849Y-69255962D01*
X162545000Y-69256064D01*
X162539073Y-69264833D01*
X162489572Y-69353441D01*
X162438200Y-69440983D01*
X162433641Y-69450526D01*
X162433477Y-69450447D01*
X162430153Y-69457597D01*
X162430318Y-69457672D01*
X162425965Y-69467301D01*
X162392150Y-69563009D01*
X162356309Y-69657980D01*
X162353426Y-69668163D01*
X162353250Y-69668113D01*
X162351185Y-69675714D01*
X162351361Y-69675760D01*
X162348697Y-69685990D01*
X162341667Y-69726989D01*
X162331541Y-69786042D01*
X162312269Y-69885696D01*
X162312268Y-69885702D01*
X162311149Y-69896215D01*
X162310968Y-69896195D01*
X162310216Y-69904038D01*
X162310397Y-69904054D01*
X162309500Y-69914592D01*
X162309500Y-70016092D01*
X162307345Y-70117573D01*
X162308019Y-70128138D01*
X162307836Y-70128149D01*
X162309499Y-70150505D01*
X162309499Y-75574000D01*
X162290545Y-75669288D01*
X162236569Y-75750070D01*
X162155787Y-75804046D01*
X162060500Y-75823000D01*
X161882638Y-75823000D01*
X161765238Y-75838455D01*
X161656475Y-75883506D01*
X161619159Y-75898964D01*
X161619158Y-75898964D01*
X161619155Y-75898966D01*
X161493723Y-75995213D01*
X161493713Y-75995223D01*
X161397466Y-76120655D01*
X161336955Y-76266739D01*
X161321500Y-76384137D01*
X161321500Y-79962860D01*
X161321501Y-79962862D01*
X161336955Y-80080261D01*
X161358806Y-80133012D01*
X161397464Y-80226341D01*
X161397465Y-80226343D01*
X161397466Y-80226344D01*
X161481872Y-80336345D01*
X161493718Y-80351782D01*
X161493722Y-80351785D01*
X161493723Y-80351786D01*
X161619155Y-80448033D01*
X161619159Y-80448036D01*
X161765238Y-80508544D01*
X161882639Y-80524000D01*
X165461360Y-80523999D01*
X165578762Y-80508544D01*
X165724841Y-80448036D01*
X165850282Y-80351782D01*
X165946536Y-80226341D01*
X166007044Y-80080262D01*
X166022500Y-79962861D01*
X166022499Y-76384140D01*
X166007044Y-76266738D01*
X165966264Y-76168287D01*
X165947310Y-76073002D01*
X165966263Y-75977714D01*
X166020239Y-75896932D01*
X166101020Y-75842955D01*
X166196308Y-75824000D01*
X167628457Y-75824000D01*
X167670819Y-75821369D01*
X167730134Y-75817687D01*
X167730147Y-75817684D01*
X167730149Y-75817684D01*
X167898386Y-75782409D01*
X167995536Y-75781404D01*
X168085675Y-75817654D01*
X168155080Y-75885640D01*
X168193185Y-75975010D01*
X168194190Y-76072160D01*
X168157940Y-76162299D01*
X168125555Y-76202178D01*
X167958564Y-76369169D01*
X167830431Y-76554120D01*
X167830429Y-76554124D01*
X167737377Y-76758982D01*
X167682400Y-76977165D01*
X167682398Y-76977178D01*
X167672000Y-77109309D01*
X167672000Y-77923498D01*
X167672001Y-77923500D01*
X168923000Y-77923500D01*
X169018288Y-77942454D01*
X169099070Y-77996430D01*
X169153046Y-78077212D01*
X169172000Y-78172500D01*
X169172000Y-78174500D01*
X169153046Y-78269788D01*
X169099070Y-78350570D01*
X169018288Y-78404546D01*
X168923000Y-78423500D01*
X167672002Y-78423500D01*
X167672001Y-78423501D01*
X167672001Y-79237688D01*
X167682400Y-79369834D01*
X167737377Y-79588017D01*
X167830429Y-79792875D01*
X167830431Y-79792879D01*
X167958564Y-79977829D01*
X168117670Y-80136935D01*
X168302620Y-80265068D01*
X168302624Y-80265070D01*
X168507482Y-80358122D01*
X168725665Y-80413099D01*
X168725678Y-80413101D01*
X168857809Y-80423500D01*
X168857810Y-80423500D01*
X169421998Y-80423499D01*
X169422000Y-80423497D01*
X169422000Y-79922500D01*
X169440954Y-79827212D01*
X169494930Y-79746430D01*
X169575712Y-79692454D01*
X169671000Y-79673500D01*
X169673000Y-79673500D01*
X169768288Y-79692454D01*
X169849070Y-79746430D01*
X169903046Y-79827212D01*
X169922000Y-79922500D01*
X169922000Y-80423498D01*
X169922001Y-80423499D01*
X170486188Y-80423499D01*
X170618334Y-80413099D01*
X170836517Y-80358122D01*
X171041375Y-80265070D01*
X171041379Y-80265068D01*
X171226329Y-80136935D01*
X171385435Y-79977829D01*
X171513568Y-79792879D01*
X171513570Y-79792875D01*
X171606622Y-79588017D01*
X171661599Y-79369834D01*
X171661601Y-79369821D01*
X171672000Y-79237691D01*
X171672000Y-78423501D01*
X171671999Y-78423500D01*
X170421000Y-78423500D01*
X170325712Y-78404546D01*
X170244930Y-78350570D01*
X170190954Y-78269788D01*
X170172000Y-78174500D01*
X170172000Y-78172500D01*
X170190954Y-78077212D01*
X170244930Y-77996430D01*
X170325712Y-77942454D01*
X170421000Y-77923500D01*
X171671998Y-77923500D01*
X171671999Y-77923499D01*
X171671999Y-77109312D01*
X171661599Y-76977165D01*
X171606622Y-76758982D01*
X171513570Y-76554124D01*
X171513568Y-76554120D01*
X171385435Y-76369170D01*
X171226329Y-76210064D01*
X171041379Y-76081931D01*
X171041375Y-76081929D01*
X170836517Y-75988877D01*
X170618334Y-75933900D01*
X170618321Y-75933898D01*
X170486191Y-75923500D01*
X169922001Y-75923500D01*
X169922000Y-75923501D01*
X169922000Y-76424500D01*
X169903046Y-76519788D01*
X169849070Y-76600570D01*
X169768288Y-76654546D01*
X169673000Y-76673500D01*
X169671000Y-76673500D01*
X169575712Y-76654546D01*
X169494930Y-76600570D01*
X169440954Y-76519788D01*
X169422000Y-76424500D01*
X169422000Y-75923501D01*
X169421999Y-75923500D01*
X168857811Y-75923501D01*
X168725662Y-75933900D01*
X168673913Y-75946940D01*
X168576882Y-75951843D01*
X168485361Y-75919239D01*
X168413283Y-75854094D01*
X168371622Y-75766325D01*
X168366719Y-75669294D01*
X168399323Y-75577773D01*
X168452144Y-75515482D01*
X168593912Y-75395412D01*
X168751949Y-75208817D01*
X168877119Y-74998756D01*
X168966007Y-74770957D01*
X169016187Y-74531634D01*
X169021760Y-74441871D01*
X169022500Y-74429957D01*
X169022500Y-72517043D01*
X169016187Y-72415372D01*
X169016187Y-72415366D01*
X168966007Y-72176043D01*
X168877119Y-71948244D01*
X168877117Y-71948240D01*
X168877116Y-71948238D01*
X168820234Y-71852780D01*
X168751949Y-71738183D01*
X168593912Y-71551588D01*
X168407317Y-71393551D01*
X168348206Y-71358328D01*
X168197261Y-71268383D01*
X168197256Y-71268381D01*
X167969459Y-71179493D01*
X167730138Y-71129313D01*
X167730127Y-71129312D01*
X167628457Y-71123000D01*
X167628452Y-71123000D01*
X165715548Y-71123000D01*
X165715543Y-71123000D01*
X165613872Y-71129312D01*
X165613861Y-71129313D01*
X165374538Y-71179494D01*
X165374536Y-71179494D01*
X165374006Y-71179702D01*
X165373597Y-71179774D01*
X165364671Y-71182432D01*
X165364367Y-71181412D01*
X165278345Y-71196680D01*
X165183470Y-71175757D01*
X165103823Y-71120120D01*
X165051531Y-71038239D01*
X165034500Y-70947733D01*
X165034500Y-70698060D01*
X165053454Y-70602772D01*
X165107427Y-70521993D01*
X167065351Y-68564070D01*
X167725224Y-67904198D01*
X167819197Y-67792739D01*
X167837285Y-67771286D01*
X167837285Y-67771284D01*
X167843039Y-67764461D01*
X167850191Y-67756674D01*
X168032730Y-67574135D01*
X168219337Y-67387527D01*
X168276890Y-67344613D01*
X168436067Y-67258472D01*
X168580323Y-67146192D01*
X168667158Y-67102624D01*
X168764059Y-67095601D01*
X168856271Y-67126195D01*
X168929756Y-67189749D01*
X168932594Y-67193467D01*
X168972806Y-67247183D01*
X168972812Y-67247189D01*
X169087912Y-67333353D01*
X169222621Y-67383596D01*
X169222628Y-67383598D01*
X169282167Y-67389999D01*
X169282175Y-67390000D01*
X169929999Y-67390000D01*
X169930000Y-67389999D01*
X169930000Y-66789000D01*
X169948954Y-66693712D01*
X170002930Y-66612930D01*
X170083712Y-66558954D01*
X170179000Y-66540000D01*
X170181000Y-66540000D01*
X170276288Y-66558954D01*
X170357070Y-66612930D01*
X170411046Y-66693712D01*
X170430000Y-66789000D01*
X170430000Y-67389999D01*
X170430001Y-67390000D01*
X171077825Y-67390000D01*
X171077832Y-67389999D01*
X171137371Y-67383598D01*
X171137378Y-67383596D01*
X171272087Y-67333353D01*
X171387187Y-67247189D01*
X171387189Y-67247187D01*
X171473353Y-67132087D01*
X171523596Y-66997378D01*
X171523598Y-66997371D01*
X171529999Y-66937832D01*
X171530000Y-66937825D01*
X171530000Y-66290000D01*
X170929000Y-66290000D01*
X170833712Y-66271046D01*
X170752930Y-66217070D01*
X170698954Y-66136288D01*
X170680000Y-66041000D01*
X170680000Y-66039000D01*
X170698954Y-65943712D01*
X170752930Y-65862930D01*
X170833712Y-65808954D01*
X170929000Y-65790000D01*
X171529999Y-65790000D01*
X171530000Y-65789999D01*
X171530000Y-65142174D01*
X171529999Y-65142167D01*
X171523598Y-65082628D01*
X171523596Y-65082621D01*
X171473353Y-64947912D01*
X171387189Y-64832812D01*
X171387187Y-64832810D01*
X171272087Y-64746646D01*
X171137378Y-64696403D01*
X171137371Y-64696401D01*
X171077832Y-64690000D01*
X170430000Y-64690000D01*
X170430000Y-65291000D01*
X170411046Y-65386288D01*
X170357070Y-65467070D01*
X170276288Y-65521046D01*
X170181000Y-65540000D01*
X170179000Y-65540000D01*
X170083712Y-65521046D01*
X170002930Y-65467070D01*
X169948954Y-65386288D01*
X169930000Y-65291000D01*
X169930000Y-64690000D01*
X169282175Y-64690000D01*
X169282154Y-64690001D01*
X169278097Y-64690437D01*
X169276571Y-64690300D01*
X169275516Y-64690357D01*
X169275507Y-64690205D01*
X169181329Y-64681770D01*
X169095245Y-64636731D01*
X169032948Y-64562178D01*
X169003925Y-64469459D01*
X169002500Y-64442862D01*
X169002500Y-60017137D01*
X169021454Y-59921849D01*
X169075430Y-59841067D01*
X169156212Y-59787091D01*
X169251500Y-59768137D01*
X169278120Y-59769564D01*
X169282174Y-59769999D01*
X169282175Y-59770000D01*
X169929999Y-59770000D01*
X169930000Y-59769999D01*
X169930000Y-59169000D01*
X169948954Y-59073712D01*
X170002930Y-58992930D01*
X170083712Y-58938954D01*
X170179000Y-58920000D01*
X170181000Y-58920000D01*
X170276288Y-58938954D01*
X170357070Y-58992930D01*
X170411046Y-59073712D01*
X170430000Y-59169000D01*
X170430000Y-59769998D01*
X170430001Y-59770000D01*
X171077825Y-59770000D01*
X171077832Y-59769999D01*
X171137371Y-59763598D01*
X171137378Y-59763596D01*
X171272087Y-59713353D01*
X171387187Y-59627189D01*
X171387189Y-59627187D01*
X171473353Y-59512087D01*
X171523596Y-59377378D01*
X171523598Y-59377371D01*
X171529999Y-59317832D01*
X171530000Y-59317825D01*
X171530000Y-58670000D01*
X170929000Y-58670000D01*
X170833712Y-58651046D01*
X170752930Y-58597070D01*
X170698954Y-58516288D01*
X170680000Y-58421000D01*
X170680000Y-58419000D01*
X170698954Y-58323712D01*
X170752930Y-58242930D01*
X170833712Y-58188954D01*
X170929000Y-58170000D01*
X171529999Y-58170000D01*
X171530000Y-58169999D01*
X171530000Y-57522175D01*
X171529999Y-57522167D01*
X171523598Y-57462628D01*
X171523596Y-57462621D01*
X171473353Y-57327912D01*
X171387189Y-57212812D01*
X171387187Y-57212810D01*
X171272087Y-57126646D01*
X171137378Y-57076403D01*
X171137371Y-57076401D01*
X171077832Y-57070000D01*
X170430000Y-57070000D01*
X170430000Y-57671000D01*
X170411046Y-57766288D01*
X170357070Y-57847070D01*
X170276288Y-57901046D01*
X170181000Y-57920000D01*
X170179000Y-57920000D01*
X170083712Y-57901046D01*
X170002930Y-57847070D01*
X169948954Y-57766288D01*
X169930000Y-57671000D01*
X169930000Y-57070000D01*
X169282167Y-57070000D01*
X169222628Y-57076401D01*
X169222621Y-57076403D01*
X169087912Y-57126646D01*
X168972812Y-57212810D01*
X168972807Y-57212815D01*
X168932593Y-57266534D01*
X168860315Y-57331456D01*
X168768693Y-57363776D01*
X168671678Y-57358574D01*
X168584037Y-57316642D01*
X168580322Y-57313806D01*
X168436071Y-57201530D01*
X168224655Y-57087117D01*
X167997297Y-57009066D01*
X167997294Y-57009065D01*
X167760192Y-56969500D01*
X167519808Y-56969500D01*
X167282705Y-57009065D01*
X167282702Y-57009066D01*
X167055344Y-57087117D01*
X166843931Y-57201529D01*
X166807714Y-57229718D01*
X166654236Y-57349175D01*
X166553193Y-57458937D01*
X166474714Y-57516204D01*
X166380290Y-57539079D01*
X166284300Y-57524079D01*
X166201357Y-57473488D01*
X166186815Y-57458946D01*
X166085764Y-57349175D01*
X165896067Y-57201528D01*
X165770296Y-57133464D01*
X165684655Y-57087117D01*
X165457297Y-57009066D01*
X165457294Y-57009065D01*
X165220192Y-56969500D01*
X164979808Y-56969500D01*
X164742705Y-57009065D01*
X164742702Y-57009066D01*
X164515344Y-57087117D01*
X164303931Y-57201529D01*
X164267714Y-57229718D01*
X164114236Y-57349175D01*
X164108728Y-57355159D01*
X164105979Y-57358145D01*
X164027497Y-57415413D01*
X163933073Y-57438287D01*
X163922785Y-57438500D01*
X161810454Y-57438500D01*
X161808395Y-57438447D01*
X161723089Y-57436285D01*
X161666236Y-57446475D01*
X161656871Y-57447789D01*
X161638798Y-57449627D01*
X161599412Y-57453632D01*
X161599407Y-57453633D01*
X161571103Y-57462512D01*
X161555794Y-57466269D01*
X161526607Y-57471501D01*
X161526596Y-57471504D01*
X161472976Y-57492922D01*
X161464067Y-57496094D01*
X161408940Y-57513391D01*
X161408938Y-57513392D01*
X161383007Y-57527784D01*
X161368767Y-57534547D01*
X161341226Y-57545549D01*
X161341226Y-57545550D01*
X161293001Y-57577332D01*
X161284910Y-57582234D01*
X161234406Y-57610266D01*
X161234404Y-57610268D01*
X161211898Y-57629589D01*
X161199306Y-57639083D01*
X161174549Y-57655399D01*
X161133714Y-57696234D01*
X161126776Y-57702664D01*
X161082946Y-57740290D01*
X161064791Y-57763745D01*
X161054366Y-57775581D01*
X157302785Y-61527164D01*
X157239436Y-61587382D01*
X157206443Y-61634785D01*
X157200747Y-61642340D01*
X157164252Y-61687097D01*
X157164247Y-61687104D01*
X157150516Y-61713390D01*
X157142347Y-61726873D01*
X157125407Y-61751212D01*
X157125401Y-61751222D01*
X157102628Y-61804291D01*
X157098569Y-61812836D01*
X157071827Y-61864031D01*
X157071824Y-61864040D01*
X157063665Y-61892551D01*
X157058377Y-61907404D01*
X157046684Y-61934652D01*
X157046683Y-61934655D01*
X157035056Y-61991230D01*
X157032801Y-62000418D01*
X157016912Y-62055951D01*
X157016910Y-62055962D01*
X157014657Y-62085531D01*
X157012467Y-62101145D01*
X157006500Y-62130188D01*
X157006500Y-62187936D01*
X157006140Y-62197393D01*
X157001753Y-62254990D01*
X157001754Y-62254993D01*
X157005501Y-62284417D01*
X157006500Y-62300162D01*
X157006500Y-70102308D01*
X156987546Y-70197596D01*
X156933570Y-70278378D01*
X154043110Y-73168838D01*
X153962328Y-73222814D01*
X153867040Y-73241768D01*
X153771752Y-73222814D01*
X153690970Y-73168838D01*
X153639012Y-73092789D01*
X153602393Y-73009304D01*
X153602391Y-73009302D01*
X153602390Y-73009299D01*
X153498489Y-72850267D01*
X153478890Y-72820268D01*
X153478887Y-72820264D01*
X153325966Y-72654147D01*
X153325962Y-72654143D01*
X153325959Y-72654140D01*
X153239047Y-72586494D01*
X153175495Y-72513012D01*
X153144900Y-72420800D01*
X153151922Y-72323899D01*
X153195492Y-72237061D01*
X153239046Y-72193506D01*
X153325959Y-72125860D01*
X153478889Y-71959733D01*
X153602390Y-71770701D01*
X153604211Y-71766551D01*
X153634902Y-71696581D01*
X153693093Y-71563919D01*
X153748524Y-71345029D01*
X153767170Y-71120000D01*
X153748524Y-70894971D01*
X153693093Y-70676081D01*
X153640316Y-70555763D01*
X153602393Y-70469304D01*
X153602391Y-70469302D01*
X153602390Y-70469299D01*
X153498492Y-70310271D01*
X153478890Y-70280268D01*
X153478887Y-70280264D01*
X153325966Y-70114147D01*
X153325962Y-70114143D01*
X153325959Y-70114140D01*
X153239047Y-70046494D01*
X153175495Y-69973012D01*
X153144900Y-69880800D01*
X153151922Y-69783899D01*
X153195492Y-69697061D01*
X153239046Y-69653506D01*
X153325959Y-69585860D01*
X153478889Y-69419733D01*
X153602390Y-69230701D01*
X153602695Y-69230007D01*
X153631933Y-69163350D01*
X153693093Y-69023919D01*
X153748524Y-68805029D01*
X153767170Y-68580000D01*
X153748524Y-68354971D01*
X153693093Y-68136081D01*
X153640316Y-68015763D01*
X153602393Y-67929304D01*
X153602391Y-67929302D01*
X153602390Y-67929299D01*
X153498489Y-67770267D01*
X153478890Y-67740268D01*
X153478887Y-67740264D01*
X153325966Y-67574147D01*
X153325962Y-67574143D01*
X153325959Y-67574140D01*
X153239047Y-67506494D01*
X153175495Y-67433012D01*
X153144900Y-67340800D01*
X153151922Y-67243899D01*
X153195492Y-67157061D01*
X153239046Y-67113506D01*
X153325959Y-67045860D01*
X153478889Y-66879733D01*
X153602390Y-66690701D01*
X153693093Y-66483919D01*
X153748524Y-66265029D01*
X153767170Y-66040000D01*
X153748524Y-65814971D01*
X153693093Y-65596081D01*
X153635429Y-65464620D01*
X153602393Y-65389304D01*
X153602391Y-65389302D01*
X153602390Y-65389299D01*
X153498489Y-65230267D01*
X153478890Y-65200268D01*
X153478887Y-65200264D01*
X153325966Y-65034147D01*
X153325962Y-65034143D01*
X153325959Y-65034140D01*
X153239046Y-64966493D01*
X153175495Y-64893012D01*
X153144900Y-64800800D01*
X153151922Y-64703899D01*
X153195492Y-64617061D01*
X153239046Y-64573506D01*
X153325959Y-64505860D01*
X153478889Y-64339733D01*
X153602390Y-64150701D01*
X153602695Y-64150007D01*
X153619698Y-64111241D01*
X153693093Y-63943919D01*
X153748524Y-63725029D01*
X153767170Y-63500000D01*
X153748524Y-63274971D01*
X153693093Y-63056081D01*
X153605500Y-62856388D01*
X153602393Y-62849304D01*
X153602391Y-62849302D01*
X153602390Y-62849299D01*
X153478889Y-62660267D01*
X153478887Y-62660264D01*
X153325966Y-62494147D01*
X153325962Y-62494143D01*
X153325959Y-62494140D01*
X153239047Y-62426494D01*
X153175495Y-62353012D01*
X153144900Y-62260800D01*
X153151922Y-62163899D01*
X153195492Y-62077061D01*
X153239046Y-62033506D01*
X153325959Y-61965860D01*
X153478889Y-61799733D01*
X153602390Y-61610701D01*
X153693093Y-61403919D01*
X153748524Y-61185029D01*
X153767170Y-60960000D01*
X153748524Y-60734971D01*
X153693093Y-60516081D01*
X153623928Y-60358401D01*
X153602393Y-60309304D01*
X153602391Y-60309302D01*
X153602390Y-60309299D01*
X153511655Y-60170419D01*
X153478890Y-60120268D01*
X153478887Y-60120264D01*
X153325966Y-59954147D01*
X153325962Y-59954143D01*
X153325959Y-59954140D01*
X153289918Y-59926088D01*
X153157881Y-59823319D01*
X153094328Y-59749835D01*
X153063733Y-59657623D01*
X153070755Y-59560722D01*
X153094551Y-59513295D01*
X153098186Y-59471740D01*
X152669110Y-59042663D01*
X152615134Y-58961882D01*
X152596180Y-58866594D01*
X152615134Y-58771306D01*
X152661981Y-58697955D01*
X152663346Y-58696473D01*
X152741823Y-58639209D01*
X152836247Y-58616334D01*
X152932237Y-58631334D01*
X153015180Y-58681926D01*
X153022606Y-58689051D01*
X153451741Y-59118186D01*
X153497096Y-59053414D01*
X153497101Y-59053405D01*
X153590421Y-58853279D01*
X153647574Y-58639979D01*
X153647576Y-58639968D01*
X153666821Y-58420005D01*
X153666821Y-58419994D01*
X153647576Y-58200031D01*
X153647574Y-58200020D01*
X153590422Y-57986723D01*
X153497097Y-57786587D01*
X153497094Y-57786583D01*
X153451742Y-57721812D01*
X153451740Y-57721812D01*
X153025788Y-58147763D01*
X152945007Y-58201739D01*
X152849719Y-58220693D01*
X152754430Y-58201739D01*
X152696822Y-58168222D01*
X152695232Y-58166985D01*
X152631662Y-58093514D01*
X152601048Y-58001308D01*
X152608049Y-57904406D01*
X152651600Y-57817559D01*
X152672059Y-57794387D01*
X153098186Y-57368258D01*
X153098186Y-57368256D01*
X153033417Y-57322904D01*
X153033410Y-57322900D01*
X152833279Y-57229578D01*
X152619979Y-57172425D01*
X152619968Y-57172423D01*
X152400006Y-57153179D01*
X152399994Y-57153179D01*
X152180031Y-57172423D01*
X152180020Y-57172425D01*
X151966723Y-57229577D01*
X151766586Y-57322903D01*
X151701811Y-57368258D01*
X152130889Y-57797336D01*
X152184865Y-57878117D01*
X152203819Y-57973405D01*
X152184865Y-58068693D01*
X152138014Y-58142049D01*
X152136658Y-58143522D01*
X152058176Y-58200790D01*
X151963752Y-58223665D01*
X151867762Y-58208665D01*
X151784819Y-58158073D01*
X151777393Y-58150948D01*
X151348257Y-57721812D01*
X151302903Y-57786586D01*
X151209577Y-57986723D01*
X151152425Y-58200020D01*
X151152423Y-58200031D01*
X151133179Y-58419994D01*
X151133179Y-58420005D01*
X151152423Y-58639968D01*
X151152425Y-58639979D01*
X151209578Y-58853279D01*
X151302900Y-59053410D01*
X151302904Y-59053417D01*
X151348257Y-59118186D01*
X151774209Y-58692235D01*
X151854991Y-58638259D01*
X151950279Y-58619305D01*
X152045567Y-58638259D01*
X152103193Y-58671790D01*
X152104784Y-58673028D01*
X152168347Y-58746504D01*
X152198954Y-58838712D01*
X152191944Y-58935614D01*
X152148385Y-59022457D01*
X152127940Y-59045612D01*
X151701812Y-59471740D01*
X151704979Y-59507944D01*
X151734394Y-59583582D01*
X151732276Y-59680714D01*
X151693149Y-59769642D01*
X151642118Y-59823319D01*
X151474047Y-59954135D01*
X151474033Y-59954147D01*
X151321112Y-60120264D01*
X151321109Y-60120268D01*
X151197608Y-60309302D01*
X151197606Y-60309304D01*
X151106908Y-60516079D01*
X151106905Y-60516087D01*
X151051478Y-60734960D01*
X151051476Y-60734967D01*
X151032830Y-60960000D01*
X151051476Y-61185032D01*
X151051478Y-61185039D01*
X151076580Y-61284162D01*
X151106907Y-61403919D01*
X151112338Y-61416300D01*
X151197606Y-61610695D01*
X151197608Y-61610697D01*
X151197610Y-61610701D01*
X151216562Y-61639709D01*
X151321109Y-61799731D01*
X151321112Y-61799735D01*
X151474033Y-61965852D01*
X151474037Y-61965855D01*
X151474041Y-61965860D01*
X151474044Y-61965862D01*
X151474046Y-61965864D01*
X151560951Y-62033505D01*
X151624504Y-62106989D01*
X151655099Y-62199201D01*
X151648077Y-62296102D01*
X151604506Y-62382940D01*
X151560951Y-62426495D01*
X151474046Y-62494135D01*
X151474033Y-62494147D01*
X151321112Y-62660264D01*
X151321109Y-62660268D01*
X151197608Y-62849302D01*
X151197606Y-62849304D01*
X151106908Y-63056079D01*
X151106905Y-63056087D01*
X151051478Y-63274960D01*
X151051476Y-63274967D01*
X151032830Y-63500000D01*
X151051476Y-63725032D01*
X151051478Y-63725039D01*
X151078630Y-63832258D01*
X151106907Y-63943919D01*
X151117052Y-63967047D01*
X151197606Y-64150695D01*
X151197608Y-64150697D01*
X151197610Y-64150701D01*
X151220160Y-64185216D01*
X151321109Y-64339731D01*
X151321112Y-64339735D01*
X151474033Y-64505852D01*
X151474036Y-64505854D01*
X151474041Y-64505860D01*
X151541819Y-64558614D01*
X151560949Y-64573503D01*
X151624504Y-64646987D01*
X151655099Y-64739199D01*
X151648077Y-64836100D01*
X151604507Y-64922937D01*
X151560952Y-64966493D01*
X151474049Y-65034133D01*
X151474033Y-65034147D01*
X151321112Y-65200264D01*
X151321109Y-65200268D01*
X151197608Y-65389302D01*
X151197606Y-65389304D01*
X151106908Y-65596079D01*
X151106905Y-65596087D01*
X151051478Y-65814960D01*
X151051476Y-65814967D01*
X151032830Y-66039999D01*
X151051476Y-66265032D01*
X151051478Y-66265039D01*
X151102104Y-66464952D01*
X151106907Y-66483919D01*
X151131506Y-66540000D01*
X151197606Y-66690695D01*
X151197608Y-66690697D01*
X151197610Y-66690701D01*
X151225068Y-66732728D01*
X151321109Y-66879731D01*
X151321112Y-66879735D01*
X151474033Y-67045852D01*
X151474037Y-67045855D01*
X151474041Y-67045860D01*
X151474044Y-67045862D01*
X151474046Y-67045864D01*
X151560951Y-67113505D01*
X151624504Y-67186989D01*
X151655099Y-67279201D01*
X151648077Y-67376102D01*
X151604506Y-67462940D01*
X151560951Y-67506495D01*
X151474046Y-67574135D01*
X151474033Y-67574147D01*
X151321112Y-67740264D01*
X151321109Y-67740268D01*
X151197608Y-67929302D01*
X151197606Y-67929304D01*
X151106908Y-68136079D01*
X151106905Y-68136087D01*
X151051478Y-68354960D01*
X151051476Y-68354967D01*
X151032830Y-68579999D01*
X151051476Y-68805032D01*
X151051478Y-68805039D01*
X151058090Y-68831148D01*
X151106907Y-69023919D01*
X151129799Y-69076108D01*
X151197606Y-69230695D01*
X151197608Y-69230697D01*
X151197610Y-69230701D01*
X151219910Y-69264833D01*
X151321109Y-69419731D01*
X151321112Y-69419735D01*
X151474033Y-69585852D01*
X151474037Y-69585855D01*
X151474041Y-69585860D01*
X151474044Y-69585862D01*
X151474046Y-69585864D01*
X151560951Y-69653505D01*
X151624504Y-69726989D01*
X151655099Y-69819201D01*
X151648077Y-69916102D01*
X151604506Y-70002940D01*
X151560951Y-70046495D01*
X151474046Y-70114135D01*
X151474033Y-70114147D01*
X151321112Y-70280264D01*
X151321109Y-70280268D01*
X151197608Y-70469302D01*
X151197606Y-70469304D01*
X151106908Y-70676079D01*
X151106905Y-70676087D01*
X151051478Y-70894960D01*
X151051476Y-70894967D01*
X151032830Y-71119999D01*
X151051476Y-71345032D01*
X151051478Y-71345039D01*
X151106905Y-71563912D01*
X151106907Y-71563919D01*
X151133295Y-71624077D01*
X151197606Y-71770695D01*
X151197608Y-71770697D01*
X151197610Y-71770701D01*
X151234005Y-71826407D01*
X151321109Y-71959731D01*
X151321112Y-71959735D01*
X151474033Y-72125852D01*
X151474037Y-72125855D01*
X151474041Y-72125860D01*
X151474044Y-72125862D01*
X151474046Y-72125864D01*
X151560951Y-72193505D01*
X151624504Y-72266989D01*
X151655099Y-72359201D01*
X151648077Y-72456102D01*
X151604506Y-72542940D01*
X151560951Y-72586495D01*
X151474046Y-72654135D01*
X151474033Y-72654147D01*
X151321112Y-72820264D01*
X151321109Y-72820268D01*
X151197608Y-73009302D01*
X151197606Y-73009304D01*
X151106908Y-73216079D01*
X151106905Y-73216087D01*
X151051478Y-73434960D01*
X151051476Y-73434967D01*
X151032830Y-73659999D01*
X151051476Y-73885032D01*
X151051478Y-73885039D01*
X151101330Y-74081898D01*
X151106907Y-74103919D01*
X151119706Y-74133097D01*
X151197606Y-74310695D01*
X151197608Y-74310697D01*
X151197610Y-74310701D01*
X151241136Y-74377322D01*
X151321109Y-74499731D01*
X151321112Y-74499735D01*
X151474033Y-74665852D01*
X151474037Y-74665855D01*
X151474041Y-74665860D01*
X151474044Y-74665862D01*
X151474046Y-74665864D01*
X151560951Y-74733505D01*
X151624504Y-74806989D01*
X151655099Y-74899201D01*
X151648077Y-74996102D01*
X151604506Y-75082940D01*
X151560951Y-75126495D01*
X151474046Y-75194135D01*
X151474033Y-75194147D01*
X151321112Y-75360264D01*
X151321109Y-75360268D01*
X151197608Y-75549302D01*
X151197606Y-75549304D01*
X151106908Y-75756079D01*
X151106905Y-75756087D01*
X151051478Y-75974960D01*
X151051476Y-75974967D01*
X151032830Y-76200000D01*
X151051476Y-76425032D01*
X151051478Y-76425039D01*
X151094287Y-76594085D01*
X151106907Y-76643919D01*
X151133295Y-76704077D01*
X151197606Y-76850695D01*
X151197608Y-76850697D01*
X151197610Y-76850701D01*
X151209465Y-76868846D01*
X151321109Y-77039731D01*
X151321112Y-77039735D01*
X151474033Y-77205852D01*
X151474037Y-77205855D01*
X151474041Y-77205860D01*
X151474044Y-77205862D01*
X151474046Y-77205864D01*
X151560951Y-77273505D01*
X151624504Y-77346989D01*
X151655099Y-77439201D01*
X151648077Y-77536102D01*
X151604506Y-77622940D01*
X151560951Y-77666495D01*
X151474046Y-77734135D01*
X151474033Y-77734147D01*
X151321112Y-77900264D01*
X151321109Y-77900268D01*
X151197608Y-78089302D01*
X151197606Y-78089304D01*
X151106908Y-78296079D01*
X151106905Y-78296087D01*
X151051478Y-78514960D01*
X151051476Y-78514967D01*
X151032830Y-78740000D01*
X151051476Y-78965032D01*
X151051478Y-78965039D01*
X151093013Y-79129054D01*
X151106907Y-79183919D01*
X151118024Y-79209263D01*
X151197606Y-79390695D01*
X151197608Y-79390697D01*
X151197610Y-79390701D01*
X151251509Y-79473199D01*
X151321109Y-79579731D01*
X151321112Y-79579735D01*
X151474033Y-79745852D01*
X151474037Y-79745855D01*
X151474041Y-79745860D01*
X151474044Y-79745862D01*
X151474046Y-79745864D01*
X151560951Y-79813505D01*
X151624504Y-79886989D01*
X151655099Y-79979201D01*
X151648077Y-80076102D01*
X151604506Y-80162940D01*
X151560951Y-80206495D01*
X151474046Y-80274135D01*
X151474033Y-80274147D01*
X151321112Y-80440264D01*
X151321109Y-80440268D01*
X151197608Y-80629302D01*
X151197606Y-80629304D01*
X151106908Y-80836079D01*
X151106905Y-80836087D01*
X151051478Y-81054960D01*
X151051476Y-81054967D01*
X151032830Y-81280000D01*
X151051476Y-81505032D01*
X151051478Y-81505039D01*
X151058090Y-81531148D01*
X151106907Y-81723919D01*
X151129799Y-81776108D01*
X151197606Y-81930695D01*
X151197608Y-81930697D01*
X151197610Y-81930701D01*
X151248673Y-82008858D01*
X151321109Y-82119731D01*
X151321112Y-82119735D01*
X151474033Y-82285852D01*
X151474037Y-82285855D01*
X151474041Y-82285860D01*
X151474044Y-82285862D01*
X151474046Y-82285864D01*
X151560951Y-82353505D01*
X151624504Y-82426989D01*
X151655099Y-82519201D01*
X151648077Y-82616102D01*
X151604506Y-82702940D01*
X151560951Y-82746495D01*
X151474046Y-82814135D01*
X151474033Y-82814147D01*
X151321112Y-82980264D01*
X151321109Y-82980268D01*
X151197608Y-83169302D01*
X151197606Y-83169304D01*
X151106908Y-83376079D01*
X151106905Y-83376087D01*
X151051478Y-83594960D01*
X151051476Y-83594967D01*
X151032830Y-83820000D01*
X151051476Y-84045032D01*
X151051478Y-84045039D01*
X151106905Y-84263912D01*
X151106907Y-84263919D01*
X151112338Y-84276300D01*
X151197606Y-84470695D01*
X151197608Y-84470697D01*
X151197610Y-84470701D01*
X151209465Y-84488846D01*
X151321109Y-84659731D01*
X151321112Y-84659735D01*
X151474033Y-84825852D01*
X151474037Y-84825855D01*
X151474041Y-84825860D01*
X151474045Y-84825863D01*
X151474046Y-84825864D01*
X151560951Y-84893505D01*
X151624504Y-84966989D01*
X151655099Y-85059201D01*
X151648077Y-85156102D01*
X151604506Y-85242940D01*
X151560951Y-85286495D01*
X151474046Y-85354135D01*
X151474033Y-85354147D01*
X151321112Y-85520264D01*
X151321109Y-85520268D01*
X151197608Y-85709302D01*
X151197606Y-85709304D01*
X151106908Y-85916079D01*
X151106905Y-85916087D01*
X151051478Y-86134960D01*
X151051476Y-86134967D01*
X151032830Y-86360000D01*
X151051476Y-86585032D01*
X151051478Y-86585039D01*
X151105201Y-86797184D01*
X151106907Y-86803919D01*
X151122308Y-86839029D01*
X151197606Y-87010695D01*
X151197608Y-87010697D01*
X151197610Y-87010701D01*
X151228455Y-87057912D01*
X151321109Y-87199731D01*
X151321112Y-87199735D01*
X151474033Y-87365852D01*
X151474037Y-87365855D01*
X151474041Y-87365860D01*
X151474045Y-87365863D01*
X151474046Y-87365864D01*
X151560951Y-87433505D01*
X151624504Y-87506989D01*
X151655099Y-87599201D01*
X151648077Y-87696102D01*
X151604506Y-87782940D01*
X151560951Y-87826495D01*
X151474046Y-87894135D01*
X151474033Y-87894147D01*
X151321112Y-88060264D01*
X151321109Y-88060268D01*
X151197608Y-88249302D01*
X151197606Y-88249304D01*
X151106908Y-88456079D01*
X151106905Y-88456087D01*
X151051478Y-88674960D01*
X151051476Y-88674967D01*
X151032830Y-88899999D01*
X151051476Y-89125032D01*
X151051478Y-89125039D01*
X151105592Y-89338727D01*
X151106907Y-89343919D01*
X151121964Y-89378246D01*
X151197606Y-89550695D01*
X151197608Y-89550697D01*
X151197610Y-89550701D01*
X151226900Y-89595532D01*
X151321109Y-89739731D01*
X151321112Y-89739735D01*
X151474033Y-89905852D01*
X151474037Y-89905855D01*
X151474041Y-89905860D01*
X151474045Y-89905863D01*
X151474046Y-89905864D01*
X151560951Y-89973505D01*
X151624504Y-90046989D01*
X151655099Y-90139201D01*
X151648077Y-90236102D01*
X151604506Y-90322940D01*
X151560951Y-90366495D01*
X151474046Y-90434135D01*
X151474033Y-90434147D01*
X151321112Y-90600264D01*
X151321109Y-90600268D01*
X151197608Y-90789302D01*
X151197606Y-90789304D01*
X151106908Y-90996079D01*
X151106905Y-90996087D01*
X151051478Y-91214960D01*
X151051476Y-91214967D01*
X151032830Y-91439999D01*
X151051476Y-91665032D01*
X151051478Y-91665039D01*
X151066149Y-91722971D01*
X151106907Y-91883919D01*
X151125029Y-91925233D01*
X151197606Y-92090695D01*
X151197608Y-92090697D01*
X151197610Y-92090701D01*
X151201243Y-92096261D01*
X151321109Y-92279731D01*
X151321112Y-92279735D01*
X151474033Y-92445852D01*
X151474037Y-92445855D01*
X151474041Y-92445860D01*
X151474045Y-92445863D01*
X151474046Y-92445864D01*
X151560951Y-92513505D01*
X151624504Y-92586989D01*
X151655099Y-92679201D01*
X151648077Y-92776102D01*
X151604506Y-92862940D01*
X151560951Y-92906495D01*
X151474046Y-92974135D01*
X151474033Y-92974147D01*
X151321112Y-93140264D01*
X151321109Y-93140268D01*
X151197608Y-93329302D01*
X151197606Y-93329304D01*
X151106908Y-93536079D01*
X151106905Y-93536087D01*
X151051478Y-93754960D01*
X151051476Y-93754967D01*
X151032830Y-93979999D01*
X151051476Y-94205032D01*
X151051478Y-94205039D01*
X151063366Y-94251982D01*
X151106907Y-94423919D01*
X151111050Y-94433363D01*
X151197606Y-94630695D01*
X151197608Y-94630697D01*
X151197610Y-94630701D01*
X151222959Y-94669500D01*
X151321109Y-94819731D01*
X151321112Y-94819735D01*
X151474033Y-94985852D01*
X151474037Y-94985855D01*
X151474041Y-94985860D01*
X151474045Y-94985863D01*
X151474046Y-94985864D01*
X151560951Y-95053505D01*
X151624504Y-95126989D01*
X151655099Y-95219201D01*
X151648077Y-95316102D01*
X151604506Y-95402940D01*
X151560951Y-95446495D01*
X151474046Y-95514135D01*
X151474032Y-95514148D01*
X151390447Y-95604946D01*
X151311965Y-95662214D01*
X151217542Y-95685089D01*
X151121552Y-95670089D01*
X151038609Y-95619496D01*
X150996739Y-95564884D01*
X150995398Y-95565769D01*
X150970005Y-95527240D01*
X150956662Y-95506994D01*
X150951769Y-95498917D01*
X150944090Y-95485083D01*
X150923734Y-95448408D01*
X150904414Y-95425903D01*
X150894915Y-95413305D01*
X150888084Y-95402940D01*
X150880578Y-95391550D01*
X150878604Y-95388554D01*
X150878602Y-95388552D01*
X150878601Y-95388550D01*
X150837762Y-95347711D01*
X150831340Y-95340782D01*
X150793709Y-95296947D01*
X150770253Y-95278791D01*
X150758419Y-95268367D01*
X147479825Y-91989775D01*
X147425849Y-91908993D01*
X147407746Y-91834270D01*
X147398524Y-91722971D01*
X147343093Y-91504081D01*
X147281312Y-91363234D01*
X147252393Y-91297304D01*
X147252391Y-91297302D01*
X147252390Y-91297299D01*
X147128889Y-91108267D01*
X147128887Y-91108264D01*
X146975966Y-90942147D01*
X146975963Y-90942145D01*
X146975959Y-90942140D01*
X146819085Y-90820040D01*
X146797777Y-90803455D01*
X146797774Y-90803453D01*
X146797771Y-90803451D01*
X146665380Y-90731805D01*
X146599183Y-90695980D01*
X146385620Y-90622665D01*
X146385616Y-90622664D01*
X146162897Y-90585499D01*
X146158619Y-90585145D01*
X146155615Y-90584284D01*
X146152742Y-90583805D01*
X146152796Y-90583476D01*
X146065222Y-90558385D01*
X146003117Y-90513066D01*
X142024430Y-86534378D01*
X141970454Y-86453596D01*
X141951500Y-86358308D01*
X141951500Y-84918791D01*
X141970454Y-84823503D01*
X142017304Y-84750149D01*
X142078979Y-84683153D01*
X142094282Y-84659731D01*
X142118043Y-84623360D01*
X142205924Y-84488849D01*
X142299157Y-84276300D01*
X142356134Y-84051305D01*
X142375300Y-83820000D01*
X142356134Y-83588695D01*
X142299157Y-83363700D01*
X142213886Y-83169302D01*
X142205925Y-83151153D01*
X142078981Y-82956849D01*
X142017303Y-82889848D01*
X141966712Y-82806904D01*
X141951500Y-82721206D01*
X141951500Y-77298791D01*
X141970454Y-77203503D01*
X142017304Y-77130149D01*
X142078979Y-77063153D01*
X142094282Y-77039731D01*
X142135158Y-76977165D01*
X142205924Y-76868849D01*
X142299157Y-76656300D01*
X142356134Y-76431305D01*
X142375300Y-76200000D01*
X142356134Y-75968695D01*
X142299157Y-75743700D01*
X142213886Y-75549302D01*
X142205925Y-75531153D01*
X142198606Y-75519951D01*
X142155016Y-75453230D01*
X142078981Y-75336849D01*
X142017303Y-75269848D01*
X141966712Y-75186904D01*
X141951500Y-75101206D01*
X141951500Y-69678791D01*
X141970454Y-69583503D01*
X142017304Y-69510149D01*
X142078979Y-69443153D01*
X142080393Y-69440990D01*
X142132708Y-69360915D01*
X142205924Y-69248849D01*
X142299157Y-69036300D01*
X142356134Y-68811305D01*
X142375300Y-68580000D01*
X142356134Y-68348695D01*
X142299157Y-68123700D01*
X142213886Y-67929302D01*
X142205925Y-67911153D01*
X142195231Y-67894785D01*
X142113880Y-67770267D01*
X142078981Y-67716849D01*
X142017303Y-67649848D01*
X141966712Y-67566904D01*
X141951500Y-67481206D01*
X141951500Y-62058791D01*
X141970454Y-61963503D01*
X142017304Y-61890149D01*
X142078979Y-61823153D01*
X142085720Y-61812836D01*
X142146115Y-61720393D01*
X142205924Y-61628849D01*
X142299157Y-61416300D01*
X142356134Y-61191305D01*
X142375300Y-60960000D01*
X142356134Y-60728695D01*
X142299157Y-60503700D01*
X142213886Y-60309302D01*
X142205925Y-60291153D01*
X142078980Y-60096848D01*
X142078977Y-60096844D01*
X141921785Y-59926088D01*
X141921779Y-59926083D01*
X141738628Y-59783531D01*
X141534512Y-59673068D01*
X141534507Y-59673066D01*
X141534503Y-59673064D01*
X141314981Y-59597702D01*
X141314978Y-59597701D01*
X141314974Y-59597700D01*
X141086049Y-59559500D01*
X141060691Y-59559500D01*
X140965403Y-59540546D01*
X140884621Y-59486570D01*
X137608835Y-56210785D01*
X137548617Y-56147436D01*
X137501206Y-56114436D01*
X137493650Y-56108739D01*
X137466083Y-56086262D01*
X137448898Y-56072249D01*
X137447292Y-56071410D01*
X137422608Y-56058515D01*
X137409127Y-56050349D01*
X137384780Y-56033403D01*
X137357155Y-56021548D01*
X137331698Y-56010623D01*
X137323150Y-56006563D01*
X137271967Y-55979827D01*
X137271966Y-55979826D01*
X137271965Y-55979826D01*
X137243449Y-55971666D01*
X137228596Y-55966378D01*
X137213754Y-55960009D01*
X137201343Y-55954683D01*
X137201341Y-55954682D01*
X137201340Y-55954682D01*
X137182169Y-55950742D01*
X137144774Y-55943057D01*
X137135586Y-55940802D01*
X137080048Y-55924911D01*
X137080040Y-55924910D01*
X137050469Y-55922657D01*
X137034857Y-55920468D01*
X137010969Y-55915560D01*
X137005809Y-55914500D01*
X137005808Y-55914500D01*
X136948063Y-55914500D01*
X136938605Y-55914140D01*
X136881009Y-55909754D01*
X136881008Y-55909754D01*
X136851577Y-55913502D01*
X136835838Y-55914500D01*
X129552431Y-55914500D01*
X129465093Y-55912286D01*
X129465089Y-55912287D01*
X129465088Y-55912287D01*
X129465087Y-55912287D01*
X129429186Y-55918720D01*
X129408244Y-55922474D01*
X129398878Y-55923787D01*
X129395687Y-55924112D01*
X129341406Y-55929632D01*
X129313093Y-55938514D01*
X129297783Y-55942272D01*
X129268602Y-55947503D01*
X129268598Y-55947504D01*
X129214971Y-55968923D01*
X129206064Y-55972095D01*
X129150940Y-55989391D01*
X129150940Y-55989392D01*
X129125014Y-56003781D01*
X129110767Y-56010547D01*
X129083227Y-56021548D01*
X129034990Y-56053337D01*
X129026902Y-56058237D01*
X128976414Y-56086262D01*
X128976400Y-56086271D01*
X128953899Y-56105587D01*
X128941309Y-56115080D01*
X128916549Y-56131398D01*
X128875707Y-56172240D01*
X128868769Y-56178670D01*
X128824946Y-56216290D01*
X128806791Y-56239745D01*
X128796366Y-56251581D01*
X127682381Y-57365569D01*
X127601599Y-57419546D01*
X127506311Y-57438500D01*
X125933279Y-57438500D01*
X125837991Y-57419546D01*
X125757209Y-57365570D01*
X125735734Y-57341081D01*
X125650286Y-57229723D01*
X125650285Y-57229722D01*
X125650282Y-57229718D01*
X125650277Y-57229714D01*
X125650276Y-57229713D01*
X125524844Y-57133466D01*
X125524843Y-57133465D01*
X125524841Y-57133464D01*
X125378762Y-57072956D01*
X125378760Y-57072955D01*
X125261362Y-57057500D01*
X123658639Y-57057500D01*
X123658637Y-57057501D01*
X123541238Y-57072955D01*
X123432475Y-57118006D01*
X123395159Y-57133464D01*
X123395158Y-57133464D01*
X123395155Y-57133466D01*
X123269723Y-57229713D01*
X123269713Y-57229723D01*
X123173466Y-57355155D01*
X123173464Y-57355158D01*
X123173464Y-57355159D01*
X123169895Y-57363776D01*
X123112955Y-57501239D01*
X123097500Y-57618637D01*
X123097500Y-59221360D01*
X123097501Y-59221362D01*
X123112955Y-59338761D01*
X123127655Y-59374248D01*
X123173464Y-59484841D01*
X123173465Y-59484843D01*
X123173466Y-59484844D01*
X123266183Y-59605676D01*
X123269718Y-59610282D01*
X123269722Y-59610285D01*
X123269723Y-59610286D01*
X123394047Y-59705683D01*
X123458106Y-59778728D01*
X123489336Y-59870727D01*
X123482982Y-59967674D01*
X123440011Y-60054809D01*
X123425663Y-60071870D01*
X123381108Y-60120269D01*
X123257608Y-60309302D01*
X123257606Y-60309304D01*
X123166908Y-60516079D01*
X123166905Y-60516087D01*
X123111478Y-60734960D01*
X123111476Y-60734967D01*
X123092830Y-60959999D01*
X123111476Y-61185032D01*
X123111478Y-61185039D01*
X123136580Y-61284162D01*
X123166907Y-61403919D01*
X123172338Y-61416300D01*
X123257606Y-61610695D01*
X123257608Y-61610697D01*
X123257610Y-61610701D01*
X123276562Y-61639709D01*
X123381109Y-61799731D01*
X123381112Y-61799735D01*
X123534033Y-61965852D01*
X123534035Y-61965854D01*
X123534041Y-61965860D01*
X123596444Y-62014430D01*
X123620949Y-62033503D01*
X123684503Y-62106988D01*
X123715098Y-62199200D01*
X123708076Y-62296101D01*
X123664506Y-62382938D01*
X123620953Y-62426492D01*
X123570204Y-62465993D01*
X123483367Y-62509565D01*
X123417261Y-62518500D01*
X117857691Y-62518500D01*
X117762403Y-62499546D01*
X117681621Y-62445570D01*
X114748834Y-59512783D01*
X114722276Y-59484844D01*
X114688619Y-59449438D01*
X114688618Y-59449437D01*
X114641206Y-59416437D01*
X114633661Y-59410749D01*
X114588898Y-59374249D01*
X114577887Y-59368497D01*
X114562608Y-59360515D01*
X114549127Y-59352349D01*
X114524780Y-59335403D01*
X114497162Y-59323551D01*
X114471698Y-59312623D01*
X114463150Y-59308563D01*
X114411967Y-59281827D01*
X114411966Y-59281826D01*
X114411965Y-59281826D01*
X114383449Y-59273666D01*
X114368596Y-59268378D01*
X114349219Y-59260063D01*
X114341343Y-59256683D01*
X114341341Y-59256682D01*
X114341340Y-59256682D01*
X114322169Y-59252742D01*
X114284774Y-59245057D01*
X114275586Y-59242802D01*
X114220048Y-59226911D01*
X114220040Y-59226910D01*
X114190469Y-59224657D01*
X114174857Y-59222468D01*
X114150969Y-59217560D01*
X114145809Y-59216500D01*
X114145808Y-59216500D01*
X114088063Y-59216500D01*
X114078605Y-59216140D01*
X114021009Y-59211754D01*
X114021008Y-59211754D01*
X113991577Y-59215502D01*
X113975838Y-59216500D01*
X103136453Y-59216500D01*
X103049089Y-59214286D01*
X103049082Y-59214286D01*
X102992221Y-59224477D01*
X102982853Y-59225791D01*
X102925412Y-59231632D01*
X102925403Y-59231633D01*
X102897107Y-59240511D01*
X102881791Y-59244270D01*
X102852609Y-59249500D01*
X102852591Y-59249505D01*
X102798968Y-59270924D01*
X102790060Y-59274096D01*
X102734944Y-59291389D01*
X102734941Y-59291391D01*
X102709007Y-59305785D01*
X102694764Y-59312549D01*
X102667227Y-59323549D01*
X102618997Y-59355333D01*
X102610909Y-59360233D01*
X102560405Y-59388267D01*
X102537902Y-59407585D01*
X102525311Y-59417079D01*
X102500550Y-59433398D01*
X102459707Y-59474240D01*
X102452769Y-59480670D01*
X102408946Y-59518290D01*
X102390791Y-59541745D01*
X102380366Y-59553581D01*
X101422784Y-60511165D01*
X101359436Y-60571382D01*
X101326443Y-60618785D01*
X101320747Y-60626340D01*
X101284252Y-60671097D01*
X101284247Y-60671104D01*
X101270516Y-60697390D01*
X101262347Y-60710873D01*
X101245407Y-60735212D01*
X101245401Y-60735222D01*
X101222628Y-60788291D01*
X101218569Y-60796836D01*
X101191827Y-60848031D01*
X101191824Y-60848040D01*
X101183665Y-60876551D01*
X101178377Y-60891404D01*
X101166684Y-60918652D01*
X101166683Y-60918655D01*
X101155056Y-60975230D01*
X101152801Y-60984418D01*
X101136912Y-61039951D01*
X101136910Y-61039962D01*
X101134657Y-61069532D01*
X101132468Y-61085144D01*
X101126500Y-61114189D01*
X101126499Y-61114191D01*
X101126499Y-61171942D01*
X101126139Y-61181396D01*
X101121753Y-61238988D01*
X101121754Y-61238993D01*
X101125501Y-61268417D01*
X101126500Y-61284162D01*
X101126500Y-64312309D01*
X101107546Y-64407597D01*
X101053570Y-64488379D01*
X98632705Y-66909243D01*
X98551923Y-66963219D01*
X98456635Y-66982173D01*
X98437100Y-66981405D01*
X98350007Y-66974551D01*
X98349995Y-66974551D01*
X98098854Y-66994316D01*
X97853891Y-67053126D01*
X97853883Y-67053129D01*
X97621141Y-67149533D01*
X97621135Y-67149537D01*
X97406347Y-67281158D01*
X97406345Y-67281160D01*
X97214779Y-67444773D01*
X97214767Y-67444785D01*
X97158034Y-67511212D01*
X97081737Y-67571361D01*
X96988229Y-67597732D01*
X96968693Y-67598500D01*
X93231307Y-67598500D01*
X93136019Y-67579546D01*
X93055237Y-67525570D01*
X93041966Y-67511212D01*
X92985232Y-67444785D01*
X92985229Y-67444782D01*
X92985224Y-67444776D01*
X92793659Y-67281164D01*
X92793657Y-67281163D01*
X92793654Y-67281160D01*
X92793652Y-67281158D01*
X92578864Y-67149537D01*
X92578858Y-67149533D01*
X92346116Y-67053129D01*
X92346108Y-67053126D01*
X92101145Y-66994316D01*
X91850005Y-66974551D01*
X91849995Y-66974551D01*
X91598854Y-66994316D01*
X91353891Y-67053126D01*
X91353883Y-67053129D01*
X91121141Y-67149533D01*
X91121135Y-67149537D01*
X90906347Y-67281158D01*
X90906345Y-67281160D01*
X90714779Y-67444773D01*
X90714773Y-67444779D01*
X90551160Y-67636345D01*
X90551158Y-67636347D01*
X90419537Y-67851135D01*
X90419533Y-67851141D01*
X90323129Y-68083883D01*
X90323126Y-68083891D01*
X90264316Y-68328854D01*
X90244551Y-68579994D01*
X90244551Y-68580005D01*
X90264316Y-68831145D01*
X90323126Y-69076108D01*
X90323129Y-69076116D01*
X90419533Y-69308858D01*
X90419537Y-69308864D01*
X90551158Y-69523652D01*
X90551160Y-69523654D01*
X90551163Y-69523657D01*
X90551164Y-69523659D01*
X90714776Y-69715224D01*
X90892408Y-69866936D01*
X90906345Y-69878839D01*
X90906347Y-69878841D01*
X91060017Y-69973009D01*
X91121141Y-70010466D01*
X91353889Y-70106873D01*
X91598852Y-70165683D01*
X91670608Y-70171330D01*
X91849995Y-70185449D01*
X91850000Y-70185449D01*
X91850005Y-70185449D01*
X92006967Y-70173095D01*
X92101148Y-70165683D01*
X92346111Y-70106873D01*
X92578859Y-70010466D01*
X92735316Y-69914589D01*
X92793652Y-69878841D01*
X92793654Y-69878839D01*
X92793653Y-69878839D01*
X92793659Y-69878836D01*
X92985224Y-69715224D01*
X93041965Y-69648788D01*
X93118263Y-69588639D01*
X93211771Y-69562268D01*
X93231307Y-69561500D01*
X96968693Y-69561500D01*
X97063981Y-69580454D01*
X97144763Y-69634430D01*
X97158034Y-69648788D01*
X97213243Y-69713430D01*
X97214776Y-69715224D01*
X97392408Y-69866936D01*
X97406345Y-69878839D01*
X97406347Y-69878841D01*
X97560017Y-69973009D01*
X97621141Y-70010466D01*
X97853889Y-70106873D01*
X98098852Y-70165683D01*
X98170608Y-70171330D01*
X98349995Y-70185449D01*
X98350000Y-70185449D01*
X98350005Y-70185449D01*
X98506967Y-70173095D01*
X98601148Y-70165683D01*
X98846111Y-70106873D01*
X99078859Y-70010466D01*
X99235316Y-69914589D01*
X99293652Y-69878841D01*
X99293654Y-69878839D01*
X99293653Y-69878839D01*
X99293659Y-69878836D01*
X99485224Y-69715224D01*
X99648836Y-69523659D01*
X99648839Y-69523653D01*
X99648841Y-69523652D01*
X99730904Y-69389736D01*
X99780466Y-69308859D01*
X99876873Y-69076111D01*
X99935683Y-68831148D01*
X99955449Y-68580000D01*
X99954195Y-68564070D01*
X99948594Y-68492901D01*
X99960013Y-68396419D01*
X100007484Y-68311651D01*
X100020743Y-68297306D01*
X102068206Y-66249844D01*
X102793234Y-65524817D01*
X102856560Y-65464621D01*
X102856560Y-65464620D01*
X102856562Y-65464619D01*
X102889572Y-65417190D01*
X102895231Y-65409685D01*
X102931751Y-65364898D01*
X102945484Y-65338604D01*
X102953654Y-65325119D01*
X102970597Y-65300780D01*
X102993377Y-65247692D01*
X102997416Y-65239188D01*
X103024175Y-65187964D01*
X103032336Y-65159441D01*
X103037621Y-65144595D01*
X103049318Y-65117340D01*
X103050226Y-65112924D01*
X103059770Y-65066474D01*
X103060943Y-65060761D01*
X103063194Y-65051589D01*
X103079088Y-64996048D01*
X103081340Y-64966472D01*
X103083531Y-64950853D01*
X103083731Y-64949881D01*
X103089500Y-64921809D01*
X103089500Y-64864061D01*
X103089860Y-64854603D01*
X103090921Y-64840665D01*
X103094246Y-64797008D01*
X103090497Y-64767577D01*
X103089500Y-64751838D01*
X103089500Y-64079999D01*
X103754859Y-64079999D01*
X103775387Y-64327741D01*
X103775389Y-64327748D01*
X103836410Y-64568714D01*
X103836413Y-64568722D01*
X103936266Y-64796364D01*
X104036564Y-64949882D01*
X104517939Y-64468507D01*
X104598721Y-64414530D01*
X104694009Y-64395576D01*
X104789297Y-64414530D01*
X104870078Y-64468506D01*
X104875946Y-64474577D01*
X104877321Y-64476049D01*
X104928522Y-64558614D01*
X104944230Y-64654491D01*
X104922052Y-64749080D01*
X104871444Y-64822106D01*
X104389941Y-65303610D01*
X104436766Y-65340054D01*
X104436770Y-65340057D01*
X104655388Y-65458366D01*
X104655390Y-65458367D01*
X104890509Y-65539083D01*
X104890512Y-65539084D01*
X105135706Y-65580000D01*
X105384294Y-65580000D01*
X105629487Y-65539084D01*
X105629490Y-65539083D01*
X105864607Y-65458368D01*
X106083230Y-65340055D01*
X106083238Y-65340050D01*
X106130056Y-65303610D01*
X105651106Y-64824660D01*
X105597130Y-64743878D01*
X105578176Y-64648590D01*
X105597130Y-64553302D01*
X105651106Y-64472520D01*
X105670060Y-64455417D01*
X105671619Y-64454149D01*
X105757503Y-64408728D01*
X105854231Y-64399631D01*
X105947078Y-64428242D01*
X106004804Y-64471252D01*
X106483434Y-64949881D01*
X106483435Y-64949881D01*
X106583731Y-64796368D01*
X106683586Y-64568722D01*
X106683589Y-64568714D01*
X106744610Y-64327748D01*
X106744612Y-64327741D01*
X106765140Y-64079999D01*
X110254859Y-64079999D01*
X110275387Y-64327741D01*
X110275389Y-64327748D01*
X110336410Y-64568714D01*
X110336413Y-64568722D01*
X110436266Y-64796364D01*
X110536564Y-64949882D01*
X111017939Y-64468507D01*
X111098721Y-64414530D01*
X111194009Y-64395576D01*
X111289297Y-64414530D01*
X111370078Y-64468506D01*
X111375946Y-64474577D01*
X111377321Y-64476049D01*
X111428522Y-64558614D01*
X111444230Y-64654491D01*
X111422052Y-64749080D01*
X111371444Y-64822106D01*
X110889941Y-65303610D01*
X110936766Y-65340054D01*
X110936770Y-65340057D01*
X111155388Y-65458366D01*
X111155390Y-65458367D01*
X111390509Y-65539083D01*
X111390512Y-65539084D01*
X111635706Y-65580000D01*
X111884294Y-65580000D01*
X112129487Y-65539084D01*
X112129490Y-65539083D01*
X112364607Y-65458368D01*
X112583230Y-65340055D01*
X112583238Y-65340050D01*
X112630056Y-65303610D01*
X112151106Y-64824660D01*
X112097130Y-64743878D01*
X112078176Y-64648590D01*
X112097130Y-64553302D01*
X112151106Y-64472520D01*
X112170060Y-64455417D01*
X112171619Y-64454149D01*
X112257503Y-64408728D01*
X112354231Y-64399631D01*
X112447078Y-64428242D01*
X112504804Y-64471252D01*
X112983434Y-64949881D01*
X112983435Y-64949881D01*
X113083731Y-64796368D01*
X113183586Y-64568722D01*
X113183589Y-64568714D01*
X113244610Y-64327748D01*
X113244612Y-64327741D01*
X113265140Y-64079999D01*
X113244612Y-63832258D01*
X113244610Y-63832251D01*
X113183589Y-63591285D01*
X113183586Y-63591277D01*
X113083730Y-63363628D01*
X112983436Y-63210117D01*
X112983434Y-63210117D01*
X112502058Y-63691492D01*
X112421277Y-63745468D01*
X112325989Y-63764422D01*
X112230700Y-63745468D01*
X112149919Y-63691491D01*
X112143999Y-63685365D01*
X112142619Y-63683887D01*
X112091446Y-63601303D01*
X112075770Y-63505421D01*
X112097981Y-63410839D01*
X112148555Y-63337890D01*
X112630057Y-62856388D01*
X112583241Y-62819951D01*
X112583230Y-62819944D01*
X112364607Y-62701631D01*
X112129490Y-62620916D01*
X112129487Y-62620915D01*
X111884294Y-62580000D01*
X111635706Y-62580000D01*
X111390512Y-62620915D01*
X111390509Y-62620916D01*
X111155392Y-62701631D01*
X110936768Y-62819944D01*
X110936758Y-62819951D01*
X110889941Y-62856388D01*
X111368893Y-63335340D01*
X111422869Y-63416122D01*
X111441823Y-63511410D01*
X111422869Y-63606698D01*
X111368893Y-63687480D01*
X111349864Y-63704643D01*
X111348305Y-63705910D01*
X111262404Y-63751298D01*
X111165672Y-63760358D01*
X111072837Y-63731711D01*
X111015195Y-63688747D01*
X110536564Y-63210117D01*
X110436268Y-63363630D01*
X110436268Y-63363631D01*
X110336413Y-63591277D01*
X110336410Y-63591285D01*
X110275389Y-63832251D01*
X110275387Y-63832258D01*
X110254859Y-64079999D01*
X106765140Y-64079999D01*
X106744612Y-63832258D01*
X106744610Y-63832251D01*
X106683589Y-63591285D01*
X106683586Y-63591277D01*
X106583730Y-63363628D01*
X106483436Y-63210117D01*
X106483434Y-63210117D01*
X106002058Y-63691492D01*
X105921277Y-63745468D01*
X105825989Y-63764422D01*
X105730700Y-63745468D01*
X105649919Y-63691491D01*
X105643999Y-63685365D01*
X105642619Y-63683887D01*
X105591446Y-63601303D01*
X105575770Y-63505421D01*
X105597981Y-63410839D01*
X105648555Y-63337890D01*
X106130057Y-62856388D01*
X106083241Y-62819951D01*
X106083230Y-62819944D01*
X105864607Y-62701631D01*
X105629490Y-62620916D01*
X105629487Y-62620915D01*
X105384294Y-62580000D01*
X105135706Y-62580000D01*
X104890512Y-62620915D01*
X104890509Y-62620916D01*
X104655392Y-62701631D01*
X104436768Y-62819944D01*
X104436758Y-62819951D01*
X104389941Y-62856388D01*
X104868893Y-63335340D01*
X104922869Y-63416122D01*
X104941823Y-63511410D01*
X104922869Y-63606698D01*
X104868893Y-63687480D01*
X104849864Y-63704643D01*
X104848305Y-63705910D01*
X104762404Y-63751298D01*
X104665672Y-63760358D01*
X104572837Y-63731711D01*
X104515195Y-63688747D01*
X104036564Y-63210117D01*
X103936268Y-63363630D01*
X103936268Y-63363631D01*
X103836413Y-63591277D01*
X103836410Y-63591285D01*
X103775389Y-63832251D01*
X103775387Y-63832258D01*
X103754859Y-64079999D01*
X103089500Y-64079999D01*
X103089500Y-61723689D01*
X103108454Y-61628401D01*
X103162427Y-61547622D01*
X103162431Y-61547619D01*
X103457621Y-61252430D01*
X103538402Y-61198454D01*
X103633690Y-61179500D01*
X113536309Y-61179500D01*
X113631597Y-61198454D01*
X113712379Y-61252430D01*
X116645165Y-64185216D01*
X116681803Y-64223759D01*
X116705381Y-64248562D01*
X116752786Y-64281556D01*
X116760337Y-64287250D01*
X116805094Y-64323745D01*
X116805097Y-64323747D01*
X116805102Y-64323751D01*
X116831397Y-64337486D01*
X116844873Y-64345651D01*
X116869220Y-64362597D01*
X116896834Y-64374447D01*
X116922289Y-64385371D01*
X116930839Y-64389431D01*
X116982035Y-64416174D01*
X117010551Y-64424333D01*
X117025404Y-64429621D01*
X117052660Y-64441318D01*
X117052663Y-64441318D01*
X117052664Y-64441319D01*
X117084912Y-64447945D01*
X117109232Y-64452942D01*
X117118409Y-64455194D01*
X117173951Y-64471088D01*
X117203523Y-64473339D01*
X117219132Y-64475528D01*
X117248191Y-64481500D01*
X117305937Y-64481500D01*
X117315395Y-64481860D01*
X117331120Y-64483057D01*
X117372992Y-64486246D01*
X117402422Y-64482497D01*
X117418162Y-64481500D01*
X123417261Y-64481500D01*
X123512549Y-64500454D01*
X123570201Y-64534005D01*
X123620950Y-64573505D01*
X123684504Y-64646990D01*
X123715098Y-64739202D01*
X123708075Y-64836103D01*
X123664505Y-64922940D01*
X123620950Y-64966495D01*
X123570201Y-65005995D01*
X123483364Y-65049565D01*
X123417261Y-65058500D01*
X117360431Y-65058500D01*
X117273093Y-65056286D01*
X117273089Y-65056287D01*
X117273088Y-65056287D01*
X117273087Y-65056287D01*
X117237186Y-65062720D01*
X117216244Y-65066474D01*
X117206878Y-65067787D01*
X117206847Y-65067791D01*
X117149406Y-65073632D01*
X117121093Y-65082514D01*
X117105783Y-65086272D01*
X117076602Y-65091503D01*
X117076598Y-65091504D01*
X117022971Y-65112923D01*
X117014064Y-65116095D01*
X116958940Y-65133391D01*
X116958940Y-65133392D01*
X116933014Y-65147781D01*
X116918767Y-65154547D01*
X116891227Y-65165548D01*
X116842990Y-65197337D01*
X116834902Y-65202237D01*
X116784414Y-65230262D01*
X116784400Y-65230271D01*
X116761899Y-65249587D01*
X116749309Y-65259080D01*
X116724549Y-65275398D01*
X116683707Y-65316240D01*
X116676769Y-65322670D01*
X116632946Y-65360290D01*
X116614794Y-65383741D01*
X116604369Y-65395577D01*
X114474380Y-67525569D01*
X114393598Y-67579546D01*
X114298310Y-67598500D01*
X113141307Y-67598500D01*
X113046019Y-67579546D01*
X112965237Y-67525570D01*
X112951966Y-67511212D01*
X112895232Y-67444785D01*
X112895229Y-67444782D01*
X112895224Y-67444776D01*
X112703659Y-67281164D01*
X112703657Y-67281163D01*
X112703654Y-67281160D01*
X112703652Y-67281158D01*
X112488864Y-67149537D01*
X112488858Y-67149533D01*
X112256116Y-67053129D01*
X112256108Y-67053126D01*
X112011145Y-66994316D01*
X111760005Y-66974551D01*
X111759995Y-66974551D01*
X111508854Y-66994316D01*
X111263891Y-67053126D01*
X111263883Y-67053129D01*
X111031141Y-67149533D01*
X111031135Y-67149537D01*
X110816347Y-67281158D01*
X110816345Y-67281160D01*
X110624779Y-67444773D01*
X110624767Y-67444785D01*
X110568034Y-67511212D01*
X110491737Y-67571361D01*
X110398229Y-67597732D01*
X110378693Y-67598500D01*
X106641307Y-67598500D01*
X106546019Y-67579546D01*
X106465237Y-67525570D01*
X106451966Y-67511212D01*
X106395232Y-67444785D01*
X106395229Y-67444782D01*
X106395224Y-67444776D01*
X106203659Y-67281164D01*
X106203657Y-67281163D01*
X106203654Y-67281160D01*
X106203652Y-67281158D01*
X105988864Y-67149537D01*
X105988858Y-67149533D01*
X105756116Y-67053129D01*
X105756108Y-67053126D01*
X105511145Y-66994316D01*
X105260005Y-66974551D01*
X105259995Y-66974551D01*
X105008854Y-66994316D01*
X104763891Y-67053126D01*
X104763883Y-67053129D01*
X104531141Y-67149533D01*
X104531135Y-67149537D01*
X104316347Y-67281158D01*
X104316345Y-67281160D01*
X104124779Y-67444773D01*
X104124773Y-67444779D01*
X103961160Y-67636345D01*
X103961158Y-67636347D01*
X103829537Y-67851135D01*
X103829533Y-67851141D01*
X103733129Y-68083883D01*
X103733126Y-68083891D01*
X103674316Y-68328854D01*
X103654551Y-68579994D01*
X103654551Y-68580005D01*
X103674316Y-68831145D01*
X103733126Y-69076108D01*
X103733129Y-69076116D01*
X103829533Y-69308858D01*
X103829537Y-69308864D01*
X103961158Y-69523652D01*
X103961160Y-69523654D01*
X103961163Y-69523657D01*
X103961164Y-69523659D01*
X104124776Y-69715224D01*
X104302408Y-69866936D01*
X104316345Y-69878839D01*
X104316347Y-69878841D01*
X104470017Y-69973009D01*
X104531141Y-70010466D01*
X104763889Y-70106873D01*
X105008852Y-70165683D01*
X105080608Y-70171330D01*
X105259995Y-70185449D01*
X105260000Y-70185449D01*
X105260005Y-70185449D01*
X105416967Y-70173095D01*
X105511148Y-70165683D01*
X105756111Y-70106873D01*
X105988859Y-70010466D01*
X106145316Y-69914589D01*
X106203652Y-69878841D01*
X106203654Y-69878839D01*
X106203653Y-69878839D01*
X106203659Y-69878836D01*
X106395224Y-69715224D01*
X106451965Y-69648788D01*
X106528263Y-69588639D01*
X106621771Y-69562268D01*
X106641307Y-69561500D01*
X110378693Y-69561500D01*
X110473981Y-69580454D01*
X110554763Y-69634430D01*
X110568034Y-69648788D01*
X110623243Y-69713430D01*
X110624776Y-69715224D01*
X110802408Y-69866936D01*
X110816345Y-69878839D01*
X110816347Y-69878841D01*
X110970017Y-69973009D01*
X111031141Y-70010466D01*
X111263889Y-70106873D01*
X111508852Y-70165683D01*
X111580608Y-70171330D01*
X111759995Y-70185449D01*
X111760000Y-70185449D01*
X111760005Y-70185449D01*
X111916967Y-70173095D01*
X112011148Y-70165683D01*
X112256111Y-70106873D01*
X112488859Y-70010466D01*
X112645316Y-69914589D01*
X112703652Y-69878841D01*
X112703654Y-69878839D01*
X112703653Y-69878839D01*
X112703659Y-69878836D01*
X112895224Y-69715224D01*
X112951965Y-69648788D01*
X113028263Y-69588639D01*
X113121771Y-69562268D01*
X113141307Y-69561500D01*
X114795546Y-69561500D01*
X114882912Y-69563714D01*
X114882912Y-69563713D01*
X114882913Y-69563714D01*
X114939791Y-69553518D01*
X114949118Y-69552210D01*
X115006593Y-69546367D01*
X115034885Y-69537489D01*
X115050210Y-69533728D01*
X115079400Y-69528497D01*
X115133057Y-69507063D01*
X115141913Y-69503910D01*
X115197057Y-69486609D01*
X115222999Y-69472209D01*
X115237235Y-69465449D01*
X115264775Y-69454449D01*
X115313001Y-69422664D01*
X115321074Y-69417773D01*
X115371592Y-69389734D01*
X115394094Y-69370414D01*
X115406680Y-69360924D01*
X115431450Y-69344601D01*
X115472292Y-69303758D01*
X115479222Y-69297335D01*
X115523053Y-69259709D01*
X115541205Y-69236256D01*
X115551631Y-69224419D01*
X117681621Y-67094430D01*
X117762403Y-67040454D01*
X117857691Y-67021500D01*
X123417261Y-67021500D01*
X123512549Y-67040454D01*
X123570201Y-67074005D01*
X123620950Y-67113505D01*
X123684504Y-67186990D01*
X123715098Y-67279202D01*
X123708075Y-67376103D01*
X123664505Y-67462940D01*
X123620950Y-67506495D01*
X123570201Y-67545995D01*
X123483364Y-67589565D01*
X123417261Y-67598500D01*
X119392453Y-67598500D01*
X119305089Y-67596286D01*
X119305082Y-67596286D01*
X119248221Y-67606477D01*
X119238853Y-67607791D01*
X119181412Y-67613632D01*
X119181403Y-67613633D01*
X119153107Y-67622511D01*
X119137791Y-67626270D01*
X119108609Y-67631500D01*
X119108591Y-67631505D01*
X119054968Y-67652924D01*
X119046060Y-67656096D01*
X118990944Y-67673389D01*
X118990941Y-67673391D01*
X118965007Y-67687785D01*
X118950764Y-67694549D01*
X118923227Y-67705549D01*
X118874997Y-67737333D01*
X118866909Y-67742233D01*
X118816405Y-67770267D01*
X118793902Y-67789585D01*
X118781311Y-67799079D01*
X118756550Y-67815398D01*
X118715707Y-67856240D01*
X118708769Y-67862670D01*
X118664946Y-67900290D01*
X118646794Y-67923741D01*
X118636369Y-67935577D01*
X113966380Y-72605570D01*
X113885598Y-72659546D01*
X113790310Y-72678500D01*
X103898453Y-72678500D01*
X103811089Y-72676286D01*
X103811082Y-72676286D01*
X103754221Y-72686477D01*
X103744853Y-72687791D01*
X103687412Y-72693632D01*
X103687403Y-72693633D01*
X103659107Y-72702511D01*
X103643791Y-72706270D01*
X103614609Y-72711500D01*
X103614591Y-72711505D01*
X103560968Y-72732924D01*
X103552060Y-72736096D01*
X103496944Y-72753389D01*
X103496941Y-72753391D01*
X103471007Y-72767785D01*
X103456764Y-72774549D01*
X103429227Y-72785549D01*
X103380997Y-72817333D01*
X103372909Y-72822233D01*
X103322405Y-72850267D01*
X103299902Y-72869585D01*
X103287311Y-72879079D01*
X103262550Y-72895398D01*
X103221707Y-72936240D01*
X103214769Y-72942670D01*
X103170946Y-72980290D01*
X103152794Y-73003741D01*
X103142369Y-73015577D01*
X101168784Y-74989165D01*
X101105436Y-75049382D01*
X101072443Y-75096785D01*
X101066747Y-75104340D01*
X101030252Y-75149097D01*
X101030247Y-75149104D01*
X101016516Y-75175390D01*
X101008347Y-75188873D01*
X100991407Y-75213212D01*
X100991401Y-75213222D01*
X100968628Y-75266291D01*
X100964569Y-75274836D01*
X100937827Y-75326031D01*
X100937824Y-75326040D01*
X100929665Y-75354551D01*
X100924377Y-75369404D01*
X100912684Y-75396652D01*
X100912683Y-75396655D01*
X100901056Y-75453230D01*
X100898801Y-75462418D01*
X100882912Y-75517951D01*
X100882910Y-75517962D01*
X100880657Y-75547531D01*
X100878467Y-75563145D01*
X100872500Y-75592188D01*
X100872500Y-75649936D01*
X100872140Y-75659393D01*
X100867753Y-75716990D01*
X100867754Y-75716993D01*
X100871501Y-75746417D01*
X100872500Y-75762162D01*
X100872500Y-77266309D01*
X100853546Y-77361597D01*
X100799570Y-77442379D01*
X98632705Y-79609243D01*
X98551923Y-79663219D01*
X98456635Y-79682173D01*
X98437100Y-79681405D01*
X98350007Y-79674551D01*
X98349995Y-79674551D01*
X98098854Y-79694316D01*
X97853891Y-79753126D01*
X97853883Y-79753129D01*
X97621141Y-79849533D01*
X97621135Y-79849537D01*
X97406347Y-79981158D01*
X97406345Y-79981160D01*
X97214779Y-80144773D01*
X97214767Y-80144785D01*
X97158034Y-80211212D01*
X97081737Y-80271361D01*
X96988229Y-80297732D01*
X96968693Y-80298500D01*
X93231307Y-80298500D01*
X93136019Y-80279546D01*
X93055237Y-80225570D01*
X93041966Y-80211212D01*
X92985232Y-80144785D01*
X92985229Y-80144782D01*
X92985224Y-80144776D01*
X92793659Y-79981164D01*
X92793657Y-79981163D01*
X92793654Y-79981160D01*
X92793652Y-79981158D01*
X92578864Y-79849537D01*
X92578858Y-79849533D01*
X92346116Y-79753129D01*
X92346108Y-79753126D01*
X92101145Y-79694316D01*
X91850005Y-79674551D01*
X91849995Y-79674551D01*
X91598854Y-79694316D01*
X91353891Y-79753126D01*
X91353883Y-79753129D01*
X91121141Y-79849533D01*
X91121135Y-79849537D01*
X90906347Y-79981158D01*
X90906345Y-79981160D01*
X90714779Y-80144773D01*
X90714773Y-80144779D01*
X90551160Y-80336345D01*
X90551158Y-80336347D01*
X90419537Y-80551135D01*
X90419533Y-80551141D01*
X90323129Y-80783883D01*
X90323126Y-80783891D01*
X90264316Y-81028854D01*
X90244551Y-81279994D01*
X90244551Y-81280005D01*
X85090500Y-81280005D01*
X85090500Y-76779999D01*
X90344859Y-76779999D01*
X90365387Y-77027741D01*
X90365389Y-77027748D01*
X90426410Y-77268714D01*
X90426413Y-77268722D01*
X90526266Y-77496364D01*
X90626564Y-77649882D01*
X91107939Y-77168507D01*
X91188721Y-77114530D01*
X91284009Y-77095576D01*
X91379297Y-77114530D01*
X91460078Y-77168506D01*
X91465946Y-77174577D01*
X91467321Y-77176049D01*
X91518522Y-77258614D01*
X91534230Y-77354491D01*
X91512052Y-77449080D01*
X91461444Y-77522106D01*
X90979941Y-78003610D01*
X91026766Y-78040054D01*
X91026770Y-78040057D01*
X91245388Y-78158366D01*
X91245390Y-78158367D01*
X91480509Y-78239083D01*
X91480512Y-78239084D01*
X91725706Y-78280000D01*
X91974294Y-78280000D01*
X92219487Y-78239084D01*
X92219490Y-78239083D01*
X92454607Y-78158368D01*
X92673230Y-78040055D01*
X92673238Y-78040050D01*
X92720056Y-78003610D01*
X92241106Y-77524660D01*
X92187130Y-77443878D01*
X92168176Y-77348590D01*
X92187130Y-77253302D01*
X92241106Y-77172520D01*
X92260060Y-77155417D01*
X92261619Y-77154149D01*
X92347503Y-77108728D01*
X92444231Y-77099631D01*
X92537078Y-77128242D01*
X92594804Y-77171252D01*
X93073434Y-77649881D01*
X93073435Y-77649881D01*
X93173731Y-77496368D01*
X93273586Y-77268722D01*
X93273589Y-77268714D01*
X93334610Y-77027748D01*
X93334612Y-77027741D01*
X93355140Y-76779999D01*
X96844859Y-76779999D01*
X96865387Y-77027741D01*
X96865389Y-77027748D01*
X96926410Y-77268714D01*
X96926413Y-77268722D01*
X97026266Y-77496364D01*
X97126564Y-77649882D01*
X97607939Y-77168507D01*
X97688721Y-77114530D01*
X97784009Y-77095576D01*
X97879297Y-77114530D01*
X97960078Y-77168506D01*
X97965946Y-77174577D01*
X97967321Y-77176049D01*
X98018522Y-77258614D01*
X98034230Y-77354491D01*
X98012052Y-77449080D01*
X97961444Y-77522106D01*
X97479941Y-78003610D01*
X97526766Y-78040054D01*
X97526770Y-78040057D01*
X97745388Y-78158366D01*
X97745390Y-78158367D01*
X97980509Y-78239083D01*
X97980512Y-78239084D01*
X98225706Y-78280000D01*
X98474294Y-78280000D01*
X98719487Y-78239084D01*
X98719490Y-78239083D01*
X98954607Y-78158368D01*
X99173230Y-78040055D01*
X99173238Y-78040050D01*
X99220056Y-78003610D01*
X98741106Y-77524660D01*
X98687130Y-77443878D01*
X98668176Y-77348590D01*
X98687130Y-77253302D01*
X98741106Y-77172520D01*
X98760060Y-77155417D01*
X98761619Y-77154149D01*
X98847503Y-77108728D01*
X98944231Y-77099631D01*
X99037078Y-77128242D01*
X99094804Y-77171252D01*
X99573434Y-77649881D01*
X99573435Y-77649881D01*
X99673731Y-77496368D01*
X99773586Y-77268722D01*
X99773589Y-77268714D01*
X99834610Y-77027748D01*
X99834612Y-77027741D01*
X99855140Y-76779999D01*
X99834612Y-76532258D01*
X99834610Y-76532251D01*
X99773589Y-76291285D01*
X99773586Y-76291277D01*
X99673730Y-76063628D01*
X99573436Y-75910117D01*
X99573434Y-75910117D01*
X99092058Y-76391492D01*
X99011277Y-76445468D01*
X98915989Y-76464422D01*
X98820700Y-76445468D01*
X98739919Y-76391491D01*
X98733999Y-76385365D01*
X98732619Y-76383887D01*
X98681446Y-76301303D01*
X98665770Y-76205421D01*
X98687981Y-76110839D01*
X98738555Y-76037890D01*
X99220057Y-75556388D01*
X99173241Y-75519951D01*
X99173230Y-75519944D01*
X98954607Y-75401631D01*
X98719490Y-75320916D01*
X98719487Y-75320915D01*
X98474294Y-75280000D01*
X98225706Y-75280000D01*
X97980512Y-75320915D01*
X97980509Y-75320916D01*
X97745392Y-75401631D01*
X97526768Y-75519944D01*
X97526758Y-75519951D01*
X97479941Y-75556388D01*
X97958893Y-76035340D01*
X98012869Y-76116122D01*
X98031823Y-76211410D01*
X98012869Y-76306698D01*
X97958893Y-76387480D01*
X97939864Y-76404643D01*
X97938305Y-76405910D01*
X97852404Y-76451298D01*
X97755672Y-76460358D01*
X97662837Y-76431711D01*
X97605195Y-76388747D01*
X97126564Y-75910117D01*
X97026268Y-76063630D01*
X97026268Y-76063631D01*
X96926413Y-76291277D01*
X96926410Y-76291285D01*
X96865389Y-76532251D01*
X96865387Y-76532258D01*
X96844859Y-76779999D01*
X93355140Y-76779999D01*
X93334612Y-76532258D01*
X93334610Y-76532251D01*
X93273589Y-76291285D01*
X93273586Y-76291277D01*
X93173730Y-76063628D01*
X93073436Y-75910117D01*
X93073434Y-75910117D01*
X92592058Y-76391492D01*
X92511277Y-76445468D01*
X92415989Y-76464422D01*
X92320700Y-76445468D01*
X92239919Y-76391491D01*
X92233999Y-76385365D01*
X92232619Y-76383887D01*
X92181446Y-76301303D01*
X92165770Y-76205421D01*
X92187981Y-76110839D01*
X92238555Y-76037890D01*
X92720057Y-75556388D01*
X92673241Y-75519951D01*
X92673230Y-75519944D01*
X92454607Y-75401631D01*
X92219490Y-75320916D01*
X92219487Y-75320915D01*
X91974294Y-75280000D01*
X91725706Y-75280000D01*
X91480512Y-75320915D01*
X91480509Y-75320916D01*
X91245392Y-75401631D01*
X91026768Y-75519944D01*
X91026758Y-75519951D01*
X90979941Y-75556388D01*
X91458893Y-76035340D01*
X91512869Y-76116122D01*
X91531823Y-76211410D01*
X91512869Y-76306698D01*
X91458893Y-76387480D01*
X91439864Y-76404643D01*
X91438305Y-76405910D01*
X91352404Y-76451298D01*
X91255672Y-76460358D01*
X91162837Y-76431711D01*
X91105195Y-76388747D01*
X90626564Y-75910117D01*
X90526268Y-76063630D01*
X90526268Y-76063631D01*
X90426413Y-76291277D01*
X90426410Y-76291285D01*
X90365389Y-76532251D01*
X90365387Y-76532258D01*
X90344859Y-76779999D01*
X85090500Y-76779999D01*
X85090500Y-64079999D01*
X90344859Y-64079999D01*
X90365387Y-64327741D01*
X90365389Y-64327748D01*
X90426410Y-64568714D01*
X90426413Y-64568722D01*
X90526266Y-64796364D01*
X90626564Y-64949882D01*
X91107939Y-64468507D01*
X91188721Y-64414530D01*
X91284009Y-64395576D01*
X91379297Y-64414530D01*
X91460078Y-64468506D01*
X91465946Y-64474577D01*
X91467321Y-64476049D01*
X91518522Y-64558614D01*
X91534230Y-64654491D01*
X91512052Y-64749080D01*
X91461444Y-64822106D01*
X90979941Y-65303610D01*
X91026766Y-65340054D01*
X91026770Y-65340057D01*
X91245388Y-65458366D01*
X91245390Y-65458367D01*
X91480509Y-65539083D01*
X91480512Y-65539084D01*
X91725706Y-65580000D01*
X91974294Y-65580000D01*
X92219487Y-65539084D01*
X92219490Y-65539083D01*
X92454607Y-65458368D01*
X92673230Y-65340055D01*
X92673238Y-65340050D01*
X92720056Y-65303610D01*
X92241106Y-64824660D01*
X92187130Y-64743878D01*
X92168176Y-64648590D01*
X92187130Y-64553302D01*
X92241106Y-64472520D01*
X92260060Y-64455417D01*
X92261619Y-64454149D01*
X92347503Y-64408728D01*
X92444231Y-64399631D01*
X92537078Y-64428242D01*
X92594804Y-64471252D01*
X93073434Y-64949881D01*
X93073435Y-64949881D01*
X93173731Y-64796368D01*
X93273586Y-64568722D01*
X93273589Y-64568714D01*
X93334610Y-64327748D01*
X93334612Y-64327741D01*
X93355140Y-64079999D01*
X96844859Y-64079999D01*
X96865387Y-64327741D01*
X96865389Y-64327748D01*
X96926410Y-64568714D01*
X96926413Y-64568722D01*
X97026266Y-64796364D01*
X97126564Y-64949882D01*
X97607939Y-64468507D01*
X97688721Y-64414530D01*
X97784009Y-64395576D01*
X97879297Y-64414530D01*
X97960078Y-64468506D01*
X97965946Y-64474577D01*
X97967321Y-64476049D01*
X98018522Y-64558614D01*
X98034230Y-64654491D01*
X98012052Y-64749080D01*
X97961444Y-64822106D01*
X97479941Y-65303610D01*
X97526766Y-65340054D01*
X97526770Y-65340057D01*
X97745388Y-65458366D01*
X97745390Y-65458367D01*
X97980509Y-65539083D01*
X97980512Y-65539084D01*
X98225706Y-65580000D01*
X98474294Y-65580000D01*
X98719487Y-65539084D01*
X98719490Y-65539083D01*
X98954607Y-65458368D01*
X99173230Y-65340055D01*
X99173238Y-65340050D01*
X99220056Y-65303610D01*
X98741106Y-64824660D01*
X98687130Y-64743878D01*
X98668176Y-64648590D01*
X98687130Y-64553302D01*
X98741106Y-64472520D01*
X98760060Y-64455417D01*
X98761619Y-64454149D01*
X98847503Y-64408728D01*
X98944231Y-64399631D01*
X99037078Y-64428242D01*
X99094804Y-64471252D01*
X99573434Y-64949881D01*
X99573435Y-64949881D01*
X99673731Y-64796368D01*
X99773586Y-64568722D01*
X99773589Y-64568714D01*
X99834610Y-64327748D01*
X99834612Y-64327741D01*
X99855140Y-64079999D01*
X99834612Y-63832258D01*
X99834610Y-63832251D01*
X99773589Y-63591285D01*
X99773586Y-63591277D01*
X99673730Y-63363628D01*
X99573436Y-63210117D01*
X99573434Y-63210117D01*
X99092058Y-63691492D01*
X99011277Y-63745468D01*
X98915989Y-63764422D01*
X98820700Y-63745468D01*
X98739919Y-63691491D01*
X98733999Y-63685365D01*
X98732619Y-63683887D01*
X98681446Y-63601303D01*
X98665770Y-63505421D01*
X98687981Y-63410839D01*
X98738555Y-63337890D01*
X99220057Y-62856388D01*
X99173241Y-62819951D01*
X99173230Y-62819944D01*
X98954607Y-62701631D01*
X98719490Y-62620916D01*
X98719487Y-62620915D01*
X98474294Y-62580000D01*
X98225706Y-62580000D01*
X97980512Y-62620915D01*
X97980509Y-62620916D01*
X97745392Y-62701631D01*
X97526768Y-62819944D01*
X97526758Y-62819951D01*
X97479941Y-62856388D01*
X97958893Y-63335340D01*
X98012869Y-63416122D01*
X98031823Y-63511410D01*
X98012869Y-63606698D01*
X97958893Y-63687480D01*
X97939864Y-63704643D01*
X97938305Y-63705910D01*
X97852404Y-63751298D01*
X97755672Y-63760358D01*
X97662837Y-63731711D01*
X97605195Y-63688747D01*
X97126564Y-63210117D01*
X97026268Y-63363630D01*
X97026268Y-63363631D01*
X96926413Y-63591277D01*
X96926410Y-63591285D01*
X96865389Y-63832251D01*
X96865387Y-63832258D01*
X96844859Y-64079999D01*
X93355140Y-64079999D01*
X93334612Y-63832258D01*
X93334610Y-63832251D01*
X93273589Y-63591285D01*
X93273586Y-63591277D01*
X93173730Y-63363628D01*
X93073436Y-63210117D01*
X93073434Y-63210117D01*
X92592058Y-63691492D01*
X92511277Y-63745468D01*
X92415989Y-63764422D01*
X92320700Y-63745468D01*
X92239919Y-63691491D01*
X92233999Y-63685365D01*
X92232619Y-63683887D01*
X92181446Y-63601303D01*
X92165770Y-63505421D01*
X92187981Y-63410839D01*
X92238555Y-63337890D01*
X92720057Y-62856388D01*
X92673241Y-62819951D01*
X92673230Y-62819944D01*
X92454607Y-62701631D01*
X92219490Y-62620916D01*
X92219487Y-62620915D01*
X91974294Y-62580000D01*
X91725706Y-62580000D01*
X91480512Y-62620915D01*
X91480509Y-62620916D01*
X91245392Y-62701631D01*
X91026768Y-62819944D01*
X91026758Y-62819951D01*
X90979941Y-62856388D01*
X91458893Y-63335340D01*
X91512869Y-63416122D01*
X91531823Y-63511410D01*
X91512869Y-63606698D01*
X91458893Y-63687480D01*
X91439864Y-63704643D01*
X91438305Y-63705910D01*
X91352404Y-63751298D01*
X91255672Y-63760358D01*
X91162837Y-63731711D01*
X91105195Y-63688747D01*
X90626564Y-63210117D01*
X90526268Y-63363630D01*
X90526268Y-63363631D01*
X90426413Y-63591277D01*
X90426410Y-63591285D01*
X90365389Y-63832251D01*
X90365387Y-63832258D01*
X90344859Y-64079999D01*
X85090500Y-64079999D01*
X85090500Y-53589500D01*
X85109454Y-53494212D01*
X85163430Y-53413430D01*
X85244212Y-53359454D01*
X85339500Y-53340500D01*
X178566500Y-53340500D01*
X178661788Y-53359454D01*
G37*
%TD.AperFunction*%
%TD*%
M02*
