M48
; DRILL file {KiCad 7.0.7} date Sat Sep  2 13:46:32 2023
; FORMAT={-:-/ absolute / inch / decimal}
; #@! TF.CreationDate,2023-09-02T13:46:32+02:00
; #@! TF.GenerationSoftware,Kicad,Pcbnew,7.0.7
; #@! TF.FileFunction,Plated,1,2,PTH
FMAT,2
INCH
; #@! TA.AperFunction,Plated,PTH,ViaDrill
T1C0.0236
; #@! TA.AperFunction,Plated,PTH,ComponentDrill
T2C0.0300
; #@! TA.AperFunction,Plated,PTH,ComponentDrill
T3C0.0315
; #@! TA.AperFunction,Plated,PTH,ComponentDrill
T4C0.0394
; #@! TA.AperFunction,Plated,PTH,ComponentDrill
T5C0.0433
; #@! TA.AperFunction,Plated,PTH,ComponentDrill
T6C0.0512
%
G90
G05
T1
X4.02Y-3.41
X4.02Y-3.76
X4.2Y-4.06
X4.2Y-4.28
X4.5Y-4.06
X4.5Y-4.28
X5.43Y-3.93
X5.75Y-3.62
X6.14Y-3.8
X6.17Y-4.57
X6.29Y-4.02
X6.29Y-4.26
T2
X4.9Y-2.3
X4.9Y-2.4
X4.9Y-2.5
X4.9Y-2.6
X4.9Y-2.7
X4.9Y-2.8
X4.9Y-2.9
X4.9Y-3.0
X4.9Y-3.1
X4.9Y-3.2
X4.9Y-3.3
X4.9Y-3.4
X4.9Y-3.5
X4.9Y-3.6
X4.9Y-3.7
X4.9Y-3.8
X4.9Y-3.9
X4.9Y-4.0
X4.9Y-4.1
X6.0Y-2.3
X6.0Y-2.4
X6.0Y-2.5
X6.0Y-2.6
X6.0Y-2.7
X6.0Y-2.8
X6.0Y-2.9
X6.0Y-3.0
X6.0Y-3.1
X6.0Y-3.2
X6.0Y-3.3
X6.0Y-3.4
X6.0Y-3.5
X6.0Y-3.6
X6.0Y-3.7
X6.0Y-3.8
X6.0Y-3.9
X6.0Y-4.0
X6.0Y-4.1
T3
X4.2Y-3.7
X4.2Y-3.8
X4.2Y-3.9
X4.5Y-3.7
X4.5Y-3.8
X4.5Y-3.9
X5.25Y-2.4
X5.25Y-2.7
X5.25Y-3.0
X5.25Y-3.3
X5.55Y-2.4
X5.55Y-2.7
X5.55Y-3.0
X5.55Y-3.3
T4
X6.5Y-2.3
X6.5Y-2.6
X6.56Y-3.49
X6.56Y-3.59
X6.56Y-3.69
X6.56Y-3.79
X6.56Y-3.89
X6.56Y-3.99
X6.56Y-4.09
X6.56Y-4.19
X6.56Y-4.29
X6.56Y-4.39
X6.6Y-2.3
X6.6Y-2.6
X6.66Y-3.49
X6.66Y-3.59
X6.66Y-3.69
X6.66Y-3.79
X6.66Y-3.89
X6.66Y-3.99
X6.66Y-4.09
X6.66Y-4.19
X6.66Y-4.29
X6.66Y-4.39
X6.7Y-2.3
X6.7Y-2.6
T5
X3.6161Y-2.5228
X3.6161Y-2.7
X3.6161Y-3.0228
X3.6161Y-3.2
X3.872Y-2.5228
X3.872Y-2.7
X3.872Y-3.0228
X3.872Y-3.2
X4.1441Y-2.5228
X4.1441Y-2.7
X4.1441Y-3.0228
X4.1441Y-3.2
X4.4Y-2.5228
X4.4Y-2.7
X4.4Y-3.0228
X4.4Y-3.2
T6
X3.7Y-3.6
X3.7Y-3.7969
X3.7Y-3.9937
T4
G00X6.4438Y-3.1171
M15
G01X6.4438Y-3.0383
M16
G05
G00X6.6013Y-2.8927
M15
G01X6.5225Y-2.8927
M16
G05
G00X6.68Y-3.1171
M15
G01X6.68Y-3.0383
M16
G05
T0
M30
