%TF.GenerationSoftware,KiCad,Pcbnew,7.0.7*%
%TF.CreationDate,2024-03-16T18:53:27+01:00*%
%TF.ProjectId,OpenHand,4f70656e-4861-46e6-942e-6b696361645f,rev?*%
%TF.SameCoordinates,Original*%
%TF.FileFunction,Legend,Top*%
%TF.FilePolarity,Positive*%
%FSLAX46Y46*%
G04 Gerber Fmt 4.6, Leading zero omitted, Abs format (unit mm)*
G04 Created by KiCad (PCBNEW 7.0.7) date 2024-03-16 18:53:27*
%MOMM*%
%LPD*%
G01*
G04 APERTURE LIST*
%ADD10C,0.150000*%
%ADD11C,0.200000*%
%ADD12C,0.120000*%
%ADD13C,0.300000*%
%ADD14C,0.350000*%
%ADD15O,0.600000X1.700000*%
%ADD16O,0.600000X1.400000*%
%ADD17C,0.200000*%
G04 APERTURE END LIST*
D10*
G36*
X188304814Y-140522676D02*
G01*
X183395187Y-140522676D01*
X183395187Y-139910842D01*
X183538044Y-139910842D01*
X183546953Y-139961366D01*
X183586253Y-139994343D01*
X183611905Y-139998866D01*
X183917857Y-139998866D01*
X183917857Y-140304819D01*
X183935404Y-140353028D01*
X183979833Y-140378680D01*
X184030357Y-140369771D01*
X184063334Y-140330471D01*
X184067857Y-140304819D01*
X184067857Y-140298283D01*
X185441953Y-140298283D01*
X185447794Y-140320085D01*
X185451715Y-140342319D01*
X185454342Y-140344523D01*
X185455230Y-140347837D01*
X185473721Y-140360785D01*
X185491015Y-140375296D01*
X185495599Y-140376104D01*
X185497256Y-140377264D01*
X185500544Y-140376976D01*
X185516667Y-140379819D01*
X186135714Y-140379819D01*
X186183923Y-140362272D01*
X186209575Y-140317843D01*
X186200666Y-140267319D01*
X186161366Y-140234342D01*
X186135714Y-140229819D01*
X185697733Y-140229819D01*
X186016709Y-139910842D01*
X187252330Y-139910842D01*
X187261239Y-139961366D01*
X187300539Y-139994343D01*
X187326191Y-139998866D01*
X188088096Y-139998866D01*
X188136305Y-139981319D01*
X188161957Y-139936890D01*
X188153048Y-139886366D01*
X188113748Y-139853389D01*
X188088096Y-139848866D01*
X187326191Y-139848866D01*
X187277982Y-139866413D01*
X187252330Y-139910842D01*
X186016709Y-139910842D01*
X186141128Y-139786423D01*
X186143023Y-139782358D01*
X186146843Y-139780012D01*
X186159246Y-139757107D01*
X186206865Y-139614251D01*
X186206820Y-139612615D01*
X186210714Y-139590533D01*
X186210714Y-139495295D01*
X186209180Y-139491081D01*
X186210222Y-139486720D01*
X186202796Y-139461754D01*
X186155177Y-139366516D01*
X186153987Y-139365390D01*
X186141128Y-139347024D01*
X186093509Y-139299405D01*
X186092027Y-139298714D01*
X186074017Y-139285356D01*
X185978779Y-139237737D01*
X185974325Y-139237224D01*
X185970890Y-139234342D01*
X185945238Y-139229819D01*
X185707143Y-139229819D01*
X185702929Y-139231352D01*
X185698568Y-139230311D01*
X185673602Y-139237737D01*
X185578364Y-139285356D01*
X185577238Y-139286545D01*
X185558872Y-139299405D01*
X185511253Y-139347024D01*
X185489572Y-139393521D01*
X185502849Y-139443075D01*
X185544875Y-139472502D01*
X185595982Y-139468030D01*
X185617319Y-139453090D01*
X185656332Y-139414076D01*
X185724848Y-139379819D01*
X185927533Y-139379819D01*
X185996049Y-139414077D01*
X186026456Y-139444483D01*
X186060714Y-139513000D01*
X186060714Y-139578363D01*
X186022542Y-139692876D01*
X185463634Y-140251786D01*
X185454096Y-140272239D01*
X185442806Y-140291795D01*
X185443402Y-140295175D01*
X185441953Y-140298283D01*
X184067857Y-140298283D01*
X184067857Y-139998866D01*
X184373810Y-139998866D01*
X184422019Y-139981319D01*
X184447671Y-139936890D01*
X184438762Y-139886366D01*
X184399462Y-139853389D01*
X184373810Y-139848866D01*
X184067857Y-139848866D01*
X184067857Y-139542914D01*
X184050310Y-139494705D01*
X184005881Y-139469053D01*
X183955357Y-139477962D01*
X183922380Y-139517262D01*
X183917857Y-139542914D01*
X183917857Y-139848866D01*
X183611905Y-139848866D01*
X183563696Y-139866413D01*
X183538044Y-139910842D01*
X183395187Y-139910842D01*
X183395187Y-139086962D01*
X188304814Y-139086962D01*
X188304814Y-140522676D01*
G37*
G36*
X179604814Y-140522676D02*
G01*
X174695187Y-140522676D01*
X174695187Y-139910842D01*
X174838044Y-139910842D01*
X174846953Y-139961366D01*
X174886253Y-139994343D01*
X174911905Y-139998866D01*
X175217857Y-139998866D01*
X175217857Y-140304819D01*
X175235404Y-140353028D01*
X175279833Y-140378680D01*
X175330357Y-140369771D01*
X175363334Y-140330471D01*
X175367857Y-140304819D01*
X175367857Y-140291795D01*
X176790425Y-140291795D01*
X176799334Y-140342319D01*
X176838634Y-140375296D01*
X176864286Y-140379819D01*
X177435714Y-140379819D01*
X177483923Y-140362272D01*
X177509575Y-140317843D01*
X177500666Y-140267319D01*
X177461366Y-140234342D01*
X177435714Y-140229819D01*
X177225000Y-140229819D01*
X177225000Y-139910842D01*
X178552330Y-139910842D01*
X178561239Y-139961366D01*
X178600539Y-139994343D01*
X178626191Y-139998866D01*
X179388096Y-139998866D01*
X179436305Y-139981319D01*
X179461957Y-139936890D01*
X179453048Y-139886366D01*
X179413748Y-139853389D01*
X179388096Y-139848866D01*
X178626191Y-139848866D01*
X178577982Y-139866413D01*
X178552330Y-139910842D01*
X177225000Y-139910842D01*
X177225000Y-139304819D01*
X177223524Y-139300765D01*
X177224545Y-139296576D01*
X177214897Y-139277063D01*
X177207453Y-139256610D01*
X177203718Y-139254454D01*
X177201807Y-139250587D01*
X177181872Y-139241840D01*
X177163024Y-139230958D01*
X177158776Y-139231706D01*
X177154827Y-139229974D01*
X177133932Y-139236087D01*
X177112500Y-139239867D01*
X177109728Y-139243169D01*
X177105589Y-139244381D01*
X177087596Y-139263216D01*
X176996475Y-139399896D01*
X176915097Y-139481275D01*
X176830745Y-139523451D01*
X176795473Y-139560705D01*
X176792398Y-139611916D01*
X176822962Y-139653121D01*
X176872860Y-139665041D01*
X176897827Y-139657615D01*
X176993065Y-139609996D01*
X176994190Y-139608806D01*
X177012557Y-139595947D01*
X177075000Y-139533504D01*
X177075000Y-140229819D01*
X176864286Y-140229819D01*
X176816077Y-140247366D01*
X176790425Y-140291795D01*
X175367857Y-140291795D01*
X175367857Y-139998866D01*
X175673810Y-139998866D01*
X175722019Y-139981319D01*
X175747671Y-139936890D01*
X175738762Y-139886366D01*
X175699462Y-139853389D01*
X175673810Y-139848866D01*
X175367857Y-139848866D01*
X175367857Y-139542914D01*
X175350310Y-139494705D01*
X175305881Y-139469053D01*
X175255357Y-139477962D01*
X175222380Y-139517262D01*
X175217857Y-139542914D01*
X175217857Y-139848866D01*
X174911905Y-139848866D01*
X174863696Y-139866413D01*
X174838044Y-139910842D01*
X174695187Y-139910842D01*
X174695187Y-139087117D01*
X179604814Y-139087117D01*
X179604814Y-140522676D01*
G37*
X207979819Y-135279763D02*
X207979819Y-135089287D01*
X207979819Y-135089287D02*
X208027438Y-134994049D01*
X208027438Y-134994049D02*
X208122676Y-134898811D01*
X208122676Y-134898811D02*
X208313152Y-134851192D01*
X208313152Y-134851192D02*
X208646485Y-134851192D01*
X208646485Y-134851192D02*
X208836961Y-134898811D01*
X208836961Y-134898811D02*
X208932200Y-134994049D01*
X208932200Y-134994049D02*
X208979819Y-135089287D01*
X208979819Y-135089287D02*
X208979819Y-135279763D01*
X208979819Y-135279763D02*
X208932200Y-135375001D01*
X208932200Y-135375001D02*
X208836961Y-135470239D01*
X208836961Y-135470239D02*
X208646485Y-135517858D01*
X208646485Y-135517858D02*
X208313152Y-135517858D01*
X208313152Y-135517858D02*
X208122676Y-135470239D01*
X208122676Y-135470239D02*
X208027438Y-135375001D01*
X208027438Y-135375001D02*
X207979819Y-135279763D01*
X208313152Y-134422620D02*
X209313152Y-134422620D01*
X208360771Y-134422620D02*
X208313152Y-134327382D01*
X208313152Y-134327382D02*
X208313152Y-134136906D01*
X208313152Y-134136906D02*
X208360771Y-134041668D01*
X208360771Y-134041668D02*
X208408390Y-133994049D01*
X208408390Y-133994049D02*
X208503628Y-133946430D01*
X208503628Y-133946430D02*
X208789342Y-133946430D01*
X208789342Y-133946430D02*
X208884580Y-133994049D01*
X208884580Y-133994049D02*
X208932200Y-134041668D01*
X208932200Y-134041668D02*
X208979819Y-134136906D01*
X208979819Y-134136906D02*
X208979819Y-134327382D01*
X208979819Y-134327382D02*
X208932200Y-134422620D01*
X208932200Y-133136906D02*
X208979819Y-133232144D01*
X208979819Y-133232144D02*
X208979819Y-133422620D01*
X208979819Y-133422620D02*
X208932200Y-133517858D01*
X208932200Y-133517858D02*
X208836961Y-133565477D01*
X208836961Y-133565477D02*
X208456009Y-133565477D01*
X208456009Y-133565477D02*
X208360771Y-133517858D01*
X208360771Y-133517858D02*
X208313152Y-133422620D01*
X208313152Y-133422620D02*
X208313152Y-133232144D01*
X208313152Y-133232144D02*
X208360771Y-133136906D01*
X208360771Y-133136906D02*
X208456009Y-133089287D01*
X208456009Y-133089287D02*
X208551247Y-133089287D01*
X208551247Y-133089287D02*
X208646485Y-133565477D01*
X208313152Y-132660715D02*
X208979819Y-132660715D01*
X208408390Y-132660715D02*
X208360771Y-132613096D01*
X208360771Y-132613096D02*
X208313152Y-132517858D01*
X208313152Y-132517858D02*
X208313152Y-132375001D01*
X208313152Y-132375001D02*
X208360771Y-132279763D01*
X208360771Y-132279763D02*
X208456009Y-132232144D01*
X208456009Y-132232144D02*
X208979819Y-132232144D01*
X208979819Y-131755953D02*
X207979819Y-131755953D01*
X208456009Y-131755953D02*
X208456009Y-131184525D01*
X208979819Y-131184525D02*
X207979819Y-131184525D01*
X208979819Y-130279763D02*
X208456009Y-130279763D01*
X208456009Y-130279763D02*
X208360771Y-130327382D01*
X208360771Y-130327382D02*
X208313152Y-130422620D01*
X208313152Y-130422620D02*
X208313152Y-130613096D01*
X208313152Y-130613096D02*
X208360771Y-130708334D01*
X208932200Y-130279763D02*
X208979819Y-130375001D01*
X208979819Y-130375001D02*
X208979819Y-130613096D01*
X208979819Y-130613096D02*
X208932200Y-130708334D01*
X208932200Y-130708334D02*
X208836961Y-130755953D01*
X208836961Y-130755953D02*
X208741723Y-130755953D01*
X208741723Y-130755953D02*
X208646485Y-130708334D01*
X208646485Y-130708334D02*
X208598866Y-130613096D01*
X208598866Y-130613096D02*
X208598866Y-130375001D01*
X208598866Y-130375001D02*
X208551247Y-130279763D01*
X208313152Y-129803572D02*
X208979819Y-129803572D01*
X208408390Y-129803572D02*
X208360771Y-129755953D01*
X208360771Y-129755953D02*
X208313152Y-129660715D01*
X208313152Y-129660715D02*
X208313152Y-129517858D01*
X208313152Y-129517858D02*
X208360771Y-129422620D01*
X208360771Y-129422620D02*
X208456009Y-129375001D01*
X208456009Y-129375001D02*
X208979819Y-129375001D01*
X208979819Y-128470239D02*
X207979819Y-128470239D01*
X208932200Y-128470239D02*
X208979819Y-128565477D01*
X208979819Y-128565477D02*
X208979819Y-128755953D01*
X208979819Y-128755953D02*
X208932200Y-128851191D01*
X208932200Y-128851191D02*
X208884580Y-128898810D01*
X208884580Y-128898810D02*
X208789342Y-128946429D01*
X208789342Y-128946429D02*
X208503628Y-128946429D01*
X208503628Y-128946429D02*
X208408390Y-128898810D01*
X208408390Y-128898810D02*
X208360771Y-128851191D01*
X208360771Y-128851191D02*
X208313152Y-128755953D01*
X208313152Y-128755953D02*
X208313152Y-128565477D01*
X208313152Y-128565477D02*
X208360771Y-128470239D01*
X208884580Y-126660715D02*
X208932200Y-126708334D01*
X208932200Y-126708334D02*
X208979819Y-126851191D01*
X208979819Y-126851191D02*
X208979819Y-126946429D01*
X208979819Y-126946429D02*
X208932200Y-127089286D01*
X208932200Y-127089286D02*
X208836961Y-127184524D01*
X208836961Y-127184524D02*
X208741723Y-127232143D01*
X208741723Y-127232143D02*
X208551247Y-127279762D01*
X208551247Y-127279762D02*
X208408390Y-127279762D01*
X208408390Y-127279762D02*
X208217914Y-127232143D01*
X208217914Y-127232143D02*
X208122676Y-127184524D01*
X208122676Y-127184524D02*
X208027438Y-127089286D01*
X208027438Y-127089286D02*
X207979819Y-126946429D01*
X207979819Y-126946429D02*
X207979819Y-126851191D01*
X207979819Y-126851191D02*
X208027438Y-126708334D01*
X208027438Y-126708334D02*
X208075057Y-126660715D01*
X208979819Y-126089286D02*
X208932200Y-126184524D01*
X208932200Y-126184524D02*
X208884580Y-126232143D01*
X208884580Y-126232143D02*
X208789342Y-126279762D01*
X208789342Y-126279762D02*
X208503628Y-126279762D01*
X208503628Y-126279762D02*
X208408390Y-126232143D01*
X208408390Y-126232143D02*
X208360771Y-126184524D01*
X208360771Y-126184524D02*
X208313152Y-126089286D01*
X208313152Y-126089286D02*
X208313152Y-125946429D01*
X208313152Y-125946429D02*
X208360771Y-125851191D01*
X208360771Y-125851191D02*
X208408390Y-125803572D01*
X208408390Y-125803572D02*
X208503628Y-125755953D01*
X208503628Y-125755953D02*
X208789342Y-125755953D01*
X208789342Y-125755953D02*
X208884580Y-125803572D01*
X208884580Y-125803572D02*
X208932200Y-125851191D01*
X208932200Y-125851191D02*
X208979819Y-125946429D01*
X208979819Y-125946429D02*
X208979819Y-126089286D01*
X208313152Y-125327381D02*
X208979819Y-125327381D01*
X208408390Y-125327381D02*
X208360771Y-125279762D01*
X208360771Y-125279762D02*
X208313152Y-125184524D01*
X208313152Y-125184524D02*
X208313152Y-125041667D01*
X208313152Y-125041667D02*
X208360771Y-124946429D01*
X208360771Y-124946429D02*
X208456009Y-124898810D01*
X208456009Y-124898810D02*
X208979819Y-124898810D01*
X208313152Y-124565476D02*
X208313152Y-124184524D01*
X207979819Y-124422619D02*
X208836961Y-124422619D01*
X208836961Y-124422619D02*
X208932200Y-124375000D01*
X208932200Y-124375000D02*
X208979819Y-124279762D01*
X208979819Y-124279762D02*
X208979819Y-124184524D01*
X208979819Y-123851190D02*
X208313152Y-123851190D01*
X208503628Y-123851190D02*
X208408390Y-123803571D01*
X208408390Y-123803571D02*
X208360771Y-123755952D01*
X208360771Y-123755952D02*
X208313152Y-123660714D01*
X208313152Y-123660714D02*
X208313152Y-123565476D01*
X208979819Y-123089285D02*
X208932200Y-123184523D01*
X208932200Y-123184523D02*
X208884580Y-123232142D01*
X208884580Y-123232142D02*
X208789342Y-123279761D01*
X208789342Y-123279761D02*
X208503628Y-123279761D01*
X208503628Y-123279761D02*
X208408390Y-123232142D01*
X208408390Y-123232142D02*
X208360771Y-123184523D01*
X208360771Y-123184523D02*
X208313152Y-123089285D01*
X208313152Y-123089285D02*
X208313152Y-122946428D01*
X208313152Y-122946428D02*
X208360771Y-122851190D01*
X208360771Y-122851190D02*
X208408390Y-122803571D01*
X208408390Y-122803571D02*
X208503628Y-122755952D01*
X208503628Y-122755952D02*
X208789342Y-122755952D01*
X208789342Y-122755952D02*
X208884580Y-122803571D01*
X208884580Y-122803571D02*
X208932200Y-122851190D01*
X208932200Y-122851190D02*
X208979819Y-122946428D01*
X208979819Y-122946428D02*
X208979819Y-123089285D01*
X208979819Y-122184523D02*
X208932200Y-122279761D01*
X208932200Y-122279761D02*
X208836961Y-122327380D01*
X208836961Y-122327380D02*
X207979819Y-122327380D01*
X208979819Y-121660713D02*
X208932200Y-121755951D01*
X208932200Y-121755951D02*
X208836961Y-121803570D01*
X208836961Y-121803570D02*
X207979819Y-121803570D01*
X208932200Y-120898808D02*
X208979819Y-120994046D01*
X208979819Y-120994046D02*
X208979819Y-121184522D01*
X208979819Y-121184522D02*
X208932200Y-121279760D01*
X208932200Y-121279760D02*
X208836961Y-121327379D01*
X208836961Y-121327379D02*
X208456009Y-121327379D01*
X208456009Y-121327379D02*
X208360771Y-121279760D01*
X208360771Y-121279760D02*
X208313152Y-121184522D01*
X208313152Y-121184522D02*
X208313152Y-120994046D01*
X208313152Y-120994046D02*
X208360771Y-120898808D01*
X208360771Y-120898808D02*
X208456009Y-120851189D01*
X208456009Y-120851189D02*
X208551247Y-120851189D01*
X208551247Y-120851189D02*
X208646485Y-121327379D01*
X208979819Y-120422617D02*
X208313152Y-120422617D01*
X208503628Y-120422617D02*
X208408390Y-120374998D01*
X208408390Y-120374998D02*
X208360771Y-120327379D01*
X208360771Y-120327379D02*
X208313152Y-120232141D01*
X208313152Y-120232141D02*
X208313152Y-120136903D01*
G36*
X-6010Y2301330D02*
G01*
X-44181Y2186816D01*
X-70674Y2160322D01*
X-139190Y2126065D01*
X-246637Y2126065D01*
X-315153Y2160323D01*
X-345561Y2190730D01*
X-379819Y2259246D01*
X-379819Y2547493D01*
X-6010Y2547493D01*
X-6010Y2301330D01*
G37*
G36*
X470180Y2306865D02*
G01*
X435922Y2238349D01*
X405514Y2207941D01*
X336999Y2173684D01*
X277171Y2173684D01*
X208654Y2207942D01*
X178248Y2238349D01*
X143990Y2306865D01*
X143990Y2547493D01*
X470180Y2547493D01*
X470180Y2306865D01*
G37*
G36*
X763037Y71589D02*
G01*
X-672676Y71589D01*
X-672676Y479636D01*
X-529819Y479636D01*
X-529258Y478097D01*
X-525970Y455919D01*
X-478351Y313062D01*
X-475563Y309550D01*
X-475173Y305082D01*
X-460232Y283745D01*
X-412613Y236127D01*
X-366116Y214446D01*
X-316561Y227724D01*
X-287135Y269749D01*
X-291607Y320857D01*
X-306548Y342194D01*
X-341647Y377292D01*
X-379819Y491806D01*
X-379819Y562703D01*
X-341647Y677217D01*
X-267534Y751329D01*
X-190547Y789823D01*
X-17013Y833207D01*
X107375Y833207D01*
X280909Y789823D01*
X357896Y751330D01*
X432009Y677217D01*
X470180Y562704D01*
X470180Y491806D01*
X432009Y377293D01*
X396909Y342193D01*
X375228Y295696D01*
X388505Y246142D01*
X430531Y216715D01*
X481638Y221187D01*
X502975Y236127D01*
X550594Y283746D01*
X552489Y287810D01*
X556309Y290157D01*
X568712Y313062D01*
X616331Y455918D01*
X616286Y457553D01*
X620180Y479636D01*
X620180Y574874D01*
X619620Y576411D01*
X616331Y598592D01*
X568712Y741448D01*
X565925Y744958D01*
X565535Y749427D01*
X550594Y770764D01*
X455356Y866002D01*
X453874Y866692D01*
X435864Y880051D01*
X340626Y927670D01*
X337097Y928076D01*
X325275Y933349D01*
X134799Y980968D01*
X131350Y980607D01*
X116609Y983207D01*
X-26247Y983207D01*
X-29504Y982021D01*
X-44437Y980968D01*
X-234913Y933349D01*
X-237857Y931360D01*
X-250264Y927670D01*
X-345502Y880051D01*
X-346627Y878862D01*
X-364993Y866003D01*
X-460233Y770764D01*
X-462127Y766700D01*
X-465949Y764353D01*
X-478351Y741448D01*
X-525970Y598591D01*
X-525925Y596956D01*
X-529819Y574874D01*
X-529819Y479636D01*
X-672676Y479636D01*
X-672676Y2241541D01*
X-529819Y2241541D01*
X-528285Y2237327D01*
X-529327Y2232967D01*
X-521901Y2208000D01*
X-474282Y2112762D01*
X-473094Y2111637D01*
X-460232Y2093269D01*
X-412613Y2045651D01*
X-411131Y2044960D01*
X-393121Y2031602D01*
X-297883Y1983983D01*
X-293429Y1983470D01*
X-289994Y1980588D01*
X-264342Y1976065D01*
X-121485Y1976065D01*
X-117271Y1977598D01*
X-112911Y1976557D01*
X-87944Y1983983D01*
X7294Y2031602D01*
X8418Y2032789D01*
X26787Y2045652D01*
X74405Y2093271D01*
X76299Y2097334D01*
X80119Y2099681D01*
X88783Y2115681D01*
X111195Y2093270D01*
X112676Y2092578D01*
X130687Y2079221D01*
X225925Y2031602D01*
X230378Y2031089D01*
X233814Y2028207D01*
X259466Y2023684D01*
X354704Y2023684D01*
X358917Y2025217D01*
X363278Y2024176D01*
X388245Y2031602D01*
X483483Y2079221D01*
X484608Y2080410D01*
X502975Y2093270D01*
X550594Y2140889D01*
X551285Y2142370D01*
X564643Y2160381D01*
X612262Y2255619D01*
X612774Y2260072D01*
X615657Y2263508D01*
X620180Y2289160D01*
X620180Y2622493D01*
X613516Y2640801D01*
X610132Y2659993D01*
X604947Y2664343D01*
X602633Y2670702D01*
X585759Y2680444D01*
X570832Y2692970D01*
X561089Y2694687D01*
X558204Y2696354D01*
X554921Y2695775D01*
X545180Y2697493D01*
X-454819Y2697493D01*
X-473127Y2690829D01*
X-492319Y2687445D01*
X-496669Y2682260D01*
X-503028Y2679946D01*
X-512770Y2663072D01*
X-525296Y2648145D01*
X-527013Y2638402D01*
X-528680Y2635517D01*
X-528101Y2632234D01*
X-529819Y2622493D01*
X-529819Y2241541D01*
X-672676Y2241541D01*
X-672676Y3241541D01*
X-529819Y3241541D01*
X-528285Y3237327D01*
X-529327Y3232967D01*
X-521901Y3208000D01*
X-474282Y3112762D01*
X-473094Y3111637D01*
X-460232Y3093269D01*
X-412613Y3045651D01*
X-411131Y3044960D01*
X-393121Y3031602D01*
X-297883Y2983983D01*
X-293429Y2983470D01*
X-289994Y2980588D01*
X-264342Y2976065D01*
X-169104Y2976065D01*
X-164890Y2977598D01*
X-160530Y2976557D01*
X-135563Y2983983D01*
X-40325Y3031602D01*
X-39199Y3032791D01*
X-20833Y3045651D01*
X26786Y3093270D01*
X27477Y3094752D01*
X40835Y3112763D01*
X88453Y3208001D01*
X88858Y3211527D01*
X94132Y3223351D01*
X139754Y3405841D01*
X178248Y3482828D01*
X208655Y3513235D01*
X277171Y3547493D01*
X336999Y3547493D01*
X405515Y3513234D01*
X435922Y3482828D01*
X470180Y3414312D01*
X470180Y3206092D01*
X426410Y3074782D01*
X427811Y3023498D01*
X461848Y2985113D01*
X512597Y2977588D01*
X556309Y3004443D01*
X568712Y3027348D01*
X616331Y3170204D01*
X616286Y3171839D01*
X620180Y3193922D01*
X620180Y3432017D01*
X618646Y3436230D01*
X619688Y3440592D01*
X612262Y3465558D01*
X564643Y3560796D01*
X563453Y3561921D01*
X550594Y3580288D01*
X502975Y3627907D01*
X501493Y3628597D01*
X483483Y3641956D01*
X388245Y3689575D01*
X383791Y3690087D01*
X380356Y3692970D01*
X354704Y3697493D01*
X259466Y3697493D01*
X255252Y3695959D01*
X250891Y3697001D01*
X225925Y3689575D01*
X130687Y3641956D01*
X129561Y3640766D01*
X111195Y3627907D01*
X63576Y3580288D01*
X62885Y3578806D01*
X49527Y3560796D01*
X1908Y3465558D01*
X1501Y3462029D01*
X-3771Y3450207D01*
X-49393Y3267716D01*
X-87885Y3190730D01*
X-118292Y3160323D01*
X-186809Y3126065D01*
X-246637Y3126065D01*
X-315153Y3160323D01*
X-345561Y3190730D01*
X-379819Y3259246D01*
X-379819Y3467465D01*
X-336049Y3598775D01*
X-337450Y3650059D01*
X-371488Y3688445D01*
X-422236Y3695970D01*
X-465949Y3669115D01*
X-478351Y3646210D01*
X-525970Y3503353D01*
X-525925Y3501718D01*
X-529819Y3479636D01*
X-529819Y3241541D01*
X-672676Y3241541D01*
X-672676Y4241541D01*
X-529819Y4241541D01*
X-528285Y4237327D01*
X-529327Y4232967D01*
X-521901Y4208000D01*
X-474282Y4112762D01*
X-473094Y4111637D01*
X-460232Y4093269D01*
X-412613Y4045651D01*
X-411131Y4044960D01*
X-393121Y4031602D01*
X-297883Y3983983D01*
X-293429Y3983470D01*
X-289994Y3980588D01*
X-264342Y3976065D01*
X545180Y3976065D01*
X593389Y3993612D01*
X619041Y4038041D01*
X610132Y4088565D01*
X570832Y4121542D01*
X545180Y4126065D01*
X-246637Y4126065D01*
X-315153Y4160323D01*
X-345561Y4190730D01*
X-379819Y4259246D01*
X-379819Y4414312D01*
X-345561Y4482827D01*
X-315153Y4513234D01*
X-246637Y4547493D01*
X545180Y4547493D01*
X593389Y4565040D01*
X619041Y4609469D01*
X610132Y4659993D01*
X570832Y4692970D01*
X545180Y4697493D01*
X-264342Y4697493D01*
X-268555Y4695959D01*
X-272917Y4697001D01*
X-297883Y4689575D01*
X-393121Y4641956D01*
X-394246Y4640767D01*
X-412613Y4627907D01*
X-460232Y4580289D01*
X-460922Y4578807D01*
X-474282Y4560796D01*
X-521901Y4465558D01*
X-522413Y4461104D01*
X-525296Y4457669D01*
X-529819Y4432017D01*
X-529819Y4241541D01*
X-672676Y4241541D01*
X-672676Y4840350D01*
X763037Y4840350D01*
X763037Y71589D01*
G37*
G36*
X137163037Y-137428696D02*
G01*
X135727323Y-137428696D01*
X135727323Y-137020363D01*
X135870180Y-137020363D01*
X135871713Y-137024576D01*
X135870672Y-137028938D01*
X135878098Y-137053905D01*
X135925718Y-137149143D01*
X135926909Y-137150270D01*
X135939767Y-137168634D01*
X135987386Y-137216253D01*
X135988867Y-137216944D01*
X136006878Y-137230302D01*
X136102116Y-137277921D01*
X136106569Y-137278433D01*
X136110005Y-137281316D01*
X136135657Y-137285839D01*
X136373752Y-137285839D01*
X136377965Y-137284305D01*
X136382326Y-137285347D01*
X136407293Y-137277921D01*
X136502531Y-137230302D01*
X136503656Y-137229112D01*
X136522023Y-137216253D01*
X136569642Y-137168634D01*
X136570333Y-137167152D01*
X136583691Y-137149142D01*
X136631310Y-137053904D01*
X136631822Y-137049450D01*
X136634705Y-137046015D01*
X136635802Y-137039791D01*
X136895792Y-137267282D01*
X136914643Y-137274588D01*
X136932156Y-137284700D01*
X136938049Y-137283660D01*
X136943628Y-137285823D01*
X136962767Y-137279302D01*
X136982680Y-137275791D01*
X136986525Y-137271207D01*
X136992190Y-137269278D01*
X137002660Y-137251979D01*
X137015657Y-137236491D01*
X137017145Y-137228047D01*
X137018755Y-137225389D01*
X137018221Y-137221947D01*
X137020180Y-137210839D01*
X137020180Y-136591792D01*
X137002633Y-136543583D01*
X136958204Y-136517931D01*
X136907680Y-136526840D01*
X136874703Y-136566140D01*
X136870180Y-136591792D01*
X136870180Y-137045556D01*
X136613616Y-136821063D01*
X136594764Y-136813756D01*
X136577252Y-136803645D01*
X136571358Y-136804684D01*
X136565780Y-136802522D01*
X136546640Y-136809042D01*
X136526728Y-136812554D01*
X136522882Y-136817137D01*
X136517218Y-136819067D01*
X136506747Y-136836365D01*
X136493751Y-136851854D01*
X136492262Y-136860297D01*
X136490653Y-136862956D01*
X136491186Y-136866397D01*
X136489228Y-136877506D01*
X136489228Y-137002658D01*
X136454970Y-137071174D01*
X136424563Y-137101581D01*
X136356047Y-137135839D01*
X136153362Y-137135839D01*
X136084846Y-137101581D01*
X136054438Y-137071173D01*
X136020180Y-137002656D01*
X136020180Y-136752355D01*
X136054438Y-136683838D01*
X136093452Y-136644825D01*
X136115133Y-136598329D01*
X136101856Y-136548774D01*
X136059830Y-136519348D01*
X136008723Y-136523819D01*
X135987386Y-136538759D01*
X135939767Y-136586378D01*
X135939075Y-136587860D01*
X135925718Y-136605869D01*
X135878098Y-136701107D01*
X135877585Y-136705561D01*
X135874703Y-136708997D01*
X135870180Y-136734649D01*
X135870180Y-137020363D01*
X135727323Y-137020363D01*
X135727323Y-136375074D01*
X137163037Y-136375074D01*
X137163037Y-137428696D01*
G37*
G36*
X197004814Y-140522676D02*
G01*
X192095187Y-140522676D01*
X192095187Y-139910842D01*
X192238044Y-139910842D01*
X192246953Y-139961366D01*
X192286253Y-139994343D01*
X192311905Y-139998866D01*
X192617857Y-139998866D01*
X192617857Y-140304819D01*
X192635404Y-140353028D01*
X192679833Y-140378680D01*
X192730357Y-140369771D01*
X192763334Y-140330471D01*
X192767857Y-140304819D01*
X192767857Y-139998866D01*
X193073810Y-139998866D01*
X193122019Y-139981319D01*
X193147671Y-139936890D01*
X193138762Y-139886366D01*
X193099462Y-139853389D01*
X193073810Y-139848866D01*
X192767857Y-139848866D01*
X192767857Y-139542914D01*
X192750310Y-139494705D01*
X192705881Y-139469053D01*
X192655357Y-139477962D01*
X192622380Y-139517262D01*
X192617857Y-139542914D01*
X192617857Y-139848866D01*
X192311905Y-139848866D01*
X192263696Y-139866413D01*
X192238044Y-139910842D01*
X192095187Y-139910842D01*
X192095187Y-139291795D01*
X194142806Y-139291795D01*
X194151715Y-139342319D01*
X194191015Y-139375296D01*
X194216667Y-139379819D01*
X194670432Y-139379819D01*
X194445938Y-139636383D01*
X194438631Y-139655234D01*
X194428520Y-139672747D01*
X194429559Y-139678640D01*
X194427397Y-139684219D01*
X194433917Y-139703358D01*
X194437429Y-139723271D01*
X194442012Y-139727116D01*
X194443942Y-139732781D01*
X194461240Y-139743251D01*
X194476729Y-139756248D01*
X194485172Y-139757736D01*
X194487831Y-139759346D01*
X194491272Y-139758812D01*
X194502381Y-139760771D01*
X194627533Y-139760771D01*
X194696049Y-139795029D01*
X194726456Y-139825436D01*
X194760714Y-139893952D01*
X194760714Y-140096636D01*
X194726455Y-140165153D01*
X194696048Y-140195561D01*
X194627533Y-140229819D01*
X194377229Y-140229819D01*
X194308713Y-140195561D01*
X194269701Y-140156548D01*
X194223204Y-140134866D01*
X194173649Y-140148143D01*
X194144223Y-140190168D01*
X194148693Y-140241275D01*
X194163633Y-140262612D01*
X194211252Y-140310232D01*
X194212733Y-140310922D01*
X194230745Y-140324282D01*
X194325983Y-140371901D01*
X194330436Y-140372413D01*
X194333872Y-140375296D01*
X194359524Y-140379819D01*
X194645238Y-140379819D01*
X194649451Y-140378285D01*
X194653812Y-140379327D01*
X194678779Y-140371901D01*
X194774017Y-140324282D01*
X194775141Y-140323094D01*
X194793510Y-140310232D01*
X194841128Y-140262613D01*
X194841818Y-140261131D01*
X194855177Y-140243121D01*
X194902796Y-140147883D01*
X194903308Y-140143429D01*
X194906191Y-140139994D01*
X194910714Y-140114342D01*
X194910714Y-139910842D01*
X195952330Y-139910842D01*
X195961239Y-139961366D01*
X196000539Y-139994343D01*
X196026191Y-139998866D01*
X196788096Y-139998866D01*
X196836305Y-139981319D01*
X196861957Y-139936890D01*
X196853048Y-139886366D01*
X196813748Y-139853389D01*
X196788096Y-139848866D01*
X196026191Y-139848866D01*
X195977982Y-139866413D01*
X195952330Y-139910842D01*
X194910714Y-139910842D01*
X194910714Y-139876247D01*
X194909180Y-139872033D01*
X194910222Y-139867672D01*
X194902796Y-139842706D01*
X194855177Y-139747468D01*
X194853987Y-139746342D01*
X194841128Y-139727976D01*
X194793509Y-139680357D01*
X194792027Y-139679666D01*
X194774017Y-139666308D01*
X194678779Y-139618689D01*
X194674325Y-139618176D01*
X194670890Y-139615294D01*
X194664666Y-139614196D01*
X194892157Y-139354207D01*
X194899463Y-139335355D01*
X194909575Y-139317843D01*
X194908535Y-139311949D01*
X194910698Y-139306371D01*
X194904177Y-139287231D01*
X194900666Y-139267319D01*
X194896082Y-139263473D01*
X194894153Y-139257809D01*
X194876854Y-139247338D01*
X194861366Y-139234342D01*
X194852922Y-139232853D01*
X194850264Y-139231244D01*
X194846822Y-139231777D01*
X194835714Y-139229819D01*
X194216667Y-139229819D01*
X194168458Y-139247366D01*
X194142806Y-139291795D01*
X192095187Y-139291795D01*
X192095187Y-139086962D01*
X197004814Y-139086962D01*
X197004814Y-140522676D01*
G37*
G36*
X152113979Y-130897609D02*
G01*
X152185922Y-130969552D01*
X152220180Y-131038068D01*
X152220180Y-131193133D01*
X152185922Y-131261649D01*
X152113979Y-131333592D01*
X151952613Y-131373934D01*
X151637748Y-131373934D01*
X151476381Y-131333592D01*
X151404438Y-131261649D01*
X151370180Y-131193132D01*
X151370180Y-131038069D01*
X151404438Y-130969552D01*
X151476381Y-130897609D01*
X151637748Y-130857268D01*
X151952613Y-130857268D01*
X152113979Y-130897609D01*
G37*
G36*
X152220180Y-130193134D02*
G01*
X152185922Y-130261649D01*
X152155515Y-130292056D01*
X152086999Y-130326315D01*
X151979552Y-130326315D01*
X151911036Y-130292056D01*
X151880629Y-130261649D01*
X151846371Y-130193134D01*
X151846371Y-129904887D01*
X152220180Y-129904887D01*
X152220180Y-130193134D01*
G37*
G36*
X152513037Y-132522795D02*
G01*
X151077323Y-132522795D01*
X151077323Y-132007339D01*
X151221319Y-132007339D01*
X151230228Y-132057863D01*
X151269528Y-132090840D01*
X151295180Y-132095363D01*
X152220180Y-132095363D01*
X152220180Y-132306077D01*
X152237727Y-132354286D01*
X152282156Y-132379938D01*
X152332680Y-132371029D01*
X152365657Y-132331729D01*
X152370180Y-132306077D01*
X152370180Y-131734649D01*
X152352633Y-131686440D01*
X152308204Y-131660788D01*
X152257680Y-131669697D01*
X152224703Y-131708997D01*
X152220180Y-131734649D01*
X152220180Y-131945363D01*
X151295180Y-131945363D01*
X151246971Y-131962910D01*
X151221319Y-132007339D01*
X151077323Y-132007339D01*
X151077323Y-131210839D01*
X151220180Y-131210839D01*
X151221713Y-131215052D01*
X151220672Y-131219414D01*
X151228098Y-131244381D01*
X151275718Y-131339619D01*
X151276909Y-131340746D01*
X151289767Y-131359110D01*
X151385005Y-131454348D01*
X151391712Y-131457475D01*
X151396059Y-131463466D01*
X151419848Y-131474076D01*
X151610324Y-131521695D01*
X151613772Y-131521334D01*
X151628514Y-131523934D01*
X151961847Y-131523934D01*
X151965104Y-131522748D01*
X151980037Y-131521695D01*
X152170513Y-131474076D01*
X152176646Y-131469933D01*
X152184019Y-131469288D01*
X152205356Y-131454348D01*
X152300594Y-131359110D01*
X152301284Y-131357628D01*
X152314643Y-131339618D01*
X152362262Y-131244380D01*
X152362774Y-131239926D01*
X152365657Y-131236491D01*
X152370180Y-131210839D01*
X152370180Y-131020363D01*
X152368646Y-131016149D01*
X152369688Y-131011788D01*
X152362262Y-130986822D01*
X152314643Y-130891584D01*
X152313456Y-130890460D01*
X152300594Y-130872092D01*
X152205356Y-130776854D01*
X152198648Y-130773726D01*
X152194302Y-130767736D01*
X152170513Y-130757126D01*
X151980037Y-130709507D01*
X151976588Y-130709867D01*
X151961847Y-130707268D01*
X151628514Y-130707268D01*
X151625256Y-130708453D01*
X151610324Y-130709507D01*
X151419848Y-130757126D01*
X151413715Y-130761267D01*
X151406342Y-130761913D01*
X151385005Y-130776854D01*
X151289767Y-130872092D01*
X151289075Y-130873574D01*
X151275718Y-130891583D01*
X151228098Y-130986821D01*
X151227585Y-130991275D01*
X151224703Y-130994711D01*
X151220180Y-131020363D01*
X151220180Y-131210839D01*
X151077323Y-131210839D01*
X151077323Y-129816863D01*
X151221319Y-129816863D01*
X151230228Y-129867387D01*
X151269528Y-129900364D01*
X151295180Y-129904887D01*
X151696371Y-129904887D01*
X151696371Y-130210839D01*
X151697904Y-130215052D01*
X151696863Y-130219413D01*
X151704289Y-130244380D01*
X151751908Y-130339618D01*
X151753097Y-130340743D01*
X151765957Y-130359110D01*
X151813576Y-130406729D01*
X151815057Y-130407420D01*
X151833068Y-130420778D01*
X151928306Y-130468397D01*
X151932759Y-130468909D01*
X151936195Y-130471792D01*
X151961847Y-130476315D01*
X152104704Y-130476315D01*
X152108917Y-130474781D01*
X152113278Y-130475823D01*
X152138245Y-130468397D01*
X152233483Y-130420778D01*
X152234608Y-130419588D01*
X152252975Y-130406729D01*
X152300594Y-130359110D01*
X152301285Y-130357628D01*
X152314643Y-130339618D01*
X152362262Y-130244380D01*
X152362774Y-130239926D01*
X152365657Y-130236491D01*
X152370180Y-130210839D01*
X152370180Y-129829887D01*
X152363516Y-129811578D01*
X152360132Y-129792387D01*
X152354947Y-129788036D01*
X152352633Y-129781678D01*
X152335759Y-129771935D01*
X152320832Y-129759410D01*
X152311089Y-129757692D01*
X152308204Y-129756026D01*
X152304921Y-129756604D01*
X152295180Y-129754887D01*
X151295180Y-129754887D01*
X151246971Y-129772434D01*
X151221319Y-129816863D01*
X151077323Y-129816863D01*
X151077323Y-129612030D01*
X152513037Y-129612030D01*
X152513037Y-132522795D01*
G37*
D11*
X134971590Y-111467857D02*
X134923971Y-111610714D01*
X134923971Y-111610714D02*
X134876352Y-111658333D01*
X134876352Y-111658333D02*
X134781114Y-111705952D01*
X134781114Y-111705952D02*
X134638257Y-111705952D01*
X134638257Y-111705952D02*
X134543019Y-111658333D01*
X134543019Y-111658333D02*
X134495400Y-111610714D01*
X134495400Y-111610714D02*
X134447780Y-111515476D01*
X134447780Y-111515476D02*
X134447780Y-111134524D01*
X134447780Y-111134524D02*
X135447780Y-111134524D01*
X135447780Y-111134524D02*
X135447780Y-111467857D01*
X135447780Y-111467857D02*
X135400161Y-111563095D01*
X135400161Y-111563095D02*
X135352542Y-111610714D01*
X135352542Y-111610714D02*
X135257304Y-111658333D01*
X135257304Y-111658333D02*
X135162066Y-111658333D01*
X135162066Y-111658333D02*
X135066828Y-111610714D01*
X135066828Y-111610714D02*
X135019209Y-111563095D01*
X135019209Y-111563095D02*
X134971590Y-111467857D01*
X134971590Y-111467857D02*
X134971590Y-111134524D01*
X135447780Y-112325000D02*
X135447780Y-112515476D01*
X135447780Y-112515476D02*
X135400161Y-112610714D01*
X135400161Y-112610714D02*
X135304923Y-112705952D01*
X135304923Y-112705952D02*
X135114447Y-112753571D01*
X135114447Y-112753571D02*
X134781114Y-112753571D01*
X134781114Y-112753571D02*
X134590638Y-112705952D01*
X134590638Y-112705952D02*
X134495400Y-112610714D01*
X134495400Y-112610714D02*
X134447780Y-112515476D01*
X134447780Y-112515476D02*
X134447780Y-112325000D01*
X134447780Y-112325000D02*
X134495400Y-112229762D01*
X134495400Y-112229762D02*
X134590638Y-112134524D01*
X134590638Y-112134524D02*
X134781114Y-112086905D01*
X134781114Y-112086905D02*
X135114447Y-112086905D01*
X135114447Y-112086905D02*
X135304923Y-112134524D01*
X135304923Y-112134524D02*
X135400161Y-112229762D01*
X135400161Y-112229762D02*
X135447780Y-112325000D01*
X135447780Y-113372619D02*
X135447780Y-113563095D01*
X135447780Y-113563095D02*
X135400161Y-113658333D01*
X135400161Y-113658333D02*
X135304923Y-113753571D01*
X135304923Y-113753571D02*
X135114447Y-113801190D01*
X135114447Y-113801190D02*
X134781114Y-113801190D01*
X134781114Y-113801190D02*
X134590638Y-113753571D01*
X134590638Y-113753571D02*
X134495400Y-113658333D01*
X134495400Y-113658333D02*
X134447780Y-113563095D01*
X134447780Y-113563095D02*
X134447780Y-113372619D01*
X134447780Y-113372619D02*
X134495400Y-113277381D01*
X134495400Y-113277381D02*
X134590638Y-113182143D01*
X134590638Y-113182143D02*
X134781114Y-113134524D01*
X134781114Y-113134524D02*
X135114447Y-113134524D01*
X135114447Y-113134524D02*
X135304923Y-113182143D01*
X135304923Y-113182143D02*
X135400161Y-113277381D01*
X135400161Y-113277381D02*
X135447780Y-113372619D01*
X135447780Y-114086905D02*
X135447780Y-114658333D01*
X134447780Y-114372619D02*
X135447780Y-114372619D01*
D10*
G36*
X110845537Y-126003571D02*
G01*
X109409823Y-126003571D01*
X109409823Y-125785714D01*
X109552680Y-125785714D01*
X109570227Y-125833923D01*
X109614656Y-125859575D01*
X109665180Y-125850666D01*
X109698157Y-125811366D01*
X109702680Y-125785714D01*
X109702680Y-125347732D01*
X110146076Y-125791128D01*
X110150140Y-125793023D01*
X110152487Y-125796843D01*
X110175392Y-125809246D01*
X110318248Y-125856865D01*
X110319883Y-125856820D01*
X110341966Y-125860714D01*
X110437204Y-125860714D01*
X110441417Y-125859180D01*
X110445778Y-125860222D01*
X110470745Y-125852796D01*
X110565983Y-125805177D01*
X110567108Y-125803987D01*
X110585475Y-125791128D01*
X110633094Y-125743509D01*
X110633785Y-125742027D01*
X110647143Y-125724017D01*
X110694762Y-125628779D01*
X110695274Y-125624325D01*
X110698157Y-125620890D01*
X110702680Y-125595238D01*
X110702680Y-125357143D01*
X110701146Y-125352929D01*
X110702188Y-125348568D01*
X110694762Y-125323602D01*
X110647143Y-125228364D01*
X110645953Y-125227238D01*
X110633094Y-125208872D01*
X110585475Y-125161253D01*
X110538978Y-125139572D01*
X110489424Y-125152849D01*
X110459997Y-125194875D01*
X110464469Y-125245982D01*
X110479409Y-125267319D01*
X110518422Y-125306332D01*
X110552680Y-125374847D01*
X110552680Y-125577533D01*
X110518422Y-125646049D01*
X110488015Y-125676455D01*
X110419499Y-125710714D01*
X110354136Y-125710714D01*
X110239622Y-125672542D01*
X109680713Y-125113634D01*
X109660259Y-125104096D01*
X109640704Y-125092806D01*
X109637323Y-125093402D01*
X109634216Y-125091953D01*
X109612413Y-125097794D01*
X109590180Y-125101715D01*
X109587975Y-125104342D01*
X109584662Y-125105230D01*
X109571713Y-125123721D01*
X109557203Y-125141015D01*
X109556394Y-125145599D01*
X109555235Y-125147256D01*
X109555522Y-125150544D01*
X109552680Y-125166667D01*
X109552680Y-125785714D01*
X109409823Y-125785714D01*
X109409823Y-124949096D01*
X110845537Y-124949096D01*
X110845537Y-126003571D01*
G37*
G36*
X200370180Y-143432525D02*
G01*
X200335921Y-143501042D01*
X200305515Y-143531449D01*
X200236999Y-143565707D01*
X200129552Y-143565707D01*
X200061036Y-143531449D01*
X200030629Y-143501042D01*
X199996371Y-143432526D01*
X199996371Y-143144279D01*
X200370180Y-143144279D01*
X200370180Y-143432525D01*
G37*
G36*
X200263979Y-142089382D02*
G01*
X200335922Y-142161325D01*
X200370180Y-142229841D01*
X200370180Y-142384907D01*
X200335922Y-142453422D01*
X200263979Y-142525365D01*
X200102613Y-142565707D01*
X199787748Y-142565707D01*
X199626381Y-142525365D01*
X199554438Y-142453422D01*
X199520180Y-142384905D01*
X199520180Y-142229842D01*
X199554438Y-142161325D01*
X199626381Y-142089382D01*
X199787748Y-142049041D01*
X200102613Y-142049041D01*
X200263979Y-142089382D01*
G37*
G36*
X200263979Y-140279858D02*
G01*
X200335922Y-140351801D01*
X200370180Y-140420317D01*
X200370180Y-140575383D01*
X200335922Y-140643899D01*
X200263979Y-140715841D01*
X200102613Y-140756183D01*
X199787748Y-140756183D01*
X199626381Y-140715841D01*
X199554438Y-140643898D01*
X199520180Y-140575381D01*
X199520180Y-140420318D01*
X199554438Y-140351801D01*
X199626381Y-140279858D01*
X199787748Y-140239517D01*
X200102613Y-140239517D01*
X200263979Y-140279858D01*
G37*
G36*
X200663037Y-144810945D02*
G01*
X199227323Y-144810945D01*
X199227323Y-144402612D01*
X199370180Y-144402612D01*
X199371713Y-144406825D01*
X199370672Y-144411187D01*
X199378098Y-144436154D01*
X199425718Y-144531392D01*
X199426909Y-144532519D01*
X199439767Y-144550883D01*
X199487386Y-144598502D01*
X199488867Y-144599193D01*
X199506878Y-144612551D01*
X199602116Y-144660170D01*
X199606569Y-144660682D01*
X199610005Y-144663565D01*
X199635657Y-144668088D01*
X199730895Y-144668088D01*
X199735108Y-144666554D01*
X199739469Y-144667596D01*
X199764436Y-144660170D01*
X199859674Y-144612551D01*
X199860799Y-144611361D01*
X199879166Y-144598502D01*
X199926785Y-144550883D01*
X199927476Y-144549401D01*
X199940834Y-144531391D01*
X199988453Y-144436153D01*
X199988859Y-144432624D01*
X199994132Y-144420802D01*
X200039754Y-144238311D01*
X200078247Y-144161325D01*
X200108655Y-144130918D01*
X200177171Y-144096660D01*
X200236999Y-144096660D01*
X200305515Y-144130918D01*
X200335922Y-144161325D01*
X200370180Y-144229841D01*
X200370180Y-144438060D01*
X200326410Y-144569371D01*
X200327811Y-144620655D01*
X200361848Y-144659040D01*
X200412597Y-144666565D01*
X200456309Y-144639710D01*
X200468712Y-144616805D01*
X200516331Y-144473949D01*
X200516286Y-144472313D01*
X200520180Y-144450231D01*
X200520180Y-144212136D01*
X200518646Y-144207922D01*
X200519688Y-144203561D01*
X200512262Y-144178595D01*
X200464643Y-144083357D01*
X200463453Y-144082231D01*
X200450594Y-144063865D01*
X200402975Y-144016246D01*
X200401493Y-144015555D01*
X200383483Y-144002197D01*
X200288245Y-143954578D01*
X200283791Y-143954065D01*
X200280356Y-143951183D01*
X200254704Y-143946660D01*
X200159466Y-143946660D01*
X200155252Y-143948193D01*
X200150891Y-143947152D01*
X200125925Y-143954578D01*
X200030687Y-144002197D01*
X200029561Y-144003386D01*
X200011195Y-144016246D01*
X199963576Y-144063865D01*
X199962885Y-144065346D01*
X199949527Y-144083357D01*
X199901908Y-144178595D01*
X199901501Y-144182123D01*
X199896229Y-144193946D01*
X199850606Y-144376436D01*
X199812113Y-144453422D01*
X199781705Y-144483830D01*
X199713190Y-144518088D01*
X199653362Y-144518088D01*
X199584846Y-144483829D01*
X199554438Y-144453422D01*
X199520180Y-144384905D01*
X199520180Y-144176688D01*
X199563951Y-144045377D01*
X199562550Y-143994093D01*
X199528513Y-143955708D01*
X199477765Y-143948182D01*
X199434052Y-143975037D01*
X199421649Y-143997942D01*
X199374029Y-144140799D01*
X199374073Y-144142434D01*
X199370180Y-144164517D01*
X199370180Y-144402612D01*
X199227323Y-144402612D01*
X199227323Y-143056255D01*
X199371319Y-143056255D01*
X199380228Y-143106779D01*
X199419528Y-143139756D01*
X199445180Y-143144279D01*
X199846371Y-143144279D01*
X199846371Y-143268324D01*
X199402170Y-143579265D01*
X199372739Y-143621286D01*
X199377202Y-143672394D01*
X199413474Y-143708676D01*
X199464581Y-143713154D01*
X199488190Y-143702149D01*
X199846716Y-143451180D01*
X199847904Y-143454444D01*
X199846863Y-143458805D01*
X199854289Y-143483772D01*
X199901908Y-143579010D01*
X199903097Y-143580135D01*
X199915957Y-143598502D01*
X199963576Y-143646121D01*
X199965057Y-143646812D01*
X199983068Y-143660170D01*
X200078306Y-143707789D01*
X200082759Y-143708301D01*
X200086195Y-143711184D01*
X200111847Y-143715707D01*
X200254704Y-143715707D01*
X200258917Y-143714173D01*
X200263278Y-143715215D01*
X200288245Y-143707789D01*
X200383483Y-143660170D01*
X200384608Y-143658980D01*
X200402975Y-143646121D01*
X200450594Y-143598502D01*
X200451285Y-143597020D01*
X200464643Y-143579010D01*
X200512262Y-143483772D01*
X200512774Y-143479318D01*
X200515657Y-143475883D01*
X200520180Y-143450231D01*
X200520180Y-143069279D01*
X200513516Y-143050970D01*
X200510132Y-143031779D01*
X200504947Y-143027428D01*
X200502633Y-143021070D01*
X200485759Y-143011327D01*
X200470832Y-142998802D01*
X200461089Y-142997084D01*
X200458204Y-142995418D01*
X200454921Y-142995996D01*
X200445180Y-142994279D01*
X199445180Y-142994279D01*
X199396971Y-143011826D01*
X199371319Y-143056255D01*
X199227323Y-143056255D01*
X199227323Y-142402612D01*
X199370180Y-142402612D01*
X199371713Y-142406825D01*
X199370672Y-142411187D01*
X199378098Y-142436154D01*
X199425718Y-142531392D01*
X199426909Y-142532519D01*
X199439767Y-142550883D01*
X199535005Y-142646121D01*
X199541712Y-142649248D01*
X199546059Y-142655239D01*
X199569848Y-142665849D01*
X199760324Y-142713468D01*
X199763772Y-142713107D01*
X199778514Y-142715707D01*
X200111847Y-142715707D01*
X200115104Y-142714521D01*
X200130037Y-142713468D01*
X200320513Y-142665849D01*
X200326646Y-142661706D01*
X200334019Y-142661061D01*
X200355356Y-142646121D01*
X200450594Y-142550883D01*
X200451284Y-142549401D01*
X200464643Y-142531391D01*
X200512262Y-142436153D01*
X200512774Y-142431699D01*
X200515657Y-142428264D01*
X200520180Y-142402612D01*
X200520180Y-142212136D01*
X200518646Y-142207922D01*
X200519688Y-142203561D01*
X200512262Y-142178595D01*
X200464643Y-142083357D01*
X200463456Y-142082233D01*
X200450594Y-142063865D01*
X200355356Y-141968627D01*
X200348648Y-141965499D01*
X200344302Y-141959509D01*
X200320513Y-141948899D01*
X200130037Y-141901280D01*
X200126588Y-141901640D01*
X200111847Y-141899041D01*
X199778514Y-141899041D01*
X199775256Y-141900226D01*
X199760324Y-141901280D01*
X199569848Y-141948899D01*
X199563715Y-141953040D01*
X199556342Y-141953686D01*
X199535005Y-141968627D01*
X199439767Y-142063865D01*
X199439075Y-142065347D01*
X199425718Y-142083356D01*
X199378098Y-142178594D01*
X199377585Y-142183048D01*
X199374703Y-142186484D01*
X199370180Y-142212136D01*
X199370180Y-142402612D01*
X199227323Y-142402612D01*
X199227323Y-141389588D01*
X199371319Y-141389588D01*
X199380228Y-141440112D01*
X199419528Y-141473089D01*
X199445180Y-141477612D01*
X200370180Y-141477612D01*
X200370180Y-141688326D01*
X200387727Y-141736535D01*
X200432156Y-141762187D01*
X200482680Y-141753278D01*
X200515657Y-141713978D01*
X200520180Y-141688326D01*
X200520180Y-141116898D01*
X200502633Y-141068689D01*
X200458204Y-141043037D01*
X200407680Y-141051946D01*
X200374703Y-141091246D01*
X200370180Y-141116898D01*
X200370180Y-141327612D01*
X199445180Y-141327612D01*
X199396971Y-141345159D01*
X199371319Y-141389588D01*
X199227323Y-141389588D01*
X199227323Y-140593088D01*
X199370180Y-140593088D01*
X199371713Y-140597301D01*
X199370672Y-140601663D01*
X199378098Y-140626630D01*
X199425718Y-140721868D01*
X199426909Y-140722995D01*
X199439767Y-140741359D01*
X199535005Y-140836597D01*
X199541712Y-140839724D01*
X199546059Y-140845715D01*
X199569848Y-140856325D01*
X199760324Y-140903944D01*
X199763772Y-140903583D01*
X199778514Y-140906183D01*
X200111847Y-140906183D01*
X200115104Y-140904997D01*
X200130037Y-140903944D01*
X200320513Y-140856325D01*
X200326646Y-140852182D01*
X200334019Y-140851537D01*
X200355356Y-140836597D01*
X200450594Y-140741359D01*
X200451284Y-140739877D01*
X200464643Y-140721867D01*
X200512262Y-140626629D01*
X200512774Y-140622175D01*
X200515657Y-140618740D01*
X200520180Y-140593088D01*
X200520180Y-140402612D01*
X200518646Y-140398398D01*
X200519688Y-140394037D01*
X200512262Y-140369071D01*
X200464643Y-140273833D01*
X200463456Y-140272709D01*
X200450594Y-140254341D01*
X200355356Y-140159103D01*
X200348648Y-140155975D01*
X200344302Y-140149985D01*
X200320513Y-140139375D01*
X200130037Y-140091756D01*
X200126588Y-140092116D01*
X200111847Y-140089517D01*
X199778514Y-140089517D01*
X199775256Y-140090702D01*
X199760324Y-140091756D01*
X199569848Y-140139375D01*
X199563715Y-140143516D01*
X199556342Y-140144162D01*
X199535005Y-140159103D01*
X199439767Y-140254341D01*
X199439075Y-140255823D01*
X199425718Y-140273832D01*
X199378098Y-140369070D01*
X199377585Y-140373524D01*
X199374703Y-140376960D01*
X199370180Y-140402612D01*
X199370180Y-140593088D01*
X199227323Y-140593088D01*
X199227323Y-139722921D01*
X199371319Y-139722921D01*
X199380228Y-139773445D01*
X199419528Y-139806422D01*
X199445180Y-139810945D01*
X200445180Y-139810945D01*
X200454592Y-139807519D01*
X200464570Y-139808395D01*
X200477994Y-139799001D01*
X200493389Y-139793398D01*
X200498396Y-139784725D01*
X200506604Y-139778982D01*
X200510849Y-139763156D01*
X200519041Y-139748969D01*
X200517301Y-139739105D01*
X200519897Y-139729431D01*
X200512977Y-139714579D01*
X200510132Y-139698445D01*
X200502459Y-139692006D01*
X200498229Y-139682928D01*
X200476897Y-139667981D01*
X199908248Y-139402612D01*
X200476897Y-139137243D01*
X200483978Y-139130157D01*
X200493389Y-139126732D01*
X200501581Y-139112543D01*
X200513162Y-139100955D01*
X200514032Y-139090978D01*
X200519041Y-139082303D01*
X200516196Y-139066169D01*
X200517620Y-139049846D01*
X200511871Y-139041641D01*
X200510132Y-139031779D01*
X200497581Y-139021248D01*
X200488180Y-139007830D01*
X200478505Y-139005240D01*
X200470832Y-138998802D01*
X200445180Y-138994279D01*
X199445180Y-138994279D01*
X199396971Y-139011826D01*
X199371319Y-139056255D01*
X199380228Y-139106779D01*
X199419528Y-139139756D01*
X199445180Y-139144279D01*
X200107113Y-139144279D01*
X199699179Y-139334648D01*
X199685421Y-139348413D01*
X199669471Y-139359575D01*
X199667711Y-139366134D01*
X199662913Y-139370936D01*
X199661222Y-139390323D01*
X199656178Y-139409127D01*
X199659045Y-139415281D01*
X199658456Y-139422045D01*
X199669624Y-139437985D01*
X199677846Y-139455629D01*
X199685980Y-139461328D01*
X199687895Y-139464061D01*
X199691107Y-139464920D01*
X199699179Y-139470576D01*
X200107113Y-139660945D01*
X199445180Y-139660945D01*
X199396971Y-139678492D01*
X199371319Y-139722921D01*
X199227323Y-139722921D01*
X199227323Y-138851422D01*
X200663037Y-138851422D01*
X200663037Y-144810945D01*
G37*
X155265118Y-122938106D02*
X155265118Y-123652391D01*
X155265118Y-123652391D02*
X155217499Y-123795248D01*
X155217499Y-123795248D02*
X155122261Y-123890487D01*
X155122261Y-123890487D02*
X154979404Y-123938106D01*
X154979404Y-123938106D02*
X154884166Y-123938106D01*
X156217499Y-123938106D02*
X155741309Y-123938106D01*
X155741309Y-123938106D02*
X155741309Y-122938106D01*
X157122261Y-123842867D02*
X157074642Y-123890487D01*
X157074642Y-123890487D02*
X156931785Y-123938106D01*
X156931785Y-123938106D02*
X156836547Y-123938106D01*
X156836547Y-123938106D02*
X156693690Y-123890487D01*
X156693690Y-123890487D02*
X156598452Y-123795248D01*
X156598452Y-123795248D02*
X156550833Y-123700010D01*
X156550833Y-123700010D02*
X156503214Y-123509534D01*
X156503214Y-123509534D02*
X156503214Y-123366677D01*
X156503214Y-123366677D02*
X156550833Y-123176201D01*
X156550833Y-123176201D02*
X156598452Y-123080963D01*
X156598452Y-123080963D02*
X156693690Y-122985725D01*
X156693690Y-122985725D02*
X156836547Y-122938106D01*
X156836547Y-122938106D02*
X156931785Y-122938106D01*
X156931785Y-122938106D02*
X157074642Y-122985725D01*
X157074642Y-122985725D02*
X157122261Y-123033344D01*
X157836547Y-122938106D02*
X157836547Y-123652391D01*
X157836547Y-123652391D02*
X157788928Y-123795248D01*
X157788928Y-123795248D02*
X157693690Y-123890487D01*
X157693690Y-123890487D02*
X157550833Y-123938106D01*
X157550833Y-123938106D02*
X157455595Y-123938106D01*
X158788928Y-123938106D02*
X158312738Y-123938106D01*
X158312738Y-123938106D02*
X158312738Y-122938106D01*
X159693690Y-123842867D02*
X159646071Y-123890487D01*
X159646071Y-123890487D02*
X159503214Y-123938106D01*
X159503214Y-123938106D02*
X159407976Y-123938106D01*
X159407976Y-123938106D02*
X159265119Y-123890487D01*
X159265119Y-123890487D02*
X159169881Y-123795248D01*
X159169881Y-123795248D02*
X159122262Y-123700010D01*
X159122262Y-123700010D02*
X159074643Y-123509534D01*
X159074643Y-123509534D02*
X159074643Y-123366677D01*
X159074643Y-123366677D02*
X159122262Y-123176201D01*
X159122262Y-123176201D02*
X159169881Y-123080963D01*
X159169881Y-123080963D02*
X159265119Y-122985725D01*
X159265119Y-122985725D02*
X159407976Y-122938106D01*
X159407976Y-122938106D02*
X159503214Y-122938106D01*
X159503214Y-122938106D02*
X159646071Y-122985725D01*
X159646071Y-122985725D02*
X159693690Y-123033344D01*
X160407976Y-122938106D02*
X160407976Y-123652391D01*
X160407976Y-123652391D02*
X160360357Y-123795248D01*
X160360357Y-123795248D02*
X160265119Y-123890487D01*
X160265119Y-123890487D02*
X160122262Y-123938106D01*
X160122262Y-123938106D02*
X160027024Y-123938106D01*
X161360357Y-123938106D02*
X160884167Y-123938106D01*
X160884167Y-123938106D02*
X160884167Y-122938106D01*
X162265119Y-123842867D02*
X162217500Y-123890487D01*
X162217500Y-123890487D02*
X162074643Y-123938106D01*
X162074643Y-123938106D02*
X161979405Y-123938106D01*
X161979405Y-123938106D02*
X161836548Y-123890487D01*
X161836548Y-123890487D02*
X161741310Y-123795248D01*
X161741310Y-123795248D02*
X161693691Y-123700010D01*
X161693691Y-123700010D02*
X161646072Y-123509534D01*
X161646072Y-123509534D02*
X161646072Y-123366677D01*
X161646072Y-123366677D02*
X161693691Y-123176201D01*
X161693691Y-123176201D02*
X161741310Y-123080963D01*
X161741310Y-123080963D02*
X161836548Y-122985725D01*
X161836548Y-122985725D02*
X161979405Y-122938106D01*
X161979405Y-122938106D02*
X162074643Y-122938106D01*
X162074643Y-122938106D02*
X162217500Y-122985725D01*
X162217500Y-122985725D02*
X162265119Y-123033344D01*
X162979405Y-122938106D02*
X162979405Y-123652391D01*
X162979405Y-123652391D02*
X162931786Y-123795248D01*
X162931786Y-123795248D02*
X162836548Y-123890487D01*
X162836548Y-123890487D02*
X162693691Y-123938106D01*
X162693691Y-123938106D02*
X162598453Y-123938106D01*
X163931786Y-123938106D02*
X163455596Y-123938106D01*
X163455596Y-123938106D02*
X163455596Y-122938106D01*
X164836548Y-123842867D02*
X164788929Y-123890487D01*
X164788929Y-123890487D02*
X164646072Y-123938106D01*
X164646072Y-123938106D02*
X164550834Y-123938106D01*
X164550834Y-123938106D02*
X164407977Y-123890487D01*
X164407977Y-123890487D02*
X164312739Y-123795248D01*
X164312739Y-123795248D02*
X164265120Y-123700010D01*
X164265120Y-123700010D02*
X164217501Y-123509534D01*
X164217501Y-123509534D02*
X164217501Y-123366677D01*
X164217501Y-123366677D02*
X164265120Y-123176201D01*
X164265120Y-123176201D02*
X164312739Y-123080963D01*
X164312739Y-123080963D02*
X164407977Y-122985725D01*
X164407977Y-122985725D02*
X164550834Y-122938106D01*
X164550834Y-122938106D02*
X164646072Y-122938106D01*
X164646072Y-122938106D02*
X164788929Y-122985725D01*
X164788929Y-122985725D02*
X164836548Y-123033344D01*
X152083333Y-105425800D02*
X151983333Y-105387704D01*
X151983333Y-105387704D02*
X151816667Y-105387704D01*
X151816667Y-105387704D02*
X151750000Y-105425800D01*
X151750000Y-105425800D02*
X151716667Y-105463895D01*
X151716667Y-105463895D02*
X151683333Y-105540085D01*
X151683333Y-105540085D02*
X151683333Y-105616276D01*
X151683333Y-105616276D02*
X151716667Y-105692466D01*
X151716667Y-105692466D02*
X151750000Y-105730561D01*
X151750000Y-105730561D02*
X151816667Y-105768657D01*
X151816667Y-105768657D02*
X151950000Y-105806752D01*
X151950000Y-105806752D02*
X152016667Y-105844847D01*
X152016667Y-105844847D02*
X152050000Y-105882942D01*
X152050000Y-105882942D02*
X152083333Y-105959133D01*
X152083333Y-105959133D02*
X152083333Y-106035323D01*
X152083333Y-106035323D02*
X152050000Y-106111514D01*
X152050000Y-106111514D02*
X152016667Y-106149609D01*
X152016667Y-106149609D02*
X151950000Y-106187704D01*
X151950000Y-106187704D02*
X151783333Y-106187704D01*
X151783333Y-106187704D02*
X151683333Y-106149609D01*
X150983333Y-105463895D02*
X151016666Y-105425800D01*
X151016666Y-105425800D02*
X151116666Y-105387704D01*
X151116666Y-105387704D02*
X151183333Y-105387704D01*
X151183333Y-105387704D02*
X151283333Y-105425800D01*
X151283333Y-105425800D02*
X151350000Y-105501990D01*
X151350000Y-105501990D02*
X151383333Y-105578180D01*
X151383333Y-105578180D02*
X151416666Y-105730561D01*
X151416666Y-105730561D02*
X151416666Y-105844847D01*
X151416666Y-105844847D02*
X151383333Y-105997228D01*
X151383333Y-105997228D02*
X151350000Y-106073419D01*
X151350000Y-106073419D02*
X151283333Y-106149609D01*
X151283333Y-106149609D02*
X151183333Y-106187704D01*
X151183333Y-106187704D02*
X151116666Y-106187704D01*
X151116666Y-106187704D02*
X151016666Y-106149609D01*
X151016666Y-106149609D02*
X150983333Y-106111514D01*
X150350000Y-105387704D02*
X150683333Y-105387704D01*
X150683333Y-105387704D02*
X150683333Y-106187704D01*
X149616666Y-105425800D02*
X149516666Y-105387704D01*
X149516666Y-105387704D02*
X149350000Y-105387704D01*
X149350000Y-105387704D02*
X149283333Y-105425800D01*
X149283333Y-105425800D02*
X149250000Y-105463895D01*
X149250000Y-105463895D02*
X149216666Y-105540085D01*
X149216666Y-105540085D02*
X149216666Y-105616276D01*
X149216666Y-105616276D02*
X149250000Y-105692466D01*
X149250000Y-105692466D02*
X149283333Y-105730561D01*
X149283333Y-105730561D02*
X149350000Y-105768657D01*
X149350000Y-105768657D02*
X149483333Y-105806752D01*
X149483333Y-105806752D02*
X149550000Y-105844847D01*
X149550000Y-105844847D02*
X149583333Y-105882942D01*
X149583333Y-105882942D02*
X149616666Y-105959133D01*
X149616666Y-105959133D02*
X149616666Y-106035323D01*
X149616666Y-106035323D02*
X149583333Y-106111514D01*
X149583333Y-106111514D02*
X149550000Y-106149609D01*
X149550000Y-106149609D02*
X149483333Y-106187704D01*
X149483333Y-106187704D02*
X149316666Y-106187704D01*
X149316666Y-106187704D02*
X149216666Y-106149609D01*
X148916666Y-105387704D02*
X148916666Y-106187704D01*
X148916666Y-106187704D02*
X148749999Y-106187704D01*
X148749999Y-106187704D02*
X148649999Y-106149609D01*
X148649999Y-106149609D02*
X148583333Y-106073419D01*
X148583333Y-106073419D02*
X148549999Y-105997228D01*
X148549999Y-105997228D02*
X148516666Y-105844847D01*
X148516666Y-105844847D02*
X148516666Y-105730561D01*
X148516666Y-105730561D02*
X148549999Y-105578180D01*
X148549999Y-105578180D02*
X148583333Y-105501990D01*
X148583333Y-105501990D02*
X148649999Y-105425800D01*
X148649999Y-105425800D02*
X148749999Y-105387704D01*
X148749999Y-105387704D02*
X148916666Y-105387704D01*
X148249999Y-105616276D02*
X147916666Y-105616276D01*
X148316666Y-105387704D02*
X148083333Y-106187704D01*
X148083333Y-106187704D02*
X147849999Y-105387704D01*
G36*
X110326490Y-128597671D02*
G01*
X109890776Y-128597671D01*
X109890776Y-128380953D01*
X110033633Y-128380953D01*
X110051180Y-128429162D01*
X110095609Y-128454814D01*
X110146133Y-128445905D01*
X110179110Y-128406605D01*
X110183633Y-128380953D01*
X110183633Y-127619048D01*
X110166086Y-127570839D01*
X110121657Y-127545187D01*
X110071133Y-127554096D01*
X110038156Y-127593396D01*
X110033633Y-127619048D01*
X110033633Y-128380953D01*
X109890776Y-128380953D01*
X109890776Y-127402330D01*
X110326490Y-127402330D01*
X110326490Y-128597671D01*
G37*
X200173866Y-114930951D02*
X200173866Y-114169047D01*
X200554819Y-114549999D02*
X199792914Y-114549999D01*
G36*
X110845382Y-114802432D02*
G01*
X109409823Y-114802432D01*
X109409823Y-114585714D01*
X109552680Y-114585714D01*
X109570227Y-114633923D01*
X109614656Y-114659575D01*
X109665180Y-114650666D01*
X109698157Y-114611366D01*
X109702680Y-114585714D01*
X109702680Y-114375000D01*
X110627680Y-114375000D01*
X110631733Y-114373524D01*
X110635923Y-114374545D01*
X110655435Y-114364897D01*
X110675889Y-114357453D01*
X110678044Y-114353718D01*
X110681912Y-114351807D01*
X110690658Y-114331872D01*
X110701541Y-114313024D01*
X110700792Y-114308776D01*
X110702525Y-114304827D01*
X110696411Y-114283932D01*
X110692632Y-114262500D01*
X110689329Y-114259728D01*
X110688118Y-114255589D01*
X110669283Y-114237596D01*
X110532603Y-114146476D01*
X110451224Y-114065097D01*
X110409048Y-113980745D01*
X110371794Y-113945473D01*
X110320583Y-113942398D01*
X110279378Y-113972962D01*
X110267458Y-114022860D01*
X110274884Y-114047827D01*
X110322503Y-114143065D01*
X110323692Y-114144190D01*
X110336552Y-114162557D01*
X110398995Y-114225000D01*
X109702680Y-114225000D01*
X109702680Y-114014286D01*
X109685133Y-113966077D01*
X109640704Y-113940425D01*
X109590180Y-113949334D01*
X109557203Y-113988634D01*
X109552680Y-114014286D01*
X109552680Y-114585714D01*
X109409823Y-114585714D01*
X109409823Y-113797568D01*
X110845382Y-113797568D01*
X110845382Y-114802432D01*
G37*
G36*
X148962882Y-137427557D02*
G01*
X147527323Y-137427557D01*
X147527323Y-137210839D01*
X147670180Y-137210839D01*
X147687727Y-137259048D01*
X147732156Y-137284700D01*
X147782680Y-137275791D01*
X147815657Y-137236491D01*
X147820180Y-137210839D01*
X147820180Y-137000125D01*
X148745180Y-137000125D01*
X148749233Y-136998649D01*
X148753423Y-136999670D01*
X148772935Y-136990022D01*
X148793389Y-136982578D01*
X148795544Y-136978843D01*
X148799412Y-136976932D01*
X148808158Y-136956997D01*
X148819041Y-136938149D01*
X148818292Y-136933901D01*
X148820025Y-136929952D01*
X148813911Y-136909057D01*
X148810132Y-136887625D01*
X148806829Y-136884853D01*
X148805618Y-136880714D01*
X148786783Y-136862721D01*
X148650102Y-136771601D01*
X148568724Y-136690222D01*
X148526548Y-136605870D01*
X148489294Y-136570598D01*
X148438083Y-136567523D01*
X148396878Y-136598087D01*
X148384958Y-136647985D01*
X148392384Y-136672952D01*
X148440003Y-136768190D01*
X148441192Y-136769315D01*
X148454052Y-136787682D01*
X148516495Y-136850125D01*
X147820180Y-136850125D01*
X147820180Y-136639411D01*
X147802633Y-136591202D01*
X147758204Y-136565550D01*
X147707680Y-136574459D01*
X147674703Y-136613759D01*
X147670180Y-136639411D01*
X147670180Y-137210839D01*
X147527323Y-137210839D01*
X147527323Y-136422693D01*
X148962882Y-136422693D01*
X148962882Y-137427557D01*
G37*
G36*
X147566719Y-140472676D02*
G01*
X141133282Y-140472676D01*
X141133282Y-139860842D01*
X141276139Y-139860842D01*
X141285048Y-139911366D01*
X141324348Y-139944343D01*
X141350000Y-139948866D01*
X141655952Y-139948866D01*
X141655952Y-140254819D01*
X141673499Y-140303028D01*
X141717928Y-140328680D01*
X141768452Y-140319771D01*
X141801429Y-140280471D01*
X141805952Y-140254819D01*
X141805952Y-139948866D01*
X142111905Y-139948866D01*
X142160114Y-139931319D01*
X142185766Y-139886890D01*
X142176857Y-139836366D01*
X142137557Y-139803389D01*
X142111905Y-139798866D01*
X141805952Y-139798866D01*
X141805952Y-139492914D01*
X141788405Y-139444705D01*
X141743976Y-139419053D01*
X141693452Y-139427962D01*
X141660475Y-139467262D01*
X141655952Y-139492914D01*
X141655952Y-139798866D01*
X141350000Y-139798866D01*
X141301791Y-139816413D01*
X141276139Y-139860842D01*
X141133282Y-139860842D01*
X141133282Y-139241795D01*
X143942806Y-139241795D01*
X143951715Y-139292319D01*
X143991015Y-139325296D01*
X144016667Y-139329819D01*
X144470432Y-139329819D01*
X144245938Y-139586383D01*
X144238631Y-139605234D01*
X144228520Y-139622747D01*
X144229559Y-139628640D01*
X144227397Y-139634219D01*
X144233917Y-139653358D01*
X144237429Y-139673271D01*
X144242012Y-139677116D01*
X144243942Y-139682781D01*
X144261240Y-139693251D01*
X144276729Y-139706248D01*
X144285172Y-139707736D01*
X144287831Y-139709346D01*
X144291272Y-139708812D01*
X144302381Y-139710771D01*
X144427533Y-139710771D01*
X144496049Y-139745029D01*
X144526456Y-139775436D01*
X144560714Y-139843952D01*
X144560714Y-140046637D01*
X144526455Y-140115153D01*
X144496048Y-140145561D01*
X144427533Y-140179819D01*
X144177229Y-140179819D01*
X144108713Y-140145561D01*
X144069701Y-140106548D01*
X144023204Y-140084866D01*
X143973649Y-140098143D01*
X143944223Y-140140168D01*
X143948693Y-140191275D01*
X143963633Y-140212612D01*
X144011252Y-140260232D01*
X144012733Y-140260922D01*
X144030745Y-140274282D01*
X144125983Y-140321901D01*
X144130436Y-140322413D01*
X144133872Y-140325296D01*
X144159524Y-140329819D01*
X144445238Y-140329819D01*
X144449451Y-140328285D01*
X144453812Y-140329327D01*
X144478779Y-140321901D01*
X144574017Y-140274282D01*
X144575141Y-140273094D01*
X144593510Y-140260232D01*
X144641128Y-140212613D01*
X144641818Y-140211131D01*
X144655177Y-140193121D01*
X144702796Y-140097883D01*
X144703308Y-140093429D01*
X144706191Y-140089994D01*
X144710714Y-140064342D01*
X144710714Y-139860842D01*
X146514235Y-139860842D01*
X146523144Y-139911366D01*
X146562444Y-139944343D01*
X146588096Y-139948866D01*
X147350001Y-139948866D01*
X147398210Y-139931319D01*
X147423862Y-139886890D01*
X147414953Y-139836366D01*
X147375653Y-139803389D01*
X147350001Y-139798866D01*
X146588096Y-139798866D01*
X146539887Y-139816413D01*
X146514235Y-139860842D01*
X144710714Y-139860842D01*
X144710714Y-139826247D01*
X144709180Y-139822033D01*
X144710222Y-139817672D01*
X144702796Y-139792706D01*
X144655177Y-139697468D01*
X144653987Y-139696342D01*
X144641128Y-139677976D01*
X144593509Y-139630357D01*
X144592027Y-139629666D01*
X144574017Y-139616308D01*
X144478779Y-139568689D01*
X144474325Y-139568176D01*
X144470890Y-139565294D01*
X144464666Y-139564196D01*
X144692157Y-139304207D01*
X144699463Y-139285355D01*
X144709575Y-139267843D01*
X144708535Y-139261949D01*
X144710698Y-139256371D01*
X144704177Y-139237231D01*
X144700666Y-139217319D01*
X144696082Y-139213473D01*
X144694153Y-139207809D01*
X144676854Y-139197338D01*
X144661366Y-139184342D01*
X144652922Y-139182853D01*
X144650264Y-139181244D01*
X144646822Y-139181777D01*
X144635714Y-139179819D01*
X144016667Y-139179819D01*
X143968458Y-139197366D01*
X143942806Y-139241795D01*
X141133282Y-139241795D01*
X141133282Y-139036962D01*
X147566719Y-139036962D01*
X147566719Y-140472676D01*
G37*
G36*
X125166719Y-140472676D02*
G01*
X118733282Y-140472676D01*
X118733282Y-139860842D01*
X118876139Y-139860842D01*
X118885048Y-139911366D01*
X118924348Y-139944343D01*
X118950000Y-139948866D01*
X119255952Y-139948866D01*
X119255952Y-140254819D01*
X119273499Y-140303028D01*
X119317928Y-140328680D01*
X119368452Y-140319771D01*
X119401429Y-140280471D01*
X119405952Y-140254819D01*
X119405952Y-140241795D01*
X121590425Y-140241795D01*
X121599334Y-140292319D01*
X121638634Y-140325296D01*
X121664286Y-140329819D01*
X122235714Y-140329819D01*
X122283923Y-140312272D01*
X122309575Y-140267843D01*
X122300666Y-140217319D01*
X122261366Y-140184342D01*
X122235714Y-140179819D01*
X122025000Y-140179819D01*
X122025000Y-139860842D01*
X124114235Y-139860842D01*
X124123144Y-139911366D01*
X124162444Y-139944343D01*
X124188096Y-139948866D01*
X124950001Y-139948866D01*
X124998210Y-139931319D01*
X125023862Y-139886890D01*
X125014953Y-139836366D01*
X124975653Y-139803389D01*
X124950001Y-139798866D01*
X124188096Y-139798866D01*
X124139887Y-139816413D01*
X124114235Y-139860842D01*
X122025000Y-139860842D01*
X122025000Y-139254819D01*
X122023524Y-139250765D01*
X122024545Y-139246576D01*
X122014897Y-139227063D01*
X122007453Y-139206610D01*
X122003718Y-139204454D01*
X122001807Y-139200587D01*
X121981872Y-139191840D01*
X121963024Y-139180958D01*
X121958776Y-139181706D01*
X121954827Y-139179974D01*
X121933932Y-139186087D01*
X121912500Y-139189867D01*
X121909728Y-139193169D01*
X121905589Y-139194381D01*
X121887596Y-139213216D01*
X121796476Y-139349895D01*
X121715096Y-139431275D01*
X121630745Y-139473451D01*
X121595473Y-139510705D01*
X121592398Y-139561916D01*
X121622962Y-139603121D01*
X121672860Y-139615041D01*
X121697827Y-139607615D01*
X121793065Y-139559996D01*
X121794190Y-139558806D01*
X121812557Y-139545947D01*
X121874999Y-139483504D01*
X121875000Y-140179819D01*
X121664286Y-140179819D01*
X121616077Y-140197366D01*
X121590425Y-140241795D01*
X119405952Y-140241795D01*
X119405952Y-139948866D01*
X119711905Y-139948866D01*
X119760114Y-139931319D01*
X119785766Y-139886890D01*
X119776857Y-139836366D01*
X119737557Y-139803389D01*
X119711905Y-139798866D01*
X119405952Y-139798866D01*
X119405952Y-139492914D01*
X119388405Y-139444705D01*
X119343976Y-139419053D01*
X119293452Y-139427962D01*
X119260475Y-139467262D01*
X119255952Y-139492914D01*
X119255952Y-139798866D01*
X118950000Y-139798866D01*
X118901791Y-139816413D01*
X118876139Y-139860842D01*
X118733282Y-139860842D01*
X118733282Y-139037117D01*
X125166719Y-139037117D01*
X125166719Y-140472676D01*
G37*
G36*
X155647493Y-111070180D02*
G01*
X155406865Y-111070180D01*
X155338349Y-111035921D01*
X155307942Y-111005515D01*
X155273684Y-110936999D01*
X155273684Y-110877171D01*
X155307942Y-110808654D01*
X155338348Y-110778248D01*
X155406865Y-110743990D01*
X155647493Y-110743990D01*
X155647493Y-111070180D01*
G37*
G36*
X155647493Y-110593990D02*
G01*
X155401330Y-110593990D01*
X155286817Y-110555819D01*
X155260323Y-110529325D01*
X155226065Y-110460808D01*
X155226065Y-110353362D01*
X155260322Y-110284846D01*
X155290729Y-110254439D01*
X155359247Y-110220180D01*
X155647493Y-110220180D01*
X155647493Y-110593990D01*
G37*
G36*
X157940350Y-111363037D02*
G01*
X153171589Y-111363037D01*
X153171589Y-110233883D01*
X153314446Y-110233883D01*
X153327723Y-110283437D01*
X153369749Y-110312864D01*
X153420856Y-110308392D01*
X153442193Y-110293452D01*
X153477292Y-110258352D01*
X153591807Y-110220180D01*
X153662703Y-110220180D01*
X153777216Y-110258351D01*
X153851330Y-110332465D01*
X153889823Y-110409451D01*
X153933207Y-110582986D01*
X153933207Y-110707374D01*
X153889823Y-110880909D01*
X153851329Y-110957896D01*
X153777217Y-111032008D01*
X153662704Y-111070180D01*
X153591806Y-111070180D01*
X153477293Y-111032008D01*
X153442193Y-110996909D01*
X153395696Y-110975228D01*
X153346142Y-110988505D01*
X153316715Y-111030531D01*
X153321187Y-111081638D01*
X153336127Y-111102975D01*
X153383746Y-111150594D01*
X153387810Y-111152489D01*
X153390157Y-111156309D01*
X153413062Y-111168712D01*
X153555918Y-111216331D01*
X153557553Y-111216286D01*
X153579636Y-111220180D01*
X153674874Y-111220180D01*
X153676412Y-111219619D01*
X153698591Y-111216331D01*
X153841448Y-111168712D01*
X153844960Y-111165924D01*
X153849427Y-111165534D01*
X153870764Y-111150594D01*
X153966002Y-111055356D01*
X153966692Y-111053874D01*
X153980051Y-111035864D01*
X154027670Y-110940626D01*
X154028076Y-110937097D01*
X154033349Y-110925275D01*
X154080968Y-110734799D01*
X154080607Y-110731350D01*
X154083207Y-110716609D01*
X154083207Y-110573752D01*
X154082021Y-110570494D01*
X154080968Y-110555562D01*
X154061706Y-110478514D01*
X155076065Y-110478514D01*
X155077598Y-110482727D01*
X155076557Y-110487088D01*
X155083983Y-110512055D01*
X155131602Y-110607293D01*
X155132791Y-110608418D01*
X155145651Y-110626785D01*
X155193270Y-110674404D01*
X155197334Y-110676299D01*
X155199681Y-110680119D01*
X155215681Y-110688783D01*
X155193270Y-110711195D01*
X155192579Y-110712676D01*
X155179221Y-110730687D01*
X155131602Y-110825925D01*
X155131089Y-110830378D01*
X155128207Y-110833814D01*
X155123684Y-110859466D01*
X155123684Y-110954704D01*
X155125217Y-110958917D01*
X155124176Y-110963278D01*
X155131602Y-110988245D01*
X155179221Y-111083483D01*
X155180410Y-111084608D01*
X155193270Y-111102975D01*
X155240889Y-111150594D01*
X155242370Y-111151285D01*
X155260381Y-111164643D01*
X155355619Y-111212262D01*
X155360072Y-111212774D01*
X155363508Y-111215657D01*
X155389160Y-111220180D01*
X155722493Y-111220180D01*
X155740801Y-111213516D01*
X155759993Y-111210132D01*
X155764343Y-111204947D01*
X155770702Y-111202633D01*
X155780444Y-111185759D01*
X155792970Y-111170832D01*
X155794687Y-111161089D01*
X155796354Y-111158204D01*
X155795775Y-111154921D01*
X155797493Y-111145180D01*
X155797493Y-110430895D01*
X156076065Y-110430895D01*
X156077598Y-110435108D01*
X156076557Y-110439469D01*
X156083983Y-110464436D01*
X156131602Y-110559674D01*
X156132791Y-110560799D01*
X156145651Y-110579166D01*
X156193270Y-110626785D01*
X156194751Y-110627476D01*
X156212762Y-110640834D01*
X156308000Y-110688453D01*
X156311528Y-110688859D01*
X156323351Y-110694132D01*
X156505841Y-110739754D01*
X156582828Y-110778248D01*
X156613235Y-110808655D01*
X156647493Y-110877171D01*
X156647493Y-110936998D01*
X156613235Y-111005514D01*
X156582827Y-111035922D01*
X156514312Y-111070180D01*
X156306092Y-111070180D01*
X156174782Y-111026410D01*
X156123498Y-111027811D01*
X156085113Y-111061848D01*
X156077588Y-111112597D01*
X156104443Y-111156309D01*
X156127348Y-111168712D01*
X156270204Y-111216331D01*
X156271839Y-111216286D01*
X156293922Y-111220180D01*
X156532017Y-111220180D01*
X156536230Y-111218646D01*
X156540591Y-111219688D01*
X156565558Y-111212262D01*
X156660796Y-111164643D01*
X156661921Y-111163453D01*
X156680288Y-111150594D01*
X156685702Y-111145180D01*
X157076065Y-111145180D01*
X157093612Y-111193389D01*
X157138041Y-111219041D01*
X157188565Y-111210132D01*
X157221542Y-111170832D01*
X157226065Y-111145180D01*
X157226065Y-110353362D01*
X157260322Y-110284846D01*
X157290729Y-110254439D01*
X157359247Y-110220180D01*
X157514311Y-110220180D01*
X157582827Y-110254438D01*
X157613235Y-110284846D01*
X157647493Y-110353361D01*
X157647493Y-111145180D01*
X157665040Y-111193389D01*
X157709469Y-111219041D01*
X157759993Y-111210132D01*
X157792970Y-111170832D01*
X157797493Y-111145180D01*
X157797493Y-110335657D01*
X157795959Y-110331443D01*
X157797001Y-110327082D01*
X157789575Y-110302116D01*
X157741956Y-110206878D01*
X157740766Y-110205752D01*
X157727907Y-110187386D01*
X157680288Y-110139767D01*
X157678805Y-110139075D01*
X157660797Y-110125718D01*
X157565559Y-110078098D01*
X157561104Y-110077585D01*
X157557669Y-110074703D01*
X157532017Y-110070180D01*
X157341541Y-110070180D01*
X157337327Y-110071713D01*
X157332966Y-110070672D01*
X157308000Y-110078098D01*
X157212761Y-110125718D01*
X157211633Y-110126909D01*
X157193270Y-110139767D01*
X157145651Y-110187386D01*
X157144960Y-110188867D01*
X157131602Y-110206878D01*
X157083983Y-110302116D01*
X157083470Y-110306569D01*
X157080588Y-110310005D01*
X157076065Y-110335657D01*
X157076065Y-111145180D01*
X156685702Y-111145180D01*
X156727907Y-111102975D01*
X156728598Y-111101493D01*
X156741956Y-111083483D01*
X156789575Y-110988245D01*
X156790087Y-110983791D01*
X156792970Y-110980356D01*
X156797493Y-110954704D01*
X156797493Y-110859466D01*
X156795959Y-110855252D01*
X156797001Y-110850891D01*
X156789575Y-110825925D01*
X156741956Y-110730687D01*
X156740766Y-110729561D01*
X156727907Y-110711195D01*
X156680288Y-110663576D01*
X156678806Y-110662885D01*
X156660796Y-110649527D01*
X156565558Y-110601908D01*
X156562029Y-110601501D01*
X156550207Y-110596229D01*
X156367717Y-110550606D01*
X156290730Y-110512113D01*
X156260323Y-110481706D01*
X156226065Y-110413189D01*
X156226065Y-110353362D01*
X156260323Y-110284845D01*
X156290729Y-110254439D01*
X156359247Y-110220180D01*
X156567465Y-110220180D01*
X156698776Y-110263951D01*
X156750060Y-110262550D01*
X156788445Y-110228513D01*
X156795971Y-110177765D01*
X156769116Y-110134052D01*
X156746211Y-110121649D01*
X156603354Y-110074029D01*
X156601718Y-110074073D01*
X156579636Y-110070180D01*
X156341541Y-110070180D01*
X156337327Y-110071713D01*
X156332966Y-110070672D01*
X156308000Y-110078098D01*
X156212761Y-110125718D01*
X156211633Y-110126909D01*
X156193270Y-110139767D01*
X156145651Y-110187386D01*
X156144960Y-110188867D01*
X156131602Y-110206878D01*
X156083983Y-110302116D01*
X156083470Y-110306569D01*
X156080588Y-110310005D01*
X156076065Y-110335657D01*
X156076065Y-110430895D01*
X155797493Y-110430895D01*
X155797493Y-110145180D01*
X155790829Y-110126871D01*
X155787445Y-110107680D01*
X155782260Y-110103329D01*
X155779946Y-110096971D01*
X155763072Y-110087228D01*
X155748145Y-110074703D01*
X155738402Y-110072985D01*
X155735517Y-110071319D01*
X155732234Y-110071897D01*
X155722493Y-110070180D01*
X155341541Y-110070180D01*
X155337327Y-110071713D01*
X155332966Y-110070672D01*
X155308000Y-110078098D01*
X155212761Y-110125718D01*
X155211633Y-110126909D01*
X155193270Y-110139767D01*
X155145651Y-110187386D01*
X155144960Y-110188867D01*
X155131602Y-110206878D01*
X155083983Y-110302116D01*
X155083470Y-110306569D01*
X155080588Y-110310005D01*
X155076065Y-110335657D01*
X155076065Y-110478514D01*
X154061706Y-110478514D01*
X154033349Y-110365086D01*
X154031360Y-110362141D01*
X154027670Y-110349735D01*
X153980051Y-110254497D01*
X153978864Y-110253373D01*
X153966002Y-110235005D01*
X153870764Y-110139767D01*
X153866701Y-110137872D01*
X153864354Y-110134052D01*
X153841449Y-110121649D01*
X153698592Y-110074029D01*
X153696956Y-110074073D01*
X153674874Y-110070180D01*
X153579636Y-110070180D01*
X153578097Y-110070740D01*
X153555919Y-110074029D01*
X153413061Y-110121649D01*
X153409548Y-110124436D01*
X153405083Y-110124827D01*
X153383746Y-110139767D01*
X153336127Y-110187386D01*
X153314446Y-110233883D01*
X153171589Y-110233883D01*
X153171589Y-109927323D01*
X157940350Y-109927323D01*
X157940350Y-111363037D01*
G37*
X156544047Y-113245180D02*
X155972619Y-113245180D01*
X156258333Y-112245180D02*
X156258333Y-113245180D01*
X155734523Y-113245180D02*
X155067857Y-112245180D01*
X155067857Y-113245180D02*
X155734523Y-112245180D01*
X153353571Y-112245180D02*
X153686904Y-112721371D01*
X153924999Y-112245180D02*
X153924999Y-113245180D01*
X153924999Y-113245180D02*
X153544047Y-113245180D01*
X153544047Y-113245180D02*
X153448809Y-113197561D01*
X153448809Y-113197561D02*
X153401190Y-113149942D01*
X153401190Y-113149942D02*
X153353571Y-113054704D01*
X153353571Y-113054704D02*
X153353571Y-112911847D01*
X153353571Y-112911847D02*
X153401190Y-112816609D01*
X153401190Y-112816609D02*
X153448809Y-112768990D01*
X153448809Y-112768990D02*
X153544047Y-112721371D01*
X153544047Y-112721371D02*
X153924999Y-112721371D01*
X153020237Y-113245180D02*
X152353571Y-112245180D01*
X152353571Y-113245180D02*
X153020237Y-112245180D01*
G36*
X168054814Y-140522676D02*
G01*
X163145187Y-140522676D01*
X163145187Y-139910842D01*
X163288044Y-139910842D01*
X163296953Y-139961366D01*
X163336253Y-139994343D01*
X163361905Y-139998866D01*
X163667857Y-139998866D01*
X163667857Y-140304819D01*
X163685404Y-140353028D01*
X163729833Y-140378680D01*
X163780357Y-140369771D01*
X163813334Y-140330471D01*
X163817857Y-140304819D01*
X163817857Y-140298283D01*
X165191953Y-140298283D01*
X165197794Y-140320085D01*
X165201715Y-140342319D01*
X165204342Y-140344523D01*
X165205230Y-140347837D01*
X165223721Y-140360785D01*
X165241015Y-140375296D01*
X165245599Y-140376104D01*
X165247256Y-140377264D01*
X165250544Y-140376976D01*
X165266667Y-140379819D01*
X165885714Y-140379819D01*
X165933923Y-140362272D01*
X165959575Y-140317843D01*
X165950666Y-140267319D01*
X165911366Y-140234342D01*
X165885714Y-140229819D01*
X165447733Y-140229819D01*
X165766709Y-139910842D01*
X167002330Y-139910842D01*
X167011239Y-139961366D01*
X167050539Y-139994343D01*
X167076191Y-139998866D01*
X167838096Y-139998866D01*
X167886305Y-139981319D01*
X167911957Y-139936890D01*
X167903048Y-139886366D01*
X167863748Y-139853389D01*
X167838096Y-139848866D01*
X167076191Y-139848866D01*
X167027982Y-139866413D01*
X167002330Y-139910842D01*
X165766709Y-139910842D01*
X165891128Y-139786423D01*
X165893023Y-139782358D01*
X165896843Y-139780012D01*
X165909246Y-139757107D01*
X165956865Y-139614251D01*
X165956820Y-139612615D01*
X165960714Y-139590533D01*
X165960714Y-139495295D01*
X165959180Y-139491081D01*
X165960222Y-139486720D01*
X165952796Y-139461754D01*
X165905177Y-139366516D01*
X165903987Y-139365390D01*
X165891128Y-139347024D01*
X165843509Y-139299405D01*
X165842027Y-139298714D01*
X165824017Y-139285356D01*
X165728779Y-139237737D01*
X165724325Y-139237224D01*
X165720890Y-139234342D01*
X165695238Y-139229819D01*
X165457143Y-139229819D01*
X165452929Y-139231352D01*
X165448568Y-139230311D01*
X165423602Y-139237737D01*
X165328364Y-139285356D01*
X165327238Y-139286545D01*
X165308872Y-139299405D01*
X165261253Y-139347024D01*
X165239572Y-139393521D01*
X165252849Y-139443075D01*
X165294875Y-139472502D01*
X165345982Y-139468030D01*
X165367319Y-139453090D01*
X165406332Y-139414076D01*
X165474848Y-139379819D01*
X165677533Y-139379819D01*
X165746049Y-139414076D01*
X165776456Y-139444484D01*
X165810714Y-139513000D01*
X165810714Y-139578363D01*
X165772542Y-139692876D01*
X165213634Y-140251786D01*
X165204096Y-140272239D01*
X165192806Y-140291795D01*
X165193402Y-140295175D01*
X165191953Y-140298283D01*
X163817857Y-140298283D01*
X163817857Y-139998866D01*
X164123810Y-139998866D01*
X164172019Y-139981319D01*
X164197671Y-139936890D01*
X164188762Y-139886366D01*
X164149462Y-139853389D01*
X164123810Y-139848866D01*
X163817857Y-139848866D01*
X163817857Y-139542914D01*
X163800310Y-139494705D01*
X163755881Y-139469053D01*
X163705357Y-139477962D01*
X163672380Y-139517262D01*
X163667857Y-139542914D01*
X163667857Y-139848866D01*
X163361905Y-139848866D01*
X163313696Y-139866413D01*
X163288044Y-139910842D01*
X163145187Y-139910842D01*
X163145187Y-139086962D01*
X168054814Y-139086962D01*
X168054814Y-140522676D01*
G37*
G36*
X200091344Y-111776990D02*
G01*
X200121751Y-111807397D01*
X200156009Y-111875912D01*
X200156009Y-112116541D01*
X199829819Y-112116541D01*
X199829819Y-111875913D01*
X199864077Y-111807397D01*
X199894484Y-111776989D01*
X199963000Y-111742732D01*
X200022828Y-111742732D01*
X200091344Y-111776990D01*
G37*
G36*
X200615153Y-111729371D02*
G01*
X200645561Y-111759778D01*
X200679819Y-111828294D01*
X200679819Y-112116541D01*
X200306009Y-112116541D01*
X200306009Y-111870378D01*
X200344180Y-111755864D01*
X200370673Y-111729371D01*
X200439190Y-111695113D01*
X200546637Y-111695113D01*
X200615153Y-111729371D01*
G37*
G36*
X200394104Y-111135103D02*
G01*
X199991989Y-111001065D01*
X200394104Y-110867026D01*
X200394104Y-111135103D01*
G37*
G36*
X200972676Y-112409398D02*
G01*
X199536962Y-112409398D01*
X199536962Y-112191541D01*
X199679819Y-112191541D01*
X199686482Y-112209849D01*
X199689867Y-112229041D01*
X199695051Y-112233391D01*
X199697366Y-112239750D01*
X199714239Y-112249492D01*
X199729167Y-112262018D01*
X199738909Y-112263735D01*
X199741795Y-112265402D01*
X199745077Y-112264823D01*
X199754819Y-112266541D01*
X200754819Y-112266541D01*
X200773127Y-112259877D01*
X200792319Y-112256493D01*
X200796669Y-112251308D01*
X200803028Y-112248994D01*
X200812770Y-112232120D01*
X200825296Y-112217193D01*
X200827013Y-112207450D01*
X200828680Y-112204565D01*
X200828101Y-112201282D01*
X200829819Y-112191541D01*
X200829819Y-111810589D01*
X200828285Y-111806375D01*
X200829327Y-111802014D01*
X200821901Y-111777048D01*
X200774282Y-111681810D01*
X200773094Y-111680685D01*
X200760232Y-111662317D01*
X200712612Y-111614698D01*
X200711129Y-111614006D01*
X200693121Y-111600650D01*
X200597883Y-111553031D01*
X200593429Y-111552518D01*
X200589994Y-111549636D01*
X200564342Y-111545113D01*
X200421485Y-111545113D01*
X200417271Y-111546646D01*
X200412910Y-111545605D01*
X200387944Y-111553031D01*
X200292706Y-111600650D01*
X200291580Y-111601839D01*
X200273214Y-111614699D01*
X200225595Y-111662318D01*
X200223700Y-111666381D01*
X200219879Y-111668729D01*
X200211215Y-111684729D01*
X200188804Y-111662318D01*
X200187322Y-111661627D01*
X200169312Y-111648269D01*
X200074074Y-111600650D01*
X200069620Y-111600137D01*
X200066185Y-111597255D01*
X200040533Y-111592732D01*
X199945295Y-111592732D01*
X199941081Y-111594265D01*
X199936720Y-111593224D01*
X199911754Y-111600650D01*
X199816516Y-111648269D01*
X199815390Y-111649458D01*
X199797024Y-111662318D01*
X199749405Y-111709937D01*
X199748714Y-111711418D01*
X199735356Y-111729429D01*
X199687737Y-111824667D01*
X199687224Y-111829120D01*
X199684342Y-111832556D01*
X199679819Y-111858208D01*
X199679819Y-112191541D01*
X199536962Y-112191541D01*
X199536962Y-111012066D01*
X199680630Y-111012066D01*
X199681658Y-111013965D01*
X199681342Y-111016101D01*
X199693760Y-111036314D01*
X199705059Y-111057180D01*
X199707066Y-111057973D01*
X199708197Y-111059813D01*
X199731102Y-111072216D01*
X200731102Y-111405549D01*
X200782385Y-111404148D01*
X200820771Y-111370110D01*
X200828296Y-111319362D01*
X200801441Y-111275649D01*
X200778536Y-111263247D01*
X200544104Y-111185103D01*
X200544104Y-110817026D01*
X200778536Y-110738883D01*
X200818722Y-110706992D01*
X200829008Y-110656731D01*
X200804579Y-110611617D01*
X200756867Y-110592760D01*
X200731102Y-110596581D01*
X199731102Y-110929914D01*
X199729410Y-110931256D01*
X199727252Y-110931315D01*
X199709490Y-110947064D01*
X199690916Y-110961805D01*
X199690483Y-110963918D01*
X199688867Y-110965352D01*
X199685386Y-110988822D01*
X199680630Y-111012066D01*
X199536962Y-111012066D01*
X199536962Y-110477255D01*
X199679819Y-110477255D01*
X199697366Y-110525464D01*
X199741795Y-110551116D01*
X199792319Y-110542207D01*
X199825296Y-110502907D01*
X199829819Y-110477255D01*
X199829819Y-110266541D01*
X200754819Y-110266541D01*
X200803028Y-110248994D01*
X200828680Y-110204565D01*
X200819771Y-110154041D01*
X200780471Y-110121064D01*
X200754819Y-110116541D01*
X199829819Y-110116541D01*
X199829819Y-109905827D01*
X199812272Y-109857618D01*
X199767843Y-109831966D01*
X199717319Y-109840875D01*
X199684342Y-109880175D01*
X199679819Y-109905827D01*
X199679819Y-110477255D01*
X199536962Y-110477255D01*
X199536962Y-109715350D01*
X199679819Y-109715350D01*
X199697366Y-109763559D01*
X199741795Y-109789211D01*
X199792319Y-109780302D01*
X199825296Y-109741002D01*
X199829819Y-109715350D01*
X199829819Y-109504636D01*
X200754819Y-109504636D01*
X200803028Y-109487089D01*
X200828680Y-109442660D01*
X200819771Y-109392136D01*
X200780471Y-109359159D01*
X200754819Y-109354636D01*
X199829819Y-109354636D01*
X199829819Y-109143922D01*
X199812272Y-109095713D01*
X199767843Y-109070061D01*
X199717319Y-109078970D01*
X199684342Y-109118270D01*
X199679819Y-109143922D01*
X199679819Y-109715350D01*
X199536962Y-109715350D01*
X199536962Y-108927204D01*
X200972676Y-108927204D01*
X200972676Y-112409398D01*
G37*
D11*
X134447780Y-122152380D02*
X134923971Y-121819047D01*
X134447780Y-121580952D02*
X135447780Y-121580952D01*
X135447780Y-121580952D02*
X135447780Y-121961904D01*
X135447780Y-121961904D02*
X135400161Y-122057142D01*
X135400161Y-122057142D02*
X135352542Y-122104761D01*
X135352542Y-122104761D02*
X135257304Y-122152380D01*
X135257304Y-122152380D02*
X135114447Y-122152380D01*
X135114447Y-122152380D02*
X135019209Y-122104761D01*
X135019209Y-122104761D02*
X134971590Y-122057142D01*
X134971590Y-122057142D02*
X134923971Y-121961904D01*
X134923971Y-121961904D02*
X134923971Y-121580952D01*
X134495400Y-122533333D02*
X134447780Y-122676190D01*
X134447780Y-122676190D02*
X134447780Y-122914285D01*
X134447780Y-122914285D02*
X134495400Y-123009523D01*
X134495400Y-123009523D02*
X134543019Y-123057142D01*
X134543019Y-123057142D02*
X134638257Y-123104761D01*
X134638257Y-123104761D02*
X134733495Y-123104761D01*
X134733495Y-123104761D02*
X134828733Y-123057142D01*
X134828733Y-123057142D02*
X134876352Y-123009523D01*
X134876352Y-123009523D02*
X134923971Y-122914285D01*
X134923971Y-122914285D02*
X134971590Y-122723809D01*
X134971590Y-122723809D02*
X135019209Y-122628571D01*
X135019209Y-122628571D02*
X135066828Y-122580952D01*
X135066828Y-122580952D02*
X135162066Y-122533333D01*
X135162066Y-122533333D02*
X135257304Y-122533333D01*
X135257304Y-122533333D02*
X135352542Y-122580952D01*
X135352542Y-122580952D02*
X135400161Y-122628571D01*
X135400161Y-122628571D02*
X135447780Y-122723809D01*
X135447780Y-122723809D02*
X135447780Y-122961904D01*
X135447780Y-122961904D02*
X135400161Y-123104761D01*
X135447780Y-123390476D02*
X135447780Y-123961904D01*
X134447780Y-123676190D02*
X135447780Y-123676190D01*
D10*
G36*
X110911196Y-108872676D02*
G01*
X107856435Y-108872676D01*
X107856435Y-108654819D01*
X107999292Y-108654819D01*
X108005955Y-108673127D01*
X108009340Y-108692319D01*
X108014524Y-108696669D01*
X108016839Y-108703028D01*
X108033712Y-108712770D01*
X108048640Y-108725296D01*
X108058382Y-108727013D01*
X108061268Y-108728680D01*
X108064550Y-108728101D01*
X108074292Y-108729819D01*
X108550482Y-108729819D01*
X108598691Y-108712272D01*
X108624343Y-108667843D01*
X108622046Y-108654819D01*
X108904054Y-108654819D01*
X108921601Y-108703028D01*
X108966030Y-108728680D01*
X109016554Y-108719771D01*
X109049531Y-108680471D01*
X109054054Y-108654819D01*
X109054054Y-107992886D01*
X109244423Y-108400821D01*
X109258189Y-108414579D01*
X109269350Y-108430528D01*
X109275909Y-108432287D01*
X109280711Y-108437086D01*
X109300100Y-108438777D01*
X109318902Y-108443821D01*
X109325055Y-108440953D01*
X109331820Y-108441544D01*
X109347762Y-108430372D01*
X109365404Y-108422153D01*
X109371103Y-108414018D01*
X109373836Y-108412104D01*
X109374695Y-108408891D01*
X109380351Y-108400820D01*
X109570720Y-107992886D01*
X109570720Y-108654819D01*
X109588267Y-108703028D01*
X109632696Y-108728680D01*
X109683220Y-108719771D01*
X109716197Y-108680471D01*
X109720720Y-108654819D01*
X109720720Y-108226247D01*
X109999292Y-108226247D01*
X110000477Y-108229504D01*
X110001531Y-108244437D01*
X110049150Y-108434913D01*
X110051138Y-108437857D01*
X110054829Y-108450264D01*
X110102448Y-108545502D01*
X110103634Y-108546625D01*
X110116497Y-108564994D01*
X110211735Y-108660233D01*
X110215799Y-108662128D01*
X110218146Y-108665948D01*
X110241051Y-108678351D01*
X110383907Y-108725970D01*
X110385542Y-108725925D01*
X110407625Y-108729819D01*
X110502863Y-108729819D01*
X110504401Y-108729258D01*
X110526580Y-108725970D01*
X110669437Y-108678351D01*
X110672948Y-108675563D01*
X110677417Y-108675173D01*
X110698754Y-108660232D01*
X110746372Y-108612613D01*
X110753290Y-108597775D01*
X110763816Y-108585232D01*
X110766659Y-108569104D01*
X110768053Y-108566116D01*
X110767530Y-108564165D01*
X110768339Y-108559580D01*
X110768339Y-108226247D01*
X110761675Y-108207938D01*
X110758291Y-108188747D01*
X110753106Y-108184396D01*
X110750792Y-108178038D01*
X110733918Y-108168295D01*
X110718991Y-108155770D01*
X110709248Y-108154052D01*
X110706363Y-108152386D01*
X110703080Y-108152964D01*
X110693339Y-108151247D01*
X110502863Y-108151247D01*
X110454654Y-108168794D01*
X110429002Y-108213223D01*
X110437911Y-108263747D01*
X110477211Y-108296724D01*
X110502863Y-108301247D01*
X110618339Y-108301247D01*
X110618339Y-108528514D01*
X110605206Y-108541647D01*
X110490693Y-108579819D01*
X110419795Y-108579819D01*
X110305282Y-108541648D01*
X110231169Y-108467534D01*
X110192675Y-108390547D01*
X110149292Y-108217013D01*
X110149292Y-108092624D01*
X110192675Y-107919089D01*
X110231169Y-107842103D01*
X110305281Y-107767990D01*
X110419795Y-107729819D01*
X110532777Y-107729819D01*
X110612179Y-107769520D01*
X110663145Y-107775385D01*
X110705958Y-107747119D01*
X110720585Y-107697944D01*
X110700182Y-107650873D01*
X110679261Y-107635356D01*
X110584023Y-107587737D01*
X110579569Y-107587224D01*
X110576134Y-107584342D01*
X110550482Y-107579819D01*
X110407625Y-107579819D01*
X110406087Y-107580378D01*
X110383907Y-107583668D01*
X110241051Y-107631287D01*
X110237540Y-107634073D01*
X110233072Y-107634464D01*
X110211735Y-107649405D01*
X110116497Y-107744643D01*
X110115806Y-107746124D01*
X110102448Y-107764135D01*
X110054829Y-107859373D01*
X110054422Y-107862901D01*
X110049150Y-107874724D01*
X110001531Y-108065200D01*
X110001891Y-108068648D01*
X109999292Y-108083390D01*
X109999292Y-108226247D01*
X109720720Y-108226247D01*
X109720720Y-107654819D01*
X109717294Y-107645406D01*
X109718170Y-107635429D01*
X109708776Y-107622004D01*
X109703173Y-107606610D01*
X109694500Y-107601602D01*
X109688757Y-107593395D01*
X109672931Y-107589149D01*
X109658744Y-107580958D01*
X109648880Y-107582697D01*
X109639206Y-107580102D01*
X109624354Y-107587021D01*
X109608220Y-107589867D01*
X109601781Y-107597539D01*
X109592703Y-107601770D01*
X109577756Y-107623102D01*
X109312386Y-108191750D01*
X109047018Y-107623103D01*
X109039932Y-107616022D01*
X109036507Y-107606610D01*
X109022317Y-107598417D01*
X109010730Y-107586837D01*
X109000753Y-107585966D01*
X108992078Y-107580958D01*
X108975942Y-107583803D01*
X108959621Y-107582380D01*
X108951417Y-107588127D01*
X108941554Y-107589867D01*
X108931022Y-107602417D01*
X108917605Y-107611819D01*
X108915015Y-107621493D01*
X108908577Y-107629167D01*
X108904054Y-107654819D01*
X108904054Y-108654819D01*
X108622046Y-108654819D01*
X108615434Y-108617319D01*
X108576134Y-108584342D01*
X108550482Y-108579819D01*
X108149292Y-108579819D01*
X108149292Y-108206009D01*
X108407625Y-108206009D01*
X108455834Y-108188462D01*
X108481486Y-108144033D01*
X108472577Y-108093509D01*
X108433277Y-108060532D01*
X108407625Y-108056009D01*
X108149292Y-108056009D01*
X108149292Y-107729819D01*
X108550482Y-107729819D01*
X108598691Y-107712272D01*
X108624343Y-107667843D01*
X108615434Y-107617319D01*
X108576134Y-107584342D01*
X108550482Y-107579819D01*
X108074292Y-107579819D01*
X108055983Y-107586482D01*
X108036792Y-107589867D01*
X108032441Y-107595051D01*
X108026083Y-107597366D01*
X108016340Y-107614239D01*
X108003815Y-107629167D01*
X108002097Y-107638909D01*
X108000431Y-107641795D01*
X108001009Y-107645077D01*
X107999292Y-107654819D01*
X107999292Y-108654819D01*
X107856435Y-108654819D01*
X107856435Y-107436962D01*
X110911196Y-107436962D01*
X110911196Y-108872676D01*
G37*
G36*
X110326490Y-117397671D02*
G01*
X109890776Y-117397671D01*
X109890776Y-117180953D01*
X110033633Y-117180953D01*
X110051180Y-117229162D01*
X110095609Y-117254814D01*
X110146133Y-117245905D01*
X110179110Y-117206605D01*
X110183633Y-117180953D01*
X110183633Y-116419048D01*
X110166086Y-116370839D01*
X110121657Y-116345187D01*
X110071133Y-116354096D01*
X110038156Y-116393396D01*
X110033633Y-116419048D01*
X110033633Y-117180953D01*
X109890776Y-117180953D01*
X109890776Y-116202330D01*
X110326490Y-116202330D01*
X110326490Y-117397671D01*
G37*
G36*
X136366719Y-140472676D02*
G01*
X129933282Y-140472676D01*
X129933282Y-139860842D01*
X130076139Y-139860842D01*
X130085048Y-139911366D01*
X130124348Y-139944343D01*
X130150000Y-139948866D01*
X130455952Y-139948866D01*
X130455952Y-140254819D01*
X130473499Y-140303028D01*
X130517928Y-140328680D01*
X130568452Y-140319771D01*
X130601429Y-140280471D01*
X130605952Y-140254819D01*
X130605952Y-140248283D01*
X132741953Y-140248283D01*
X132747794Y-140270085D01*
X132751715Y-140292319D01*
X132754342Y-140294523D01*
X132755230Y-140297837D01*
X132773721Y-140310785D01*
X132791015Y-140325296D01*
X132795599Y-140326104D01*
X132797256Y-140327264D01*
X132800544Y-140326976D01*
X132816667Y-140329819D01*
X133435714Y-140329819D01*
X133483923Y-140312272D01*
X133509575Y-140267843D01*
X133500666Y-140217319D01*
X133461366Y-140184342D01*
X133435714Y-140179819D01*
X132997733Y-140179819D01*
X133316709Y-139860842D01*
X135314235Y-139860842D01*
X135323144Y-139911366D01*
X135362444Y-139944343D01*
X135388096Y-139948866D01*
X136150001Y-139948866D01*
X136198210Y-139931319D01*
X136223862Y-139886890D01*
X136214953Y-139836366D01*
X136175653Y-139803389D01*
X136150001Y-139798866D01*
X135388096Y-139798866D01*
X135339887Y-139816413D01*
X135314235Y-139860842D01*
X133316709Y-139860842D01*
X133441128Y-139736423D01*
X133443023Y-139732358D01*
X133446843Y-139730012D01*
X133459246Y-139707107D01*
X133506865Y-139564251D01*
X133506820Y-139562615D01*
X133510714Y-139540533D01*
X133510714Y-139445295D01*
X133509180Y-139441081D01*
X133510222Y-139436720D01*
X133502796Y-139411754D01*
X133455177Y-139316516D01*
X133453987Y-139315390D01*
X133441128Y-139297024D01*
X133393509Y-139249405D01*
X133392027Y-139248714D01*
X133374017Y-139235356D01*
X133278779Y-139187737D01*
X133274325Y-139187224D01*
X133270890Y-139184342D01*
X133245238Y-139179819D01*
X133007143Y-139179819D01*
X133002929Y-139181352D01*
X132998568Y-139180311D01*
X132973602Y-139187737D01*
X132878364Y-139235356D01*
X132877238Y-139236545D01*
X132858872Y-139249405D01*
X132811253Y-139297024D01*
X132789572Y-139343521D01*
X132802849Y-139393075D01*
X132844875Y-139422502D01*
X132895982Y-139418030D01*
X132917319Y-139403090D01*
X132956332Y-139364076D01*
X133024848Y-139329819D01*
X133227533Y-139329819D01*
X133296049Y-139364077D01*
X133326455Y-139394484D01*
X133360713Y-139463000D01*
X133360713Y-139528363D01*
X133322542Y-139642876D01*
X132763634Y-140201786D01*
X132754096Y-140222239D01*
X132742806Y-140241795D01*
X132743402Y-140245175D01*
X132741953Y-140248283D01*
X130605952Y-140248283D01*
X130605952Y-139948866D01*
X130911905Y-139948866D01*
X130960114Y-139931319D01*
X130985766Y-139886890D01*
X130976857Y-139836366D01*
X130937557Y-139803389D01*
X130911905Y-139798866D01*
X130605952Y-139798866D01*
X130605952Y-139492914D01*
X130588405Y-139444705D01*
X130543976Y-139419053D01*
X130493452Y-139427962D01*
X130460475Y-139467262D01*
X130455952Y-139492914D01*
X130455952Y-139798866D01*
X130150000Y-139798866D01*
X130101791Y-139816413D01*
X130076139Y-139860842D01*
X129933282Y-139860842D01*
X129933282Y-139036962D01*
X136366719Y-139036962D01*
X136366719Y-140472676D01*
G37*
G36*
X150863979Y-140307133D02*
G01*
X150935922Y-140379075D01*
X150970180Y-140447592D01*
X150970180Y-140602657D01*
X150935922Y-140671174D01*
X150863979Y-140743116D01*
X150702613Y-140783458D01*
X150387748Y-140783458D01*
X150226381Y-140743116D01*
X150154438Y-140671173D01*
X150120180Y-140602656D01*
X150120180Y-140447593D01*
X150154438Y-140379076D01*
X150226381Y-140307133D01*
X150387748Y-140266792D01*
X150702613Y-140266792D01*
X150863979Y-140307133D01*
G37*
G36*
X150970180Y-139602657D02*
G01*
X150935922Y-139671173D01*
X150905514Y-139701581D01*
X150836999Y-139735839D01*
X150729552Y-139735839D01*
X150661036Y-139701580D01*
X150630629Y-139671174D01*
X150596371Y-139602658D01*
X150596371Y-139314411D01*
X150970180Y-139314411D01*
X150970180Y-139602657D01*
G37*
G36*
X151263037Y-142028696D02*
G01*
X149827323Y-142028696D01*
X149827323Y-141620363D01*
X149970180Y-141620363D01*
X149971713Y-141624576D01*
X149970672Y-141628938D01*
X149978098Y-141653905D01*
X150025718Y-141749143D01*
X150026909Y-141750270D01*
X150039767Y-141768634D01*
X150087386Y-141816253D01*
X150088867Y-141816944D01*
X150106878Y-141830302D01*
X150202116Y-141877921D01*
X150206569Y-141878433D01*
X150210005Y-141881316D01*
X150235657Y-141885839D01*
X150330895Y-141885839D01*
X150335108Y-141884305D01*
X150339469Y-141885347D01*
X150364436Y-141877921D01*
X150459674Y-141830302D01*
X150460799Y-141829112D01*
X150479166Y-141816253D01*
X150526785Y-141768634D01*
X150527476Y-141767152D01*
X150540834Y-141749142D01*
X150588453Y-141653904D01*
X150588859Y-141650375D01*
X150594132Y-141638553D01*
X150639754Y-141456063D01*
X150678247Y-141379076D01*
X150708655Y-141348668D01*
X150777171Y-141314411D01*
X150836999Y-141314411D01*
X150905515Y-141348668D01*
X150935922Y-141379076D01*
X150970180Y-141447592D01*
X150970180Y-141655812D01*
X150926410Y-141787122D01*
X150927811Y-141838406D01*
X150961848Y-141876791D01*
X151012597Y-141884316D01*
X151056309Y-141857461D01*
X151068712Y-141834556D01*
X151116331Y-141691700D01*
X151116286Y-141690064D01*
X151120180Y-141667982D01*
X151120180Y-141429887D01*
X151118646Y-141425673D01*
X151119688Y-141421312D01*
X151112262Y-141396346D01*
X151064643Y-141301108D01*
X151063453Y-141299982D01*
X151050594Y-141281616D01*
X151002975Y-141233997D01*
X151001493Y-141233306D01*
X150983483Y-141219948D01*
X150888245Y-141172329D01*
X150883791Y-141171816D01*
X150880356Y-141168934D01*
X150854704Y-141164411D01*
X150759466Y-141164411D01*
X150755252Y-141165944D01*
X150750891Y-141164903D01*
X150725925Y-141172329D01*
X150630687Y-141219948D01*
X150629561Y-141221137D01*
X150611195Y-141233997D01*
X150563576Y-141281616D01*
X150562885Y-141283097D01*
X150549527Y-141301108D01*
X150501908Y-141396346D01*
X150501501Y-141399874D01*
X150496229Y-141411697D01*
X150450606Y-141594187D01*
X150412113Y-141671173D01*
X150381705Y-141701581D01*
X150313190Y-141735839D01*
X150253362Y-141735839D01*
X150184846Y-141701581D01*
X150154438Y-141671173D01*
X150120180Y-141602656D01*
X150120180Y-141394439D01*
X150163951Y-141263128D01*
X150162550Y-141211844D01*
X150128513Y-141173459D01*
X150077765Y-141165933D01*
X150034052Y-141192788D01*
X150021649Y-141215693D01*
X149974029Y-141358550D01*
X149974073Y-141360185D01*
X149970180Y-141382268D01*
X149970180Y-141620363D01*
X149827323Y-141620363D01*
X149827323Y-140620363D01*
X149970180Y-140620363D01*
X149971713Y-140624576D01*
X149970672Y-140628938D01*
X149978098Y-140653905D01*
X150025718Y-140749143D01*
X150026909Y-140750270D01*
X150039767Y-140768634D01*
X150135005Y-140863872D01*
X150141712Y-140866999D01*
X150146059Y-140872990D01*
X150169848Y-140883600D01*
X150360324Y-140931219D01*
X150363772Y-140930858D01*
X150378514Y-140933458D01*
X150711847Y-140933458D01*
X150715104Y-140932272D01*
X150730037Y-140931219D01*
X150920513Y-140883600D01*
X150926646Y-140879457D01*
X150934019Y-140878812D01*
X150955356Y-140863872D01*
X151050594Y-140768634D01*
X151051284Y-140767152D01*
X151064643Y-140749142D01*
X151112262Y-140653904D01*
X151112774Y-140649450D01*
X151115657Y-140646015D01*
X151120180Y-140620363D01*
X151120180Y-140429887D01*
X151118646Y-140425673D01*
X151119688Y-140421312D01*
X151112262Y-140396346D01*
X151064643Y-140301108D01*
X151063456Y-140299984D01*
X151050594Y-140281616D01*
X150955356Y-140186378D01*
X150948648Y-140183250D01*
X150944302Y-140177260D01*
X150920513Y-140166650D01*
X150730037Y-140119031D01*
X150726588Y-140119391D01*
X150711847Y-140116792D01*
X150378514Y-140116792D01*
X150375256Y-140117977D01*
X150360324Y-140119031D01*
X150169848Y-140166650D01*
X150163715Y-140170791D01*
X150156342Y-140171437D01*
X150135005Y-140186378D01*
X150039767Y-140281616D01*
X150039075Y-140283098D01*
X150025718Y-140301107D01*
X149978098Y-140396345D01*
X149977585Y-140400799D01*
X149974703Y-140404235D01*
X149970180Y-140429887D01*
X149970180Y-140620363D01*
X149827323Y-140620363D01*
X149827323Y-139226387D01*
X149971319Y-139226387D01*
X149980228Y-139276911D01*
X150019528Y-139309888D01*
X150045180Y-139314411D01*
X150446371Y-139314411D01*
X150446371Y-139620363D01*
X150447904Y-139624576D01*
X150446863Y-139628937D01*
X150454289Y-139653904D01*
X150501908Y-139749142D01*
X150503097Y-139750267D01*
X150515957Y-139768634D01*
X150563576Y-139816253D01*
X150565057Y-139816944D01*
X150583068Y-139830302D01*
X150678306Y-139877921D01*
X150682759Y-139878433D01*
X150686195Y-139881316D01*
X150711847Y-139885839D01*
X150854704Y-139885839D01*
X150858917Y-139884305D01*
X150863278Y-139885347D01*
X150888245Y-139877921D01*
X150983483Y-139830302D01*
X150984608Y-139829112D01*
X151002975Y-139816253D01*
X151050594Y-139768634D01*
X151051285Y-139767152D01*
X151064643Y-139749142D01*
X151112262Y-139653904D01*
X151112774Y-139649450D01*
X151115657Y-139646015D01*
X151120180Y-139620363D01*
X151120180Y-139239411D01*
X151113516Y-139221102D01*
X151110132Y-139201911D01*
X151104947Y-139197560D01*
X151102633Y-139191202D01*
X151085759Y-139181459D01*
X151070832Y-139168934D01*
X151061089Y-139167216D01*
X151058204Y-139165550D01*
X151054921Y-139166128D01*
X151045180Y-139164411D01*
X150045180Y-139164411D01*
X149996971Y-139181958D01*
X149971319Y-139226387D01*
X149827323Y-139226387D01*
X149827323Y-139021554D01*
X151263037Y-139021554D01*
X151263037Y-142028696D01*
G37*
D11*
G36*
X164421590Y-133336779D02*
G01*
X164386568Y-133441844D01*
X164367116Y-133461295D01*
X164307507Y-133491101D01*
X164211864Y-133491101D01*
X164152254Y-133461296D01*
X164127583Y-133436625D01*
X164097780Y-133377018D01*
X164097780Y-133119673D01*
X164421590Y-133119673D01*
X164421590Y-133336779D01*
G37*
G36*
X164897780Y-133329398D02*
G01*
X164867975Y-133389008D01*
X164843306Y-133413676D01*
X164783697Y-133443482D01*
X164735673Y-133443482D01*
X164676063Y-133413677D01*
X164651395Y-133389008D01*
X164621590Y-133329398D01*
X164621590Y-133119673D01*
X164897780Y-133119673D01*
X164897780Y-133329398D01*
G37*
G36*
X165240637Y-135595863D02*
G01*
X163754923Y-135595863D01*
X163754923Y-135373361D01*
X163899873Y-135373361D01*
X163902674Y-135378262D01*
X163902674Y-135383908D01*
X163917785Y-135404707D01*
X163930537Y-135427022D01*
X163935682Y-135429340D01*
X163939001Y-135433908D01*
X163963447Y-135441851D01*
X163986884Y-135452411D01*
X163992411Y-135451261D01*
X163997780Y-135453006D01*
X164997780Y-135453006D01*
X165056559Y-135433908D01*
X165092886Y-135383908D01*
X165092886Y-135322104D01*
X165056559Y-135272104D01*
X164997780Y-135253006D01*
X164374336Y-135253006D01*
X165047394Y-134868402D01*
X165051189Y-134864224D01*
X165056559Y-134862480D01*
X165071670Y-134841681D01*
X165088953Y-134822658D01*
X165089568Y-134817046D01*
X165092886Y-134812480D01*
X165092886Y-134786776D01*
X165095687Y-134761223D01*
X165092886Y-134756321D01*
X165092886Y-134750676D01*
X165077777Y-134729880D01*
X165065024Y-134707562D01*
X165059877Y-134705242D01*
X165056559Y-134700676D01*
X165032113Y-134692733D01*
X165008676Y-134682173D01*
X165003148Y-134683322D01*
X164997780Y-134681578D01*
X163997780Y-134681578D01*
X163939001Y-134700676D01*
X163902674Y-134750676D01*
X163902674Y-134812480D01*
X163939001Y-134862480D01*
X163997780Y-134881578D01*
X164621224Y-134881578D01*
X163948166Y-135266182D01*
X163944370Y-135270359D01*
X163939001Y-135272104D01*
X163923889Y-135292902D01*
X163906607Y-135311926D01*
X163905991Y-135317537D01*
X163902674Y-135322104D01*
X163902674Y-135347807D01*
X163899873Y-135373361D01*
X163754923Y-135373361D01*
X163754923Y-134193432D01*
X163902674Y-134193432D01*
X163939001Y-134243432D01*
X163997780Y-134262530D01*
X164897780Y-134262530D01*
X164897780Y-134448244D01*
X164916878Y-134507023D01*
X164966878Y-134543350D01*
X165028682Y-134543350D01*
X165078682Y-134507023D01*
X165097780Y-134448244D01*
X165097780Y-133876816D01*
X165078682Y-133818037D01*
X165028682Y-133781710D01*
X164966878Y-133781710D01*
X164916878Y-133818037D01*
X164897780Y-133876816D01*
X164897780Y-134062530D01*
X163997780Y-134062530D01*
X163939001Y-134081628D01*
X163902674Y-134131628D01*
X163902674Y-134193432D01*
X163754923Y-134193432D01*
X163754923Y-133400625D01*
X163897780Y-133400625D01*
X163904904Y-133422551D01*
X163908338Y-133445347D01*
X163955958Y-133540585D01*
X163967330Y-133552131D01*
X163974689Y-133566574D01*
X164022308Y-133614192D01*
X164036749Y-133621550D01*
X164048298Y-133632925D01*
X164143535Y-133680544D01*
X164166333Y-133683977D01*
X164188257Y-133691101D01*
X164331114Y-133691101D01*
X164353037Y-133683977D01*
X164375835Y-133680544D01*
X164471073Y-133632925D01*
X164482620Y-133621551D01*
X164497063Y-133614193D01*
X164544681Y-133566574D01*
X164545166Y-133565622D01*
X164546117Y-133566573D01*
X164560558Y-133573931D01*
X164572107Y-133585306D01*
X164667344Y-133632925D01*
X164690142Y-133636358D01*
X164712066Y-133643482D01*
X164807304Y-133643482D01*
X164829227Y-133636358D01*
X164852025Y-133632925D01*
X164947263Y-133585306D01*
X164958810Y-133573932D01*
X164973253Y-133566574D01*
X165020871Y-133518955D01*
X165028229Y-133504513D01*
X165039604Y-133492965D01*
X165087223Y-133397728D01*
X165090656Y-133374929D01*
X165097780Y-133353006D01*
X165097780Y-133019673D01*
X165092886Y-133004610D01*
X165092886Y-132988771D01*
X165083576Y-132975957D01*
X165078682Y-132960894D01*
X165065868Y-132951584D01*
X165056559Y-132938771D01*
X165041495Y-132933876D01*
X165028682Y-132924567D01*
X165012843Y-132924567D01*
X164997780Y-132919673D01*
X163997780Y-132919673D01*
X163982717Y-132924567D01*
X163966878Y-132924567D01*
X163954064Y-132933876D01*
X163939001Y-132938771D01*
X163929691Y-132951584D01*
X163916878Y-132960894D01*
X163911983Y-132975957D01*
X163902674Y-132988771D01*
X163902674Y-133004610D01*
X163897780Y-133019673D01*
X163897780Y-133400625D01*
X163754923Y-133400625D01*
X163754923Y-132776816D01*
X165240637Y-132776816D01*
X165240637Y-135595863D01*
G37*
G36*
X137477898Y-105581801D02*
G01*
X137378546Y-105283744D01*
X137577251Y-105283744D01*
X137477898Y-105581801D01*
G37*
G36*
X139525385Y-106140886D02*
G01*
X135996946Y-106140886D01*
X135996946Y-105326601D01*
X136139803Y-105326601D01*
X136144697Y-105341663D01*
X136144697Y-105357503D01*
X136154006Y-105370316D01*
X136158901Y-105385380D01*
X136171714Y-105394689D01*
X136181024Y-105407503D01*
X136196087Y-105412397D01*
X136208901Y-105421707D01*
X136224740Y-105421707D01*
X136239803Y-105426601D01*
X136430279Y-105426601D01*
X136489058Y-105407503D01*
X136525385Y-105357503D01*
X136525385Y-105295699D01*
X136489058Y-105245699D01*
X136430279Y-105226601D01*
X136339803Y-105226601D01*
X136339803Y-105034689D01*
X136341440Y-105033051D01*
X136446507Y-104998029D01*
X136509290Y-104998029D01*
X136614354Y-105033051D01*
X136681426Y-105100123D01*
X136716879Y-105171029D01*
X136758850Y-105338910D01*
X136758850Y-105457148D01*
X136716879Y-105625029D01*
X136681426Y-105695935D01*
X136614354Y-105763007D01*
X136509290Y-105798029D01*
X136406267Y-105798029D01*
X136332143Y-105760967D01*
X136271029Y-105751762D01*
X136216176Y-105780238D01*
X136188537Y-105835517D01*
X136198668Y-105896484D01*
X136242701Y-105939853D01*
X136337938Y-105987472D01*
X136360736Y-105990905D01*
X136382660Y-105998029D01*
X136525517Y-105998029D01*
X136540932Y-105993020D01*
X136557140Y-105992897D01*
X136699996Y-105945278D01*
X136718541Y-105931588D01*
X136739085Y-105921121D01*
X136834323Y-105825883D01*
X136841681Y-105811440D01*
X136853055Y-105799893D01*
X136900674Y-105704656D01*
X136902334Y-105693634D01*
X136908245Y-105684188D01*
X136955864Y-105493712D01*
X136955003Y-105481295D01*
X136958850Y-105469458D01*
X136958850Y-105326601D01*
X136955003Y-105314763D01*
X136955864Y-105302347D01*
X136908245Y-105111871D01*
X136902334Y-105102424D01*
X136900674Y-105091403D01*
X136853055Y-104996166D01*
X136841681Y-104984618D01*
X136834323Y-104970176D01*
X136739085Y-104874938D01*
X136725174Y-104867850D01*
X137049227Y-104867850D01*
X137049697Y-104929652D01*
X137383030Y-105929651D01*
X137400940Y-105953914D01*
X137418507Y-105978482D01*
X137419261Y-105978733D01*
X137419735Y-105979375D01*
X137448500Y-105988480D01*
X137477139Y-105998027D01*
X137477899Y-105997786D01*
X137478657Y-105998026D01*
X137507235Y-105988499D01*
X137536061Y-105979375D01*
X137536534Y-105978733D01*
X137537289Y-105978482D01*
X137554843Y-105953930D01*
X137572766Y-105929652D01*
X137573006Y-105928931D01*
X137906602Y-105928931D01*
X137942929Y-105978931D01*
X138001708Y-105998029D01*
X138573136Y-105998029D01*
X138631915Y-105978931D01*
X138668242Y-105928931D01*
X138668242Y-105898029D01*
X138806470Y-105898029D01*
X138825568Y-105956808D01*
X138875568Y-105993135D01*
X138937372Y-105993135D01*
X138987372Y-105956808D01*
X139006470Y-105898029D01*
X139006470Y-105199971D01*
X139041491Y-105094906D01*
X139103346Y-105033051D01*
X139208412Y-104998029D01*
X139287422Y-104998029D01*
X139346201Y-104978931D01*
X139382528Y-104928931D01*
X139382528Y-104867127D01*
X139346201Y-104817127D01*
X139287422Y-104798029D01*
X139192184Y-104798029D01*
X139176768Y-104803037D01*
X139160561Y-104803161D01*
X139017704Y-104850781D01*
X138999159Y-104864470D01*
X138978616Y-104874938D01*
X138883378Y-104970176D01*
X138872910Y-104990719D01*
X138859221Y-105009265D01*
X138811602Y-105152121D01*
X138811478Y-105168328D01*
X138806470Y-105183744D01*
X138806470Y-105898029D01*
X138668242Y-105898029D01*
X138668242Y-105867127D01*
X138631915Y-105817127D01*
X138573136Y-105798029D01*
X138387422Y-105798029D01*
X138387422Y-104898029D01*
X138368324Y-104839250D01*
X138318324Y-104802923D01*
X138256520Y-104802923D01*
X138206520Y-104839250D01*
X138187422Y-104898029D01*
X138187422Y-105798029D01*
X138001708Y-105798029D01*
X137942929Y-105817127D01*
X137906602Y-105867127D01*
X137906602Y-105928931D01*
X137573006Y-105928931D01*
X137906099Y-104929652D01*
X137906569Y-104867850D01*
X137870622Y-104817576D01*
X137811990Y-104798032D01*
X137753068Y-104816683D01*
X137716363Y-104866407D01*
X137643917Y-105083744D01*
X137311879Y-105083744D01*
X137239433Y-104866406D01*
X137202728Y-104816683D01*
X137143806Y-104798031D01*
X137085174Y-104817576D01*
X137049227Y-104867850D01*
X136725174Y-104867850D01*
X136718544Y-104864472D01*
X136699998Y-104850781D01*
X136557140Y-104803161D01*
X136540932Y-104803037D01*
X136525517Y-104798029D01*
X136430279Y-104798029D01*
X136414863Y-104803037D01*
X136398656Y-104803161D01*
X136255799Y-104850781D01*
X136237252Y-104864472D01*
X136216711Y-104874939D01*
X136169092Y-104922557D01*
X136165429Y-104929746D01*
X136158901Y-104934489D01*
X136151664Y-104956760D01*
X136141034Y-104977625D01*
X136142296Y-104985594D01*
X136139803Y-104993268D01*
X136139803Y-105326601D01*
X135996946Y-105326601D01*
X135996946Y-104655172D01*
X139525385Y-104655172D01*
X139525385Y-106140886D01*
G37*
D10*
G36*
X159404814Y-140522676D02*
G01*
X154495187Y-140522676D01*
X154495187Y-139910842D01*
X154638044Y-139910842D01*
X154646953Y-139961366D01*
X154686253Y-139994343D01*
X154711905Y-139998866D01*
X155017857Y-139998866D01*
X155017857Y-140304819D01*
X155035404Y-140353028D01*
X155079833Y-140378680D01*
X155130357Y-140369771D01*
X155163334Y-140330471D01*
X155167857Y-140304819D01*
X155167857Y-140291795D01*
X156590425Y-140291795D01*
X156599334Y-140342319D01*
X156638634Y-140375296D01*
X156664286Y-140379819D01*
X157235714Y-140379819D01*
X157283923Y-140362272D01*
X157309575Y-140317843D01*
X157300666Y-140267319D01*
X157261366Y-140234342D01*
X157235714Y-140229819D01*
X157025000Y-140229819D01*
X157025000Y-139910842D01*
X158352330Y-139910842D01*
X158361239Y-139961366D01*
X158400539Y-139994343D01*
X158426191Y-139998866D01*
X159188096Y-139998866D01*
X159236305Y-139981319D01*
X159261957Y-139936890D01*
X159253048Y-139886366D01*
X159213748Y-139853389D01*
X159188096Y-139848866D01*
X158426191Y-139848866D01*
X158377982Y-139866413D01*
X158352330Y-139910842D01*
X157025000Y-139910842D01*
X157025000Y-139304819D01*
X157023524Y-139300765D01*
X157024545Y-139296576D01*
X157014897Y-139277063D01*
X157007453Y-139256610D01*
X157003718Y-139254454D01*
X157001807Y-139250587D01*
X156981872Y-139241840D01*
X156963024Y-139230958D01*
X156958776Y-139231706D01*
X156954827Y-139229974D01*
X156933932Y-139236087D01*
X156912500Y-139239867D01*
X156909728Y-139243169D01*
X156905589Y-139244381D01*
X156887596Y-139263216D01*
X156796476Y-139399895D01*
X156715096Y-139481275D01*
X156630745Y-139523451D01*
X156595473Y-139560705D01*
X156592398Y-139611916D01*
X156622962Y-139653121D01*
X156672860Y-139665041D01*
X156697827Y-139657615D01*
X156793065Y-139609996D01*
X156794190Y-139608806D01*
X156812557Y-139595947D01*
X156875000Y-139533504D01*
X156875000Y-140229819D01*
X156664286Y-140229819D01*
X156616077Y-140247366D01*
X156590425Y-140291795D01*
X155167857Y-140291795D01*
X155167857Y-139998866D01*
X155473810Y-139998866D01*
X155522019Y-139981319D01*
X155547671Y-139936890D01*
X155538762Y-139886366D01*
X155499462Y-139853389D01*
X155473810Y-139848866D01*
X155167857Y-139848866D01*
X155167857Y-139542914D01*
X155150310Y-139494705D01*
X155105881Y-139469053D01*
X155055357Y-139477962D01*
X155022380Y-139517262D01*
X155017857Y-139542914D01*
X155017857Y-139848866D01*
X154711905Y-139848866D01*
X154663696Y-139866413D01*
X154638044Y-139910842D01*
X154495187Y-139910842D01*
X154495187Y-139087117D01*
X159404814Y-139087117D01*
X159404814Y-140522676D01*
G37*
G36*
X142963037Y-137428696D02*
G01*
X141527323Y-137428696D01*
X141527323Y-137210839D01*
X141670180Y-137210839D01*
X141687727Y-137259048D01*
X141732156Y-137284700D01*
X141782680Y-137275791D01*
X141815657Y-137236491D01*
X141820180Y-137210839D01*
X141820180Y-136772857D01*
X142263576Y-137216253D01*
X142267640Y-137218148D01*
X142269987Y-137221968D01*
X142292892Y-137234371D01*
X142435748Y-137281990D01*
X142437383Y-137281945D01*
X142459466Y-137285839D01*
X142554704Y-137285839D01*
X142558917Y-137284305D01*
X142563278Y-137285347D01*
X142588245Y-137277921D01*
X142683483Y-137230302D01*
X142684608Y-137229112D01*
X142702975Y-137216253D01*
X142750594Y-137168634D01*
X142751285Y-137167152D01*
X142764643Y-137149142D01*
X142812262Y-137053904D01*
X142812774Y-137049450D01*
X142815657Y-137046015D01*
X142820180Y-137020363D01*
X142820180Y-136782268D01*
X142818646Y-136778054D01*
X142819688Y-136773693D01*
X142812262Y-136748727D01*
X142764643Y-136653489D01*
X142763453Y-136652363D01*
X142750594Y-136633997D01*
X142702975Y-136586378D01*
X142656478Y-136564697D01*
X142606924Y-136577974D01*
X142577497Y-136620000D01*
X142581969Y-136671107D01*
X142596909Y-136692444D01*
X142635922Y-136731457D01*
X142670180Y-136799973D01*
X142670180Y-137002658D01*
X142635921Y-137071174D01*
X142605514Y-137101581D01*
X142536999Y-137135839D01*
X142471636Y-137135839D01*
X142357122Y-137097667D01*
X141798213Y-136538759D01*
X141777759Y-136529221D01*
X141758204Y-136517931D01*
X141754823Y-136518527D01*
X141751716Y-136517078D01*
X141729913Y-136522919D01*
X141707680Y-136526840D01*
X141705475Y-136529467D01*
X141702162Y-136530355D01*
X141689213Y-136548846D01*
X141674703Y-136566140D01*
X141673894Y-136570724D01*
X141672735Y-136572381D01*
X141673022Y-136575669D01*
X141670180Y-136591792D01*
X141670180Y-137210839D01*
X141527323Y-137210839D01*
X141527323Y-136374221D01*
X142963037Y-136374221D01*
X142963037Y-137428696D01*
G37*
G36*
X171260180Y-141327288D02*
G01*
X171225922Y-141395803D01*
X171195514Y-141426211D01*
X171126999Y-141460469D01*
X171019552Y-141460469D01*
X170951036Y-141426211D01*
X170920629Y-141395804D01*
X170886371Y-141327288D01*
X170886371Y-141039041D01*
X171260180Y-141039041D01*
X171260180Y-141327288D01*
G37*
G36*
X171098009Y-140297374D02*
G01*
X170695895Y-140431412D01*
X170695895Y-140163335D01*
X171098009Y-140297374D01*
G37*
G36*
X171553037Y-143991135D02*
G01*
X170117323Y-143991135D01*
X170117323Y-143583088D01*
X170260180Y-143583088D01*
X170260739Y-143584625D01*
X170264029Y-143606806D01*
X170311649Y-143749663D01*
X170314436Y-143753175D01*
X170314827Y-143757641D01*
X170329767Y-143778978D01*
X170377386Y-143826597D01*
X170423882Y-143848278D01*
X170473437Y-143835001D01*
X170502863Y-143792975D01*
X170498392Y-143741868D01*
X170483452Y-143720531D01*
X170448351Y-143685430D01*
X170410180Y-143570916D01*
X170410180Y-143500021D01*
X170448351Y-143385507D01*
X170522464Y-143311394D01*
X170599452Y-143272900D01*
X170772986Y-143229517D01*
X170897375Y-143229517D01*
X171070909Y-143272900D01*
X171147896Y-143311394D01*
X171222009Y-143385507D01*
X171260180Y-143500020D01*
X171260180Y-143570918D01*
X171222009Y-143685431D01*
X171186909Y-143720531D01*
X171165228Y-143767028D01*
X171178505Y-143816582D01*
X171220531Y-143846009D01*
X171271638Y-143841537D01*
X171292975Y-143826597D01*
X171340594Y-143778978D01*
X171342489Y-143774913D01*
X171346309Y-143772567D01*
X171358712Y-143749662D01*
X171406331Y-143606806D01*
X171406286Y-143605170D01*
X171410180Y-143583088D01*
X171410180Y-143487850D01*
X171409620Y-143486312D01*
X171406331Y-143464132D01*
X171358712Y-143321276D01*
X171355925Y-143317765D01*
X171355535Y-143313297D01*
X171340594Y-143291960D01*
X171245356Y-143196722D01*
X171243874Y-143196031D01*
X171225864Y-143182673D01*
X171130626Y-143135054D01*
X171127097Y-143134647D01*
X171115275Y-143129375D01*
X170924799Y-143081756D01*
X170921350Y-143082116D01*
X170906609Y-143079517D01*
X170763752Y-143079517D01*
X170760494Y-143080702D01*
X170745562Y-143081756D01*
X170555086Y-143129375D01*
X170552141Y-143131363D01*
X170539735Y-143135054D01*
X170444497Y-143182673D01*
X170443373Y-143183859D01*
X170425005Y-143196722D01*
X170329767Y-143291960D01*
X170327872Y-143296022D01*
X170324052Y-143298370D01*
X170311649Y-143321275D01*
X170264029Y-143464132D01*
X170264073Y-143465767D01*
X170260180Y-143487850D01*
X170260180Y-143583088D01*
X170117323Y-143583088D01*
X170117323Y-142712922D01*
X170261319Y-142712922D01*
X170270228Y-142763446D01*
X170309528Y-142796423D01*
X170335180Y-142800946D01*
X171335180Y-142800946D01*
X171383389Y-142783399D01*
X171409041Y-142738970D01*
X171400132Y-142688446D01*
X171360832Y-142655469D01*
X171335180Y-142650946D01*
X170335180Y-142650946D01*
X170286971Y-142668493D01*
X170261319Y-142712922D01*
X170117323Y-142712922D01*
X170117323Y-142093874D01*
X170261319Y-142093874D01*
X170270228Y-142144398D01*
X170309528Y-142177375D01*
X170335180Y-142181898D01*
X171260180Y-142181898D01*
X171260180Y-142392612D01*
X171277727Y-142440821D01*
X171322156Y-142466473D01*
X171372680Y-142457564D01*
X171405657Y-142418264D01*
X171410180Y-142392612D01*
X171410180Y-141821184D01*
X171392633Y-141772975D01*
X171348204Y-141747323D01*
X171297680Y-141756232D01*
X171264703Y-141795532D01*
X171260180Y-141821184D01*
X171260180Y-142031898D01*
X170335180Y-142031898D01*
X170286971Y-142049445D01*
X170261319Y-142093874D01*
X170117323Y-142093874D01*
X170117323Y-140951017D01*
X170261319Y-140951017D01*
X170270228Y-141001541D01*
X170309528Y-141034518D01*
X170335180Y-141039041D01*
X170736371Y-141039041D01*
X170736371Y-141344993D01*
X170737904Y-141349206D01*
X170736863Y-141353567D01*
X170744289Y-141378534D01*
X170791908Y-141473772D01*
X170793097Y-141474897D01*
X170805957Y-141493264D01*
X170853576Y-141540883D01*
X170855057Y-141541574D01*
X170873068Y-141554932D01*
X170968306Y-141602551D01*
X170972759Y-141603063D01*
X170976195Y-141605946D01*
X171001847Y-141610469D01*
X171144704Y-141610469D01*
X171148917Y-141608935D01*
X171153278Y-141609977D01*
X171178245Y-141602551D01*
X171273483Y-141554932D01*
X171274608Y-141553742D01*
X171292975Y-141540883D01*
X171340594Y-141493264D01*
X171341285Y-141491782D01*
X171354643Y-141473772D01*
X171402262Y-141378534D01*
X171402774Y-141374080D01*
X171405657Y-141370645D01*
X171410180Y-141344993D01*
X171410180Y-140964041D01*
X171403516Y-140945732D01*
X171400132Y-140926541D01*
X171394947Y-140922190D01*
X171392633Y-140915832D01*
X171375759Y-140906089D01*
X171360832Y-140893564D01*
X171351089Y-140891846D01*
X171348204Y-140890180D01*
X171344921Y-140890758D01*
X171335180Y-140889041D01*
X170335180Y-140889041D01*
X170286971Y-140906588D01*
X170261319Y-140951017D01*
X170117323Y-140951017D01*
X170117323Y-140641708D01*
X170260991Y-140641708D01*
X170285420Y-140686822D01*
X170333131Y-140705679D01*
X170358897Y-140701858D01*
X171358897Y-140368525D01*
X171360588Y-140367182D01*
X171362746Y-140367124D01*
X171380498Y-140351382D01*
X171399083Y-140336634D01*
X171399515Y-140334519D01*
X171401132Y-140333086D01*
X171404611Y-140309617D01*
X171409369Y-140286373D01*
X171408340Y-140284473D01*
X171408657Y-140282338D01*
X171396236Y-140262120D01*
X171384940Y-140241259D01*
X171382932Y-140240465D01*
X171381802Y-140238625D01*
X171358897Y-140226223D01*
X170358897Y-139892890D01*
X170307613Y-139894291D01*
X170269228Y-139928328D01*
X170261703Y-139979077D01*
X170288558Y-140022789D01*
X170311463Y-140035192D01*
X170545895Y-140113335D01*
X170545895Y-140481412D01*
X170311463Y-140559556D01*
X170271277Y-140591447D01*
X170260991Y-140641708D01*
X170117323Y-140641708D01*
X170117323Y-139617683D01*
X170261319Y-139617683D01*
X170270228Y-139668207D01*
X170309528Y-139701184D01*
X170335180Y-139705707D01*
X171335180Y-139705707D01*
X171383389Y-139688160D01*
X171409041Y-139643731D01*
X171400132Y-139593207D01*
X171360832Y-139560230D01*
X171335180Y-139555707D01*
X170933990Y-139555707D01*
X170933990Y-139134279D01*
X171335180Y-139134279D01*
X171383389Y-139116732D01*
X171409041Y-139072303D01*
X171400132Y-139021779D01*
X171360832Y-138988802D01*
X171335180Y-138984279D01*
X170335180Y-138984279D01*
X170286971Y-139001826D01*
X170261319Y-139046255D01*
X170270228Y-139096779D01*
X170309528Y-139129756D01*
X170335180Y-139134279D01*
X170783990Y-139134279D01*
X170783990Y-139555707D01*
X170335180Y-139555707D01*
X170286971Y-139573254D01*
X170261319Y-139617683D01*
X170117323Y-139617683D01*
X170117323Y-138841422D01*
X171553037Y-138841422D01*
X171553037Y-143991135D01*
G37*
X208138152Y-141953570D02*
X208804819Y-141715475D01*
X208804819Y-141715475D02*
X208138152Y-141477380D01*
X208804819Y-140572618D02*
X208804819Y-141144046D01*
X208804819Y-140858332D02*
X207804819Y-140858332D01*
X207804819Y-140858332D02*
X207947676Y-140953570D01*
X207947676Y-140953570D02*
X208042914Y-141048808D01*
X208042914Y-141048808D02*
X208090533Y-141144046D01*
X208709580Y-140144046D02*
X208757200Y-140096427D01*
X208757200Y-140096427D02*
X208804819Y-140144046D01*
X208804819Y-140144046D02*
X208757200Y-140191665D01*
X208757200Y-140191665D02*
X208709580Y-140144046D01*
X208709580Y-140144046D02*
X208804819Y-140144046D01*
X207804819Y-139477380D02*
X207804819Y-139382142D01*
X207804819Y-139382142D02*
X207852438Y-139286904D01*
X207852438Y-139286904D02*
X207900057Y-139239285D01*
X207900057Y-139239285D02*
X207995295Y-139191666D01*
X207995295Y-139191666D02*
X208185771Y-139144047D01*
X208185771Y-139144047D02*
X208423866Y-139144047D01*
X208423866Y-139144047D02*
X208614342Y-139191666D01*
X208614342Y-139191666D02*
X208709580Y-139239285D01*
X208709580Y-139239285D02*
X208757200Y-139286904D01*
X208757200Y-139286904D02*
X208804819Y-139382142D01*
X208804819Y-139382142D02*
X208804819Y-139477380D01*
X208804819Y-139477380D02*
X208757200Y-139572618D01*
X208757200Y-139572618D02*
X208709580Y-139620237D01*
X208709580Y-139620237D02*
X208614342Y-139667856D01*
X208614342Y-139667856D02*
X208423866Y-139715475D01*
X208423866Y-139715475D02*
X208185771Y-139715475D01*
X208185771Y-139715475D02*
X207995295Y-139667856D01*
X207995295Y-139667856D02*
X207900057Y-139620237D01*
X207900057Y-139620237D02*
X207852438Y-139572618D01*
X207852438Y-139572618D02*
X207804819Y-139477380D01*
D12*
%TO.C,R21*%
X183915000Y-103377064D02*
X183915000Y-102922936D01*
X185385000Y-103377064D02*
X185385000Y-102922936D01*
%TO.C,R29*%
X124022936Y-117555000D02*
X124477064Y-117555000D01*
X124022936Y-119025000D02*
X124477064Y-119025000D01*
%TO.C,J2*%
X189710000Y-149660000D02*
X181990000Y-149660000D01*
X189710000Y-148440000D02*
X188490000Y-148440000D01*
X189710000Y-141240000D02*
X189710000Y-149660000D01*
X188490000Y-148440000D02*
X188490000Y-143440000D01*
X188490000Y-144440000D02*
X183210000Y-144440000D01*
X188490000Y-143440000D02*
X189710000Y-143440000D01*
X188490000Y-143440000D02*
X188490000Y-141240000D01*
X188490000Y-141240000D02*
X189710000Y-141240000D01*
X187420000Y-147860000D02*
X187100000Y-147940000D01*
X187420000Y-144440000D02*
X187420000Y-147860000D01*
X187400000Y-140750000D02*
X186800000Y-140750000D01*
X187100000Y-147940000D02*
X186780000Y-147860000D01*
X187100000Y-144440000D02*
X187420000Y-144440000D01*
X187100000Y-141350000D02*
X187400000Y-140750000D01*
X186800000Y-140750000D02*
X187100000Y-141350000D01*
X186780000Y-147860000D02*
X186780000Y-144440000D01*
X186780000Y-144440000D02*
X187100000Y-144440000D01*
X185930000Y-143440000D02*
X185770000Y-143440000D01*
X184920000Y-147860000D02*
X184600000Y-147940000D01*
X184920000Y-144440000D02*
X184920000Y-147860000D01*
X184600000Y-147940000D02*
X184280000Y-147860000D01*
X184600000Y-144440000D02*
X184920000Y-144440000D01*
X184280000Y-147860000D02*
X184280000Y-144440000D01*
X184280000Y-144440000D02*
X184600000Y-144440000D01*
X183210000Y-148440000D02*
X183210000Y-143440000D01*
X183210000Y-143440000D02*
X181990000Y-143440000D01*
X183210000Y-141240000D02*
X183210000Y-143440000D01*
X181990000Y-149660000D02*
X181990000Y-141240000D01*
X181990000Y-148440000D02*
X183210000Y-148440000D01*
X181990000Y-141240000D02*
X183210000Y-141240000D01*
%TO.C,R56*%
X199465000Y-129389564D02*
X199465000Y-128935436D01*
X200935000Y-129389564D02*
X200935000Y-128935436D01*
%TO.C,R59*%
X205427064Y-134222500D02*
X203972936Y-134222500D01*
X205427064Y-132402500D02*
X203972936Y-132402500D01*
%TO.C,TP45*%
X176200000Y-126262500D02*
G75*
G03*
X176200000Y-126262500I-700000J0D01*
G01*
%TO.C,R31*%
X123597936Y-136305000D02*
X124052064Y-136305000D01*
X123597936Y-137775000D02*
X124052064Y-137775000D01*
%TO.C,TP27*%
X131937500Y-136785000D02*
G75*
G03*
X131937500Y-136785000I-700000J0D01*
G01*
%TO.C,U4*%
X179560000Y-104150000D02*
X179560000Y-110160000D01*
X172740000Y-106400000D02*
X172740000Y-110160000D01*
X179560000Y-110160000D02*
X178300000Y-110160000D01*
X172740000Y-110160000D02*
X174000000Y-110160000D01*
%TO.C,R35*%
X116739564Y-124575000D02*
X116285436Y-124575000D01*
X116739564Y-123105000D02*
X116285436Y-123105000D01*
%TO.C,D3*%
X194050000Y-106197500D02*
X196050000Y-106197500D01*
X194050000Y-106197500D02*
X194050000Y-102187500D01*
X196050000Y-106197500D02*
X196050000Y-102187500D01*
%TO.C,TP6*%
X170775000Y-136575000D02*
G75*
G03*
X170775000Y-136575000I-700000J0D01*
G01*
%TO.C,TP33*%
X192600000Y-126162500D02*
G75*
G03*
X192600000Y-126162500I-700000J0D01*
G01*
%TO.C,J12*%
X100472500Y-130610000D02*
X100472500Y-120390000D01*
X101692500Y-130610000D02*
X101692500Y-129390000D01*
X108892500Y-130610000D02*
X100472500Y-130610000D01*
X101692500Y-129390000D02*
X106692500Y-129390000D01*
X105692500Y-129390000D02*
X105692500Y-121610000D01*
X106692500Y-129390000D02*
X106692500Y-130610000D01*
X106692500Y-129390000D02*
X108892500Y-129390000D01*
X108892500Y-129390000D02*
X108892500Y-130610000D01*
X102272500Y-128320000D02*
X102192500Y-128000000D01*
X105692500Y-128320000D02*
X102272500Y-128320000D01*
X109382500Y-128300000D02*
X109382500Y-127700000D01*
X102192500Y-128000000D02*
X102272500Y-127680000D01*
X105692500Y-128000000D02*
X105692500Y-128320000D01*
X108782500Y-128000000D02*
X109382500Y-128300000D01*
X109382500Y-127700000D02*
X108782500Y-128000000D01*
X102272500Y-127680000D02*
X105692500Y-127680000D01*
X105692500Y-127680000D02*
X105692500Y-128000000D01*
X106692500Y-126830000D02*
X106692500Y-126670000D01*
X102272500Y-125820000D02*
X102192500Y-125500000D01*
X105692500Y-125820000D02*
X102272500Y-125820000D01*
X102192500Y-125500000D02*
X102272500Y-125180000D01*
X105692500Y-125500000D02*
X105692500Y-125820000D01*
X102272500Y-125180000D02*
X105692500Y-125180000D01*
X105692500Y-125180000D02*
X105692500Y-125500000D01*
X106692500Y-124330000D02*
X106692500Y-124170000D01*
X102272500Y-123320000D02*
X102192500Y-123000000D01*
X105692500Y-123320000D02*
X102272500Y-123320000D01*
X102192500Y-123000000D02*
X102272500Y-122680000D01*
X105692500Y-123000000D02*
X105692500Y-123320000D01*
X102272500Y-122680000D02*
X105692500Y-122680000D01*
X105692500Y-122680000D02*
X105692500Y-123000000D01*
X101692500Y-121610000D02*
X106692500Y-121610000D01*
X106692500Y-121610000D02*
X106692500Y-120390000D01*
X108892500Y-121610000D02*
X106692500Y-121610000D01*
X100472500Y-120390000D02*
X108892500Y-120390000D01*
X101692500Y-120390000D02*
X101692500Y-121610000D01*
X108892500Y-120390000D02*
X108892500Y-121610000D01*
%TO.C,J9*%
X138210000Y-149510000D02*
X127990000Y-149510000D01*
X138210000Y-148290000D02*
X136990000Y-148290000D01*
X138210000Y-141090000D02*
X138210000Y-149510000D01*
X136990000Y-148290000D02*
X136990000Y-143290000D01*
X136990000Y-144290000D02*
X129210000Y-144290000D01*
X136990000Y-143290000D02*
X138210000Y-143290000D01*
X136990000Y-143290000D02*
X136990000Y-141090000D01*
X136990000Y-141090000D02*
X138210000Y-141090000D01*
X135920000Y-147710000D02*
X135600000Y-147790000D01*
X135920000Y-144290000D02*
X135920000Y-147710000D01*
X135900000Y-140600000D02*
X135300000Y-140600000D01*
X135600000Y-147790000D02*
X135280000Y-147710000D01*
X135600000Y-144290000D02*
X135920000Y-144290000D01*
X135600000Y-141200000D02*
X135900000Y-140600000D01*
X135300000Y-140600000D02*
X135600000Y-141200000D01*
X135280000Y-147710000D02*
X135280000Y-144290000D01*
X135280000Y-144290000D02*
X135600000Y-144290000D01*
X134430000Y-143290000D02*
X134270000Y-143290000D01*
X133420000Y-147710000D02*
X133100000Y-147790000D01*
X133420000Y-144290000D02*
X133420000Y-147710000D01*
X133100000Y-147790000D02*
X132780000Y-147710000D01*
X133100000Y-144290000D02*
X133420000Y-144290000D01*
X132780000Y-147710000D02*
X132780000Y-144290000D01*
X132780000Y-144290000D02*
X133100000Y-144290000D01*
X131930000Y-143290000D02*
X131770000Y-143290000D01*
X130920000Y-147710000D02*
X130600000Y-147790000D01*
X130920000Y-144290000D02*
X130920000Y-147710000D01*
X130600000Y-147790000D02*
X130280000Y-147710000D01*
X130600000Y-144290000D02*
X130920000Y-144290000D01*
X130280000Y-147710000D02*
X130280000Y-144290000D01*
X130280000Y-144290000D02*
X130600000Y-144290000D01*
X129210000Y-148290000D02*
X129210000Y-143290000D01*
X129210000Y-143290000D02*
X127990000Y-143290000D01*
X129210000Y-141090000D02*
X129210000Y-143290000D01*
X127990000Y-149510000D02*
X127990000Y-141090000D01*
X127990000Y-148290000D02*
X129210000Y-148290000D01*
X127990000Y-141090000D02*
X129210000Y-141090000D01*
%TO.C,JP16*%
X113112500Y-123115000D02*
X113712500Y-123115000D01*
X114412500Y-123815000D02*
X114412500Y-125215000D01*
X112412500Y-125215000D02*
X112412500Y-123815000D01*
X113712500Y-125915000D02*
X113112500Y-125915000D01*
X114412500Y-123815000D02*
G75*
G03*
X113712500Y-123115000I-699999J1D01*
G01*
X113112500Y-123115000D02*
G75*
G03*
X112412500Y-123815000I-1J-699999D01*
G01*
X113712500Y-125915000D02*
G75*
G03*
X114412500Y-125215000I0J700000D01*
G01*
X112412500Y-125215000D02*
G75*
G03*
X113112500Y-125915000I700000J0D01*
G01*
%TO.C,C12*%
X184161252Y-110362500D02*
X183638748Y-110362500D01*
X184161252Y-108892500D02*
X183638748Y-108892500D01*
%TO.C,TP3*%
X159225000Y-114625000D02*
G75*
G03*
X159225000Y-114625000I-700000J0D01*
G01*
%TO.C,C33*%
X195265000Y-121223752D02*
X195265000Y-120701248D01*
X196735000Y-121223752D02*
X196735000Y-120701248D01*
%TO.C,TP17*%
X149450000Y-107500000D02*
G75*
G03*
X149450000Y-107500000I-700000J0D01*
G01*
%TO.C,R23*%
X118485000Y-113662936D02*
X118485000Y-114117064D01*
X117015000Y-113662936D02*
X117015000Y-114117064D01*
D11*
%TO.C,U2*%
X188225000Y-104840100D02*
X188225000Y-102787501D01*
X191274001Y-103937501D02*
X191274001Y-102537499D01*
D12*
%TO.C,TP48*%
X184300000Y-126162500D02*
G75*
G03*
X184300000Y-126162500I-700000J0D01*
G01*
%TO.C,C26*%
X118398752Y-103162500D02*
X117876248Y-103162500D01*
X118398752Y-101692500D02*
X117876248Y-101692500D01*
%TO.C,J5*%
X163080000Y-106850000D02*
X163080000Y-104930000D01*
X163080000Y-101215000D02*
X163080000Y-102920000D01*
X153920000Y-104930000D02*
X153920000Y-106850000D01*
X153920000Y-102920000D02*
X153920000Y-101215000D01*
X153920000Y-101215000D02*
X163080000Y-101215000D01*
%TO.C,J8*%
X100472500Y-119410000D02*
X100472500Y-109190000D01*
X101692500Y-119410000D02*
X101692500Y-118190000D01*
X108892500Y-119410000D02*
X100472500Y-119410000D01*
X101692500Y-118190000D02*
X106692500Y-118190000D01*
X105692500Y-118190000D02*
X105692500Y-110410000D01*
X106692500Y-118190000D02*
X106692500Y-119410000D01*
X106692500Y-118190000D02*
X108892500Y-118190000D01*
X108892500Y-118190000D02*
X108892500Y-119410000D01*
X102272500Y-117120000D02*
X102192500Y-116800000D01*
X105692500Y-117120000D02*
X102272500Y-117120000D01*
X109382500Y-117100000D02*
X109382500Y-116500000D01*
X102192500Y-116800000D02*
X102272500Y-116480000D01*
X105692500Y-116800000D02*
X105692500Y-117120000D01*
X108782500Y-116800000D02*
X109382500Y-117100000D01*
X109382500Y-116500000D02*
X108782500Y-116800000D01*
X102272500Y-116480000D02*
X105692500Y-116480000D01*
X105692500Y-116480000D02*
X105692500Y-116800000D01*
X106692500Y-115630000D02*
X106692500Y-115470000D01*
X102272500Y-114620000D02*
X102192500Y-114300000D01*
X105692500Y-114620000D02*
X102272500Y-114620000D01*
X102192500Y-114300000D02*
X102272500Y-113980000D01*
X105692500Y-114300000D02*
X105692500Y-114620000D01*
X102272500Y-113980000D02*
X105692500Y-113980000D01*
X105692500Y-113980000D02*
X105692500Y-114300000D01*
X106692500Y-113130000D02*
X106692500Y-112970000D01*
X102272500Y-112120000D02*
X102192500Y-111800000D01*
X105692500Y-112120000D02*
X102272500Y-112120000D01*
X102192500Y-111800000D02*
X102272500Y-111480000D01*
X105692500Y-111800000D02*
X105692500Y-112120000D01*
X102272500Y-111480000D02*
X105692500Y-111480000D01*
X105692500Y-111480000D02*
X105692500Y-111800000D01*
X101692500Y-110410000D02*
X106692500Y-110410000D01*
X106692500Y-110410000D02*
X106692500Y-109190000D01*
X108892500Y-110410000D02*
X106692500Y-110410000D01*
X100472500Y-109190000D02*
X108892500Y-109190000D01*
X101692500Y-109190000D02*
X101692500Y-110410000D01*
X108892500Y-109190000D02*
X108892500Y-110410000D01*
%TO.C,C23*%
X130373752Y-135175000D02*
X129851248Y-135175000D01*
X130373752Y-133705000D02*
X129851248Y-133705000D01*
%TO.C,C39*%
X178690000Y-121223752D02*
X178690000Y-120701248D01*
X180160000Y-121223752D02*
X180160000Y-120701248D01*
%TO.C,C7*%
X194938748Y-108912500D02*
X195461252Y-108912500D01*
X194938748Y-110382500D02*
X195461252Y-110382500D01*
%TO.C,R53*%
X191265000Y-129389564D02*
X191265000Y-128935436D01*
X192735000Y-129389564D02*
X192735000Y-128935436D01*
%TO.C,C13*%
X184161252Y-114562500D02*
X183638748Y-114562500D01*
X184161252Y-113092500D02*
X183638748Y-113092500D01*
%TO.C,R32*%
X117227064Y-105825000D02*
X116772936Y-105825000D01*
X117227064Y-104355000D02*
X116772936Y-104355000D01*
%TO.C,TP22*%
X168850000Y-102400000D02*
G75*
G03*
X168850000Y-102400000I-700000J0D01*
G01*
%TO.C,TP2*%
X161350000Y-114625000D02*
G75*
G03*
X161350000Y-114625000I-700000J0D01*
G01*
%TO.C,TP26*%
X132250000Y-117790000D02*
G75*
G03*
X132250000Y-117790000I-700000J0D01*
G01*
%TO.C,C16*%
X120961252Y-116925000D02*
X120438748Y-116925000D01*
X120961252Y-115455000D02*
X120438748Y-115455000D01*
%TO.C,SW1*%
X139800000Y-119500000D02*
X138600000Y-119500000D01*
X137000000Y-119500000D02*
X135800000Y-119500000D01*
X135800000Y-119500000D02*
X135800000Y-125900000D01*
X139800000Y-125900000D02*
X139800000Y-119500000D01*
X138600000Y-125900000D02*
X139800000Y-125900000D01*
X135800000Y-125900000D02*
X137000000Y-125900000D01*
%TO.C,TP31*%
X192600000Y-123862500D02*
G75*
G03*
X192600000Y-123862500I-700000J0D01*
G01*
%TO.C,C28*%
X186410000Y-120701248D02*
X186410000Y-121223752D01*
X184940000Y-120701248D02*
X184940000Y-121223752D01*
%TO.C,R48*%
X114764564Y-103162500D02*
X114310436Y-103162500D01*
X114764564Y-101692500D02*
X114310436Y-101692500D01*
%TO.C,R27*%
X116739564Y-128775000D02*
X116285436Y-128775000D01*
X116739564Y-127305000D02*
X116285436Y-127305000D01*
%TO.C,TP12*%
X163300000Y-93150000D02*
G75*
G03*
X163300000Y-93150000I-700000J0D01*
G01*
%TO.C,R24*%
X116272936Y-129405000D02*
X116727064Y-129405000D01*
X116272936Y-130875000D02*
X116727064Y-130875000D01*
%TO.C,TP40*%
X176550000Y-137750000D02*
G75*
G03*
X176550000Y-137750000I-700000J0D01*
G01*
%TO.C,D6*%
X119752500Y-120365000D02*
X119752500Y-122365000D01*
X119752500Y-120365000D02*
X123762500Y-120365000D01*
X119752500Y-122365000D02*
X123762500Y-122365000D01*
%TO.C,R50*%
X129897936Y-131605000D02*
X130352064Y-131605000D01*
X129897936Y-133075000D02*
X130352064Y-133075000D01*
%TO.C,R39*%
X115847500Y-136325436D02*
X115847500Y-136779564D01*
X114377500Y-136325436D02*
X114377500Y-136779564D01*
%TO.C,R9*%
X102385000Y-134372936D02*
X102385000Y-134827064D01*
X100915000Y-134372936D02*
X100915000Y-134827064D01*
%TO.C,U9*%
X201440000Y-126912500D02*
X201440000Y-130562500D01*
X201440000Y-126912500D02*
X201440000Y-124712500D01*
X206960000Y-126912500D02*
X206960000Y-129112500D01*
X206960000Y-126912500D02*
X206960000Y-124712500D01*
%TO.C,TP28*%
X130050000Y-117790000D02*
G75*
G03*
X130050000Y-117790000I-700000J0D01*
G01*
%TO.C,RV4*%
X134370000Y-101970000D02*
X132990000Y-101970000D01*
X134370000Y-101970000D02*
X134370000Y-107210000D01*
X130510000Y-101970000D02*
X129130000Y-101970000D01*
X129130000Y-101970000D02*
X129130000Y-107210000D01*
X134370000Y-107210000D02*
X133789000Y-107210000D01*
X132010000Y-107210000D02*
X131490000Y-107210000D01*
X129710000Y-107210000D02*
X129130000Y-107210000D01*
%TO.C,R60*%
X182527064Y-134122500D02*
X181072936Y-134122500D01*
X182527064Y-132302500D02*
X181072936Y-132302500D01*
%TO.C,R26*%
X117214564Y-109825000D02*
X116760436Y-109825000D01*
X117214564Y-108355000D02*
X116760436Y-108355000D01*
%TO.C,C22*%
X130948752Y-116225000D02*
X130426248Y-116225000D01*
X130948752Y-114755000D02*
X130426248Y-114755000D01*
%TO.C,R6*%
X149485000Y-110185436D02*
X149485000Y-110639564D01*
X148015000Y-110185436D02*
X148015000Y-110639564D01*
%TO.C,TP13*%
X156425000Y-114425000D02*
G75*
G03*
X156425000Y-114425000I-700000J0D01*
G01*
%TO.C,TP30*%
X184300000Y-123862500D02*
G75*
G03*
X184300000Y-123862500I-700000J0D01*
G01*
%TO.C,TP34*%
X194100000Y-133312500D02*
G75*
G03*
X194100000Y-133312500I-700000J0D01*
G01*
%TO.C,C30*%
X189140000Y-121223752D02*
X189140000Y-120701248D01*
X190610000Y-121223752D02*
X190610000Y-120701248D01*
%TO.C,U7*%
X184940000Y-126912500D02*
X184940000Y-130562500D01*
X184940000Y-126912500D02*
X184940000Y-124712500D01*
X190460000Y-126912500D02*
X190460000Y-129112500D01*
X190460000Y-126912500D02*
X190460000Y-124712500D01*
%TO.C,J1*%
X180960000Y-149660000D02*
X173240000Y-149660000D01*
X180960000Y-148440000D02*
X179740000Y-148440000D01*
X180960000Y-141240000D02*
X180960000Y-149660000D01*
X179740000Y-148440000D02*
X179740000Y-143440000D01*
X179740000Y-144440000D02*
X174460000Y-144440000D01*
X179740000Y-143440000D02*
X180960000Y-143440000D01*
X179740000Y-143440000D02*
X179740000Y-141240000D01*
X179740000Y-141240000D02*
X180960000Y-141240000D01*
X178670000Y-147860000D02*
X178350000Y-147940000D01*
X178670000Y-144440000D02*
X178670000Y-147860000D01*
X178650000Y-140750000D02*
X178050000Y-140750000D01*
X178350000Y-147940000D02*
X178030000Y-147860000D01*
X178350000Y-144440000D02*
X178670000Y-144440000D01*
X178350000Y-141350000D02*
X178650000Y-140750000D01*
X178050000Y-140750000D02*
X178350000Y-141350000D01*
X178030000Y-147860000D02*
X178030000Y-144440000D01*
X178030000Y-144440000D02*
X178350000Y-144440000D01*
X177180000Y-143440000D02*
X177020000Y-143440000D01*
X176170000Y-147860000D02*
X175850000Y-147940000D01*
X176170000Y-144440000D02*
X176170000Y-147860000D01*
X175850000Y-147940000D02*
X175530000Y-147860000D01*
X175850000Y-144440000D02*
X176170000Y-144440000D01*
X175530000Y-147860000D02*
X175530000Y-144440000D01*
X175530000Y-144440000D02*
X175850000Y-144440000D01*
X174460000Y-148440000D02*
X174460000Y-143440000D01*
X174460000Y-143440000D02*
X173240000Y-143440000D01*
X174460000Y-141240000D02*
X174460000Y-143440000D01*
X173240000Y-149660000D02*
X173240000Y-141240000D01*
X173240000Y-148440000D02*
X174460000Y-148440000D01*
X173240000Y-141240000D02*
X174460000Y-141240000D01*
%TO.C,TP44*%
X200800000Y-123862500D02*
G75*
G03*
X200800000Y-123862500I-700000J0D01*
G01*
%TO.C,TP25*%
X113737500Y-129985000D02*
G75*
G03*
X113737500Y-129985000I-700000J0D01*
G01*
%TO.C,JP2*%
X108050000Y-134900000D02*
X108050000Y-134300000D01*
X108750000Y-133600000D02*
X110150000Y-133600000D01*
X110150000Y-135600000D02*
X108750000Y-135600000D01*
X110850000Y-134300000D02*
X110850000Y-134900000D01*
X108750000Y-133600000D02*
G75*
G03*
X108050000Y-134300000I-1J-699999D01*
G01*
X108050000Y-134900000D02*
G75*
G03*
X108750000Y-135600000I699999J-1D01*
G01*
X110850000Y-134300000D02*
G75*
G03*
X110150000Y-133600000I-700000J0D01*
G01*
X110150000Y-135600000D02*
G75*
G03*
X110850000Y-134900000I0J700000D01*
G01*
%TO.C,TP1*%
X136400000Y-117650000D02*
G75*
G03*
X136400000Y-117650000I-700000J0D01*
G01*
%TO.C,TP8*%
X170775000Y-134425000D02*
G75*
G03*
X170775000Y-134425000I-700000J0D01*
G01*
%TO.C,C2*%
X141785000Y-114213748D02*
X141785000Y-114736252D01*
X140315000Y-114213748D02*
X140315000Y-114736252D01*
%TO.C,TP19*%
X198850000Y-111750000D02*
G75*
G03*
X198850000Y-111750000I-700000J0D01*
G01*
%TO.C,R4*%
X165334165Y-113844718D02*
X165655282Y-114165835D01*
X164294718Y-114884165D02*
X164615835Y-115205282D01*
%TO.C,R22*%
X116772936Y-110355000D02*
X117227064Y-110355000D01*
X116772936Y-111825000D02*
X117227064Y-111825000D01*
%TO.C,C11*%
X184161252Y-112472500D02*
X183638748Y-112472500D01*
X184161252Y-111002500D02*
X183638748Y-111002500D01*
%TO.C,TP15*%
X165675000Y-90300000D02*
G75*
G03*
X165675000Y-90300000I-700000J0D01*
G01*
%TO.C,R46*%
X127785000Y-116650436D02*
X127785000Y-117104564D01*
X126315000Y-116650436D02*
X126315000Y-117104564D01*
%TO.C,R45*%
X129897936Y-127405000D02*
X130352064Y-127405000D01*
X129897936Y-128875000D02*
X130352064Y-128875000D01*
%TO.C,RV2*%
X144920000Y-130380000D02*
X143540000Y-130380000D01*
X144920000Y-130380000D02*
X144920000Y-135620000D01*
X141060000Y-130380000D02*
X139680000Y-130380000D01*
X139680000Y-130380000D02*
X139680000Y-135620000D01*
X144920000Y-135620000D02*
X144339000Y-135620000D01*
X142560000Y-135620000D02*
X142040000Y-135620000D01*
X140260000Y-135620000D02*
X139680000Y-135620000D01*
%TO.C,JP15*%
X113650000Y-104377500D02*
X114250000Y-104377500D01*
X114950000Y-105077500D02*
X114950000Y-106477500D01*
X112950000Y-106477500D02*
X112950000Y-105077500D01*
X114250000Y-107177500D02*
X113650000Y-107177500D01*
X114950000Y-105077500D02*
G75*
G03*
X114250000Y-104377500I-699999J1D01*
G01*
X113650000Y-104377500D02*
G75*
G03*
X112950000Y-105077500I-1J-699999D01*
G01*
X114250000Y-107177500D02*
G75*
G03*
X114950000Y-106477500I0J700000D01*
G01*
X112950000Y-106477500D02*
G75*
G03*
X113650000Y-107177500I700000J0D01*
G01*
%TO.C,C25*%
X130423752Y-130975000D02*
X129901248Y-130975000D01*
X130423752Y-129505000D02*
X129901248Y-129505000D01*
%TO.C,C8*%
X194938748Y-111022500D02*
X195461252Y-111022500D01*
X194938748Y-112492500D02*
X195461252Y-112492500D01*
%TO.C,C27*%
X118073752Y-122100000D02*
X117551248Y-122100000D01*
X118073752Y-120630000D02*
X117551248Y-120630000D01*
%TO.C,C35*%
X178060000Y-120701248D02*
X178060000Y-121223752D01*
X176590000Y-120701248D02*
X176590000Y-121223752D01*
%TO.C,C29*%
X194635000Y-120701248D02*
X194635000Y-121223752D01*
X193165000Y-120701248D02*
X193165000Y-121223752D01*
%TO.C,J3*%
X209777500Y-109390000D02*
X209777500Y-117110000D01*
X208557500Y-109390000D02*
X208557500Y-110610000D01*
X201357500Y-109390000D02*
X209777500Y-109390000D01*
X208557500Y-110610000D02*
X203557500Y-110610000D01*
X204557500Y-110610000D02*
X204557500Y-115890000D01*
X203557500Y-110610000D02*
X203557500Y-109390000D01*
X203557500Y-110610000D02*
X201357500Y-110610000D01*
X201357500Y-110610000D02*
X201357500Y-109390000D01*
X207977500Y-111680000D02*
X208057500Y-112000000D01*
X204557500Y-111680000D02*
X207977500Y-111680000D01*
X200867500Y-111700000D02*
X200867500Y-112300000D01*
X208057500Y-112000000D02*
X207977500Y-112320000D01*
X204557500Y-112000000D02*
X204557500Y-111680000D01*
X201467500Y-112000000D02*
X200867500Y-111700000D01*
X200867500Y-112300000D02*
X201467500Y-112000000D01*
X207977500Y-112320000D02*
X204557500Y-112320000D01*
X204557500Y-112320000D02*
X204557500Y-112000000D01*
X203557500Y-113170000D02*
X203557500Y-113330000D01*
X207977500Y-114180000D02*
X208057500Y-114500000D01*
X204557500Y-114180000D02*
X207977500Y-114180000D01*
X208057500Y-114500000D02*
X207977500Y-114820000D01*
X204557500Y-114500000D02*
X204557500Y-114180000D01*
X207977500Y-114820000D02*
X204557500Y-114820000D01*
X204557500Y-114820000D02*
X204557500Y-114500000D01*
X208557500Y-115890000D02*
X203557500Y-115890000D01*
X203557500Y-115890000D02*
X203557500Y-117110000D01*
X201357500Y-115890000D02*
X203557500Y-115890000D01*
X209777500Y-117110000D02*
X201357500Y-117110000D01*
X208557500Y-117110000D02*
X208557500Y-115890000D01*
X201357500Y-117110000D02*
X201357500Y-115890000D01*
%TO.C,JP4*%
X108050000Y-138812500D02*
X108050000Y-138212500D01*
X108750000Y-137512500D02*
X110150000Y-137512500D01*
X110150000Y-139512500D02*
X108750000Y-139512500D01*
X110850000Y-138212500D02*
X110850000Y-138812500D01*
X108750000Y-137512500D02*
G75*
G03*
X108050000Y-138212500I-1J-699999D01*
G01*
X108050000Y-138812500D02*
G75*
G03*
X108750000Y-139512500I699999J-1D01*
G01*
X110850000Y-138212500D02*
G75*
G03*
X110150000Y-137512500I-700000J0D01*
G01*
X110150000Y-139512500D02*
G75*
G03*
X110850000Y-138812500I0J700000D01*
G01*
%TO.C,D5*%
X120040000Y-101490000D02*
X120040000Y-103490000D01*
X120040000Y-101490000D02*
X124050000Y-101490000D01*
X120040000Y-103490000D02*
X124050000Y-103490000D01*
%TO.C,R54*%
X189977064Y-134135000D02*
X188522936Y-134135000D01*
X189977064Y-132315000D02*
X188522936Y-132315000D01*
%TO.C,JP1*%
X149450000Y-128800000D02*
X148850000Y-128800000D01*
X148150000Y-128100000D02*
X148150000Y-126700000D01*
X150150000Y-126700000D02*
X150150000Y-128100000D01*
X148850000Y-126000000D02*
X149450000Y-126000000D01*
X148150000Y-128100000D02*
G75*
G03*
X148850000Y-128800000I699999J-1D01*
G01*
X149450000Y-128800000D02*
G75*
G03*
X150150000Y-128100000I1J699999D01*
G01*
X148850000Y-126000000D02*
G75*
G03*
X148150000Y-126700000I0J-700000D01*
G01*
X150150000Y-126700000D02*
G75*
G03*
X149450000Y-126000000I-700000J0D01*
G01*
%TO.C,TP11*%
X160900000Y-93150000D02*
G75*
G03*
X160900000Y-93150000I-700000J0D01*
G01*
%TO.C,C38*%
X203465000Y-121223752D02*
X203465000Y-120701248D01*
X204935000Y-121223752D02*
X204935000Y-120701248D01*
%TO.C,TP10*%
X158500000Y-93150000D02*
G75*
G03*
X158500000Y-93150000I-700000J0D01*
G01*
%TO.C,C9*%
X194938748Y-106802500D02*
X195461252Y-106802500D01*
X194938748Y-108272500D02*
X195461252Y-108272500D01*
%TO.C,C17*%
X120523752Y-135675000D02*
X120001248Y-135675000D01*
X120523752Y-134205000D02*
X120001248Y-134205000D01*
%TO.C,R36*%
X113747500Y-136325436D02*
X113747500Y-136779564D01*
X112277500Y-136325436D02*
X112277500Y-136779564D01*
%TO.C,R18*%
X183915000Y-106977064D02*
X183915000Y-106522936D01*
X185385000Y-106977064D02*
X185385000Y-106522936D01*
%TO.C,TP29*%
X129737500Y-136785000D02*
G75*
G03*
X129737500Y-136785000I-700000J0D01*
G01*
%TO.C,C19*%
X114915000Y-114113752D02*
X114915000Y-113591248D01*
X116385000Y-114113752D02*
X116385000Y-113591248D01*
%TO.C,TP32*%
X186400000Y-133212500D02*
G75*
G03*
X186400000Y-133212500I-700000J0D01*
G01*
%TO.C,J13*%
X149410000Y-149510000D02*
X139190000Y-149510000D01*
X149410000Y-148290000D02*
X148190000Y-148290000D01*
X149410000Y-141090000D02*
X149410000Y-149510000D01*
X148190000Y-148290000D02*
X148190000Y-143290000D01*
X148190000Y-144290000D02*
X140410000Y-144290000D01*
X148190000Y-143290000D02*
X149410000Y-143290000D01*
X148190000Y-143290000D02*
X148190000Y-141090000D01*
X148190000Y-141090000D02*
X149410000Y-141090000D01*
X147120000Y-147710000D02*
X146800000Y-147790000D01*
X147120000Y-144290000D02*
X147120000Y-147710000D01*
X147100000Y-140600000D02*
X146500000Y-140600000D01*
X146800000Y-147790000D02*
X146480000Y-147710000D01*
X146800000Y-144290000D02*
X147120000Y-144290000D01*
X146800000Y-141200000D02*
X147100000Y-140600000D01*
X146500000Y-140600000D02*
X146800000Y-141200000D01*
X146480000Y-147710000D02*
X146480000Y-144290000D01*
X146480000Y-144290000D02*
X146800000Y-144290000D01*
X145630000Y-143290000D02*
X145470000Y-143290000D01*
X144620000Y-147710000D02*
X144300000Y-147790000D01*
X144620000Y-144290000D02*
X144620000Y-147710000D01*
X144300000Y-147790000D02*
X143980000Y-147710000D01*
X144300000Y-144290000D02*
X144620000Y-144290000D01*
X143980000Y-147710000D02*
X143980000Y-144290000D01*
X143980000Y-144290000D02*
X144300000Y-144290000D01*
X143130000Y-143290000D02*
X142970000Y-143290000D01*
X142120000Y-147710000D02*
X141800000Y-147790000D01*
X142120000Y-144290000D02*
X142120000Y-147710000D01*
X141800000Y-147790000D02*
X141480000Y-147710000D01*
X141800000Y-144290000D02*
X142120000Y-144290000D01*
X141480000Y-147710000D02*
X141480000Y-144290000D01*
X141480000Y-144290000D02*
X141800000Y-144290000D01*
X140410000Y-148290000D02*
X140410000Y-143290000D01*
X140410000Y-143290000D02*
X139190000Y-143290000D01*
X140410000Y-141090000D02*
X140410000Y-143290000D01*
X139190000Y-149510000D02*
X139190000Y-141090000D01*
X139190000Y-148290000D02*
X140410000Y-148290000D01*
X139190000Y-141090000D02*
X140410000Y-141090000D01*
%TO.C,C18*%
X114285000Y-113591248D02*
X114285000Y-114113752D01*
X112815000Y-113591248D02*
X112815000Y-114113752D01*
%TO.C,TP14*%
X153875000Y-114425000D02*
G75*
G03*
X153875000Y-114425000I-700000J0D01*
G01*
%TO.C,SW2*%
X135800000Y-116025000D02*
X137000000Y-116025000D01*
X138600000Y-116025000D02*
X139800000Y-116025000D01*
X139800000Y-116025000D02*
X139800000Y-109625000D01*
X135800000Y-109625000D02*
X135800000Y-116025000D01*
X137000000Y-109625000D02*
X135800000Y-109625000D01*
X139800000Y-109625000D02*
X138600000Y-109625000D01*
%TO.C,R42*%
X126285436Y-120630000D02*
X126739564Y-120630000D01*
X126285436Y-122100000D02*
X126739564Y-122100000D01*
%TO.C,U10*%
X176765000Y-126912500D02*
X176765000Y-130562500D01*
X176765000Y-126912500D02*
X176765000Y-124712500D01*
X182285000Y-126912500D02*
X182285000Y-129112500D01*
X182285000Y-126912500D02*
X182285000Y-124712500D01*
%TO.C,R57*%
X174790000Y-129389564D02*
X174790000Y-128935436D01*
X176260000Y-129389564D02*
X176260000Y-128935436D01*
%TO.C,C21*%
X114377500Y-133251252D02*
X114377500Y-132728748D01*
X115847500Y-133251252D02*
X115847500Y-132728748D01*
%TO.C,C32*%
X187040000Y-121223752D02*
X187040000Y-120701248D01*
X188510000Y-121223752D02*
X188510000Y-120701248D01*
%TO.C,R19*%
X198389564Y-102485000D02*
X197935436Y-102485000D01*
X198389564Y-101015000D02*
X197935436Y-101015000D01*
%TO.C,R49*%
X130447936Y-112655000D02*
X130902064Y-112655000D01*
X130447936Y-114125000D02*
X130902064Y-114125000D01*
%TO.C,R1*%
X140315000Y-124677064D02*
X140315000Y-124222936D01*
X141785000Y-124677064D02*
X141785000Y-124222936D01*
%TO.C,R8*%
X165877064Y-137535000D02*
X165422936Y-137535000D01*
X165877064Y-136065000D02*
X165422936Y-136065000D01*
%TO.C,C15*%
X175761252Y-103135000D02*
X175238748Y-103135000D01*
X175761252Y-101665000D02*
X175238748Y-101665000D01*
%TO.C,R52*%
X183040000Y-129389564D02*
X183040000Y-128935436D01*
X184510000Y-129389564D02*
X184510000Y-128935436D01*
%TO.C,L1*%
X191700000Y-106677500D02*
X192550000Y-106677500D01*
X187000000Y-106677500D02*
X187800000Y-106677500D01*
X193160000Y-107287500D02*
X193160000Y-112987500D01*
X186340000Y-112987500D02*
X186340000Y-107337500D01*
X192550000Y-113597500D02*
X191700000Y-113597500D01*
X187800000Y-113597500D02*
X186950000Y-113597500D01*
X193160000Y-107287500D02*
G75*
G03*
X192550000Y-106677500I-610000J0D01*
G01*
X187000000Y-106677500D02*
G75*
G03*
X186340000Y-107337500I2J-660002D01*
G01*
X192550000Y-113597500D02*
G75*
G03*
X193160000Y-112987500I0J610000D01*
G01*
X186340000Y-112987500D02*
G75*
G03*
X186950000Y-113597500I610000J0D01*
G01*
%TO.C,D2*%
X103065000Y-136927500D02*
X103065000Y-140097500D01*
X103065000Y-140097500D02*
X106950000Y-140097500D01*
X106950000Y-136927500D02*
X103065000Y-136927500D01*
%TO.C,TP47*%
X207050000Y-135637500D02*
G75*
G03*
X207050000Y-135637500I-700000J0D01*
G01*
%TO.C,TP18*%
X160450000Y-87975000D02*
G75*
G03*
X160450000Y-87975000I-700000J0D01*
G01*
%TO.C,Q1*%
X198437500Y-102990000D02*
X196762500Y-102990000D01*
X198437500Y-102990000D02*
X199087500Y-102990000D01*
X198437500Y-106110000D02*
X197787500Y-106110000D01*
X198437500Y-106110000D02*
X199087500Y-106110000D01*
%TO.C,TP9*%
X157575000Y-90012500D02*
G75*
G03*
X157575000Y-90012500I-700000J0D01*
G01*
%TO.C,TP4*%
X140550000Y-117700000D02*
G75*
G03*
X140550000Y-117700000I-700000J0D01*
G01*
%TO.C,R40*%
X124477064Y-116925000D02*
X124022936Y-116925000D01*
X124477064Y-115455000D02*
X124022936Y-115455000D01*
%TO.C,C36*%
X205565000Y-121223752D02*
X205565000Y-120701248D01*
X207035000Y-121223752D02*
X207035000Y-120701248D01*
%TO.C,R38*%
X116385000Y-117187936D02*
X116385000Y-117642064D01*
X114915000Y-117187936D02*
X114915000Y-117642064D01*
%TO.C,TP41*%
X185350000Y-137750000D02*
G75*
G03*
X185350000Y-137750000I-700000J0D01*
G01*
%TO.C,C4*%
X167704457Y-127584990D02*
X167334990Y-127954457D01*
X166665010Y-126545543D02*
X166295543Y-126915010D01*
%TO.C,R3*%
X160735000Y-111522936D02*
X160735000Y-111977064D01*
X159265000Y-111522936D02*
X159265000Y-111977064D01*
%TO.C,U3*%
X171910000Y-104150000D02*
X171910000Y-110160000D01*
X165090000Y-106400000D02*
X165090000Y-110160000D01*
X171910000Y-110160000D02*
X170650000Y-110160000D01*
X165090000Y-110160000D02*
X166350000Y-110160000D01*
%TO.C,R51*%
X114439564Y-122100000D02*
X113985436Y-122100000D01*
X114439564Y-120630000D02*
X113985436Y-120630000D01*
%TO.C,TP46*%
X201862500Y-133300000D02*
G75*
G03*
X201862500Y-133300000I-700000J0D01*
G01*
%TO.C,R2*%
X162760000Y-111535436D02*
X162760000Y-111989564D01*
X161290000Y-111535436D02*
X161290000Y-111989564D01*
%TO.C,J4*%
X127010000Y-149510000D02*
X116790000Y-149510000D01*
X127010000Y-148290000D02*
X125790000Y-148290000D01*
X127010000Y-141090000D02*
X127010000Y-149510000D01*
X125790000Y-148290000D02*
X125790000Y-143290000D01*
X125790000Y-144290000D02*
X118010000Y-144290000D01*
X125790000Y-143290000D02*
X127010000Y-143290000D01*
X125790000Y-143290000D02*
X125790000Y-141090000D01*
X125790000Y-141090000D02*
X127010000Y-141090000D01*
X124720000Y-147710000D02*
X124400000Y-147790000D01*
X124720000Y-144290000D02*
X124720000Y-147710000D01*
X124700000Y-140600000D02*
X124100000Y-140600000D01*
X124400000Y-147790000D02*
X124080000Y-147710000D01*
X124400000Y-144290000D02*
X124720000Y-144290000D01*
X124400000Y-141200000D02*
X124700000Y-140600000D01*
X124100000Y-140600000D02*
X124400000Y-141200000D01*
X124080000Y-147710000D02*
X124080000Y-144290000D01*
X124080000Y-144290000D02*
X124400000Y-144290000D01*
X123230000Y-143290000D02*
X123070000Y-143290000D01*
X122220000Y-147710000D02*
X121900000Y-147790000D01*
X122220000Y-144290000D02*
X122220000Y-147710000D01*
X121900000Y-147790000D02*
X121580000Y-147710000D01*
X121900000Y-144290000D02*
X122220000Y-144290000D01*
X121580000Y-147710000D02*
X121580000Y-144290000D01*
X121580000Y-144290000D02*
X121900000Y-144290000D01*
X120730000Y-143290000D02*
X120570000Y-143290000D01*
X119720000Y-147710000D02*
X119400000Y-147790000D01*
X119720000Y-144290000D02*
X119720000Y-147710000D01*
X119400000Y-147790000D02*
X119080000Y-147710000D01*
X119400000Y-144290000D02*
X119720000Y-144290000D01*
X119080000Y-147710000D02*
X119080000Y-144290000D01*
X119080000Y-144290000D02*
X119400000Y-144290000D01*
X118010000Y-148290000D02*
X118010000Y-143290000D01*
X118010000Y-143290000D02*
X116790000Y-143290000D01*
X118010000Y-141090000D02*
X118010000Y-143290000D01*
X116790000Y-149510000D02*
X116790000Y-141090000D01*
X116790000Y-148290000D02*
X118010000Y-148290000D01*
X116790000Y-141090000D02*
X118010000Y-141090000D01*
%TO.C,JP6*%
X144250000Y-128800000D02*
X143650000Y-128800000D01*
X142950000Y-128100000D02*
X142950000Y-126700000D01*
X144950000Y-126700000D02*
X144950000Y-128100000D01*
X143650000Y-126000000D02*
X144250000Y-126000000D01*
X142950000Y-128100000D02*
G75*
G03*
X143650000Y-128800000I699999J-1D01*
G01*
X144250000Y-128800000D02*
G75*
G03*
X144950000Y-128100000I1J699999D01*
G01*
X143650000Y-126000000D02*
G75*
G03*
X142950000Y-126700000I0J-700000D01*
G01*
X144950000Y-126700000D02*
G75*
G03*
X144250000Y-126000000I-700000J0D01*
G01*
%TO.C,J11*%
X169460000Y-149627500D02*
X161740000Y-149627500D01*
X169460000Y-148407500D02*
X168240000Y-148407500D01*
X169460000Y-141207500D02*
X169460000Y-149627500D01*
X168240000Y-148407500D02*
X168240000Y-143407500D01*
X168240000Y-144407500D02*
X162960000Y-144407500D01*
X168240000Y-143407500D02*
X169460000Y-143407500D01*
X168240000Y-143407500D02*
X168240000Y-141207500D01*
X168240000Y-141207500D02*
X169460000Y-141207500D01*
X167170000Y-147827500D02*
X166850000Y-147907500D01*
X167170000Y-144407500D02*
X167170000Y-147827500D01*
X167150000Y-140717500D02*
X166550000Y-140717500D01*
X166850000Y-147907500D02*
X166530000Y-147827500D01*
X166850000Y-144407500D02*
X167170000Y-144407500D01*
X166850000Y-141317500D02*
X167150000Y-140717500D01*
X166550000Y-140717500D02*
X166850000Y-141317500D01*
X166530000Y-147827500D02*
X166530000Y-144407500D01*
X166530000Y-144407500D02*
X166850000Y-144407500D01*
X165680000Y-143407500D02*
X165520000Y-143407500D01*
X164670000Y-147827500D02*
X164350000Y-147907500D01*
X164670000Y-144407500D02*
X164670000Y-147827500D01*
X164350000Y-147907500D02*
X164030000Y-147827500D01*
X164350000Y-144407500D02*
X164670000Y-144407500D01*
X164030000Y-147827500D02*
X164030000Y-144407500D01*
X164030000Y-144407500D02*
X164350000Y-144407500D01*
X162960000Y-148407500D02*
X162960000Y-143407500D01*
X162960000Y-143407500D02*
X161740000Y-143407500D01*
X162960000Y-141207500D02*
X162960000Y-143407500D01*
X161740000Y-149627500D02*
X161740000Y-141207500D01*
X161740000Y-148407500D02*
X162960000Y-148407500D01*
X161740000Y-141207500D02*
X162960000Y-141207500D01*
%TO.C,C14*%
X170888748Y-101665000D02*
X171411252Y-101665000D01*
X170888748Y-103135000D02*
X171411252Y-103135000D01*
%TO.C,C20*%
X113747500Y-132728748D02*
X113747500Y-133251252D01*
X112277500Y-132728748D02*
X112277500Y-133251252D01*
%TO.C,D1*%
X103065000Y-133015000D02*
X103065000Y-136185000D01*
X103065000Y-136185000D02*
X106950000Y-136185000D01*
X106950000Y-133015000D02*
X103065000Y-133015000D01*
%TO.C,TP7*%
X163375000Y-90300000D02*
G75*
G03*
X163375000Y-90300000I-700000J0D01*
G01*
%TO.C,J6*%
X198410000Y-149627500D02*
X190690000Y-149627500D01*
X198410000Y-148407500D02*
X197190000Y-148407500D01*
X198410000Y-141207500D02*
X198410000Y-149627500D01*
X197190000Y-148407500D02*
X197190000Y-143407500D01*
X197190000Y-144407500D02*
X191910000Y-144407500D01*
X197190000Y-143407500D02*
X198410000Y-143407500D01*
X197190000Y-143407500D02*
X197190000Y-141207500D01*
X197190000Y-141207500D02*
X198410000Y-141207500D01*
X196120000Y-147827500D02*
X195800000Y-147907500D01*
X196120000Y-144407500D02*
X196120000Y-147827500D01*
X196100000Y-140717500D02*
X195500000Y-140717500D01*
X195800000Y-147907500D02*
X195480000Y-147827500D01*
X195800000Y-144407500D02*
X196120000Y-144407500D01*
X195800000Y-141317500D02*
X196100000Y-140717500D01*
X195500000Y-140717500D02*
X195800000Y-141317500D01*
X195480000Y-147827500D02*
X195480000Y-144407500D01*
X195480000Y-144407500D02*
X195800000Y-144407500D01*
X194630000Y-143407500D02*
X194470000Y-143407500D01*
X193620000Y-147827500D02*
X193300000Y-147907500D01*
X193620000Y-144407500D02*
X193620000Y-147827500D01*
X193300000Y-147907500D02*
X192980000Y-147827500D01*
X193300000Y-144407500D02*
X193620000Y-144407500D01*
X192980000Y-147827500D02*
X192980000Y-144407500D01*
X192980000Y-144407500D02*
X193300000Y-144407500D01*
X191910000Y-148407500D02*
X191910000Y-143407500D01*
X191910000Y-143407500D02*
X190690000Y-143407500D01*
X191910000Y-141207500D02*
X191910000Y-143407500D01*
X190690000Y-149627500D02*
X190690000Y-141207500D01*
X190690000Y-148407500D02*
X191910000Y-148407500D01*
X190690000Y-141207500D02*
X191910000Y-141207500D01*
%TO.C,RV5*%
X133882500Y-121020000D02*
X132502500Y-121020000D01*
X133882500Y-121020000D02*
X133882500Y-126260000D01*
X130022500Y-121020000D02*
X128642500Y-121020000D01*
X128642500Y-121020000D02*
X128642500Y-126260000D01*
X133882500Y-126260000D02*
X133301500Y-126260000D01*
X131522500Y-126260000D02*
X131002500Y-126260000D01*
X129222500Y-126260000D02*
X128642500Y-126260000D01*
%TO.C,JP3*%
X167050000Y-135300000D02*
X166450000Y-135300000D01*
X165750000Y-134600000D02*
X165750000Y-133200000D01*
X167750000Y-133200000D02*
X167750000Y-134600000D01*
X166450000Y-132500000D02*
X167050000Y-132500000D01*
X165750000Y-134600000D02*
G75*
G03*
X166450000Y-135300000I699999J-1D01*
G01*
X167050000Y-135300000D02*
G75*
G03*
X167750000Y-134600000I1J699999D01*
G01*
X166450000Y-132500000D02*
G75*
G03*
X165750000Y-133200000I0J-700000D01*
G01*
X167750000Y-133200000D02*
G75*
G03*
X167050000Y-132500000I-700000J0D01*
G01*
%TO.C,R58*%
X176172936Y-132302500D02*
X177627064Y-132302500D01*
X176172936Y-134122500D02*
X177627064Y-134122500D01*
%TO.C,C31*%
X197365000Y-121223752D02*
X197365000Y-120701248D01*
X198835000Y-121223752D02*
X198835000Y-120701248D01*
%TO.C,J7*%
X160760000Y-149627500D02*
X153040000Y-149627500D01*
X160760000Y-148407500D02*
X159540000Y-148407500D01*
X160760000Y-141207500D02*
X160760000Y-149627500D01*
X159540000Y-148407500D02*
X159540000Y-143407500D01*
X159540000Y-144407500D02*
X154260000Y-144407500D01*
X159540000Y-143407500D02*
X160760000Y-143407500D01*
X159540000Y-143407500D02*
X159540000Y-141207500D01*
X159540000Y-141207500D02*
X160760000Y-141207500D01*
X158470000Y-147827500D02*
X158150000Y-147907500D01*
X158470000Y-144407500D02*
X158470000Y-147827500D01*
X158450000Y-140717500D02*
X157850000Y-140717500D01*
X158150000Y-147907500D02*
X157830000Y-147827500D01*
X158150000Y-144407500D02*
X158470000Y-144407500D01*
X158150000Y-141317500D02*
X158450000Y-140717500D01*
X157850000Y-140717500D02*
X158150000Y-141317500D01*
X157830000Y-147827500D02*
X157830000Y-144407500D01*
X157830000Y-144407500D02*
X158150000Y-144407500D01*
X156980000Y-143407500D02*
X156820000Y-143407500D01*
X155970000Y-147827500D02*
X155650000Y-147907500D01*
X155970000Y-144407500D02*
X155970000Y-147827500D01*
X155650000Y-147907500D02*
X155330000Y-147827500D01*
X155650000Y-144407500D02*
X155970000Y-144407500D01*
X155330000Y-147827500D02*
X155330000Y-144407500D01*
X155330000Y-144407500D02*
X155650000Y-144407500D01*
X154260000Y-148407500D02*
X154260000Y-143407500D01*
X154260000Y-143407500D02*
X153040000Y-143407500D01*
X154260000Y-141207500D02*
X154260000Y-143407500D01*
X153040000Y-149627500D02*
X153040000Y-141207500D01*
X153040000Y-148407500D02*
X154260000Y-148407500D01*
X153040000Y-141207500D02*
X154260000Y-141207500D01*
%TO.C,TP35*%
X200800000Y-126162500D02*
G75*
G03*
X200800000Y-126162500I-700000J0D01*
G01*
%TO.C,R33*%
X114285000Y-117187936D02*
X114285000Y-117642064D01*
X112815000Y-117187936D02*
X112815000Y-117642064D01*
%TO.C,R28*%
X117214564Y-107825000D02*
X116760436Y-107825000D01*
X117214564Y-106355000D02*
X116760436Y-106355000D01*
%TO.C,R30*%
X116739564Y-126675000D02*
X116285436Y-126675000D01*
X116739564Y-125205000D02*
X116285436Y-125205000D01*
%TO.C,C24*%
X130948752Y-112025000D02*
X130426248Y-112025000D01*
X130948752Y-110555000D02*
X130426248Y-110555000D01*
%TO.C,TP42*%
X179050000Y-137750000D02*
G75*
G03*
X179050000Y-137750000I-700000J0D01*
G01*
%TO.C,D4*%
X183335000Y-103865000D02*
X180165000Y-103865000D01*
X180165000Y-103865000D02*
X180165000Y-107750000D01*
X183335000Y-107750000D02*
X183335000Y-103865000D01*
%TO.C,C10*%
X186164999Y-103398753D02*
X186164999Y-102876249D01*
X187634999Y-103398753D02*
X187634999Y-102876249D01*
%TO.C,TP16*%
X151700000Y-107500000D02*
G75*
G03*
X151700000Y-107500000I-700000J0D01*
G01*
%TO.C,C6*%
X151717294Y-118993259D02*
X152086761Y-118623792D01*
X152756741Y-120032706D02*
X153126208Y-119663239D01*
%TO.C,R44*%
X130447936Y-108455000D02*
X130902064Y-108455000D01*
X130447936Y-109925000D02*
X130902064Y-109925000D01*
%TO.C,R41*%
X124052064Y-135675000D02*
X123597936Y-135675000D01*
X124052064Y-134205000D02*
X123597936Y-134205000D01*
%TO.C,R55*%
X197702064Y-134235000D02*
X196247936Y-134235000D01*
X197702064Y-132415000D02*
X196247936Y-132415000D01*
%TO.C,R34*%
X117015000Y-117629564D02*
X117015000Y-117175436D01*
X118485000Y-117629564D02*
X118485000Y-117175436D01*
%TO.C,U5*%
X120990000Y-104290000D02*
X120990000Y-105130000D01*
X120990000Y-105130000D02*
X119300000Y-105130000D01*
X120990000Y-114710000D02*
X120990000Y-113870000D01*
X123750000Y-104290000D02*
X120990000Y-104290000D01*
X123750000Y-104290000D02*
X126510000Y-104290000D01*
X123750000Y-114710000D02*
X120990000Y-114710000D01*
X123750000Y-114710000D02*
X126510000Y-114710000D01*
X126510000Y-104290000D02*
X126510000Y-105130000D01*
X126510000Y-114710000D02*
X126510000Y-113870000D01*
%TO.C,R47*%
X127347500Y-135500436D02*
X127347500Y-135954564D01*
X125877500Y-135500436D02*
X125877500Y-135954564D01*
%TO.C,SW3*%
X162100000Y-137250000D02*
X162100000Y-136050000D01*
X162100000Y-134450000D02*
X162100000Y-133250000D01*
X162100000Y-133250000D02*
X155700000Y-133250000D01*
X155700000Y-137250000D02*
X162100000Y-137250000D01*
X155700000Y-136050000D02*
X155700000Y-137250000D01*
X155700000Y-133250000D02*
X155700000Y-134450000D01*
%TO.C,R43*%
X126722936Y-101755000D02*
X127177064Y-101755000D01*
X126722936Y-103225000D02*
X127177064Y-103225000D01*
%TO.C,TP24*%
X114250000Y-110727500D02*
G75*
G03*
X114250000Y-110727500I-700000J0D01*
G01*
%TO.C,RV1*%
X150820000Y-130380000D02*
X149440000Y-130380000D01*
X150820000Y-130380000D02*
X150820000Y-135620000D01*
X146960000Y-130380000D02*
X145580000Y-130380000D01*
X145580000Y-130380000D02*
X145580000Y-135620000D01*
X150820000Y-135620000D02*
X150239000Y-135620000D01*
X148460000Y-135620000D02*
X147940000Y-135620000D01*
X146160000Y-135620000D02*
X145580000Y-135620000D01*
%TO.C,TP20*%
X198700000Y-107500000D02*
G75*
G03*
X198700000Y-107500000I-700000J0D01*
G01*
%TO.C,R20*%
X181522936Y-101715000D02*
X181977064Y-101715000D01*
X181522936Y-103185000D02*
X181977064Y-103185000D01*
%TO.C,R17*%
X193485000Y-102910436D02*
X193485000Y-103364564D01*
X192015000Y-102910436D02*
X192015000Y-103364564D01*
%TO.C,C5*%
X163834990Y-115295543D02*
X164204457Y-115665010D01*
X162795543Y-116334990D02*
X163165010Y-116704457D01*
%TO.C,C34*%
X202835000Y-120701248D02*
X202835000Y-121223752D01*
X201365000Y-120701248D02*
X201365000Y-121223752D01*
%TO.C,R25*%
X117947500Y-132800436D02*
X117947500Y-133254564D01*
X116477500Y-132800436D02*
X116477500Y-133254564D01*
%TO.C,R37*%
X116477500Y-136779564D02*
X116477500Y-136325436D01*
X117947500Y-136779564D02*
X117947500Y-136325436D01*
%TO.C,R7*%
X151735000Y-110185436D02*
X151735000Y-110639564D01*
X150265000Y-110185436D02*
X150265000Y-110639564D01*
%TO.C,TP53*%
X194050000Y-137750000D02*
G75*
G03*
X194050000Y-137750000I-700000J0D01*
G01*
%TO.C,R5*%
X141785000Y-110747936D02*
X141785000Y-111202064D01*
X140315000Y-110747936D02*
X140315000Y-111202064D01*
%TO.C,RV3*%
X139020000Y-130380000D02*
X137640000Y-130380000D01*
X139020000Y-130380000D02*
X139020000Y-135620000D01*
X135160000Y-130380000D02*
X133780000Y-130380000D01*
X133780000Y-130380000D02*
X133780000Y-135620000D01*
X139020000Y-135620000D02*
X138439000Y-135620000D01*
X136660000Y-135620000D02*
X136140000Y-135620000D01*
X134360000Y-135620000D02*
X133780000Y-135620000D01*
%TO.C,TP21*%
X166600000Y-102400000D02*
G75*
G03*
X166600000Y-102400000I-700000J0D01*
G01*
%TO.C,U6*%
X120490000Y-123040000D02*
X120490000Y-123880000D01*
X120490000Y-123880000D02*
X118800000Y-123880000D01*
X120490000Y-133460000D02*
X120490000Y-132620000D01*
X123250000Y-123040000D02*
X120490000Y-123040000D01*
X123250000Y-123040000D02*
X126010000Y-123040000D01*
X123250000Y-133460000D02*
X120490000Y-133460000D01*
X123250000Y-133460000D02*
X126010000Y-133460000D01*
X126010000Y-123040000D02*
X126010000Y-123880000D01*
X126010000Y-133460000D02*
X126010000Y-132620000D01*
%TO.C,R12*%
X181735000Y-110185436D02*
X181735000Y-110639564D01*
X180265000Y-110185436D02*
X180265000Y-110639564D01*
%TO.C,JP5*%
X146850000Y-128800000D02*
X146250000Y-128800000D01*
X145550000Y-128100000D02*
X145550000Y-126700000D01*
X147550000Y-126700000D02*
X147550000Y-128100000D01*
X146250000Y-126000000D02*
X146850000Y-126000000D01*
X145550000Y-128100000D02*
G75*
G03*
X146250000Y-128800000I699999J-1D01*
G01*
X146850000Y-128800000D02*
G75*
G03*
X147550000Y-128100000I1J699999D01*
G01*
X146250000Y-126000000D02*
G75*
G03*
X145550000Y-126700000I0J-700000D01*
G01*
X147550000Y-126700000D02*
G75*
G03*
X146850000Y-126000000I-700000J0D01*
G01*
%TO.C,TP54*%
X196550000Y-137750000D02*
G75*
G03*
X196550000Y-137750000I-700000J0D01*
G01*
%TO.C,U1*%
X152415994Y-123318287D02*
X153087745Y-123990038D01*
X153087745Y-123990038D02*
X152140222Y-124937562D01*
X159642625Y-130544918D02*
X158970874Y-129873167D01*
X153087745Y-122646536D02*
X152415994Y-123318287D01*
X160314376Y-129873167D02*
X159642625Y-130544918D01*
X158970874Y-116763407D02*
X159642625Y-116091656D01*
X166197505Y-123990038D02*
X166869256Y-123318287D01*
X159642625Y-116091656D02*
X160314376Y-116763407D01*
X166869256Y-123318287D02*
X166197505Y-122646536D01*
%TO.C,TP23*%
X179150000Y-102400000D02*
G75*
G03*
X179150000Y-102400000I-700000J0D01*
G01*
%TO.C,TP5*%
X157575000Y-87825000D02*
G75*
G03*
X157575000Y-87825000I-700000J0D01*
G01*
%TO.C,J10*%
X136569804Y-104280249D02*
X136569804Y-102950249D01*
X137899804Y-104280249D02*
X136569804Y-104280249D01*
X139169804Y-104280249D02*
X151929804Y-104280249D01*
X139169804Y-104280249D02*
X139169804Y-101620249D01*
X151929804Y-104280249D02*
X151929804Y-101620249D01*
X139169804Y-101620249D02*
X151929804Y-101620249D01*
%TO.C,U8*%
X193240000Y-126912500D02*
X193240000Y-130562500D01*
X193240000Y-126912500D02*
X193240000Y-124712500D01*
X198760000Y-126912500D02*
X198760000Y-129112500D01*
X198760000Y-126912500D02*
X198760000Y-124712500D01*
%TO.C,C37*%
X180790000Y-121223752D02*
X180790000Y-120701248D01*
X182260000Y-121223752D02*
X182260000Y-120701248D01*
%TO.C,C3*%
X163757706Y-131781741D02*
X163388239Y-132151208D01*
X162718259Y-130742294D02*
X162348792Y-131111761D01*
%TO.C,R10*%
X100915000Y-138739564D02*
X100915000Y-138285436D01*
X102385000Y-138739564D02*
X102385000Y-138285436D01*
%TO.C,TP43*%
X187850000Y-137750000D02*
G75*
G03*
X187850000Y-137750000I-700000J0D01*
G01*
%TO.C,C1*%
X140315000Y-121211252D02*
X140315000Y-120688748D01*
X141785000Y-121211252D02*
X141785000Y-120688748D01*
%TO.C,R11*%
X181735000Y-113685436D02*
X181735000Y-114139564D01*
X180265000Y-113685436D02*
X180265000Y-114139564D01*
%TD*%
G36*
X170115510Y-138857029D02*
G01*
X170122539Y-138874000D01*
X170122539Y-143985929D01*
X170122540Y-143985930D01*
X170126000Y-143985930D01*
X170142971Y-143992959D01*
X170150000Y-144009930D01*
X170150000Y-149976000D01*
X170142971Y-149992971D01*
X170126000Y-150000000D01*
X152374000Y-150000000D01*
X152357029Y-149992971D01*
X152350000Y-149976000D01*
X152350000Y-140516275D01*
X154500448Y-140516275D01*
X154500449Y-140516276D01*
X159399552Y-140516276D01*
X159399553Y-140516275D01*
X163150448Y-140516275D01*
X163150449Y-140516276D01*
X168049552Y-140516276D01*
X168049553Y-140516275D01*
X168049553Y-139092673D01*
X168049552Y-139092672D01*
X163150449Y-139092672D01*
X163150448Y-139092673D01*
X163150448Y-140516275D01*
X159399553Y-140516275D01*
X159399553Y-140516274D01*
X159399553Y-139092316D01*
X159399552Y-139092315D01*
X154500449Y-139092315D01*
X154500448Y-139092316D01*
X154500448Y-140516275D01*
X152350000Y-140516275D01*
X152350000Y-138874000D01*
X152357029Y-138857029D01*
X152374000Y-138850000D01*
X170098539Y-138850000D01*
X170115510Y-138857029D01*
G37*
G36*
X107855806Y-108857029D02*
G01*
X107858210Y-108862834D01*
X107862836Y-108867460D01*
X110858500Y-108867460D01*
X110875471Y-108874489D01*
X110882500Y-108891460D01*
X110882500Y-113787204D01*
X110875471Y-113804175D01*
X110858500Y-113811204D01*
X110841529Y-113804175D01*
X110840183Y-113802829D01*
X109416224Y-113802829D01*
X109416223Y-113802830D01*
X109416223Y-114797170D01*
X109416224Y-114797171D01*
X110840183Y-114797171D01*
X110841529Y-114795825D01*
X110858500Y-114788796D01*
X110875471Y-114795825D01*
X110882500Y-114812796D01*
X110882500Y-124939032D01*
X110875471Y-124956003D01*
X110858500Y-124963032D01*
X110841530Y-124956004D01*
X110839827Y-124954301D01*
X109417730Y-124954301D01*
X109417730Y-125997860D01*
X109417731Y-125997861D01*
X110839826Y-125997861D01*
X110841529Y-125996158D01*
X110858500Y-125989129D01*
X110875471Y-125996158D01*
X110882500Y-126013129D01*
X110882500Y-131026000D01*
X110875471Y-131042971D01*
X110858500Y-131050000D01*
X100106500Y-131050000D01*
X100089529Y-131042971D01*
X100082500Y-131026000D01*
X100082500Y-128592409D01*
X109900776Y-128592409D01*
X109900777Y-128592410D01*
X110316489Y-128592410D01*
X110316490Y-128592409D01*
X110316490Y-127407592D01*
X110316489Y-127407591D01*
X109900777Y-127407591D01*
X109900776Y-127407592D01*
X109900776Y-128592409D01*
X100082500Y-128592409D01*
X100082500Y-117392409D01*
X109900776Y-117392409D01*
X109900777Y-117392410D01*
X110316489Y-117392410D01*
X110316490Y-117392409D01*
X110316490Y-116207592D01*
X110316489Y-116207591D01*
X109900777Y-116207591D01*
X109900776Y-116207592D01*
X109900776Y-117392409D01*
X100082500Y-117392409D01*
X100082500Y-108874000D01*
X100089529Y-108857029D01*
X100106500Y-108850000D01*
X107838835Y-108850000D01*
X107855806Y-108857029D01*
G37*
G36*
X118739888Y-139007029D02*
G01*
X118746917Y-139024000D01*
X118739888Y-139040971D01*
X118738543Y-139042316D01*
X118738543Y-140466275D01*
X118738544Y-140466276D01*
X125161457Y-140466276D01*
X125161458Y-140466275D01*
X125161458Y-139042316D01*
X125160113Y-139040971D01*
X125153084Y-139024000D01*
X125160113Y-139007029D01*
X125177084Y-139000000D01*
X129923274Y-139000000D01*
X129940245Y-139007029D01*
X129947274Y-139024000D01*
X129940245Y-139040971D01*
X129938543Y-139042672D01*
X129938543Y-140466275D01*
X129938544Y-140466276D01*
X136361457Y-140466276D01*
X136361458Y-140466275D01*
X136361458Y-139042673D01*
X136359756Y-139040971D01*
X136352727Y-139024000D01*
X136359756Y-139007029D01*
X136376727Y-139000000D01*
X141124268Y-139000000D01*
X141141239Y-139007029D01*
X141148268Y-139024000D01*
X141141239Y-139040971D01*
X141138543Y-139043667D01*
X141138543Y-140466965D01*
X141138544Y-140466966D01*
X147561457Y-140466966D01*
X147561458Y-140466964D01*
X147561458Y-139043667D01*
X147558762Y-139040971D01*
X147551733Y-139024000D01*
X147558762Y-139007029D01*
X147575733Y-139000000D01*
X149809033Y-139000000D01*
X149826004Y-139007029D01*
X149833033Y-139024000D01*
X149833033Y-142022985D01*
X149838007Y-142027959D01*
X149842971Y-142030015D01*
X149850000Y-142046986D01*
X149850000Y-149876000D01*
X149842971Y-149892971D01*
X149826000Y-149900000D01*
X116374000Y-149900000D01*
X116357029Y-149892971D01*
X116350000Y-149876000D01*
X116350000Y-139024000D01*
X116357029Y-139007029D01*
X116374000Y-139000000D01*
X118722917Y-139000000D01*
X118739888Y-139007029D01*
G37*
G36*
X209992971Y-108957029D02*
G01*
X210000000Y-108974000D01*
X210000000Y-117526000D01*
X209992971Y-117542971D01*
X209976000Y-117550000D01*
X200924000Y-117550000D01*
X200907029Y-117542971D01*
X200900000Y-117526000D01*
X200900000Y-112426998D01*
X200907029Y-112410027D01*
X200924000Y-112402998D01*
X200966965Y-112402998D01*
X200966966Y-112402997D01*
X200966966Y-108974000D01*
X200973995Y-108957029D01*
X200990966Y-108950000D01*
X209976000Y-108950000D01*
X209992971Y-108957029D01*
G37*
G36*
X152373076Y-101051896D02*
G01*
X152390046Y-101058929D01*
X152397072Y-101075896D01*
X152397072Y-104724859D01*
X152390043Y-104741830D01*
X152373076Y-104748859D01*
X139544283Y-104751247D01*
X139527312Y-104744221D01*
X139520279Y-104727251D01*
X139520279Y-104660030D01*
X139520278Y-104660029D01*
X136063712Y-104660029D01*
X136046741Y-104653000D01*
X136039712Y-104636029D01*
X136039712Y-101072859D01*
X136046741Y-101055888D01*
X136063712Y-101048859D01*
X136063716Y-101048859D01*
X152373076Y-101051896D01*
G37*
G36*
X151076004Y-129606784D02*
G01*
X151083033Y-129623755D01*
X151083033Y-132517532D01*
X151087411Y-132521911D01*
X151093814Y-132524563D01*
X151100843Y-132541534D01*
X151100843Y-137475755D01*
X151093814Y-137492726D01*
X151076843Y-137499755D01*
X133524843Y-137499755D01*
X133507872Y-137492726D01*
X133500843Y-137475755D01*
X133500843Y-137423491D01*
X135733033Y-137423491D01*
X135733034Y-137423492D01*
X137156332Y-137423492D01*
X137156333Y-137423491D01*
X137156333Y-137422985D01*
X141535230Y-137422985D01*
X141535231Y-137422986D01*
X142957326Y-137422986D01*
X142957327Y-137422985D01*
X142957327Y-137422295D01*
X147533723Y-137422295D01*
X147533724Y-137422296D01*
X148957683Y-137422296D01*
X148957684Y-137422295D01*
X148957684Y-136427955D01*
X148957683Y-136427954D01*
X147533724Y-136427954D01*
X147533723Y-136427955D01*
X147533723Y-137422295D01*
X142957327Y-137422295D01*
X142957327Y-136379427D01*
X142957326Y-136379426D01*
X141535231Y-136379426D01*
X141535230Y-136379427D01*
X141535230Y-137422985D01*
X137156333Y-137422985D01*
X137156333Y-136380336D01*
X137156332Y-136380335D01*
X135733034Y-136380335D01*
X135733033Y-136380336D01*
X135733033Y-137423491D01*
X133500843Y-137423491D01*
X133500843Y-129623755D01*
X133507872Y-129606784D01*
X133524843Y-129599755D01*
X151059033Y-129599755D01*
X151076004Y-129606784D01*
G37*
G36*
X199226004Y-138857029D02*
G01*
X199233033Y-138874000D01*
X199233033Y-144805234D01*
X199238007Y-144810208D01*
X199242971Y-144812264D01*
X199250000Y-144829235D01*
X199250000Y-149976000D01*
X199242971Y-149992971D01*
X199226000Y-150000000D01*
X172674000Y-150000000D01*
X172657029Y-149992971D01*
X172650000Y-149976000D01*
X172650000Y-139092315D01*
X174700448Y-139092315D01*
X174700448Y-140516275D01*
X174700449Y-140516276D01*
X179599552Y-140516276D01*
X179599553Y-140516275D01*
X183400448Y-140516275D01*
X183400449Y-140516276D01*
X188299552Y-140516276D01*
X188299553Y-140516275D01*
X188299553Y-139093666D01*
X192100448Y-139093666D01*
X192100448Y-140516965D01*
X192100449Y-140516966D01*
X196999552Y-140516966D01*
X196999553Y-140516965D01*
X196999553Y-139093667D01*
X196999552Y-139093666D01*
X192100448Y-139093666D01*
X188299553Y-139093666D01*
X188299553Y-139092673D01*
X188299552Y-139092672D01*
X183400449Y-139092672D01*
X183400448Y-139092673D01*
X183400448Y-140516275D01*
X179599553Y-140516275D01*
X179599553Y-139092316D01*
X179599552Y-139092315D01*
X174700448Y-139092315D01*
X172650000Y-139092315D01*
X172650000Y-138874000D01*
X172657029Y-138857029D01*
X172674000Y-138850000D01*
X199209033Y-138850000D01*
X199226004Y-138857029D01*
G37*
G36*
X163760067Y-132753995D02*
G01*
X163767102Y-132770964D01*
X163761199Y-132785227D01*
X163761199Y-135590381D01*
X163761200Y-135590383D01*
X163776000Y-135590383D01*
X163792971Y-135597412D01*
X163800000Y-135614383D01*
X163800000Y-137725992D01*
X163792971Y-137742963D01*
X163776000Y-137749992D01*
X163775993Y-137749992D01*
X153866633Y-137746961D01*
X153849664Y-137739926D01*
X153842640Y-137722961D01*
X153842640Y-132773992D01*
X153849669Y-132757021D01*
X153866633Y-132749992D01*
X163743095Y-132746971D01*
X163760067Y-132753995D01*
G37*
G36*
X163792971Y-101007029D02*
G01*
X163800000Y-101024000D01*
X163800000Y-109976000D01*
X163792971Y-109992971D01*
X163776000Y-110000000D01*
X157958640Y-110000000D01*
X157941669Y-109992971D01*
X157934640Y-109976000D01*
X157934640Y-109932539D01*
X153224000Y-109932539D01*
X153207029Y-109925510D01*
X153200000Y-109908539D01*
X153200000Y-101024000D01*
X153207029Y-101007029D01*
X153224000Y-101000000D01*
X163776000Y-101000000D01*
X163792971Y-101007029D01*
G37*
D13*
X101650000Y-136550000D03*
X152437182Y-119287818D03*
X138975000Y-108950000D03*
X195635500Y-122950000D03*
X163575000Y-116100000D03*
X163003249Y-131521751D03*
X202100000Y-120900000D03*
X187325000Y-122902000D03*
X161875000Y-109800000D03*
X173375000Y-102425000D03*
X189550000Y-133225000D03*
X185650000Y-120923000D03*
X173850000Y-106525000D03*
X166950000Y-127300000D03*
X182650000Y-101450000D03*
X195290000Y-111750000D03*
X156375000Y-135250000D03*
X183775000Y-113825000D03*
X176525000Y-133200000D03*
X182100000Y-109500000D03*
X200000000Y-101750000D03*
X184675000Y-101425000D03*
X195400000Y-107550000D03*
X141050000Y-120910500D03*
X197400000Y-133325000D03*
X154628556Y-109556992D03*
X179160500Y-122925000D03*
X182175000Y-133225000D03*
X183750000Y-111725000D03*
X143475000Y-133675000D03*
X160975000Y-112675000D03*
X137550000Y-133675000D03*
X139100000Y-126525000D03*
X177350000Y-120923000D03*
X193900000Y-120923000D03*
X141025000Y-114514500D03*
X149325000Y-133675000D03*
X205025000Y-133300000D03*
X170775000Y-106525000D03*
X195290000Y-109650000D03*
X203835500Y-122925000D03*
X188775000Y-105325000D03*
X156225000Y-106725000D03*
X189850000Y-121002000D03*
X175475000Y-129093000D03*
X200200000Y-129093000D03*
X190975000Y-114925000D03*
X183775000Y-129075000D03*
X187650000Y-112862500D03*
X160775000Y-106800000D03*
X185950000Y-107675000D03*
X165075000Y-105100000D03*
X179475000Y-121002000D03*
X187775000Y-121025000D03*
X188600000Y-114925000D03*
X198125000Y-121002000D03*
X179975000Y-107550000D03*
X185775000Y-111725000D03*
X181500000Y-121002000D03*
X206275000Y-121002000D03*
X185750000Y-113825000D03*
X185925000Y-109600000D03*
X189750000Y-114925000D03*
X191975000Y-129093000D03*
X204250000Y-121002000D03*
X191825000Y-112862500D03*
X195975000Y-121002000D03*
X165025000Y-114575000D03*
X141125000Y-133675000D03*
X154000000Y-123000000D03*
X161800000Y-115850000D03*
X160850000Y-128400000D03*
X169750000Y-112975000D03*
X167325000Y-112975000D03*
X165750000Y-136800000D03*
X135250000Y-133675000D03*
X147025000Y-133675000D03*
X168500000Y-112975000D03*
X149900000Y-111375000D03*
X141025000Y-110885500D03*
X165400000Y-123775000D03*
X141050000Y-124539500D03*
X158450000Y-107575000D03*
X158525000Y-113650000D03*
X159350000Y-113650000D03*
X159269340Y-107541297D03*
D14*
X187100000Y-142850000D03*
X184600000Y-142850000D03*
X202600000Y-145000000D03*
X203302944Y-143302944D03*
X203302944Y-146697056D03*
X205000000Y-142600000D03*
X205000000Y-145000000D03*
X205000000Y-147400000D03*
X206697056Y-143302944D03*
X206697056Y-146697056D03*
X207400000Y-145000000D03*
X107282500Y-128000000D03*
X107282500Y-125500000D03*
X107282500Y-123000000D03*
X135600000Y-142700000D03*
X133100000Y-142700000D03*
X130600000Y-142700000D03*
X161390000Y-107605000D03*
X155610000Y-107605000D03*
D15*
X162820000Y-108125000D03*
D16*
X162820000Y-103925000D03*
D15*
X154180000Y-108125000D03*
D16*
X154180000Y-103925000D03*
D14*
X107282500Y-116800000D03*
X107282500Y-114300000D03*
X107282500Y-111800000D03*
X102600000Y-105000000D03*
X103302944Y-103302944D03*
X103302944Y-106697056D03*
X105000000Y-102600000D03*
X105000000Y-105000000D03*
X105000000Y-107400000D03*
X106697056Y-103302944D03*
X106697056Y-106697056D03*
X107400000Y-105000000D03*
D17*
X202700000Y-127662500D03*
X204200000Y-127662500D03*
X205700000Y-127662500D03*
X202700000Y-126162500D03*
X204200000Y-126162500D03*
X205700000Y-126162500D03*
X186200000Y-127662500D03*
X187700000Y-127662500D03*
X189200000Y-127662500D03*
X186200000Y-126162500D03*
X187700000Y-126162500D03*
X189200000Y-126162500D03*
D14*
X178350000Y-142850000D03*
X175850000Y-142850000D03*
X202967500Y-112000000D03*
X202967500Y-114500000D03*
X146800000Y-142700000D03*
X144300000Y-142700000D03*
X141800000Y-142700000D03*
D17*
X178025000Y-127662500D03*
X179525000Y-127662500D03*
X181025000Y-127662500D03*
X178025000Y-126162500D03*
X179525000Y-126162500D03*
X181025000Y-126162500D03*
D14*
X124400000Y-142700000D03*
X121900000Y-142700000D03*
X119400000Y-142700000D03*
X102600000Y-145000000D03*
X103302944Y-143302944D03*
X103302944Y-146697056D03*
X105000000Y-142600000D03*
X105000000Y-145000000D03*
X105000000Y-147400000D03*
X106697056Y-143302944D03*
X106697056Y-146697056D03*
X107400000Y-145000000D03*
X166850000Y-142817500D03*
X164350000Y-142817500D03*
X195800000Y-142817500D03*
X193300000Y-142817500D03*
X158150000Y-142817500D03*
X155650000Y-142817500D03*
X202600000Y-105000000D03*
X203302944Y-103302944D03*
X203302944Y-106697056D03*
X205000000Y-102600000D03*
X205000000Y-105000000D03*
X205000000Y-107400000D03*
X206697056Y-103302944D03*
X206697056Y-106697056D03*
X207400000Y-105000000D03*
X137899804Y-102950249D03*
X140439804Y-102950249D03*
X142979804Y-102950249D03*
X145519804Y-102950249D03*
X148059804Y-102950249D03*
X150599804Y-102950249D03*
D17*
X194500000Y-127662500D03*
X196000000Y-127662500D03*
X197500000Y-127662500D03*
X194500000Y-126162500D03*
X196000000Y-126162500D03*
X197500000Y-126162500D03*
M02*
