%TF.GenerationSoftware,KiCad,Pcbnew,7.0.7*%
%TF.CreationDate,2024-03-16T18:53:27+01:00*%
%TF.ProjectId,OpenHand,4f70656e-4861-46e6-942e-6b696361645f,rev?*%
%TF.SameCoordinates,Original*%
%TF.FileFunction,Soldermask,Bot*%
%TF.FilePolarity,Negative*%
%FSLAX46Y46*%
G04 Gerber Fmt 4.6, Leading zero omitted, Abs format (unit mm)*
G04 Created by KiCad (PCBNEW 7.0.7) date 2024-03-16 18:53:27*
%MOMM*%
%LPD*%
G01*
G04 APERTURE LIST*
G04 Aperture macros list*
%AMRoundRect*
0 Rectangle with rounded corners*
0 $1 Rounding radius*
0 $2 $3 $4 $5 $6 $7 $8 $9 X,Y pos of 4 corners*
0 Add a 4 corners polygon primitive as box body*
4,1,4,$2,$3,$4,$5,$6,$7,$8,$9,$2,$3,0*
0 Add four circle primitives for the rounded corners*
1,1,$1+$1,$2,$3*
1,1,$1+$1,$4,$5*
1,1,$1+$1,$6,$7*
1,1,$1+$1,$8,$9*
0 Add four rect primitives between the rounded corners*
20,1,$1+$1,$2,$3,$4,$5,0*
20,1,$1+$1,$4,$5,$6,$7,0*
20,1,$1+$1,$6,$7,$8,$9,0*
20,1,$1+$1,$8,$9,$2,$3,0*%
%AMFreePoly0*
4,1,19,0.500000,-0.750000,0.000000,-0.750000,0.000000,-0.744911,-0.071157,-0.744911,-0.207708,-0.704816,-0.327430,-0.627875,-0.420627,-0.520320,-0.479746,-0.390866,-0.500000,-0.250000,-0.500000,0.250000,-0.479746,0.390866,-0.420627,0.520320,-0.327430,0.627875,-0.207708,0.704816,-0.071157,0.744911,0.000000,0.744911,0.000000,0.750000,0.500000,0.750000,0.500000,-0.750000,0.500000,-0.750000,
$1*%
%AMFreePoly1*
4,1,19,0.000000,0.744911,0.071157,0.744911,0.207708,0.704816,0.327430,0.627875,0.420627,0.520320,0.479746,0.390866,0.500000,0.250000,0.500000,-0.250000,0.479746,-0.390866,0.420627,-0.520320,0.327430,-0.627875,0.207708,-0.704816,0.071157,-0.744911,0.000000,-0.744911,0.000000,-0.750000,-0.500000,-0.750000,-0.500000,0.750000,0.000000,0.750000,0.000000,0.744911,0.000000,0.744911,
$1*%
G04 Aperture macros list end*
%ADD10RoundRect,0.250000X0.600000X0.750000X-0.600000X0.750000X-0.600000X-0.750000X0.600000X-0.750000X0*%
%ADD11O,1.700000X2.000000*%
%ADD12C,0.800000*%
%ADD13C,6.400000*%
%ADD14RoundRect,0.250000X0.725000X-0.600000X0.725000X0.600000X-0.725000X0.600000X-0.725000X-0.600000X0*%
%ADD15O,1.950000X1.700000*%
%ADD16RoundRect,0.250000X0.600000X0.725000X-0.600000X0.725000X-0.600000X-0.725000X0.600000X-0.725000X0*%
%ADD17O,1.700000X1.950000*%
%ADD18C,0.650000*%
%ADD19O,1.000000X2.100000*%
%ADD20O,1.000000X1.800000*%
%ADD21RoundRect,0.250000X-0.750000X0.600000X-0.750000X-0.600000X0.750000X-0.600000X0.750000X0.600000X0*%
%ADD22O,2.000000X1.700000*%
%ADD23R,1.700000X1.700000*%
%ADD24O,1.700000X1.700000*%
%ADD25RoundRect,0.250000X-0.262500X-0.450000X0.262500X-0.450000X0.262500X0.450000X-0.262500X0.450000X0*%
%ADD26C,1.000000*%
%ADD27FreePoly0,180.000000*%
%ADD28FreePoly1,180.000000*%
G04 APERTURE END LIST*
D10*
%TO.C,J2*%
X187100000Y-142850000D03*
D11*
X184600000Y-142850000D03*
%TD*%
D12*
%TO.C,H4*%
X202600000Y-145000000D03*
X203302944Y-143302944D03*
X203302944Y-146697056D03*
X205000000Y-142600000D03*
D13*
X205000000Y-145000000D03*
D12*
X205000000Y-147400000D03*
X206697056Y-143302944D03*
X206697056Y-146697056D03*
X207400000Y-145000000D03*
%TD*%
D14*
%TO.C,J12*%
X107282500Y-128000000D03*
D15*
X107282500Y-125500000D03*
X107282500Y-123000000D03*
%TD*%
D16*
%TO.C,J9*%
X135600000Y-142700000D03*
D17*
X133100000Y-142700000D03*
X130600000Y-142700000D03*
%TD*%
D18*
%TO.C,J5*%
X161390000Y-107605000D03*
X155610000Y-107605000D03*
D19*
X162820000Y-108125000D03*
D20*
X162820000Y-103925000D03*
D19*
X154180000Y-108125000D03*
D20*
X154180000Y-103925000D03*
%TD*%
D14*
%TO.C,J8*%
X107282500Y-116800000D03*
D15*
X107282500Y-114300000D03*
X107282500Y-111800000D03*
%TD*%
D12*
%TO.C,H1*%
X102600000Y-105000000D03*
X103302944Y-103302944D03*
X103302944Y-106697056D03*
X105000000Y-102600000D03*
D13*
X105000000Y-105000000D03*
D12*
X105000000Y-107400000D03*
X106697056Y-103302944D03*
X106697056Y-106697056D03*
X107400000Y-105000000D03*
%TD*%
D10*
%TO.C,J1*%
X178350000Y-142850000D03*
D11*
X175850000Y-142850000D03*
%TD*%
D21*
%TO.C,J3*%
X202967500Y-112000000D03*
D22*
X202967500Y-114500000D03*
%TD*%
D16*
%TO.C,J13*%
X146800000Y-142700000D03*
D17*
X144300000Y-142700000D03*
X141800000Y-142700000D03*
%TD*%
D16*
%TO.C,J4*%
X124400000Y-142700000D03*
D17*
X121900000Y-142700000D03*
X119400000Y-142700000D03*
%TD*%
D12*
%TO.C,H3*%
X102600000Y-145000000D03*
X103302944Y-143302944D03*
X103302944Y-146697056D03*
X105000000Y-142600000D03*
D13*
X105000000Y-145000000D03*
D12*
X105000000Y-147400000D03*
X106697056Y-143302944D03*
X106697056Y-146697056D03*
X107400000Y-145000000D03*
%TD*%
D10*
%TO.C,J11*%
X166850000Y-142817500D03*
D11*
X164350000Y-142817500D03*
%TD*%
D10*
%TO.C,J6*%
X195800000Y-142817500D03*
D11*
X193300000Y-142817500D03*
%TD*%
D10*
%TO.C,J7*%
X158150000Y-142817500D03*
D11*
X155650000Y-142817500D03*
%TD*%
D12*
%TO.C,H2*%
X202600000Y-105000000D03*
X203302944Y-103302944D03*
X203302944Y-106697056D03*
X205000000Y-102600000D03*
D13*
X205000000Y-105000000D03*
D12*
X205000000Y-107400000D03*
X206697056Y-103302944D03*
X206697056Y-106697056D03*
X207400000Y-105000000D03*
%TD*%
D23*
%TO.C,J10*%
X137899804Y-102950249D03*
D24*
X140439804Y-102950249D03*
X142979804Y-102950249D03*
X145519804Y-102950249D03*
X148059804Y-102950249D03*
X150599804Y-102950249D03*
%TD*%
D25*
%TO.C,R16*%
X139887500Y-164575000D03*
X141712500Y-164575000D03*
%TD*%
D26*
%TO.C,TP51*%
X175025000Y-91400000D03*
%TD*%
D27*
%TO.C,JP7*%
X144950000Y-156575000D03*
D28*
X143650000Y-156575000D03*
%TD*%
D26*
%TO.C,TP56*%
X175025000Y-95800000D03*
%TD*%
%TO.C,TP49*%
X177025000Y-92500000D03*
%TD*%
%TO.C,TP38*%
X175025000Y-87000000D03*
%TD*%
D27*
%TO.C,JP11*%
X148400000Y-156575000D03*
D28*
X147100000Y-156575000D03*
%TD*%
D25*
%TO.C,R15*%
X139887500Y-161875000D03*
X141712500Y-161875000D03*
%TD*%
%TO.C,R14*%
X139887500Y-159225000D03*
X141712500Y-159225000D03*
%TD*%
D26*
%TO.C,TP36*%
X177025000Y-88100000D03*
%TD*%
D27*
%TO.C,JP8*%
X144950000Y-159225000D03*
D28*
X143650000Y-159225000D03*
%TD*%
D25*
%TO.C,R13*%
X139887500Y-156575000D03*
X141712500Y-156575000D03*
%TD*%
D26*
%TO.C,TP55*%
X177025000Y-96900000D03*
%TD*%
D27*
%TO.C,JP10*%
X144950000Y-164575000D03*
D28*
X143650000Y-164575000D03*
%TD*%
D27*
%TO.C,JP14*%
X148400000Y-164575000D03*
D28*
X147100000Y-164575000D03*
%TD*%
D26*
%TO.C,TP37*%
X177025000Y-90300000D03*
%TD*%
D27*
%TO.C,JP12*%
X148400000Y-159225000D03*
D28*
X147100000Y-159225000D03*
%TD*%
D26*
%TO.C,TP39*%
X175025000Y-89200000D03*
%TD*%
D27*
%TO.C,JP9*%
X144950000Y-161875000D03*
D28*
X143650000Y-161875000D03*
%TD*%
D26*
%TO.C,TP50*%
X177025000Y-94700000D03*
%TD*%
D27*
%TO.C,JP13*%
X148400000Y-161875000D03*
D28*
X147100000Y-161875000D03*
%TD*%
D26*
%TO.C,TP52*%
X175025000Y-93600000D03*
%TD*%
M02*
