M48
; DRILL file {KiCad 7.0.7} date Fri Feb 16 21:08:43 2024
; FORMAT={-:-/ absolute / inch / decimal}
; #@! TF.CreationDate,2024-02-16T21:08:43+01:00
; #@! TF.GenerationSoftware,Kicad,Pcbnew,7.0.7
; #@! TF.FileFunction,Plated,1,4,PTH
FMAT,2
INCH
; #@! TA.AperFunction,Plated,PTH,ComponentDrill
T1C0.0079
; #@! TA.AperFunction,Plated,PTH,ViaDrill
T2C0.0118
; #@! TA.AperFunction,Plated,PTH,ComponentDrill
T3C0.0197
; #@! TA.AperFunction,Plated,PTH,ComponentDrill
T4C0.0236
; #@! TA.AperFunction,Plated,PTH,ComponentDrill
T5C0.0374
; #@! TA.AperFunction,Plated,PTH,ComponentDrill
T6C0.0394
; #@! TA.AperFunction,Plated,PTH,ComponentDrill
T7C0.1260
%
G90
G05
T1
X7.0787Y-5.0059
X7.0787Y-5.065
X7.1378Y-5.0059
X7.1378Y-5.065
X7.1969Y-5.0059
X7.1969Y-5.065
X7.4006Y-5.0059
X7.4006Y-5.065
X7.4596Y-5.0059
X7.4596Y-5.065
X7.5187Y-5.0059
X7.5187Y-5.065
X7.7274Y-5.0059
X7.7274Y-5.065
X7.7864Y-5.0059
X7.7864Y-5.065
X7.8455Y-5.0059
X7.8455Y-5.065
X8.0502Y-5.0059
X8.0502Y-5.065
X8.1093Y-5.0059
X8.1093Y-5.065
X8.1683Y-5.0059
X8.1683Y-5.065
T2
X4.0039Y-4.9803
X4.2005Y-4.4818
X4.2008Y-4.5256
X4.2047Y-5.1496
X4.2441Y-5.0433
X4.2756Y-4.3976
X4.2756Y-4.5866
X4.2756Y-4.6181
X4.2795Y-4.3661
X4.2874Y-4.4409
X4.3465Y-4.8583
X4.3583Y-4.4567
X4.3661Y-4.5276
X4.3701Y-4.6693
X4.3937Y-4.8583
X4.3937Y-4.9803
X4.4409Y-4.8583
X4.4688Y-5.3816
X4.469Y-5.5477
X4.4724Y-5.4647
X4.4764Y-4.0157
X4.4961Y-5.2087
X4.5Y-4.7756
X4.5Y-4.811
X4.5394Y-5.3819
X4.5394Y-5.4646
X4.5394Y-5.5472
X4.5512Y-4.4685
X4.5512Y-4.5236
X4.6575Y-5.2835
X4.6575Y-5.311
X4.6575Y-5.3386
X4.6575Y-5.3661
X4.6575Y-5.3937
X4.6732Y-4.5079
X4.6732Y-4.4764
X4.6969Y-4.2283
X4.7126Y-4.0472
X4.7835Y-4.2323
X4.7933Y-5.6358
X4.7933Y-5.6949
X4.8543Y-5.2835
X4.8543Y-5.311
X4.8543Y-5.3386
X4.8543Y-5.3661
X4.8543Y-5.3937
X4.8618Y-4.8086
X4.8622Y-4.2717
X4.8622Y-4.6496
X4.8622Y-4.8583
X4.8867Y-4.797
X4.8937Y-4.6457
X4.9016Y-4.8504
X4.9291Y-4.9102
X4.9305Y-4.8827
X4.9331Y-4.8504
X4.9409Y-4.0079
X4.9724Y-4.75
X4.9724Y-4.9567
X4.9951Y-4.5399
X5.0Y-4.7283
X5.0197Y-4.5276
X5.0197Y-5.2638
X5.033Y-4.9867
X5.0354Y-4.6516
X5.0472Y-3.9981
X5.0527Y-5.0064
X5.0551Y-4.7559
X5.0551Y-5.4655
X5.0556Y-5.3824
X5.0595Y-4.6378
X5.0906Y-5.2992
X5.0984Y-4.311
X5.1102Y-4.5906
X5.1102Y-4.6168
X5.1102Y-4.6457
X5.1102Y-4.6732
X5.1102Y-4.7007
X5.1378Y-5.055
X5.1481Y-5.0295
X5.1535Y-4.0039
X5.1732Y-5.4488
X5.1816Y-4.9532
X5.2087Y-5.5394
X5.252Y-4.9134
X5.2559Y-4.0079
X5.2647Y-4.5943
X5.2922Y-4.5943
X5.2992Y-5.5394
X5.3035Y-4.8628
X5.311Y-4.2717
X5.3221Y-4.5943
X5.3307Y-4.8583
X5.3406Y-5.685
X5.3504Y-5.7126
X5.3537Y-4.5943
X5.3976Y-4.6032
X5.3976Y-4.6307
X5.3976Y-4.6583
X5.3976Y-4.6858
X5.3976Y-4.7134
X5.3976Y-4.7409
X5.4055Y-4.3346
X5.4094Y-4.248
X5.4291Y-5.5256
X5.4606Y-4.0394
X5.4646Y-4.4961
X5.4646Y-4.5787
X5.4685Y-4.9829
X5.4685Y-5.0104
X5.4685Y-5.038
X5.4685Y-5.0655
X5.4685Y-5.0931
X5.4685Y-5.1206
X5.4685Y-5.1481
X5.4685Y-5.1756
X5.5827Y-5.7087
X5.6496Y-4.7618
X5.7047Y-5.2402
X5.7835Y-5.2402
X5.815Y-5.7087
X5.8622Y-4.8189
X5.8661Y-4.9803
X5.8661Y-5.2362
X5.9488Y-4.5118
X6.1772Y-4.6457
X6.1811Y-4.5064
X6.1826Y-4.5881
X6.2874Y-5.4331
X6.3465Y-4.8243
X6.3465Y-5.437
X6.3543Y-4.748
X6.4173Y-5.252
X6.5008Y-5.252
X6.5079Y-4.5709
X6.5709Y-4.9843
X6.5713Y-4.8228
X6.5827Y-5.252
X6.6142Y-5.4449
X6.6614Y-4.5236
X6.6693Y-5.4449
X6.8976Y-4.5079
X6.8976Y-4.6496
X6.9409Y-5.2653
X6.9409Y-5.3046
X6.9843Y-5.3937
X7.0039Y-5.0591
X7.0315Y-5.2717
X7.0433Y-4.878
X7.0738Y-5.2008
X7.0751Y-4.8755
X7.0787Y-5.3976
X7.0945Y-4.7638
X7.1217Y-4.8783
X7.125Y-5.2008
X7.1339Y-4.6378
X7.1339Y-4.8031
X7.1457Y-4.4961
X7.1496Y-4.8701
X7.1535Y-5.2008
X7.2008Y-4.878
X7.2087Y-5.2008
X7.2165Y-4.8071
X7.2323Y-4.8819
X7.2323Y-5.3504
X7.2598Y-4.8819
X7.311Y-5.3819
X7.3189Y-5.0591
X7.3228Y-5.2574
X7.3228Y-5.3046
X7.3622Y-4.878
X7.3932Y-4.8824
X7.3957Y-5.1969
X7.4094Y-5.3858
X7.4213Y-4.7638
X7.4445Y-4.8783
X7.4468Y-5.1969
X7.4646Y-4.8031
X7.4724Y-4.8701
X7.5236Y-5.1969
X7.5276Y-4.878
X7.5433Y-4.8071
X7.5587Y-5.2004
X7.5591Y-4.878
X7.6142Y-5.2653
X7.6142Y-5.3086
X7.6457Y-5.0591
X7.6457Y-5.2638
X7.6535Y-5.3819
X7.6929Y-4.8819
X7.7225Y-5.2008
X7.7244Y-4.8819
X7.748Y-4.7638
X7.7559Y-5.3858
X7.7717Y-4.876
X7.7736Y-5.1969
X7.7874Y-4.8071
X7.7992Y-4.874
X7.8504Y-4.878
X7.8504Y-5.1969
X7.8701Y-4.8071
X7.878Y-4.878
X7.8898Y-5.2126
X7.9213Y-5.2692
X7.9213Y-5.3125
X7.9331Y-5.2126
X7.9685Y-5.0551
X8.0157Y-4.8819
X8.0433Y-4.8859
X8.0433Y-5.1969
X8.0669Y-4.7638
X8.0945Y-4.878
X8.1014Y-5.2077
X8.1102Y-4.8071
X8.122Y-4.878
X8.1732Y-4.878
X8.1737Y-5.1931
X8.1929Y-4.811
X8.2008Y-4.8819
X8.2205Y-5.2653
X8.2205Y-5.3046
X8.2323Y-5.1378
T3
X4.0394Y-4.1339
X4.0394Y-5.7087
X4.067Y-4.067
X4.067Y-4.2007
X4.067Y-5.6418
X4.067Y-5.7755
X4.1339Y-4.0394
X4.1339Y-4.2283
X4.1339Y-5.6142
X4.1339Y-5.8031
X4.2007Y-4.067
X4.2007Y-4.2007
X4.2007Y-5.6418
X4.2007Y-5.7755
X4.2283Y-4.1339
X4.2283Y-5.7087
X7.9764Y-4.1339
X7.9764Y-5.7087
X8.0041Y-4.067
X8.0041Y-4.2007
X8.0041Y-5.6418
X8.0041Y-5.7755
X8.0709Y-4.0394
X8.0709Y-4.2283
X8.0709Y-5.6142
X8.0709Y-5.8031
X8.1377Y-4.067
X8.1377Y-4.2007
X8.1377Y-5.6418
X8.1377Y-5.7755
X8.1654Y-4.1339
X8.1654Y-5.7087
T5
X5.7283Y-4.2205
X5.8268Y-4.2205
X5.9252Y-4.2205
X6.1693Y-4.2205
X6.2677Y-4.2205
X6.3661Y-4.2205
X6.7028Y-4.2205
X6.8012Y-4.2205
X6.8996Y-4.2205
X7.1437Y-4.2205
X7.2421Y-4.2205
X7.3406Y-4.2205
X7.5846Y-4.2205
X7.6831Y-4.2205
X7.7815Y-4.2205
T6
X4.2218Y-5.3445
X4.2218Y-5.4429
X4.6496Y-4.6709
X4.6496Y-4.7709
X4.6496Y-4.8709
X4.6496Y-4.9709
X4.6496Y-5.0709
X4.6496Y-5.1709
X6.1161Y-5.6208
X6.2146Y-5.6208
X6.4587Y-5.6208
X6.5571Y-5.6208
X6.9331Y-5.622
X7.0315Y-5.622
X7.2776Y-5.622
X7.376Y-5.622
X7.6201Y-5.6208
X7.7185Y-5.6208
T7
X4.1339Y-4.1339
X4.1339Y-5.7087
X8.0709Y-4.1339
X8.0709Y-5.7087
T4
G00X4.0679Y-4.322
M15
G01X4.0364Y-4.322
M16
G05
G00X4.0679Y-4.6622
M15
G01X4.0364Y-4.6622
M16
G05
G00X4.2392Y-4.322
M15
G01X4.1959Y-4.322
M16
G05
G00X4.2392Y-4.6622
M15
G01X4.1959Y-4.6622
M16
G05
T0
M30
