%TF.GenerationSoftware,KiCad,Pcbnew,7.0.7*%
%TF.CreationDate,2024-02-16T21:08:36+01:00*%
%TF.ProjectId,OpenHand,4f70656e-4861-46e6-942e-6b696361645f,rev?*%
%TF.SameCoordinates,Original*%
%TF.FileFunction,Legend,Top*%
%TF.FilePolarity,Positive*%
%FSLAX46Y46*%
G04 Gerber Fmt 4.6, Leading zero omitted, Abs format (unit mm)*
G04 Created by KiCad (PCBNEW 7.0.7) date 2024-02-16 21:08:36*
%MOMM*%
%LPD*%
G01*
G04 APERTURE LIST*
G04 Aperture macros list*
%AMRoundRect*
0 Rectangle with rounded corners*
0 $1 Rounding radius*
0 $2 $3 $4 $5 $6 $7 $8 $9 X,Y pos of 4 corners*
0 Add a 4 corners polygon primitive as box body*
4,1,4,$2,$3,$4,$5,$6,$7,$8,$9,$2,$3,0*
0 Add four circle primitives for the rounded corners*
1,1,$1+$1,$2,$3*
1,1,$1+$1,$4,$5*
1,1,$1+$1,$6,$7*
1,1,$1+$1,$8,$9*
0 Add four rect primitives between the rounded corners*
20,1,$1+$1,$2,$3,$4,$5,0*
20,1,$1+$1,$4,$5,$6,$7,0*
20,1,$1+$1,$6,$7,$8,$9,0*
20,1,$1+$1,$8,$9,$2,$3,0*%
%AMFreePoly0*
4,1,19,0.500000,-0.750000,0.000000,-0.750000,0.000000,-0.744911,-0.071157,-0.744911,-0.207708,-0.704816,-0.327430,-0.627875,-0.420627,-0.520320,-0.479746,-0.390866,-0.500000,-0.250000,-0.500000,0.250000,-0.479746,0.390866,-0.420627,0.520320,-0.327430,0.627875,-0.207708,0.704816,-0.071157,0.744911,0.000000,0.744911,0.000000,0.750000,0.500000,0.750000,0.500000,-0.750000,0.500000,-0.750000,
$1*%
%AMFreePoly1*
4,1,19,0.000000,0.744911,0.071157,0.744911,0.207708,0.704816,0.327430,0.627875,0.420627,0.520320,0.479746,0.390866,0.500000,0.250000,0.500000,-0.250000,0.479746,-0.390866,0.420627,-0.520320,0.327430,-0.627875,0.207708,-0.704816,0.071157,-0.744911,0.000000,-0.744911,0.000000,-0.750000,-0.500000,-0.750000,-0.500000,0.750000,0.000000,0.750000,0.000000,0.744911,0.000000,0.744911,
$1*%
G04 Aperture macros list end*
%ADD10C,0.150000*%
%ADD11C,0.200000*%
%ADD12C,0.120000*%
%ADD13C,1.000000*%
%ADD14R,2.310000X2.460000*%
%ADD15RoundRect,0.100000X0.100000X-0.687500X0.100000X0.687500X-0.100000X0.687500X-0.100000X-0.687500X0*%
%ADD16RoundRect,0.250000X-0.450000X0.262500X-0.450000X-0.262500X0.450000X-0.262500X0.450000X0.262500X0*%
%ADD17RoundRect,0.250000X0.600000X0.750000X-0.600000X0.750000X-0.600000X-0.750000X0.600000X-0.750000X0*%
%ADD18O,1.700000X2.000000*%
%ADD19RoundRect,0.250000X0.450000X-0.262500X0.450000X0.262500X-0.450000X0.262500X-0.450000X-0.262500X0*%
%ADD20RoundRect,0.250000X0.312500X0.625000X-0.312500X0.625000X-0.312500X-0.625000X0.312500X-0.625000X0*%
%ADD21C,0.800000*%
%ADD22C,6.400000*%
%ADD23R,1.500000X2.000000*%
%ADD24R,3.800000X2.000000*%
%ADD25RoundRect,0.225000X-0.375000X0.225000X-0.375000X-0.225000X0.375000X-0.225000X0.375000X0.225000X0*%
%ADD26RoundRect,0.250000X-0.600000X-0.725000X0.600000X-0.725000X0.600000X0.725000X-0.600000X0.725000X0*%
%ADD27O,1.700000X1.950000*%
%ADD28FreePoly0,180.000000*%
%ADD29FreePoly1,180.000000*%
%ADD30RoundRect,0.250000X-0.250000X-0.475000X0.250000X-0.475000X0.250000X0.475000X-0.250000X0.475000X0*%
%ADD31RoundRect,0.250000X0.475000X-0.250000X0.475000X0.250000X-0.475000X0.250000X-0.475000X-0.250000X0*%
%ADD32RoundRect,0.250000X0.262500X0.450000X-0.262500X0.450000X-0.262500X-0.450000X0.262500X-0.450000X0*%
%ADD33R,0.549999X0.800001*%
%ADD34C,0.650000*%
%ADD35R,1.240000X0.600000*%
%ADD36R,1.240000X0.300000*%
%ADD37O,2.100000X1.000000*%
%ADD38O,1.800000X1.000000*%
%ADD39RoundRect,0.250000X0.250000X0.475000X-0.250000X0.475000X-0.250000X-0.475000X0.250000X-0.475000X0*%
%ADD40R,1.250000X1.000000*%
%ADD41RoundRect,0.250000X-0.475000X0.250000X-0.475000X-0.250000X0.475000X-0.250000X0.475000X0.250000X0*%
%ADD42R,2.000000X1.300000*%
%ADD43R,2.000000X2.000000*%
%ADD44FreePoly0,270.000000*%
%ADD45FreePoly1,270.000000*%
%ADD46R,1.300000X2.000000*%
%ADD47RoundRect,0.250000X0.750000X-0.600000X0.750000X0.600000X-0.750000X0.600000X-0.750000X-0.600000X0*%
%ADD48O,2.000000X1.700000*%
%ADD49FreePoly0,90.000000*%
%ADD50FreePoly1,90.000000*%
%ADD51RoundRect,0.250000X-0.262500X-0.450000X0.262500X-0.450000X0.262500X0.450000X-0.262500X0.450000X0*%
%ADD52R,3.500000X2.950000*%
%ADD53RoundRect,0.250000X-1.075000X0.375000X-1.075000X-0.375000X1.075000X-0.375000X1.075000X0.375000X0*%
%ADD54RoundRect,0.150000X0.587500X0.150000X-0.587500X0.150000X-0.587500X-0.150000X0.587500X-0.150000X0*%
%ADD55RoundRect,0.250000X-0.312500X-0.625000X0.312500X-0.625000X0.312500X0.625000X-0.312500X0.625000X0*%
%ADD56RoundRect,0.250000X1.075000X-0.375000X1.075000X0.375000X-1.075000X0.375000X-1.075000X-0.375000X0*%
%ADD57RoundRect,0.150000X-0.150000X0.837500X-0.150000X-0.837500X0.150000X-0.837500X0.150000X0.837500X0*%
%ADD58RoundRect,0.075000X-0.441942X-0.548008X0.548008X0.441942X0.441942X0.548008X-0.548008X-0.441942X0*%
%ADD59RoundRect,0.075000X0.441942X-0.548008X0.548008X-0.441942X-0.441942X0.548008X-0.548008X0.441942X0*%
%ADD60R,1.700000X1.700000*%
%ADD61O,1.700000X1.700000*%
G04 APERTURE END LIST*
D10*
G36*
X188554814Y-140472676D02*
G01*
X183645187Y-140472676D01*
X183645187Y-139860842D01*
X183788044Y-139860842D01*
X183796953Y-139911366D01*
X183836253Y-139944343D01*
X183861905Y-139948866D01*
X184167857Y-139948866D01*
X184167857Y-140254819D01*
X184185404Y-140303028D01*
X184229833Y-140328680D01*
X184280357Y-140319771D01*
X184313334Y-140280471D01*
X184317857Y-140254819D01*
X184317857Y-140248283D01*
X185691953Y-140248283D01*
X185697794Y-140270085D01*
X185701715Y-140292319D01*
X185704342Y-140294523D01*
X185705230Y-140297837D01*
X185723721Y-140310785D01*
X185741015Y-140325296D01*
X185745599Y-140326104D01*
X185747256Y-140327264D01*
X185750544Y-140326976D01*
X185766667Y-140329819D01*
X186385714Y-140329819D01*
X186433923Y-140312272D01*
X186459575Y-140267843D01*
X186450666Y-140217319D01*
X186411366Y-140184342D01*
X186385714Y-140179819D01*
X185947733Y-140179819D01*
X186266709Y-139860842D01*
X187502330Y-139860842D01*
X187511239Y-139911366D01*
X187550539Y-139944343D01*
X187576191Y-139948866D01*
X188338096Y-139948866D01*
X188386305Y-139931319D01*
X188411957Y-139886890D01*
X188403048Y-139836366D01*
X188363748Y-139803389D01*
X188338096Y-139798866D01*
X187576191Y-139798866D01*
X187527982Y-139816413D01*
X187502330Y-139860842D01*
X186266709Y-139860842D01*
X186391128Y-139736423D01*
X186393023Y-139732358D01*
X186396843Y-139730012D01*
X186409246Y-139707107D01*
X186456865Y-139564251D01*
X186456820Y-139562615D01*
X186460714Y-139540533D01*
X186460714Y-139445295D01*
X186459180Y-139441081D01*
X186460222Y-139436720D01*
X186452796Y-139411754D01*
X186405177Y-139316516D01*
X186403987Y-139315390D01*
X186391128Y-139297024D01*
X186343509Y-139249405D01*
X186342027Y-139248714D01*
X186324017Y-139235356D01*
X186228779Y-139187737D01*
X186224325Y-139187224D01*
X186220890Y-139184342D01*
X186195238Y-139179819D01*
X185957143Y-139179819D01*
X185952929Y-139181352D01*
X185948568Y-139180311D01*
X185923602Y-139187737D01*
X185828364Y-139235356D01*
X185827238Y-139236545D01*
X185808872Y-139249405D01*
X185761253Y-139297024D01*
X185739572Y-139343521D01*
X185752849Y-139393075D01*
X185794875Y-139422502D01*
X185845982Y-139418030D01*
X185867319Y-139403090D01*
X185906332Y-139364076D01*
X185974848Y-139329819D01*
X186177533Y-139329819D01*
X186246048Y-139364077D01*
X186276456Y-139394484D01*
X186310714Y-139463000D01*
X186310714Y-139528363D01*
X186272542Y-139642876D01*
X185713634Y-140201786D01*
X185704096Y-140222239D01*
X185692806Y-140241795D01*
X185693402Y-140245175D01*
X185691953Y-140248283D01*
X184317857Y-140248283D01*
X184317857Y-139948866D01*
X184623810Y-139948866D01*
X184672019Y-139931319D01*
X184697671Y-139886890D01*
X184688762Y-139836366D01*
X184649462Y-139803389D01*
X184623810Y-139798866D01*
X184317857Y-139798866D01*
X184317857Y-139492914D01*
X184300310Y-139444705D01*
X184255881Y-139419053D01*
X184205357Y-139427962D01*
X184172380Y-139467262D01*
X184167857Y-139492914D01*
X184167857Y-139798866D01*
X183861905Y-139798866D01*
X183813696Y-139816413D01*
X183788044Y-139860842D01*
X183645187Y-139860842D01*
X183645187Y-139036962D01*
X188554814Y-139036962D01*
X188554814Y-140472676D01*
G37*
G36*
X179854814Y-140472676D02*
G01*
X174945187Y-140472676D01*
X174945187Y-139860842D01*
X175088044Y-139860842D01*
X175096953Y-139911366D01*
X175136253Y-139944343D01*
X175161905Y-139948866D01*
X175467857Y-139948866D01*
X175467857Y-140254819D01*
X175485404Y-140303028D01*
X175529833Y-140328680D01*
X175580357Y-140319771D01*
X175613334Y-140280471D01*
X175617857Y-140254819D01*
X175617857Y-140241795D01*
X177040425Y-140241795D01*
X177049334Y-140292319D01*
X177088634Y-140325296D01*
X177114286Y-140329819D01*
X177685714Y-140329819D01*
X177733923Y-140312272D01*
X177759575Y-140267843D01*
X177750666Y-140217319D01*
X177711366Y-140184342D01*
X177685714Y-140179819D01*
X177475000Y-140179819D01*
X177475000Y-139860842D01*
X178802330Y-139860842D01*
X178811239Y-139911366D01*
X178850539Y-139944343D01*
X178876191Y-139948866D01*
X179638096Y-139948866D01*
X179686305Y-139931319D01*
X179711957Y-139886890D01*
X179703048Y-139836366D01*
X179663748Y-139803389D01*
X179638096Y-139798866D01*
X178876191Y-139798866D01*
X178827982Y-139816413D01*
X178802330Y-139860842D01*
X177475000Y-139860842D01*
X177475000Y-139254819D01*
X177473524Y-139250765D01*
X177474545Y-139246576D01*
X177464897Y-139227063D01*
X177457453Y-139206610D01*
X177453718Y-139204454D01*
X177451807Y-139200587D01*
X177431872Y-139191840D01*
X177413024Y-139180958D01*
X177408776Y-139181706D01*
X177404827Y-139179974D01*
X177383932Y-139186087D01*
X177362500Y-139189867D01*
X177359728Y-139193169D01*
X177355589Y-139194381D01*
X177337596Y-139213216D01*
X177246476Y-139349896D01*
X177165096Y-139431275D01*
X177080745Y-139473451D01*
X177045473Y-139510705D01*
X177042398Y-139561916D01*
X177072962Y-139603121D01*
X177122860Y-139615041D01*
X177147827Y-139607615D01*
X177243065Y-139559996D01*
X177244190Y-139558806D01*
X177262557Y-139545947D01*
X177325000Y-139483503D01*
X177325000Y-140179819D01*
X177114286Y-140179819D01*
X177066077Y-140197366D01*
X177040425Y-140241795D01*
X175617857Y-140241795D01*
X175617857Y-139948866D01*
X175923810Y-139948866D01*
X175972019Y-139931319D01*
X175997671Y-139886890D01*
X175988762Y-139836366D01*
X175949462Y-139803389D01*
X175923810Y-139798866D01*
X175617857Y-139798866D01*
X175617857Y-139492914D01*
X175600310Y-139444705D01*
X175555881Y-139419053D01*
X175505357Y-139427962D01*
X175472380Y-139467262D01*
X175467857Y-139492914D01*
X175467857Y-139798866D01*
X175161905Y-139798866D01*
X175113696Y-139816413D01*
X175088044Y-139860842D01*
X174945187Y-139860842D01*
X174945187Y-139037117D01*
X179854814Y-139037117D01*
X179854814Y-140472676D01*
G37*
X115195236Y-147854819D02*
X115385712Y-147854819D01*
X115385712Y-147854819D02*
X115480950Y-147902438D01*
X115480950Y-147902438D02*
X115576188Y-147997676D01*
X115576188Y-147997676D02*
X115623807Y-148188152D01*
X115623807Y-148188152D02*
X115623807Y-148521485D01*
X115623807Y-148521485D02*
X115576188Y-148711961D01*
X115576188Y-148711961D02*
X115480950Y-148807200D01*
X115480950Y-148807200D02*
X115385712Y-148854819D01*
X115385712Y-148854819D02*
X115195236Y-148854819D01*
X115195236Y-148854819D02*
X115099998Y-148807200D01*
X115099998Y-148807200D02*
X115004760Y-148711961D01*
X115004760Y-148711961D02*
X114957141Y-148521485D01*
X114957141Y-148521485D02*
X114957141Y-148188152D01*
X114957141Y-148188152D02*
X115004760Y-147997676D01*
X115004760Y-147997676D02*
X115099998Y-147902438D01*
X115099998Y-147902438D02*
X115195236Y-147854819D01*
X116052379Y-148188152D02*
X116052379Y-149188152D01*
X116052379Y-148235771D02*
X116147617Y-148188152D01*
X116147617Y-148188152D02*
X116338093Y-148188152D01*
X116338093Y-148188152D02*
X116433331Y-148235771D01*
X116433331Y-148235771D02*
X116480950Y-148283390D01*
X116480950Y-148283390D02*
X116528569Y-148378628D01*
X116528569Y-148378628D02*
X116528569Y-148664342D01*
X116528569Y-148664342D02*
X116480950Y-148759580D01*
X116480950Y-148759580D02*
X116433331Y-148807200D01*
X116433331Y-148807200D02*
X116338093Y-148854819D01*
X116338093Y-148854819D02*
X116147617Y-148854819D01*
X116147617Y-148854819D02*
X116052379Y-148807200D01*
X117338093Y-148807200D02*
X117242855Y-148854819D01*
X117242855Y-148854819D02*
X117052379Y-148854819D01*
X117052379Y-148854819D02*
X116957141Y-148807200D01*
X116957141Y-148807200D02*
X116909522Y-148711961D01*
X116909522Y-148711961D02*
X116909522Y-148331009D01*
X116909522Y-148331009D02*
X116957141Y-148235771D01*
X116957141Y-148235771D02*
X117052379Y-148188152D01*
X117052379Y-148188152D02*
X117242855Y-148188152D01*
X117242855Y-148188152D02*
X117338093Y-148235771D01*
X117338093Y-148235771D02*
X117385712Y-148331009D01*
X117385712Y-148331009D02*
X117385712Y-148426247D01*
X117385712Y-148426247D02*
X116909522Y-148521485D01*
X117814284Y-148188152D02*
X117814284Y-148854819D01*
X117814284Y-148283390D02*
X117861903Y-148235771D01*
X117861903Y-148235771D02*
X117957141Y-148188152D01*
X117957141Y-148188152D02*
X118099998Y-148188152D01*
X118099998Y-148188152D02*
X118195236Y-148235771D01*
X118195236Y-148235771D02*
X118242855Y-148331009D01*
X118242855Y-148331009D02*
X118242855Y-148854819D01*
X118719046Y-148854819D02*
X118719046Y-147854819D01*
X118719046Y-148331009D02*
X119290474Y-148331009D01*
X119290474Y-148854819D02*
X119290474Y-147854819D01*
X120195236Y-148854819D02*
X120195236Y-148331009D01*
X120195236Y-148331009D02*
X120147617Y-148235771D01*
X120147617Y-148235771D02*
X120052379Y-148188152D01*
X120052379Y-148188152D02*
X119861903Y-148188152D01*
X119861903Y-148188152D02*
X119766665Y-148235771D01*
X120195236Y-148807200D02*
X120099998Y-148854819D01*
X120099998Y-148854819D02*
X119861903Y-148854819D01*
X119861903Y-148854819D02*
X119766665Y-148807200D01*
X119766665Y-148807200D02*
X119719046Y-148711961D01*
X119719046Y-148711961D02*
X119719046Y-148616723D01*
X119719046Y-148616723D02*
X119766665Y-148521485D01*
X119766665Y-148521485D02*
X119861903Y-148473866D01*
X119861903Y-148473866D02*
X120099998Y-148473866D01*
X120099998Y-148473866D02*
X120195236Y-148426247D01*
X120671427Y-148188152D02*
X120671427Y-148854819D01*
X120671427Y-148283390D02*
X120719046Y-148235771D01*
X120719046Y-148235771D02*
X120814284Y-148188152D01*
X120814284Y-148188152D02*
X120957141Y-148188152D01*
X120957141Y-148188152D02*
X121052379Y-148235771D01*
X121052379Y-148235771D02*
X121099998Y-148331009D01*
X121099998Y-148331009D02*
X121099998Y-148854819D01*
X122004760Y-148854819D02*
X122004760Y-147854819D01*
X122004760Y-148807200D02*
X121909522Y-148854819D01*
X121909522Y-148854819D02*
X121719046Y-148854819D01*
X121719046Y-148854819D02*
X121623808Y-148807200D01*
X121623808Y-148807200D02*
X121576189Y-148759580D01*
X121576189Y-148759580D02*
X121528570Y-148664342D01*
X121528570Y-148664342D02*
X121528570Y-148378628D01*
X121528570Y-148378628D02*
X121576189Y-148283390D01*
X121576189Y-148283390D02*
X121623808Y-148235771D01*
X121623808Y-148235771D02*
X121719046Y-148188152D01*
X121719046Y-148188152D02*
X121909522Y-148188152D01*
X121909522Y-148188152D02*
X122004760Y-148235771D01*
X123814284Y-148759580D02*
X123766665Y-148807200D01*
X123766665Y-148807200D02*
X123623808Y-148854819D01*
X123623808Y-148854819D02*
X123528570Y-148854819D01*
X123528570Y-148854819D02*
X123385713Y-148807200D01*
X123385713Y-148807200D02*
X123290475Y-148711961D01*
X123290475Y-148711961D02*
X123242856Y-148616723D01*
X123242856Y-148616723D02*
X123195237Y-148426247D01*
X123195237Y-148426247D02*
X123195237Y-148283390D01*
X123195237Y-148283390D02*
X123242856Y-148092914D01*
X123242856Y-148092914D02*
X123290475Y-147997676D01*
X123290475Y-147997676D02*
X123385713Y-147902438D01*
X123385713Y-147902438D02*
X123528570Y-147854819D01*
X123528570Y-147854819D02*
X123623808Y-147854819D01*
X123623808Y-147854819D02*
X123766665Y-147902438D01*
X123766665Y-147902438D02*
X123814284Y-147950057D01*
X124385713Y-148854819D02*
X124290475Y-148807200D01*
X124290475Y-148807200D02*
X124242856Y-148759580D01*
X124242856Y-148759580D02*
X124195237Y-148664342D01*
X124195237Y-148664342D02*
X124195237Y-148378628D01*
X124195237Y-148378628D02*
X124242856Y-148283390D01*
X124242856Y-148283390D02*
X124290475Y-148235771D01*
X124290475Y-148235771D02*
X124385713Y-148188152D01*
X124385713Y-148188152D02*
X124528570Y-148188152D01*
X124528570Y-148188152D02*
X124623808Y-148235771D01*
X124623808Y-148235771D02*
X124671427Y-148283390D01*
X124671427Y-148283390D02*
X124719046Y-148378628D01*
X124719046Y-148378628D02*
X124719046Y-148664342D01*
X124719046Y-148664342D02*
X124671427Y-148759580D01*
X124671427Y-148759580D02*
X124623808Y-148807200D01*
X124623808Y-148807200D02*
X124528570Y-148854819D01*
X124528570Y-148854819D02*
X124385713Y-148854819D01*
X125147618Y-148188152D02*
X125147618Y-148854819D01*
X125147618Y-148283390D02*
X125195237Y-148235771D01*
X125195237Y-148235771D02*
X125290475Y-148188152D01*
X125290475Y-148188152D02*
X125433332Y-148188152D01*
X125433332Y-148188152D02*
X125528570Y-148235771D01*
X125528570Y-148235771D02*
X125576189Y-148331009D01*
X125576189Y-148331009D02*
X125576189Y-148854819D01*
X125909523Y-148188152D02*
X126290475Y-148188152D01*
X126052380Y-147854819D02*
X126052380Y-148711961D01*
X126052380Y-148711961D02*
X126099999Y-148807200D01*
X126099999Y-148807200D02*
X126195237Y-148854819D01*
X126195237Y-148854819D02*
X126290475Y-148854819D01*
X126623809Y-148854819D02*
X126623809Y-148188152D01*
X126623809Y-148378628D02*
X126671428Y-148283390D01*
X126671428Y-148283390D02*
X126719047Y-148235771D01*
X126719047Y-148235771D02*
X126814285Y-148188152D01*
X126814285Y-148188152D02*
X126909523Y-148188152D01*
X127385714Y-148854819D02*
X127290476Y-148807200D01*
X127290476Y-148807200D02*
X127242857Y-148759580D01*
X127242857Y-148759580D02*
X127195238Y-148664342D01*
X127195238Y-148664342D02*
X127195238Y-148378628D01*
X127195238Y-148378628D02*
X127242857Y-148283390D01*
X127242857Y-148283390D02*
X127290476Y-148235771D01*
X127290476Y-148235771D02*
X127385714Y-148188152D01*
X127385714Y-148188152D02*
X127528571Y-148188152D01*
X127528571Y-148188152D02*
X127623809Y-148235771D01*
X127623809Y-148235771D02*
X127671428Y-148283390D01*
X127671428Y-148283390D02*
X127719047Y-148378628D01*
X127719047Y-148378628D02*
X127719047Y-148664342D01*
X127719047Y-148664342D02*
X127671428Y-148759580D01*
X127671428Y-148759580D02*
X127623809Y-148807200D01*
X127623809Y-148807200D02*
X127528571Y-148854819D01*
X127528571Y-148854819D02*
X127385714Y-148854819D01*
X128290476Y-148854819D02*
X128195238Y-148807200D01*
X128195238Y-148807200D02*
X128147619Y-148711961D01*
X128147619Y-148711961D02*
X128147619Y-147854819D01*
X128814286Y-148854819D02*
X128719048Y-148807200D01*
X128719048Y-148807200D02*
X128671429Y-148711961D01*
X128671429Y-148711961D02*
X128671429Y-147854819D01*
X129576191Y-148807200D02*
X129480953Y-148854819D01*
X129480953Y-148854819D02*
X129290477Y-148854819D01*
X129290477Y-148854819D02*
X129195239Y-148807200D01*
X129195239Y-148807200D02*
X129147620Y-148711961D01*
X129147620Y-148711961D02*
X129147620Y-148331009D01*
X129147620Y-148331009D02*
X129195239Y-148235771D01*
X129195239Y-148235771D02*
X129290477Y-148188152D01*
X129290477Y-148188152D02*
X129480953Y-148188152D01*
X129480953Y-148188152D02*
X129576191Y-148235771D01*
X129576191Y-148235771D02*
X129623810Y-148331009D01*
X129623810Y-148331009D02*
X129623810Y-148426247D01*
X129623810Y-148426247D02*
X129147620Y-148521485D01*
X130052382Y-148854819D02*
X130052382Y-148188152D01*
X130052382Y-148378628D02*
X130100001Y-148283390D01*
X130100001Y-148283390D02*
X130147620Y-148235771D01*
X130147620Y-148235771D02*
X130242858Y-148188152D01*
X130242858Y-148188152D02*
X130338096Y-148188152D01*
G36*
X-6010Y2301330D02*
G01*
X-44181Y2186816D01*
X-70674Y2160322D01*
X-139190Y2126065D01*
X-246637Y2126065D01*
X-315153Y2160323D01*
X-345561Y2190730D01*
X-379819Y2259246D01*
X-379819Y2547493D01*
X-6010Y2547493D01*
X-6010Y2301330D01*
G37*
G36*
X470180Y2306865D02*
G01*
X435922Y2238349D01*
X405514Y2207941D01*
X336999Y2173684D01*
X277171Y2173684D01*
X208654Y2207942D01*
X178248Y2238349D01*
X143990Y2306865D01*
X143990Y2547493D01*
X470180Y2547493D01*
X470180Y2306865D01*
G37*
G36*
X763037Y71589D02*
G01*
X-672676Y71589D01*
X-672676Y479636D01*
X-529819Y479636D01*
X-529258Y478097D01*
X-525970Y455919D01*
X-478351Y313062D01*
X-475563Y309550D01*
X-475173Y305082D01*
X-460232Y283745D01*
X-412613Y236127D01*
X-366116Y214446D01*
X-316561Y227724D01*
X-287135Y269749D01*
X-291607Y320857D01*
X-306548Y342194D01*
X-341647Y377292D01*
X-379819Y491806D01*
X-379819Y562703D01*
X-341647Y677217D01*
X-267534Y751329D01*
X-190547Y789823D01*
X-17013Y833207D01*
X107375Y833207D01*
X280909Y789823D01*
X357896Y751330D01*
X432009Y677217D01*
X470180Y562704D01*
X470180Y491806D01*
X432009Y377293D01*
X396909Y342193D01*
X375228Y295696D01*
X388505Y246142D01*
X430531Y216715D01*
X481638Y221187D01*
X502975Y236127D01*
X550594Y283746D01*
X552489Y287810D01*
X556309Y290157D01*
X568712Y313062D01*
X616331Y455918D01*
X616286Y457553D01*
X620180Y479636D01*
X620180Y574874D01*
X619620Y576411D01*
X616331Y598592D01*
X568712Y741448D01*
X565925Y744958D01*
X565535Y749427D01*
X550594Y770764D01*
X455356Y866002D01*
X453874Y866692D01*
X435864Y880051D01*
X340626Y927670D01*
X337097Y928076D01*
X325275Y933349D01*
X134799Y980968D01*
X131350Y980607D01*
X116609Y983207D01*
X-26247Y983207D01*
X-29504Y982021D01*
X-44437Y980968D01*
X-234913Y933349D01*
X-237857Y931360D01*
X-250264Y927670D01*
X-345502Y880051D01*
X-346627Y878862D01*
X-364993Y866003D01*
X-460233Y770764D01*
X-462127Y766700D01*
X-465949Y764353D01*
X-478351Y741448D01*
X-525970Y598591D01*
X-525925Y596956D01*
X-529819Y574874D01*
X-529819Y479636D01*
X-672676Y479636D01*
X-672676Y2241541D01*
X-529819Y2241541D01*
X-528285Y2237327D01*
X-529327Y2232967D01*
X-521901Y2208000D01*
X-474282Y2112762D01*
X-473094Y2111637D01*
X-460232Y2093269D01*
X-412613Y2045651D01*
X-411131Y2044960D01*
X-393121Y2031602D01*
X-297883Y1983983D01*
X-293429Y1983470D01*
X-289994Y1980588D01*
X-264342Y1976065D01*
X-121485Y1976065D01*
X-117271Y1977598D01*
X-112911Y1976557D01*
X-87944Y1983983D01*
X7294Y2031602D01*
X8418Y2032789D01*
X26787Y2045652D01*
X74405Y2093271D01*
X76299Y2097334D01*
X80119Y2099681D01*
X88783Y2115681D01*
X111195Y2093270D01*
X112676Y2092578D01*
X130687Y2079221D01*
X225925Y2031602D01*
X230378Y2031089D01*
X233814Y2028207D01*
X259466Y2023684D01*
X354704Y2023684D01*
X358917Y2025217D01*
X363278Y2024176D01*
X388245Y2031602D01*
X483483Y2079221D01*
X484608Y2080410D01*
X502975Y2093270D01*
X550594Y2140889D01*
X551285Y2142370D01*
X564643Y2160381D01*
X612262Y2255619D01*
X612774Y2260072D01*
X615657Y2263508D01*
X620180Y2289160D01*
X620180Y2622493D01*
X613516Y2640801D01*
X610132Y2659993D01*
X604947Y2664343D01*
X602633Y2670702D01*
X585759Y2680444D01*
X570832Y2692970D01*
X561089Y2694687D01*
X558204Y2696354D01*
X554921Y2695775D01*
X545180Y2697493D01*
X-454819Y2697493D01*
X-473127Y2690829D01*
X-492319Y2687445D01*
X-496669Y2682260D01*
X-503028Y2679946D01*
X-512770Y2663072D01*
X-525296Y2648145D01*
X-527013Y2638402D01*
X-528680Y2635517D01*
X-528101Y2632234D01*
X-529819Y2622493D01*
X-529819Y2241541D01*
X-672676Y2241541D01*
X-672676Y3241541D01*
X-529819Y3241541D01*
X-528285Y3237327D01*
X-529327Y3232967D01*
X-521901Y3208000D01*
X-474282Y3112762D01*
X-473094Y3111637D01*
X-460232Y3093269D01*
X-412613Y3045651D01*
X-411131Y3044960D01*
X-393121Y3031602D01*
X-297883Y2983983D01*
X-293429Y2983470D01*
X-289994Y2980588D01*
X-264342Y2976065D01*
X-169104Y2976065D01*
X-164890Y2977598D01*
X-160530Y2976557D01*
X-135563Y2983983D01*
X-40325Y3031602D01*
X-39199Y3032791D01*
X-20833Y3045651D01*
X26786Y3093270D01*
X27477Y3094752D01*
X40835Y3112763D01*
X88453Y3208001D01*
X88858Y3211527D01*
X94132Y3223351D01*
X139754Y3405841D01*
X178248Y3482828D01*
X208655Y3513235D01*
X277171Y3547493D01*
X336999Y3547493D01*
X405515Y3513234D01*
X435922Y3482828D01*
X470180Y3414312D01*
X470180Y3206092D01*
X426410Y3074782D01*
X427811Y3023498D01*
X461848Y2985113D01*
X512597Y2977588D01*
X556309Y3004443D01*
X568712Y3027348D01*
X616331Y3170204D01*
X616286Y3171839D01*
X620180Y3193922D01*
X620180Y3432017D01*
X618646Y3436230D01*
X619688Y3440592D01*
X612262Y3465558D01*
X564643Y3560796D01*
X563453Y3561921D01*
X550594Y3580288D01*
X502975Y3627907D01*
X501493Y3628597D01*
X483483Y3641956D01*
X388245Y3689575D01*
X383791Y3690087D01*
X380356Y3692970D01*
X354704Y3697493D01*
X259466Y3697493D01*
X255252Y3695959D01*
X250891Y3697001D01*
X225925Y3689575D01*
X130687Y3641956D01*
X129561Y3640766D01*
X111195Y3627907D01*
X63576Y3580288D01*
X62885Y3578806D01*
X49527Y3560796D01*
X1908Y3465558D01*
X1501Y3462029D01*
X-3771Y3450207D01*
X-49393Y3267716D01*
X-87885Y3190730D01*
X-118292Y3160323D01*
X-186809Y3126065D01*
X-246637Y3126065D01*
X-315153Y3160323D01*
X-345561Y3190730D01*
X-379819Y3259246D01*
X-379819Y3467465D01*
X-336049Y3598775D01*
X-337450Y3650059D01*
X-371488Y3688445D01*
X-422236Y3695970D01*
X-465949Y3669115D01*
X-478351Y3646210D01*
X-525970Y3503353D01*
X-525925Y3501718D01*
X-529819Y3479636D01*
X-529819Y3241541D01*
X-672676Y3241541D01*
X-672676Y4241541D01*
X-529819Y4241541D01*
X-528285Y4237327D01*
X-529327Y4232967D01*
X-521901Y4208000D01*
X-474282Y4112762D01*
X-473094Y4111637D01*
X-460232Y4093269D01*
X-412613Y4045651D01*
X-411131Y4044960D01*
X-393121Y4031602D01*
X-297883Y3983983D01*
X-293429Y3983470D01*
X-289994Y3980588D01*
X-264342Y3976065D01*
X545180Y3976065D01*
X593389Y3993612D01*
X619041Y4038041D01*
X610132Y4088565D01*
X570832Y4121542D01*
X545180Y4126065D01*
X-246637Y4126065D01*
X-315153Y4160323D01*
X-345561Y4190730D01*
X-379819Y4259246D01*
X-379819Y4414312D01*
X-345561Y4482827D01*
X-315153Y4513234D01*
X-246637Y4547493D01*
X545180Y4547493D01*
X593389Y4565040D01*
X619041Y4609469D01*
X610132Y4659993D01*
X570832Y4692970D01*
X545180Y4697493D01*
X-264342Y4697493D01*
X-268555Y4695959D01*
X-272917Y4697001D01*
X-297883Y4689575D01*
X-393121Y4641956D01*
X-394246Y4640767D01*
X-412613Y4627907D01*
X-460232Y4580289D01*
X-460922Y4578807D01*
X-474282Y4560796D01*
X-521901Y4465558D01*
X-522413Y4461104D01*
X-525296Y4457669D01*
X-529819Y4432017D01*
X-529819Y4241541D01*
X-672676Y4241541D01*
X-672676Y4840350D01*
X763037Y4840350D01*
X763037Y71589D01*
G37*
G36*
X135463037Y-148928696D02*
G01*
X134027323Y-148928696D01*
X134027323Y-148520363D01*
X134170180Y-148520363D01*
X134171713Y-148524576D01*
X134170672Y-148528938D01*
X134178098Y-148553905D01*
X134225718Y-148649143D01*
X134226909Y-148650270D01*
X134239767Y-148668634D01*
X134287386Y-148716253D01*
X134288867Y-148716944D01*
X134306878Y-148730302D01*
X134402116Y-148777921D01*
X134406569Y-148778433D01*
X134410005Y-148781316D01*
X134435657Y-148785839D01*
X134673752Y-148785839D01*
X134677965Y-148784305D01*
X134682326Y-148785347D01*
X134707293Y-148777921D01*
X134802531Y-148730302D01*
X134803656Y-148729112D01*
X134822023Y-148716253D01*
X134869642Y-148668634D01*
X134870333Y-148667152D01*
X134883691Y-148649142D01*
X134931310Y-148553904D01*
X134931822Y-148549450D01*
X134934705Y-148546015D01*
X134935802Y-148539791D01*
X135195792Y-148767282D01*
X135214643Y-148774588D01*
X135232156Y-148784700D01*
X135238049Y-148783660D01*
X135243628Y-148785823D01*
X135262767Y-148779302D01*
X135282680Y-148775791D01*
X135286525Y-148771207D01*
X135292190Y-148769278D01*
X135302660Y-148751979D01*
X135315657Y-148736491D01*
X135317145Y-148728047D01*
X135318755Y-148725389D01*
X135318221Y-148721947D01*
X135320180Y-148710839D01*
X135320180Y-148091792D01*
X135302633Y-148043583D01*
X135258204Y-148017931D01*
X135207680Y-148026840D01*
X135174703Y-148066140D01*
X135170180Y-148091792D01*
X135170180Y-148545556D01*
X134913616Y-148321063D01*
X134894764Y-148313756D01*
X134877252Y-148303645D01*
X134871358Y-148304684D01*
X134865780Y-148302522D01*
X134846640Y-148309042D01*
X134826728Y-148312554D01*
X134822882Y-148317137D01*
X134817218Y-148319067D01*
X134806747Y-148336365D01*
X134793751Y-148351854D01*
X134792262Y-148360297D01*
X134790653Y-148362956D01*
X134791186Y-148366397D01*
X134789228Y-148377506D01*
X134789228Y-148502657D01*
X134754969Y-148571174D01*
X134724563Y-148601580D01*
X134656047Y-148635839D01*
X134453362Y-148635839D01*
X134384846Y-148601581D01*
X134354438Y-148571173D01*
X134320180Y-148502656D01*
X134320180Y-148252355D01*
X134354438Y-148183838D01*
X134393452Y-148144825D01*
X134415133Y-148098329D01*
X134401856Y-148048774D01*
X134359830Y-148019348D01*
X134308723Y-148023819D01*
X134287386Y-148038759D01*
X134239767Y-148086378D01*
X134239075Y-148087860D01*
X134225718Y-148105869D01*
X134178098Y-148201107D01*
X134177585Y-148205561D01*
X134174703Y-148208997D01*
X134170180Y-148234649D01*
X134170180Y-148520363D01*
X134027323Y-148520363D01*
X134027323Y-147875074D01*
X135463037Y-147875074D01*
X135463037Y-148928696D01*
G37*
G36*
X197254814Y-140472676D02*
G01*
X192345187Y-140472676D01*
X192345187Y-139860842D01*
X192488044Y-139860842D01*
X192496953Y-139911366D01*
X192536253Y-139944343D01*
X192561905Y-139948866D01*
X192867857Y-139948866D01*
X192867857Y-140254819D01*
X192885404Y-140303028D01*
X192929833Y-140328680D01*
X192980357Y-140319771D01*
X193013334Y-140280471D01*
X193017857Y-140254819D01*
X193017857Y-139948866D01*
X193323810Y-139948866D01*
X193372019Y-139931319D01*
X193397671Y-139886890D01*
X193388762Y-139836366D01*
X193349462Y-139803389D01*
X193323810Y-139798866D01*
X193017857Y-139798866D01*
X193017857Y-139492914D01*
X193000310Y-139444705D01*
X192955881Y-139419053D01*
X192905357Y-139427962D01*
X192872380Y-139467262D01*
X192867857Y-139492914D01*
X192867857Y-139798866D01*
X192561905Y-139798866D01*
X192513696Y-139816413D01*
X192488044Y-139860842D01*
X192345187Y-139860842D01*
X192345187Y-139241795D01*
X194392806Y-139241795D01*
X194401715Y-139292319D01*
X194441015Y-139325296D01*
X194466667Y-139329819D01*
X194920432Y-139329819D01*
X194695938Y-139586383D01*
X194688631Y-139605234D01*
X194678520Y-139622747D01*
X194679559Y-139628640D01*
X194677397Y-139634219D01*
X194683917Y-139653358D01*
X194687429Y-139673271D01*
X194692012Y-139677116D01*
X194693942Y-139682781D01*
X194711240Y-139693251D01*
X194726729Y-139706248D01*
X194735172Y-139707736D01*
X194737831Y-139709346D01*
X194741272Y-139708812D01*
X194752381Y-139710771D01*
X194877533Y-139710771D01*
X194946049Y-139745029D01*
X194976456Y-139775436D01*
X195010714Y-139843951D01*
X195010714Y-140046637D01*
X194976455Y-140115153D01*
X194946048Y-140145561D01*
X194877533Y-140179819D01*
X194627229Y-140179819D01*
X194558713Y-140145561D01*
X194519701Y-140106548D01*
X194473204Y-140084866D01*
X194423649Y-140098143D01*
X194394223Y-140140168D01*
X194398693Y-140191275D01*
X194413633Y-140212612D01*
X194461252Y-140260232D01*
X194462733Y-140260922D01*
X194480745Y-140274282D01*
X194575983Y-140321901D01*
X194580436Y-140322413D01*
X194583872Y-140325296D01*
X194609524Y-140329819D01*
X194895238Y-140329819D01*
X194899451Y-140328285D01*
X194903812Y-140329327D01*
X194928779Y-140321901D01*
X195024017Y-140274282D01*
X195025141Y-140273094D01*
X195043510Y-140260232D01*
X195091128Y-140212613D01*
X195091818Y-140211131D01*
X195105177Y-140193121D01*
X195152796Y-140097883D01*
X195153308Y-140093429D01*
X195156191Y-140089994D01*
X195160714Y-140064342D01*
X195160714Y-139860842D01*
X196202330Y-139860842D01*
X196211239Y-139911366D01*
X196250539Y-139944343D01*
X196276191Y-139948866D01*
X197038096Y-139948866D01*
X197086305Y-139931319D01*
X197111957Y-139886890D01*
X197103048Y-139836366D01*
X197063748Y-139803389D01*
X197038096Y-139798866D01*
X196276191Y-139798866D01*
X196227982Y-139816413D01*
X196202330Y-139860842D01*
X195160714Y-139860842D01*
X195160714Y-139826247D01*
X195159180Y-139822033D01*
X195160222Y-139817672D01*
X195152796Y-139792706D01*
X195105177Y-139697468D01*
X195103987Y-139696342D01*
X195091128Y-139677976D01*
X195043509Y-139630357D01*
X195042027Y-139629666D01*
X195024017Y-139616308D01*
X194928779Y-139568689D01*
X194924325Y-139568176D01*
X194920890Y-139565294D01*
X194914666Y-139564196D01*
X195142157Y-139304207D01*
X195149463Y-139285355D01*
X195159575Y-139267843D01*
X195158535Y-139261949D01*
X195160698Y-139256371D01*
X195154177Y-139237231D01*
X195150666Y-139217319D01*
X195146082Y-139213473D01*
X195144153Y-139207809D01*
X195126854Y-139197338D01*
X195111366Y-139184342D01*
X195102922Y-139182853D01*
X195100264Y-139181244D01*
X195096822Y-139181777D01*
X195085714Y-139179819D01*
X194466667Y-139179819D01*
X194418458Y-139197366D01*
X194392806Y-139241795D01*
X192345187Y-139241795D01*
X192345187Y-139036962D01*
X197254814Y-139036962D01*
X197254814Y-140472676D01*
G37*
G36*
X150363979Y-147397609D02*
G01*
X150435921Y-147469551D01*
X150470180Y-147538068D01*
X150470180Y-147693134D01*
X150435922Y-147761650D01*
X150363979Y-147833592D01*
X150202613Y-147873934D01*
X149887748Y-147873934D01*
X149726381Y-147833592D01*
X149654438Y-147761649D01*
X149620180Y-147693132D01*
X149620180Y-147538069D01*
X149654438Y-147469552D01*
X149726381Y-147397609D01*
X149887748Y-147357268D01*
X150202613Y-147357268D01*
X150363979Y-147397609D01*
G37*
G36*
X150470180Y-146693134D02*
G01*
X150435922Y-146761649D01*
X150405514Y-146792057D01*
X150336999Y-146826315D01*
X150229552Y-146826315D01*
X150161035Y-146792057D01*
X150130628Y-146761650D01*
X150096371Y-146693134D01*
X150096371Y-146404887D01*
X150470180Y-146404887D01*
X150470180Y-146693134D01*
G37*
G36*
X150763037Y-149022795D02*
G01*
X149327323Y-149022795D01*
X149327323Y-148507339D01*
X149471319Y-148507339D01*
X149480228Y-148557863D01*
X149519528Y-148590840D01*
X149545180Y-148595363D01*
X150470180Y-148595363D01*
X150470180Y-148806077D01*
X150487727Y-148854286D01*
X150532156Y-148879938D01*
X150582680Y-148871029D01*
X150615657Y-148831729D01*
X150620180Y-148806077D01*
X150620180Y-148234649D01*
X150602633Y-148186440D01*
X150558204Y-148160788D01*
X150507680Y-148169697D01*
X150474703Y-148208997D01*
X150470180Y-148234649D01*
X150470180Y-148445363D01*
X149545180Y-148445363D01*
X149496971Y-148462910D01*
X149471319Y-148507339D01*
X149327323Y-148507339D01*
X149327323Y-147710839D01*
X149470180Y-147710839D01*
X149471713Y-147715052D01*
X149470672Y-147719414D01*
X149478098Y-147744381D01*
X149525718Y-147839619D01*
X149526909Y-147840746D01*
X149539767Y-147859110D01*
X149635005Y-147954348D01*
X149641712Y-147957475D01*
X149646059Y-147963466D01*
X149669848Y-147974076D01*
X149860324Y-148021695D01*
X149863772Y-148021334D01*
X149878514Y-148023934D01*
X150211847Y-148023934D01*
X150215104Y-148022748D01*
X150230037Y-148021695D01*
X150420513Y-147974076D01*
X150426646Y-147969933D01*
X150434019Y-147969288D01*
X150455356Y-147954348D01*
X150550594Y-147859110D01*
X150551284Y-147857628D01*
X150564643Y-147839618D01*
X150612262Y-147744380D01*
X150612774Y-147739926D01*
X150615657Y-147736491D01*
X150620180Y-147710839D01*
X150620180Y-147520363D01*
X150618646Y-147516149D01*
X150619688Y-147511788D01*
X150612262Y-147486822D01*
X150564643Y-147391584D01*
X150563456Y-147390460D01*
X150550594Y-147372092D01*
X150455356Y-147276854D01*
X150448648Y-147273726D01*
X150444302Y-147267736D01*
X150420513Y-147257126D01*
X150230037Y-147209507D01*
X150226588Y-147209867D01*
X150211847Y-147207268D01*
X149878514Y-147207268D01*
X149875256Y-147208453D01*
X149860324Y-147209507D01*
X149669848Y-147257126D01*
X149663715Y-147261267D01*
X149656342Y-147261913D01*
X149635005Y-147276854D01*
X149539767Y-147372092D01*
X149539075Y-147373574D01*
X149525718Y-147391583D01*
X149478098Y-147486821D01*
X149477585Y-147491275D01*
X149474703Y-147494711D01*
X149470180Y-147520363D01*
X149470180Y-147710839D01*
X149327323Y-147710839D01*
X149327323Y-146316863D01*
X149471319Y-146316863D01*
X149480228Y-146367387D01*
X149519528Y-146400364D01*
X149545180Y-146404887D01*
X149946371Y-146404887D01*
X149946371Y-146710839D01*
X149947904Y-146715052D01*
X149946863Y-146719413D01*
X149954289Y-146744380D01*
X150001908Y-146839618D01*
X150003097Y-146840743D01*
X150015957Y-146859110D01*
X150063576Y-146906729D01*
X150065057Y-146907420D01*
X150083068Y-146920778D01*
X150178306Y-146968397D01*
X150182759Y-146968909D01*
X150186195Y-146971792D01*
X150211847Y-146976315D01*
X150354704Y-146976315D01*
X150358917Y-146974781D01*
X150363278Y-146975823D01*
X150388245Y-146968397D01*
X150483483Y-146920778D01*
X150484608Y-146919588D01*
X150502975Y-146906729D01*
X150550594Y-146859110D01*
X150551285Y-146857628D01*
X150564643Y-146839618D01*
X150612262Y-146744380D01*
X150612774Y-146739926D01*
X150615657Y-146736491D01*
X150620180Y-146710839D01*
X150620180Y-146329887D01*
X150613516Y-146311578D01*
X150610132Y-146292387D01*
X150604947Y-146288036D01*
X150602633Y-146281678D01*
X150585759Y-146271935D01*
X150570832Y-146259410D01*
X150561089Y-146257692D01*
X150558204Y-146256026D01*
X150554921Y-146256604D01*
X150545180Y-146254887D01*
X149545180Y-146254887D01*
X149496971Y-146272434D01*
X149471319Y-146316863D01*
X149327323Y-146316863D01*
X149327323Y-146112030D01*
X150763037Y-146112030D01*
X150763037Y-149022795D01*
G37*
D11*
X133442857Y-106328409D02*
X133585714Y-106376028D01*
X133585714Y-106376028D02*
X133633333Y-106423647D01*
X133633333Y-106423647D02*
X133680952Y-106518885D01*
X133680952Y-106518885D02*
X133680952Y-106661742D01*
X133680952Y-106661742D02*
X133633333Y-106756980D01*
X133633333Y-106756980D02*
X133585714Y-106804600D01*
X133585714Y-106804600D02*
X133490476Y-106852219D01*
X133490476Y-106852219D02*
X133109524Y-106852219D01*
X133109524Y-106852219D02*
X133109524Y-105852219D01*
X133109524Y-105852219D02*
X133442857Y-105852219D01*
X133442857Y-105852219D02*
X133538095Y-105899838D01*
X133538095Y-105899838D02*
X133585714Y-105947457D01*
X133585714Y-105947457D02*
X133633333Y-106042695D01*
X133633333Y-106042695D02*
X133633333Y-106137933D01*
X133633333Y-106137933D02*
X133585714Y-106233171D01*
X133585714Y-106233171D02*
X133538095Y-106280790D01*
X133538095Y-106280790D02*
X133442857Y-106328409D01*
X133442857Y-106328409D02*
X133109524Y-106328409D01*
X134300000Y-105852219D02*
X134490476Y-105852219D01*
X134490476Y-105852219D02*
X134585714Y-105899838D01*
X134585714Y-105899838D02*
X134680952Y-105995076D01*
X134680952Y-105995076D02*
X134728571Y-106185552D01*
X134728571Y-106185552D02*
X134728571Y-106518885D01*
X134728571Y-106518885D02*
X134680952Y-106709361D01*
X134680952Y-106709361D02*
X134585714Y-106804600D01*
X134585714Y-106804600D02*
X134490476Y-106852219D01*
X134490476Y-106852219D02*
X134300000Y-106852219D01*
X134300000Y-106852219D02*
X134204762Y-106804600D01*
X134204762Y-106804600D02*
X134109524Y-106709361D01*
X134109524Y-106709361D02*
X134061905Y-106518885D01*
X134061905Y-106518885D02*
X134061905Y-106185552D01*
X134061905Y-106185552D02*
X134109524Y-105995076D01*
X134109524Y-105995076D02*
X134204762Y-105899838D01*
X134204762Y-105899838D02*
X134300000Y-105852219D01*
X135347619Y-105852219D02*
X135538095Y-105852219D01*
X135538095Y-105852219D02*
X135633333Y-105899838D01*
X135633333Y-105899838D02*
X135728571Y-105995076D01*
X135728571Y-105995076D02*
X135776190Y-106185552D01*
X135776190Y-106185552D02*
X135776190Y-106518885D01*
X135776190Y-106518885D02*
X135728571Y-106709361D01*
X135728571Y-106709361D02*
X135633333Y-106804600D01*
X135633333Y-106804600D02*
X135538095Y-106852219D01*
X135538095Y-106852219D02*
X135347619Y-106852219D01*
X135347619Y-106852219D02*
X135252381Y-106804600D01*
X135252381Y-106804600D02*
X135157143Y-106709361D01*
X135157143Y-106709361D02*
X135109524Y-106518885D01*
X135109524Y-106518885D02*
X135109524Y-106185552D01*
X135109524Y-106185552D02*
X135157143Y-105995076D01*
X135157143Y-105995076D02*
X135252381Y-105899838D01*
X135252381Y-105899838D02*
X135347619Y-105852219D01*
X136061905Y-105852219D02*
X136633333Y-105852219D01*
X136347619Y-106852219D02*
X136347619Y-105852219D01*
D10*
G36*
X148550903Y-110763037D02*
G01*
X147496428Y-110763037D01*
X147496428Y-110354704D01*
X147639285Y-110354704D01*
X147640818Y-110358917D01*
X147639777Y-110363278D01*
X147647203Y-110388245D01*
X147694822Y-110483483D01*
X147696011Y-110484608D01*
X147708871Y-110502975D01*
X147756490Y-110550594D01*
X147757971Y-110551285D01*
X147775982Y-110564643D01*
X147871220Y-110612262D01*
X147875673Y-110612774D01*
X147879109Y-110615657D01*
X147904761Y-110620180D01*
X148142856Y-110620180D01*
X148147069Y-110618646D01*
X148151430Y-110619688D01*
X148176397Y-110612262D01*
X148271635Y-110564643D01*
X148272760Y-110563453D01*
X148291127Y-110550594D01*
X148338746Y-110502975D01*
X148360427Y-110456479D01*
X148347150Y-110406924D01*
X148305124Y-110377498D01*
X148254017Y-110381969D01*
X148232680Y-110396909D01*
X148193667Y-110435922D01*
X148125151Y-110470180D01*
X147922466Y-110470180D01*
X147853950Y-110435922D01*
X147823543Y-110405515D01*
X147789285Y-110336998D01*
X147789285Y-110271636D01*
X147827456Y-110157122D01*
X148386365Y-109598213D01*
X148395902Y-109577759D01*
X148407193Y-109558204D01*
X148406596Y-109554823D01*
X148408046Y-109551716D01*
X148402204Y-109529913D01*
X148398284Y-109507680D01*
X148395656Y-109505475D01*
X148394769Y-109502162D01*
X148376277Y-109489213D01*
X148358984Y-109474703D01*
X148354399Y-109473894D01*
X148352743Y-109472735D01*
X148349454Y-109473022D01*
X148333332Y-109470180D01*
X147714285Y-109470180D01*
X147666076Y-109487727D01*
X147640424Y-109532156D01*
X147649333Y-109582680D01*
X147688633Y-109615657D01*
X147714285Y-109620180D01*
X148152266Y-109620180D01*
X147708871Y-110063576D01*
X147706976Y-110067639D01*
X147703155Y-110069987D01*
X147690753Y-110092892D01*
X147643134Y-110235749D01*
X147643178Y-110237383D01*
X147639285Y-110259466D01*
X147639285Y-110354704D01*
X147496428Y-110354704D01*
X147496428Y-109327323D01*
X148550903Y-109327323D01*
X148550903Y-110763037D01*
G37*
G36*
X200645180Y-148550277D02*
G01*
X200610922Y-148618792D01*
X200580514Y-148649200D01*
X200511999Y-148683458D01*
X200404552Y-148683458D01*
X200336036Y-148649200D01*
X200305629Y-148618793D01*
X200271371Y-148550277D01*
X200271371Y-148262030D01*
X200645180Y-148262030D01*
X200645180Y-148550277D01*
G37*
G36*
X200538979Y-147207133D02*
G01*
X200610922Y-147279076D01*
X200645180Y-147347591D01*
X200645180Y-147502658D01*
X200610922Y-147571174D01*
X200538979Y-147643116D01*
X200377613Y-147683458D01*
X200062748Y-147683458D01*
X199901381Y-147643116D01*
X199829438Y-147571173D01*
X199795180Y-147502656D01*
X199795180Y-147347593D01*
X199829438Y-147279076D01*
X199901381Y-147207133D01*
X200062748Y-147166792D01*
X200377613Y-147166792D01*
X200538979Y-147207133D01*
G37*
G36*
X200538979Y-145397609D02*
G01*
X200610922Y-145469552D01*
X200645180Y-145538067D01*
X200645180Y-145693133D01*
X200610921Y-145761650D01*
X200538979Y-145833592D01*
X200377613Y-145873934D01*
X200062748Y-145873934D01*
X199901381Y-145833592D01*
X199829438Y-145761649D01*
X199795180Y-145693132D01*
X199795180Y-145538069D01*
X199829438Y-145469552D01*
X199901381Y-145397609D01*
X200062748Y-145357268D01*
X200377613Y-145357268D01*
X200538979Y-145397609D01*
G37*
G36*
X200938037Y-149928696D02*
G01*
X199502323Y-149928696D01*
X199502323Y-149520363D01*
X199645180Y-149520363D01*
X199646713Y-149524576D01*
X199645672Y-149528938D01*
X199653098Y-149553905D01*
X199700718Y-149649143D01*
X199701909Y-149650270D01*
X199714767Y-149668634D01*
X199762386Y-149716253D01*
X199763867Y-149716944D01*
X199781878Y-149730302D01*
X199877116Y-149777921D01*
X199881569Y-149778433D01*
X199885005Y-149781316D01*
X199910657Y-149785839D01*
X200005895Y-149785839D01*
X200010108Y-149784305D01*
X200014469Y-149785347D01*
X200039436Y-149777921D01*
X200134674Y-149730302D01*
X200135799Y-149729112D01*
X200154166Y-149716253D01*
X200201785Y-149668634D01*
X200202476Y-149667152D01*
X200215834Y-149649142D01*
X200263453Y-149553904D01*
X200263859Y-149550375D01*
X200269132Y-149538553D01*
X200314754Y-149356063D01*
X200353247Y-149279076D01*
X200383655Y-149248669D01*
X200452171Y-149214411D01*
X200511999Y-149214411D01*
X200580514Y-149248669D01*
X200610922Y-149279076D01*
X200645180Y-149347592D01*
X200645180Y-149555812D01*
X200601410Y-149687122D01*
X200602811Y-149738406D01*
X200636848Y-149776791D01*
X200687597Y-149784316D01*
X200731309Y-149757461D01*
X200743712Y-149734556D01*
X200791331Y-149591700D01*
X200791286Y-149590064D01*
X200795180Y-149567982D01*
X200795180Y-149329887D01*
X200793646Y-149325673D01*
X200794688Y-149321312D01*
X200787262Y-149296346D01*
X200739643Y-149201108D01*
X200738453Y-149199982D01*
X200725594Y-149181616D01*
X200677975Y-149133997D01*
X200676493Y-149133306D01*
X200658483Y-149119948D01*
X200563245Y-149072329D01*
X200558791Y-149071816D01*
X200555356Y-149068934D01*
X200529704Y-149064411D01*
X200434466Y-149064411D01*
X200430252Y-149065944D01*
X200425891Y-149064903D01*
X200400925Y-149072329D01*
X200305687Y-149119948D01*
X200304561Y-149121137D01*
X200286195Y-149133997D01*
X200238576Y-149181616D01*
X200237885Y-149183097D01*
X200224527Y-149201108D01*
X200176908Y-149296346D01*
X200176501Y-149299874D01*
X200171229Y-149311697D01*
X200125606Y-149494187D01*
X200087113Y-149571173D01*
X200056706Y-149601581D01*
X199988190Y-149635839D01*
X199928362Y-149635839D01*
X199859846Y-149601581D01*
X199829438Y-149571173D01*
X199795180Y-149502656D01*
X199795180Y-149294439D01*
X199838951Y-149163128D01*
X199837550Y-149111844D01*
X199803513Y-149073459D01*
X199752765Y-149065933D01*
X199709052Y-149092788D01*
X199696649Y-149115693D01*
X199649029Y-149258550D01*
X199649073Y-149260185D01*
X199645180Y-149282268D01*
X199645180Y-149520363D01*
X199502323Y-149520363D01*
X199502323Y-148174006D01*
X199646319Y-148174006D01*
X199655228Y-148224530D01*
X199694528Y-148257507D01*
X199720180Y-148262030D01*
X200121371Y-148262030D01*
X200121371Y-148386075D01*
X199677170Y-148697016D01*
X199647739Y-148739037D01*
X199652202Y-148790145D01*
X199688474Y-148826427D01*
X199739581Y-148830905D01*
X199763190Y-148819900D01*
X200121716Y-148568931D01*
X200122904Y-148572195D01*
X200121863Y-148576556D01*
X200129289Y-148601523D01*
X200176908Y-148696761D01*
X200178097Y-148697886D01*
X200190957Y-148716253D01*
X200238576Y-148763872D01*
X200240057Y-148764563D01*
X200258068Y-148777921D01*
X200353306Y-148825540D01*
X200357759Y-148826052D01*
X200361195Y-148828935D01*
X200386847Y-148833458D01*
X200529704Y-148833458D01*
X200533917Y-148831924D01*
X200538278Y-148832966D01*
X200563245Y-148825540D01*
X200658483Y-148777921D01*
X200659608Y-148776731D01*
X200677975Y-148763872D01*
X200725594Y-148716253D01*
X200726285Y-148714771D01*
X200739643Y-148696761D01*
X200787262Y-148601523D01*
X200787774Y-148597069D01*
X200790657Y-148593634D01*
X200795180Y-148567982D01*
X200795180Y-148187030D01*
X200788516Y-148168721D01*
X200785132Y-148149530D01*
X200779947Y-148145179D01*
X200777633Y-148138821D01*
X200760759Y-148129078D01*
X200745832Y-148116553D01*
X200736089Y-148114835D01*
X200733204Y-148113169D01*
X200729921Y-148113747D01*
X200720180Y-148112030D01*
X199720180Y-148112030D01*
X199671971Y-148129577D01*
X199646319Y-148174006D01*
X199502323Y-148174006D01*
X199502323Y-147520363D01*
X199645180Y-147520363D01*
X199646713Y-147524576D01*
X199645672Y-147528938D01*
X199653098Y-147553905D01*
X199700718Y-147649143D01*
X199701909Y-147650270D01*
X199714767Y-147668634D01*
X199810005Y-147763872D01*
X199816712Y-147766999D01*
X199821059Y-147772990D01*
X199844848Y-147783600D01*
X200035324Y-147831219D01*
X200038772Y-147830858D01*
X200053514Y-147833458D01*
X200386847Y-147833458D01*
X200390104Y-147832272D01*
X200405037Y-147831219D01*
X200595513Y-147783600D01*
X200601646Y-147779457D01*
X200609019Y-147778812D01*
X200630356Y-147763872D01*
X200725594Y-147668634D01*
X200726284Y-147667152D01*
X200739643Y-147649142D01*
X200787262Y-147553904D01*
X200787774Y-147549450D01*
X200790657Y-147546015D01*
X200795180Y-147520363D01*
X200795180Y-147329887D01*
X200793646Y-147325673D01*
X200794688Y-147321312D01*
X200787262Y-147296346D01*
X200739643Y-147201108D01*
X200738456Y-147199984D01*
X200725594Y-147181616D01*
X200630356Y-147086378D01*
X200623648Y-147083250D01*
X200619302Y-147077260D01*
X200595513Y-147066650D01*
X200405037Y-147019031D01*
X200401588Y-147019391D01*
X200386847Y-147016792D01*
X200053514Y-147016792D01*
X200050256Y-147017977D01*
X200035324Y-147019031D01*
X199844848Y-147066650D01*
X199838715Y-147070791D01*
X199831342Y-147071437D01*
X199810005Y-147086378D01*
X199714767Y-147181616D01*
X199714075Y-147183098D01*
X199700718Y-147201107D01*
X199653098Y-147296345D01*
X199652585Y-147300799D01*
X199649703Y-147304235D01*
X199645180Y-147329887D01*
X199645180Y-147520363D01*
X199502323Y-147520363D01*
X199502323Y-146507339D01*
X199646319Y-146507339D01*
X199655228Y-146557863D01*
X199694528Y-146590840D01*
X199720180Y-146595363D01*
X200645180Y-146595363D01*
X200645180Y-146806077D01*
X200662727Y-146854286D01*
X200707156Y-146879938D01*
X200757680Y-146871029D01*
X200790657Y-146831729D01*
X200795180Y-146806077D01*
X200795180Y-146234649D01*
X200777633Y-146186440D01*
X200733204Y-146160788D01*
X200682680Y-146169697D01*
X200649703Y-146208997D01*
X200645180Y-146234649D01*
X200645180Y-146445363D01*
X199720180Y-146445363D01*
X199671971Y-146462910D01*
X199646319Y-146507339D01*
X199502323Y-146507339D01*
X199502323Y-145710839D01*
X199645180Y-145710839D01*
X199646713Y-145715052D01*
X199645672Y-145719414D01*
X199653098Y-145744381D01*
X199700718Y-145839619D01*
X199701909Y-145840746D01*
X199714767Y-145859110D01*
X199810005Y-145954348D01*
X199816712Y-145957475D01*
X199821059Y-145963466D01*
X199844848Y-145974076D01*
X200035324Y-146021695D01*
X200038772Y-146021334D01*
X200053514Y-146023934D01*
X200386847Y-146023934D01*
X200390104Y-146022748D01*
X200405037Y-146021695D01*
X200595513Y-145974076D01*
X200601646Y-145969933D01*
X200609019Y-145969288D01*
X200630356Y-145954348D01*
X200725594Y-145859110D01*
X200726284Y-145857628D01*
X200739643Y-145839618D01*
X200787262Y-145744380D01*
X200787774Y-145739926D01*
X200790657Y-145736491D01*
X200795180Y-145710839D01*
X200795180Y-145520363D01*
X200793646Y-145516149D01*
X200794688Y-145511788D01*
X200787262Y-145486822D01*
X200739643Y-145391584D01*
X200738456Y-145390460D01*
X200725594Y-145372092D01*
X200630356Y-145276854D01*
X200623648Y-145273726D01*
X200619302Y-145267736D01*
X200595513Y-145257126D01*
X200405037Y-145209507D01*
X200401588Y-145209867D01*
X200386847Y-145207268D01*
X200053514Y-145207268D01*
X200050256Y-145208453D01*
X200035324Y-145209507D01*
X199844848Y-145257126D01*
X199838715Y-145261267D01*
X199831342Y-145261913D01*
X199810005Y-145276854D01*
X199714767Y-145372092D01*
X199714075Y-145373574D01*
X199700718Y-145391583D01*
X199653098Y-145486821D01*
X199652585Y-145491275D01*
X199649703Y-145494711D01*
X199645180Y-145520363D01*
X199645180Y-145710839D01*
X199502323Y-145710839D01*
X199502323Y-144840672D01*
X199646319Y-144840672D01*
X199655228Y-144891196D01*
X199694528Y-144924173D01*
X199720180Y-144928696D01*
X200720180Y-144928696D01*
X200729592Y-144925270D01*
X200739570Y-144926146D01*
X200752994Y-144916752D01*
X200768389Y-144911149D01*
X200773396Y-144902476D01*
X200781604Y-144896733D01*
X200785849Y-144880907D01*
X200794041Y-144866720D01*
X200792301Y-144856856D01*
X200794897Y-144847182D01*
X200787977Y-144832330D01*
X200785132Y-144816196D01*
X200777459Y-144809757D01*
X200773229Y-144800679D01*
X200751897Y-144785732D01*
X200183248Y-144520363D01*
X200751897Y-144254994D01*
X200758978Y-144247908D01*
X200768389Y-144244483D01*
X200776581Y-144230294D01*
X200788162Y-144218706D01*
X200789032Y-144208729D01*
X200794041Y-144200054D01*
X200791196Y-144183920D01*
X200792620Y-144167597D01*
X200786871Y-144159392D01*
X200785132Y-144149530D01*
X200772581Y-144138999D01*
X200763180Y-144125581D01*
X200753505Y-144122991D01*
X200745832Y-144116553D01*
X200720180Y-144112030D01*
X199720180Y-144112030D01*
X199671971Y-144129577D01*
X199646319Y-144174006D01*
X199655228Y-144224530D01*
X199694528Y-144257507D01*
X199720180Y-144262030D01*
X200382113Y-144262030D01*
X199974179Y-144452399D01*
X199960421Y-144466164D01*
X199944471Y-144477326D01*
X199942711Y-144483885D01*
X199937913Y-144488687D01*
X199936222Y-144508074D01*
X199931178Y-144526878D01*
X199934045Y-144533032D01*
X199933456Y-144539796D01*
X199944624Y-144555736D01*
X199952846Y-144573380D01*
X199960980Y-144579079D01*
X199962895Y-144581812D01*
X199966107Y-144582671D01*
X199974179Y-144588327D01*
X200382113Y-144778696D01*
X199720180Y-144778696D01*
X199671971Y-144796243D01*
X199646319Y-144840672D01*
X199502323Y-144840672D01*
X199502323Y-143969173D01*
X200938037Y-143969173D01*
X200938037Y-149928696D01*
G37*
X125022493Y-121569819D02*
X125022493Y-122284104D01*
X125022493Y-122284104D02*
X124974874Y-122426961D01*
X124974874Y-122426961D02*
X124879636Y-122522200D01*
X124879636Y-122522200D02*
X124736779Y-122569819D01*
X124736779Y-122569819D02*
X124641541Y-122569819D01*
X125974874Y-122569819D02*
X125498684Y-122569819D01*
X125498684Y-122569819D02*
X125498684Y-121569819D01*
X126879636Y-122474580D02*
X126832017Y-122522200D01*
X126832017Y-122522200D02*
X126689160Y-122569819D01*
X126689160Y-122569819D02*
X126593922Y-122569819D01*
X126593922Y-122569819D02*
X126451065Y-122522200D01*
X126451065Y-122522200D02*
X126355827Y-122426961D01*
X126355827Y-122426961D02*
X126308208Y-122331723D01*
X126308208Y-122331723D02*
X126260589Y-122141247D01*
X126260589Y-122141247D02*
X126260589Y-121998390D01*
X126260589Y-121998390D02*
X126308208Y-121807914D01*
X126308208Y-121807914D02*
X126355827Y-121712676D01*
X126355827Y-121712676D02*
X126451065Y-121617438D01*
X126451065Y-121617438D02*
X126593922Y-121569819D01*
X126593922Y-121569819D02*
X126689160Y-121569819D01*
X126689160Y-121569819D02*
X126832017Y-121617438D01*
X126832017Y-121617438D02*
X126879636Y-121665057D01*
X127593922Y-121569819D02*
X127593922Y-122284104D01*
X127593922Y-122284104D02*
X127546303Y-122426961D01*
X127546303Y-122426961D02*
X127451065Y-122522200D01*
X127451065Y-122522200D02*
X127308208Y-122569819D01*
X127308208Y-122569819D02*
X127212970Y-122569819D01*
X128546303Y-122569819D02*
X128070113Y-122569819D01*
X128070113Y-122569819D02*
X128070113Y-121569819D01*
X129451065Y-122474580D02*
X129403446Y-122522200D01*
X129403446Y-122522200D02*
X129260589Y-122569819D01*
X129260589Y-122569819D02*
X129165351Y-122569819D01*
X129165351Y-122569819D02*
X129022494Y-122522200D01*
X129022494Y-122522200D02*
X128927256Y-122426961D01*
X128927256Y-122426961D02*
X128879637Y-122331723D01*
X128879637Y-122331723D02*
X128832018Y-122141247D01*
X128832018Y-122141247D02*
X128832018Y-121998390D01*
X128832018Y-121998390D02*
X128879637Y-121807914D01*
X128879637Y-121807914D02*
X128927256Y-121712676D01*
X128927256Y-121712676D02*
X129022494Y-121617438D01*
X129022494Y-121617438D02*
X129165351Y-121569819D01*
X129165351Y-121569819D02*
X129260589Y-121569819D01*
X129260589Y-121569819D02*
X129403446Y-121617438D01*
X129403446Y-121617438D02*
X129451065Y-121665057D01*
X130165351Y-121569819D02*
X130165351Y-122284104D01*
X130165351Y-122284104D02*
X130117732Y-122426961D01*
X130117732Y-122426961D02*
X130022494Y-122522200D01*
X130022494Y-122522200D02*
X129879637Y-122569819D01*
X129879637Y-122569819D02*
X129784399Y-122569819D01*
X131117732Y-122569819D02*
X130641542Y-122569819D01*
X130641542Y-122569819D02*
X130641542Y-121569819D01*
X132022494Y-122474580D02*
X131974875Y-122522200D01*
X131974875Y-122522200D02*
X131832018Y-122569819D01*
X131832018Y-122569819D02*
X131736780Y-122569819D01*
X131736780Y-122569819D02*
X131593923Y-122522200D01*
X131593923Y-122522200D02*
X131498685Y-122426961D01*
X131498685Y-122426961D02*
X131451066Y-122331723D01*
X131451066Y-122331723D02*
X131403447Y-122141247D01*
X131403447Y-122141247D02*
X131403447Y-121998390D01*
X131403447Y-121998390D02*
X131451066Y-121807914D01*
X131451066Y-121807914D02*
X131498685Y-121712676D01*
X131498685Y-121712676D02*
X131593923Y-121617438D01*
X131593923Y-121617438D02*
X131736780Y-121569819D01*
X131736780Y-121569819D02*
X131832018Y-121569819D01*
X131832018Y-121569819D02*
X131974875Y-121617438D01*
X131974875Y-121617438D02*
X132022494Y-121665057D01*
X132736780Y-121569819D02*
X132736780Y-122284104D01*
X132736780Y-122284104D02*
X132689161Y-122426961D01*
X132689161Y-122426961D02*
X132593923Y-122522200D01*
X132593923Y-122522200D02*
X132451066Y-122569819D01*
X132451066Y-122569819D02*
X132355828Y-122569819D01*
X133689161Y-122569819D02*
X133212971Y-122569819D01*
X133212971Y-122569819D02*
X133212971Y-121569819D01*
X134593923Y-122474580D02*
X134546304Y-122522200D01*
X134546304Y-122522200D02*
X134403447Y-122569819D01*
X134403447Y-122569819D02*
X134308209Y-122569819D01*
X134308209Y-122569819D02*
X134165352Y-122522200D01*
X134165352Y-122522200D02*
X134070114Y-122426961D01*
X134070114Y-122426961D02*
X134022495Y-122331723D01*
X134022495Y-122331723D02*
X133974876Y-122141247D01*
X133974876Y-122141247D02*
X133974876Y-121998390D01*
X133974876Y-121998390D02*
X134022495Y-121807914D01*
X134022495Y-121807914D02*
X134070114Y-121712676D01*
X134070114Y-121712676D02*
X134165352Y-121617438D01*
X134165352Y-121617438D02*
X134308209Y-121569819D01*
X134308209Y-121569819D02*
X134403447Y-121569819D01*
X134403447Y-121569819D02*
X134546304Y-121617438D01*
X134546304Y-121617438D02*
X134593923Y-121665057D01*
X118282017Y-114091200D02*
X118382017Y-114129295D01*
X118382017Y-114129295D02*
X118548684Y-114129295D01*
X118548684Y-114129295D02*
X118615350Y-114091200D01*
X118615350Y-114091200D02*
X118648684Y-114053104D01*
X118648684Y-114053104D02*
X118682017Y-113976914D01*
X118682017Y-113976914D02*
X118682017Y-113900723D01*
X118682017Y-113900723D02*
X118648684Y-113824533D01*
X118648684Y-113824533D02*
X118615350Y-113786438D01*
X118615350Y-113786438D02*
X118548684Y-113748342D01*
X118548684Y-113748342D02*
X118415350Y-113710247D01*
X118415350Y-113710247D02*
X118348684Y-113672152D01*
X118348684Y-113672152D02*
X118315350Y-113634057D01*
X118315350Y-113634057D02*
X118282017Y-113557866D01*
X118282017Y-113557866D02*
X118282017Y-113481676D01*
X118282017Y-113481676D02*
X118315350Y-113405485D01*
X118315350Y-113405485D02*
X118348684Y-113367390D01*
X118348684Y-113367390D02*
X118415350Y-113329295D01*
X118415350Y-113329295D02*
X118582017Y-113329295D01*
X118582017Y-113329295D02*
X118682017Y-113367390D01*
X118982017Y-114129295D02*
X118982017Y-113329295D01*
X118982017Y-113329295D02*
X119148684Y-113329295D01*
X119148684Y-113329295D02*
X119248684Y-113367390D01*
X119248684Y-113367390D02*
X119315351Y-113443580D01*
X119315351Y-113443580D02*
X119348684Y-113519771D01*
X119348684Y-113519771D02*
X119382017Y-113672152D01*
X119382017Y-113672152D02*
X119382017Y-113786438D01*
X119382017Y-113786438D02*
X119348684Y-113938819D01*
X119348684Y-113938819D02*
X119315351Y-114015009D01*
X119315351Y-114015009D02*
X119248684Y-114091200D01*
X119248684Y-114091200D02*
X119148684Y-114129295D01*
X119148684Y-114129295D02*
X118982017Y-114129295D01*
X119648684Y-113900723D02*
X119982017Y-113900723D01*
X119582017Y-114129295D02*
X119815351Y-113329295D01*
X119815351Y-113329295D02*
X120048684Y-114129295D01*
X120782017Y-114091200D02*
X120882017Y-114129295D01*
X120882017Y-114129295D02*
X121048684Y-114129295D01*
X121048684Y-114129295D02*
X121115350Y-114091200D01*
X121115350Y-114091200D02*
X121148684Y-114053104D01*
X121148684Y-114053104D02*
X121182017Y-113976914D01*
X121182017Y-113976914D02*
X121182017Y-113900723D01*
X121182017Y-113900723D02*
X121148684Y-113824533D01*
X121148684Y-113824533D02*
X121115350Y-113786438D01*
X121115350Y-113786438D02*
X121048684Y-113748342D01*
X121048684Y-113748342D02*
X120915350Y-113710247D01*
X120915350Y-113710247D02*
X120848684Y-113672152D01*
X120848684Y-113672152D02*
X120815350Y-113634057D01*
X120815350Y-113634057D02*
X120782017Y-113557866D01*
X120782017Y-113557866D02*
X120782017Y-113481676D01*
X120782017Y-113481676D02*
X120815350Y-113405485D01*
X120815350Y-113405485D02*
X120848684Y-113367390D01*
X120848684Y-113367390D02*
X120915350Y-113329295D01*
X120915350Y-113329295D02*
X121082017Y-113329295D01*
X121082017Y-113329295D02*
X121182017Y-113367390D01*
X121882017Y-114053104D02*
X121848684Y-114091200D01*
X121848684Y-114091200D02*
X121748684Y-114129295D01*
X121748684Y-114129295D02*
X121682017Y-114129295D01*
X121682017Y-114129295D02*
X121582017Y-114091200D01*
X121582017Y-114091200D02*
X121515351Y-114015009D01*
X121515351Y-114015009D02*
X121482017Y-113938819D01*
X121482017Y-113938819D02*
X121448684Y-113786438D01*
X121448684Y-113786438D02*
X121448684Y-113672152D01*
X121448684Y-113672152D02*
X121482017Y-113519771D01*
X121482017Y-113519771D02*
X121515351Y-113443580D01*
X121515351Y-113443580D02*
X121582017Y-113367390D01*
X121582017Y-113367390D02*
X121682017Y-113329295D01*
X121682017Y-113329295D02*
X121748684Y-113329295D01*
X121748684Y-113329295D02*
X121848684Y-113367390D01*
X121848684Y-113367390D02*
X121882017Y-113405485D01*
X122515351Y-114129295D02*
X122182017Y-114129295D01*
X122182017Y-114129295D02*
X122182017Y-113329295D01*
G36*
X146097669Y-110243990D02*
G01*
X144902329Y-110243990D01*
X144902329Y-110013109D01*
X145045186Y-110013109D01*
X145054095Y-110063633D01*
X145093395Y-110096610D01*
X145119047Y-110101133D01*
X145880951Y-110101133D01*
X145929160Y-110083586D01*
X145954812Y-110039157D01*
X145945903Y-109988633D01*
X145906603Y-109955656D01*
X145880951Y-109951133D01*
X145119047Y-109951133D01*
X145070838Y-109968680D01*
X145045186Y-110013109D01*
X144902329Y-110013109D01*
X144902329Y-109808276D01*
X146097669Y-109808276D01*
X146097669Y-110243990D01*
G37*
X110026133Y-135319048D02*
X110026133Y-136080953D01*
X109645180Y-135700000D02*
X110407085Y-135700000D01*
G36*
X159702431Y-110762882D02*
G01*
X158697567Y-110762882D01*
X158697567Y-109532156D01*
X158840424Y-109532156D01*
X158849333Y-109582680D01*
X158888633Y-109615657D01*
X158914285Y-109620180D01*
X159124999Y-109620180D01*
X159124999Y-110545180D01*
X159126474Y-110549233D01*
X159125454Y-110553423D01*
X159135101Y-110572935D01*
X159142546Y-110593389D01*
X159146280Y-110595544D01*
X159148192Y-110599412D01*
X159168126Y-110608158D01*
X159186975Y-110619041D01*
X159191222Y-110618292D01*
X159195172Y-110620025D01*
X159216063Y-110613911D01*
X159237499Y-110610132D01*
X159240271Y-110606828D01*
X159244410Y-110605617D01*
X159262403Y-110586783D01*
X159353521Y-110450104D01*
X159434901Y-110368724D01*
X159519254Y-110326548D01*
X159554526Y-110289294D01*
X159557601Y-110238084D01*
X159527037Y-110196878D01*
X159477138Y-110184958D01*
X159452172Y-110192384D01*
X159356934Y-110240003D01*
X159355810Y-110241189D01*
X159337442Y-110254052D01*
X159274999Y-110316495D01*
X159274999Y-109620180D01*
X159485713Y-109620180D01*
X159533922Y-109602633D01*
X159559574Y-109558204D01*
X159550665Y-109507680D01*
X159511365Y-109474703D01*
X159485713Y-109470180D01*
X158914285Y-109470180D01*
X158866076Y-109487727D01*
X158840424Y-109532156D01*
X158697567Y-109532156D01*
X158697567Y-109327323D01*
X159702431Y-109327323D01*
X159702431Y-110762882D01*
G37*
G36*
X147262882Y-148927557D02*
G01*
X145827323Y-148927557D01*
X145827323Y-148710839D01*
X145970180Y-148710839D01*
X145987727Y-148759048D01*
X146032156Y-148784700D01*
X146082680Y-148775791D01*
X146115657Y-148736491D01*
X146120180Y-148710839D01*
X146120180Y-148500125D01*
X147045180Y-148500125D01*
X147049233Y-148498649D01*
X147053423Y-148499670D01*
X147072935Y-148490022D01*
X147093389Y-148482578D01*
X147095544Y-148478843D01*
X147099412Y-148476932D01*
X147108158Y-148456997D01*
X147119041Y-148438149D01*
X147118292Y-148433901D01*
X147120025Y-148429952D01*
X147113911Y-148409057D01*
X147110132Y-148387625D01*
X147106829Y-148384853D01*
X147105618Y-148380714D01*
X147086783Y-148362721D01*
X146950103Y-148271601D01*
X146868724Y-148190222D01*
X146826548Y-148105870D01*
X146789294Y-148070598D01*
X146738083Y-148067523D01*
X146696878Y-148098087D01*
X146684958Y-148147985D01*
X146692384Y-148172952D01*
X146740003Y-148268190D01*
X146741192Y-148269315D01*
X146754052Y-148287682D01*
X146816495Y-148350125D01*
X146120180Y-148350125D01*
X146120180Y-148139411D01*
X146102633Y-148091202D01*
X146058204Y-148065550D01*
X146007680Y-148074459D01*
X145974703Y-148113759D01*
X145970180Y-148139411D01*
X145970180Y-148710839D01*
X145827323Y-148710839D01*
X145827323Y-147922693D01*
X147262882Y-147922693D01*
X147262882Y-148927557D01*
G37*
G36*
X175916717Y-110863037D02*
G01*
X169483281Y-110863037D01*
X169483281Y-110013109D01*
X169626138Y-110013109D01*
X169635047Y-110063633D01*
X169674347Y-110096610D01*
X169699999Y-110101133D01*
X170461903Y-110101133D01*
X170510112Y-110083586D01*
X170515790Y-110073752D01*
X172339285Y-110073752D01*
X172340818Y-110077965D01*
X172339777Y-110082326D01*
X172347203Y-110107293D01*
X172394822Y-110202531D01*
X172396011Y-110203656D01*
X172408871Y-110222023D01*
X172456490Y-110269642D01*
X172457971Y-110270333D01*
X172475982Y-110283691D01*
X172571220Y-110331310D01*
X172575673Y-110331822D01*
X172579109Y-110334705D01*
X172585332Y-110335802D01*
X172357842Y-110595792D01*
X172350535Y-110614643D01*
X172340424Y-110632156D01*
X172341463Y-110638049D01*
X172339301Y-110643628D01*
X172345821Y-110662767D01*
X172349333Y-110682680D01*
X172353916Y-110686525D01*
X172355846Y-110692190D01*
X172373144Y-110702660D01*
X172388633Y-110715657D01*
X172397076Y-110717145D01*
X172399735Y-110718755D01*
X172403176Y-110718221D01*
X172414285Y-110720180D01*
X173033332Y-110720180D01*
X173081541Y-110702633D01*
X173107193Y-110658204D01*
X173098284Y-110607680D01*
X173058984Y-110574703D01*
X173033332Y-110570180D01*
X172579568Y-110570180D01*
X172804061Y-110313616D01*
X172811367Y-110294764D01*
X172821479Y-110277252D01*
X172820439Y-110271358D01*
X172822602Y-110265780D01*
X172816081Y-110246640D01*
X172812570Y-110226728D01*
X172807986Y-110222882D01*
X172806057Y-110217218D01*
X172788758Y-110206747D01*
X172773270Y-110193751D01*
X172764826Y-110192262D01*
X172762168Y-110190653D01*
X172758726Y-110191186D01*
X172747618Y-110189228D01*
X172622466Y-110189228D01*
X172553950Y-110154970D01*
X172523543Y-110124563D01*
X172489285Y-110056047D01*
X172489285Y-110013109D01*
X174864234Y-110013109D01*
X174873143Y-110063633D01*
X174912443Y-110096610D01*
X174938095Y-110101133D01*
X175244047Y-110101133D01*
X175244047Y-110407085D01*
X175261594Y-110455294D01*
X175306023Y-110480946D01*
X175356547Y-110472037D01*
X175389524Y-110432737D01*
X175394047Y-110407085D01*
X175394047Y-110101133D01*
X175699999Y-110101133D01*
X175748208Y-110083586D01*
X175773860Y-110039157D01*
X175764951Y-109988633D01*
X175725651Y-109955656D01*
X175699999Y-109951133D01*
X175394047Y-109951133D01*
X175394047Y-109645180D01*
X175376500Y-109596971D01*
X175332071Y-109571319D01*
X175281547Y-109580228D01*
X175248570Y-109619528D01*
X175244047Y-109645180D01*
X175244047Y-109951133D01*
X174938095Y-109951133D01*
X174889886Y-109968680D01*
X174864234Y-110013109D01*
X172489285Y-110013109D01*
X172489285Y-109853361D01*
X172523542Y-109784846D01*
X172553949Y-109754439D01*
X172622467Y-109720180D01*
X172872769Y-109720180D01*
X172941285Y-109754438D01*
X172980299Y-109793452D01*
X173026795Y-109815133D01*
X173076350Y-109801856D01*
X173105776Y-109759830D01*
X173101305Y-109708723D01*
X173086365Y-109687386D01*
X173038746Y-109639767D01*
X173037263Y-109639075D01*
X173019255Y-109625718D01*
X172924017Y-109578098D01*
X172919562Y-109577585D01*
X172916127Y-109574703D01*
X172890475Y-109570180D01*
X172604761Y-109570180D01*
X172600547Y-109571713D01*
X172596186Y-109570672D01*
X172571220Y-109578098D01*
X172475981Y-109625718D01*
X172474853Y-109626909D01*
X172456490Y-109639767D01*
X172408871Y-109687386D01*
X172408180Y-109688867D01*
X172394822Y-109706878D01*
X172347203Y-109802116D01*
X172346690Y-109806569D01*
X172343808Y-109810005D01*
X172339285Y-109835657D01*
X172339285Y-110073752D01*
X170515790Y-110073752D01*
X170535764Y-110039157D01*
X170526855Y-109988633D01*
X170487555Y-109955656D01*
X170461903Y-109951133D01*
X169699999Y-109951133D01*
X169651790Y-109968680D01*
X169626138Y-110013109D01*
X169483281Y-110013109D01*
X169483281Y-109427323D01*
X175916717Y-109427323D01*
X175916717Y-110863037D01*
G37*
G36*
X198316717Y-110862882D02*
G01*
X191883281Y-110862882D01*
X191883281Y-110013109D01*
X192026138Y-110013109D01*
X192035047Y-110063633D01*
X192074347Y-110096610D01*
X192099999Y-110101133D01*
X192861903Y-110101133D01*
X192910112Y-110083586D01*
X192935764Y-110039157D01*
X192926855Y-109988633D01*
X192887555Y-109955656D01*
X192861903Y-109951133D01*
X192099999Y-109951133D01*
X192051790Y-109968680D01*
X192026138Y-110013109D01*
X191883281Y-110013109D01*
X191883281Y-109632156D01*
X194740424Y-109632156D01*
X194749333Y-109682680D01*
X194788633Y-109715657D01*
X194814285Y-109720180D01*
X195024999Y-109720180D01*
X195024999Y-110645180D01*
X195026474Y-110649233D01*
X195025454Y-110653423D01*
X195035101Y-110672935D01*
X195042546Y-110693389D01*
X195046280Y-110695544D01*
X195048192Y-110699412D01*
X195068126Y-110708158D01*
X195086975Y-110719041D01*
X195091222Y-110718292D01*
X195095172Y-110720025D01*
X195116063Y-110713911D01*
X195137499Y-110710132D01*
X195140271Y-110706828D01*
X195144410Y-110705617D01*
X195162403Y-110686783D01*
X195253521Y-110550104D01*
X195334901Y-110468724D01*
X195419254Y-110426548D01*
X195454526Y-110389294D01*
X195457601Y-110338084D01*
X195427037Y-110296878D01*
X195377138Y-110284958D01*
X195352172Y-110292384D01*
X195256934Y-110340003D01*
X195255810Y-110341189D01*
X195237442Y-110354052D01*
X195174998Y-110416495D01*
X195174999Y-110013109D01*
X197264234Y-110013109D01*
X197273143Y-110063633D01*
X197312443Y-110096610D01*
X197338095Y-110101133D01*
X197644047Y-110101133D01*
X197644047Y-110407085D01*
X197661594Y-110455294D01*
X197706023Y-110480946D01*
X197756547Y-110472037D01*
X197789524Y-110432737D01*
X197794047Y-110407085D01*
X197794047Y-110101133D01*
X198099999Y-110101133D01*
X198148208Y-110083586D01*
X198173860Y-110039157D01*
X198164951Y-109988633D01*
X198125651Y-109955656D01*
X198099999Y-109951133D01*
X197794047Y-109951133D01*
X197794047Y-109645180D01*
X197776500Y-109596971D01*
X197732071Y-109571319D01*
X197681547Y-109580228D01*
X197648570Y-109619528D01*
X197644047Y-109645180D01*
X197644047Y-109951133D01*
X197338095Y-109951133D01*
X197289886Y-109968680D01*
X197264234Y-110013109D01*
X195174999Y-110013109D01*
X195174999Y-109720180D01*
X195385713Y-109720180D01*
X195433922Y-109702633D01*
X195459574Y-109658204D01*
X195450665Y-109607680D01*
X195411365Y-109574703D01*
X195385713Y-109570180D01*
X194814285Y-109570180D01*
X194766076Y-109587727D01*
X194740424Y-109632156D01*
X191883281Y-109632156D01*
X191883281Y-109427323D01*
X198316717Y-109427323D01*
X198316717Y-110862882D01*
G37*
G36*
X109593990Y-117198669D02*
G01*
X109555819Y-117313182D01*
X109529324Y-117339676D01*
X109460809Y-117373934D01*
X109353362Y-117373934D01*
X109284846Y-117339676D01*
X109254438Y-117309268D01*
X109220180Y-117240751D01*
X109220180Y-116952506D01*
X109593990Y-116952506D01*
X109593990Y-117198669D01*
G37*
G36*
X110070180Y-117193134D02*
G01*
X110035921Y-117261650D01*
X110005515Y-117292056D01*
X109936999Y-117326315D01*
X109877171Y-117326315D01*
X109808655Y-117292057D01*
X109778248Y-117261650D01*
X109743990Y-117193134D01*
X109743990Y-116952506D01*
X110070180Y-116952506D01*
X110070180Y-117193134D01*
G37*
G36*
X110363037Y-119428410D02*
G01*
X108927323Y-119428410D01*
X108927323Y-119020363D01*
X109070180Y-119020363D01*
X109070739Y-119021900D01*
X109074029Y-119044081D01*
X109121649Y-119186938D01*
X109124436Y-119190450D01*
X109124827Y-119194916D01*
X109139767Y-119216253D01*
X109187386Y-119263872D01*
X109233882Y-119285553D01*
X109283437Y-119272276D01*
X109312863Y-119230250D01*
X109308392Y-119179143D01*
X109293452Y-119157806D01*
X109258351Y-119122705D01*
X109220180Y-119008191D01*
X109220180Y-118937296D01*
X109258351Y-118822782D01*
X109332464Y-118748669D01*
X109409452Y-118710175D01*
X109582986Y-118666792D01*
X109707375Y-118666792D01*
X109880908Y-118710175D01*
X109957896Y-118748669D01*
X110032008Y-118822782D01*
X110070180Y-118937295D01*
X110070180Y-119008192D01*
X110032008Y-119122705D01*
X109996909Y-119157806D01*
X109975228Y-119204303D01*
X109988505Y-119253857D01*
X110030531Y-119283284D01*
X110081638Y-119278812D01*
X110102975Y-119263872D01*
X110150594Y-119216253D01*
X110152489Y-119212188D01*
X110156309Y-119209842D01*
X110168712Y-119186937D01*
X110216331Y-119044081D01*
X110216286Y-119042445D01*
X110220180Y-119020363D01*
X110220180Y-118925125D01*
X110219620Y-118923587D01*
X110216331Y-118901407D01*
X110168712Y-118758551D01*
X110165925Y-118755040D01*
X110165535Y-118750572D01*
X110150594Y-118729235D01*
X110055356Y-118633997D01*
X110053874Y-118633306D01*
X110035864Y-118619948D01*
X109940626Y-118572329D01*
X109937097Y-118571922D01*
X109925275Y-118566650D01*
X109734799Y-118519031D01*
X109731350Y-118519391D01*
X109716609Y-118516792D01*
X109573752Y-118516792D01*
X109570494Y-118517977D01*
X109555562Y-118519031D01*
X109365086Y-118566650D01*
X109362141Y-118568638D01*
X109349735Y-118572329D01*
X109254497Y-118619948D01*
X109253373Y-118621134D01*
X109235005Y-118633997D01*
X109139767Y-118729235D01*
X109137872Y-118733297D01*
X109134052Y-118735645D01*
X109121649Y-118758550D01*
X109074029Y-118901407D01*
X109074073Y-118903042D01*
X109070180Y-118925125D01*
X109070180Y-119020363D01*
X108927323Y-119020363D01*
X108927323Y-117258458D01*
X109070180Y-117258458D01*
X109071713Y-117262671D01*
X109070672Y-117267033D01*
X109078098Y-117292000D01*
X109125718Y-117387238D01*
X109126909Y-117388365D01*
X109139767Y-117406729D01*
X109187386Y-117454348D01*
X109188867Y-117455039D01*
X109206878Y-117468397D01*
X109302116Y-117516016D01*
X109306569Y-117516528D01*
X109310005Y-117519411D01*
X109335657Y-117523934D01*
X109478514Y-117523934D01*
X109482727Y-117522400D01*
X109487088Y-117523442D01*
X109512055Y-117516016D01*
X109607293Y-117468397D01*
X109608418Y-117467207D01*
X109626785Y-117454348D01*
X109674404Y-117406729D01*
X109676299Y-117402664D01*
X109680119Y-117400318D01*
X109688783Y-117384317D01*
X109711195Y-117406729D01*
X109712676Y-117407420D01*
X109730687Y-117420778D01*
X109825925Y-117468397D01*
X109830378Y-117468909D01*
X109833814Y-117471792D01*
X109859466Y-117476315D01*
X109954704Y-117476315D01*
X109958917Y-117474781D01*
X109963278Y-117475823D01*
X109988245Y-117468397D01*
X110083483Y-117420778D01*
X110084608Y-117419588D01*
X110102975Y-117406729D01*
X110150594Y-117359110D01*
X110151285Y-117357628D01*
X110164643Y-117339618D01*
X110212262Y-117244380D01*
X110212774Y-117239926D01*
X110215657Y-117236491D01*
X110220180Y-117210839D01*
X110220180Y-116877506D01*
X110213516Y-116859197D01*
X110210132Y-116840006D01*
X110204947Y-116835655D01*
X110202633Y-116829297D01*
X110185759Y-116819554D01*
X110170832Y-116807029D01*
X110161089Y-116805311D01*
X110158204Y-116803645D01*
X110154921Y-116804223D01*
X110145180Y-116802506D01*
X109145180Y-116802506D01*
X109126871Y-116809169D01*
X109107680Y-116812554D01*
X109103329Y-116817738D01*
X109096971Y-116820053D01*
X109087228Y-116836926D01*
X109074703Y-116851854D01*
X109072985Y-116861596D01*
X109071319Y-116864482D01*
X109071897Y-116867764D01*
X109070180Y-116877506D01*
X109070180Y-117258458D01*
X108927323Y-117258458D01*
X108927323Y-116258458D01*
X109070180Y-116258458D01*
X109071713Y-116262671D01*
X109070672Y-116267033D01*
X109078098Y-116292000D01*
X109125718Y-116387238D01*
X109126909Y-116388365D01*
X109139767Y-116406729D01*
X109187386Y-116454348D01*
X109188867Y-116455039D01*
X109206878Y-116468397D01*
X109302116Y-116516016D01*
X109306569Y-116516528D01*
X109310005Y-116519411D01*
X109335657Y-116523934D01*
X109430895Y-116523934D01*
X109435108Y-116522400D01*
X109439469Y-116523442D01*
X109464436Y-116516016D01*
X109559674Y-116468397D01*
X109560799Y-116467207D01*
X109579166Y-116454348D01*
X109626785Y-116406729D01*
X109627476Y-116405247D01*
X109640834Y-116387237D01*
X109688453Y-116291999D01*
X109688859Y-116288470D01*
X109694132Y-116276648D01*
X109739754Y-116094157D01*
X109778247Y-116017171D01*
X109808655Y-115986764D01*
X109877171Y-115952506D01*
X109936999Y-115952506D01*
X110005515Y-115986764D01*
X110035922Y-116017171D01*
X110070180Y-116085687D01*
X110070180Y-116293906D01*
X110026410Y-116425217D01*
X110027811Y-116476501D01*
X110061848Y-116514886D01*
X110112597Y-116522411D01*
X110156309Y-116495556D01*
X110168712Y-116472651D01*
X110216331Y-116329795D01*
X110216286Y-116328159D01*
X110220180Y-116306077D01*
X110220180Y-116067982D01*
X110218646Y-116063768D01*
X110219688Y-116059407D01*
X110212262Y-116034441D01*
X110164643Y-115939203D01*
X110163453Y-115938077D01*
X110150594Y-115919711D01*
X110102975Y-115872092D01*
X110101493Y-115871401D01*
X110083483Y-115858043D01*
X109988245Y-115810424D01*
X109983791Y-115809911D01*
X109980356Y-115807029D01*
X109954704Y-115802506D01*
X109859466Y-115802506D01*
X109855252Y-115804039D01*
X109850891Y-115802998D01*
X109825925Y-115810424D01*
X109730687Y-115858043D01*
X109729561Y-115859232D01*
X109711195Y-115872092D01*
X109663576Y-115919711D01*
X109662885Y-115921192D01*
X109649527Y-115939203D01*
X109601908Y-116034441D01*
X109601501Y-116037969D01*
X109596229Y-116049792D01*
X109550606Y-116232281D01*
X109512112Y-116309269D01*
X109481706Y-116339675D01*
X109413190Y-116373934D01*
X109353362Y-116373934D01*
X109284846Y-116339676D01*
X109254438Y-116309268D01*
X109220180Y-116240751D01*
X109220180Y-116032534D01*
X109263951Y-115901223D01*
X109262550Y-115849939D01*
X109228513Y-115811554D01*
X109177765Y-115804028D01*
X109134052Y-115830883D01*
X109121649Y-115853788D01*
X109074029Y-115996645D01*
X109074073Y-115998280D01*
X109070180Y-116020363D01*
X109070180Y-116258458D01*
X108927323Y-116258458D01*
X108927323Y-115258458D01*
X109070180Y-115258458D01*
X109071713Y-115262671D01*
X109070672Y-115267033D01*
X109078098Y-115292000D01*
X109125718Y-115387238D01*
X109126909Y-115388365D01*
X109139767Y-115406729D01*
X109187386Y-115454348D01*
X109188867Y-115455039D01*
X109206878Y-115468397D01*
X109302116Y-115516016D01*
X109306569Y-115516528D01*
X109310005Y-115519411D01*
X109335657Y-115523934D01*
X110145180Y-115523934D01*
X110193389Y-115506387D01*
X110219041Y-115461958D01*
X110210132Y-115411434D01*
X110170832Y-115378457D01*
X110145180Y-115373934D01*
X109353362Y-115373934D01*
X109284846Y-115339676D01*
X109254438Y-115309268D01*
X109220180Y-115240751D01*
X109220180Y-115085688D01*
X109254438Y-115017171D01*
X109284846Y-114986763D01*
X109353362Y-114952506D01*
X110145180Y-114952506D01*
X110193389Y-114934959D01*
X110219041Y-114890530D01*
X110210132Y-114840006D01*
X110170832Y-114807029D01*
X110145180Y-114802506D01*
X109335657Y-114802506D01*
X109331443Y-114804039D01*
X109327082Y-114802998D01*
X109302116Y-114810424D01*
X109206878Y-114858043D01*
X109205752Y-114859232D01*
X109187386Y-114872092D01*
X109139767Y-114919711D01*
X109139075Y-114921193D01*
X109125718Y-114939202D01*
X109078098Y-115034440D01*
X109077585Y-115038894D01*
X109074703Y-115042330D01*
X109070180Y-115067982D01*
X109070180Y-115258458D01*
X108927323Y-115258458D01*
X108927323Y-114659649D01*
X110363037Y-114659649D01*
X110363037Y-119428410D01*
G37*
X140208207Y-108659819D02*
X139874874Y-108183628D01*
X139636779Y-108659819D02*
X139636779Y-107659819D01*
X139636779Y-107659819D02*
X140017731Y-107659819D01*
X140017731Y-107659819D02*
X140112969Y-107707438D01*
X140112969Y-107707438D02*
X140160588Y-107755057D01*
X140160588Y-107755057D02*
X140208207Y-107850295D01*
X140208207Y-107850295D02*
X140208207Y-107993152D01*
X140208207Y-107993152D02*
X140160588Y-108088390D01*
X140160588Y-108088390D02*
X140112969Y-108136009D01*
X140112969Y-108136009D02*
X140017731Y-108183628D01*
X140017731Y-108183628D02*
X139636779Y-108183628D01*
X140541541Y-107659819D02*
X141208207Y-108659819D01*
X141208207Y-107659819D02*
X140541541Y-108659819D01*
X139493922Y-109269819D02*
X140065350Y-109269819D01*
X139779636Y-110269819D02*
X139779636Y-109269819D01*
X140303446Y-109269819D02*
X140970112Y-110269819D01*
X140970112Y-109269819D02*
X140303446Y-110269819D01*
G36*
X167754814Y-140472676D02*
G01*
X162845187Y-140472676D01*
X162845187Y-139860842D01*
X162988044Y-139860842D01*
X162996953Y-139911366D01*
X163036253Y-139944343D01*
X163061905Y-139948866D01*
X163367857Y-139948866D01*
X163367857Y-140254819D01*
X163385404Y-140303028D01*
X163429833Y-140328680D01*
X163480357Y-140319771D01*
X163513334Y-140280471D01*
X163517857Y-140254819D01*
X163517857Y-140248283D01*
X164891953Y-140248283D01*
X164897794Y-140270085D01*
X164901715Y-140292319D01*
X164904342Y-140294523D01*
X164905230Y-140297837D01*
X164923721Y-140310785D01*
X164941015Y-140325296D01*
X164945599Y-140326104D01*
X164947256Y-140327264D01*
X164950544Y-140326976D01*
X164966667Y-140329819D01*
X165585714Y-140329819D01*
X165633923Y-140312272D01*
X165659575Y-140267843D01*
X165650666Y-140217319D01*
X165611366Y-140184342D01*
X165585714Y-140179819D01*
X165147733Y-140179819D01*
X165466709Y-139860842D01*
X166702330Y-139860842D01*
X166711239Y-139911366D01*
X166750539Y-139944343D01*
X166776191Y-139948866D01*
X167538096Y-139948866D01*
X167586305Y-139931319D01*
X167611957Y-139886890D01*
X167603048Y-139836366D01*
X167563748Y-139803389D01*
X167538096Y-139798866D01*
X166776191Y-139798866D01*
X166727982Y-139816413D01*
X166702330Y-139860842D01*
X165466709Y-139860842D01*
X165591128Y-139736423D01*
X165593023Y-139732358D01*
X165596843Y-139730012D01*
X165609246Y-139707107D01*
X165656865Y-139564251D01*
X165656820Y-139562615D01*
X165660714Y-139540533D01*
X165660714Y-139445295D01*
X165659180Y-139441081D01*
X165660222Y-139436720D01*
X165652796Y-139411754D01*
X165605177Y-139316516D01*
X165603987Y-139315390D01*
X165591128Y-139297024D01*
X165543509Y-139249405D01*
X165542027Y-139248714D01*
X165524017Y-139235356D01*
X165428779Y-139187737D01*
X165424325Y-139187224D01*
X165420890Y-139184342D01*
X165395238Y-139179819D01*
X165157143Y-139179819D01*
X165152929Y-139181352D01*
X165148568Y-139180311D01*
X165123602Y-139187737D01*
X165028364Y-139235356D01*
X165027238Y-139236545D01*
X165008872Y-139249405D01*
X164961253Y-139297024D01*
X164939572Y-139343521D01*
X164952849Y-139393075D01*
X164994875Y-139422502D01*
X165045982Y-139418030D01*
X165067319Y-139403090D01*
X165106332Y-139364076D01*
X165174848Y-139329819D01*
X165377533Y-139329819D01*
X165446048Y-139364077D01*
X165476456Y-139394484D01*
X165510714Y-139463000D01*
X165510714Y-139528363D01*
X165472542Y-139642876D01*
X164913634Y-140201786D01*
X164904096Y-140222239D01*
X164892806Y-140241795D01*
X164893402Y-140245175D01*
X164891953Y-140248283D01*
X163517857Y-140248283D01*
X163517857Y-139948866D01*
X163823810Y-139948866D01*
X163872019Y-139931319D01*
X163897671Y-139886890D01*
X163888762Y-139836366D01*
X163849462Y-139803389D01*
X163823810Y-139798866D01*
X163517857Y-139798866D01*
X163517857Y-139492914D01*
X163500310Y-139444705D01*
X163455881Y-139419053D01*
X163405357Y-139427962D01*
X163372380Y-139467262D01*
X163367857Y-139492914D01*
X163367857Y-139798866D01*
X163061905Y-139798866D01*
X163013696Y-139816413D01*
X162988044Y-139860842D01*
X162845187Y-139860842D01*
X162845187Y-139036962D01*
X167754814Y-139036962D01*
X167754814Y-140472676D01*
G37*
G36*
X110208009Y-139248934D02*
G01*
X109805895Y-139382972D01*
X109805895Y-139114895D01*
X110208009Y-139248934D01*
G37*
G36*
X109893990Y-138379621D02*
G01*
X109855819Y-138494133D01*
X109829324Y-138520628D01*
X109760809Y-138554886D01*
X109653362Y-138554886D01*
X109584846Y-138520628D01*
X109554438Y-138490220D01*
X109520180Y-138421703D01*
X109520180Y-138133458D01*
X109893990Y-138133458D01*
X109893990Y-138379621D01*
G37*
G36*
X110370179Y-138374086D02*
G01*
X110335921Y-138442602D01*
X110305515Y-138473008D01*
X110236999Y-138507267D01*
X110177171Y-138507267D01*
X110108655Y-138473009D01*
X110078248Y-138442602D01*
X110043990Y-138374086D01*
X110043990Y-138133458D01*
X110370180Y-138133458D01*
X110370179Y-138374086D01*
G37*
G36*
X110663037Y-141322795D02*
G01*
X109227323Y-141322795D01*
X109227323Y-140807339D01*
X109371319Y-140807339D01*
X109380228Y-140857863D01*
X109419528Y-140890840D01*
X109445180Y-140895363D01*
X110370180Y-140895363D01*
X110370180Y-141106077D01*
X110387727Y-141154286D01*
X110432156Y-141179938D01*
X110482680Y-141171029D01*
X110515657Y-141131729D01*
X110520180Y-141106077D01*
X110520180Y-140534649D01*
X110502633Y-140486440D01*
X110458204Y-140460788D01*
X110407680Y-140469697D01*
X110374703Y-140508997D01*
X110370180Y-140534649D01*
X110370180Y-140745363D01*
X109445180Y-140745363D01*
X109396971Y-140762910D01*
X109371319Y-140807339D01*
X109227323Y-140807339D01*
X109227323Y-140045434D01*
X109371319Y-140045434D01*
X109380228Y-140095958D01*
X109419528Y-140128935D01*
X109445180Y-140133458D01*
X110370180Y-140133458D01*
X110370180Y-140344172D01*
X110387727Y-140392381D01*
X110432156Y-140418033D01*
X110482680Y-140409124D01*
X110515657Y-140369824D01*
X110520180Y-140344172D01*
X110520180Y-139772744D01*
X110502633Y-139724535D01*
X110458204Y-139698883D01*
X110407680Y-139707792D01*
X110374703Y-139747092D01*
X110370180Y-139772744D01*
X110370180Y-139983458D01*
X109445180Y-139983458D01*
X109396971Y-140001005D01*
X109371319Y-140045434D01*
X109227323Y-140045434D01*
X109227323Y-139593268D01*
X109370991Y-139593268D01*
X109395420Y-139638382D01*
X109443131Y-139657239D01*
X109468897Y-139653418D01*
X110468897Y-139320085D01*
X110470588Y-139318742D01*
X110472746Y-139318684D01*
X110490498Y-139302942D01*
X110509083Y-139288194D01*
X110509515Y-139286079D01*
X110511132Y-139284646D01*
X110514611Y-139261177D01*
X110519369Y-139237933D01*
X110518340Y-139236033D01*
X110518657Y-139233898D01*
X110506236Y-139213680D01*
X110494940Y-139192819D01*
X110492932Y-139192025D01*
X110491802Y-139190185D01*
X110468897Y-139177783D01*
X109468897Y-138844450D01*
X109417613Y-138845851D01*
X109379228Y-138879888D01*
X109371703Y-138930637D01*
X109398558Y-138974349D01*
X109421463Y-138986752D01*
X109655895Y-139064895D01*
X109655895Y-139432972D01*
X109421463Y-139511116D01*
X109381277Y-139543007D01*
X109370991Y-139593268D01*
X109227323Y-139593268D01*
X109227323Y-138439410D01*
X109370180Y-138439410D01*
X109371713Y-138443623D01*
X109370672Y-138447985D01*
X109378098Y-138472952D01*
X109425718Y-138568190D01*
X109426909Y-138569317D01*
X109439767Y-138587681D01*
X109487386Y-138635300D01*
X109488867Y-138635991D01*
X109506878Y-138649349D01*
X109602116Y-138696968D01*
X109606569Y-138697480D01*
X109610005Y-138700363D01*
X109635657Y-138704886D01*
X109778514Y-138704886D01*
X109782727Y-138703352D01*
X109787088Y-138704394D01*
X109812055Y-138696968D01*
X109907293Y-138649349D01*
X109908418Y-138648159D01*
X109926785Y-138635300D01*
X109974404Y-138587681D01*
X109976299Y-138583616D01*
X109980119Y-138581270D01*
X109988783Y-138565269D01*
X110011195Y-138587681D01*
X110012676Y-138588372D01*
X110030687Y-138601730D01*
X110125925Y-138649349D01*
X110130378Y-138649861D01*
X110133814Y-138652744D01*
X110159466Y-138657267D01*
X110254704Y-138657267D01*
X110258917Y-138655733D01*
X110263278Y-138656775D01*
X110288245Y-138649349D01*
X110383483Y-138601730D01*
X110384608Y-138600540D01*
X110402975Y-138587681D01*
X110450594Y-138540062D01*
X110451285Y-138538580D01*
X110464643Y-138520570D01*
X110512262Y-138425332D01*
X110512774Y-138420878D01*
X110515657Y-138417443D01*
X110520180Y-138391791D01*
X110520180Y-138058458D01*
X110513516Y-138040149D01*
X110510132Y-138020958D01*
X110504947Y-138016607D01*
X110502633Y-138010249D01*
X110485759Y-138000506D01*
X110470832Y-137987981D01*
X110461089Y-137986263D01*
X110458204Y-137984597D01*
X110454921Y-137985175D01*
X110445180Y-137983458D01*
X109445180Y-137983458D01*
X109426871Y-137990121D01*
X109407680Y-137993506D01*
X109403329Y-137998690D01*
X109396971Y-138001005D01*
X109387228Y-138017878D01*
X109374703Y-138032806D01*
X109372985Y-138042548D01*
X109371319Y-138045434D01*
X109371897Y-138048716D01*
X109370180Y-138058458D01*
X109370180Y-138439410D01*
X109227323Y-138439410D01*
X109227323Y-137840601D01*
X110663037Y-137840601D01*
X110663037Y-141322795D01*
G37*
D11*
X122952380Y-106852219D02*
X122619047Y-106376028D01*
X122380952Y-106852219D02*
X122380952Y-105852219D01*
X122380952Y-105852219D02*
X122761904Y-105852219D01*
X122761904Y-105852219D02*
X122857142Y-105899838D01*
X122857142Y-105899838D02*
X122904761Y-105947457D01*
X122904761Y-105947457D02*
X122952380Y-106042695D01*
X122952380Y-106042695D02*
X122952380Y-106185552D01*
X122952380Y-106185552D02*
X122904761Y-106280790D01*
X122904761Y-106280790D02*
X122857142Y-106328409D01*
X122857142Y-106328409D02*
X122761904Y-106376028D01*
X122761904Y-106376028D02*
X122380952Y-106376028D01*
X123333333Y-106804600D02*
X123476190Y-106852219D01*
X123476190Y-106852219D02*
X123714285Y-106852219D01*
X123714285Y-106852219D02*
X123809523Y-106804600D01*
X123809523Y-106804600D02*
X123857142Y-106756980D01*
X123857142Y-106756980D02*
X123904761Y-106661742D01*
X123904761Y-106661742D02*
X123904761Y-106566504D01*
X123904761Y-106566504D02*
X123857142Y-106471266D01*
X123857142Y-106471266D02*
X123809523Y-106423647D01*
X123809523Y-106423647D02*
X123714285Y-106376028D01*
X123714285Y-106376028D02*
X123523809Y-106328409D01*
X123523809Y-106328409D02*
X123428571Y-106280790D01*
X123428571Y-106280790D02*
X123380952Y-106233171D01*
X123380952Y-106233171D02*
X123333333Y-106137933D01*
X123333333Y-106137933D02*
X123333333Y-106042695D01*
X123333333Y-106042695D02*
X123380952Y-105947457D01*
X123380952Y-105947457D02*
X123428571Y-105899838D01*
X123428571Y-105899838D02*
X123523809Y-105852219D01*
X123523809Y-105852219D02*
X123761904Y-105852219D01*
X123761904Y-105852219D02*
X123904761Y-105899838D01*
X124190476Y-105852219D02*
X124761904Y-105852219D01*
X124476190Y-106852219D02*
X124476190Y-105852219D01*
D10*
G36*
X166063037Y-110828696D02*
G01*
X164627323Y-110828696D01*
X164627323Y-110420363D01*
X164770180Y-110420363D01*
X164770739Y-110421900D01*
X164774029Y-110444081D01*
X164821649Y-110586938D01*
X164824436Y-110590450D01*
X164824827Y-110594916D01*
X164839767Y-110616253D01*
X164887386Y-110663872D01*
X164902223Y-110670790D01*
X164914767Y-110681316D01*
X164930893Y-110684159D01*
X164933882Y-110685553D01*
X164935832Y-110685030D01*
X164940419Y-110685839D01*
X165273752Y-110685839D01*
X165292060Y-110679175D01*
X165311252Y-110675791D01*
X165315602Y-110670606D01*
X165321961Y-110668292D01*
X165331703Y-110651418D01*
X165344229Y-110636491D01*
X165345946Y-110626748D01*
X165347613Y-110623863D01*
X165347034Y-110620580D01*
X165348752Y-110610839D01*
X165348752Y-110420363D01*
X165331205Y-110372154D01*
X165286776Y-110346502D01*
X165236252Y-110355411D01*
X165203275Y-110394711D01*
X165198752Y-110420363D01*
X165198752Y-110535839D01*
X164971485Y-110535839D01*
X164958351Y-110522705D01*
X164920180Y-110408191D01*
X164920180Y-110337296D01*
X164958351Y-110222782D01*
X165032464Y-110148669D01*
X165109451Y-110110175D01*
X165282986Y-110066792D01*
X165407375Y-110066792D01*
X165580909Y-110110175D01*
X165657896Y-110148669D01*
X165732009Y-110222782D01*
X165770180Y-110337295D01*
X165770180Y-110450277D01*
X165730479Y-110529679D01*
X165724614Y-110580646D01*
X165752880Y-110623459D01*
X165802055Y-110638085D01*
X165849126Y-110617682D01*
X165864643Y-110596761D01*
X165912262Y-110501523D01*
X165912774Y-110497069D01*
X165915657Y-110493634D01*
X165920180Y-110467982D01*
X165920180Y-110325125D01*
X165919620Y-110323587D01*
X165916331Y-110301407D01*
X165868712Y-110158551D01*
X165865925Y-110155040D01*
X165865535Y-110150572D01*
X165850594Y-110129235D01*
X165755356Y-110033997D01*
X165753874Y-110033306D01*
X165735864Y-110019948D01*
X165640626Y-109972329D01*
X165637097Y-109971922D01*
X165625275Y-109966650D01*
X165434799Y-109919031D01*
X165431350Y-109919391D01*
X165416609Y-109916792D01*
X165273752Y-109916792D01*
X165270494Y-109917977D01*
X165255562Y-109919031D01*
X165065086Y-109966650D01*
X165062141Y-109968638D01*
X165049735Y-109972329D01*
X164954497Y-110019948D01*
X164953373Y-110021134D01*
X164935005Y-110033997D01*
X164839767Y-110129235D01*
X164837872Y-110133297D01*
X164834052Y-110135645D01*
X164821649Y-110158550D01*
X164774029Y-110301407D01*
X164774073Y-110303042D01*
X164770180Y-110325125D01*
X164770180Y-110420363D01*
X164627323Y-110420363D01*
X164627323Y-109550196D01*
X164771319Y-109550196D01*
X164780228Y-109600720D01*
X164819528Y-109633697D01*
X164845180Y-109638220D01*
X165845180Y-109638220D01*
X165854592Y-109634794D01*
X165864570Y-109635670D01*
X165877994Y-109626276D01*
X165893389Y-109620673D01*
X165898396Y-109612000D01*
X165906604Y-109606257D01*
X165910849Y-109590431D01*
X165919041Y-109576244D01*
X165917301Y-109566380D01*
X165919897Y-109556706D01*
X165912977Y-109541854D01*
X165910132Y-109525720D01*
X165902459Y-109519281D01*
X165898229Y-109510203D01*
X165876897Y-109495256D01*
X165308248Y-109229887D01*
X165876897Y-108964518D01*
X165883978Y-108957432D01*
X165893389Y-108954007D01*
X165901581Y-108939818D01*
X165913162Y-108928230D01*
X165914032Y-108918253D01*
X165919041Y-108909578D01*
X165916196Y-108893444D01*
X165917620Y-108877121D01*
X165911871Y-108868916D01*
X165910132Y-108859054D01*
X165897581Y-108848523D01*
X165888180Y-108835105D01*
X165878505Y-108832515D01*
X165870832Y-108826077D01*
X165845180Y-108821554D01*
X164845180Y-108821554D01*
X164796971Y-108839101D01*
X164771319Y-108883530D01*
X164780228Y-108934054D01*
X164819528Y-108967031D01*
X164845180Y-108971554D01*
X165507113Y-108971554D01*
X165099179Y-109161923D01*
X165085421Y-109175688D01*
X165069471Y-109186850D01*
X165067711Y-109193409D01*
X165062913Y-109198211D01*
X165061222Y-109217598D01*
X165056178Y-109236402D01*
X165059045Y-109242556D01*
X165058456Y-109249320D01*
X165069624Y-109265260D01*
X165077846Y-109282904D01*
X165085980Y-109288603D01*
X165087895Y-109291336D01*
X165091107Y-109292195D01*
X165099179Y-109297851D01*
X165507113Y-109488220D01*
X164845180Y-109488220D01*
X164796971Y-109505767D01*
X164771319Y-109550196D01*
X164627323Y-109550196D01*
X164627323Y-108467982D01*
X164770180Y-108467982D01*
X164787727Y-108516191D01*
X164832156Y-108541843D01*
X164882680Y-108532934D01*
X164915657Y-108493634D01*
X164920180Y-108467982D01*
X164920180Y-108066792D01*
X165293990Y-108066792D01*
X165293990Y-108325125D01*
X165311537Y-108373334D01*
X165355966Y-108398986D01*
X165406490Y-108390077D01*
X165439467Y-108350777D01*
X165443990Y-108325125D01*
X165443990Y-108066792D01*
X165770180Y-108066792D01*
X165770180Y-108467982D01*
X165787727Y-108516191D01*
X165832156Y-108541843D01*
X165882680Y-108532934D01*
X165915657Y-108493634D01*
X165920180Y-108467982D01*
X165920180Y-107991792D01*
X165913516Y-107973483D01*
X165910132Y-107954292D01*
X165904947Y-107949941D01*
X165902633Y-107943583D01*
X165885759Y-107933840D01*
X165870832Y-107921315D01*
X165861089Y-107919597D01*
X165858204Y-107917931D01*
X165854921Y-107918509D01*
X165845180Y-107916792D01*
X164845180Y-107916792D01*
X164826871Y-107923455D01*
X164807680Y-107926840D01*
X164803329Y-107932024D01*
X164796971Y-107934339D01*
X164787228Y-107951212D01*
X164774703Y-107966140D01*
X164772985Y-107975882D01*
X164771319Y-107978768D01*
X164771897Y-107982050D01*
X164770180Y-107991792D01*
X164770180Y-108467982D01*
X164627323Y-108467982D01*
X164627323Y-107773935D01*
X166063037Y-107773935D01*
X166063037Y-110828696D01*
G37*
G36*
X157297669Y-110243990D02*
G01*
X156102329Y-110243990D01*
X156102329Y-110013109D01*
X156245186Y-110013109D01*
X156254095Y-110063633D01*
X156293395Y-110096610D01*
X156319047Y-110101133D01*
X157080951Y-110101133D01*
X157129160Y-110083586D01*
X157154812Y-110039157D01*
X157145903Y-109988633D01*
X157106603Y-109955656D01*
X157080951Y-109951133D01*
X156319047Y-109951133D01*
X156270838Y-109968680D01*
X156245186Y-110013109D01*
X156102329Y-110013109D01*
X156102329Y-109808276D01*
X157297669Y-109808276D01*
X157297669Y-110243990D01*
G37*
G36*
X187116717Y-110863037D02*
G01*
X180683281Y-110863037D01*
X180683281Y-110454704D01*
X183539285Y-110454704D01*
X183540818Y-110458917D01*
X183539777Y-110463278D01*
X183547203Y-110488245D01*
X183594822Y-110583483D01*
X183596011Y-110584608D01*
X183608871Y-110602975D01*
X183656490Y-110650594D01*
X183657971Y-110651285D01*
X183675982Y-110664643D01*
X183771220Y-110712262D01*
X183775673Y-110712774D01*
X183779109Y-110715657D01*
X183804761Y-110720180D01*
X184042856Y-110720180D01*
X184047069Y-110718646D01*
X184051430Y-110719688D01*
X184076397Y-110712262D01*
X184171635Y-110664643D01*
X184172760Y-110663453D01*
X184191127Y-110650594D01*
X184238746Y-110602975D01*
X184260427Y-110556479D01*
X184247150Y-110506924D01*
X184205124Y-110477498D01*
X184154017Y-110481969D01*
X184132680Y-110496909D01*
X184093667Y-110535922D01*
X184025151Y-110570180D01*
X183822466Y-110570180D01*
X183753950Y-110535922D01*
X183723543Y-110505515D01*
X183689285Y-110436999D01*
X183689285Y-110371636D01*
X183727456Y-110257122D01*
X183971469Y-110013109D01*
X186064234Y-110013109D01*
X186073143Y-110063633D01*
X186112443Y-110096610D01*
X186138095Y-110101133D01*
X186444047Y-110101133D01*
X186444047Y-110407085D01*
X186461594Y-110455294D01*
X186506023Y-110480946D01*
X186556547Y-110472037D01*
X186589524Y-110432737D01*
X186594047Y-110407085D01*
X186594047Y-110101133D01*
X186899999Y-110101133D01*
X186948208Y-110083586D01*
X186973860Y-110039157D01*
X186964951Y-109988633D01*
X186925651Y-109955656D01*
X186899999Y-109951133D01*
X186594047Y-109951133D01*
X186594047Y-109645180D01*
X186576500Y-109596971D01*
X186532071Y-109571319D01*
X186481547Y-109580228D01*
X186448570Y-109619528D01*
X186444047Y-109645180D01*
X186444047Y-109951133D01*
X186138095Y-109951133D01*
X186089886Y-109968680D01*
X186064234Y-110013109D01*
X183971469Y-110013109D01*
X184286365Y-109698213D01*
X184295902Y-109677759D01*
X184307193Y-109658204D01*
X184306596Y-109654823D01*
X184308046Y-109651716D01*
X184302204Y-109629913D01*
X184298284Y-109607680D01*
X184295656Y-109605475D01*
X184294769Y-109602162D01*
X184276277Y-109589213D01*
X184258984Y-109574703D01*
X184254399Y-109573894D01*
X184252743Y-109572735D01*
X184249454Y-109573022D01*
X184233332Y-109570180D01*
X183614285Y-109570180D01*
X183566076Y-109587727D01*
X183540424Y-109632156D01*
X183549333Y-109682680D01*
X183588633Y-109715657D01*
X183614285Y-109720180D01*
X184052266Y-109720180D01*
X183608871Y-110163576D01*
X183606976Y-110167639D01*
X183603155Y-110169987D01*
X183590753Y-110192892D01*
X183543134Y-110335749D01*
X183543178Y-110337383D01*
X183539285Y-110359466D01*
X183539285Y-110454704D01*
X180683281Y-110454704D01*
X180683281Y-110013109D01*
X180826138Y-110013109D01*
X180835047Y-110063633D01*
X180874347Y-110096610D01*
X180899999Y-110101133D01*
X181661903Y-110101133D01*
X181710112Y-110083586D01*
X181735764Y-110039157D01*
X181726855Y-109988633D01*
X181687555Y-109955656D01*
X181661903Y-109951133D01*
X180899999Y-109951133D01*
X180851790Y-109968680D01*
X180826138Y-110013109D01*
X180683281Y-110013109D01*
X180683281Y-109427323D01*
X187116717Y-109427323D01*
X187116717Y-110863037D01*
G37*
G36*
X201663979Y-109207133D02*
G01*
X201735922Y-109279076D01*
X201770180Y-109347592D01*
X201770180Y-109502658D01*
X201735922Y-109571173D01*
X201663979Y-109643116D01*
X201502613Y-109683458D01*
X201187748Y-109683458D01*
X201026381Y-109643116D01*
X200954438Y-109571173D01*
X200920180Y-109502656D01*
X200920180Y-109347593D01*
X200954438Y-109279076D01*
X201026381Y-109207133D01*
X201187748Y-109166792D01*
X201502613Y-109166792D01*
X201663979Y-109207133D01*
G37*
G36*
X201770180Y-108502657D02*
G01*
X201735921Y-108571174D01*
X201705515Y-108601580D01*
X201636999Y-108635839D01*
X201529552Y-108635839D01*
X201461036Y-108601581D01*
X201430629Y-108571174D01*
X201396371Y-108502657D01*
X201396371Y-108214411D01*
X201770180Y-108214411D01*
X201770180Y-108502657D01*
G37*
G36*
X202063037Y-110928696D02*
G01*
X200627323Y-110928696D01*
X200627323Y-110520363D01*
X200770180Y-110520363D01*
X200771713Y-110524576D01*
X200770672Y-110528938D01*
X200778098Y-110553905D01*
X200825718Y-110649143D01*
X200826909Y-110650270D01*
X200839767Y-110668634D01*
X200887386Y-110716253D01*
X200888867Y-110716944D01*
X200906878Y-110730302D01*
X201002116Y-110777921D01*
X201006569Y-110778433D01*
X201010005Y-110781316D01*
X201035657Y-110785839D01*
X201130895Y-110785839D01*
X201135108Y-110784305D01*
X201139469Y-110785347D01*
X201164436Y-110777921D01*
X201259674Y-110730302D01*
X201260799Y-110729112D01*
X201279166Y-110716253D01*
X201326785Y-110668634D01*
X201327476Y-110667152D01*
X201340834Y-110649142D01*
X201388453Y-110553904D01*
X201388859Y-110550375D01*
X201394132Y-110538553D01*
X201439754Y-110356062D01*
X201478247Y-110279076D01*
X201508655Y-110248668D01*
X201577171Y-110214411D01*
X201636999Y-110214411D01*
X201705515Y-110248669D01*
X201735921Y-110279075D01*
X201770180Y-110347591D01*
X201770180Y-110555812D01*
X201726410Y-110687122D01*
X201727811Y-110738406D01*
X201761848Y-110776791D01*
X201812597Y-110784316D01*
X201856309Y-110757461D01*
X201868712Y-110734556D01*
X201916331Y-110591700D01*
X201916286Y-110590064D01*
X201920180Y-110567982D01*
X201920180Y-110329887D01*
X201918646Y-110325673D01*
X201919688Y-110321312D01*
X201912262Y-110296346D01*
X201864643Y-110201108D01*
X201863453Y-110199982D01*
X201850594Y-110181616D01*
X201802975Y-110133997D01*
X201801493Y-110133306D01*
X201783483Y-110119948D01*
X201688245Y-110072329D01*
X201683791Y-110071816D01*
X201680356Y-110068934D01*
X201654704Y-110064411D01*
X201559466Y-110064411D01*
X201555252Y-110065944D01*
X201550891Y-110064903D01*
X201525925Y-110072329D01*
X201430687Y-110119948D01*
X201429561Y-110121137D01*
X201411195Y-110133997D01*
X201363576Y-110181616D01*
X201362885Y-110183097D01*
X201349527Y-110201108D01*
X201301908Y-110296346D01*
X201301501Y-110299874D01*
X201296229Y-110311697D01*
X201250606Y-110494187D01*
X201212113Y-110571173D01*
X201181705Y-110601581D01*
X201113190Y-110635839D01*
X201053362Y-110635839D01*
X200984846Y-110601580D01*
X200954438Y-110571173D01*
X200920180Y-110502656D01*
X200920180Y-110294439D01*
X200963951Y-110163128D01*
X200962550Y-110111844D01*
X200928513Y-110073459D01*
X200877765Y-110065933D01*
X200834052Y-110092788D01*
X200821649Y-110115693D01*
X200774029Y-110258550D01*
X200774073Y-110260185D01*
X200770180Y-110282268D01*
X200770180Y-110520363D01*
X200627323Y-110520363D01*
X200627323Y-109520363D01*
X200770180Y-109520363D01*
X200771713Y-109524576D01*
X200770672Y-109528938D01*
X200778098Y-109553905D01*
X200825718Y-109649143D01*
X200826909Y-109650270D01*
X200839767Y-109668634D01*
X200935005Y-109763872D01*
X200941712Y-109766999D01*
X200946059Y-109772990D01*
X200969848Y-109783600D01*
X201160324Y-109831219D01*
X201163772Y-109830858D01*
X201178514Y-109833458D01*
X201511847Y-109833458D01*
X201515104Y-109832272D01*
X201530037Y-109831219D01*
X201720513Y-109783600D01*
X201726646Y-109779457D01*
X201734019Y-109778812D01*
X201755356Y-109763872D01*
X201850594Y-109668634D01*
X201851284Y-109667152D01*
X201864643Y-109649142D01*
X201912262Y-109553904D01*
X201912774Y-109549450D01*
X201915657Y-109546015D01*
X201920180Y-109520363D01*
X201920180Y-109329887D01*
X201918646Y-109325673D01*
X201919688Y-109321312D01*
X201912262Y-109296346D01*
X201864643Y-109201108D01*
X201863456Y-109199984D01*
X201850594Y-109181616D01*
X201755356Y-109086378D01*
X201748648Y-109083250D01*
X201744302Y-109077260D01*
X201720513Y-109066650D01*
X201530037Y-109019031D01*
X201526588Y-109019391D01*
X201511847Y-109016792D01*
X201178514Y-109016792D01*
X201175256Y-109017977D01*
X201160324Y-109019031D01*
X200969848Y-109066650D01*
X200963715Y-109070791D01*
X200956342Y-109071437D01*
X200935005Y-109086378D01*
X200839767Y-109181616D01*
X200839075Y-109183098D01*
X200825718Y-109201107D01*
X200778098Y-109296345D01*
X200777585Y-109300799D01*
X200774703Y-109304235D01*
X200770180Y-109329887D01*
X200770180Y-109520363D01*
X200627323Y-109520363D01*
X200627323Y-108126387D01*
X200771319Y-108126387D01*
X200780228Y-108176911D01*
X200819528Y-108209888D01*
X200845180Y-108214411D01*
X201246371Y-108214411D01*
X201246371Y-108520363D01*
X201247904Y-108524576D01*
X201246863Y-108528937D01*
X201254289Y-108553904D01*
X201301908Y-108649142D01*
X201303097Y-108650267D01*
X201315957Y-108668634D01*
X201363576Y-108716253D01*
X201365057Y-108716944D01*
X201383068Y-108730302D01*
X201478306Y-108777921D01*
X201482759Y-108778433D01*
X201486195Y-108781316D01*
X201511847Y-108785839D01*
X201654704Y-108785839D01*
X201658917Y-108784305D01*
X201663278Y-108785347D01*
X201688245Y-108777921D01*
X201783483Y-108730302D01*
X201784608Y-108729112D01*
X201802975Y-108716253D01*
X201850594Y-108668634D01*
X201851285Y-108667152D01*
X201864643Y-108649142D01*
X201912262Y-108553904D01*
X201912774Y-108549450D01*
X201915657Y-108546015D01*
X201920180Y-108520363D01*
X201920180Y-108139411D01*
X201913516Y-108121102D01*
X201910132Y-108101911D01*
X201904947Y-108097560D01*
X201902633Y-108091202D01*
X201885759Y-108081459D01*
X201870832Y-108068934D01*
X201861089Y-108067216D01*
X201858204Y-108065550D01*
X201854921Y-108066128D01*
X201845180Y-108064411D01*
X200845180Y-108064411D01*
X200796971Y-108081958D01*
X200771319Y-108126387D01*
X200627323Y-108126387D01*
X200627323Y-107921554D01*
X202063037Y-107921554D01*
X202063037Y-110928696D01*
G37*
D11*
G36*
X195628950Y-116298250D02*
G01*
X195593928Y-116403315D01*
X195574476Y-116422766D01*
X195514867Y-116452572D01*
X195419224Y-116452572D01*
X195359614Y-116422767D01*
X195334943Y-116398096D01*
X195305140Y-116338489D01*
X195305140Y-116081144D01*
X195628950Y-116081144D01*
X195628950Y-116298250D01*
G37*
G36*
X196105140Y-116290870D02*
G01*
X196075335Y-116350479D01*
X196050666Y-116375147D01*
X195991057Y-116404953D01*
X195943033Y-116404953D01*
X195883423Y-116375148D01*
X195858755Y-116350479D01*
X195828950Y-116290869D01*
X195828950Y-116081144D01*
X196105140Y-116081144D01*
X196105140Y-116290870D01*
G37*
G36*
X196447997Y-118557334D02*
G01*
X194962283Y-118557334D01*
X194962283Y-118334832D01*
X195107233Y-118334832D01*
X195110034Y-118339733D01*
X195110034Y-118345379D01*
X195125145Y-118366178D01*
X195137897Y-118388493D01*
X195143042Y-118390811D01*
X195146361Y-118395379D01*
X195170807Y-118403322D01*
X195194244Y-118413882D01*
X195199771Y-118412732D01*
X195205140Y-118414477D01*
X196205140Y-118414477D01*
X196263919Y-118395379D01*
X196300246Y-118345379D01*
X196300246Y-118283575D01*
X196263919Y-118233575D01*
X196205140Y-118214477D01*
X195581696Y-118214477D01*
X196254754Y-117829873D01*
X196258549Y-117825695D01*
X196263919Y-117823951D01*
X196279030Y-117803152D01*
X196296313Y-117784129D01*
X196296928Y-117778517D01*
X196300246Y-117773951D01*
X196300246Y-117748247D01*
X196303047Y-117722694D01*
X196300246Y-117717792D01*
X196300246Y-117712147D01*
X196285137Y-117691351D01*
X196272384Y-117669033D01*
X196267237Y-117666713D01*
X196263919Y-117662147D01*
X196239473Y-117654204D01*
X196216036Y-117643644D01*
X196210508Y-117644793D01*
X196205140Y-117643049D01*
X195205140Y-117643049D01*
X195146361Y-117662147D01*
X195110034Y-117712147D01*
X195110034Y-117773951D01*
X195146361Y-117823951D01*
X195205140Y-117843049D01*
X195828584Y-117843049D01*
X195155526Y-118227653D01*
X195151730Y-118231830D01*
X195146361Y-118233575D01*
X195131249Y-118254373D01*
X195113967Y-118273397D01*
X195113351Y-118279008D01*
X195110034Y-118283575D01*
X195110034Y-118309278D01*
X195107233Y-118334832D01*
X194962283Y-118334832D01*
X194962283Y-117154903D01*
X195110034Y-117154903D01*
X195146361Y-117204903D01*
X195205140Y-117224001D01*
X196105140Y-117224001D01*
X196105140Y-117409715D01*
X196124238Y-117468494D01*
X196174238Y-117504821D01*
X196236042Y-117504821D01*
X196286042Y-117468494D01*
X196305140Y-117409715D01*
X196305140Y-116838287D01*
X196286042Y-116779508D01*
X196236042Y-116743181D01*
X196174238Y-116743181D01*
X196124238Y-116779508D01*
X196105140Y-116838287D01*
X196105140Y-117024001D01*
X195205140Y-117024001D01*
X195146361Y-117043099D01*
X195110034Y-117093099D01*
X195110034Y-117154903D01*
X194962283Y-117154903D01*
X194962283Y-116362096D01*
X195105140Y-116362096D01*
X195112264Y-116384022D01*
X195115698Y-116406818D01*
X195163318Y-116502056D01*
X195174690Y-116513602D01*
X195182049Y-116528045D01*
X195229668Y-116575663D01*
X195244109Y-116583021D01*
X195255658Y-116594396D01*
X195350895Y-116642015D01*
X195373693Y-116645448D01*
X195395617Y-116652572D01*
X195538474Y-116652572D01*
X195560397Y-116645448D01*
X195583195Y-116642015D01*
X195678433Y-116594396D01*
X195689980Y-116583022D01*
X195704423Y-116575664D01*
X195752041Y-116528045D01*
X195752526Y-116527093D01*
X195753477Y-116528044D01*
X195767918Y-116535402D01*
X195779467Y-116546777D01*
X195874704Y-116594396D01*
X195897502Y-116597829D01*
X195919426Y-116604953D01*
X196014664Y-116604953D01*
X196036587Y-116597829D01*
X196059385Y-116594396D01*
X196154623Y-116546777D01*
X196166170Y-116535403D01*
X196180613Y-116528045D01*
X196228231Y-116480426D01*
X196235589Y-116465984D01*
X196246964Y-116454436D01*
X196294583Y-116359199D01*
X196298016Y-116336400D01*
X196305140Y-116314477D01*
X196305140Y-115981144D01*
X196300246Y-115966081D01*
X196300246Y-115950242D01*
X196290936Y-115937428D01*
X196286042Y-115922365D01*
X196273228Y-115913055D01*
X196263919Y-115900242D01*
X196248855Y-115895347D01*
X196236042Y-115886038D01*
X196220203Y-115886038D01*
X196205140Y-115881144D01*
X195205140Y-115881144D01*
X195190077Y-115886038D01*
X195174238Y-115886038D01*
X195161424Y-115895347D01*
X195146361Y-115900242D01*
X195137051Y-115913055D01*
X195124238Y-115922365D01*
X195119343Y-115937428D01*
X195110034Y-115950242D01*
X195110034Y-115966081D01*
X195105140Y-115981144D01*
X195105140Y-116362096D01*
X194962283Y-116362096D01*
X194962283Y-115738287D01*
X196447997Y-115738287D01*
X196447997Y-118557334D01*
G37*
G36*
X120731552Y-131761905D02*
G01*
X120433495Y-131861257D01*
X120433495Y-131662552D01*
X120731552Y-131761905D01*
G37*
G36*
X121290637Y-133242857D02*
G01*
X119804923Y-133242857D01*
X119804923Y-132809524D01*
X119947780Y-132809524D01*
X119952788Y-132824939D01*
X119952912Y-132841147D01*
X120000532Y-132984005D01*
X120014223Y-133002551D01*
X120024689Y-133023092D01*
X120072308Y-133070710D01*
X120079496Y-133074372D01*
X120084240Y-133080902D01*
X120106512Y-133088138D01*
X120127375Y-133098769D01*
X120135345Y-133097506D01*
X120143019Y-133100000D01*
X120476352Y-133100000D01*
X120491415Y-133095106D01*
X120507254Y-133095106D01*
X120520067Y-133085796D01*
X120535131Y-133080902D01*
X120544440Y-133068088D01*
X120557254Y-133058779D01*
X120562148Y-133043715D01*
X120571458Y-133030902D01*
X120571458Y-133015062D01*
X120576352Y-133000000D01*
X120576352Y-132809524D01*
X120557254Y-132750745D01*
X120507254Y-132714418D01*
X120445450Y-132714418D01*
X120395450Y-132750745D01*
X120376352Y-132809524D01*
X120376352Y-132900000D01*
X120184441Y-132900000D01*
X120182802Y-132898361D01*
X120147780Y-132793296D01*
X120147780Y-132730513D01*
X120182802Y-132625448D01*
X120249874Y-132558376D01*
X120320780Y-132522923D01*
X120488661Y-132480953D01*
X120606899Y-132480953D01*
X120774780Y-132522923D01*
X120845686Y-132558376D01*
X120912758Y-132625448D01*
X120947780Y-132730512D01*
X120947780Y-132833536D01*
X120910718Y-132907660D01*
X120901513Y-132968774D01*
X120929989Y-133023627D01*
X120985268Y-133051266D01*
X121046235Y-133041135D01*
X121089604Y-132997102D01*
X121137223Y-132901865D01*
X121140656Y-132879066D01*
X121147780Y-132857143D01*
X121147780Y-132714286D01*
X121142771Y-132698870D01*
X121142648Y-132682663D01*
X121095029Y-132539806D01*
X121081338Y-132521259D01*
X121070872Y-132500718D01*
X120975634Y-132405480D01*
X120961191Y-132398121D01*
X120949644Y-132386748D01*
X120854406Y-132339129D01*
X120843384Y-132337468D01*
X120833938Y-132331558D01*
X120643463Y-132283939D01*
X120631046Y-132284799D01*
X120619209Y-132280953D01*
X120476352Y-132280953D01*
X120464514Y-132284799D01*
X120452098Y-132283939D01*
X120261622Y-132331558D01*
X120252175Y-132337468D01*
X120241154Y-132339129D01*
X120145917Y-132386748D01*
X120134369Y-132398121D01*
X120119927Y-132405480D01*
X120024689Y-132500718D01*
X120014223Y-132521258D01*
X120000532Y-132539805D01*
X119952912Y-132682663D01*
X119952788Y-132698870D01*
X119947780Y-132714286D01*
X119947780Y-132809524D01*
X119804923Y-132809524D01*
X119804923Y-132095997D01*
X119947782Y-132095997D01*
X119967327Y-132154629D01*
X120017601Y-132190576D01*
X120079403Y-132190106D01*
X121079402Y-131856773D01*
X121103665Y-131838862D01*
X121128233Y-131821296D01*
X121128484Y-131820541D01*
X121129126Y-131820068D01*
X121138241Y-131791271D01*
X121147777Y-131762664D01*
X121147536Y-131761904D01*
X121147777Y-131761146D01*
X121138241Y-131732538D01*
X121129126Y-131703742D01*
X121128484Y-131703268D01*
X121128233Y-131702514D01*
X121103665Y-131684947D01*
X121079402Y-131667037D01*
X120079403Y-131333704D01*
X120017601Y-131333234D01*
X119967327Y-131369181D01*
X119947782Y-131427813D01*
X119966434Y-131486735D01*
X120016157Y-131523440D01*
X120233495Y-131595885D01*
X120233495Y-131927924D01*
X120016157Y-132000370D01*
X119966434Y-132037075D01*
X119947782Y-132095997D01*
X119804923Y-132095997D01*
X119804923Y-130983283D01*
X119952674Y-130983283D01*
X119989001Y-131033283D01*
X120047780Y-131052381D01*
X120947780Y-131052381D01*
X120947780Y-131238095D01*
X120966878Y-131296874D01*
X121016878Y-131333201D01*
X121078682Y-131333201D01*
X121128682Y-131296874D01*
X121147780Y-131238095D01*
X121147780Y-130666667D01*
X121128682Y-130607888D01*
X121078682Y-130571561D01*
X121016878Y-130571561D01*
X120966878Y-130607888D01*
X120947780Y-130666667D01*
X120947780Y-130852381D01*
X120047780Y-130852381D01*
X119989001Y-130871479D01*
X119952674Y-130921479D01*
X119952674Y-130983283D01*
X119804923Y-130983283D01*
X119804923Y-130047619D01*
X119947780Y-130047619D01*
X119952788Y-130063034D01*
X119952912Y-130079242D01*
X120000532Y-130222100D01*
X120014223Y-130240646D01*
X120024689Y-130261187D01*
X120119927Y-130356425D01*
X120140468Y-130366891D01*
X120159015Y-130380582D01*
X120301872Y-130428201D01*
X120318079Y-130428324D01*
X120333495Y-130433333D01*
X121047780Y-130433333D01*
X121106559Y-130414235D01*
X121142886Y-130364235D01*
X121142886Y-130302431D01*
X121106559Y-130252431D01*
X121047780Y-130233333D01*
X120349721Y-130233333D01*
X120244657Y-130198311D01*
X120182802Y-130136456D01*
X120147780Y-130031391D01*
X120147780Y-129952381D01*
X120128682Y-129893602D01*
X120078682Y-129857275D01*
X120016878Y-129857275D01*
X119966878Y-129893602D01*
X119947780Y-129952381D01*
X119947780Y-130047619D01*
X119804923Y-130047619D01*
X119804923Y-129714418D01*
X121290637Y-129714418D01*
X121290637Y-133242857D01*
G37*
D10*
G36*
X159104814Y-140472676D02*
G01*
X154195187Y-140472676D01*
X154195187Y-139860842D01*
X154338044Y-139860842D01*
X154346953Y-139911366D01*
X154386253Y-139944343D01*
X154411905Y-139948866D01*
X154717857Y-139948866D01*
X154717857Y-140254819D01*
X154735404Y-140303028D01*
X154779833Y-140328680D01*
X154830357Y-140319771D01*
X154863334Y-140280471D01*
X154867857Y-140254819D01*
X154867857Y-140241795D01*
X156290425Y-140241795D01*
X156299334Y-140292319D01*
X156338634Y-140325296D01*
X156364286Y-140329819D01*
X156935714Y-140329819D01*
X156983923Y-140312272D01*
X157009575Y-140267843D01*
X157000666Y-140217319D01*
X156961366Y-140184342D01*
X156935714Y-140179819D01*
X156725000Y-140179819D01*
X156725000Y-139860842D01*
X158052330Y-139860842D01*
X158061239Y-139911366D01*
X158100539Y-139944343D01*
X158126191Y-139948866D01*
X158888096Y-139948866D01*
X158936305Y-139931319D01*
X158961957Y-139886890D01*
X158953048Y-139836366D01*
X158913748Y-139803389D01*
X158888096Y-139798866D01*
X158126191Y-139798866D01*
X158077982Y-139816413D01*
X158052330Y-139860842D01*
X156725000Y-139860842D01*
X156725000Y-139254819D01*
X156723524Y-139250765D01*
X156724545Y-139246576D01*
X156714897Y-139227063D01*
X156707453Y-139206610D01*
X156703718Y-139204454D01*
X156701807Y-139200587D01*
X156681872Y-139191840D01*
X156663024Y-139180958D01*
X156658776Y-139181706D01*
X156654827Y-139179974D01*
X156633932Y-139186087D01*
X156612500Y-139189867D01*
X156609728Y-139193169D01*
X156605589Y-139194381D01*
X156587596Y-139213216D01*
X156496475Y-139349896D01*
X156415096Y-139431275D01*
X156330745Y-139473451D01*
X156295473Y-139510705D01*
X156292398Y-139561916D01*
X156322962Y-139603121D01*
X156372860Y-139615041D01*
X156397827Y-139607615D01*
X156493065Y-139559996D01*
X156494190Y-139558806D01*
X156512557Y-139545947D01*
X156575000Y-139483504D01*
X156575000Y-140179819D01*
X156364286Y-140179819D01*
X156316077Y-140197366D01*
X156290425Y-140241795D01*
X154867857Y-140241795D01*
X154867857Y-139948866D01*
X155173810Y-139948866D01*
X155222019Y-139931319D01*
X155247671Y-139886890D01*
X155238762Y-139836366D01*
X155199462Y-139803389D01*
X155173810Y-139798866D01*
X154867857Y-139798866D01*
X154867857Y-139492914D01*
X154850310Y-139444705D01*
X154805881Y-139419053D01*
X154755357Y-139427962D01*
X154722380Y-139467262D01*
X154717857Y-139492914D01*
X154717857Y-139798866D01*
X154411905Y-139798866D01*
X154363696Y-139816413D01*
X154338044Y-139860842D01*
X154195187Y-139860842D01*
X154195187Y-139037117D01*
X159104814Y-139037117D01*
X159104814Y-140472676D01*
G37*
G36*
X141263037Y-148928696D02*
G01*
X139827323Y-148928696D01*
X139827323Y-148710839D01*
X139970180Y-148710839D01*
X139987727Y-148759048D01*
X140032156Y-148784700D01*
X140082680Y-148775791D01*
X140115657Y-148736491D01*
X140120180Y-148710839D01*
X140120180Y-148272857D01*
X140563576Y-148716253D01*
X140567640Y-148718148D01*
X140569987Y-148721968D01*
X140592892Y-148734371D01*
X140735748Y-148781990D01*
X140737383Y-148781945D01*
X140759466Y-148785839D01*
X140854704Y-148785839D01*
X140858917Y-148784305D01*
X140863278Y-148785347D01*
X140888245Y-148777921D01*
X140983483Y-148730302D01*
X140984608Y-148729112D01*
X141002975Y-148716253D01*
X141050594Y-148668634D01*
X141051285Y-148667152D01*
X141064643Y-148649142D01*
X141112262Y-148553904D01*
X141112774Y-148549450D01*
X141115657Y-148546015D01*
X141120180Y-148520363D01*
X141120180Y-148282268D01*
X141118646Y-148278054D01*
X141119688Y-148273693D01*
X141112262Y-148248727D01*
X141064643Y-148153489D01*
X141063453Y-148152363D01*
X141050594Y-148133997D01*
X141002975Y-148086378D01*
X140956478Y-148064697D01*
X140906924Y-148077974D01*
X140877497Y-148120000D01*
X140881969Y-148171107D01*
X140896909Y-148192444D01*
X140935922Y-148231456D01*
X140970180Y-148299973D01*
X140970180Y-148502658D01*
X140935922Y-148571174D01*
X140905515Y-148601580D01*
X140836999Y-148635839D01*
X140771636Y-148635839D01*
X140657122Y-148597667D01*
X140098213Y-148038759D01*
X140077759Y-148029221D01*
X140058204Y-148017931D01*
X140054823Y-148018527D01*
X140051716Y-148017078D01*
X140029913Y-148022919D01*
X140007680Y-148026840D01*
X140005475Y-148029467D01*
X140002162Y-148030355D01*
X139989213Y-148048846D01*
X139974703Y-148066140D01*
X139973894Y-148070724D01*
X139972735Y-148072381D01*
X139973022Y-148075669D01*
X139970180Y-148091792D01*
X139970180Y-148710839D01*
X139827323Y-148710839D01*
X139827323Y-147874221D01*
X141263037Y-147874221D01*
X141263037Y-148928696D01*
G37*
G36*
X170970180Y-147264562D02*
G01*
X170935922Y-147333079D01*
X170905515Y-147363486D01*
X170836999Y-147397744D01*
X170729552Y-147397744D01*
X170661036Y-147363486D01*
X170630629Y-147333079D01*
X170596371Y-147264563D01*
X170596371Y-146976316D01*
X170970180Y-146976316D01*
X170970180Y-147264562D01*
G37*
G36*
X170808009Y-146234649D02*
G01*
X170405895Y-146368687D01*
X170405895Y-146100610D01*
X170808009Y-146234649D01*
G37*
G36*
X171263037Y-149928410D02*
G01*
X169827323Y-149928410D01*
X169827323Y-149520363D01*
X169970180Y-149520363D01*
X169970739Y-149521900D01*
X169974029Y-149544081D01*
X170021649Y-149686938D01*
X170024436Y-149690450D01*
X170024827Y-149694916D01*
X170039767Y-149716253D01*
X170087386Y-149763872D01*
X170133882Y-149785553D01*
X170183437Y-149772276D01*
X170212863Y-149730250D01*
X170208392Y-149679143D01*
X170193452Y-149657806D01*
X170158351Y-149622705D01*
X170120180Y-149508191D01*
X170120180Y-149437296D01*
X170158351Y-149322782D01*
X170232465Y-149248669D01*
X170309451Y-149210175D01*
X170482986Y-149166792D01*
X170607375Y-149166792D01*
X170780908Y-149210175D01*
X170857896Y-149248669D01*
X170932009Y-149322782D01*
X170970180Y-149437294D01*
X170970180Y-149508193D01*
X170932009Y-149622705D01*
X170896909Y-149657806D01*
X170875228Y-149704303D01*
X170888505Y-149753857D01*
X170930531Y-149783284D01*
X170981638Y-149778812D01*
X171002975Y-149763872D01*
X171050594Y-149716253D01*
X171052489Y-149712188D01*
X171056309Y-149709842D01*
X171068712Y-149686937D01*
X171116331Y-149544081D01*
X171116286Y-149542445D01*
X171120180Y-149520363D01*
X171120180Y-149425125D01*
X171119620Y-149423587D01*
X171116331Y-149401407D01*
X171068712Y-149258551D01*
X171065925Y-149255040D01*
X171065535Y-149250572D01*
X171050594Y-149229235D01*
X170955356Y-149133997D01*
X170953874Y-149133306D01*
X170935864Y-149119948D01*
X170840626Y-149072329D01*
X170837097Y-149071922D01*
X170825275Y-149066650D01*
X170634799Y-149019031D01*
X170631350Y-149019391D01*
X170616609Y-149016792D01*
X170473752Y-149016792D01*
X170470494Y-149017977D01*
X170455562Y-149019031D01*
X170265086Y-149066650D01*
X170262141Y-149068638D01*
X170249735Y-149072329D01*
X170154497Y-149119948D01*
X170153373Y-149121134D01*
X170135005Y-149133997D01*
X170039767Y-149229235D01*
X170037872Y-149233297D01*
X170034052Y-149235645D01*
X170021649Y-149258550D01*
X169974029Y-149401407D01*
X169974073Y-149403042D01*
X169970180Y-149425125D01*
X169970180Y-149520363D01*
X169827323Y-149520363D01*
X169827323Y-148650197D01*
X169971319Y-148650197D01*
X169980228Y-148700721D01*
X170019528Y-148733698D01*
X170045180Y-148738221D01*
X171045180Y-148738221D01*
X171093389Y-148720674D01*
X171119041Y-148676245D01*
X171110132Y-148625721D01*
X171070832Y-148592744D01*
X171045180Y-148588221D01*
X170045180Y-148588221D01*
X169996971Y-148605768D01*
X169971319Y-148650197D01*
X169827323Y-148650197D01*
X169827323Y-148031149D01*
X169971319Y-148031149D01*
X169980228Y-148081673D01*
X170019528Y-148114650D01*
X170045180Y-148119173D01*
X170970180Y-148119173D01*
X170970180Y-148329887D01*
X170987727Y-148378096D01*
X171032156Y-148403748D01*
X171082680Y-148394839D01*
X171115657Y-148355539D01*
X171120180Y-148329887D01*
X171120180Y-147758459D01*
X171102633Y-147710250D01*
X171058204Y-147684598D01*
X171007680Y-147693507D01*
X170974703Y-147732807D01*
X170970180Y-147758459D01*
X170970180Y-147969173D01*
X170045180Y-147969173D01*
X169996971Y-147986720D01*
X169971319Y-148031149D01*
X169827323Y-148031149D01*
X169827323Y-146888292D01*
X169971319Y-146888292D01*
X169980228Y-146938816D01*
X170019528Y-146971793D01*
X170045180Y-146976316D01*
X170446371Y-146976316D01*
X170446371Y-147282268D01*
X170447904Y-147286481D01*
X170446863Y-147290842D01*
X170454289Y-147315809D01*
X170501908Y-147411047D01*
X170503097Y-147412172D01*
X170515957Y-147430539D01*
X170563576Y-147478158D01*
X170565057Y-147478849D01*
X170583068Y-147492207D01*
X170678306Y-147539826D01*
X170682759Y-147540338D01*
X170686195Y-147543221D01*
X170711847Y-147547744D01*
X170854704Y-147547744D01*
X170858917Y-147546210D01*
X170863278Y-147547252D01*
X170888245Y-147539826D01*
X170983483Y-147492207D01*
X170984608Y-147491017D01*
X171002975Y-147478158D01*
X171050594Y-147430539D01*
X171051285Y-147429057D01*
X171064643Y-147411047D01*
X171112262Y-147315809D01*
X171112774Y-147311355D01*
X171115657Y-147307920D01*
X171120180Y-147282268D01*
X171120180Y-146901316D01*
X171113516Y-146883007D01*
X171110132Y-146863816D01*
X171104947Y-146859465D01*
X171102633Y-146853107D01*
X171085759Y-146843364D01*
X171070832Y-146830839D01*
X171061089Y-146829121D01*
X171058204Y-146827455D01*
X171054921Y-146828033D01*
X171045180Y-146826316D01*
X170045180Y-146826316D01*
X169996971Y-146843863D01*
X169971319Y-146888292D01*
X169827323Y-146888292D01*
X169827323Y-146578983D01*
X169970991Y-146578983D01*
X169995420Y-146624097D01*
X170043131Y-146642954D01*
X170068897Y-146639133D01*
X171068897Y-146305800D01*
X171070588Y-146304457D01*
X171072746Y-146304399D01*
X171090498Y-146288657D01*
X171109083Y-146273909D01*
X171109515Y-146271794D01*
X171111132Y-146270361D01*
X171114611Y-146246892D01*
X171119369Y-146223648D01*
X171118340Y-146221748D01*
X171118657Y-146219613D01*
X171106236Y-146199395D01*
X171094940Y-146178534D01*
X171092932Y-146177740D01*
X171091802Y-146175900D01*
X171068897Y-146163498D01*
X170068897Y-145830165D01*
X170017613Y-145831566D01*
X169979228Y-145865603D01*
X169971703Y-145916352D01*
X169998558Y-145960064D01*
X170021463Y-145972467D01*
X170255895Y-146050610D01*
X170255895Y-146418687D01*
X170021463Y-146496831D01*
X169981277Y-146528722D01*
X169970991Y-146578983D01*
X169827323Y-146578983D01*
X169827323Y-145554958D01*
X169971319Y-145554958D01*
X169980228Y-145605482D01*
X170019528Y-145638459D01*
X170045180Y-145642982D01*
X171045180Y-145642982D01*
X171093389Y-145625435D01*
X171119041Y-145581006D01*
X171110132Y-145530482D01*
X171070832Y-145497505D01*
X171045180Y-145492982D01*
X170643990Y-145492982D01*
X170643990Y-145071554D01*
X171045180Y-145071554D01*
X171093389Y-145054007D01*
X171119041Y-145009578D01*
X171110132Y-144959054D01*
X171070832Y-144926077D01*
X171045180Y-144921554D01*
X170045180Y-144921554D01*
X169996971Y-144939101D01*
X169971319Y-144983530D01*
X169980228Y-145034054D01*
X170019528Y-145067031D01*
X170045180Y-145071554D01*
X170493990Y-145071554D01*
X170493990Y-145492982D01*
X170045180Y-145492982D01*
X169996971Y-145510529D01*
X169971319Y-145554958D01*
X169827323Y-145554958D01*
X169827323Y-144778697D01*
X171263037Y-144778697D01*
X171263037Y-149928410D01*
G37*
X107071429Y-148388152D02*
X107309524Y-149054819D01*
X107309524Y-149054819D02*
X107547619Y-148388152D01*
X108452381Y-149054819D02*
X107880953Y-149054819D01*
X108166667Y-149054819D02*
X108166667Y-148054819D01*
X108166667Y-148054819D02*
X108071429Y-148197676D01*
X108071429Y-148197676D02*
X107976191Y-148292914D01*
X107976191Y-148292914D02*
X107880953Y-148340533D01*
X108880953Y-148959580D02*
X108928572Y-149007200D01*
X108928572Y-149007200D02*
X108880953Y-149054819D01*
X108880953Y-149054819D02*
X108833334Y-149007200D01*
X108833334Y-149007200D02*
X108880953Y-148959580D01*
X108880953Y-148959580D02*
X108880953Y-149054819D01*
X109547619Y-148054819D02*
X109642857Y-148054819D01*
X109642857Y-148054819D02*
X109738095Y-148102438D01*
X109738095Y-148102438D02*
X109785714Y-148150057D01*
X109785714Y-148150057D02*
X109833333Y-148245295D01*
X109833333Y-148245295D02*
X109880952Y-148435771D01*
X109880952Y-148435771D02*
X109880952Y-148673866D01*
X109880952Y-148673866D02*
X109833333Y-148864342D01*
X109833333Y-148864342D02*
X109785714Y-148959580D01*
X109785714Y-148959580D02*
X109738095Y-149007200D01*
X109738095Y-149007200D02*
X109642857Y-149054819D01*
X109642857Y-149054819D02*
X109547619Y-149054819D01*
X109547619Y-149054819D02*
X109452381Y-149007200D01*
X109452381Y-149007200D02*
X109404762Y-148959580D01*
X109404762Y-148959580D02*
X109357143Y-148864342D01*
X109357143Y-148864342D02*
X109309524Y-148673866D01*
X109309524Y-148673866D02*
X109309524Y-148435771D01*
X109309524Y-148435771D02*
X109357143Y-148245295D01*
X109357143Y-148245295D02*
X109404762Y-148150057D01*
X109404762Y-148150057D02*
X109452381Y-148102438D01*
X109452381Y-148102438D02*
X109547619Y-148054819D01*
D12*
%TO.C,TP33*%
X194375000Y-127150000D02*
G75*
G03*
X194375000Y-127150000I-700000J0D01*
G01*
%TO.C,U8*%
X195015000Y-127900000D02*
X195015000Y-131550000D01*
X195015000Y-127900000D02*
X195015000Y-125700000D01*
X200535000Y-127900000D02*
X200535000Y-130100000D01*
X200535000Y-127900000D02*
X200535000Y-125700000D01*
%TO.C,R21*%
X126635000Y-145072936D02*
X126635000Y-145527064D01*
X125165000Y-145072936D02*
X125165000Y-145527064D01*
%TO.C,R29*%
X158855000Y-124910436D02*
X158855000Y-125364564D01*
X157385000Y-124910436D02*
X157385000Y-125364564D01*
%TO.C,J2*%
X189960000Y-149610000D02*
X182240000Y-149610000D01*
X189960000Y-148390000D02*
X188740000Y-148390000D01*
X189960000Y-141190000D02*
X189960000Y-149610000D01*
X188740000Y-148390000D02*
X188740000Y-143390000D01*
X188740000Y-144390000D02*
X183460000Y-144390000D01*
X188740000Y-143390000D02*
X189960000Y-143390000D01*
X188740000Y-143390000D02*
X188740000Y-141190000D01*
X188740000Y-141190000D02*
X189960000Y-141190000D01*
X187670000Y-147810000D02*
X187350000Y-147890000D01*
X187670000Y-144390000D02*
X187670000Y-147810000D01*
X187650000Y-140700000D02*
X187050000Y-140700000D01*
X187350000Y-147890000D02*
X187030000Y-147810000D01*
X187350000Y-144390000D02*
X187670000Y-144390000D01*
X187350000Y-141300000D02*
X187650000Y-140700000D01*
X187050000Y-140700000D02*
X187350000Y-141300000D01*
X187030000Y-147810000D02*
X187030000Y-144390000D01*
X187030000Y-144390000D02*
X187350000Y-144390000D01*
X186180000Y-143390000D02*
X186020000Y-143390000D01*
X185170000Y-147810000D02*
X184850000Y-147890000D01*
X185170000Y-144390000D02*
X185170000Y-147810000D01*
X184850000Y-147890000D02*
X184530000Y-147810000D01*
X184850000Y-144390000D02*
X185170000Y-144390000D01*
X184530000Y-147810000D02*
X184530000Y-144390000D01*
X184530000Y-144390000D02*
X184850000Y-144390000D01*
X183460000Y-148390000D02*
X183460000Y-143390000D01*
X183460000Y-143390000D02*
X182240000Y-143390000D01*
X183460000Y-141190000D02*
X183460000Y-143390000D01*
X182240000Y-149610000D02*
X182240000Y-141190000D01*
X182240000Y-148390000D02*
X183460000Y-148390000D01*
X182240000Y-141190000D02*
X183460000Y-141190000D01*
%TO.C,R56*%
X201240000Y-130377064D02*
X201240000Y-129922936D01*
X202710000Y-130377064D02*
X202710000Y-129922936D01*
%TO.C,R59*%
X207202064Y-135210000D02*
X205747936Y-135210000D01*
X207202064Y-133390000D02*
X205747936Y-133390000D01*
%TO.C,TP45*%
X177975000Y-127250000D02*
G75*
G03*
X177975000Y-127250000I-700000J0D01*
G01*
%TO.C,R31*%
X140880000Y-124760436D02*
X140880000Y-125214564D01*
X139410000Y-124760436D02*
X139410000Y-125214564D01*
%TO.C,TP27*%
X141100000Y-132400000D02*
G75*
G03*
X141100000Y-132400000I-700000J0D01*
G01*
%TO.C,U4*%
X100540000Y-129050000D02*
X100540000Y-123040000D01*
X107360000Y-126800000D02*
X107360000Y-123040000D01*
X100540000Y-123040000D02*
X101800000Y-123040000D01*
X107360000Y-123040000D02*
X106100000Y-123040000D01*
%TO.C,R35*%
X152610000Y-117902064D02*
X152610000Y-117447936D01*
X154080000Y-117902064D02*
X154080000Y-117447936D01*
%TO.C,D3*%
X116500000Y-142252500D02*
X114500000Y-142252500D01*
X116500000Y-142252500D02*
X116500000Y-146262500D01*
X114500000Y-142252500D02*
X114500000Y-146262500D01*
%TO.C,TP6*%
X147700000Y-139800000D02*
G75*
G03*
X147700000Y-139800000I-700000J0D01*
G01*
%TO.C,J12*%
X142890000Y-100390000D02*
X153110000Y-100390000D01*
X142890000Y-101610000D02*
X144110000Y-101610000D01*
X142890000Y-108810000D02*
X142890000Y-100390000D01*
X144110000Y-101610000D02*
X144110000Y-106610000D01*
X144110000Y-105610000D02*
X151890000Y-105610000D01*
X144110000Y-106610000D02*
X142890000Y-106610000D01*
X144110000Y-106610000D02*
X144110000Y-108810000D01*
X144110000Y-108810000D02*
X142890000Y-108810000D01*
X145180000Y-102190000D02*
X145500000Y-102110000D01*
X145180000Y-105610000D02*
X145180000Y-102190000D01*
X145200000Y-109300000D02*
X145800000Y-109300000D01*
X145500000Y-102110000D02*
X145820000Y-102190000D01*
X145500000Y-105610000D02*
X145180000Y-105610000D01*
X145500000Y-108700000D02*
X145200000Y-109300000D01*
X145800000Y-109300000D02*
X145500000Y-108700000D01*
X145820000Y-102190000D02*
X145820000Y-105610000D01*
X145820000Y-105610000D02*
X145500000Y-105610000D01*
X146670000Y-106610000D02*
X146830000Y-106610000D01*
X147680000Y-102190000D02*
X148000000Y-102110000D01*
X147680000Y-105610000D02*
X147680000Y-102190000D01*
X148000000Y-102110000D02*
X148320000Y-102190000D01*
X148000000Y-105610000D02*
X147680000Y-105610000D01*
X148320000Y-102190000D02*
X148320000Y-105610000D01*
X148320000Y-105610000D02*
X148000000Y-105610000D01*
X149170000Y-106610000D02*
X149330000Y-106610000D01*
X150180000Y-102190000D02*
X150500000Y-102110000D01*
X150180000Y-105610000D02*
X150180000Y-102190000D01*
X150500000Y-102110000D02*
X150820000Y-102190000D01*
X150500000Y-105610000D02*
X150180000Y-105610000D01*
X150820000Y-102190000D02*
X150820000Y-105610000D01*
X150820000Y-105610000D02*
X150500000Y-105610000D01*
X151890000Y-101610000D02*
X151890000Y-106610000D01*
X151890000Y-106610000D02*
X153110000Y-106610000D01*
X151890000Y-108810000D02*
X151890000Y-106610000D01*
X153110000Y-100390000D02*
X153110000Y-108810000D01*
X153110000Y-101610000D02*
X151890000Y-101610000D01*
X153110000Y-108810000D02*
X151890000Y-108810000D01*
%TO.C,J9*%
X178840000Y-100390000D02*
X189060000Y-100390000D01*
X178840000Y-101610000D02*
X180060000Y-101610000D01*
X178840000Y-108810000D02*
X178840000Y-100390000D01*
X180060000Y-101610000D02*
X180060000Y-106610000D01*
X180060000Y-105610000D02*
X187840000Y-105610000D01*
X180060000Y-106610000D02*
X178840000Y-106610000D01*
X180060000Y-106610000D02*
X180060000Y-108810000D01*
X180060000Y-108810000D02*
X178840000Y-108810000D01*
X181130000Y-102190000D02*
X181450000Y-102110000D01*
X181130000Y-105610000D02*
X181130000Y-102190000D01*
X181150000Y-109300000D02*
X181750000Y-109300000D01*
X181450000Y-102110000D02*
X181770000Y-102190000D01*
X181450000Y-105610000D02*
X181130000Y-105610000D01*
X181450000Y-108700000D02*
X181150000Y-109300000D01*
X181750000Y-109300000D02*
X181450000Y-108700000D01*
X181770000Y-102190000D02*
X181770000Y-105610000D01*
X181770000Y-105610000D02*
X181450000Y-105610000D01*
X182620000Y-106610000D02*
X182780000Y-106610000D01*
X183630000Y-102190000D02*
X183950000Y-102110000D01*
X183630000Y-105610000D02*
X183630000Y-102190000D01*
X183950000Y-102110000D02*
X184270000Y-102190000D01*
X183950000Y-105610000D02*
X183630000Y-105610000D01*
X184270000Y-102190000D02*
X184270000Y-105610000D01*
X184270000Y-105610000D02*
X183950000Y-105610000D01*
X185120000Y-106610000D02*
X185280000Y-106610000D01*
X186130000Y-102190000D02*
X186450000Y-102110000D01*
X186130000Y-105610000D02*
X186130000Y-102190000D01*
X186450000Y-102110000D02*
X186770000Y-102190000D01*
X186450000Y-105610000D02*
X186130000Y-105610000D01*
X186770000Y-102190000D02*
X186770000Y-105610000D01*
X186770000Y-105610000D02*
X186450000Y-105610000D01*
X187840000Y-101610000D02*
X187840000Y-106610000D01*
X187840000Y-106610000D02*
X189060000Y-106610000D01*
X187840000Y-108810000D02*
X187840000Y-106610000D01*
X189060000Y-100390000D02*
X189060000Y-108810000D01*
X189060000Y-101610000D02*
X187840000Y-101610000D01*
X189060000Y-108810000D02*
X187840000Y-108810000D01*
%TO.C,JP16*%
X154070000Y-114275000D02*
X154070000Y-114875000D01*
X153370000Y-115575000D02*
X151970000Y-115575000D01*
X151970000Y-113575000D02*
X153370000Y-113575000D01*
X151270000Y-114875000D02*
X151270000Y-114275000D01*
X153370000Y-115575000D02*
G75*
G03*
X154070000Y-114875000I1J699999D01*
G01*
X154070000Y-114275000D02*
G75*
G03*
X153370000Y-113575000I-699999J1D01*
G01*
X151270000Y-114875000D02*
G75*
G03*
X151970000Y-115575000I700000J0D01*
G01*
X151970000Y-113575000D02*
G75*
G03*
X151270000Y-114275000I0J-700000D01*
G01*
%TO.C,C12*%
X126388748Y-138087500D02*
X126911252Y-138087500D01*
X126388748Y-139557500D02*
X126911252Y-139557500D01*
%TO.C,TP3*%
X115000000Y-114900000D02*
G75*
G03*
X115000000Y-114900000I-700000J0D01*
G01*
%TO.C,C33*%
X197040000Y-122211252D02*
X197040000Y-121688748D01*
X198510000Y-122211252D02*
X198510000Y-121688748D01*
%TO.C,TP17*%
X119950000Y-112135000D02*
G75*
G03*
X119950000Y-112135000I-700000J0D01*
G01*
%TO.C,R23*%
X162747064Y-119372500D02*
X162292936Y-119372500D01*
X162747064Y-117902500D02*
X162292936Y-117902500D01*
D11*
%TO.C,U2*%
X122325000Y-143609900D02*
X122325000Y-145662499D01*
X119275999Y-144512499D02*
X119275999Y-145912501D01*
D12*
%TO.C,TP48*%
X186075000Y-127150000D02*
G75*
G03*
X186075000Y-127150000I-700000J0D01*
G01*
%TO.C,C26*%
X173247500Y-119286252D02*
X173247500Y-118763748D01*
X174717500Y-119286252D02*
X174717500Y-118763748D01*
%TO.C,J5*%
X105850000Y-109520000D02*
X103930000Y-109520000D01*
X100215000Y-109520000D02*
X101920000Y-109520000D01*
X103930000Y-118680000D02*
X105850000Y-118680000D01*
X101920000Y-118680000D02*
X100215000Y-118680000D01*
X100215000Y-118680000D02*
X100215000Y-109520000D01*
%TO.C,J8*%
X154090000Y-100390000D02*
X164310000Y-100390000D01*
X154090000Y-101610000D02*
X155310000Y-101610000D01*
X154090000Y-108810000D02*
X154090000Y-100390000D01*
X155310000Y-101610000D02*
X155310000Y-106610000D01*
X155310000Y-105610000D02*
X163090000Y-105610000D01*
X155310000Y-106610000D02*
X154090000Y-106610000D01*
X155310000Y-106610000D02*
X155310000Y-108810000D01*
X155310000Y-108810000D02*
X154090000Y-108810000D01*
X156380000Y-102190000D02*
X156700000Y-102110000D01*
X156380000Y-105610000D02*
X156380000Y-102190000D01*
X156400000Y-109300000D02*
X157000000Y-109300000D01*
X156700000Y-102110000D02*
X157020000Y-102190000D01*
X156700000Y-105610000D02*
X156380000Y-105610000D01*
X156700000Y-108700000D02*
X156400000Y-109300000D01*
X157000000Y-109300000D02*
X156700000Y-108700000D01*
X157020000Y-102190000D02*
X157020000Y-105610000D01*
X157020000Y-105610000D02*
X156700000Y-105610000D01*
X157870000Y-106610000D02*
X158030000Y-106610000D01*
X158880000Y-102190000D02*
X159200000Y-102110000D01*
X158880000Y-105610000D02*
X158880000Y-102190000D01*
X159200000Y-102110000D02*
X159520000Y-102190000D01*
X159200000Y-105610000D02*
X158880000Y-105610000D01*
X159520000Y-102190000D02*
X159520000Y-105610000D01*
X159520000Y-105610000D02*
X159200000Y-105610000D01*
X160370000Y-106610000D02*
X160530000Y-106610000D01*
X161380000Y-102190000D02*
X161700000Y-102110000D01*
X161380000Y-105610000D02*
X161380000Y-102190000D01*
X161700000Y-102110000D02*
X162020000Y-102190000D01*
X161700000Y-105610000D02*
X161380000Y-105610000D01*
X162020000Y-102190000D02*
X162020000Y-105610000D01*
X162020000Y-105610000D02*
X161700000Y-105610000D01*
X163090000Y-101610000D02*
X163090000Y-106610000D01*
X163090000Y-106610000D02*
X164310000Y-106610000D01*
X163090000Y-108810000D02*
X163090000Y-106610000D01*
X164310000Y-100390000D02*
X164310000Y-108810000D01*
X164310000Y-101610000D02*
X163090000Y-101610000D01*
X164310000Y-108810000D02*
X163090000Y-108810000D01*
%TO.C,C23*%
X142010000Y-131536252D02*
X142010000Y-131013748D01*
X143480000Y-131536252D02*
X143480000Y-131013748D01*
%TO.C,C39*%
X180465000Y-122211252D02*
X180465000Y-121688748D01*
X181935000Y-122211252D02*
X181935000Y-121688748D01*
%TO.C,C7*%
X115611252Y-139537500D02*
X115088748Y-139537500D01*
X115611252Y-138067500D02*
X115088748Y-138067500D01*
%TO.C,R53*%
X193040000Y-130377064D02*
X193040000Y-129922936D01*
X194510000Y-130377064D02*
X194510000Y-129922936D01*
%TO.C,C13*%
X126388748Y-133887500D02*
X126911252Y-133887500D01*
X126388748Y-135357500D02*
X126911252Y-135357500D01*
%TO.C,R32*%
X170585000Y-118114564D02*
X170585000Y-117660436D01*
X172055000Y-118114564D02*
X172055000Y-117660436D01*
%TO.C,TP22*%
X112650000Y-130800000D02*
G75*
G03*
X112650000Y-130800000I-700000J0D01*
G01*
%TO.C,TP2*%
X115000000Y-112900000D02*
G75*
G03*
X115000000Y-112900000I-700000J0D01*
G01*
%TO.C,TP26*%
X159320000Y-132437500D02*
G75*
G03*
X159320000Y-132437500I-700000J0D01*
G01*
%TO.C,C16*%
X159485000Y-121848752D02*
X159485000Y-121326248D01*
X160955000Y-121848752D02*
X160955000Y-121326248D01*
%TO.C,SW1*%
X126700000Y-105500000D02*
X126700000Y-104300000D01*
X126700000Y-102700000D02*
X126700000Y-101500000D01*
X126700000Y-101500000D02*
X120300000Y-101500000D01*
X120300000Y-105500000D02*
X126700000Y-105500000D01*
X120300000Y-104300000D02*
X120300000Y-105500000D01*
X120300000Y-101500000D02*
X120300000Y-102700000D01*
%TO.C,TP31*%
X194375000Y-124850000D02*
G75*
G03*
X194375000Y-124850000I-700000J0D01*
G01*
%TO.C,C28*%
X188185000Y-121688748D02*
X188185000Y-122211252D01*
X186715000Y-121688748D02*
X186715000Y-122211252D01*
%TO.C,R48*%
X173247500Y-115652064D02*
X173247500Y-115197936D01*
X174717500Y-115652064D02*
X174717500Y-115197936D01*
%TO.C,R27*%
X148410000Y-117902064D02*
X148410000Y-117447936D01*
X149880000Y-117902064D02*
X149880000Y-117447936D01*
%TO.C,TP12*%
X137700000Y-139800000D02*
G75*
G03*
X137700000Y-139800000I-700000J0D01*
G01*
%TO.C,R24*%
X147780000Y-117435436D02*
X147780000Y-117889564D01*
X146310000Y-117435436D02*
X146310000Y-117889564D01*
%TO.C,TP40*%
X176800000Y-137700000D02*
G75*
G03*
X176800000Y-137700000I-700000J0D01*
G01*
%TO.C,D6*%
X156820000Y-120915000D02*
X154820000Y-120915000D01*
X156820000Y-120915000D02*
X156820000Y-124925000D01*
X154820000Y-120915000D02*
X154820000Y-124925000D01*
%TO.C,R50*%
X145580000Y-131060436D02*
X145580000Y-131514564D01*
X144110000Y-131060436D02*
X144110000Y-131514564D01*
%TO.C,R39*%
X140859564Y-117010000D02*
X140405436Y-117010000D01*
X140859564Y-115540000D02*
X140405436Y-115540000D01*
%TO.C,R9*%
X115839564Y-102735000D02*
X115385436Y-102735000D01*
X115839564Y-101265000D02*
X115385436Y-101265000D01*
%TO.C,U9*%
X203215000Y-127900000D02*
X203215000Y-131550000D01*
X203215000Y-127900000D02*
X203215000Y-125700000D01*
X208735000Y-127900000D02*
X208735000Y-130100000D01*
X208735000Y-127900000D02*
X208735000Y-125700000D01*
%TO.C,TP28*%
X159320000Y-130237500D02*
G75*
G03*
X159320000Y-130237500I-700000J0D01*
G01*
%TO.C,RV4*%
X174440000Y-135257500D02*
X174440000Y-133877500D01*
X174440000Y-135257500D02*
X169200000Y-135257500D01*
X174440000Y-131397500D02*
X174440000Y-130017500D01*
X174440000Y-130017500D02*
X169200000Y-130017500D01*
X169200000Y-135257500D02*
X169200000Y-134676500D01*
X169200000Y-132897500D02*
X169200000Y-132377500D01*
X169200000Y-130597500D02*
X169200000Y-130017500D01*
%TO.C,R60*%
X184302064Y-135110000D02*
X182847936Y-135110000D01*
X184302064Y-133290000D02*
X182847936Y-133290000D01*
%TO.C,R26*%
X166585000Y-118102064D02*
X166585000Y-117647936D01*
X168055000Y-118102064D02*
X168055000Y-117647936D01*
%TO.C,C22*%
X160185000Y-131836252D02*
X160185000Y-131313748D01*
X161655000Y-131836252D02*
X161655000Y-131313748D01*
%TO.C,R6*%
X118565000Y-109427064D02*
X118565000Y-108972936D01*
X120035000Y-109427064D02*
X120035000Y-108972936D01*
%TO.C,TP13*%
X139000000Y-110100000D02*
G75*
G03*
X139000000Y-110100000I-700000J0D01*
G01*
%TO.C,TP30*%
X186075000Y-124850000D02*
G75*
G03*
X186075000Y-124850000I-700000J0D01*
G01*
%TO.C,TP34*%
X195875000Y-134300000D02*
G75*
G03*
X195875000Y-134300000I-700000J0D01*
G01*
%TO.C,C30*%
X190915000Y-122211252D02*
X190915000Y-121688748D01*
X192385000Y-122211252D02*
X192385000Y-121688748D01*
%TO.C,U7*%
X186715000Y-127900000D02*
X186715000Y-131550000D01*
X186715000Y-127900000D02*
X186715000Y-125700000D01*
X192235000Y-127900000D02*
X192235000Y-130100000D01*
X192235000Y-127900000D02*
X192235000Y-125700000D01*
%TO.C,J1*%
X181210000Y-149610000D02*
X173490000Y-149610000D01*
X181210000Y-148390000D02*
X179990000Y-148390000D01*
X181210000Y-141190000D02*
X181210000Y-149610000D01*
X179990000Y-148390000D02*
X179990000Y-143390000D01*
X179990000Y-144390000D02*
X174710000Y-144390000D01*
X179990000Y-143390000D02*
X181210000Y-143390000D01*
X179990000Y-143390000D02*
X179990000Y-141190000D01*
X179990000Y-141190000D02*
X181210000Y-141190000D01*
X178920000Y-147810000D02*
X178600000Y-147890000D01*
X178920000Y-144390000D02*
X178920000Y-147810000D01*
X178900000Y-140700000D02*
X178300000Y-140700000D01*
X178600000Y-147890000D02*
X178280000Y-147810000D01*
X178600000Y-144390000D02*
X178920000Y-144390000D01*
X178600000Y-141300000D02*
X178900000Y-140700000D01*
X178300000Y-140700000D02*
X178600000Y-141300000D01*
X178280000Y-147810000D02*
X178280000Y-144390000D01*
X178280000Y-144390000D02*
X178600000Y-144390000D01*
X177430000Y-143390000D02*
X177270000Y-143390000D01*
X176420000Y-147810000D02*
X176100000Y-147890000D01*
X176420000Y-144390000D02*
X176420000Y-147810000D01*
X176100000Y-147890000D02*
X175780000Y-147810000D01*
X176100000Y-144390000D02*
X176420000Y-144390000D01*
X175780000Y-147810000D02*
X175780000Y-144390000D01*
X175780000Y-144390000D02*
X176100000Y-144390000D01*
X174710000Y-148390000D02*
X174710000Y-143390000D01*
X174710000Y-143390000D02*
X173490000Y-143390000D01*
X174710000Y-141190000D02*
X174710000Y-143390000D01*
X173490000Y-149610000D02*
X173490000Y-141190000D01*
X173490000Y-148390000D02*
X174710000Y-148390000D01*
X173490000Y-141190000D02*
X174710000Y-141190000D01*
%TO.C,TP44*%
X202575000Y-124850000D02*
G75*
G03*
X202575000Y-124850000I-700000J0D01*
G01*
%TO.C,TP25*%
X147900000Y-114200000D02*
G75*
G03*
X147900000Y-114200000I-700000J0D01*
G01*
%TO.C,JP2*%
X115312500Y-108400000D02*
X115912500Y-108400000D01*
X116612500Y-109100000D02*
X116612500Y-110500000D01*
X114612500Y-110500000D02*
X114612500Y-109100000D01*
X115912500Y-111200000D02*
X115312500Y-111200000D01*
X116612500Y-109100000D02*
G75*
G03*
X115912500Y-108400000I-699999J1D01*
G01*
X115312500Y-108400000D02*
G75*
G03*
X114612500Y-109100000I-1J-699999D01*
G01*
X115912500Y-111200000D02*
G75*
G03*
X116612500Y-110500000I0J700000D01*
G01*
X114612500Y-110500000D02*
G75*
G03*
X115312500Y-111200000I700000J0D01*
G01*
%TO.C,TP1*%
X129700000Y-110900000D02*
G75*
G03*
X129700000Y-110900000I-700000J0D01*
G01*
%TO.C,TP8*%
X149850000Y-139800000D02*
G75*
G03*
X149850000Y-139800000I-700000J0D01*
G01*
%TO.C,C2*%
X130935000Y-107438748D02*
X130935000Y-107961252D01*
X129465000Y-107438748D02*
X129465000Y-107961252D01*
%TO.C,TP19*%
X113100000Y-136700000D02*
G75*
G03*
X113100000Y-136700000I-700000J0D01*
G01*
%TO.C,R4*%
X114935000Y-117497936D02*
X114935000Y-117952064D01*
X113465000Y-117497936D02*
X113465000Y-117952064D01*
%TO.C,R22*%
X166055000Y-117660436D02*
X166055000Y-118114564D01*
X164585000Y-117660436D02*
X164585000Y-118114564D01*
%TO.C,C11*%
X126388748Y-135977500D02*
X126911252Y-135977500D01*
X126388748Y-137447500D02*
X126911252Y-137447500D01*
%TO.C,TP15*%
X127400000Y-110900000D02*
G75*
G03*
X127400000Y-110900000I-700000J0D01*
G01*
%TO.C,R46*%
X159759564Y-128672500D02*
X159305436Y-128672500D01*
X159759564Y-127202500D02*
X159305436Y-127202500D01*
%TO.C,R45*%
X149780000Y-131060436D02*
X149780000Y-131514564D01*
X148310000Y-131060436D02*
X148310000Y-131514564D01*
%TO.C,RV2*%
X143220000Y-141880000D02*
X141840000Y-141880000D01*
X143220000Y-141880000D02*
X143220000Y-147120000D01*
X139360000Y-141880000D02*
X137980000Y-141880000D01*
X137980000Y-141880000D02*
X137980000Y-147120000D01*
X143220000Y-147120000D02*
X142639000Y-147120000D01*
X140860000Y-147120000D02*
X140340000Y-147120000D01*
X138560000Y-147120000D02*
X137980000Y-147120000D01*
%TO.C,JP15*%
X172032500Y-114537500D02*
X172032500Y-115137500D01*
X171332500Y-115837500D02*
X169932500Y-115837500D01*
X169932500Y-113837500D02*
X171332500Y-113837500D01*
X169232500Y-115137500D02*
X169232500Y-114537500D01*
X171332500Y-115837500D02*
G75*
G03*
X172032500Y-115137500I1J699999D01*
G01*
X172032500Y-114537500D02*
G75*
G03*
X171332500Y-113837500I-699999J1D01*
G01*
X169232500Y-115137500D02*
G75*
G03*
X169932500Y-115837500I700000J0D01*
G01*
X169932500Y-113837500D02*
G75*
G03*
X169232500Y-114537500I0J-700000D01*
G01*
%TO.C,C25*%
X146210000Y-131586252D02*
X146210000Y-131063748D01*
X147680000Y-131586252D02*
X147680000Y-131063748D01*
%TO.C,C8*%
X115611252Y-137427500D02*
X115088748Y-137427500D01*
X115611252Y-135957500D02*
X115088748Y-135957500D01*
%TO.C,C27*%
X155085000Y-119236252D02*
X155085000Y-118713748D01*
X156555000Y-119236252D02*
X156555000Y-118713748D01*
%TO.C,C35*%
X179835000Y-121688748D02*
X179835000Y-122211252D01*
X178365000Y-121688748D02*
X178365000Y-122211252D01*
%TO.C,C29*%
X196410000Y-121688748D02*
X196410000Y-122211252D01*
X194940000Y-121688748D02*
X194940000Y-122211252D01*
%TO.C,J3*%
X100422500Y-140860000D02*
X100422500Y-133140000D01*
X101642500Y-140860000D02*
X101642500Y-139640000D01*
X108842500Y-140860000D02*
X100422500Y-140860000D01*
X101642500Y-139640000D02*
X106642500Y-139640000D01*
X105642500Y-139640000D02*
X105642500Y-134360000D01*
X106642500Y-139640000D02*
X106642500Y-140860000D01*
X106642500Y-139640000D02*
X108842500Y-139640000D01*
X108842500Y-139640000D02*
X108842500Y-140860000D01*
X102222500Y-138570000D02*
X102142500Y-138250000D01*
X105642500Y-138570000D02*
X102222500Y-138570000D01*
X109332500Y-138550000D02*
X109332500Y-137950000D01*
X102142500Y-138250000D02*
X102222500Y-137930000D01*
X105642500Y-138250000D02*
X105642500Y-138570000D01*
X108732500Y-138250000D02*
X109332500Y-138550000D01*
X109332500Y-137950000D02*
X108732500Y-138250000D01*
X102222500Y-137930000D02*
X105642500Y-137930000D01*
X105642500Y-137930000D02*
X105642500Y-138250000D01*
X106642500Y-137080000D02*
X106642500Y-136920000D01*
X102222500Y-136070000D02*
X102142500Y-135750000D01*
X105642500Y-136070000D02*
X102222500Y-136070000D01*
X102142500Y-135750000D02*
X102222500Y-135430000D01*
X105642500Y-135750000D02*
X105642500Y-136070000D01*
X102222500Y-135430000D02*
X105642500Y-135430000D01*
X105642500Y-135430000D02*
X105642500Y-135750000D01*
X101642500Y-134360000D02*
X106642500Y-134360000D01*
X106642500Y-134360000D02*
X106642500Y-133140000D01*
X108842500Y-134360000D02*
X106642500Y-134360000D01*
X100422500Y-133140000D02*
X108842500Y-133140000D01*
X101642500Y-133140000D02*
X101642500Y-134360000D01*
X108842500Y-133140000D02*
X108842500Y-134360000D01*
%TO.C,JP4*%
X111400000Y-108400000D02*
X112000000Y-108400000D01*
X112700000Y-109100000D02*
X112700000Y-110500000D01*
X110700000Y-110500000D02*
X110700000Y-109100000D01*
X112000000Y-111200000D02*
X111400000Y-111200000D01*
X112700000Y-109100000D02*
G75*
G03*
X112000000Y-108400000I-699999J1D01*
G01*
X111400000Y-108400000D02*
G75*
G03*
X110700000Y-109100000I-1J-699999D01*
G01*
X112000000Y-111200000D02*
G75*
G03*
X112700000Y-110500000I0J700000D01*
G01*
X110700000Y-110500000D02*
G75*
G03*
X111400000Y-111200000I700000J0D01*
G01*
%TO.C,D5*%
X174920000Y-120927500D02*
X172920000Y-120927500D01*
X174920000Y-120927500D02*
X174920000Y-124937500D01*
X172920000Y-120927500D02*
X172920000Y-124937500D01*
%TO.C,R54*%
X191752064Y-135122500D02*
X190297936Y-135122500D01*
X191752064Y-133302500D02*
X190297936Y-133302500D01*
%TO.C,JP1*%
X144900000Y-140550000D02*
X144300000Y-140550000D01*
X143600000Y-139850000D02*
X143600000Y-138450000D01*
X145600000Y-138450000D02*
X145600000Y-139850000D01*
X144300000Y-137750000D02*
X144900000Y-137750000D01*
X143600000Y-139850000D02*
G75*
G03*
X144300000Y-140550000I699999J-1D01*
G01*
X144900000Y-140550000D02*
G75*
G03*
X145600000Y-139850000I1J699999D01*
G01*
X144300000Y-137750000D02*
G75*
G03*
X143600000Y-138450000I0J-700000D01*
G01*
X145600000Y-138450000D02*
G75*
G03*
X144900000Y-137750000I-700000J0D01*
G01*
%TO.C,TP11*%
X135300000Y-139800000D02*
G75*
G03*
X135300000Y-139800000I-700000J0D01*
G01*
%TO.C,C38*%
X205240000Y-122211252D02*
X205240000Y-121688748D01*
X206710000Y-122211252D02*
X206710000Y-121688748D01*
%TO.C,TP10*%
X132900000Y-139800000D02*
G75*
G03*
X132900000Y-139800000I-700000J0D01*
G01*
%TO.C,C9*%
X115611252Y-141647500D02*
X115088748Y-141647500D01*
X115611252Y-140177500D02*
X115088748Y-140177500D01*
%TO.C,C17*%
X141510000Y-121686252D02*
X141510000Y-121163748D01*
X142980000Y-121686252D02*
X142980000Y-121163748D01*
%TO.C,R36*%
X140859564Y-114910000D02*
X140405436Y-114910000D01*
X140859564Y-113440000D02*
X140405436Y-113440000D01*
%TO.C,R18*%
X126635000Y-141472936D02*
X126635000Y-141927064D01*
X125165000Y-141472936D02*
X125165000Y-141927064D01*
%TO.C,TP29*%
X141100000Y-130200000D02*
G75*
G03*
X141100000Y-130200000I-700000J0D01*
G01*
%TO.C,C19*%
X162296248Y-115802500D02*
X162818752Y-115802500D01*
X162296248Y-117272500D02*
X162818752Y-117272500D01*
%TO.C,TP32*%
X188175000Y-134200000D02*
G75*
G03*
X188175000Y-134200000I-700000J0D01*
G01*
%TO.C,J13*%
X167640000Y-100390000D02*
X177860000Y-100390000D01*
X167640000Y-101610000D02*
X168860000Y-101610000D01*
X167640000Y-108810000D02*
X167640000Y-100390000D01*
X168860000Y-101610000D02*
X168860000Y-106610000D01*
X168860000Y-105610000D02*
X176640000Y-105610000D01*
X168860000Y-106610000D02*
X167640000Y-106610000D01*
X168860000Y-106610000D02*
X168860000Y-108810000D01*
X168860000Y-108810000D02*
X167640000Y-108810000D01*
X169930000Y-102190000D02*
X170250000Y-102110000D01*
X169930000Y-105610000D02*
X169930000Y-102190000D01*
X169950000Y-109300000D02*
X170550000Y-109300000D01*
X170250000Y-102110000D02*
X170570000Y-102190000D01*
X170250000Y-105610000D02*
X169930000Y-105610000D01*
X170250000Y-108700000D02*
X169950000Y-109300000D01*
X170550000Y-109300000D02*
X170250000Y-108700000D01*
X170570000Y-102190000D02*
X170570000Y-105610000D01*
X170570000Y-105610000D02*
X170250000Y-105610000D01*
X171420000Y-106610000D02*
X171580000Y-106610000D01*
X172430000Y-102190000D02*
X172750000Y-102110000D01*
X172430000Y-105610000D02*
X172430000Y-102190000D01*
X172750000Y-102110000D02*
X173070000Y-102190000D01*
X172750000Y-105610000D02*
X172430000Y-105610000D01*
X173070000Y-102190000D02*
X173070000Y-105610000D01*
X173070000Y-105610000D02*
X172750000Y-105610000D01*
X173920000Y-106610000D02*
X174080000Y-106610000D01*
X174930000Y-102190000D02*
X175250000Y-102110000D01*
X174930000Y-105610000D02*
X174930000Y-102190000D01*
X175250000Y-102110000D02*
X175570000Y-102190000D01*
X175250000Y-105610000D02*
X174930000Y-105610000D01*
X175570000Y-102190000D02*
X175570000Y-105610000D01*
X175570000Y-105610000D02*
X175250000Y-105610000D01*
X176640000Y-101610000D02*
X176640000Y-106610000D01*
X176640000Y-106610000D02*
X177860000Y-106610000D01*
X176640000Y-108810000D02*
X176640000Y-106610000D01*
X177860000Y-100390000D02*
X177860000Y-108810000D01*
X177860000Y-101610000D02*
X176640000Y-101610000D01*
X177860000Y-108810000D02*
X176640000Y-108810000D01*
%TO.C,C18*%
X162818752Y-115172500D02*
X162296248Y-115172500D01*
X162818752Y-113702500D02*
X162296248Y-113702500D01*
%TO.C,TP14*%
X139000000Y-107900000D02*
G75*
G03*
X139000000Y-107900000I-700000J0D01*
G01*
%TO.C,SW2*%
X131600000Y-101500000D02*
X131600000Y-102700000D01*
X131600000Y-104300000D02*
X131600000Y-105500000D01*
X131600000Y-105500000D02*
X138000000Y-105500000D01*
X138000000Y-101500000D02*
X131600000Y-101500000D01*
X138000000Y-102700000D02*
X138000000Y-101500000D01*
X138000000Y-105500000D02*
X138000000Y-104300000D01*
%TO.C,R42*%
X156555000Y-127447936D02*
X156555000Y-127902064D01*
X155085000Y-127447936D02*
X155085000Y-127902064D01*
%TO.C,U10*%
X178540000Y-127900000D02*
X178540000Y-131550000D01*
X178540000Y-127900000D02*
X178540000Y-125700000D01*
X184060000Y-127900000D02*
X184060000Y-130100000D01*
X184060000Y-127900000D02*
X184060000Y-125700000D01*
%TO.C,R57*%
X176565000Y-130377064D02*
X176565000Y-129922936D01*
X178035000Y-130377064D02*
X178035000Y-129922936D01*
%TO.C,C21*%
X143933748Y-115540000D02*
X144456252Y-115540000D01*
X143933748Y-117010000D02*
X144456252Y-117010000D01*
%TO.C,C32*%
X188815000Y-122211252D02*
X188815000Y-121688748D01*
X190285000Y-122211252D02*
X190285000Y-121688748D01*
%TO.C,R19*%
X111972936Y-146277500D02*
X112427064Y-146277500D01*
X111972936Y-147747500D02*
X112427064Y-147747500D01*
%TO.C,R49*%
X163755000Y-131335436D02*
X163755000Y-131789564D01*
X162285000Y-131335436D02*
X162285000Y-131789564D01*
%TO.C,R1*%
X124860436Y-107765000D02*
X125314564Y-107765000D01*
X124860436Y-109235000D02*
X125314564Y-109235000D01*
%TO.C,R8*%
X183029469Y-117013470D02*
X183483597Y-117013470D01*
X183029469Y-118483470D02*
X183483597Y-118483470D01*
%TO.C,C15*%
X104338748Y-130065000D02*
X104861252Y-130065000D01*
X104338748Y-131535000D02*
X104861252Y-131535000D01*
%TO.C,R52*%
X184815000Y-130377064D02*
X184815000Y-129922936D01*
X186285000Y-130377064D02*
X186285000Y-129922936D01*
%TO.C,L1*%
X118850000Y-141772500D02*
X118000000Y-141772500D01*
X123550000Y-141772500D02*
X122750000Y-141772500D01*
X117390000Y-141162500D02*
X117390000Y-135462500D01*
X124210000Y-135462500D02*
X124210000Y-141112500D01*
X118000000Y-134852500D02*
X118850000Y-134852500D01*
X122750000Y-134852500D02*
X123600000Y-134852500D01*
X117390000Y-141162500D02*
G75*
G03*
X118000000Y-141772500I610000J0D01*
G01*
X123550000Y-141772500D02*
G75*
G03*
X124210000Y-141112500I-2J660002D01*
G01*
X118000000Y-134852500D02*
G75*
G03*
X117390000Y-135462500I0J-610000D01*
G01*
X124210000Y-135462500D02*
G75*
G03*
X123600000Y-134852500I-610000J0D01*
G01*
%TO.C,D2*%
X113285000Y-103415000D02*
X110115000Y-103415000D01*
X110115000Y-103415000D02*
X110115000Y-107300000D01*
X113285000Y-107300000D02*
X113285000Y-103415000D01*
%TO.C,TP47*%
X207075000Y-136700000D02*
G75*
G03*
X207075000Y-136700000I-700000J0D01*
G01*
%TO.C,TP18*%
X139200000Y-120900000D02*
G75*
G03*
X139200000Y-120900000I-700000J0D01*
G01*
%TO.C,Q1*%
X111962500Y-145522500D02*
X113637500Y-145522500D01*
X111962500Y-145522500D02*
X111312500Y-145522500D01*
X111962500Y-142402500D02*
X112612500Y-142402500D01*
X111962500Y-142402500D02*
X111312500Y-142402500D01*
%TO.C,TP9*%
X135200000Y-137200000D02*
G75*
G03*
X135200000Y-137200000I-700000J0D01*
G01*
%TO.C,TP4*%
X132000000Y-110900000D02*
G75*
G03*
X132000000Y-110900000I-700000J0D01*
G01*
%TO.C,R40*%
X159485000Y-125364564D02*
X159485000Y-124910436D01*
X160955000Y-125364564D02*
X160955000Y-124910436D01*
%TO.C,C36*%
X207340000Y-122211252D02*
X207340000Y-121688748D01*
X208810000Y-122211252D02*
X208810000Y-121688748D01*
%TO.C,R38*%
X159222064Y-117272500D02*
X158767936Y-117272500D01*
X159222064Y-115802500D02*
X158767936Y-115802500D01*
%TO.C,TP41*%
X185600000Y-137700000D02*
G75*
G03*
X185600000Y-137700000I-700000J0D01*
G01*
%TO.C,C4*%
X138935000Y-123538748D02*
X138935000Y-124061252D01*
X137465000Y-123538748D02*
X137465000Y-124061252D01*
%TO.C,R3*%
X112835000Y-117497936D02*
X112835000Y-117952064D01*
X111365000Y-117497936D02*
X111365000Y-117952064D01*
%TO.C,U3*%
X108190000Y-129050000D02*
X108190000Y-123040000D01*
X115010000Y-126800000D02*
X115010000Y-123040000D01*
X108190000Y-123040000D02*
X109450000Y-123040000D01*
X115010000Y-123040000D02*
X113750000Y-123040000D01*
%TO.C,R51*%
X155085000Y-115602064D02*
X155085000Y-115147936D01*
X156555000Y-115602064D02*
X156555000Y-115147936D01*
%TO.C,TP46*%
X203637500Y-134287500D02*
G75*
G03*
X203637500Y-134287500I-700000J0D01*
G01*
%TO.C,R2*%
X111365000Y-114339564D02*
X111365000Y-113885436D01*
X112835000Y-114339564D02*
X112835000Y-113885436D01*
%TO.C,J4*%
X190040000Y-100390000D02*
X200260000Y-100390000D01*
X190040000Y-101610000D02*
X191260000Y-101610000D01*
X190040000Y-108810000D02*
X190040000Y-100390000D01*
X191260000Y-101610000D02*
X191260000Y-106610000D01*
X191260000Y-105610000D02*
X199040000Y-105610000D01*
X191260000Y-106610000D02*
X190040000Y-106610000D01*
X191260000Y-106610000D02*
X191260000Y-108810000D01*
X191260000Y-108810000D02*
X190040000Y-108810000D01*
X192330000Y-102190000D02*
X192650000Y-102110000D01*
X192330000Y-105610000D02*
X192330000Y-102190000D01*
X192350000Y-109300000D02*
X192950000Y-109300000D01*
X192650000Y-102110000D02*
X192970000Y-102190000D01*
X192650000Y-105610000D02*
X192330000Y-105610000D01*
X192650000Y-108700000D02*
X192350000Y-109300000D01*
X192950000Y-109300000D02*
X192650000Y-108700000D01*
X192970000Y-102190000D02*
X192970000Y-105610000D01*
X192970000Y-105610000D02*
X192650000Y-105610000D01*
X193820000Y-106610000D02*
X193980000Y-106610000D01*
X194830000Y-102190000D02*
X195150000Y-102110000D01*
X194830000Y-105610000D02*
X194830000Y-102190000D01*
X195150000Y-102110000D02*
X195470000Y-102190000D01*
X195150000Y-105610000D02*
X194830000Y-105610000D01*
X195470000Y-102190000D02*
X195470000Y-105610000D01*
X195470000Y-105610000D02*
X195150000Y-105610000D01*
X196320000Y-106610000D02*
X196480000Y-106610000D01*
X197330000Y-102190000D02*
X197650000Y-102110000D01*
X197330000Y-105610000D02*
X197330000Y-102190000D01*
X197650000Y-102110000D02*
X197970000Y-102190000D01*
X197650000Y-105610000D02*
X197330000Y-105610000D01*
X197970000Y-102190000D02*
X197970000Y-105610000D01*
X197970000Y-105610000D02*
X197650000Y-105610000D01*
X199040000Y-101610000D02*
X199040000Y-106610000D01*
X199040000Y-106610000D02*
X200260000Y-106610000D01*
X199040000Y-108810000D02*
X199040000Y-106610000D01*
X200260000Y-100390000D02*
X200260000Y-108810000D01*
X200260000Y-101610000D02*
X199040000Y-101610000D01*
X200260000Y-108810000D02*
X199040000Y-108810000D01*
%TO.C,JP6*%
X139700000Y-140550000D02*
X139100000Y-140550000D01*
X138400000Y-139850000D02*
X138400000Y-138450000D01*
X140400000Y-138450000D02*
X140400000Y-139850000D01*
X139100000Y-137750000D02*
X139700000Y-137750000D01*
X138400000Y-139850000D02*
G75*
G03*
X139100000Y-140550000I699999J-1D01*
G01*
X139700000Y-140550000D02*
G75*
G03*
X140400000Y-139850000I1J699999D01*
G01*
X139100000Y-137750000D02*
G75*
G03*
X138400000Y-138450000I0J-700000D01*
G01*
X140400000Y-138450000D02*
G75*
G03*
X139700000Y-137750000I-700000J0D01*
G01*
%TO.C,J11*%
X169160000Y-149577500D02*
X161440000Y-149577500D01*
X169160000Y-148357500D02*
X167940000Y-148357500D01*
X169160000Y-141157500D02*
X169160000Y-149577500D01*
X167940000Y-148357500D02*
X167940000Y-143357500D01*
X167940000Y-144357500D02*
X162660000Y-144357500D01*
X167940000Y-143357500D02*
X169160000Y-143357500D01*
X167940000Y-143357500D02*
X167940000Y-141157500D01*
X167940000Y-141157500D02*
X169160000Y-141157500D01*
X166870000Y-147777500D02*
X166550000Y-147857500D01*
X166870000Y-144357500D02*
X166870000Y-147777500D01*
X166850000Y-140667500D02*
X166250000Y-140667500D01*
X166550000Y-147857500D02*
X166230000Y-147777500D01*
X166550000Y-144357500D02*
X166870000Y-144357500D01*
X166550000Y-141267500D02*
X166850000Y-140667500D01*
X166250000Y-140667500D02*
X166550000Y-141267500D01*
X166230000Y-147777500D02*
X166230000Y-144357500D01*
X166230000Y-144357500D02*
X166550000Y-144357500D01*
X165380000Y-143357500D02*
X165220000Y-143357500D01*
X164370000Y-147777500D02*
X164050000Y-147857500D01*
X164370000Y-144357500D02*
X164370000Y-147777500D01*
X164050000Y-147857500D02*
X163730000Y-147777500D01*
X164050000Y-144357500D02*
X164370000Y-144357500D01*
X163730000Y-147777500D02*
X163730000Y-144357500D01*
X163730000Y-144357500D02*
X164050000Y-144357500D01*
X162660000Y-148357500D02*
X162660000Y-143357500D01*
X162660000Y-143357500D02*
X161440000Y-143357500D01*
X162660000Y-141157500D02*
X162660000Y-143357500D01*
X161440000Y-149577500D02*
X161440000Y-141157500D01*
X161440000Y-148357500D02*
X162660000Y-148357500D01*
X161440000Y-141157500D02*
X162660000Y-141157500D01*
%TO.C,C14*%
X109211252Y-131535000D02*
X108688748Y-131535000D01*
X109211252Y-130065000D02*
X108688748Y-130065000D01*
%TO.C,C20*%
X144456252Y-114910000D02*
X143933748Y-114910000D01*
X144456252Y-113440000D02*
X143933748Y-113440000D01*
%TO.C,D1*%
X117197500Y-103415000D02*
X114027500Y-103415000D01*
X114027500Y-103415000D02*
X114027500Y-107300000D01*
X117197500Y-107300000D02*
X117197500Y-103415000D01*
%TO.C,TP7*%
X125100000Y-110900000D02*
G75*
G03*
X125100000Y-110900000I-700000J0D01*
G01*
%TO.C,J6*%
X198660000Y-149577500D02*
X190940000Y-149577500D01*
X198660000Y-148357500D02*
X197440000Y-148357500D01*
X198660000Y-141157500D02*
X198660000Y-149577500D01*
X197440000Y-148357500D02*
X197440000Y-143357500D01*
X197440000Y-144357500D02*
X192160000Y-144357500D01*
X197440000Y-143357500D02*
X198660000Y-143357500D01*
X197440000Y-143357500D02*
X197440000Y-141157500D01*
X197440000Y-141157500D02*
X198660000Y-141157500D01*
X196370000Y-147777500D02*
X196050000Y-147857500D01*
X196370000Y-144357500D02*
X196370000Y-147777500D01*
X196350000Y-140667500D02*
X195750000Y-140667500D01*
X196050000Y-147857500D02*
X195730000Y-147777500D01*
X196050000Y-144357500D02*
X196370000Y-144357500D01*
X196050000Y-141267500D02*
X196350000Y-140667500D01*
X195750000Y-140667500D02*
X196050000Y-141267500D01*
X195730000Y-147777500D02*
X195730000Y-144357500D01*
X195730000Y-144357500D02*
X196050000Y-144357500D01*
X194880000Y-143357500D02*
X194720000Y-143357500D01*
X193870000Y-147777500D02*
X193550000Y-147857500D01*
X193870000Y-144357500D02*
X193870000Y-147777500D01*
X193550000Y-147857500D02*
X193230000Y-147777500D01*
X193550000Y-144357500D02*
X193870000Y-144357500D01*
X193230000Y-147777500D02*
X193230000Y-144357500D01*
X193230000Y-144357500D02*
X193550000Y-144357500D01*
X192160000Y-148357500D02*
X192160000Y-143357500D01*
X192160000Y-143357500D02*
X190940000Y-143357500D01*
X192160000Y-141157500D02*
X192160000Y-143357500D01*
X190940000Y-149577500D02*
X190940000Y-141157500D01*
X190940000Y-148357500D02*
X192160000Y-148357500D01*
X190940000Y-141157500D02*
X192160000Y-141157500D01*
%TO.C,RV5*%
X156165000Y-135045000D02*
X156165000Y-133665000D01*
X156165000Y-135045000D02*
X150925000Y-135045000D01*
X156165000Y-131185000D02*
X156165000Y-129805000D01*
X156165000Y-129805000D02*
X150925000Y-129805000D01*
X150925000Y-135045000D02*
X150925000Y-134464000D01*
X150925000Y-132685000D02*
X150925000Y-132165000D01*
X150925000Y-130385000D02*
X150925000Y-129805000D01*
%TO.C,JP3*%
X183556533Y-116400000D02*
X182956533Y-116400000D01*
X182256533Y-115700000D02*
X182256533Y-114300000D01*
X184256533Y-114300000D02*
X184256533Y-115700000D01*
X182956533Y-113600000D02*
X183556533Y-113600000D01*
X182256533Y-115700000D02*
G75*
G03*
X182956533Y-116400000I699999J-1D01*
G01*
X183556533Y-116400000D02*
G75*
G03*
X184256533Y-115700000I1J699999D01*
G01*
X182956533Y-113600000D02*
G75*
G03*
X182256533Y-114300000I0J-700000D01*
G01*
X184256533Y-114300000D02*
G75*
G03*
X183556533Y-113600000I-700000J0D01*
G01*
%TO.C,R58*%
X177947936Y-133290000D02*
X179402064Y-133290000D01*
X177947936Y-135110000D02*
X179402064Y-135110000D01*
%TO.C,C31*%
X199140000Y-122211252D02*
X199140000Y-121688748D01*
X200610000Y-122211252D02*
X200610000Y-121688748D01*
%TO.C,J7*%
X160460000Y-149577500D02*
X152740000Y-149577500D01*
X160460000Y-148357500D02*
X159240000Y-148357500D01*
X160460000Y-141157500D02*
X160460000Y-149577500D01*
X159240000Y-148357500D02*
X159240000Y-143357500D01*
X159240000Y-144357500D02*
X153960000Y-144357500D01*
X159240000Y-143357500D02*
X160460000Y-143357500D01*
X159240000Y-143357500D02*
X159240000Y-141157500D01*
X159240000Y-141157500D02*
X160460000Y-141157500D01*
X158170000Y-147777500D02*
X157850000Y-147857500D01*
X158170000Y-144357500D02*
X158170000Y-147777500D01*
X158150000Y-140667500D02*
X157550000Y-140667500D01*
X157850000Y-147857500D02*
X157530000Y-147777500D01*
X157850000Y-144357500D02*
X158170000Y-144357500D01*
X157850000Y-141267500D02*
X158150000Y-140667500D01*
X157550000Y-140667500D02*
X157850000Y-141267500D01*
X157530000Y-147777500D02*
X157530000Y-144357500D01*
X157530000Y-144357500D02*
X157850000Y-144357500D01*
X156680000Y-143357500D02*
X156520000Y-143357500D01*
X155670000Y-147777500D02*
X155350000Y-147857500D01*
X155670000Y-144357500D02*
X155670000Y-147777500D01*
X155350000Y-147857500D02*
X155030000Y-147777500D01*
X155350000Y-144357500D02*
X155670000Y-144357500D01*
X155030000Y-147777500D02*
X155030000Y-144357500D01*
X155030000Y-144357500D02*
X155350000Y-144357500D01*
X153960000Y-148357500D02*
X153960000Y-143357500D01*
X153960000Y-143357500D02*
X152740000Y-143357500D01*
X153960000Y-141157500D02*
X153960000Y-143357500D01*
X152740000Y-149577500D02*
X152740000Y-141157500D01*
X152740000Y-148357500D02*
X153960000Y-148357500D01*
X152740000Y-141157500D02*
X153960000Y-141157500D01*
%TO.C,TP35*%
X202575000Y-127150000D02*
G75*
G03*
X202575000Y-127150000I-700000J0D01*
G01*
%TO.C,R33*%
X159222064Y-115172500D02*
X158767936Y-115172500D01*
X159222064Y-113702500D02*
X158767936Y-113702500D01*
%TO.C,R28*%
X168585000Y-118102064D02*
X168585000Y-117647936D01*
X170055000Y-118102064D02*
X170055000Y-117647936D01*
%TO.C,R30*%
X150510000Y-117902064D02*
X150510000Y-117447936D01*
X151980000Y-117902064D02*
X151980000Y-117447936D01*
%TO.C,C24*%
X164385000Y-131836252D02*
X164385000Y-131313748D01*
X165855000Y-131836252D02*
X165855000Y-131313748D01*
%TO.C,TP42*%
X179300000Y-137700000D02*
G75*
G03*
X179300000Y-137700000I-700000J0D01*
G01*
%TO.C,D4*%
X127215000Y-144585000D02*
X130385000Y-144585000D01*
X130385000Y-144585000D02*
X130385000Y-140700000D01*
X127215000Y-140700000D02*
X127215000Y-144585000D01*
%TO.C,C10*%
X124385001Y-145051247D02*
X124385001Y-145573751D01*
X122915001Y-145051247D02*
X122915001Y-145573751D01*
%TO.C,TP16*%
X122100000Y-112135000D02*
G75*
G03*
X122100000Y-112135000I-700000J0D01*
G01*
%TO.C,C6*%
X120165000Y-123061252D02*
X120165000Y-122538748D01*
X121635000Y-123061252D02*
X121635000Y-122538748D01*
%TO.C,R44*%
X167955000Y-131335436D02*
X167955000Y-131789564D01*
X166485000Y-131335436D02*
X166485000Y-131789564D01*
%TO.C,R41*%
X141510000Y-125214564D02*
X141510000Y-124760436D01*
X142980000Y-125214564D02*
X142980000Y-124760436D01*
%TO.C,R55*%
X199477064Y-135222500D02*
X198022936Y-135222500D01*
X199477064Y-133402500D02*
X198022936Y-133402500D01*
%TO.C,R34*%
X158780436Y-117902500D02*
X159234564Y-117902500D01*
X158780436Y-119372500D02*
X159234564Y-119372500D01*
%TO.C,U5*%
X172120000Y-121877500D02*
X171280000Y-121877500D01*
X171280000Y-121877500D02*
X171280000Y-120187500D01*
X161700000Y-121877500D02*
X162540000Y-121877500D01*
X172120000Y-124637500D02*
X172120000Y-121877500D01*
X172120000Y-124637500D02*
X172120000Y-127397500D01*
X161700000Y-124637500D02*
X161700000Y-121877500D01*
X161700000Y-124637500D02*
X161700000Y-127397500D01*
X172120000Y-127397500D02*
X171280000Y-127397500D01*
X161700000Y-127397500D02*
X162540000Y-127397500D01*
%TO.C,R47*%
X141684564Y-128510000D02*
X141230436Y-128510000D01*
X141684564Y-127040000D02*
X141230436Y-127040000D01*
%TO.C,SW3*%
X193357360Y-118050857D02*
X193357360Y-116850857D01*
X193357360Y-115250857D02*
X193357360Y-114050857D01*
X193357360Y-114050857D02*
X186957360Y-114050857D01*
X186957360Y-118050857D02*
X193357360Y-118050857D01*
X186957360Y-116850857D02*
X186957360Y-118050857D01*
X186957360Y-114050857D02*
X186957360Y-115250857D01*
%TO.C,R43*%
X174655000Y-127610436D02*
X174655000Y-128064564D01*
X173185000Y-127610436D02*
X173185000Y-128064564D01*
%TO.C,TP24*%
X166382500Y-114437500D02*
G75*
G03*
X166382500Y-114437500I-700000J0D01*
G01*
%TO.C,RV1*%
X149120000Y-141880000D02*
X147740000Y-141880000D01*
X149120000Y-141880000D02*
X149120000Y-147120000D01*
X145260000Y-141880000D02*
X143880000Y-141880000D01*
X143880000Y-141880000D02*
X143880000Y-147120000D01*
X149120000Y-147120000D02*
X148539000Y-147120000D01*
X146760000Y-147120000D02*
X146240000Y-147120000D01*
X144460000Y-147120000D02*
X143880000Y-147120000D01*
%TO.C,TP20*%
X113100000Y-141012500D02*
G75*
G03*
X113100000Y-141012500I-700000J0D01*
G01*
%TO.C,R20*%
X129027064Y-146735000D02*
X128572936Y-146735000D01*
X129027064Y-145265000D02*
X128572936Y-145265000D01*
%TO.C,R17*%
X117065000Y-145539564D02*
X117065000Y-145085436D01*
X118535000Y-145539564D02*
X118535000Y-145085436D01*
%TO.C,C5*%
X133788748Y-114365000D02*
X134311252Y-114365000D01*
X133788748Y-115835000D02*
X134311252Y-115835000D01*
%TO.C,C34*%
X204610000Y-121688748D02*
X204610000Y-122211252D01*
X203140000Y-121688748D02*
X203140000Y-122211252D01*
%TO.C,R25*%
X144384564Y-119110000D02*
X143930436Y-119110000D01*
X144384564Y-117640000D02*
X143930436Y-117640000D01*
%TO.C,R37*%
X140405436Y-117640000D02*
X140859564Y-117640000D01*
X140405436Y-119110000D02*
X140859564Y-119110000D01*
%TO.C,R7*%
X120715000Y-109449564D02*
X120715000Y-108995436D01*
X122185000Y-109449564D02*
X122185000Y-108995436D01*
%TO.C,TP53*%
X194300000Y-137700000D02*
G75*
G03*
X194300000Y-137700000I-700000J0D01*
G01*
%TO.C,R5*%
X133327064Y-109235000D02*
X132872936Y-109235000D01*
X133327064Y-107765000D02*
X132872936Y-107765000D01*
%TO.C,RV3*%
X137320000Y-141880000D02*
X135940000Y-141880000D01*
X137320000Y-141880000D02*
X137320000Y-147120000D01*
X133460000Y-141880000D02*
X132080000Y-141880000D01*
X132080000Y-141880000D02*
X132080000Y-147120000D01*
X137320000Y-147120000D02*
X136739000Y-147120000D01*
X134960000Y-147120000D02*
X134440000Y-147120000D01*
X132660000Y-147120000D02*
X132080000Y-147120000D01*
%TO.C,TP21*%
X114900000Y-130800000D02*
G75*
G03*
X114900000Y-130800000I-700000J0D01*
G01*
%TO.C,U6*%
X154145000Y-121652500D02*
X153305000Y-121652500D01*
X153305000Y-121652500D02*
X153305000Y-119962500D01*
X143725000Y-121652500D02*
X144565000Y-121652500D01*
X154145000Y-124412500D02*
X154145000Y-121652500D01*
X154145000Y-124412500D02*
X154145000Y-127172500D01*
X143725000Y-124412500D02*
X143725000Y-121652500D01*
X143725000Y-124412500D02*
X143725000Y-127172500D01*
X154145000Y-127172500D02*
X153305000Y-127172500D01*
X143725000Y-127172500D02*
X144565000Y-127172500D01*
%TO.C,R12*%
X131515000Y-136652064D02*
X131515000Y-136197936D01*
X132985000Y-136652064D02*
X132985000Y-136197936D01*
%TO.C,JP5*%
X142300000Y-140550000D02*
X141700000Y-140550000D01*
X141000000Y-139850000D02*
X141000000Y-138450000D01*
X143000000Y-138450000D02*
X143000000Y-139850000D01*
X141700000Y-137750000D02*
X142300000Y-137750000D01*
X141000000Y-139850000D02*
G75*
G03*
X141700000Y-140550000I699999J-1D01*
G01*
X142300000Y-140550000D02*
G75*
G03*
X143000000Y-139850000I1J699999D01*
G01*
X141700000Y-137750000D02*
G75*
G03*
X141000000Y-138450000I0J-700000D01*
G01*
X143000000Y-138450000D02*
G75*
G03*
X142300000Y-137750000I-700000J0D01*
G01*
%TO.C,TP54*%
X196800000Y-137700000D02*
G75*
G03*
X196800000Y-137700000I-700000J0D01*
G01*
%TO.C,U1*%
X122273369Y-122800000D02*
X122945120Y-123471751D01*
X122945120Y-123471751D02*
X121997597Y-124419275D01*
X129500000Y-130026631D02*
X128828249Y-129354880D01*
X122945120Y-122128249D02*
X122273369Y-122800000D01*
X130171751Y-129354880D02*
X129500000Y-130026631D01*
X128828249Y-116245120D02*
X129500000Y-115573369D01*
X136054880Y-123471751D02*
X136726631Y-122800000D01*
X129500000Y-115573369D02*
X130171751Y-116245120D01*
X136726631Y-122800000D02*
X136054880Y-122128249D01*
%TO.C,TP23*%
X102200000Y-130800000D02*
G75*
G03*
X102200000Y-130800000I-700000J0D01*
G01*
%TO.C,TP5*%
X135200000Y-135012500D02*
G75*
G03*
X135200000Y-135012500I-700000J0D01*
G01*
%TO.C,J10*%
X119430000Y-132670000D02*
X118100000Y-132670000D01*
X119430000Y-131340000D02*
X119430000Y-132670000D01*
X119430000Y-130070000D02*
X119430000Y-117310000D01*
X119430000Y-130070000D02*
X116770000Y-130070000D01*
X119430000Y-117310000D02*
X116770000Y-117310000D01*
X116770000Y-130070000D02*
X116770000Y-117310000D01*
%TO.C,C37*%
X182565000Y-122211252D02*
X182565000Y-121688748D01*
X184035000Y-122211252D02*
X184035000Y-121688748D01*
%TO.C,C3*%
X134161252Y-131335000D02*
X133638748Y-131335000D01*
X134161252Y-129865000D02*
X133638748Y-129865000D01*
%TO.C,R10*%
X111472936Y-101265000D02*
X111927064Y-101265000D01*
X111472936Y-102735000D02*
X111927064Y-102735000D01*
%TO.C,TP43*%
X188100000Y-137700000D02*
G75*
G03*
X188100000Y-137700000I-700000J0D01*
G01*
%TO.C,C1*%
X128735000Y-107438748D02*
X128735000Y-107961252D01*
X127265000Y-107438748D02*
X127265000Y-107961252D01*
%TO.C,R11*%
X130835000Y-136185436D02*
X130835000Y-136639564D01*
X129365000Y-136185436D02*
X129365000Y-136639564D01*
%TD*%
G36*
X169842971Y-138807029D02*
G01*
X169850000Y-138824000D01*
X169850000Y-144761097D01*
X169842971Y-144778068D01*
X169837163Y-144780473D01*
X169832539Y-144785097D01*
X169832539Y-149923204D01*
X169837163Y-149927828D01*
X169842971Y-149930234D01*
X169850000Y-149947205D01*
X169850000Y-149976000D01*
X169842971Y-149992971D01*
X169826000Y-150000000D01*
X152074000Y-150000000D01*
X152057029Y-149992971D01*
X152050000Y-149976000D01*
X152050000Y-140466275D01*
X154200448Y-140466275D01*
X154200449Y-140466276D01*
X159099552Y-140466276D01*
X159099553Y-140466275D01*
X162850448Y-140466275D01*
X162850449Y-140466276D01*
X167749552Y-140466276D01*
X167749553Y-140466275D01*
X167749553Y-139042673D01*
X167749552Y-139042672D01*
X162850449Y-139042672D01*
X162850448Y-139042673D01*
X162850448Y-140466275D01*
X159099553Y-140466275D01*
X159099553Y-139042316D01*
X159099552Y-139042315D01*
X154200449Y-139042315D01*
X154200448Y-139042316D01*
X154200448Y-140466275D01*
X152050000Y-140466275D01*
X152050000Y-138824000D01*
X152057029Y-138807029D01*
X152074000Y-138800000D01*
X169826000Y-138800000D01*
X169842971Y-138807029D01*
G37*
G36*
X164642971Y-100007029D02*
G01*
X164650000Y-100024000D01*
X164650000Y-107756335D01*
X164642971Y-107773306D01*
X164637163Y-107775711D01*
X164632539Y-107780336D01*
X164632539Y-110776000D01*
X164625510Y-110792971D01*
X164608539Y-110800000D01*
X159712795Y-110800000D01*
X159695824Y-110792971D01*
X159688795Y-110776000D01*
X159695824Y-110759029D01*
X159697170Y-110757682D01*
X159697170Y-109333724D01*
X159697169Y-109333723D01*
X158702829Y-109333723D01*
X158702828Y-109333724D01*
X158702828Y-110757682D01*
X158704174Y-110759029D01*
X158711203Y-110776000D01*
X158704174Y-110792971D01*
X158687203Y-110800000D01*
X148560966Y-110800000D01*
X148543995Y-110792971D01*
X148536966Y-110776000D01*
X148543995Y-110759029D01*
X148545698Y-110757326D01*
X148545698Y-110233989D01*
X156107590Y-110233989D01*
X156107591Y-110233990D01*
X157292407Y-110233990D01*
X157292408Y-110233988D01*
X157292408Y-109818277D01*
X157292407Y-109818276D01*
X156107591Y-109818276D01*
X156107590Y-109818277D01*
X156107590Y-110233989D01*
X148545698Y-110233989D01*
X148545698Y-109335230D01*
X147502139Y-109335230D01*
X147502138Y-109335231D01*
X147502138Y-110757326D01*
X147503841Y-110759029D01*
X147510870Y-110776000D01*
X147503841Y-110792971D01*
X147486870Y-110800000D01*
X142474000Y-110800000D01*
X142457029Y-110792971D01*
X142450000Y-110776000D01*
X142450000Y-110233989D01*
X144907590Y-110233989D01*
X144907591Y-110233990D01*
X146092407Y-110233990D01*
X146092408Y-110233988D01*
X146092408Y-109818277D01*
X146092407Y-109818276D01*
X144907591Y-109818276D01*
X144907590Y-109818277D01*
X144907590Y-110233989D01*
X142450000Y-110233989D01*
X142450000Y-100024000D01*
X142457029Y-100007029D01*
X142474000Y-100000000D01*
X164626000Y-100000000D01*
X164642971Y-100007029D01*
G37*
G36*
X200692971Y-100007029D02*
G01*
X200700000Y-100024000D01*
X200700000Y-107903954D01*
X200692971Y-107920925D01*
X200676000Y-107927954D01*
X200633034Y-107927954D01*
X200633033Y-107927955D01*
X200633033Y-110876000D01*
X200626004Y-110892971D01*
X200609033Y-110900000D01*
X198327081Y-110900000D01*
X198310110Y-110892971D01*
X198303081Y-110876000D01*
X198310110Y-110859029D01*
X198311456Y-110857683D01*
X198311456Y-109433724D01*
X198311455Y-109433723D01*
X191888543Y-109433723D01*
X191888542Y-109433724D01*
X191888541Y-110857682D01*
X191889888Y-110859029D01*
X191896917Y-110876000D01*
X191889888Y-110892971D01*
X191872917Y-110900000D01*
X187126724Y-110900000D01*
X187109753Y-110892971D01*
X187102724Y-110876000D01*
X187109753Y-110859029D01*
X187111455Y-110857326D01*
X187111456Y-109433724D01*
X187111455Y-109433723D01*
X180688543Y-109433723D01*
X180688542Y-109433724D01*
X180688542Y-110857325D01*
X180690245Y-110859029D01*
X180697274Y-110876000D01*
X180690245Y-110892971D01*
X180673274Y-110900000D01*
X175925730Y-110900000D01*
X175908759Y-110892971D01*
X175901730Y-110876000D01*
X175908759Y-110859029D01*
X175911456Y-110856332D01*
X175911456Y-109433034D01*
X175911455Y-109433033D01*
X169488543Y-109433033D01*
X169488542Y-109433034D01*
X169488542Y-110856332D01*
X169491239Y-110859029D01*
X169498268Y-110876000D01*
X169491239Y-110892971D01*
X169474268Y-110900000D01*
X167224000Y-110900000D01*
X167207029Y-110892971D01*
X167200000Y-110876000D01*
X167200000Y-100024000D01*
X167207029Y-100007029D01*
X167224000Y-100000000D01*
X200676000Y-100000000D01*
X200692971Y-100007029D01*
G37*
G36*
X109292971Y-132707029D02*
G01*
X109300000Y-132724000D01*
X109300000Y-137823001D01*
X109292971Y-137839972D01*
X109276000Y-137847001D01*
X109233034Y-137847001D01*
X109233033Y-137847002D01*
X109233033Y-141276000D01*
X109226004Y-141292971D01*
X109209033Y-141300000D01*
X100024000Y-141300000D01*
X100007029Y-141292971D01*
X100000000Y-141276000D01*
X100000000Y-132724000D01*
X100007029Y-132707029D01*
X100024000Y-132700000D01*
X109276000Y-132700000D01*
X109292971Y-132707029D01*
G37*
G36*
X119891581Y-116849761D02*
G01*
X119898610Y-116866728D01*
X119901000Y-129695520D01*
X119893974Y-129712491D01*
X119877004Y-129719524D01*
X119809781Y-129719524D01*
X119809779Y-129719525D01*
X119809780Y-133176092D01*
X119802751Y-133193063D01*
X119785780Y-133200092D01*
X116222610Y-133200092D01*
X116205639Y-133193063D01*
X116198610Y-133176092D01*
X116198610Y-133176088D01*
X116201648Y-116866728D01*
X116208681Y-116849758D01*
X116225648Y-116842732D01*
X119874610Y-116842732D01*
X119891581Y-116849761D01*
G37*
G36*
X149393814Y-141106784D02*
G01*
X149400843Y-141123755D01*
X149400843Y-146094430D01*
X149393814Y-146111401D01*
X149376843Y-146118430D01*
X149333034Y-146118430D01*
X149333033Y-146118431D01*
X149333033Y-148975755D01*
X149326004Y-148992726D01*
X149309033Y-148999755D01*
X131824843Y-148999755D01*
X131807872Y-148992726D01*
X131800843Y-148975755D01*
X131800843Y-148923491D01*
X134033033Y-148923491D01*
X134033034Y-148923492D01*
X135456332Y-148923492D01*
X135456333Y-148923491D01*
X135456333Y-148922985D01*
X139835230Y-148922985D01*
X139835231Y-148922986D01*
X141257326Y-148922986D01*
X141257327Y-148922985D01*
X141257327Y-148922295D01*
X145833723Y-148922295D01*
X145833724Y-148922296D01*
X147257683Y-148922296D01*
X147257684Y-148922295D01*
X147257684Y-147927955D01*
X147257683Y-147927954D01*
X145833724Y-147927954D01*
X145833723Y-147927955D01*
X145833723Y-148922295D01*
X141257327Y-148922295D01*
X141257327Y-147879427D01*
X141257326Y-147879426D01*
X139835231Y-147879426D01*
X139835230Y-147879427D01*
X139835230Y-148922985D01*
X135456333Y-148922985D01*
X135456333Y-147880336D01*
X135456332Y-147880335D01*
X134033034Y-147880335D01*
X134033033Y-147880336D01*
X134033033Y-148923491D01*
X131800843Y-148923491D01*
X131800843Y-141123755D01*
X131807872Y-141106784D01*
X131824843Y-141099755D01*
X149376843Y-141099755D01*
X149393814Y-141106784D01*
G37*
G36*
X199492971Y-138807029D02*
G01*
X199500000Y-138824000D01*
X199500000Y-149976000D01*
X199492971Y-149992971D01*
X199476000Y-150000000D01*
X172924000Y-150000000D01*
X172907029Y-149992971D01*
X172900000Y-149976000D01*
X172900000Y-140466964D01*
X192350448Y-140466964D01*
X192350449Y-140466966D01*
X197249552Y-140466966D01*
X197249553Y-140466964D01*
X197249553Y-139043667D01*
X197249552Y-139043666D01*
X192350449Y-139043666D01*
X192350448Y-139043667D01*
X192350448Y-140466964D01*
X172900000Y-140466964D01*
X172900000Y-140466275D01*
X174950448Y-140466275D01*
X174950449Y-140466276D01*
X179849552Y-140466276D01*
X179849553Y-140466275D01*
X183650448Y-140466275D01*
X183650449Y-140466276D01*
X188549552Y-140466276D01*
X188549553Y-140466275D01*
X188549553Y-139042673D01*
X188549552Y-139042672D01*
X183650449Y-139042672D01*
X183650448Y-139042673D01*
X183650448Y-140466275D01*
X179849553Y-140466275D01*
X179849553Y-139042316D01*
X179849552Y-139042315D01*
X174950449Y-139042315D01*
X174950448Y-139042316D01*
X174950448Y-140466275D01*
X172900000Y-140466275D01*
X172900000Y-138824000D01*
X172907029Y-138807029D01*
X172924000Y-138800000D01*
X199476000Y-138800000D01*
X199492971Y-138807029D01*
G37*
G36*
X195050325Y-113554842D02*
G01*
X195057360Y-113571811D01*
X195057360Y-115724287D01*
X195050331Y-115741258D01*
X195033360Y-115748287D01*
X194968559Y-115748287D01*
X194968559Y-118526821D01*
X194961530Y-118543792D01*
X194944559Y-118550821D01*
X194944552Y-118550821D01*
X185123993Y-118547818D01*
X185107024Y-118540783D01*
X185100000Y-118523818D01*
X185100000Y-113574849D01*
X185107029Y-113557878D01*
X185123993Y-113550849D01*
X195033353Y-113547818D01*
X195050325Y-113554842D01*
G37*
G36*
X108992971Y-108807029D02*
G01*
X109000000Y-108824000D01*
X109000000Y-114641359D01*
X108992971Y-114658330D01*
X108976000Y-114665359D01*
X108932540Y-114665359D01*
X108932539Y-114665360D01*
X108932539Y-119376000D01*
X108925510Y-119392971D01*
X108908539Y-119400000D01*
X100024000Y-119400000D01*
X100007029Y-119392971D01*
X100000000Y-119376000D01*
X100000000Y-108824000D01*
X100007029Y-108807029D01*
X100024000Y-108800000D01*
X108976000Y-108800000D01*
X108992971Y-108807029D01*
G37*
%LPC*%
D13*
%TO.C,TP33*%
X193675000Y-127150000D03*
%TD*%
D14*
%TO.C,U8*%
X197775000Y-127900000D03*
D15*
X195500000Y-130762500D03*
X196150000Y-130762500D03*
X196800000Y-130762500D03*
X197450000Y-130762500D03*
X198100000Y-130762500D03*
X198750000Y-130762500D03*
X199400000Y-130762500D03*
X200050000Y-130762500D03*
X200050000Y-125037500D03*
X199400000Y-125037500D03*
X198750000Y-125037500D03*
X198100000Y-125037500D03*
X197450000Y-125037500D03*
X196800000Y-125037500D03*
X196150000Y-125037500D03*
X195500000Y-125037500D03*
%TD*%
D16*
%TO.C,R21*%
X125900000Y-144387500D03*
X125900000Y-146212500D03*
%TD*%
%TO.C,R29*%
X158120000Y-124225000D03*
X158120000Y-126050000D03*
%TD*%
D17*
%TO.C,J2*%
X187350000Y-142800000D03*
D18*
X184850000Y-142800000D03*
%TD*%
D19*
%TO.C,R56*%
X201975000Y-131062500D03*
X201975000Y-129237500D03*
%TD*%
D20*
%TO.C,R59*%
X207937500Y-134300000D03*
X205012500Y-134300000D03*
%TD*%
D21*
%TO.C,H4*%
X202600000Y-145000000D03*
X203302944Y-143302944D03*
X203302944Y-146697056D03*
X205000000Y-142600000D03*
D22*
X205000000Y-145000000D03*
D21*
X205000000Y-147400000D03*
X206697056Y-143302944D03*
X206697056Y-146697056D03*
X207400000Y-145000000D03*
%TD*%
D13*
%TO.C,TP45*%
X177275000Y-127250000D03*
%TD*%
D16*
%TO.C,R31*%
X140145000Y-124075000D03*
X140145000Y-125900000D03*
%TD*%
D13*
%TO.C,TP27*%
X140400000Y-132400000D03*
%TD*%
D23*
%TO.C,U4*%
X101650000Y-128100000D03*
X103950000Y-128100000D03*
D24*
X103950000Y-121800000D03*
D23*
X106250000Y-128100000D03*
%TD*%
D19*
%TO.C,R35*%
X153345000Y-118587500D03*
X153345000Y-116762500D03*
%TD*%
D25*
%TO.C,D3*%
X115500000Y-142962500D03*
X115500000Y-146262500D03*
%TD*%
D13*
%TO.C,TP6*%
X147000000Y-139800000D03*
%TD*%
D26*
%TO.C,J12*%
X145500000Y-107200000D03*
D27*
X148000000Y-107200000D03*
X150500000Y-107200000D03*
%TD*%
D26*
%TO.C,J9*%
X181450000Y-107200000D03*
D27*
X183950000Y-107200000D03*
X186450000Y-107200000D03*
%TD*%
D28*
%TO.C,JP16*%
X153320000Y-114575000D03*
D29*
X152020000Y-114575000D03*
%TD*%
D30*
%TO.C,C12*%
X125700000Y-138822500D03*
X127600000Y-138822500D03*
%TD*%
D13*
%TO.C,TP3*%
X114300000Y-114900000D03*
%TD*%
D31*
%TO.C,C33*%
X197775000Y-122900000D03*
X197775000Y-121000000D03*
%TD*%
D13*
%TO.C,TP17*%
X119250000Y-112135000D03*
%TD*%
D32*
%TO.C,R23*%
X163432500Y-118637500D03*
X161607500Y-118637500D03*
%TD*%
D33*
%TO.C,U2*%
X121750000Y-143937499D03*
X120799999Y-143937499D03*
X119850001Y-143937499D03*
X119850001Y-146487499D03*
X120799999Y-146487499D03*
X121750000Y-146487499D03*
%TD*%
D13*
%TO.C,TP48*%
X185375000Y-127150000D03*
%TD*%
D31*
%TO.C,C26*%
X173982500Y-119975000D03*
X173982500Y-118075000D03*
%TD*%
D34*
%TO.C,J5*%
X106605000Y-111210000D03*
X106605000Y-116990000D03*
D35*
X107725000Y-110900000D03*
X107725000Y-111700000D03*
D36*
X107725000Y-112850000D03*
X107725000Y-113850000D03*
X107725000Y-114350000D03*
X107725000Y-115350000D03*
D35*
X107725000Y-116500000D03*
X107725000Y-117300000D03*
X107725000Y-117300000D03*
X107725000Y-116500000D03*
D36*
X107725000Y-115850000D03*
X107725000Y-114850000D03*
X107725000Y-113350000D03*
X107725000Y-112350000D03*
D35*
X107725000Y-111700000D03*
X107725000Y-110900000D03*
D37*
X107125000Y-109780000D03*
D38*
X102925000Y-109780000D03*
D37*
X107125000Y-118420000D03*
D38*
X102925000Y-118420000D03*
%TD*%
D26*
%TO.C,J8*%
X156700000Y-107200000D03*
D27*
X159200000Y-107200000D03*
X161700000Y-107200000D03*
%TD*%
D31*
%TO.C,C23*%
X142745000Y-132225000D03*
X142745000Y-130325000D03*
%TD*%
%TO.C,C39*%
X181200000Y-122900000D03*
X181200000Y-121000000D03*
%TD*%
D39*
%TO.C,C7*%
X116300000Y-138802500D03*
X114400000Y-138802500D03*
%TD*%
D19*
%TO.C,R53*%
X193775000Y-131062500D03*
X193775000Y-129237500D03*
%TD*%
D30*
%TO.C,C13*%
X125700000Y-134622500D03*
X127600000Y-134622500D03*
%TD*%
D19*
%TO.C,R32*%
X171320000Y-118800000D03*
X171320000Y-116975000D03*
%TD*%
D13*
%TO.C,TP22*%
X111950000Y-130800000D03*
%TD*%
%TO.C,TP2*%
X114300000Y-112900000D03*
%TD*%
D21*
%TO.C,H1*%
X102600000Y-105000000D03*
X103302944Y-103302944D03*
X103302944Y-106697056D03*
X105000000Y-102600000D03*
D22*
X105000000Y-105000000D03*
D21*
X105000000Y-107400000D03*
X106697056Y-103302944D03*
X106697056Y-106697056D03*
X107400000Y-105000000D03*
%TD*%
D13*
%TO.C,TP26*%
X158620000Y-132437500D03*
%TD*%
D31*
%TO.C,C16*%
X160220000Y-122537500D03*
X160220000Y-120637500D03*
%TD*%
D40*
%TO.C,SW1*%
X127375000Y-103500000D03*
X119625000Y-103500000D03*
%TD*%
D13*
%TO.C,TP31*%
X193675000Y-124850000D03*
%TD*%
D41*
%TO.C,C28*%
X187450000Y-121000000D03*
X187450000Y-122900000D03*
%TD*%
D19*
%TO.C,R48*%
X173982500Y-116337500D03*
X173982500Y-114512500D03*
%TD*%
%TO.C,R27*%
X149145000Y-118587500D03*
X149145000Y-116762500D03*
%TD*%
D13*
%TO.C,TP12*%
X137000000Y-139800000D03*
%TD*%
D16*
%TO.C,R24*%
X147045000Y-116750000D03*
X147045000Y-118575000D03*
%TD*%
D13*
%TO.C,TP40*%
X176100000Y-137700000D03*
%TD*%
D25*
%TO.C,D6*%
X155820000Y-121625000D03*
X155820000Y-124925000D03*
%TD*%
D16*
%TO.C,R50*%
X144845000Y-130375000D03*
X144845000Y-132200000D03*
%TD*%
D32*
%TO.C,R39*%
X141545000Y-116275000D03*
X139720000Y-116275000D03*
%TD*%
%TO.C,R9*%
X116525000Y-102000000D03*
X114700000Y-102000000D03*
%TD*%
D14*
%TO.C,U9*%
X205975000Y-127900000D03*
D15*
X203700000Y-130762500D03*
X204350000Y-130762500D03*
X205000000Y-130762500D03*
X205650000Y-130762500D03*
X206300000Y-130762500D03*
X206950000Y-130762500D03*
X207600000Y-130762500D03*
X208250000Y-130762500D03*
X208250000Y-125037500D03*
X207600000Y-125037500D03*
X206950000Y-125037500D03*
X206300000Y-125037500D03*
X205650000Y-125037500D03*
X205000000Y-125037500D03*
X204350000Y-125037500D03*
X203700000Y-125037500D03*
%TD*%
D13*
%TO.C,TP28*%
X158620000Y-130237500D03*
%TD*%
D42*
%TO.C,RV4*%
X169820000Y-133787500D03*
D43*
X173820000Y-132637500D03*
D42*
X169820000Y-131487500D03*
%TD*%
D20*
%TO.C,R60*%
X185037500Y-134200000D03*
X182112500Y-134200000D03*
%TD*%
D19*
%TO.C,R26*%
X167320000Y-118787500D03*
X167320000Y-116962500D03*
%TD*%
D31*
%TO.C,C22*%
X160920000Y-132525000D03*
X160920000Y-130625000D03*
%TD*%
D19*
%TO.C,R6*%
X119300000Y-110112500D03*
X119300000Y-108287500D03*
%TD*%
D13*
%TO.C,TP13*%
X138300000Y-110100000D03*
%TD*%
%TO.C,TP30*%
X185375000Y-124850000D03*
%TD*%
%TO.C,TP34*%
X195175000Y-134300000D03*
%TD*%
D31*
%TO.C,C30*%
X191650000Y-122900000D03*
X191650000Y-121000000D03*
%TD*%
D14*
%TO.C,U7*%
X189475000Y-127900000D03*
D15*
X187200000Y-130762500D03*
X187850000Y-130762500D03*
X188500000Y-130762500D03*
X189150000Y-130762500D03*
X189800000Y-130762500D03*
X190450000Y-130762500D03*
X191100000Y-130762500D03*
X191750000Y-130762500D03*
X191750000Y-125037500D03*
X191100000Y-125037500D03*
X190450000Y-125037500D03*
X189800000Y-125037500D03*
X189150000Y-125037500D03*
X188500000Y-125037500D03*
X187850000Y-125037500D03*
X187200000Y-125037500D03*
%TD*%
D17*
%TO.C,J1*%
X178600000Y-142800000D03*
D18*
X176100000Y-142800000D03*
%TD*%
D13*
%TO.C,TP44*%
X201875000Y-124850000D03*
%TD*%
%TO.C,TP25*%
X147200000Y-114200000D03*
%TD*%
D44*
%TO.C,JP2*%
X115612500Y-109150000D03*
D45*
X115612500Y-110450000D03*
%TD*%
D13*
%TO.C,TP1*%
X129000000Y-110900000D03*
%TD*%
%TO.C,TP8*%
X149150000Y-139800000D03*
%TD*%
D41*
%TO.C,C2*%
X130200000Y-106750000D03*
X130200000Y-108650000D03*
%TD*%
D13*
%TO.C,TP19*%
X112400000Y-136700000D03*
%TD*%
D16*
%TO.C,R4*%
X114200000Y-116812500D03*
X114200000Y-118637500D03*
%TD*%
%TO.C,R22*%
X165320000Y-116975000D03*
X165320000Y-118800000D03*
%TD*%
D30*
%TO.C,C11*%
X125700000Y-136712500D03*
X127600000Y-136712500D03*
%TD*%
D13*
%TO.C,TP15*%
X126700000Y-110900000D03*
%TD*%
D32*
%TO.C,R46*%
X160445000Y-127937500D03*
X158620000Y-127937500D03*
%TD*%
D16*
%TO.C,R45*%
X149045000Y-130375000D03*
X149045000Y-132200000D03*
%TD*%
D46*
%TO.C,RV2*%
X141750000Y-146500000D03*
D43*
X140600000Y-142500000D03*
D46*
X139450000Y-146500000D03*
%TD*%
D28*
%TO.C,JP15*%
X171282500Y-114837500D03*
D29*
X169982500Y-114837500D03*
%TD*%
D31*
%TO.C,C25*%
X146945000Y-132275000D03*
X146945000Y-130375000D03*
%TD*%
D39*
%TO.C,C8*%
X116300000Y-136692500D03*
X114400000Y-136692500D03*
%TD*%
D31*
%TO.C,C27*%
X155820000Y-119925000D03*
X155820000Y-118025000D03*
%TD*%
D41*
%TO.C,C35*%
X179100000Y-121000000D03*
X179100000Y-122900000D03*
%TD*%
%TO.C,C29*%
X195675000Y-121000000D03*
X195675000Y-122900000D03*
%TD*%
D47*
%TO.C,J3*%
X107232500Y-138250000D03*
D48*
X107232500Y-135750000D03*
%TD*%
D44*
%TO.C,JP4*%
X111700000Y-109150000D03*
D45*
X111700000Y-110450000D03*
%TD*%
D25*
%TO.C,D5*%
X173920000Y-121637500D03*
X173920000Y-124937500D03*
%TD*%
D20*
%TO.C,R54*%
X192487500Y-134212500D03*
X189562500Y-134212500D03*
%TD*%
D49*
%TO.C,JP1*%
X144600000Y-139800000D03*
D50*
X144600000Y-138500000D03*
%TD*%
D13*
%TO.C,TP11*%
X134600000Y-139800000D03*
%TD*%
D31*
%TO.C,C38*%
X205975000Y-122900000D03*
X205975000Y-121000000D03*
%TD*%
D13*
%TO.C,TP10*%
X132200000Y-139800000D03*
%TD*%
D39*
%TO.C,C9*%
X116300000Y-140912500D03*
X114400000Y-140912500D03*
%TD*%
D31*
%TO.C,C17*%
X142245000Y-122375000D03*
X142245000Y-120475000D03*
%TD*%
D32*
%TO.C,R36*%
X141545000Y-114175000D03*
X139720000Y-114175000D03*
%TD*%
D16*
%TO.C,R18*%
X125900000Y-140787500D03*
X125900000Y-142612500D03*
%TD*%
D13*
%TO.C,TP29*%
X140400000Y-130200000D03*
%TD*%
D30*
%TO.C,C19*%
X161607500Y-116537500D03*
X163507500Y-116537500D03*
%TD*%
D13*
%TO.C,TP32*%
X187475000Y-134200000D03*
%TD*%
D26*
%TO.C,J13*%
X170250000Y-107200000D03*
D27*
X172750000Y-107200000D03*
X175250000Y-107200000D03*
%TD*%
D39*
%TO.C,C18*%
X163507500Y-114437500D03*
X161607500Y-114437500D03*
%TD*%
D13*
%TO.C,TP14*%
X138300000Y-107900000D03*
%TD*%
D40*
%TO.C,SW2*%
X130925000Y-103500000D03*
X138675000Y-103500000D03*
%TD*%
D16*
%TO.C,R42*%
X155820000Y-126762500D03*
X155820000Y-128587500D03*
%TD*%
D14*
%TO.C,U10*%
X181300000Y-127900000D03*
D15*
X179025000Y-130762500D03*
X179675000Y-130762500D03*
X180325000Y-130762500D03*
X180975000Y-130762500D03*
X181625000Y-130762500D03*
X182275000Y-130762500D03*
X182925000Y-130762500D03*
X183575000Y-130762500D03*
X183575000Y-125037500D03*
X182925000Y-125037500D03*
X182275000Y-125037500D03*
X181625000Y-125037500D03*
X180975000Y-125037500D03*
X180325000Y-125037500D03*
X179675000Y-125037500D03*
X179025000Y-125037500D03*
%TD*%
D19*
%TO.C,R57*%
X177300000Y-131062500D03*
X177300000Y-129237500D03*
%TD*%
D30*
%TO.C,C21*%
X143245000Y-116275000D03*
X145145000Y-116275000D03*
%TD*%
D31*
%TO.C,C32*%
X189550000Y-122900000D03*
X189550000Y-121000000D03*
%TD*%
D51*
%TO.C,R19*%
X111287500Y-147012500D03*
X113112500Y-147012500D03*
%TD*%
D16*
%TO.C,R49*%
X163020000Y-130650000D03*
X163020000Y-132475000D03*
%TD*%
D51*
%TO.C,R1*%
X124175000Y-108500000D03*
X126000000Y-108500000D03*
%TD*%
%TO.C,R8*%
X182344033Y-117748470D03*
X184169033Y-117748470D03*
%TD*%
D30*
%TO.C,C15*%
X103650000Y-130800000D03*
X105550000Y-130800000D03*
%TD*%
D19*
%TO.C,R52*%
X185550000Y-131062500D03*
X185550000Y-129237500D03*
%TD*%
D52*
%TO.C,L1*%
X120800000Y-141037500D03*
X120800000Y-135587500D03*
%TD*%
D53*
%TO.C,D2*%
X111700000Y-104300000D03*
X111700000Y-107100000D03*
%TD*%
D13*
%TO.C,TP47*%
X206375000Y-136700000D03*
%TD*%
%TO.C,TP18*%
X138500000Y-120900000D03*
%TD*%
D54*
%TO.C,Q1*%
X112900000Y-144912500D03*
X112900000Y-143012500D03*
X111025000Y-143962500D03*
%TD*%
D13*
%TO.C,TP9*%
X134500000Y-137200000D03*
%TD*%
%TO.C,TP4*%
X131300000Y-110900000D03*
%TD*%
D19*
%TO.C,R40*%
X160220000Y-126050000D03*
X160220000Y-124225000D03*
%TD*%
D31*
%TO.C,C36*%
X208075000Y-122900000D03*
X208075000Y-121000000D03*
%TD*%
D32*
%TO.C,R38*%
X159907500Y-116537500D03*
X158082500Y-116537500D03*
%TD*%
D13*
%TO.C,TP41*%
X184900000Y-137700000D03*
%TD*%
D41*
%TO.C,C4*%
X138200000Y-122850000D03*
X138200000Y-124750000D03*
%TD*%
D16*
%TO.C,R3*%
X112100000Y-116812500D03*
X112100000Y-118637500D03*
%TD*%
D23*
%TO.C,U3*%
X109300000Y-128100000D03*
X111600000Y-128100000D03*
D24*
X111600000Y-121800000D03*
D23*
X113900000Y-128100000D03*
%TD*%
D19*
%TO.C,R51*%
X155820000Y-116287500D03*
X155820000Y-114462500D03*
%TD*%
D13*
%TO.C,TP46*%
X202937500Y-134287500D03*
%TD*%
D19*
%TO.C,R2*%
X112100000Y-115025000D03*
X112100000Y-113200000D03*
%TD*%
D26*
%TO.C,J4*%
X192650000Y-107200000D03*
D27*
X195150000Y-107200000D03*
X197650000Y-107200000D03*
%TD*%
D49*
%TO.C,JP6*%
X139400000Y-139800000D03*
D50*
X139400000Y-138500000D03*
%TD*%
D21*
%TO.C,H3*%
X102600000Y-145000000D03*
X103302944Y-143302944D03*
X103302944Y-146697056D03*
X105000000Y-142600000D03*
D22*
X105000000Y-145000000D03*
D21*
X105000000Y-147400000D03*
X106697056Y-143302944D03*
X106697056Y-146697056D03*
X107400000Y-145000000D03*
%TD*%
D17*
%TO.C,J11*%
X166550000Y-142767500D03*
D18*
X164050000Y-142767500D03*
%TD*%
D39*
%TO.C,C14*%
X109900000Y-130800000D03*
X108000000Y-130800000D03*
%TD*%
%TO.C,C20*%
X145145000Y-114175000D03*
X143245000Y-114175000D03*
%TD*%
D53*
%TO.C,D1*%
X115612500Y-104300000D03*
X115612500Y-107100000D03*
%TD*%
D13*
%TO.C,TP7*%
X124400000Y-110900000D03*
%TD*%
D17*
%TO.C,J6*%
X196050000Y-142767500D03*
D18*
X193550000Y-142767500D03*
%TD*%
D42*
%TO.C,RV5*%
X151545000Y-133575000D03*
D43*
X155545000Y-132425000D03*
D42*
X151545000Y-131275000D03*
%TD*%
D49*
%TO.C,JP3*%
X183256533Y-115650000D03*
D50*
X183256533Y-114350000D03*
%TD*%
D55*
%TO.C,R58*%
X177212500Y-134200000D03*
X180137500Y-134200000D03*
%TD*%
D31*
%TO.C,C31*%
X199875000Y-122900000D03*
X199875000Y-121000000D03*
%TD*%
D17*
%TO.C,J7*%
X157850000Y-142767500D03*
D18*
X155350000Y-142767500D03*
%TD*%
D13*
%TO.C,TP35*%
X201875000Y-127150000D03*
%TD*%
D32*
%TO.C,R33*%
X159907500Y-114437500D03*
X158082500Y-114437500D03*
%TD*%
D19*
%TO.C,R28*%
X169320000Y-118787500D03*
X169320000Y-116962500D03*
%TD*%
%TO.C,R30*%
X151245000Y-118587500D03*
X151245000Y-116762500D03*
%TD*%
D31*
%TO.C,C24*%
X165120000Y-132525000D03*
X165120000Y-130625000D03*
%TD*%
D13*
%TO.C,TP42*%
X178600000Y-137700000D03*
%TD*%
D56*
%TO.C,D4*%
X128800000Y-143700000D03*
X128800000Y-140900000D03*
%TD*%
D41*
%TO.C,C10*%
X123650001Y-144362499D03*
X123650001Y-146262499D03*
%TD*%
D13*
%TO.C,TP16*%
X121400000Y-112135000D03*
%TD*%
D31*
%TO.C,C6*%
X120900000Y-123750000D03*
X120900000Y-121850000D03*
%TD*%
D16*
%TO.C,R44*%
X167220000Y-130650000D03*
X167220000Y-132475000D03*
%TD*%
D19*
%TO.C,R41*%
X142245000Y-125900000D03*
X142245000Y-124075000D03*
%TD*%
D20*
%TO.C,R55*%
X200212500Y-134312500D03*
X197287500Y-134312500D03*
%TD*%
D51*
%TO.C,R34*%
X158095000Y-118637500D03*
X159920000Y-118637500D03*
%TD*%
D57*
%TO.C,U5*%
X170720000Y-121175000D03*
X169450000Y-121175000D03*
X168180000Y-121175000D03*
X166910000Y-121175000D03*
X165640000Y-121175000D03*
X164370000Y-121175000D03*
X163100000Y-121175000D03*
X163100000Y-128100000D03*
X164370000Y-128100000D03*
X165640000Y-128100000D03*
X166910000Y-128100000D03*
X168180000Y-128100000D03*
X169450000Y-128100000D03*
X170720000Y-128100000D03*
%TD*%
D32*
%TO.C,R47*%
X142370000Y-127775000D03*
X140545000Y-127775000D03*
%TD*%
D40*
%TO.C,SW3*%
X194032360Y-116050857D03*
X186282360Y-116050857D03*
%TD*%
D16*
%TO.C,R43*%
X173920000Y-126925000D03*
X173920000Y-128750000D03*
%TD*%
D13*
%TO.C,TP24*%
X165682500Y-114437500D03*
%TD*%
D46*
%TO.C,RV1*%
X147650000Y-146500000D03*
D43*
X146500000Y-142500000D03*
D46*
X145350000Y-146500000D03*
%TD*%
D13*
%TO.C,TP20*%
X112400000Y-141012500D03*
%TD*%
D32*
%TO.C,R20*%
X129712500Y-146000000D03*
X127887500Y-146000000D03*
%TD*%
D21*
%TO.C,H2*%
X202600000Y-105000000D03*
X203302944Y-103302944D03*
X203302944Y-106697056D03*
X205000000Y-102600000D03*
D22*
X205000000Y-105000000D03*
D21*
X205000000Y-107400000D03*
X206697056Y-103302944D03*
X206697056Y-106697056D03*
X207400000Y-105000000D03*
%TD*%
D19*
%TO.C,R17*%
X117800000Y-146225000D03*
X117800000Y-144400000D03*
%TD*%
D30*
%TO.C,C5*%
X133100000Y-115100000D03*
X135000000Y-115100000D03*
%TD*%
D41*
%TO.C,C34*%
X203875000Y-121000000D03*
X203875000Y-122900000D03*
%TD*%
D32*
%TO.C,R25*%
X145070000Y-118375000D03*
X143245000Y-118375000D03*
%TD*%
D51*
%TO.C,R37*%
X139720000Y-118375000D03*
X141545000Y-118375000D03*
%TD*%
D19*
%TO.C,R7*%
X121450000Y-110135000D03*
X121450000Y-108310000D03*
%TD*%
D13*
%TO.C,TP53*%
X193600000Y-137700000D03*
%TD*%
D32*
%TO.C,R5*%
X134012500Y-108500000D03*
X132187500Y-108500000D03*
%TD*%
D46*
%TO.C,RV3*%
X135850000Y-146500000D03*
D43*
X134700000Y-142500000D03*
D46*
X133550000Y-146500000D03*
%TD*%
D13*
%TO.C,TP21*%
X114200000Y-130800000D03*
%TD*%
D57*
%TO.C,U6*%
X152745000Y-120950000D03*
X151475000Y-120950000D03*
X150205000Y-120950000D03*
X148935000Y-120950000D03*
X147665000Y-120950000D03*
X146395000Y-120950000D03*
X145125000Y-120950000D03*
X145125000Y-127875000D03*
X146395000Y-127875000D03*
X147665000Y-127875000D03*
X148935000Y-127875000D03*
X150205000Y-127875000D03*
X151475000Y-127875000D03*
X152745000Y-127875000D03*
%TD*%
D19*
%TO.C,R12*%
X132250000Y-137337500D03*
X132250000Y-135512500D03*
%TD*%
D49*
%TO.C,JP5*%
X142000000Y-139800000D03*
D50*
X142000000Y-138500000D03*
%TD*%
D13*
%TO.C,TP54*%
X196100000Y-137700000D03*
%TD*%
D58*
%TO.C,U1*%
X122835519Y-124161181D03*
X123189072Y-124514734D03*
X123542625Y-124868287D03*
X123896179Y-125221841D03*
X124249732Y-125575394D03*
X124603286Y-125928948D03*
X124956839Y-126282501D03*
X125310392Y-126636054D03*
X125663946Y-126989608D03*
X126017499Y-127343161D03*
X126371052Y-127696714D03*
X126724606Y-128050268D03*
X127078159Y-128403821D03*
X127431713Y-128757375D03*
X127785266Y-129110928D03*
X128138819Y-129464481D03*
D59*
X130861181Y-129464481D03*
X131214734Y-129110928D03*
X131568287Y-128757375D03*
X131921841Y-128403821D03*
X132275394Y-128050268D03*
X132628948Y-127696714D03*
X132982501Y-127343161D03*
X133336054Y-126989608D03*
X133689608Y-126636054D03*
X134043161Y-126282501D03*
X134396714Y-125928948D03*
X134750268Y-125575394D03*
X135103821Y-125221841D03*
X135457375Y-124868287D03*
X135810928Y-124514734D03*
X136164481Y-124161181D03*
D58*
X136164481Y-121438819D03*
X135810928Y-121085266D03*
X135457375Y-120731713D03*
X135103821Y-120378159D03*
X134750268Y-120024606D03*
X134396714Y-119671052D03*
X134043161Y-119317499D03*
X133689608Y-118963946D03*
X133336054Y-118610392D03*
X132982501Y-118256839D03*
X132628948Y-117903286D03*
X132275394Y-117549732D03*
X131921841Y-117196179D03*
X131568287Y-116842625D03*
X131214734Y-116489072D03*
X130861181Y-116135519D03*
D59*
X128138819Y-116135519D03*
X127785266Y-116489072D03*
X127431713Y-116842625D03*
X127078159Y-117196179D03*
X126724606Y-117549732D03*
X126371052Y-117903286D03*
X126017499Y-118256839D03*
X125663946Y-118610392D03*
X125310392Y-118963946D03*
X124956839Y-119317499D03*
X124603286Y-119671052D03*
X124249732Y-120024606D03*
X123896179Y-120378159D03*
X123542625Y-120731713D03*
X123189072Y-121085266D03*
X122835519Y-121438819D03*
%TD*%
D13*
%TO.C,TP23*%
X101500000Y-130800000D03*
%TD*%
%TO.C,TP5*%
X134500000Y-135012500D03*
%TD*%
D60*
%TO.C,J10*%
X118100000Y-131340000D03*
D61*
X118100000Y-128800000D03*
X118100000Y-126260000D03*
X118100000Y-123720000D03*
X118100000Y-121180000D03*
X118100000Y-118640000D03*
%TD*%
D31*
%TO.C,C37*%
X183300000Y-122900000D03*
X183300000Y-121000000D03*
%TD*%
D39*
%TO.C,C3*%
X134850000Y-130600000D03*
X132950000Y-130600000D03*
%TD*%
D51*
%TO.C,R10*%
X110787500Y-102000000D03*
X112612500Y-102000000D03*
%TD*%
D13*
%TO.C,TP43*%
X187400000Y-137700000D03*
%TD*%
D41*
%TO.C,C1*%
X128000000Y-106750000D03*
X128000000Y-108650000D03*
%TD*%
D16*
%TO.C,R11*%
X130100000Y-135500000D03*
X130100000Y-137325000D03*
%TD*%
%LPD*%
M02*
