%TF.GenerationSoftware,KiCad,Pcbnew,7.0.7*%
%TF.CreationDate,2024-02-16T21:08:36+01:00*%
%TF.ProjectId,OpenHand,4f70656e-4861-46e6-942e-6b696361645f,rev?*%
%TF.SameCoordinates,Original*%
%TF.FileFunction,Paste,Top*%
%TF.FilePolarity,Positive*%
%FSLAX46Y46*%
G04 Gerber Fmt 4.6, Leading zero omitted, Abs format (unit mm)*
G04 Created by KiCad (PCBNEW 7.0.7) date 2024-02-16 21:08:36*
%MOMM*%
%LPD*%
G01*
G04 APERTURE LIST*
G04 Aperture macros list*
%AMRoundRect*
0 Rectangle with rounded corners*
0 $1 Rounding radius*
0 $2 $3 $4 $5 $6 $7 $8 $9 X,Y pos of 4 corners*
0 Add a 4 corners polygon primitive as box body*
4,1,4,$2,$3,$4,$5,$6,$7,$8,$9,$2,$3,0*
0 Add four circle primitives for the rounded corners*
1,1,$1+$1,$2,$3*
1,1,$1+$1,$4,$5*
1,1,$1+$1,$6,$7*
1,1,$1+$1,$8,$9*
0 Add four rect primitives between the rounded corners*
20,1,$1+$1,$2,$3,$4,$5,0*
20,1,$1+$1,$4,$5,$6,$7,0*
20,1,$1+$1,$6,$7,$8,$9,0*
20,1,$1+$1,$8,$9,$2,$3,0*%
G04 Aperture macros list end*
%ADD10RoundRect,0.232500X0.232500X-0.757500X0.232500X0.757500X-0.232500X0.757500X-0.232500X-0.757500X0*%
%ADD11RoundRect,0.100000X0.100000X-0.687500X0.100000X0.687500X-0.100000X0.687500X-0.100000X-0.687500X0*%
%ADD12RoundRect,0.250000X-0.450000X0.262500X-0.450000X-0.262500X0.450000X-0.262500X0.450000X0.262500X0*%
%ADD13RoundRect,0.250000X0.450000X-0.262500X0.450000X0.262500X-0.450000X0.262500X-0.450000X-0.262500X0*%
%ADD14RoundRect,0.250000X0.312500X0.625000X-0.312500X0.625000X-0.312500X-0.625000X0.312500X-0.625000X0*%
%ADD15R,1.500000X2.000000*%
%ADD16R,3.800000X2.000000*%
%ADD17RoundRect,0.225000X-0.375000X0.225000X-0.375000X-0.225000X0.375000X-0.225000X0.375000X0.225000X0*%
%ADD18RoundRect,0.250000X-0.250000X-0.475000X0.250000X-0.475000X0.250000X0.475000X-0.250000X0.475000X0*%
%ADD19RoundRect,0.250000X0.475000X-0.250000X0.475000X0.250000X-0.475000X0.250000X-0.475000X-0.250000X0*%
%ADD20RoundRect,0.250000X0.262500X0.450000X-0.262500X0.450000X-0.262500X-0.450000X0.262500X-0.450000X0*%
%ADD21R,0.549999X0.800001*%
%ADD22R,1.240000X0.600000*%
%ADD23R,1.240000X0.300000*%
%ADD24RoundRect,0.250000X0.250000X0.475000X-0.250000X0.475000X-0.250000X-0.475000X0.250000X-0.475000X0*%
%ADD25R,1.250000X1.000000*%
%ADD26RoundRect,0.250000X-0.475000X0.250000X-0.475000X-0.250000X0.475000X-0.250000X0.475000X0.250000X0*%
%ADD27R,2.000000X1.300000*%
%ADD28R,2.000000X2.000000*%
%ADD29R,1.300000X2.000000*%
%ADD30RoundRect,0.250000X-0.262500X-0.450000X0.262500X-0.450000X0.262500X0.450000X-0.262500X0.450000X0*%
%ADD31R,3.500000X2.950000*%
%ADD32RoundRect,0.250000X-1.075000X0.375000X-1.075000X-0.375000X1.075000X-0.375000X1.075000X0.375000X0*%
%ADD33RoundRect,0.150000X0.587500X0.150000X-0.587500X0.150000X-0.587500X-0.150000X0.587500X-0.150000X0*%
%ADD34RoundRect,0.250000X-0.312500X-0.625000X0.312500X-0.625000X0.312500X0.625000X-0.312500X0.625000X0*%
%ADD35RoundRect,0.250000X1.075000X-0.375000X1.075000X0.375000X-1.075000X0.375000X-1.075000X-0.375000X0*%
%ADD36RoundRect,0.150000X-0.150000X0.837500X-0.150000X-0.837500X0.150000X-0.837500X0.150000X0.837500X0*%
%ADD37RoundRect,0.075000X-0.441942X-0.548008X0.548008X0.441942X0.441942X0.548008X-0.548008X-0.441942X0*%
%ADD38RoundRect,0.075000X0.441942X-0.548008X0.548008X-0.441942X-0.441942X0.548008X-0.548008X0.441942X0*%
G04 APERTURE END LIST*
D10*
%TO.C,U8*%
X197195000Y-127900000D03*
X198355000Y-127900000D03*
D11*
X195500000Y-130762500D03*
X196150000Y-130762500D03*
X196800000Y-130762500D03*
X197450000Y-130762500D03*
X198100000Y-130762500D03*
X198750000Y-130762500D03*
X199400000Y-130762500D03*
X200050000Y-130762500D03*
X200050000Y-125037500D03*
X199400000Y-125037500D03*
X198750000Y-125037500D03*
X198100000Y-125037500D03*
X197450000Y-125037500D03*
X196800000Y-125037500D03*
X196150000Y-125037500D03*
X195500000Y-125037500D03*
%TD*%
D12*
%TO.C,R21*%
X125900000Y-144387500D03*
X125900000Y-146212500D03*
%TD*%
%TO.C,R29*%
X158120000Y-124225000D03*
X158120000Y-126050000D03*
%TD*%
D13*
%TO.C,R56*%
X201975000Y-131062500D03*
X201975000Y-129237500D03*
%TD*%
D14*
%TO.C,R59*%
X207937500Y-134300000D03*
X205012500Y-134300000D03*
%TD*%
D12*
%TO.C,R31*%
X140145000Y-124075000D03*
X140145000Y-125900000D03*
%TD*%
D15*
%TO.C,U4*%
X101650000Y-128100000D03*
X103950000Y-128100000D03*
D16*
X103950000Y-121800000D03*
D15*
X106250000Y-128100000D03*
%TD*%
D13*
%TO.C,R35*%
X153345000Y-118587500D03*
X153345000Y-116762500D03*
%TD*%
D17*
%TO.C,D3*%
X115500000Y-142962500D03*
X115500000Y-146262500D03*
%TD*%
D18*
%TO.C,C12*%
X125700000Y-138822500D03*
X127600000Y-138822500D03*
%TD*%
D19*
%TO.C,C33*%
X197775000Y-122900000D03*
X197775000Y-121000000D03*
%TD*%
D20*
%TO.C,R23*%
X163432500Y-118637500D03*
X161607500Y-118637500D03*
%TD*%
D21*
%TO.C,U2*%
X121750000Y-143937499D03*
X120799999Y-143937499D03*
X119850001Y-143937499D03*
X119850001Y-146487499D03*
X120799999Y-146487499D03*
X121750000Y-146487499D03*
%TD*%
D19*
%TO.C,C26*%
X173982500Y-119975000D03*
X173982500Y-118075000D03*
%TD*%
D22*
%TO.C,J5*%
X107725000Y-110900000D03*
X107725000Y-111700000D03*
D23*
X107725000Y-112850000D03*
X107725000Y-113850000D03*
X107725000Y-114350000D03*
X107725000Y-115350000D03*
D22*
X107725000Y-116500000D03*
X107725000Y-117300000D03*
X107725000Y-117300000D03*
X107725000Y-116500000D03*
D23*
X107725000Y-115850000D03*
X107725000Y-114850000D03*
X107725000Y-113350000D03*
X107725000Y-112350000D03*
D22*
X107725000Y-111700000D03*
X107725000Y-110900000D03*
%TD*%
D19*
%TO.C,C23*%
X142745000Y-132225000D03*
X142745000Y-130325000D03*
%TD*%
%TO.C,C39*%
X181200000Y-122900000D03*
X181200000Y-121000000D03*
%TD*%
D24*
%TO.C,C7*%
X116300000Y-138802500D03*
X114400000Y-138802500D03*
%TD*%
D13*
%TO.C,R53*%
X193775000Y-131062500D03*
X193775000Y-129237500D03*
%TD*%
D18*
%TO.C,C13*%
X125700000Y-134622500D03*
X127600000Y-134622500D03*
%TD*%
D13*
%TO.C,R32*%
X171320000Y-118800000D03*
X171320000Y-116975000D03*
%TD*%
D19*
%TO.C,C16*%
X160220000Y-122537500D03*
X160220000Y-120637500D03*
%TD*%
D25*
%TO.C,SW1*%
X127375000Y-103500000D03*
X119625000Y-103500000D03*
%TD*%
D26*
%TO.C,C28*%
X187450000Y-121000000D03*
X187450000Y-122900000D03*
%TD*%
D13*
%TO.C,R48*%
X173982500Y-116337500D03*
X173982500Y-114512500D03*
%TD*%
%TO.C,R27*%
X149145000Y-118587500D03*
X149145000Y-116762500D03*
%TD*%
D12*
%TO.C,R24*%
X147045000Y-116750000D03*
X147045000Y-118575000D03*
%TD*%
D17*
%TO.C,D6*%
X155820000Y-121625000D03*
X155820000Y-124925000D03*
%TD*%
D12*
%TO.C,R50*%
X144845000Y-130375000D03*
X144845000Y-132200000D03*
%TD*%
D20*
%TO.C,R39*%
X141545000Y-116275000D03*
X139720000Y-116275000D03*
%TD*%
%TO.C,R9*%
X116525000Y-102000000D03*
X114700000Y-102000000D03*
%TD*%
D10*
%TO.C,U9*%
X205395000Y-127900000D03*
X206555000Y-127900000D03*
D11*
X203700000Y-130762500D03*
X204350000Y-130762500D03*
X205000000Y-130762500D03*
X205650000Y-130762500D03*
X206300000Y-130762500D03*
X206950000Y-130762500D03*
X207600000Y-130762500D03*
X208250000Y-130762500D03*
X208250000Y-125037500D03*
X207600000Y-125037500D03*
X206950000Y-125037500D03*
X206300000Y-125037500D03*
X205650000Y-125037500D03*
X205000000Y-125037500D03*
X204350000Y-125037500D03*
X203700000Y-125037500D03*
%TD*%
D27*
%TO.C,RV4*%
X169820000Y-133787500D03*
D28*
X173820000Y-132637500D03*
D27*
X169820000Y-131487500D03*
%TD*%
D14*
%TO.C,R60*%
X185037500Y-134200000D03*
X182112500Y-134200000D03*
%TD*%
D13*
%TO.C,R26*%
X167320000Y-118787500D03*
X167320000Y-116962500D03*
%TD*%
D19*
%TO.C,C22*%
X160920000Y-132525000D03*
X160920000Y-130625000D03*
%TD*%
D13*
%TO.C,R6*%
X119300000Y-110112500D03*
X119300000Y-108287500D03*
%TD*%
D19*
%TO.C,C30*%
X191650000Y-122900000D03*
X191650000Y-121000000D03*
%TD*%
D10*
%TO.C,U7*%
X188895000Y-127900000D03*
X190055000Y-127900000D03*
D11*
X187200000Y-130762500D03*
X187850000Y-130762500D03*
X188500000Y-130762500D03*
X189150000Y-130762500D03*
X189800000Y-130762500D03*
X190450000Y-130762500D03*
X191100000Y-130762500D03*
X191750000Y-130762500D03*
X191750000Y-125037500D03*
X191100000Y-125037500D03*
X190450000Y-125037500D03*
X189800000Y-125037500D03*
X189150000Y-125037500D03*
X188500000Y-125037500D03*
X187850000Y-125037500D03*
X187200000Y-125037500D03*
%TD*%
D26*
%TO.C,C2*%
X130200000Y-106750000D03*
X130200000Y-108650000D03*
%TD*%
D12*
%TO.C,R4*%
X114200000Y-116812500D03*
X114200000Y-118637500D03*
%TD*%
%TO.C,R22*%
X165320000Y-116975000D03*
X165320000Y-118800000D03*
%TD*%
D18*
%TO.C,C11*%
X125700000Y-136712500D03*
X127600000Y-136712500D03*
%TD*%
D20*
%TO.C,R46*%
X160445000Y-127937500D03*
X158620000Y-127937500D03*
%TD*%
D12*
%TO.C,R45*%
X149045000Y-130375000D03*
X149045000Y-132200000D03*
%TD*%
D29*
%TO.C,RV2*%
X141750000Y-146500000D03*
D28*
X140600000Y-142500000D03*
D29*
X139450000Y-146500000D03*
%TD*%
D19*
%TO.C,C25*%
X146945000Y-132275000D03*
X146945000Y-130375000D03*
%TD*%
D24*
%TO.C,C8*%
X116300000Y-136692500D03*
X114400000Y-136692500D03*
%TD*%
D19*
%TO.C,C27*%
X155820000Y-119925000D03*
X155820000Y-118025000D03*
%TD*%
D26*
%TO.C,C35*%
X179100000Y-121000000D03*
X179100000Y-122900000D03*
%TD*%
%TO.C,C29*%
X195675000Y-121000000D03*
X195675000Y-122900000D03*
%TD*%
D17*
%TO.C,D5*%
X173920000Y-121637500D03*
X173920000Y-124937500D03*
%TD*%
D14*
%TO.C,R54*%
X192487500Y-134212500D03*
X189562500Y-134212500D03*
%TD*%
D19*
%TO.C,C38*%
X205975000Y-122900000D03*
X205975000Y-121000000D03*
%TD*%
D24*
%TO.C,C9*%
X116300000Y-140912500D03*
X114400000Y-140912500D03*
%TD*%
D19*
%TO.C,C17*%
X142245000Y-122375000D03*
X142245000Y-120475000D03*
%TD*%
D20*
%TO.C,R36*%
X141545000Y-114175000D03*
X139720000Y-114175000D03*
%TD*%
D12*
%TO.C,R18*%
X125900000Y-140787500D03*
X125900000Y-142612500D03*
%TD*%
D18*
%TO.C,C19*%
X161607500Y-116537500D03*
X163507500Y-116537500D03*
%TD*%
D24*
%TO.C,C18*%
X163507500Y-114437500D03*
X161607500Y-114437500D03*
%TD*%
D25*
%TO.C,SW2*%
X130925000Y-103500000D03*
X138675000Y-103500000D03*
%TD*%
D12*
%TO.C,R42*%
X155820000Y-126762500D03*
X155820000Y-128587500D03*
%TD*%
D10*
%TO.C,U10*%
X180720000Y-127900000D03*
X181880000Y-127900000D03*
D11*
X179025000Y-130762500D03*
X179675000Y-130762500D03*
X180325000Y-130762500D03*
X180975000Y-130762500D03*
X181625000Y-130762500D03*
X182275000Y-130762500D03*
X182925000Y-130762500D03*
X183575000Y-130762500D03*
X183575000Y-125037500D03*
X182925000Y-125037500D03*
X182275000Y-125037500D03*
X181625000Y-125037500D03*
X180975000Y-125037500D03*
X180325000Y-125037500D03*
X179675000Y-125037500D03*
X179025000Y-125037500D03*
%TD*%
D13*
%TO.C,R57*%
X177300000Y-131062500D03*
X177300000Y-129237500D03*
%TD*%
D18*
%TO.C,C21*%
X143245000Y-116275000D03*
X145145000Y-116275000D03*
%TD*%
D19*
%TO.C,C32*%
X189550000Y-122900000D03*
X189550000Y-121000000D03*
%TD*%
D30*
%TO.C,R19*%
X111287500Y-147012500D03*
X113112500Y-147012500D03*
%TD*%
D12*
%TO.C,R49*%
X163020000Y-130650000D03*
X163020000Y-132475000D03*
%TD*%
D30*
%TO.C,R1*%
X124175000Y-108500000D03*
X126000000Y-108500000D03*
%TD*%
%TO.C,R8*%
X182344033Y-117748470D03*
X184169033Y-117748470D03*
%TD*%
D18*
%TO.C,C15*%
X103650000Y-130800000D03*
X105550000Y-130800000D03*
%TD*%
D13*
%TO.C,R52*%
X185550000Y-131062500D03*
X185550000Y-129237500D03*
%TD*%
D31*
%TO.C,L1*%
X120800000Y-141037500D03*
X120800000Y-135587500D03*
%TD*%
D32*
%TO.C,D2*%
X111700000Y-104300000D03*
X111700000Y-107100000D03*
%TD*%
D33*
%TO.C,Q1*%
X112900000Y-144912500D03*
X112900000Y-143012500D03*
X111025000Y-143962500D03*
%TD*%
D13*
%TO.C,R40*%
X160220000Y-126050000D03*
X160220000Y-124225000D03*
%TD*%
D19*
%TO.C,C36*%
X208075000Y-122900000D03*
X208075000Y-121000000D03*
%TD*%
D20*
%TO.C,R38*%
X159907500Y-116537500D03*
X158082500Y-116537500D03*
%TD*%
D26*
%TO.C,C4*%
X138200000Y-122850000D03*
X138200000Y-124750000D03*
%TD*%
D12*
%TO.C,R3*%
X112100000Y-116812500D03*
X112100000Y-118637500D03*
%TD*%
D15*
%TO.C,U3*%
X109300000Y-128100000D03*
X111600000Y-128100000D03*
D16*
X111600000Y-121800000D03*
D15*
X113900000Y-128100000D03*
%TD*%
D13*
%TO.C,R51*%
X155820000Y-116287500D03*
X155820000Y-114462500D03*
%TD*%
%TO.C,R2*%
X112100000Y-115025000D03*
X112100000Y-113200000D03*
%TD*%
D24*
%TO.C,C14*%
X109900000Y-130800000D03*
X108000000Y-130800000D03*
%TD*%
%TO.C,C20*%
X145145000Y-114175000D03*
X143245000Y-114175000D03*
%TD*%
D32*
%TO.C,D1*%
X115612500Y-104300000D03*
X115612500Y-107100000D03*
%TD*%
D27*
%TO.C,RV5*%
X151545000Y-133575000D03*
D28*
X155545000Y-132425000D03*
D27*
X151545000Y-131275000D03*
%TD*%
D34*
%TO.C,R58*%
X177212500Y-134200000D03*
X180137500Y-134200000D03*
%TD*%
D19*
%TO.C,C31*%
X199875000Y-122900000D03*
X199875000Y-121000000D03*
%TD*%
D20*
%TO.C,R33*%
X159907500Y-114437500D03*
X158082500Y-114437500D03*
%TD*%
D13*
%TO.C,R28*%
X169320000Y-118787500D03*
X169320000Y-116962500D03*
%TD*%
%TO.C,R30*%
X151245000Y-118587500D03*
X151245000Y-116762500D03*
%TD*%
D19*
%TO.C,C24*%
X165120000Y-132525000D03*
X165120000Y-130625000D03*
%TD*%
D35*
%TO.C,D4*%
X128800000Y-143700000D03*
X128800000Y-140900000D03*
%TD*%
D26*
%TO.C,C10*%
X123650001Y-144362499D03*
X123650001Y-146262499D03*
%TD*%
D19*
%TO.C,C6*%
X120900000Y-123750000D03*
X120900000Y-121850000D03*
%TD*%
D12*
%TO.C,R44*%
X167220000Y-130650000D03*
X167220000Y-132475000D03*
%TD*%
D13*
%TO.C,R41*%
X142245000Y-125900000D03*
X142245000Y-124075000D03*
%TD*%
D14*
%TO.C,R55*%
X200212500Y-134312500D03*
X197287500Y-134312500D03*
%TD*%
D30*
%TO.C,R34*%
X158095000Y-118637500D03*
X159920000Y-118637500D03*
%TD*%
D36*
%TO.C,U5*%
X170720000Y-121175000D03*
X169450000Y-121175000D03*
X168180000Y-121175000D03*
X166910000Y-121175000D03*
X165640000Y-121175000D03*
X164370000Y-121175000D03*
X163100000Y-121175000D03*
X163100000Y-128100000D03*
X164370000Y-128100000D03*
X165640000Y-128100000D03*
X166910000Y-128100000D03*
X168180000Y-128100000D03*
X169450000Y-128100000D03*
X170720000Y-128100000D03*
%TD*%
D20*
%TO.C,R47*%
X142370000Y-127775000D03*
X140545000Y-127775000D03*
%TD*%
D25*
%TO.C,SW3*%
X194032360Y-116050857D03*
X186282360Y-116050857D03*
%TD*%
D12*
%TO.C,R43*%
X173920000Y-126925000D03*
X173920000Y-128750000D03*
%TD*%
D29*
%TO.C,RV1*%
X147650000Y-146500000D03*
D28*
X146500000Y-142500000D03*
D29*
X145350000Y-146500000D03*
%TD*%
D20*
%TO.C,R20*%
X129712500Y-146000000D03*
X127887500Y-146000000D03*
%TD*%
D13*
%TO.C,R17*%
X117800000Y-146225000D03*
X117800000Y-144400000D03*
%TD*%
D18*
%TO.C,C5*%
X133100000Y-115100000D03*
X135000000Y-115100000D03*
%TD*%
D26*
%TO.C,C34*%
X203875000Y-121000000D03*
X203875000Y-122900000D03*
%TD*%
D20*
%TO.C,R25*%
X145070000Y-118375000D03*
X143245000Y-118375000D03*
%TD*%
D30*
%TO.C,R37*%
X139720000Y-118375000D03*
X141545000Y-118375000D03*
%TD*%
D13*
%TO.C,R7*%
X121450000Y-110135000D03*
X121450000Y-108310000D03*
%TD*%
D20*
%TO.C,R5*%
X134012500Y-108500000D03*
X132187500Y-108500000D03*
%TD*%
D29*
%TO.C,RV3*%
X135850000Y-146500000D03*
D28*
X134700000Y-142500000D03*
D29*
X133550000Y-146500000D03*
%TD*%
D36*
%TO.C,U6*%
X152745000Y-120950000D03*
X151475000Y-120950000D03*
X150205000Y-120950000D03*
X148935000Y-120950000D03*
X147665000Y-120950000D03*
X146395000Y-120950000D03*
X145125000Y-120950000D03*
X145125000Y-127875000D03*
X146395000Y-127875000D03*
X147665000Y-127875000D03*
X148935000Y-127875000D03*
X150205000Y-127875000D03*
X151475000Y-127875000D03*
X152745000Y-127875000D03*
%TD*%
D13*
%TO.C,R12*%
X132250000Y-137337500D03*
X132250000Y-135512500D03*
%TD*%
D37*
%TO.C,U1*%
X122835519Y-124161181D03*
X123189072Y-124514734D03*
X123542625Y-124868287D03*
X123896179Y-125221841D03*
X124249732Y-125575394D03*
X124603286Y-125928948D03*
X124956839Y-126282501D03*
X125310392Y-126636054D03*
X125663946Y-126989608D03*
X126017499Y-127343161D03*
X126371052Y-127696714D03*
X126724606Y-128050268D03*
X127078159Y-128403821D03*
X127431713Y-128757375D03*
X127785266Y-129110928D03*
X128138819Y-129464481D03*
D38*
X130861181Y-129464481D03*
X131214734Y-129110928D03*
X131568287Y-128757375D03*
X131921841Y-128403821D03*
X132275394Y-128050268D03*
X132628948Y-127696714D03*
X132982501Y-127343161D03*
X133336054Y-126989608D03*
X133689608Y-126636054D03*
X134043161Y-126282501D03*
X134396714Y-125928948D03*
X134750268Y-125575394D03*
X135103821Y-125221841D03*
X135457375Y-124868287D03*
X135810928Y-124514734D03*
X136164481Y-124161181D03*
D37*
X136164481Y-121438819D03*
X135810928Y-121085266D03*
X135457375Y-120731713D03*
X135103821Y-120378159D03*
X134750268Y-120024606D03*
X134396714Y-119671052D03*
X134043161Y-119317499D03*
X133689608Y-118963946D03*
X133336054Y-118610392D03*
X132982501Y-118256839D03*
X132628948Y-117903286D03*
X132275394Y-117549732D03*
X131921841Y-117196179D03*
X131568287Y-116842625D03*
X131214734Y-116489072D03*
X130861181Y-116135519D03*
D38*
X128138819Y-116135519D03*
X127785266Y-116489072D03*
X127431713Y-116842625D03*
X127078159Y-117196179D03*
X126724606Y-117549732D03*
X126371052Y-117903286D03*
X126017499Y-118256839D03*
X125663946Y-118610392D03*
X125310392Y-118963946D03*
X124956839Y-119317499D03*
X124603286Y-119671052D03*
X124249732Y-120024606D03*
X123896179Y-120378159D03*
X123542625Y-120731713D03*
X123189072Y-121085266D03*
X122835519Y-121438819D03*
%TD*%
D19*
%TO.C,C37*%
X183300000Y-122900000D03*
X183300000Y-121000000D03*
%TD*%
D24*
%TO.C,C3*%
X134850000Y-130600000D03*
X132950000Y-130600000D03*
%TD*%
D30*
%TO.C,R10*%
X110787500Y-102000000D03*
X112612500Y-102000000D03*
%TD*%
D26*
%TO.C,C1*%
X128000000Y-106750000D03*
X128000000Y-108650000D03*
%TD*%
D12*
%TO.C,R11*%
X130100000Y-135500000D03*
X130100000Y-137325000D03*
%TD*%
M02*
