%TF.GenerationSoftware,KiCad,Pcbnew,7.0.7*%
%TF.CreationDate,2024-02-16T21:08:36+01:00*%
%TF.ProjectId,OpenHand,4f70656e-4861-46e6-942e-6b696361645f,rev?*%
%TF.SameCoordinates,Original*%
%TF.FileFunction,Legend,Bot*%
%TF.FilePolarity,Positive*%
%FSLAX46Y46*%
G04 Gerber Fmt 4.6, Leading zero omitted, Abs format (unit mm)*
G04 Created by KiCad (PCBNEW 7.0.7) date 2024-02-16 21:08:36*
%MOMM*%
%LPD*%
G01*
G04 APERTURE LIST*
G04 Aperture macros list*
%AMRoundRect*
0 Rectangle with rounded corners*
0 $1 Rounding radius*
0 $2 $3 $4 $5 $6 $7 $8 $9 X,Y pos of 4 corners*
0 Add a 4 corners polygon primitive as box body*
4,1,4,$2,$3,$4,$5,$6,$7,$8,$9,$2,$3,0*
0 Add four circle primitives for the rounded corners*
1,1,$1+$1,$2,$3*
1,1,$1+$1,$4,$5*
1,1,$1+$1,$6,$7*
1,1,$1+$1,$8,$9*
0 Add four rect primitives between the rounded corners*
20,1,$1+$1,$2,$3,$4,$5,0*
20,1,$1+$1,$4,$5,$6,$7,0*
20,1,$1+$1,$6,$7,$8,$9,0*
20,1,$1+$1,$8,$9,$2,$3,0*%
%AMFreePoly0*
4,1,19,0.500000,-0.750000,0.000000,-0.750000,0.000000,-0.744911,-0.071157,-0.744911,-0.207708,-0.704816,-0.327430,-0.627875,-0.420627,-0.520320,-0.479746,-0.390866,-0.500000,-0.250000,-0.500000,0.250000,-0.479746,0.390866,-0.420627,0.520320,-0.327430,0.627875,-0.207708,0.704816,-0.071157,0.744911,0.000000,0.744911,0.000000,0.750000,0.500000,0.750000,0.500000,-0.750000,0.500000,-0.750000,
$1*%
%AMFreePoly1*
4,1,19,0.000000,0.744911,0.071157,0.744911,0.207708,0.704816,0.327430,0.627875,0.420627,0.520320,0.479746,0.390866,0.500000,0.250000,0.500000,-0.250000,0.479746,-0.390866,0.420627,-0.520320,0.327430,-0.627875,0.207708,-0.704816,0.071157,-0.744911,0.000000,-0.744911,0.000000,-0.750000,-0.500000,-0.750000,-0.500000,0.750000,0.000000,0.750000,0.000000,0.744911,0.000000,0.744911,
$1*%
G04 Aperture macros list end*
%ADD10C,0.200000*%
%ADD11C,0.150000*%
%ADD12C,0.120000*%
%ADD13RoundRect,0.250000X0.600000X0.750000X-0.600000X0.750000X-0.600000X-0.750000X0.600000X-0.750000X0*%
%ADD14O,1.700000X2.000000*%
%ADD15C,0.800000*%
%ADD16C,6.400000*%
%ADD17RoundRect,0.250000X-0.600000X-0.725000X0.600000X-0.725000X0.600000X0.725000X-0.600000X0.725000X0*%
%ADD18O,1.700000X1.950000*%
%ADD19C,0.650000*%
%ADD20O,2.100000X1.000000*%
%ADD21O,1.800000X1.000000*%
%ADD22RoundRect,0.250000X0.750000X-0.600000X0.750000X0.600000X-0.750000X0.600000X-0.750000X-0.600000X0*%
%ADD23O,2.000000X1.700000*%
%ADD24R,1.700000X1.700000*%
%ADD25O,1.700000X1.700000*%
%ADD26RoundRect,0.250000X-0.450000X0.262500X-0.450000X-0.262500X0.450000X-0.262500X0.450000X0.262500X0*%
%ADD27C,1.000000*%
%ADD28FreePoly0,90.000000*%
%ADD29FreePoly1,90.000000*%
G04 APERTURE END LIST*
D10*
X124000000Y-103400000D02*
X124000000Y-103400000D01*
X124800000Y-103400000D02*
X124800000Y-103400000D01*
X125600000Y-103400000D02*
X125600000Y-103400000D01*
X126400000Y-103400000D02*
X126400000Y-103400000D01*
X127200000Y-103400000D02*
X127200000Y-103400000D01*
X128000000Y-103400000D02*
X128000000Y-103400000D01*
X128800000Y-103400000D02*
X128800000Y-103400000D01*
X129600000Y-103400000D02*
X129600000Y-103400000D01*
X130400000Y-103400000D02*
X130400000Y-103400000D01*
X131200000Y-103400000D02*
X131200000Y-103400000D01*
X132000000Y-103400000D02*
X132000000Y-103400000D01*
X132800000Y-103400000D02*
X132800000Y-103400000D01*
X133600000Y-103400000D02*
X133600000Y-103400000D01*
X134400000Y-103400000D02*
X134400000Y-103400000D01*
X135200000Y-103400000D02*
X135200000Y-103400000D01*
X135900000Y-103400000D02*
X135900000Y-103400000D01*
X135900000Y-104200000D02*
X135900000Y-104200000D01*
X135900000Y-105000000D02*
X135900000Y-105000000D01*
X135900000Y-105800000D02*
X135900000Y-105800000D01*
X135900000Y-106600000D02*
X135900000Y-106600000D01*
X135900000Y-107400000D02*
X135900000Y-107400000D01*
X135900000Y-108200000D02*
X135900000Y-108200000D01*
X135900000Y-109000000D02*
X135900000Y-109000000D01*
X135900000Y-109800000D02*
X135900000Y-109800000D01*
X135900000Y-110600000D02*
X135900000Y-110600000D01*
X135900000Y-111400000D02*
X135900000Y-111400000D01*
X135900000Y-112200000D02*
X135900000Y-112200000D01*
X135900000Y-113000000D02*
X135900000Y-113000000D01*
X135900000Y-113800000D02*
X135900000Y-113800000D01*
X135900000Y-114600000D02*
X135900000Y-114600000D01*
X135900000Y-115400000D02*
X135900000Y-115400000D01*
X135900000Y-115500000D02*
X135900000Y-115500000D01*
X135100000Y-115500000D02*
X135100000Y-115500000D01*
X134300000Y-115500000D02*
X134300000Y-115500000D01*
X133500000Y-115500000D02*
X133500000Y-115500000D01*
X132700000Y-115500000D02*
X132700000Y-115500000D01*
X131900000Y-115500000D02*
X131900000Y-115500000D01*
X131100000Y-115500000D02*
X131100000Y-115500000D01*
X130300000Y-115500000D02*
X130300000Y-115500000D01*
X129500000Y-115500000D02*
X129500000Y-115500000D01*
X128700000Y-115500000D02*
X128700000Y-115500000D01*
X127900000Y-115500000D02*
X127900000Y-115500000D01*
X127100000Y-115500000D02*
X127100000Y-115500000D01*
X126300000Y-115500000D02*
X126300000Y-115500000D01*
X125500000Y-115500000D02*
X125500000Y-115500000D01*
X124700000Y-115500000D02*
X124700000Y-115500000D01*
X124000000Y-115500000D02*
X124000000Y-115500000D01*
X124000000Y-114700000D02*
X124000000Y-114700000D01*
X124000000Y-113900000D02*
X124000000Y-113900000D01*
X124000000Y-113100000D02*
X124000000Y-113100000D01*
X124000000Y-112300000D02*
X124000000Y-112300000D01*
X124000000Y-111500000D02*
X124000000Y-111500000D01*
X124000000Y-110700000D02*
X124000000Y-110700000D01*
X124000000Y-109900000D02*
X124000000Y-109900000D01*
X124000000Y-109100000D02*
X124000000Y-109100000D01*
X124000000Y-108300000D02*
X124000000Y-108300000D01*
X124000000Y-107500000D02*
X124000000Y-107500000D01*
X124000000Y-106700000D02*
X124000000Y-106700000D01*
X124000000Y-105900000D02*
X124000000Y-105900000D01*
X124000000Y-105100000D02*
X124000000Y-105100000D01*
X124000000Y-104300000D02*
X124000000Y-104300000D01*
X124000000Y-103500000D02*
X124000000Y-103500000D01*
D11*
X144410839Y-117462295D02*
X144410839Y-116662295D01*
X144410839Y-116662295D02*
X144144173Y-117233723D01*
X144144173Y-117233723D02*
X143877506Y-116662295D01*
X143877506Y-116662295D02*
X143877506Y-117462295D01*
X143344172Y-116662295D02*
X143191791Y-116662295D01*
X143191791Y-116662295D02*
X143115601Y-116700390D01*
X143115601Y-116700390D02*
X143039410Y-116776580D01*
X143039410Y-116776580D02*
X143001315Y-116928961D01*
X143001315Y-116928961D02*
X143001315Y-117195628D01*
X143001315Y-117195628D02*
X143039410Y-117348009D01*
X143039410Y-117348009D02*
X143115601Y-117424200D01*
X143115601Y-117424200D02*
X143191791Y-117462295D01*
X143191791Y-117462295D02*
X143344172Y-117462295D01*
X143344172Y-117462295D02*
X143420363Y-117424200D01*
X143420363Y-117424200D02*
X143496553Y-117348009D01*
X143496553Y-117348009D02*
X143534649Y-117195628D01*
X143534649Y-117195628D02*
X143534649Y-116928961D01*
X143534649Y-116928961D02*
X143496553Y-116776580D01*
X143496553Y-116776580D02*
X143420363Y-116700390D01*
X143420363Y-116700390D02*
X143344172Y-116662295D01*
X142772744Y-116662295D02*
X142315601Y-116662295D01*
X142544173Y-117462295D02*
X142544173Y-116662295D01*
X141477506Y-116738485D02*
X141439410Y-116700390D01*
X141439410Y-116700390D02*
X141363220Y-116662295D01*
X141363220Y-116662295D02*
X141172744Y-116662295D01*
X141172744Y-116662295D02*
X141096553Y-116700390D01*
X141096553Y-116700390D02*
X141058458Y-116738485D01*
X141058458Y-116738485D02*
X141020363Y-116814676D01*
X141020363Y-116814676D02*
X141020363Y-116890866D01*
X141020363Y-116890866D02*
X141058458Y-117005152D01*
X141058458Y-117005152D02*
X141515601Y-117462295D01*
X141515601Y-117462295D02*
X141020363Y-117462295D01*
X144410839Y-119662295D02*
X144410839Y-118862295D01*
X144410839Y-118862295D02*
X144144173Y-119433723D01*
X144144173Y-119433723D02*
X143877506Y-118862295D01*
X143877506Y-118862295D02*
X143877506Y-119662295D01*
X143344172Y-118862295D02*
X143191791Y-118862295D01*
X143191791Y-118862295D02*
X143115601Y-118900390D01*
X143115601Y-118900390D02*
X143039410Y-118976580D01*
X143039410Y-118976580D02*
X143001315Y-119128961D01*
X143001315Y-119128961D02*
X143001315Y-119395628D01*
X143001315Y-119395628D02*
X143039410Y-119548009D01*
X143039410Y-119548009D02*
X143115601Y-119624200D01*
X143115601Y-119624200D02*
X143191791Y-119662295D01*
X143191791Y-119662295D02*
X143344172Y-119662295D01*
X143344172Y-119662295D02*
X143420363Y-119624200D01*
X143420363Y-119624200D02*
X143496553Y-119548009D01*
X143496553Y-119548009D02*
X143534649Y-119395628D01*
X143534649Y-119395628D02*
X143534649Y-119128961D01*
X143534649Y-119128961D02*
X143496553Y-118976580D01*
X143496553Y-118976580D02*
X143420363Y-118900390D01*
X143420363Y-118900390D02*
X143344172Y-118862295D01*
X142772744Y-118862295D02*
X142315601Y-118862295D01*
X142544173Y-119662295D02*
X142544173Y-118862295D01*
X141515601Y-118862295D02*
X141020363Y-118862295D01*
X141020363Y-118862295D02*
X141287029Y-119167057D01*
X141287029Y-119167057D02*
X141172744Y-119167057D01*
X141172744Y-119167057D02*
X141096553Y-119205152D01*
X141096553Y-119205152D02*
X141058458Y-119243247D01*
X141058458Y-119243247D02*
X141020363Y-119319438D01*
X141020363Y-119319438D02*
X141020363Y-119509914D01*
X141020363Y-119509914D02*
X141058458Y-119586104D01*
X141058458Y-119586104D02*
X141096553Y-119624200D01*
X141096553Y-119624200D02*
X141172744Y-119662295D01*
X141172744Y-119662295D02*
X141401315Y-119662295D01*
X141401315Y-119662295D02*
X141477506Y-119624200D01*
X141477506Y-119624200D02*
X141515601Y-119586104D01*
X144510839Y-115262295D02*
X144510839Y-114462295D01*
X144510839Y-114462295D02*
X144244173Y-115033723D01*
X144244173Y-115033723D02*
X143977506Y-114462295D01*
X143977506Y-114462295D02*
X143977506Y-115262295D01*
X143444172Y-114462295D02*
X143291791Y-114462295D01*
X143291791Y-114462295D02*
X143215601Y-114500390D01*
X143215601Y-114500390D02*
X143139410Y-114576580D01*
X143139410Y-114576580D02*
X143101315Y-114728961D01*
X143101315Y-114728961D02*
X143101315Y-114995628D01*
X143101315Y-114995628D02*
X143139410Y-115148009D01*
X143139410Y-115148009D02*
X143215601Y-115224200D01*
X143215601Y-115224200D02*
X143291791Y-115262295D01*
X143291791Y-115262295D02*
X143444172Y-115262295D01*
X143444172Y-115262295D02*
X143520363Y-115224200D01*
X143520363Y-115224200D02*
X143596553Y-115148009D01*
X143596553Y-115148009D02*
X143634649Y-114995628D01*
X143634649Y-114995628D02*
X143634649Y-114728961D01*
X143634649Y-114728961D02*
X143596553Y-114576580D01*
X143596553Y-114576580D02*
X143520363Y-114500390D01*
X143520363Y-114500390D02*
X143444172Y-114462295D01*
X142872744Y-114462295D02*
X142415601Y-114462295D01*
X142644173Y-115262295D02*
X142644173Y-114462295D01*
X141120363Y-115262295D02*
X141577506Y-115262295D01*
X141348934Y-115262295D02*
X141348934Y-114462295D01*
X141348934Y-114462295D02*
X141425125Y-114576580D01*
X141425125Y-114576580D02*
X141501315Y-114652771D01*
X141501315Y-114652771D02*
X141577506Y-114690866D01*
D10*
X125447618Y-114526361D02*
X125447618Y-115059695D01*
X125638094Y-114221600D02*
X125828571Y-114793028D01*
X125828571Y-114793028D02*
X125333332Y-114793028D01*
X148777945Y-114559695D02*
X148777945Y-113759695D01*
X148777945Y-113759695D02*
X148587469Y-113759695D01*
X148587469Y-113759695D02*
X148473183Y-113797790D01*
X148473183Y-113797790D02*
X148396993Y-113873980D01*
X148396993Y-113873980D02*
X148358898Y-113950171D01*
X148358898Y-113950171D02*
X148320802Y-114102552D01*
X148320802Y-114102552D02*
X148320802Y-114216838D01*
X148320802Y-114216838D02*
X148358898Y-114369219D01*
X148358898Y-114369219D02*
X148396993Y-114445409D01*
X148396993Y-114445409D02*
X148473183Y-114521600D01*
X148473183Y-114521600D02*
X148587469Y-114559695D01*
X148587469Y-114559695D02*
X148777945Y-114559695D01*
X147977945Y-114559695D02*
X147977945Y-113759695D01*
X147139850Y-114559695D02*
X147406517Y-114178742D01*
X147596993Y-114559695D02*
X147596993Y-113759695D01*
X147596993Y-113759695D02*
X147292231Y-113759695D01*
X147292231Y-113759695D02*
X147216041Y-113797790D01*
X147216041Y-113797790D02*
X147177946Y-113835885D01*
X147177946Y-113835885D02*
X147139850Y-113912076D01*
X147139850Y-113912076D02*
X147139850Y-114026361D01*
X147139850Y-114026361D02*
X147177946Y-114102552D01*
X147177946Y-114102552D02*
X147216041Y-114140647D01*
X147216041Y-114140647D02*
X147292231Y-114178742D01*
X147292231Y-114178742D02*
X147596993Y-114178742D01*
X135528570Y-109259695D02*
X135528570Y-108459695D01*
X135528570Y-108840647D02*
X135071427Y-108840647D01*
X135071427Y-109259695D02*
X135071427Y-108459695D01*
D11*
X144310839Y-121762295D02*
X144310839Y-120962295D01*
X144310839Y-121343247D02*
X143853696Y-121343247D01*
X143853696Y-121762295D02*
X143853696Y-120962295D01*
X143510840Y-121533723D02*
X143129887Y-121533723D01*
X143587030Y-121762295D02*
X143320363Y-120962295D01*
X143320363Y-120962295D02*
X143053697Y-121762295D01*
X142787030Y-121762295D02*
X142787030Y-120962295D01*
X142787030Y-120962295D02*
X142482268Y-120962295D01*
X142482268Y-120962295D02*
X142406078Y-121000390D01*
X142406078Y-121000390D02*
X142367983Y-121038485D01*
X142367983Y-121038485D02*
X142329887Y-121114676D01*
X142329887Y-121114676D02*
X142329887Y-121228961D01*
X142329887Y-121228961D02*
X142367983Y-121305152D01*
X142367983Y-121305152D02*
X142406078Y-121343247D01*
X142406078Y-121343247D02*
X142482268Y-121381342D01*
X142482268Y-121381342D02*
X142787030Y-121381342D01*
X142101316Y-120962295D02*
X141644173Y-120962295D01*
X141872745Y-121762295D02*
X141872745Y-120962295D01*
X141377506Y-121762295D02*
X141377506Y-120962295D01*
X140539411Y-121686104D02*
X140577507Y-121724200D01*
X140577507Y-121724200D02*
X140691792Y-121762295D01*
X140691792Y-121762295D02*
X140767983Y-121762295D01*
X140767983Y-121762295D02*
X140882269Y-121724200D01*
X140882269Y-121724200D02*
X140958459Y-121648009D01*
X140958459Y-121648009D02*
X140996554Y-121571819D01*
X140996554Y-121571819D02*
X141034650Y-121419438D01*
X141034650Y-121419438D02*
X141034650Y-121305152D01*
X141034650Y-121305152D02*
X140996554Y-121152771D01*
X140996554Y-121152771D02*
X140958459Y-121076580D01*
X140958459Y-121076580D02*
X140882269Y-121000390D01*
X140882269Y-121000390D02*
X140767983Y-120962295D01*
X140767983Y-120962295D02*
X140691792Y-120962295D01*
X140691792Y-120962295D02*
X140577507Y-121000390D01*
X140577507Y-121000390D02*
X140539411Y-121038485D01*
X139167983Y-121762295D02*
X139625126Y-121762295D01*
X139396554Y-121762295D02*
X139396554Y-120962295D01*
X139396554Y-120962295D02*
X139472745Y-121076580D01*
X139472745Y-121076580D02*
X139548935Y-121152771D01*
X139548935Y-121152771D02*
X139625126Y-121190866D01*
D10*
X128466666Y-114259695D02*
X127971428Y-114259695D01*
X127971428Y-114259695D02*
X128238094Y-114564457D01*
X128238094Y-114564457D02*
X128123809Y-114564457D01*
X128123809Y-114564457D02*
X128047618Y-114602552D01*
X128047618Y-114602552D02*
X128009523Y-114640647D01*
X128009523Y-114640647D02*
X127971428Y-114716838D01*
X127971428Y-114716838D02*
X127971428Y-114907314D01*
X127971428Y-114907314D02*
X128009523Y-114983504D01*
X128009523Y-114983504D02*
X128047618Y-115021600D01*
X128047618Y-115021600D02*
X128123809Y-115059695D01*
X128123809Y-115059695D02*
X128352380Y-115059695D01*
X128352380Y-115059695D02*
X128428571Y-115021600D01*
X128428571Y-115021600D02*
X128466666Y-114983504D01*
D11*
X144310839Y-124062295D02*
X144310839Y-123262295D01*
X144310839Y-123643247D02*
X143853696Y-123643247D01*
X143853696Y-124062295D02*
X143853696Y-123262295D01*
X143510840Y-123833723D02*
X143129887Y-123833723D01*
X143587030Y-124062295D02*
X143320363Y-123262295D01*
X143320363Y-123262295D02*
X143053697Y-124062295D01*
X142787030Y-124062295D02*
X142787030Y-123262295D01*
X142787030Y-123262295D02*
X142482268Y-123262295D01*
X142482268Y-123262295D02*
X142406078Y-123300390D01*
X142406078Y-123300390D02*
X142367983Y-123338485D01*
X142367983Y-123338485D02*
X142329887Y-123414676D01*
X142329887Y-123414676D02*
X142329887Y-123528961D01*
X142329887Y-123528961D02*
X142367983Y-123605152D01*
X142367983Y-123605152D02*
X142406078Y-123643247D01*
X142406078Y-123643247D02*
X142482268Y-123681342D01*
X142482268Y-123681342D02*
X142787030Y-123681342D01*
X142101316Y-123262295D02*
X141644173Y-123262295D01*
X141872745Y-124062295D02*
X141872745Y-123262295D01*
X141377506Y-124062295D02*
X141377506Y-123262295D01*
X140539411Y-123986104D02*
X140577507Y-124024200D01*
X140577507Y-124024200D02*
X140691792Y-124062295D01*
X140691792Y-124062295D02*
X140767983Y-124062295D01*
X140767983Y-124062295D02*
X140882269Y-124024200D01*
X140882269Y-124024200D02*
X140958459Y-123948009D01*
X140958459Y-123948009D02*
X140996554Y-123871819D01*
X140996554Y-123871819D02*
X141034650Y-123719438D01*
X141034650Y-123719438D02*
X141034650Y-123605152D01*
X141034650Y-123605152D02*
X140996554Y-123452771D01*
X140996554Y-123452771D02*
X140958459Y-123376580D01*
X140958459Y-123376580D02*
X140882269Y-123300390D01*
X140882269Y-123300390D02*
X140767983Y-123262295D01*
X140767983Y-123262295D02*
X140691792Y-123262295D01*
X140691792Y-123262295D02*
X140577507Y-123300390D01*
X140577507Y-123300390D02*
X140539411Y-123338485D01*
X139625126Y-123338485D02*
X139587030Y-123300390D01*
X139587030Y-123300390D02*
X139510840Y-123262295D01*
X139510840Y-123262295D02*
X139320364Y-123262295D01*
X139320364Y-123262295D02*
X139244173Y-123300390D01*
X139244173Y-123300390D02*
X139206078Y-123338485D01*
X139206078Y-123338485D02*
X139167983Y-123414676D01*
X139167983Y-123414676D02*
X139167983Y-123490866D01*
X139167983Y-123490866D02*
X139206078Y-123605152D01*
X139206078Y-123605152D02*
X139663221Y-124062295D01*
X139663221Y-124062295D02*
X139167983Y-124062295D01*
D10*
X146877945Y-113459695D02*
X146877945Y-112659695D01*
X146877945Y-112659695D02*
X146573183Y-112659695D01*
X146573183Y-112659695D02*
X146496993Y-112697790D01*
X146496993Y-112697790D02*
X146458898Y-112735885D01*
X146458898Y-112735885D02*
X146420802Y-112812076D01*
X146420802Y-112812076D02*
X146420802Y-112926361D01*
X146420802Y-112926361D02*
X146458898Y-113002552D01*
X146458898Y-113002552D02*
X146496993Y-113040647D01*
X146496993Y-113040647D02*
X146573183Y-113078742D01*
X146573183Y-113078742D02*
X146877945Y-113078742D01*
X146154136Y-112659695D02*
X145963660Y-113459695D01*
X145963660Y-113459695D02*
X145811279Y-112888266D01*
X145811279Y-112888266D02*
X145658898Y-113459695D01*
X145658898Y-113459695D02*
X145468422Y-112659695D01*
X145163659Y-113459695D02*
X145163659Y-112659695D01*
X145163659Y-112659695D02*
X144896993Y-113231123D01*
X144896993Y-113231123D02*
X144630326Y-112659695D01*
X144630326Y-112659695D02*
X144630326Y-113459695D01*
D11*
X135863220Y-102969819D02*
X135863220Y-101969819D01*
X135863220Y-102446009D02*
X135291792Y-102446009D01*
X135291792Y-102969819D02*
X135291792Y-101969819D01*
X134910839Y-101969819D02*
X134672744Y-102969819D01*
X134672744Y-102969819D02*
X134482268Y-102255533D01*
X134482268Y-102255533D02*
X134291792Y-102969819D01*
X134291792Y-102969819D02*
X134053697Y-101969819D01*
X132339411Y-102969819D02*
X132672744Y-102493628D01*
X132910839Y-102969819D02*
X132910839Y-101969819D01*
X132910839Y-101969819D02*
X132529887Y-101969819D01*
X132529887Y-101969819D02*
X132434649Y-102017438D01*
X132434649Y-102017438D02*
X132387030Y-102065057D01*
X132387030Y-102065057D02*
X132339411Y-102160295D01*
X132339411Y-102160295D02*
X132339411Y-102303152D01*
X132339411Y-102303152D02*
X132387030Y-102398390D01*
X132387030Y-102398390D02*
X132434649Y-102446009D01*
X132434649Y-102446009D02*
X132529887Y-102493628D01*
X132529887Y-102493628D02*
X132910839Y-102493628D01*
X131910839Y-102446009D02*
X131577506Y-102446009D01*
X131434649Y-102969819D02*
X131910839Y-102969819D01*
X131910839Y-102969819D02*
X131910839Y-101969819D01*
X131910839Y-101969819D02*
X131434649Y-101969819D01*
X131148934Y-101969819D02*
X130815601Y-102969819D01*
X130815601Y-102969819D02*
X130482268Y-101969819D01*
D10*
X135052380Y-112759695D02*
X135433332Y-112759695D01*
X135433332Y-112759695D02*
X135433332Y-111959695D01*
X131028571Y-114335885D02*
X130990475Y-114297790D01*
X130990475Y-114297790D02*
X130914285Y-114259695D01*
X130914285Y-114259695D02*
X130723809Y-114259695D01*
X130723809Y-114259695D02*
X130647618Y-114297790D01*
X130647618Y-114297790D02*
X130609523Y-114335885D01*
X130609523Y-114335885D02*
X130571428Y-114412076D01*
X130571428Y-114412076D02*
X130571428Y-114488266D01*
X130571428Y-114488266D02*
X130609523Y-114602552D01*
X130609523Y-114602552D02*
X131066666Y-115059695D01*
X131066666Y-115059695D02*
X130571428Y-115059695D01*
X133271428Y-115059695D02*
X133728571Y-115059695D01*
X133499999Y-115059695D02*
X133499999Y-114259695D01*
X133499999Y-114259695D02*
X133576190Y-114373980D01*
X133576190Y-114373980D02*
X133652380Y-114450171D01*
X133652380Y-114450171D02*
X133728571Y-114488266D01*
D12*
%TO.C,R16*%
X126235000Y-105222936D02*
X126235000Y-105677064D01*
X124765000Y-105222936D02*
X124765000Y-105677064D01*
%TO.C,TP51*%
X146600000Y-119300000D02*
G75*
G03*
X146600000Y-119300000I-700000J0D01*
G01*
%TO.C,JP7*%
X133200000Y-110350000D02*
X133800000Y-110350000D01*
X134500000Y-109650000D02*
X134500000Y-108250000D01*
X132500000Y-108250000D02*
X132500000Y-109650000D01*
X133800000Y-107550000D02*
X133200000Y-107550000D01*
X132500000Y-109650000D02*
G75*
G03*
X133200000Y-110350000I699999J-1D01*
G01*
X133800000Y-110350000D02*
G75*
G03*
X134500000Y-109650000I1J699999D01*
G01*
X133200000Y-107550000D02*
G75*
G03*
X132500000Y-108250000I0J-700000D01*
G01*
X134500000Y-108250000D02*
G75*
G03*
X133800000Y-107550000I-700000J0D01*
G01*
%TO.C,TP56*%
X146600000Y-123700000D02*
G75*
G03*
X146600000Y-123700000I-700000J0D01*
G01*
%TO.C,TP49*%
X148600000Y-120400000D02*
G75*
G03*
X148600000Y-120400000I-700000J0D01*
G01*
%TO.C,TP38*%
X146600000Y-114900000D02*
G75*
G03*
X146600000Y-114900000I-700000J0D01*
G01*
%TO.C,JP11*%
X133200000Y-113800000D02*
X133800000Y-113800000D01*
X134500000Y-113100000D02*
X134500000Y-111700000D01*
X132500000Y-111700000D02*
X132500000Y-113100000D01*
X133800000Y-111000000D02*
X133200000Y-111000000D01*
X132500000Y-113100000D02*
G75*
G03*
X133200000Y-113800000I699999J-1D01*
G01*
X133800000Y-113800000D02*
G75*
G03*
X134500000Y-113100000I1J699999D01*
G01*
X133200000Y-111000000D02*
G75*
G03*
X132500000Y-111700000I0J-700000D01*
G01*
X134500000Y-111700000D02*
G75*
G03*
X133800000Y-111000000I-700000J0D01*
G01*
%TO.C,R15*%
X128935000Y-105222936D02*
X128935000Y-105677064D01*
X127465000Y-105222936D02*
X127465000Y-105677064D01*
%TO.C,R14*%
X131585000Y-105222936D02*
X131585000Y-105677064D01*
X130115000Y-105222936D02*
X130115000Y-105677064D01*
%TO.C,TP36*%
X148600000Y-116000000D02*
G75*
G03*
X148600000Y-116000000I-700000J0D01*
G01*
%TO.C,JP8*%
X130550000Y-110350000D02*
X131150000Y-110350000D01*
X131850000Y-109650000D02*
X131850000Y-108250000D01*
X129850000Y-108250000D02*
X129850000Y-109650000D01*
X131150000Y-107550000D02*
X130550000Y-107550000D01*
X129850000Y-109650000D02*
G75*
G03*
X130550000Y-110350000I699999J-1D01*
G01*
X131150000Y-110350000D02*
G75*
G03*
X131850000Y-109650000I1J699999D01*
G01*
X130550000Y-107550000D02*
G75*
G03*
X129850000Y-108250000I0J-700000D01*
G01*
X131850000Y-108250000D02*
G75*
G03*
X131150000Y-107550000I-700000J0D01*
G01*
%TO.C,R13*%
X134235000Y-105222936D02*
X134235000Y-105677064D01*
X132765000Y-105222936D02*
X132765000Y-105677064D01*
%TO.C,TP55*%
X148600000Y-124800000D02*
G75*
G03*
X148600000Y-124800000I-700000J0D01*
G01*
%TO.C,JP10*%
X125200000Y-110350000D02*
X125800000Y-110350000D01*
X126500000Y-109650000D02*
X126500000Y-108250000D01*
X124500000Y-108250000D02*
X124500000Y-109650000D01*
X125800000Y-107550000D02*
X125200000Y-107550000D01*
X124500000Y-109650000D02*
G75*
G03*
X125200000Y-110350000I699999J-1D01*
G01*
X125800000Y-110350000D02*
G75*
G03*
X126500000Y-109650000I1J699999D01*
G01*
X125200000Y-107550000D02*
G75*
G03*
X124500000Y-108250000I0J-700000D01*
G01*
X126500000Y-108250000D02*
G75*
G03*
X125800000Y-107550000I-700000J0D01*
G01*
%TO.C,JP14*%
X125200000Y-113800000D02*
X125800000Y-113800000D01*
X126500000Y-113100000D02*
X126500000Y-111700000D01*
X124500000Y-111700000D02*
X124500000Y-113100000D01*
X125800000Y-111000000D02*
X125200000Y-111000000D01*
X124500000Y-113100000D02*
G75*
G03*
X125200000Y-113800000I699999J-1D01*
G01*
X125800000Y-113800000D02*
G75*
G03*
X126500000Y-113100000I1J699999D01*
G01*
X125200000Y-111000000D02*
G75*
G03*
X124500000Y-111700000I0J-700000D01*
G01*
X126500000Y-111700000D02*
G75*
G03*
X125800000Y-111000000I-700000J0D01*
G01*
%TO.C,TP37*%
X148600000Y-118200000D02*
G75*
G03*
X148600000Y-118200000I-700000J0D01*
G01*
%TO.C,JP12*%
X130550000Y-113800000D02*
X131150000Y-113800000D01*
X131850000Y-113100000D02*
X131850000Y-111700000D01*
X129850000Y-111700000D02*
X129850000Y-113100000D01*
X131150000Y-111000000D02*
X130550000Y-111000000D01*
X129850000Y-113100000D02*
G75*
G03*
X130550000Y-113800000I699999J-1D01*
G01*
X131150000Y-113800000D02*
G75*
G03*
X131850000Y-113100000I1J699999D01*
G01*
X130550000Y-111000000D02*
G75*
G03*
X129850000Y-111700000I0J-700000D01*
G01*
X131850000Y-111700000D02*
G75*
G03*
X131150000Y-111000000I-700000J0D01*
G01*
%TO.C,TP39*%
X146600000Y-117100000D02*
G75*
G03*
X146600000Y-117100000I-700000J0D01*
G01*
%TO.C,JP9*%
X127900000Y-110350000D02*
X128500000Y-110350000D01*
X129200000Y-109650000D02*
X129200000Y-108250000D01*
X127200000Y-108250000D02*
X127200000Y-109650000D01*
X128500000Y-107550000D02*
X127900000Y-107550000D01*
X127200000Y-109650000D02*
G75*
G03*
X127900000Y-110350000I699999J-1D01*
G01*
X128500000Y-110350000D02*
G75*
G03*
X129200000Y-109650000I1J699999D01*
G01*
X127900000Y-107550000D02*
G75*
G03*
X127200000Y-108250000I0J-700000D01*
G01*
X129200000Y-108250000D02*
G75*
G03*
X128500000Y-107550000I-700000J0D01*
G01*
%TO.C,TP50*%
X148600000Y-122600000D02*
G75*
G03*
X148600000Y-122600000I-700000J0D01*
G01*
%TO.C,JP13*%
X127900000Y-113800000D02*
X128500000Y-113800000D01*
X129200000Y-113100000D02*
X129200000Y-111700000D01*
X127200000Y-111700000D02*
X127200000Y-113100000D01*
X128500000Y-111000000D02*
X127900000Y-111000000D01*
X127200000Y-113100000D02*
G75*
G03*
X127900000Y-113800000I699999J-1D01*
G01*
X128500000Y-113800000D02*
G75*
G03*
X129200000Y-113100000I1J699999D01*
G01*
X127900000Y-111000000D02*
G75*
G03*
X127200000Y-111700000I0J-700000D01*
G01*
X129200000Y-111700000D02*
G75*
G03*
X128500000Y-111000000I-700000J0D01*
G01*
%TO.C,TP52*%
X146600000Y-121500000D02*
G75*
G03*
X146600000Y-121500000I-700000J0D01*
G01*
%TD*%
%LPC*%
D13*
%TO.C,J2*%
X187350000Y-142800000D03*
D14*
X184850000Y-142800000D03*
%TD*%
D15*
%TO.C,H4*%
X202600000Y-145000000D03*
X203302944Y-143302944D03*
X203302944Y-146697056D03*
X205000000Y-142600000D03*
D16*
X205000000Y-145000000D03*
D15*
X205000000Y-147400000D03*
X206697056Y-143302944D03*
X206697056Y-146697056D03*
X207400000Y-145000000D03*
%TD*%
D17*
%TO.C,J12*%
X145500000Y-107200000D03*
D18*
X148000000Y-107200000D03*
X150500000Y-107200000D03*
%TD*%
D17*
%TO.C,J9*%
X181450000Y-107200000D03*
D18*
X183950000Y-107200000D03*
X186450000Y-107200000D03*
%TD*%
D19*
%TO.C,J5*%
X106605000Y-111210000D03*
X106605000Y-116990000D03*
D20*
X107125000Y-109780000D03*
D21*
X102925000Y-109780000D03*
D20*
X107125000Y-118420000D03*
D21*
X102925000Y-118420000D03*
%TD*%
D17*
%TO.C,J8*%
X156700000Y-107200000D03*
D18*
X159200000Y-107200000D03*
X161700000Y-107200000D03*
%TD*%
D15*
%TO.C,H1*%
X102600000Y-105000000D03*
X103302944Y-103302944D03*
X103302944Y-106697056D03*
X105000000Y-102600000D03*
D16*
X105000000Y-105000000D03*
D15*
X105000000Y-107400000D03*
X106697056Y-103302944D03*
X106697056Y-106697056D03*
X107400000Y-105000000D03*
%TD*%
D13*
%TO.C,J1*%
X178600000Y-142800000D03*
D14*
X176100000Y-142800000D03*
%TD*%
D22*
%TO.C,J3*%
X107232500Y-138250000D03*
D23*
X107232500Y-135750000D03*
%TD*%
D17*
%TO.C,J13*%
X170250000Y-107200000D03*
D18*
X172750000Y-107200000D03*
X175250000Y-107200000D03*
%TD*%
D17*
%TO.C,J4*%
X192650000Y-107200000D03*
D18*
X195150000Y-107200000D03*
X197650000Y-107200000D03*
%TD*%
D15*
%TO.C,H3*%
X102600000Y-145000000D03*
X103302944Y-143302944D03*
X103302944Y-146697056D03*
X105000000Y-142600000D03*
D16*
X105000000Y-145000000D03*
D15*
X105000000Y-147400000D03*
X106697056Y-143302944D03*
X106697056Y-146697056D03*
X107400000Y-145000000D03*
%TD*%
D13*
%TO.C,J11*%
X166550000Y-142767500D03*
D14*
X164050000Y-142767500D03*
%TD*%
D13*
%TO.C,J6*%
X196050000Y-142767500D03*
D14*
X193550000Y-142767500D03*
%TD*%
D13*
%TO.C,J7*%
X157850000Y-142767500D03*
D14*
X155350000Y-142767500D03*
%TD*%
D15*
%TO.C,H2*%
X202600000Y-105000000D03*
X203302944Y-103302944D03*
X203302944Y-106697056D03*
X205000000Y-102600000D03*
D16*
X205000000Y-105000000D03*
D15*
X205000000Y-107400000D03*
X206697056Y-103302944D03*
X206697056Y-106697056D03*
X207400000Y-105000000D03*
%TD*%
D24*
%TO.C,J10*%
X118100000Y-131340000D03*
D25*
X118100000Y-128800000D03*
X118100000Y-126260000D03*
X118100000Y-123720000D03*
X118100000Y-121180000D03*
X118100000Y-118640000D03*
%TD*%
D26*
%TO.C,R16*%
X125500000Y-104537500D03*
X125500000Y-106362500D03*
%TD*%
D27*
%TO.C,TP51*%
X145900000Y-119300000D03*
%TD*%
D28*
%TO.C,JP7*%
X133500000Y-109600000D03*
D29*
X133500000Y-108300000D03*
%TD*%
D27*
%TO.C,TP56*%
X145900000Y-123700000D03*
%TD*%
%TO.C,TP49*%
X147900000Y-120400000D03*
%TD*%
%TO.C,TP38*%
X145900000Y-114900000D03*
%TD*%
D28*
%TO.C,JP11*%
X133500000Y-113050000D03*
D29*
X133500000Y-111750000D03*
%TD*%
D26*
%TO.C,R15*%
X128200000Y-104537500D03*
X128200000Y-106362500D03*
%TD*%
%TO.C,R14*%
X130850000Y-104537500D03*
X130850000Y-106362500D03*
%TD*%
D27*
%TO.C,TP36*%
X147900000Y-116000000D03*
%TD*%
D28*
%TO.C,JP8*%
X130850000Y-109600000D03*
D29*
X130850000Y-108300000D03*
%TD*%
D26*
%TO.C,R13*%
X133500000Y-104537500D03*
X133500000Y-106362500D03*
%TD*%
D27*
%TO.C,TP55*%
X147900000Y-124800000D03*
%TD*%
D28*
%TO.C,JP10*%
X125500000Y-109600000D03*
D29*
X125500000Y-108300000D03*
%TD*%
D28*
%TO.C,JP14*%
X125500000Y-113050000D03*
D29*
X125500000Y-111750000D03*
%TD*%
D27*
%TO.C,TP37*%
X147900000Y-118200000D03*
%TD*%
D28*
%TO.C,JP12*%
X130850000Y-113050000D03*
D29*
X130850000Y-111750000D03*
%TD*%
D27*
%TO.C,TP39*%
X145900000Y-117100000D03*
%TD*%
D28*
%TO.C,JP9*%
X128200000Y-109600000D03*
D29*
X128200000Y-108300000D03*
%TD*%
D27*
%TO.C,TP50*%
X147900000Y-122600000D03*
%TD*%
D28*
%TO.C,JP13*%
X128200000Y-113050000D03*
D29*
X128200000Y-111750000D03*
%TD*%
D27*
%TO.C,TP52*%
X145900000Y-121500000D03*
%TD*%
%LPD*%
M02*
