M48
; DRILL file {KiCad 7.0.7} date Sat Mar 16 18:53:28 2024
; FORMAT={-:-/ absolute / metric / decimal}
; #@! TF.CreationDate,2024-03-16T18:53:28+01:00
; #@! TF.GenerationSoftware,Kicad,Pcbnew,7.0.7
; #@! TF.FileFunction,MixedPlating,1,4
FMAT,2
METRIC
; #@! TA.AperFunction,Plated,PTH,ComponentDrill
T1C0.200
; #@! TA.AperFunction,Plated,PTH,ViaDrill
T2C0.300
; #@! TA.AperFunction,Plated,PTH,ComponentDrill
T3C0.500
; #@! TA.AperFunction,Plated,PTH,ComponentDrill
T4C0.600
; #@! TA.AperFunction,Plated,PTH,ComponentDrill
T5C0.950
; #@! TA.AperFunction,Plated,PTH,ComponentDrill
T6C1.000
; #@! TA.AperFunction,Plated,PTH,ComponentDrill
T7C3.200
; #@! TA.AperFunction,NonPlated,NPTH,ComponentDrill
T8C0.650
%
G90
G05
T1
X178.025Y-126.162
X178.025Y-127.662
X179.525Y-126.162
X179.525Y-127.662
X181.025Y-126.162
X181.025Y-127.662
X186.2Y-126.162
X186.2Y-127.662
X187.7Y-126.162
X187.7Y-127.662
X189.2Y-126.162
X189.2Y-127.662
X194.5Y-126.162
X194.5Y-127.662
X196.0Y-126.162
X196.0Y-127.662
X197.5Y-126.162
X197.5Y-127.662
X202.7Y-126.162
X202.7Y-127.662
X204.2Y-126.162
X204.2Y-127.662
X205.7Y-126.162
X205.7Y-127.662
T2
X101.65Y-136.55
X135.25Y-133.675
X137.55Y-133.675
X138.975Y-108.95
X139.1Y-126.525
X141.025Y-110.885
X141.025Y-114.514
X141.05Y-120.91
X141.05Y-124.539
X141.125Y-133.675
X143.475Y-133.675
X147.025Y-133.675
X149.325Y-133.675
X149.9Y-111.375
X152.437Y-119.288
X154.0Y-123.0
X154.629Y-109.557
X156.225Y-106.725
X156.375Y-135.25
X158.45Y-107.575
X158.525Y-113.65
X159.269Y-107.541
X159.35Y-113.65
X160.775Y-106.8
X160.85Y-128.4
X160.975Y-112.675
X161.8Y-115.85
X161.875Y-109.8
X163.003Y-131.522
X163.575Y-116.1
X165.025Y-114.575
X165.075Y-105.1
X165.4Y-123.775
X165.75Y-136.8
X166.95Y-127.3
X167.325Y-112.975
X168.5Y-112.975
X169.75Y-112.975
X170.775Y-106.525
X173.375Y-102.425
X173.85Y-106.525
X175.475Y-129.093
X176.525Y-133.2
X177.35Y-120.923
X179.16Y-122.925
X179.475Y-121.002
X179.975Y-107.55
X181.5Y-121.002
X182.1Y-109.5
X182.175Y-133.225
X182.65Y-101.45
X183.75Y-111.725
X183.775Y-113.825
X183.775Y-129.075
X184.675Y-101.425
X185.65Y-120.923
X185.75Y-113.825
X185.775Y-111.725
X185.925Y-109.6
X185.95Y-107.675
X187.325Y-122.902
X187.65Y-112.862
X187.775Y-121.025
X188.6Y-114.925
X188.775Y-105.325
X189.55Y-133.225
X189.75Y-114.925
X189.85Y-121.002
X190.975Y-114.925
X191.825Y-112.862
X191.975Y-129.093
X193.9Y-120.923
X195.29Y-109.65
X195.29Y-111.75
X195.4Y-107.55
X195.635Y-122.95
X195.975Y-121.002
X197.4Y-133.325
X198.125Y-121.002
X200.0Y-101.75
X200.2Y-129.093
X202.1Y-120.9
X203.835Y-122.925
X204.25Y-121.002
X205.025Y-133.3
X206.275Y-121.002
T3
X102.6Y-105.0
X102.6Y-145.0
X103.303Y-103.303
X103.303Y-106.697
X103.303Y-143.303
X103.303Y-146.697
X105.0Y-102.6
X105.0Y-107.4
X105.0Y-142.6
X105.0Y-147.4
X106.697Y-103.303
X106.697Y-106.697
X106.697Y-143.303
X106.697Y-146.697
X107.4Y-105.0
X107.4Y-145.0
X202.6Y-105.0
X202.6Y-145.0
X203.303Y-103.303
X203.303Y-106.697
X203.303Y-143.303
X203.303Y-146.697
X205.0Y-102.6
X205.0Y-107.4
X205.0Y-142.6
X205.0Y-147.4
X206.697Y-103.303
X206.697Y-106.697
X206.697Y-143.303
X206.697Y-146.697
X207.4Y-105.0
X207.4Y-145.0
T5
X107.282Y-111.8
X107.282Y-114.3
X107.282Y-116.8
X107.282Y-123.0
X107.282Y-125.5
X107.282Y-128.0
X119.4Y-142.7
X121.9Y-142.7
X124.4Y-142.7
X130.6Y-142.7
X133.1Y-142.7
X135.6Y-142.7
X141.8Y-142.7
X144.3Y-142.7
X146.8Y-142.7
T6
X137.9Y-102.95
X140.44Y-102.95
X142.98Y-102.95
X145.52Y-102.95
X148.06Y-102.95
X150.6Y-102.95
X155.65Y-142.817
X158.15Y-142.817
X164.35Y-142.817
X166.85Y-142.817
X175.85Y-142.85
X178.35Y-142.85
X184.6Y-142.85
X187.1Y-142.85
X193.3Y-142.817
X195.8Y-142.817
X202.968Y-112.0
X202.968Y-114.5
T7
X105.0Y-105.0
X105.0Y-145.0
X205.0Y-105.0
X205.0Y-145.0
T8
X155.61Y-107.605
X161.39Y-107.605
T4
G00X154.18Y-104.325
M15
G01X154.18Y-103.525
M16
G05
G00X154.18Y-108.675
M15
G01X154.18Y-107.575
M16
G05
G00X162.82Y-104.325
M15
G01X162.82Y-103.525
M16
G05
G00X162.82Y-108.675
M15
G01X162.82Y-107.575
M16
G05
T0
M30
