M48
; DRILL file {KiCad 7.0.7} date Fri Oct 27 23:14:13 2023
; FORMAT={-:-/ absolute / inch / decimal}
; #@! TF.CreationDate,2023-10-27T23:14:13+02:00
; #@! TF.GenerationSoftware,Kicad,Pcbnew,7.0.7
; #@! TF.FileFunction,Plated,1,2,PTH
FMAT,2
INCH
; #@! TA.AperFunction,Plated,PTH,ViaDrill
T1C0.0157
; #@! TA.AperFunction,Plated,PTH,ComponentDrill
T2C0.0300
; #@! TA.AperFunction,Plated,PTH,ComponentDrill
T3C0.0315
; #@! TA.AperFunction,Plated,PTH,ComponentDrill
T4C0.0354
; #@! TA.AperFunction,Plated,PTH,ComponentDrill
T5C0.0374
; #@! TA.AperFunction,Plated,PTH,ComponentDrill
T6C0.0394
; #@! TA.AperFunction,Plated,PTH,ComponentDrill
T7C0.0433
; #@! TA.AperFunction,Plated,PTH,ComponentDrill
T8C0.0472
; #@! TA.AperFunction,Plated,PTH,ComponentDrill
T9C0.1260
%
G90
G05
T1
X4.4882Y-2.6772
X4.5669Y-2.5197
X4.6063Y-2.8346
X4.82Y-3.79
X4.9213Y-2.8346
X5.4748Y-4.0648
X5.67Y-2.76
X5.9048Y-4.0648
X6.82Y-3.2
X6.82Y-3.36
X6.82Y-3.45
X6.84Y-3.85
X7.43Y-4.05
X7.44Y-3.65
X7.5Y-3.06
X7.53Y-4.39
X7.54Y-3.65
X7.58Y-3.34
X7.64Y-3.53
X7.64Y-3.65
X7.77Y-3.9
X7.79Y-3.81
X7.82Y-4.4
X8.03Y-3.96
X8.04Y-3.6
X8.15Y-3.6
X8.24Y-3.6
T2
X6.8402Y-2.7165
X6.8402Y-3.7165
X6.9402Y-2.7165
X6.9402Y-3.7165
X7.0402Y-2.7165
X7.0402Y-3.7165
X7.1402Y-2.7165
X7.1402Y-3.7165
X7.2402Y-2.7165
X7.2402Y-3.7165
X7.3402Y-2.7165
X7.3402Y-3.7165
X7.4402Y-2.7165
X7.4402Y-3.7165
X7.5402Y-2.7165
X7.5402Y-3.7165
X7.6402Y-2.7165
X7.6402Y-3.7165
X7.7402Y-2.7165
X7.7402Y-3.7165
X7.8402Y-2.7165
X7.8402Y-3.7165
X7.9402Y-2.7165
X7.9402Y-3.7165
X8.0402Y-2.7165
X8.0402Y-3.7165
X8.1402Y-2.7165
X8.1402Y-3.7165
X8.2402Y-2.7165
X8.2402Y-3.7165
X8.3402Y-2.7165
X8.3402Y-3.7165
X8.4402Y-2.7165
X8.4402Y-3.7165
X8.5402Y-2.7165
X8.5402Y-3.7165
X8.6402Y-2.7165
X8.6402Y-3.7165
X8.7402Y-2.7165
X8.7402Y-3.7165
X8.8402Y-2.7165
X8.8402Y-3.7165
X8.9402Y-2.7165
X8.9402Y-3.7165
T3
X4.0551Y-2.9528
X4.0551Y-3.0512
X4.252Y-2.9528
X4.252Y-3.0512
X4.3776Y-2.5197
X4.3776Y-2.7559
X4.4488Y-3.5827
X4.4488Y-3.8827
X4.6776Y-2.5197
X4.6776Y-2.7559
X4.7638Y-3.2677
X4.7638Y-3.3661
X4.8031Y-3.5493
X4.8031Y-3.6871
X4.8031Y-3.9173
X4.8031Y-4.0551
X4.8106Y-2.5197
X4.8106Y-2.7559
X4.9606Y-3.2677
X4.9606Y-3.3661
X5.1106Y-2.5197
X5.1106Y-2.7559
X5.598Y-2.126
X5.598Y-2.3228
X5.763Y-2.5197
X5.763Y-2.7165
X5.898Y-2.126
X5.898Y-2.3228
X6.063Y-2.5197
X6.063Y-2.7165
X6.1811Y-2.5197
X6.1811Y-2.7165
X6.2795Y-2.5197
X6.2795Y-2.7165
X6.3854Y-2.5197
X6.3854Y-2.7165
X6.6854Y-2.5197
X6.6854Y-2.7165
X6.9366Y-2.9528
X6.9366Y-3.2283
X6.9366Y-3.5039
X7.2366Y-2.9528
X7.2366Y-3.2283
X7.2366Y-3.5039
X7.2591Y-2.126
X7.2591Y-2.426
X7.3591Y-2.126
X7.3591Y-2.426
X7.3941Y-2.9528
X7.3941Y-3.2283
X7.4016Y-3.5039
X7.4591Y-2.126
X7.4591Y-2.426
X7.4772Y-4.252
X7.4803Y-4.5453
X7.5591Y-2.126
X7.5591Y-2.426
X7.5772Y-4.252
X7.5803Y-4.5453
X7.6772Y-4.252
X7.6803Y-4.5453
X7.6941Y-2.9528
X7.6941Y-3.2283
X7.7016Y-3.5039
X7.8102Y-2.4409
X7.874Y-2.9528
X7.874Y-3.2283
X7.874Y-3.5039
X7.9724Y-2.9528
X7.9724Y-3.2283
X7.9724Y-3.5039
X8.1102Y-2.4409
X8.3858Y-2.9677
X8.3858Y-3.2677
X8.3858Y-3.3858
X8.3858Y-3.4843
X8.5807Y-2.9677
X8.5807Y-3.2677
X8.5827Y-3.3858
X8.5827Y-3.4843
X8.6295Y-2.4409
X8.7402Y-3.9764
X8.7402Y-4.2764
X8.7795Y-2.9602
X8.7795Y-3.2602
X8.7795Y-3.3858
X8.7795Y-3.4843
X8.8976Y-3.9764
X8.8976Y-4.2764
X8.9295Y-2.4409
T4
X4.4488Y-3.3071
X4.4488Y-3.4071
X7.974Y-2.126
X7.974Y-2.226
X8.3858Y-2.126
X8.3858Y-2.226
T5
X4.1317Y-4.0142
X4.1317Y-4.1126
X4.5866Y-2.2047
X4.685Y-2.2047
X5.063Y-2.2047
X5.1614Y-2.2047
X5.2165Y-4.5276
X5.315Y-4.5276
X5.4134Y-4.5276
X5.7087Y-4.5276
X5.8071Y-4.5276
X5.9055Y-4.5276
X6.2008Y-4.5276
X6.2992Y-4.5276
X6.3976Y-4.5276
T6
X4.0339Y-2.5197
X4.0339Y-2.7559
X4.2339Y-2.5197
X4.2339Y-2.7559
T7
X4.1317Y-3.522
X4.1317Y-3.622
X4.1317Y-3.722
X6.2402Y-2.126
X6.2402Y-2.3031
X6.4961Y-2.126
X6.4961Y-2.3031
X6.6929Y-2.126
X6.6929Y-2.3031
X6.9488Y-2.126
X6.9488Y-2.3031
T8
X4.4488Y-4.0807
X4.4488Y-4.5807
X5.3898Y-2.8648
X5.3898Y-4.0648
X5.8051Y-2.8648
X5.8051Y-4.0648
X6.2205Y-2.8648
X6.2205Y-4.0648
X8.0315Y-4.2913
X8.0315Y-4.4882
X8.2283Y-4.2913
X8.2283Y-4.4882
X8.4252Y-4.2913
X8.4252Y-4.4882
T9
X4.1339Y-2.1654
X4.1339Y-4.5276
X8.8583Y-2.1654
X8.8583Y-4.5276
T0
M30
