%TF.GenerationSoftware,KiCad,Pcbnew,7.0.7*%
%TF.CreationDate,2023-10-27T23:14:04+02:00*%
%TF.ProjectId,ProstheticHandV2,50726f73-7468-4657-9469-6348616e6456,rev?*%
%TF.SameCoordinates,Original*%
%TF.FileFunction,Soldermask,Bot*%
%TF.FilePolarity,Negative*%
%FSLAX46Y46*%
G04 Gerber Fmt 4.6, Leading zero omitted, Abs format (unit mm)*
G04 Created by KiCad (PCBNEW 7.0.7) date 2023-10-27 23:14:04*
%MOMM*%
%LPD*%
G01*
G04 APERTURE LIST*
G04 Aperture macros list*
%AMRoundRect*
0 Rectangle with rounded corners*
0 $1 Rounding radius*
0 $2 $3 $4 $5 $6 $7 $8 $9 X,Y pos of 4 corners*
0 Add a 4 corners polygon primitive as box body*
4,1,4,$2,$3,$4,$5,$6,$7,$8,$9,$2,$3,0*
0 Add four circle primitives for the rounded corners*
1,1,$1+$1,$2,$3*
1,1,$1+$1,$4,$5*
1,1,$1+$1,$6,$7*
1,1,$1+$1,$8,$9*
0 Add four rect primitives between the rounded corners*
20,1,$1+$1,$2,$3,$4,$5,0*
20,1,$1+$1,$4,$5,$6,$7,0*
20,1,$1+$1,$6,$7,$8,$9,0*
20,1,$1+$1,$8,$9,$2,$3,0*%
G04 Aperture macros list end*
%ADD10C,1.600000*%
%ADD11O,1.600000X1.600000*%
%ADD12RoundRect,0.250000X0.600000X0.725000X-0.600000X0.725000X-0.600000X-0.725000X0.600000X-0.725000X0*%
%ADD13O,1.700000X1.950000*%
%ADD14C,2.000000*%
%ADD15R,2.000000X1.905000*%
%ADD16O,2.000000X1.905000*%
%ADD17RoundRect,0.250000X-0.600000X-0.725000X0.600000X-0.725000X0.600000X0.725000X-0.600000X0.725000X0*%
%ADD18C,6.400000*%
%ADD19C,1.440000*%
%ADD20R,2.000000X2.000000*%
%ADD21O,2.000000X2.000000*%
%ADD22R,2.400000X2.400000*%
%ADD23O,2.400000X2.400000*%
%ADD24R,3.000000X3.000000*%
%ADD25C,3.000000*%
%ADD26R,1.600000X1.600000*%
%ADD27C,2.400000*%
%ADD28R,1.800000X1.800000*%
%ADD29C,1.800000*%
%ADD30RoundRect,0.250000X0.725000X-0.600000X0.725000X0.600000X-0.725000X0.600000X-0.725000X-0.600000X0*%
%ADD31O,1.950000X1.700000*%
%ADD32C,1.524000*%
G04 APERTURE END LIST*
D10*
%TO.C,R22*%
X187810000Y-75000000D03*
D11*
X195430000Y-75000000D03*
%TD*%
D10*
%TO.C,R12*%
X146380000Y-69000000D03*
D11*
X154000000Y-69000000D03*
%TD*%
D10*
%TO.C,R7*%
X111190000Y-70000000D03*
D11*
X118810000Y-70000000D03*
%TD*%
D12*
%TO.C,J4*%
X150000000Y-115000000D03*
D13*
X147500000Y-115000000D03*
X145000000Y-115000000D03*
%TD*%
D14*
%TO.C,SW2*%
X158500000Y-54000000D03*
X165000000Y-54000000D03*
X158500000Y-58500000D03*
X165000000Y-58500000D03*
%TD*%
D15*
%TO.C,U1*%
X104945000Y-94540000D03*
D16*
X104945000Y-92000000D03*
X104945000Y-89460000D03*
%TD*%
D17*
%TO.C,J2*%
X116500000Y-56000000D03*
D13*
X119000000Y-56000000D03*
%TD*%
D10*
%TO.C,C7*%
X213000000Y-88500000D03*
X213000000Y-86000000D03*
%TD*%
%TO.C,R19*%
X176190000Y-82000000D03*
D11*
X183810000Y-82000000D03*
%TD*%
D10*
%TO.C,R18*%
X162190000Y-64000000D03*
D11*
X169810000Y-64000000D03*
%TD*%
D10*
%TO.C,R5*%
X111190000Y-64000000D03*
D11*
X118810000Y-64000000D03*
%TD*%
D18*
%TO.C,H1*%
X105000000Y-55000000D03*
%TD*%
D19*
%TO.C,RV2*%
X195000000Y-108000000D03*
X192460000Y-108000000D03*
X189920000Y-108000000D03*
%TD*%
D20*
%TO.C,D4*%
X107540000Y-70000000D03*
D21*
X102460000Y-70000000D03*
%TD*%
D22*
%TO.C,D1*%
X113000000Y-116350000D03*
D23*
X113000000Y-103650000D03*
%TD*%
D10*
%TO.C,C2*%
X126000000Y-85500000D03*
X126000000Y-83000000D03*
%TD*%
%TO.C,C13*%
X200000000Y-75000000D03*
X202500000Y-75000000D03*
%TD*%
%TO.C,C9*%
X218000000Y-88500000D03*
X218000000Y-86000000D03*
%TD*%
%TO.C,R3*%
X226000000Y-108620000D03*
D11*
X226000000Y-101000000D03*
%TD*%
D24*
%TO.C,RV1*%
X204000000Y-114000000D03*
D25*
X209000000Y-114000000D03*
X214000000Y-114000000D03*
X204000000Y-109000000D03*
X209000000Y-109000000D03*
X214000000Y-109000000D03*
%TD*%
D14*
%TO.C,SW3*%
X170000000Y-54000000D03*
X176500000Y-54000000D03*
X170000000Y-58500000D03*
X176500000Y-58500000D03*
%TD*%
D10*
%TO.C,C8*%
X157000000Y-69000000D03*
X159500000Y-69000000D03*
%TD*%
%TO.C,R26*%
X188000000Y-89000000D03*
D11*
X195620000Y-89000000D03*
%TD*%
D19*
%TO.C,RV3*%
X195080000Y-115450000D03*
X192540000Y-115450000D03*
X190000000Y-115450000D03*
%TD*%
D10*
%TO.C,R4*%
X122190000Y-64000000D03*
D11*
X129810000Y-64000000D03*
%TD*%
D26*
%TO.C,SW1*%
X184380000Y-61620000D03*
D11*
X186920000Y-61620000D03*
X189460000Y-61620000D03*
X192000000Y-61620000D03*
X192000000Y-54000000D03*
X189460000Y-54000000D03*
X186920000Y-54000000D03*
X184380000Y-54000000D03*
%TD*%
D10*
%TO.C,R2*%
X113000000Y-98620000D03*
D11*
X113000000Y-91000000D03*
%TD*%
D10*
%TO.C,C4*%
X121000000Y-85500000D03*
X121000000Y-83000000D03*
%TD*%
%TO.C,C10*%
X223000000Y-88500000D03*
X223000000Y-86000000D03*
%TD*%
%TO.C,C11*%
X157000000Y-64000000D03*
X159500000Y-64000000D03*
%TD*%
D27*
%TO.C,R23*%
X147450000Y-103245000D03*
D23*
X147450000Y-72765000D03*
%TD*%
D18*
%TO.C,H4*%
X225000000Y-115000000D03*
%TD*%
D28*
%TO.C,D5*%
X213000000Y-54000000D03*
D29*
X213000000Y-56540000D03*
%TD*%
D10*
%TO.C,C5*%
X103000000Y-75000000D03*
X103000000Y-77500000D03*
%TD*%
%TO.C,R15*%
X142190000Y-54000000D03*
D11*
X149810000Y-54000000D03*
%TD*%
D10*
%TO.C,R14*%
X217950000Y-75380000D03*
D11*
X217950000Y-83000000D03*
%TD*%
D30*
%TO.C,J1*%
X104945000Y-104460000D03*
D31*
X104945000Y-101960000D03*
%TD*%
D26*
%TO.C,C1*%
X122000000Y-99500000D03*
D10*
X122000000Y-103000000D03*
%TD*%
%TO.C,C6*%
X108000000Y-75000000D03*
X108000000Y-77500000D03*
%TD*%
%TO.C,R21*%
X176190000Y-75000000D03*
D11*
X183810000Y-75000000D03*
%TD*%
D28*
%TO.C,D2*%
X113000000Y-84000000D03*
D29*
X113000000Y-86540000D03*
%TD*%
D32*
%TO.C,A1*%
X173740000Y-94400000D03*
X176280000Y-94400000D03*
X178820000Y-94400000D03*
X181360000Y-94400000D03*
X183900000Y-94400000D03*
X186440000Y-94400000D03*
X188980000Y-94400000D03*
X191520000Y-94400000D03*
X194060000Y-94400000D03*
X196600000Y-94400000D03*
X199140000Y-94400000D03*
X201680000Y-94400000D03*
X204220000Y-94400000D03*
X206760000Y-94400000D03*
X209300000Y-94400000D03*
X211840000Y-94400000D03*
X214380000Y-94400000D03*
X216920000Y-94400000D03*
X219460000Y-94400000D03*
X222000000Y-94400000D03*
X224540000Y-94400000D03*
X227080000Y-94400000D03*
X227080000Y-69000000D03*
X224540000Y-69000000D03*
X222000000Y-69000000D03*
X219460000Y-69000000D03*
X216920000Y-69000000D03*
X214380000Y-69000000D03*
X211840000Y-69000000D03*
X209300000Y-69000000D03*
X206760000Y-69000000D03*
X204220000Y-69000000D03*
X201680000Y-69000000D03*
X199140000Y-69000000D03*
X196600000Y-69000000D03*
X194060000Y-69000000D03*
X191520000Y-69000000D03*
X188980000Y-69000000D03*
X186440000Y-69000000D03*
X183900000Y-69000000D03*
X181360000Y-69000000D03*
X178820000Y-69000000D03*
X176280000Y-69000000D03*
X173740000Y-69000000D03*
%TD*%
D10*
%TO.C,C14*%
X200000000Y-89000000D03*
X202500000Y-89000000D03*
%TD*%
%TO.C,R25*%
X176190000Y-89000000D03*
D11*
X183810000Y-89000000D03*
%TD*%
D10*
%TO.C,R10*%
X142190000Y-59000000D03*
D11*
X149810000Y-59000000D03*
%TD*%
D10*
%TO.C,C12*%
X200000000Y-82000000D03*
X202500000Y-82000000D03*
%TD*%
%TO.C,R16*%
X223000000Y-75190000D03*
D11*
X223000000Y-82810000D03*
%TD*%
D18*
%TO.C,H2*%
X225000000Y-55000000D03*
%TD*%
D20*
%TO.C,D3*%
X107540000Y-64000000D03*
D21*
X102460000Y-64000000D03*
%TD*%
D17*
%TO.C,J3*%
X128600000Y-56000000D03*
D13*
X131100000Y-56000000D03*
%TD*%
D12*
%TO.C,J5*%
X137500000Y-115000000D03*
D13*
X135000000Y-115000000D03*
X132500000Y-115000000D03*
%TD*%
D10*
%TO.C,R13*%
X162190000Y-69000000D03*
D11*
X169810000Y-69000000D03*
%TD*%
D10*
%TO.C,R9*%
X198380000Y-62000000D03*
D11*
X206000000Y-62000000D03*
%TD*%
D18*
%TO.C,H3*%
X105000000Y-115000000D03*
%TD*%
D27*
%TO.C,R24*%
X136900000Y-103245000D03*
D23*
X136900000Y-72765000D03*
%TD*%
D10*
%TO.C,R1*%
X222000000Y-101000000D03*
D11*
X222000000Y-108620000D03*
%TD*%
D12*
%TO.C,J6*%
X162500000Y-115000000D03*
D13*
X160000000Y-115000000D03*
X157500000Y-115000000D03*
%TD*%
D10*
%TO.C,R17*%
X146380000Y-64000000D03*
D11*
X154000000Y-64000000D03*
%TD*%
D28*
%TO.C,D6*%
X202540000Y-54000000D03*
D29*
X202540000Y-56540000D03*
%TD*%
D10*
%TO.C,R11*%
X213000000Y-75380000D03*
D11*
X213000000Y-83000000D03*
%TD*%
D27*
%TO.C,R27*%
X158000000Y-103245000D03*
D23*
X158000000Y-72765000D03*
%TD*%
D26*
%TO.C,C3*%
X122000000Y-93652651D03*
D10*
X122000000Y-90152651D03*
%TD*%
%TO.C,R6*%
X122190000Y-70000000D03*
D11*
X129810000Y-70000000D03*
%TD*%
D10*
%TO.C,R20*%
X187810000Y-82000000D03*
D11*
X195430000Y-82000000D03*
%TD*%
D10*
%TO.C,R8*%
X219190000Y-62000000D03*
D11*
X226810000Y-62000000D03*
%TD*%
M02*
