%TF.GenerationSoftware,KiCad,Pcbnew,7.0.7*%
%TF.CreationDate,2023-11-05T16:23:14+01:00*%
%TF.ProjectId,ProstheticHandV2,50726f73-7468-4657-9469-6348616e6456,rev?*%
%TF.SameCoordinates,Original*%
%TF.FileFunction,Soldermask,Bot*%
%TF.FilePolarity,Negative*%
%FSLAX46Y46*%
G04 Gerber Fmt 4.6, Leading zero omitted, Abs format (unit mm)*
G04 Created by KiCad (PCBNEW 7.0.7) date 2023-11-05 16:23:14*
%MOMM*%
%LPD*%
G01*
G04 APERTURE LIST*
G04 Aperture macros list*
%AMRoundRect*
0 Rectangle with rounded corners*
0 $1 Rounding radius*
0 $2 $3 $4 $5 $6 $7 $8 $9 X,Y pos of 4 corners*
0 Add a 4 corners polygon primitive as box body*
4,1,4,$2,$3,$4,$5,$6,$7,$8,$9,$2,$3,0*
0 Add four circle primitives for the rounded corners*
1,1,$1+$1,$2,$3*
1,1,$1+$1,$4,$5*
1,1,$1+$1,$6,$7*
1,1,$1+$1,$8,$9*
0 Add four rect primitives between the rounded corners*
20,1,$1+$1,$2,$3,$4,$5,0*
20,1,$1+$1,$4,$5,$6,$7,0*
20,1,$1+$1,$6,$7,$8,$9,0*
20,1,$1+$1,$8,$9,$2,$3,0*%
G04 Aperture macros list end*
%ADD10C,2.400000*%
%ADD11O,2.400000X2.400000*%
%ADD12RoundRect,0.250000X-0.600000X-0.725000X0.600000X-0.725000X0.600000X0.725000X-0.600000X0.725000X0*%
%ADD13O,1.700000X1.950000*%
%ADD14R,1.600000X1.600000*%
%ADD15O,1.600000X1.600000*%
%ADD16C,6.400000*%
%ADD17R,1.800000X1.800000*%
%ADD18C,1.800000*%
%ADD19R,2.000000X2.000000*%
%ADD20O,2.000000X2.000000*%
%ADD21C,2.000000*%
%ADD22RoundRect,0.250000X0.600000X0.725000X-0.600000X0.725000X-0.600000X-0.725000X0.600000X-0.725000X0*%
%ADD23R,3.000000X3.000000*%
%ADD24C,3.000000*%
%ADD25C,1.440000*%
%ADD26C,1.524000*%
%ADD27RoundRect,0.250000X-0.725000X0.600000X-0.725000X-0.600000X0.725000X-0.600000X0.725000X0.600000X0*%
%ADD28O,1.950000X1.700000*%
%ADD29R,1.905000X2.000000*%
%ADD30O,1.905000X2.000000*%
G04 APERTURE END LIST*
D10*
%TO.C,R25*%
X162442000Y-96271000D03*
D11*
X162442000Y-65791000D03*
%TD*%
D12*
%TO.C,J5*%
X142574000Y-113792000D03*
D13*
X145074000Y-113792000D03*
X147574000Y-113792000D03*
%TD*%
D14*
%TO.C,SW1*%
X193294000Y-55626000D03*
D15*
X195834000Y-55626000D03*
X198374000Y-55626000D03*
X200914000Y-55626000D03*
X200914000Y-48006000D03*
X198374000Y-48006000D03*
X195834000Y-48006000D03*
X193294000Y-48006000D03*
%TD*%
D16*
%TO.C,H4*%
X230000000Y-115000000D03*
%TD*%
D10*
%TO.C,R22*%
X142240000Y-96271000D03*
D11*
X142240000Y-65791000D03*
%TD*%
D17*
%TO.C,D5*%
X219263500Y-50038000D03*
D18*
X221803500Y-50038000D03*
%TD*%
D19*
%TO.C,D4*%
X205994000Y-74930000D03*
D20*
X211074000Y-74930000D03*
%TD*%
D21*
%TO.C,SW3*%
X178308000Y-48006000D03*
X184808000Y-48006000D03*
X178308000Y-52506000D03*
X184808000Y-52506000D03*
%TD*%
D22*
%TO.C,J3*%
X137414000Y-50292000D03*
D13*
X134914000Y-50292000D03*
%TD*%
D23*
%TO.C,RV1*%
X195232000Y-114554000D03*
D24*
X200232000Y-114554000D03*
X205232000Y-114554000D03*
X195232000Y-109554000D03*
X200232000Y-109554000D03*
X205232000Y-109554000D03*
%TD*%
D21*
%TO.C,SW2*%
X163882000Y-48078000D03*
X170382000Y-48078000D03*
X163882000Y-52578000D03*
X170382000Y-52578000D03*
%TD*%
D12*
%TO.C,J4*%
X157560000Y-113792000D03*
D13*
X160060000Y-113792000D03*
X162560000Y-113792000D03*
%TD*%
D19*
%TO.C,D3*%
X205994000Y-80264000D03*
D20*
X211074000Y-80264000D03*
%TD*%
D16*
%TO.C,H1*%
X125000000Y-50000000D03*
%TD*%
%TO.C,H3*%
X125000000Y-115000000D03*
%TD*%
D25*
%TO.C,RV3*%
X220980000Y-113528000D03*
X220980000Y-110988000D03*
X220980000Y-108448000D03*
%TD*%
D10*
%TO.C,R21*%
X152400000Y-96271000D03*
D11*
X152400000Y-65791000D03*
%TD*%
D12*
%TO.C,J6*%
X172546000Y-114046000D03*
D13*
X175046000Y-114046000D03*
X177546000Y-114046000D03*
%TD*%
D17*
%TO.C,D2*%
X128745000Y-64220300D03*
D18*
X131285000Y-64220300D03*
%TD*%
D26*
%TO.C,A1*%
X176530000Y-93980000D03*
X179070000Y-93980000D03*
X181610000Y-93980000D03*
X184150000Y-93980000D03*
X186690000Y-93980000D03*
X189230000Y-93980000D03*
X191770000Y-93980000D03*
X194310000Y-93980000D03*
X196850000Y-93980000D03*
X199390000Y-93980000D03*
X201930000Y-93980000D03*
X204470000Y-93980000D03*
X207010000Y-93980000D03*
X209550000Y-93980000D03*
X212090000Y-93980000D03*
X214630000Y-93980000D03*
X217170000Y-93980000D03*
X219710000Y-93980000D03*
X222250000Y-93980000D03*
X224790000Y-93980000D03*
X227330000Y-93980000D03*
X229870000Y-93980000D03*
X229870000Y-68580000D03*
X227330000Y-68580000D03*
X224790000Y-68580000D03*
X222250000Y-68580000D03*
X219710000Y-68580000D03*
X217170000Y-68580000D03*
X214630000Y-68580000D03*
X212090000Y-68580000D03*
X209550000Y-68580000D03*
X207010000Y-68580000D03*
X204470000Y-68580000D03*
X201930000Y-68580000D03*
X199390000Y-68580000D03*
X196850000Y-68580000D03*
X194310000Y-68580000D03*
X191770000Y-68580000D03*
X189230000Y-68580000D03*
X186690000Y-68580000D03*
X184150000Y-68580000D03*
X181610000Y-68580000D03*
X179070000Y-68580000D03*
X176530000Y-68580000D03*
%TD*%
D22*
%TO.C,J2*%
X148570000Y-50292000D03*
D13*
X146070000Y-50292000D03*
%TD*%
D27*
%TO.C,J1*%
X126972000Y-100542300D03*
D28*
X126972000Y-103042300D03*
%TD*%
D25*
%TO.C,RV2*%
X213868000Y-113538000D03*
X213868000Y-110998000D03*
X213868000Y-108458000D03*
%TD*%
D29*
%TO.C,U1*%
X125628000Y-79546300D03*
D30*
X128168000Y-79546300D03*
X130708000Y-79546300D03*
%TD*%
D17*
%TO.C,D6*%
X209611500Y-50038000D03*
D18*
X212151500Y-50038000D03*
%TD*%
D16*
%TO.C,H2*%
X230000000Y-50000000D03*
%TD*%
M02*
