M48
METRIC,TZ
T1C0.200
T2C0.300
T3C0.500
T4C0.600
T5C0.950
T6C1.000
T7C3.200
%
G90
G05
T1
X178025Y-126163
X178025Y-127663
X179525Y-126163
X179525Y-127663
X181025Y-126163
X181025Y-127663
X186200Y-126163
X186200Y-127663
X187700Y-126163
X187700Y-127663
X189200Y-126163
X189200Y-127663
X194500Y-126163
X194500Y-127663
X196000Y-126163
X196000Y-127663
X197500Y-126163
X197500Y-127663
X202700Y-126163
X202700Y-127663
X204200Y-126163
X204200Y-127663
X205700Y-126163
X205700Y-127663
T2
X101650Y-136550
X135250Y-133675
X137550Y-133675
X138975Y-108950
X139100Y-126525
X141025Y-110886
X141025Y-114515
X141050Y-120911
X141050Y-124540
X141125Y-133675
X143475Y-133675
X147025Y-133675
X149325Y-133675
X149900Y-111375
X152437Y-119288
X154000Y-123000
X154629Y-109557
X156225Y-106725
X156375Y-135250
X158450Y-107575
X158525Y-113650
X159269Y-107541
X159350Y-113650
X160775Y-106800
X160850Y-128400
X160975Y-112675
X161800Y-115850
X161875Y-109800
X163003Y-131522
X163575Y-116100
X165025Y-114575
X165075Y-105100
X165400Y-123775
X165750Y-136800
X166950Y-127300
X167325Y-112975
X168500Y-112975
X169750Y-112975
X170775Y-106525
X173375Y-102425
X173850Y-106525
X175475Y-129093
X176525Y-133200
X177350Y-120923
X179161Y-122925
X179475Y-121002
X179975Y-107550
X181500Y-121002
X182100Y-109500
X182175Y-133225
X182650Y-101450
X183750Y-111725
X183775Y-113825
X183775Y-129075
X184675Y-101425
X185650Y-120923
X185750Y-113825
X185775Y-111725
X185925Y-109600
X185950Y-107675
X187325Y-122902
X187650Y-112863
X187775Y-121025
X188600Y-114925
X188775Y-105325
X189550Y-133225
X189750Y-114925
X189850Y-121002
X190975Y-114925
X191825Y-112863
X191975Y-129093
X193900Y-120923
X195290Y-109650
X195290Y-111750
X195400Y-107550
X195636Y-122950
X195975Y-121002
X197400Y-133325
X198125Y-121002
X200000Y-101750
X200200Y-129093
X202100Y-120900
X203836Y-122925
X204250Y-121002
X205025Y-133300
X206275Y-121002
T3
X102600Y-105000
X102600Y-145000
X103303Y-103303
X103303Y-106697
X103303Y-143303
X103303Y-146697
X105000Y-102600
X105000Y-107400
X105000Y-142600
X105000Y-147400
X106697Y-103303
X106697Y-106697
X106697Y-143303
X106697Y-146697
X107400Y-105000
X107400Y-145000
X202600Y-105000
X202600Y-145000
X203303Y-103303
X203303Y-106697
X203303Y-143303
X203303Y-146697
X205000Y-102600
X205000Y-107400
X205000Y-142600
X205000Y-147400
X206697Y-103303
X206697Y-106697
X206697Y-143303
X206697Y-146697
X207400Y-105000
X207400Y-145000
T5
X107283Y-111800
X107283Y-114300
X107283Y-116800
X107283Y-123000
X107283Y-125500
X107283Y-128000
X119400Y-142700
X121900Y-142700
X124400Y-142700
X130600Y-142700
X133100Y-142700
X135600Y-142700
X141800Y-142700
X144300Y-142700
X146800Y-142700
T6
X137900Y-102950
X140440Y-102950
X142980Y-102950
X145520Y-102950
X148060Y-102950
X150600Y-102950
X155650Y-142818
X158150Y-142818
X164350Y-142818
X166850Y-142818
X175850Y-142850
X178350Y-142850
X184600Y-142850
X187100Y-142850
X193300Y-142818
X195800Y-142818
X202968Y-112000
X202968Y-114500
T7
X105000Y-105000
X105000Y-145000
X205000Y-105000
X205000Y-145000
T4
G00X154180Y-104325
M15
G01X154180Y-103525
M16
G05
G00X154180Y-108675
M15
G01X154180Y-107575
M16
G05
G00X162820Y-104325
M15
G01X162820Y-103525
M16
G05
G00X162820Y-108675
M15
G01X162820Y-107575
M16
G05
T0
M30
