%TF.GenerationSoftware,KiCad,Pcbnew,7.0.7*%
%TF.CreationDate,2024-03-16T18:53:28+01:00*%
%TF.ProjectId,OpenHand,4f70656e-4861-46e6-942e-6b696361645f,rev?*%
%TF.SameCoordinates,Original*%
%TF.FileFunction,Soldermask,Top*%
%TF.FilePolarity,Negative*%
%FSLAX46Y46*%
G04 Gerber Fmt 4.6, Leading zero omitted, Abs format (unit mm)*
G04 Created by KiCad (PCBNEW 7.0.7) date 2024-03-16 18:53:28*
%MOMM*%
%LPD*%
G01*
G04 APERTURE LIST*
G04 Aperture macros list*
%AMRoundRect*
0 Rectangle with rounded corners*
0 $1 Rounding radius*
0 $2 $3 $4 $5 $6 $7 $8 $9 X,Y pos of 4 corners*
0 Add a 4 corners polygon primitive as box body*
4,1,4,$2,$3,$4,$5,$6,$7,$8,$9,$2,$3,0*
0 Add four circle primitives for the rounded corners*
1,1,$1+$1,$2,$3*
1,1,$1+$1,$4,$5*
1,1,$1+$1,$6,$7*
1,1,$1+$1,$8,$9*
0 Add four rect primitives between the rounded corners*
20,1,$1+$1,$2,$3,$4,$5,0*
20,1,$1+$1,$4,$5,$6,$7,0*
20,1,$1+$1,$6,$7,$8,$9,0*
20,1,$1+$1,$8,$9,$2,$3,0*%
%AMFreePoly0*
4,1,19,0.500000,-0.750000,0.000000,-0.750000,0.000000,-0.744911,-0.071157,-0.744911,-0.207708,-0.704816,-0.327430,-0.627875,-0.420627,-0.520320,-0.479746,-0.390866,-0.500000,-0.250000,-0.500000,0.250000,-0.479746,0.390866,-0.420627,0.520320,-0.327430,0.627875,-0.207708,0.704816,-0.071157,0.744911,0.000000,0.744911,0.000000,0.750000,0.500000,0.750000,0.500000,-0.750000,0.500000,-0.750000,
$1*%
%AMFreePoly1*
4,1,19,0.000000,0.744911,0.071157,0.744911,0.207708,0.704816,0.327430,0.627875,0.420627,0.520320,0.479746,0.390866,0.500000,0.250000,0.500000,-0.250000,0.479746,-0.390866,0.420627,-0.520320,0.327430,-0.627875,0.207708,-0.704816,0.071157,-0.744911,0.000000,-0.744911,0.000000,-0.750000,-0.500000,-0.750000,-0.500000,0.750000,0.000000,0.750000,0.000000,0.744911,0.000000,0.744911,
$1*%
G04 Aperture macros list end*
%ADD10RoundRect,0.250000X0.450000X-0.262500X0.450000X0.262500X-0.450000X0.262500X-0.450000X-0.262500X0*%
%ADD11RoundRect,0.250000X-0.262500X-0.450000X0.262500X-0.450000X0.262500X0.450000X-0.262500X0.450000X0*%
%ADD12RoundRect,0.250000X0.600000X0.750000X-0.600000X0.750000X-0.600000X-0.750000X0.600000X-0.750000X0*%
%ADD13O,1.700000X2.000000*%
%ADD14RoundRect,0.250000X0.312500X0.625000X-0.312500X0.625000X-0.312500X-0.625000X0.312500X-0.625000X0*%
%ADD15C,0.800000*%
%ADD16C,6.400000*%
%ADD17C,1.000000*%
%ADD18R,1.500000X2.000000*%
%ADD19R,3.800000X2.000000*%
%ADD20RoundRect,0.250000X0.262500X0.450000X-0.262500X0.450000X-0.262500X-0.450000X0.262500X-0.450000X0*%
%ADD21RoundRect,0.225000X0.375000X-0.225000X0.375000X0.225000X-0.375000X0.225000X-0.375000X-0.225000X0*%
%ADD22RoundRect,0.250000X0.725000X-0.600000X0.725000X0.600000X-0.725000X0.600000X-0.725000X-0.600000X0*%
%ADD23O,1.950000X1.700000*%
%ADD24RoundRect,0.250000X0.600000X0.725000X-0.600000X0.725000X-0.600000X-0.725000X0.600000X-0.725000X0*%
%ADD25O,1.700000X1.950000*%
%ADD26FreePoly0,270.000000*%
%ADD27FreePoly1,270.000000*%
%ADD28RoundRect,0.250000X0.250000X0.475000X-0.250000X0.475000X-0.250000X-0.475000X0.250000X-0.475000X0*%
%ADD29RoundRect,0.250000X0.475000X-0.250000X0.475000X0.250000X-0.475000X0.250000X-0.475000X-0.250000X0*%
%ADD30RoundRect,0.250000X-0.450000X0.262500X-0.450000X-0.262500X0.450000X-0.262500X0.450000X0.262500X0*%
%ADD31R,0.549999X0.800001*%
%ADD32C,0.650000*%
%ADD33R,0.600000X1.240000*%
%ADD34R,0.300000X1.240000*%
%ADD35O,1.000000X2.100000*%
%ADD36O,1.000000X1.800000*%
%ADD37RoundRect,0.250000X-0.250000X-0.475000X0.250000X-0.475000X0.250000X0.475000X-0.250000X0.475000X0*%
%ADD38R,1.000000X1.250000*%
%ADD39RoundRect,0.250000X-0.475000X0.250000X-0.475000X-0.250000X0.475000X-0.250000X0.475000X0.250000X0*%
%ADD40RoundRect,0.225000X-0.225000X-0.375000X0.225000X-0.375000X0.225000X0.375000X-0.225000X0.375000X0*%
%ADD41R,2.310000X2.460000*%
%ADD42RoundRect,0.100000X0.100000X-0.687500X0.100000X0.687500X-0.100000X0.687500X-0.100000X-0.687500X0*%
%ADD43R,1.300000X2.000000*%
%ADD44R,2.000000X2.000000*%
%ADD45FreePoly0,0.000000*%
%ADD46FreePoly1,0.000000*%
%ADD47RoundRect,0.250000X-0.503814X-0.132583X-0.132583X-0.503814X0.503814X0.132583X0.132583X0.503814X0*%
%ADD48RoundRect,0.250000X-0.750000X0.600000X-0.750000X-0.600000X0.750000X-0.600000X0.750000X0.600000X0*%
%ADD49O,2.000000X1.700000*%
%ADD50FreePoly0,90.000000*%
%ADD51FreePoly1,90.000000*%
%ADD52R,3.500000X2.950000*%
%ADD53RoundRect,0.250000X-0.375000X-1.075000X0.375000X-1.075000X0.375000X1.075000X-0.375000X1.075000X0*%
%ADD54RoundRect,0.150000X-0.587500X-0.150000X0.587500X-0.150000X0.587500X0.150000X-0.587500X0.150000X0*%
%ADD55RoundRect,0.250000X-0.159099X0.512652X-0.512652X0.159099X0.159099X-0.512652X0.512652X-0.159099X0*%
%ADD56RoundRect,0.250000X-0.312500X-0.625000X0.312500X-0.625000X0.312500X0.625000X-0.312500X0.625000X0*%
%ADD57RoundRect,0.250000X-1.075000X0.375000X-1.075000X-0.375000X1.075000X-0.375000X1.075000X0.375000X0*%
%ADD58RoundRect,0.250000X0.159099X-0.512652X0.512652X-0.159099X-0.159099X0.512652X-0.512652X0.159099X0*%
%ADD59RoundRect,0.150000X-0.837500X-0.150000X0.837500X-0.150000X0.837500X0.150000X-0.837500X0.150000X0*%
%ADD60R,1.250000X1.000000*%
%ADD61RoundRect,0.250000X-0.512652X-0.159099X-0.159099X-0.512652X0.512652X0.159099X0.159099X0.512652X0*%
%ADD62RoundRect,0.075000X-0.441942X-0.548008X0.548008X0.441942X0.441942X0.548008X-0.548008X-0.441942X0*%
%ADD63RoundRect,0.075000X0.441942X-0.548008X0.548008X-0.441942X-0.441942X0.548008X-0.548008X0.441942X0*%
%ADD64R,1.700000X1.700000*%
%ADD65O,1.700000X1.700000*%
G04 APERTURE END LIST*
D10*
%TO.C,R21*%
X184650000Y-104062500D03*
X184650000Y-102237500D03*
%TD*%
D11*
%TO.C,R29*%
X123337500Y-118290000D03*
X125162500Y-118290000D03*
%TD*%
D12*
%TO.C,J2*%
X187100000Y-142850000D03*
D13*
X184600000Y-142850000D03*
%TD*%
D10*
%TO.C,R56*%
X200200000Y-130075000D03*
X200200000Y-128250000D03*
%TD*%
D14*
%TO.C,R59*%
X206162500Y-133312500D03*
X203237500Y-133312500D03*
%TD*%
D15*
%TO.C,H4*%
X202600000Y-145000000D03*
X203302944Y-143302944D03*
X203302944Y-146697056D03*
X205000000Y-142600000D03*
D16*
X205000000Y-145000000D03*
D15*
X205000000Y-147400000D03*
X206697056Y-143302944D03*
X206697056Y-146697056D03*
X207400000Y-145000000D03*
%TD*%
D17*
%TO.C,TP45*%
X175500000Y-126262500D03*
%TD*%
D11*
%TO.C,R31*%
X122912500Y-137040000D03*
X124737500Y-137040000D03*
%TD*%
D17*
%TO.C,TP27*%
X131237500Y-136785000D03*
%TD*%
D18*
%TO.C,U4*%
X178450000Y-105100000D03*
X176150000Y-105100000D03*
D19*
X176150000Y-111400000D03*
D18*
X173850000Y-105100000D03*
%TD*%
D20*
%TO.C,R35*%
X117425000Y-123840000D03*
X115600000Y-123840000D03*
%TD*%
D21*
%TO.C,D3*%
X195050000Y-105487500D03*
X195050000Y-102187500D03*
%TD*%
D17*
%TO.C,TP6*%
X170075000Y-136575000D03*
%TD*%
%TO.C,TP33*%
X191900000Y-126162500D03*
%TD*%
D22*
%TO.C,J12*%
X107282500Y-128000000D03*
D23*
X107282500Y-125500000D03*
X107282500Y-123000000D03*
%TD*%
D24*
%TO.C,J9*%
X135600000Y-142700000D03*
D25*
X133100000Y-142700000D03*
X130600000Y-142700000D03*
%TD*%
D26*
%TO.C,JP16*%
X113412500Y-123865000D03*
D27*
X113412500Y-125165000D03*
%TD*%
D28*
%TO.C,C12*%
X184850000Y-109627500D03*
X182950000Y-109627500D03*
%TD*%
D17*
%TO.C,TP3*%
X158525000Y-114625000D03*
%TD*%
D29*
%TO.C,C33*%
X196000000Y-121912500D03*
X196000000Y-120012500D03*
%TD*%
D17*
%TO.C,TP17*%
X148750000Y-107500000D03*
%TD*%
D30*
%TO.C,R23*%
X117750000Y-112977500D03*
X117750000Y-114802500D03*
%TD*%
D31*
%TO.C,U2*%
X188800000Y-104512501D03*
X189750001Y-104512501D03*
X190699999Y-104512501D03*
X190699999Y-101962501D03*
X189750001Y-101962501D03*
X188800000Y-101962501D03*
%TD*%
D17*
%TO.C,TP48*%
X183600000Y-126162500D03*
%TD*%
D28*
%TO.C,C26*%
X119087500Y-102427500D03*
X117187500Y-102427500D03*
%TD*%
D32*
%TO.C,J5*%
X161390000Y-107605000D03*
X155610000Y-107605000D03*
D33*
X161700000Y-108725000D03*
X160900000Y-108725000D03*
D34*
X159750000Y-108725000D03*
X158750000Y-108725000D03*
X158250000Y-108725000D03*
X157250000Y-108725000D03*
D33*
X156100000Y-108725000D03*
X155300000Y-108725000D03*
X155300000Y-108725000D03*
X156100000Y-108725000D03*
D34*
X156750000Y-108725000D03*
X157750000Y-108725000D03*
X159250000Y-108725000D03*
X160250000Y-108725000D03*
D33*
X160900000Y-108725000D03*
X161700000Y-108725000D03*
D35*
X162820000Y-108125000D03*
D36*
X162820000Y-103925000D03*
D35*
X154180000Y-108125000D03*
D36*
X154180000Y-103925000D03*
%TD*%
D22*
%TO.C,J8*%
X107282500Y-116800000D03*
D23*
X107282500Y-114300000D03*
X107282500Y-111800000D03*
%TD*%
D28*
%TO.C,C23*%
X131062500Y-134440000D03*
X129162500Y-134440000D03*
%TD*%
D29*
%TO.C,C39*%
X179425000Y-121912500D03*
X179425000Y-120012500D03*
%TD*%
D37*
%TO.C,C7*%
X194250000Y-109647500D03*
X196150000Y-109647500D03*
%TD*%
D10*
%TO.C,R53*%
X192000000Y-130075000D03*
X192000000Y-128250000D03*
%TD*%
D28*
%TO.C,C13*%
X184850000Y-113827500D03*
X182950000Y-113827500D03*
%TD*%
D20*
%TO.C,R32*%
X117912500Y-105090000D03*
X116087500Y-105090000D03*
%TD*%
D17*
%TO.C,TP22*%
X168150000Y-102400000D03*
%TD*%
%TO.C,TP2*%
X160650000Y-114625000D03*
%TD*%
D15*
%TO.C,H1*%
X102600000Y-105000000D03*
X103302944Y-103302944D03*
X103302944Y-106697056D03*
X105000000Y-102600000D03*
D16*
X105000000Y-105000000D03*
D15*
X105000000Y-107400000D03*
X106697056Y-103302944D03*
X106697056Y-106697056D03*
X107400000Y-105000000D03*
%TD*%
D17*
%TO.C,TP26*%
X131550000Y-117790000D03*
%TD*%
D28*
%TO.C,C16*%
X121650000Y-116190000D03*
X119750000Y-116190000D03*
%TD*%
D38*
%TO.C,SW1*%
X137800000Y-118825000D03*
X137800000Y-126575000D03*
%TD*%
D17*
%TO.C,TP31*%
X191900000Y-123862500D03*
%TD*%
D39*
%TO.C,C28*%
X185675000Y-120012500D03*
X185675000Y-121912500D03*
%TD*%
D20*
%TO.C,R48*%
X115450000Y-102427500D03*
X113625000Y-102427500D03*
%TD*%
%TO.C,R27*%
X117425000Y-128040000D03*
X115600000Y-128040000D03*
%TD*%
D17*
%TO.C,TP12*%
X162600000Y-93150000D03*
%TD*%
D11*
%TO.C,R24*%
X115587500Y-130140000D03*
X117412500Y-130140000D03*
%TD*%
D17*
%TO.C,TP40*%
X175850000Y-137750000D03*
%TD*%
D40*
%TO.C,D6*%
X120462500Y-121365000D03*
X123762500Y-121365000D03*
%TD*%
D11*
%TO.C,R50*%
X129212500Y-132340000D03*
X131037500Y-132340000D03*
%TD*%
D30*
%TO.C,R39*%
X115112500Y-135640000D03*
X115112500Y-137465000D03*
%TD*%
%TO.C,R9*%
X101650000Y-133687500D03*
X101650000Y-135512500D03*
%TD*%
D41*
%TO.C,U9*%
X204200000Y-126912500D03*
D42*
X201925000Y-129775000D03*
X202575000Y-129775000D03*
X203225000Y-129775000D03*
X203875000Y-129775000D03*
X204525000Y-129775000D03*
X205175000Y-129775000D03*
X205825000Y-129775000D03*
X206475000Y-129775000D03*
X206475000Y-124050000D03*
X205825000Y-124050000D03*
X205175000Y-124050000D03*
X204525000Y-124050000D03*
X203875000Y-124050000D03*
X203225000Y-124050000D03*
X202575000Y-124050000D03*
X201925000Y-124050000D03*
%TD*%
D17*
%TO.C,TP28*%
X129350000Y-117790000D03*
%TD*%
D43*
%TO.C,RV4*%
X132900000Y-106590000D03*
D44*
X131750000Y-102590000D03*
D43*
X130600000Y-106590000D03*
%TD*%
D14*
%TO.C,R60*%
X183262500Y-133212500D03*
X180337500Y-133212500D03*
%TD*%
D20*
%TO.C,R26*%
X117900000Y-109090000D03*
X116075000Y-109090000D03*
%TD*%
D28*
%TO.C,C22*%
X131637500Y-115490000D03*
X129737500Y-115490000D03*
%TD*%
D30*
%TO.C,R6*%
X148750000Y-109500000D03*
X148750000Y-111325000D03*
%TD*%
D17*
%TO.C,TP13*%
X155725000Y-114425000D03*
%TD*%
%TO.C,TP30*%
X183600000Y-123862500D03*
%TD*%
%TO.C,TP34*%
X193400000Y-133312500D03*
%TD*%
D29*
%TO.C,C30*%
X189875000Y-121912500D03*
X189875000Y-120012500D03*
%TD*%
D41*
%TO.C,U7*%
X187700000Y-126912500D03*
D42*
X185425000Y-129775000D03*
X186075000Y-129775000D03*
X186725000Y-129775000D03*
X187375000Y-129775000D03*
X188025000Y-129775000D03*
X188675000Y-129775000D03*
X189325000Y-129775000D03*
X189975000Y-129775000D03*
X189975000Y-124050000D03*
X189325000Y-124050000D03*
X188675000Y-124050000D03*
X188025000Y-124050000D03*
X187375000Y-124050000D03*
X186725000Y-124050000D03*
X186075000Y-124050000D03*
X185425000Y-124050000D03*
%TD*%
D12*
%TO.C,J1*%
X178350000Y-142850000D03*
D13*
X175850000Y-142850000D03*
%TD*%
D17*
%TO.C,TP44*%
X200100000Y-123862500D03*
%TD*%
%TO.C,TP25*%
X113037500Y-129985000D03*
%TD*%
D45*
%TO.C,JP2*%
X108800000Y-134600000D03*
D46*
X110100000Y-134600000D03*
%TD*%
D17*
%TO.C,TP1*%
X135700000Y-117650000D03*
%TD*%
%TO.C,TP8*%
X170075000Y-134425000D03*
%TD*%
D39*
%TO.C,C2*%
X141050000Y-113525000D03*
X141050000Y-115425000D03*
%TD*%
D17*
%TO.C,TP19*%
X198150000Y-111750000D03*
%TD*%
D47*
%TO.C,R4*%
X164329765Y-113879765D03*
X165620235Y-115170235D03*
%TD*%
D11*
%TO.C,R22*%
X116087500Y-111090000D03*
X117912500Y-111090000D03*
%TD*%
D28*
%TO.C,C11*%
X184850000Y-111737500D03*
X182950000Y-111737500D03*
%TD*%
D17*
%TO.C,TP15*%
X164975000Y-90300000D03*
%TD*%
D30*
%TO.C,R46*%
X127050000Y-115965000D03*
X127050000Y-117790000D03*
%TD*%
D11*
%TO.C,R45*%
X129212500Y-128140000D03*
X131037500Y-128140000D03*
%TD*%
D43*
%TO.C,RV2*%
X143450000Y-135000000D03*
D44*
X142300000Y-131000000D03*
D43*
X141150000Y-135000000D03*
%TD*%
D26*
%TO.C,JP15*%
X113950000Y-105127500D03*
D27*
X113950000Y-106427500D03*
%TD*%
D28*
%TO.C,C25*%
X131112500Y-130240000D03*
X129212500Y-130240000D03*
%TD*%
D37*
%TO.C,C8*%
X194250000Y-111757500D03*
X196150000Y-111757500D03*
%TD*%
D28*
%TO.C,C27*%
X118762500Y-121365000D03*
X116862500Y-121365000D03*
%TD*%
D39*
%TO.C,C35*%
X177325000Y-120012500D03*
X177325000Y-121912500D03*
%TD*%
%TO.C,C29*%
X193900000Y-120012500D03*
X193900000Y-121912500D03*
%TD*%
D48*
%TO.C,J3*%
X202967500Y-112000000D03*
D49*
X202967500Y-114500000D03*
%TD*%
D45*
%TO.C,JP4*%
X108800000Y-138512500D03*
D46*
X110100000Y-138512500D03*
%TD*%
D40*
%TO.C,D5*%
X120750000Y-102490000D03*
X124050000Y-102490000D03*
%TD*%
D14*
%TO.C,R54*%
X190712500Y-133225000D03*
X187787500Y-133225000D03*
%TD*%
D50*
%TO.C,JP1*%
X149150000Y-128050000D03*
D51*
X149150000Y-126750000D03*
%TD*%
D17*
%TO.C,TP11*%
X160200000Y-93150000D03*
%TD*%
D29*
%TO.C,C38*%
X204200000Y-121912500D03*
X204200000Y-120012500D03*
%TD*%
D17*
%TO.C,TP10*%
X157800000Y-93150000D03*
%TD*%
D37*
%TO.C,C9*%
X194250000Y-107537500D03*
X196150000Y-107537500D03*
%TD*%
D28*
%TO.C,C17*%
X121212500Y-134940000D03*
X119312500Y-134940000D03*
%TD*%
D30*
%TO.C,R36*%
X113012500Y-135640000D03*
X113012500Y-137465000D03*
%TD*%
D10*
%TO.C,R18*%
X184650000Y-107662500D03*
X184650000Y-105837500D03*
%TD*%
D17*
%TO.C,TP29*%
X129037500Y-136785000D03*
%TD*%
D29*
%TO.C,C19*%
X115650000Y-114802500D03*
X115650000Y-112902500D03*
%TD*%
D17*
%TO.C,TP32*%
X185700000Y-133212500D03*
%TD*%
D24*
%TO.C,J13*%
X146800000Y-142700000D03*
D25*
X144300000Y-142700000D03*
X141800000Y-142700000D03*
%TD*%
D39*
%TO.C,C18*%
X113550000Y-112902500D03*
X113550000Y-114802500D03*
%TD*%
D17*
%TO.C,TP14*%
X153175000Y-114425000D03*
%TD*%
D38*
%TO.C,SW2*%
X137800000Y-116700000D03*
X137800000Y-108950000D03*
%TD*%
D11*
%TO.C,R42*%
X125600000Y-121365000D03*
X127425000Y-121365000D03*
%TD*%
D41*
%TO.C,U10*%
X179525000Y-126912500D03*
D42*
X177250000Y-129775000D03*
X177900000Y-129775000D03*
X178550000Y-129775000D03*
X179200000Y-129775000D03*
X179850000Y-129775000D03*
X180500000Y-129775000D03*
X181150000Y-129775000D03*
X181800000Y-129775000D03*
X181800000Y-124050000D03*
X181150000Y-124050000D03*
X180500000Y-124050000D03*
X179850000Y-124050000D03*
X179200000Y-124050000D03*
X178550000Y-124050000D03*
X177900000Y-124050000D03*
X177250000Y-124050000D03*
%TD*%
D10*
%TO.C,R57*%
X175525000Y-130075000D03*
X175525000Y-128250000D03*
%TD*%
D29*
%TO.C,C21*%
X115112500Y-133940000D03*
X115112500Y-132040000D03*
%TD*%
%TO.C,C32*%
X187775000Y-121912500D03*
X187775000Y-120012500D03*
%TD*%
D20*
%TO.C,R19*%
X199075000Y-101750000D03*
X197250000Y-101750000D03*
%TD*%
D11*
%TO.C,R49*%
X129762500Y-113390000D03*
X131587500Y-113390000D03*
%TD*%
D10*
%TO.C,R1*%
X141050000Y-125362500D03*
X141050000Y-123537500D03*
%TD*%
D20*
%TO.C,R8*%
X166562500Y-136800000D03*
X164737500Y-136800000D03*
%TD*%
D28*
%TO.C,C15*%
X176450000Y-102400000D03*
X174550000Y-102400000D03*
%TD*%
D10*
%TO.C,R52*%
X183775000Y-130075000D03*
X183775000Y-128250000D03*
%TD*%
D52*
%TO.C,L1*%
X189750000Y-107412500D03*
X189750000Y-112862500D03*
%TD*%
D53*
%TO.C,D2*%
X103950000Y-138512500D03*
X106750000Y-138512500D03*
%TD*%
D17*
%TO.C,TP47*%
X206350000Y-135637500D03*
%TD*%
%TO.C,TP18*%
X159750000Y-87975000D03*
%TD*%
D54*
%TO.C,Q1*%
X197500000Y-103600000D03*
X197500000Y-105500000D03*
X199375000Y-104550000D03*
%TD*%
D17*
%TO.C,TP9*%
X156875000Y-90012500D03*
%TD*%
%TO.C,TP4*%
X139850000Y-117700000D03*
%TD*%
D20*
%TO.C,R40*%
X125162500Y-116190000D03*
X123337500Y-116190000D03*
%TD*%
D29*
%TO.C,C36*%
X206300000Y-121912500D03*
X206300000Y-120012500D03*
%TD*%
D30*
%TO.C,R38*%
X115650000Y-116502500D03*
X115650000Y-118327500D03*
%TD*%
D17*
%TO.C,TP41*%
X184650000Y-137750000D03*
%TD*%
D55*
%TO.C,C4*%
X167671751Y-126578249D03*
X166328249Y-127921751D03*
%TD*%
D30*
%TO.C,R3*%
X160000000Y-110837500D03*
X160000000Y-112662500D03*
%TD*%
D18*
%TO.C,U3*%
X170800000Y-105100000D03*
X168500000Y-105100000D03*
D19*
X168500000Y-111400000D03*
D18*
X166200000Y-105100000D03*
%TD*%
D20*
%TO.C,R51*%
X115125000Y-121365000D03*
X113300000Y-121365000D03*
%TD*%
D17*
%TO.C,TP46*%
X201162500Y-133300000D03*
%TD*%
D30*
%TO.C,R2*%
X162025000Y-110850000D03*
X162025000Y-112675000D03*
%TD*%
D24*
%TO.C,J4*%
X124400000Y-142700000D03*
D25*
X121900000Y-142700000D03*
X119400000Y-142700000D03*
%TD*%
D50*
%TO.C,JP6*%
X143950000Y-128050000D03*
D51*
X143950000Y-126750000D03*
%TD*%
D15*
%TO.C,H3*%
X102600000Y-145000000D03*
X103302944Y-143302944D03*
X103302944Y-146697056D03*
X105000000Y-142600000D03*
D16*
X105000000Y-145000000D03*
D15*
X105000000Y-147400000D03*
X106697056Y-143302944D03*
X106697056Y-146697056D03*
X107400000Y-145000000D03*
%TD*%
D12*
%TO.C,J11*%
X166850000Y-142817500D03*
D13*
X164350000Y-142817500D03*
%TD*%
D37*
%TO.C,C14*%
X170200000Y-102400000D03*
X172100000Y-102400000D03*
%TD*%
D39*
%TO.C,C20*%
X113012500Y-132040000D03*
X113012500Y-133940000D03*
%TD*%
D53*
%TO.C,D1*%
X103950000Y-134600000D03*
X106750000Y-134600000D03*
%TD*%
D17*
%TO.C,TP7*%
X162675000Y-90300000D03*
%TD*%
D12*
%TO.C,J6*%
X195800000Y-142817500D03*
D13*
X193300000Y-142817500D03*
%TD*%
D43*
%TO.C,RV5*%
X132412500Y-125640000D03*
D44*
X131262500Y-121640000D03*
D43*
X130112500Y-125640000D03*
%TD*%
D50*
%TO.C,JP3*%
X166750000Y-134550000D03*
D51*
X166750000Y-133250000D03*
%TD*%
D56*
%TO.C,R58*%
X175437500Y-133212500D03*
X178362500Y-133212500D03*
%TD*%
D29*
%TO.C,C31*%
X198100000Y-121912500D03*
X198100000Y-120012500D03*
%TD*%
D12*
%TO.C,J7*%
X158150000Y-142817500D03*
D13*
X155650000Y-142817500D03*
%TD*%
D17*
%TO.C,TP35*%
X200100000Y-126162500D03*
%TD*%
D30*
%TO.C,R33*%
X113550000Y-116502500D03*
X113550000Y-118327500D03*
%TD*%
D20*
%TO.C,R28*%
X117900000Y-107090000D03*
X116075000Y-107090000D03*
%TD*%
%TO.C,R30*%
X117425000Y-125940000D03*
X115600000Y-125940000D03*
%TD*%
D28*
%TO.C,C24*%
X131637500Y-111290000D03*
X129737500Y-111290000D03*
%TD*%
D17*
%TO.C,TP42*%
X178350000Y-137750000D03*
%TD*%
D57*
%TO.C,D4*%
X181750000Y-104750000D03*
X181750000Y-107550000D03*
%TD*%
D29*
%TO.C,C10*%
X186899999Y-104087501D03*
X186899999Y-102187501D03*
%TD*%
D17*
%TO.C,TP16*%
X151000000Y-107500000D03*
%TD*%
D58*
%TO.C,C6*%
X151750000Y-120000000D03*
X153093502Y-118656498D03*
%TD*%
D11*
%TO.C,R44*%
X129762500Y-109190000D03*
X131587500Y-109190000D03*
%TD*%
D20*
%TO.C,R41*%
X124737500Y-134940000D03*
X122912500Y-134940000D03*
%TD*%
D14*
%TO.C,R55*%
X198437500Y-133325000D03*
X195512500Y-133325000D03*
%TD*%
D10*
%TO.C,R34*%
X117750000Y-118315000D03*
X117750000Y-116490000D03*
%TD*%
D59*
%TO.C,U5*%
X120287500Y-105690000D03*
X120287500Y-106960000D03*
X120287500Y-108230000D03*
X120287500Y-109500000D03*
X120287500Y-110770000D03*
X120287500Y-112040000D03*
X120287500Y-113310000D03*
X127212500Y-113310000D03*
X127212500Y-112040000D03*
X127212500Y-110770000D03*
X127212500Y-109500000D03*
X127212500Y-108230000D03*
X127212500Y-106960000D03*
X127212500Y-105690000D03*
%TD*%
D30*
%TO.C,R47*%
X126612500Y-134815000D03*
X126612500Y-136640000D03*
%TD*%
D60*
%TO.C,SW3*%
X162775000Y-135250000D03*
X155025000Y-135250000D03*
%TD*%
D11*
%TO.C,R43*%
X126037500Y-102490000D03*
X127862500Y-102490000D03*
%TD*%
D17*
%TO.C,TP24*%
X113550000Y-110727500D03*
%TD*%
D43*
%TO.C,RV1*%
X149350000Y-135000000D03*
D44*
X148200000Y-131000000D03*
D43*
X147050000Y-135000000D03*
%TD*%
D17*
%TO.C,TP20*%
X198000000Y-107500000D03*
%TD*%
D11*
%TO.C,R20*%
X180837500Y-102450000D03*
X182662500Y-102450000D03*
%TD*%
D15*
%TO.C,H2*%
X202600000Y-105000000D03*
X203302944Y-103302944D03*
X203302944Y-106697056D03*
X205000000Y-102600000D03*
D16*
X205000000Y-105000000D03*
D15*
X205000000Y-107400000D03*
X206697056Y-103302944D03*
X206697056Y-106697056D03*
X207400000Y-105000000D03*
%TD*%
D30*
%TO.C,R17*%
X192750000Y-102225000D03*
X192750000Y-104050000D03*
%TD*%
D61*
%TO.C,C5*%
X162828249Y-115328249D03*
X164171751Y-116671751D03*
%TD*%
D39*
%TO.C,C34*%
X202100000Y-120012500D03*
X202100000Y-121912500D03*
%TD*%
D30*
%TO.C,R25*%
X117212500Y-132115000D03*
X117212500Y-133940000D03*
%TD*%
D10*
%TO.C,R37*%
X117212500Y-137465000D03*
X117212500Y-135640000D03*
%TD*%
D30*
%TO.C,R7*%
X151000000Y-109500000D03*
X151000000Y-111325000D03*
%TD*%
D17*
%TO.C,TP53*%
X193350000Y-137750000D03*
%TD*%
D30*
%TO.C,R5*%
X141050000Y-110062500D03*
X141050000Y-111887500D03*
%TD*%
D43*
%TO.C,RV3*%
X137550000Y-135000000D03*
D44*
X136400000Y-131000000D03*
D43*
X135250000Y-135000000D03*
%TD*%
D17*
%TO.C,TP21*%
X165900000Y-102400000D03*
%TD*%
D59*
%TO.C,U6*%
X119787500Y-124440000D03*
X119787500Y-125710000D03*
X119787500Y-126980000D03*
X119787500Y-128250000D03*
X119787500Y-129520000D03*
X119787500Y-130790000D03*
X119787500Y-132060000D03*
X126712500Y-132060000D03*
X126712500Y-130790000D03*
X126712500Y-129520000D03*
X126712500Y-128250000D03*
X126712500Y-126980000D03*
X126712500Y-125710000D03*
X126712500Y-124440000D03*
%TD*%
D30*
%TO.C,R12*%
X181000000Y-109500000D03*
X181000000Y-111325000D03*
%TD*%
D50*
%TO.C,JP5*%
X146550000Y-128050000D03*
D51*
X146550000Y-126750000D03*
%TD*%
D17*
%TO.C,TP54*%
X195850000Y-137750000D03*
%TD*%
D62*
%TO.C,U1*%
X152978144Y-124679468D03*
X153331697Y-125033021D03*
X153685250Y-125386574D03*
X154038804Y-125740128D03*
X154392357Y-126093681D03*
X154745911Y-126447235D03*
X155099464Y-126800788D03*
X155453017Y-127154341D03*
X155806571Y-127507895D03*
X156160124Y-127861448D03*
X156513677Y-128215001D03*
X156867231Y-128568555D03*
X157220784Y-128922108D03*
X157574338Y-129275662D03*
X157927891Y-129629215D03*
X158281444Y-129982768D03*
D63*
X161003806Y-129982768D03*
X161357359Y-129629215D03*
X161710912Y-129275662D03*
X162064466Y-128922108D03*
X162418019Y-128568555D03*
X162771573Y-128215001D03*
X163125126Y-127861448D03*
X163478679Y-127507895D03*
X163832233Y-127154341D03*
X164185786Y-126800788D03*
X164539339Y-126447235D03*
X164892893Y-126093681D03*
X165246446Y-125740128D03*
X165600000Y-125386574D03*
X165953553Y-125033021D03*
X166307106Y-124679468D03*
D62*
X166307106Y-121957106D03*
X165953553Y-121603553D03*
X165600000Y-121250000D03*
X165246446Y-120896446D03*
X164892893Y-120542893D03*
X164539339Y-120189339D03*
X164185786Y-119835786D03*
X163832233Y-119482233D03*
X163478679Y-119128679D03*
X163125126Y-118775126D03*
X162771573Y-118421573D03*
X162418019Y-118068019D03*
X162064466Y-117714466D03*
X161710912Y-117360912D03*
X161357359Y-117007359D03*
X161003806Y-116653806D03*
D63*
X158281444Y-116653806D03*
X157927891Y-117007359D03*
X157574338Y-117360912D03*
X157220784Y-117714466D03*
X156867231Y-118068019D03*
X156513677Y-118421573D03*
X156160124Y-118775126D03*
X155806571Y-119128679D03*
X155453017Y-119482233D03*
X155099464Y-119835786D03*
X154745911Y-120189339D03*
X154392357Y-120542893D03*
X154038804Y-120896446D03*
X153685250Y-121250000D03*
X153331697Y-121603553D03*
X152978144Y-121957106D03*
%TD*%
D17*
%TO.C,TP23*%
X178450000Y-102400000D03*
%TD*%
%TO.C,TP5*%
X156875000Y-87825000D03*
%TD*%
D64*
%TO.C,J10*%
X137899804Y-102950249D03*
D65*
X140439804Y-102950249D03*
X142979804Y-102950249D03*
X145519804Y-102950249D03*
X148059804Y-102950249D03*
X150599804Y-102950249D03*
%TD*%
D41*
%TO.C,U8*%
X196000000Y-126912500D03*
D42*
X193725000Y-129775000D03*
X194375000Y-129775000D03*
X195025000Y-129775000D03*
X195675000Y-129775000D03*
X196325000Y-129775000D03*
X196975000Y-129775000D03*
X197625000Y-129775000D03*
X198275000Y-129775000D03*
X198275000Y-124050000D03*
X197625000Y-124050000D03*
X196975000Y-124050000D03*
X196325000Y-124050000D03*
X195675000Y-124050000D03*
X195025000Y-124050000D03*
X194375000Y-124050000D03*
X193725000Y-124050000D03*
%TD*%
D29*
%TO.C,C37*%
X181525000Y-121912500D03*
X181525000Y-120012500D03*
%TD*%
D55*
%TO.C,C3*%
X163725000Y-130775000D03*
X162381498Y-132118502D03*
%TD*%
D10*
%TO.C,R10*%
X101650000Y-139425000D03*
X101650000Y-137600000D03*
%TD*%
D17*
%TO.C,TP43*%
X187150000Y-137750000D03*
%TD*%
D29*
%TO.C,C1*%
X141050000Y-121900000D03*
X141050000Y-120000000D03*
%TD*%
D30*
%TO.C,R11*%
X181000000Y-113000000D03*
X181000000Y-114825000D03*
%TD*%
M02*
