M48
; DRILL file {KiCad 7.0.7} date Sun Nov  5 16:26:27 2023
; FORMAT={-:-/ absolute / inch / decimal}
; #@! TF.CreationDate,2023-11-05T16:26:27+01:00
; #@! TF.GenerationSoftware,Kicad,Pcbnew,7.0.7
; #@! TF.FileFunction,Plated,1,2,PTH
FMAT,2
INCH
; #@! TA.AperFunction,Plated,PTH,ViaDrill
T1C0.0157
; #@! TA.AperFunction,Plated,PTH,ComponentDrill
T2C0.0300
; #@! TA.AperFunction,Plated,PTH,ComponentDrill
T3C0.0315
; #@! TA.AperFunction,Plated,PTH,ComponentDrill
T4C0.0354
; #@! TA.AperFunction,Plated,PTH,ComponentDrill
T5C0.0374
; #@! TA.AperFunction,Plated,PTH,ComponentDrill
T6C0.0394
; #@! TA.AperFunction,Plated,PTH,ComponentDrill
T7C0.0433
; #@! TA.AperFunction,Plated,PTH,ComponentDrill
T8C0.0472
; #@! TA.AperFunction,Plated,PTH,ComponentDrill
T9C0.1260
%
G90
G05
T1
X6.399Y-4.0947
X6.6225Y-4.0927
X6.8318Y-1.98
T2
X6.95Y-2.7
X6.95Y-3.7
X7.05Y-2.7
X7.05Y-3.7
X7.15Y-2.7
X7.15Y-3.7
X7.25Y-2.7
X7.25Y-3.7
X7.35Y-2.7
X7.35Y-3.7
X7.45Y-2.7
X7.45Y-3.7
X7.55Y-2.7
X7.55Y-3.7
X7.65Y-2.7
X7.65Y-3.7
X7.75Y-2.7
X7.75Y-3.7
X7.85Y-2.7
X7.85Y-3.7
X7.95Y-2.7
X7.95Y-3.7
X8.05Y-2.7
X8.05Y-3.7
X8.15Y-2.7
X8.15Y-3.7
X8.25Y-2.7
X8.25Y-3.7
X8.35Y-2.7
X8.35Y-3.7
X8.45Y-2.7
X8.45Y-3.7
X8.55Y-2.7
X8.55Y-3.7
X8.65Y-2.7
X8.65Y-3.7
X8.75Y-2.7
X8.75Y-3.7
X8.85Y-2.7
X8.85Y-3.7
X8.95Y-2.7
X8.95Y-3.7
X9.05Y-2.7
X9.05Y-3.7
T3
X7.61Y-1.89
X7.61Y-2.19
X7.71Y-1.89
X7.71Y-2.19
X7.81Y-1.89
X7.81Y-2.19
X7.91Y-1.89
X7.91Y-2.19
X8.42Y-4.27
X8.42Y-4.37
X8.42Y-4.47
X8.7Y-4.2696
X8.7Y-4.3696
X8.7Y-4.4696
T4
X5.0687Y-2.5284
X5.1687Y-2.5284
X8.2524Y-1.97
X8.3524Y-1.97
X8.6324Y-1.97
X8.7324Y-1.97
T5
X4.9989Y-3.9584
X4.9989Y-4.0568
X5.3116Y-1.98
X5.41Y-1.98
X5.6131Y-4.48
X5.7116Y-4.48
X5.7508Y-1.98
X5.81Y-4.48
X5.8492Y-1.98
X6.2031Y-4.48
X6.3016Y-4.48
X6.4Y-4.48
X6.7931Y-4.49
X6.8916Y-4.49
X6.99Y-4.49
T6
X8.11Y-2.95
X8.11Y-3.16
X8.31Y-2.95
X8.31Y-3.16
T7
X4.946Y-3.1317
X5.046Y-3.1317
X5.146Y-3.1317
X6.452Y-1.8928
X6.452Y-2.07
X6.708Y-1.8928
X6.708Y-2.07
X7.02Y-1.89
X7.02Y-2.0672
X7.2759Y-1.89
X7.2759Y-2.0672
T8
X5.6Y-2.5902
X5.6Y-3.7902
X6.0Y-2.5902
X6.0Y-3.7902
X6.3954Y-2.5902
X6.3954Y-3.7902
X7.6863Y-4.3131
X7.6863Y-4.51
X7.8831Y-4.3131
X7.8831Y-4.51
X8.08Y-4.3131
X8.08Y-4.51
T9
X4.9213Y-1.9685
X4.9213Y-4.5276
X9.0551Y-1.9685
X9.0551Y-4.5276
T0
M30
