M48
; DRILL file {KiCad 8.0.1} date 2024-04-23T22:04:47+0200
; FORMAT={-:-/ absolute / inch / decimal}
; #@! TF.CreationDate,2024-04-23T22:04:47+02:00
; #@! TF.GenerationSoftware,Kicad,Pcbnew,8.0.1
; #@! TF.FileFunction,Plated,1,4,PTH
FMAT,2
INCH
; #@! TA.AperFunction,Plated,PTH,ViaDrill
T1C0.0079
; #@! TA.AperFunction,Plated,PTH,ComponentDrill
T2C0.0079
; #@! TA.AperFunction,Plated,PTH,ViaDrill
T3C0.0118
; #@! TA.AperFunction,Plated,PTH,ComponentDrill
T4C0.0197
; #@! TA.AperFunction,Plated,PTH,ComponentDrill
T5C0.0236
; #@! TA.AperFunction,Plated,PTH,ComponentDrill
T6C0.0394
; #@! TA.AperFunction,Plated,PTH,ComponentDrill
T7C0.1260
%
G90
G05
T1
X4.2992Y-4.7874
X4.2992Y-5.4961
X4.2992Y-5.7087
X4.3031Y-5.0
X4.3425Y-4.1299
X4.3898Y-4.2323
X4.4567Y-4.0551
X4.4921Y-4.4764
X4.4921Y-5.1811
X4.5276Y-5.2283
X4.5315Y-4.5157
X4.5669Y-4.8228
X4.5669Y-5.5315
X4.5827Y-4.0945
X4.6024Y-4.5945
X4.6024Y-5.3031
X4.6378Y-4.1969
X4.6693Y-4.1969
X4.7008Y-4.1969
X4.7087Y-4.5551
X4.7087Y-5.2677
X4.7323Y-4.1969
X4.7362Y-5.5315
X4.7402Y-4.8189
X4.7638Y-4.1969
X4.7953Y-4.1969
X4.874Y-4.3858
X4.874Y-4.4094
X4.874Y-4.4331
X4.8819Y-5.6024
X4.8898Y-4.8898
X4.937Y-4.3543
X4.9646Y-5.7402
X4.9685Y-5.0315
X4.9764Y-4.3543
X4.9764Y-5.0827
X4.9764Y-5.7874
X5.0157Y-3.9921
X5.0157Y-4.3543
X5.0787Y-4.3858
X5.0787Y-4.4094
X5.0787Y-4.4331
X5.1378Y-5.3189
X5.1378Y-5.3701
X5.189Y-4.3071
X5.189Y-4.374
X5.2126Y-5.3937
X5.2323Y-4.6339
X5.2362Y-4.8307
X5.248Y-4.752
X5.2795Y-4.9528
X5.3031Y-5.3937
X5.315Y-4.3071
X5.315Y-4.374
X5.3622Y-4.9331
X5.4094Y-4.7559
X5.4094Y-4.9724
X5.4567Y-4.4213
X5.4685Y-5.3937
X5.5276Y-4.1772
X5.5591Y-5.3898
X5.6024Y-4.4213
X5.6299Y-4.9114
X5.6339Y-4.9331
X5.6378Y-4.9528
X5.6417Y-4.7638
X5.6417Y-4.9724
X5.685Y-4.3465
X5.7264Y-5.0098
X5.7283Y-4.9902
X5.752Y-4.7421
X5.7756Y-5.1043
X5.7776Y-4.7421
X5.7795Y-4.2776
X5.7953Y-4.6535
X5.7972Y-5.1043
X5.811Y-4.2776
X5.8169Y-4.6476
X5.8209Y-4.2028
X5.8346Y-4.3465
X5.874Y-4.6555
X5.876Y-5.3169
X5.8957Y-4.2067
X5.8957Y-4.6555
X5.9154Y-5.2815
X5.935Y-4.2067
X5.9547Y-5.2402
X5.9902Y-4.2047
X5.9941Y-5.2067
X6.0Y-4.2776
X6.0315Y-4.2776
X6.0472Y-4.7402
X6.0886Y-4.7736
X6.0906Y-4.7933
X6.124Y-4.3465
X6.1693Y-4.815
X6.2087Y-4.0236
X6.2087Y-4.1102
X6.2283Y-4.563
X6.2559Y-4.563
X6.2953Y-4.0236
X6.2953Y-4.1102
X6.3228Y-4.2677
X6.3228Y-4.2992
X6.3228Y-4.3268
X6.3228Y-4.3583
X6.3228Y-4.3898
X6.3228Y-4.4567
X6.3228Y-4.4882
X6.3228Y-4.5197
X6.3228Y-4.5512
X6.3228Y-4.5827
X6.3465Y-5.3346
X6.3465Y-5.3543
X6.3465Y-5.374
X6.374Y-5.2323
X6.4173Y-5.1299
X6.4882Y-4.8071
X6.5079Y-5.2638
X6.5512Y-4.252
X6.5512Y-4.2835
X6.5512Y-4.3189
X6.5512Y-4.3543
X6.5512Y-4.3858
X6.5512Y-4.4528
X6.5512Y-4.4843
X6.5512Y-4.5157
X6.5512Y-4.5472
X6.5591Y-4.9528
X6.561Y-5.2638
X6.5709Y-4.0748
X6.5866Y-4.9528
X6.5866Y-5.2638
X6.622Y-4.8366
X6.6398Y-5.2638
X6.7205Y-4.2402
X6.7441Y-5.3346
X6.7441Y-5.3543
X6.7441Y-5.374
X6.748Y-5.2323
X6.7913Y-5.1299
X6.8189Y-5.3346
X6.8189Y-5.3543
X6.8189Y-5.374
X6.8622Y-4.8071
X6.8848Y-5.2795
X6.9331Y-4.9528
X6.937Y-5.2795
X6.9449Y-4.5157
X6.9606Y-4.9528
X6.9616Y-5.2795
X6.9882Y-4.4764
X6.998Y-4.8366
X7.0118Y-5.2795
X7.0591Y-5.2205
X7.1299Y-5.2323
X7.1654Y-5.1299
X7.189Y-5.3346
X7.189Y-5.3543
X7.189Y-5.374
X7.2362Y-4.8071
X7.2579Y-5.2835
X7.2953Y-4.311
X7.3071Y-4.9528
X7.3091Y-5.2835
X7.3346Y-4.9528
X7.3366Y-5.2835
X7.3701Y-4.8366
X7.3858Y-5.2835
X7.4291Y-5.2205
X7.4882Y-5.2323
X7.5236Y-5.1299
X7.5551Y-5.3346
X7.5551Y-5.3543
X7.5551Y-5.374
X7.5945Y-4.8071
X7.6181Y-5.2776
X7.6654Y-4.9528
X7.6673Y-5.2776
X7.689Y-4.9528
X7.6929Y-5.2776
X7.7244Y-4.8366
X7.7441Y-5.2776
X7.7874Y-5.2205
T2
X6.5157Y-5.0787
X6.5157Y-5.1378
X6.5748Y-5.0787
X6.5748Y-5.1378
X6.6339Y-5.0787
X6.6339Y-5.1378
X6.8898Y-5.0787
X6.8898Y-5.1378
X6.9488Y-5.0787
X6.9488Y-5.1378
X7.0079Y-5.0787
X7.0079Y-5.1378
X7.2638Y-5.0787
X7.2638Y-5.1378
X7.3228Y-5.0787
X7.3228Y-5.1378
X7.3819Y-5.0787
X7.3819Y-5.1378
X7.6213Y-5.0787
X7.6213Y-5.1378
X7.6803Y-5.0787
X7.6803Y-5.1378
X7.7394Y-5.0787
X7.7394Y-5.1378
T3
X6.2047Y-4.9882
X6.2126Y-5.0118
X6.6417Y-4.9528
X6.6654Y-4.8858
X6.6732Y-4.9528
X6.8346Y-4.9449
X6.8346Y-4.9724
X7.0157Y-4.9528
X7.0433Y-4.8858
X7.0433Y-4.9528
X7.2087Y-4.9449
X7.2087Y-4.9724
X7.3868Y-4.9518
X7.4134Y-4.8858
X7.4134Y-4.9528
X7.4173Y-5.2717
X7.5669Y-4.9449
X7.5669Y-4.9724
X7.7441Y-4.9528
X7.7677Y-4.8858
X7.7717Y-4.9528
X7.7756Y-5.2677
T4
X4.0394Y-4.1339
X4.0394Y-5.7087
X4.067Y-4.067
X4.067Y-4.2007
X4.067Y-5.6418
X4.067Y-5.7755
X4.1339Y-4.0394
X4.1339Y-4.2283
X4.1339Y-5.6142
X4.1339Y-5.8031
X4.2007Y-4.067
X4.2007Y-4.2007
X4.2007Y-5.6418
X4.2007Y-5.7755
X4.2283Y-4.1339
X4.2283Y-5.7087
X7.5827Y-4.1339
X7.5827Y-5.7087
X7.6104Y-4.067
X7.6104Y-4.2007
X7.6104Y-5.6418
X7.6104Y-5.7755
X7.6772Y-4.0394
X7.6772Y-4.2283
X7.6772Y-5.6142
X7.6772Y-5.8031
X7.744Y-4.067
X7.744Y-4.2007
X7.744Y-5.6418
X7.744Y-5.7755
X7.7717Y-4.1339
X7.7717Y-5.7087
T6
X4.1181Y-4.4772
X4.1181Y-4.5772
X4.1181Y-4.6772
X4.1181Y-5.1244
X4.1181Y-5.2244
X4.1181Y-5.3244
X5.2102Y-5.6299
X5.2102Y-5.7299
X5.2102Y-5.8299
X5.2327Y-4.0256
X5.3327Y-4.0256
X5.4102Y-5.6299
X5.4102Y-5.7299
X5.4102Y-5.8299
X5.4327Y-4.0256
X5.5327Y-4.0256
X5.6102Y-5.6299
X5.6102Y-5.7299
X5.6102Y-5.8299
X5.8681Y-5.6326
X5.9665Y-5.6326
X6.2165Y-5.6313
X6.315Y-5.6313
X6.6083Y-5.6313
X6.7067Y-5.6313
X6.9567Y-5.6313
X7.0551Y-5.6313
X7.3051Y-5.6313
X7.313Y-4.2218
X7.4035Y-5.6313
X7.4114Y-4.2218
T7
X4.1339Y-4.1339
X4.1339Y-5.7087
X7.6772Y-4.1339
X7.6772Y-5.7087
T5
G00X5.7354Y-4.0679
M15
G01X5.7354Y-4.0364
M16
G05
G00X5.7354Y-4.2392
M15
G01X5.7354Y-4.1959
M16
G05
G00X6.0756Y-4.0679
M15
G01X6.0756Y-4.0364
M16
G05
G00X6.0756Y-4.2392
M15
G01X6.0756Y-4.1959
M16
G05
M30
