%TF.GenerationSoftware,KiCad,Pcbnew,8.0.1*%
%TF.CreationDate,2024-04-23T22:04:50+02:00*%
%TF.ProjectId,OpenHand_v2,4f70656e-4861-46e6-945f-76322e6b6963,rev?*%
%TF.SameCoordinates,Original*%
%TF.FileFunction,Legend,Top*%
%TF.FilePolarity,Positive*%
%FSLAX46Y46*%
G04 Gerber Fmt 4.6, Leading zero omitted, Abs format (unit mm)*
G04 Created by KiCad (PCBNEW 8.0.1) date 2024-04-23 22:04:50*
%MOMM*%
%LPD*%
G01*
G04 APERTURE LIST*
G04 Aperture macros list*
%AMRoundRect*
0 Rectangle with rounded corners*
0 $1 Rounding radius*
0 $2 $3 $4 $5 $6 $7 $8 $9 X,Y pos of 4 corners*
0 Add a 4 corners polygon primitive as box body*
4,1,4,$2,$3,$4,$5,$6,$7,$8,$9,$2,$3,0*
0 Add four circle primitives for the rounded corners*
1,1,$1+$1,$2,$3*
1,1,$1+$1,$4,$5*
1,1,$1+$1,$6,$7*
1,1,$1+$1,$8,$9*
0 Add four rect primitives between the rounded corners*
20,1,$1+$1,$2,$3,$4,$5,0*
20,1,$1+$1,$4,$5,$6,$7,0*
20,1,$1+$1,$6,$7,$8,$9,0*
20,1,$1+$1,$8,$9,$2,$3,0*%
G04 Aperture macros list end*
%ADD10C,0.120000*%
%ADD11C,0.200000*%
%ADD12R,1.500000X1.500000*%
%ADD13C,1.000000*%
%ADD14RoundRect,0.250000X-0.475000X0.250000X-0.475000X-0.250000X0.475000X-0.250000X0.475000X0.250000X0*%
%ADD15RoundRect,0.250000X0.250000X0.475000X-0.250000X0.475000X-0.250000X-0.475000X0.250000X-0.475000X0*%
%ADD16O,1.700000X1.700000*%
%ADD17R,1.700000X1.700000*%
%ADD18C,2.000000*%
%ADD19RoundRect,0.250000X-1.050000X-0.550000X1.050000X-0.550000X1.050000X0.550000X-1.050000X0.550000X0*%
%ADD20RoundRect,0.250000X0.475000X-0.250000X0.475000X0.250000X-0.475000X0.250000X-0.475000X-0.250000X0*%
%ADD21RoundRect,0.250000X0.450000X-0.262500X0.450000X0.262500X-0.450000X0.262500X-0.450000X-0.262500X0*%
%ADD22C,0.800000*%
%ADD23C,6.400000*%
%ADD24RoundRect,0.250000X-0.250000X-0.475000X0.250000X-0.475000X0.250000X0.475000X-0.250000X0.475000X0*%
%ADD25RoundRect,0.250000X-0.450000X0.262500X-0.450000X-0.262500X0.450000X-0.262500X0.450000X0.262500X0*%
%ADD26O,1.700000X2.000000*%
%ADD27RoundRect,0.250000X0.600000X0.750000X-0.600000X0.750000X-0.600000X-0.750000X0.600000X-0.750000X0*%
%ADD28RoundRect,0.250000X-0.312500X-0.625000X0.312500X-0.625000X0.312500X0.625000X-0.312500X0.625000X0*%
%ADD29RoundRect,0.100000X0.100000X-0.687500X0.100000X0.687500X-0.100000X0.687500X-0.100000X-0.687500X0*%
%ADD30R,2.310000X2.460000*%
%ADD31RoundRect,0.250000X-0.262500X-0.450000X0.262500X-0.450000X0.262500X0.450000X-0.262500X0.450000X0*%
%ADD32RoundRect,0.250000X-1.075000X0.375000X-1.075000X-0.375000X1.075000X-0.375000X1.075000X0.375000X0*%
%ADD33R,1.300000X2.000000*%
%ADD34R,2.000000X2.000000*%
%ADD35R,1.250000X1.000000*%
%ADD36RoundRect,0.225000X-0.225000X-0.375000X0.225000X-0.375000X0.225000X0.375000X-0.225000X0.375000X0*%
%ADD37RoundRect,0.250000X0.550000X-1.050000X0.550000X1.050000X-0.550000X1.050000X-0.550000X-1.050000X0*%
%ADD38RoundRect,0.100000X-0.100000X0.712500X-0.100000X-0.712500X0.100000X-0.712500X0.100000X0.712500X0*%
%ADD39RoundRect,0.150000X-0.837500X-0.150000X0.837500X-0.150000X0.837500X0.150000X-0.837500X0.150000X0*%
%ADD40RoundRect,0.250000X0.262500X0.450000X-0.262500X0.450000X-0.262500X-0.450000X0.262500X-0.450000X0*%
%ADD41RoundRect,0.250000X-0.600000X-0.750000X0.600000X-0.750000X0.600000X0.750000X-0.600000X0.750000X0*%
%ADD42RoundRect,0.375000X-0.375000X0.625000X-0.375000X-0.625000X0.375000X-0.625000X0.375000X0.625000X0*%
%ADD43RoundRect,0.500000X-1.400000X0.500000X-1.400000X-0.500000X1.400000X-0.500000X1.400000X0.500000X0*%
%ADD44R,3.500000X2.950000*%
%ADD45RoundRect,0.250000X0.550000X-1.500000X0.550000X1.500000X-0.550000X1.500000X-0.550000X-1.500000X0*%
%ADD46RoundRect,0.250000X0.312500X0.625000X-0.312500X0.625000X-0.312500X-0.625000X0.312500X-0.625000X0*%
%ADD47O,1.000000X1.800000*%
%ADD48O,1.000000X2.100000*%
%ADD49R,0.600000X1.240000*%
%ADD50R,0.300000X1.240000*%
%ADD51C,0.650000*%
%ADD52RoundRect,0.150000X-0.150000X0.587500X-0.150000X-0.587500X0.150000X-0.587500X0.150000X0.587500X0*%
%ADD53R,1.400000X1.200000*%
%ADD54R,0.549999X0.800001*%
%ADD55RoundRect,0.075000X-0.075000X-0.700000X0.075000X-0.700000X0.075000X0.700000X-0.075000X0.700000X0*%
%ADD56RoundRect,0.075000X-0.700000X-0.075000X0.700000X-0.075000X0.700000X0.075000X-0.700000X0.075000X0*%
G04 APERTURE END LIST*
D10*
%TO.C,TP11*%
X162550000Y-105050000D02*
X164450000Y-105050000D01*
X162550000Y-106950000D02*
X162550000Y-105050000D01*
X164450000Y-105050000D02*
X164450000Y-106950000D01*
X164450000Y-106950000D02*
X162550000Y-106950000D01*
%TO.C,TP10*%
X157600000Y-134750000D02*
X159500000Y-134750000D01*
X157600000Y-136650000D02*
X157600000Y-134750000D01*
X159500000Y-134750000D02*
X159500000Y-136650000D01*
X159500000Y-136650000D02*
X157600000Y-136650000D01*
%TO.C,TP9*%
X129500000Y-122650000D02*
X131400000Y-122650000D01*
X129500000Y-124550000D02*
X129500000Y-122650000D01*
X131400000Y-122650000D02*
X131400000Y-124550000D01*
X131400000Y-124550000D02*
X129500000Y-124550000D01*
%TO.C,TP8*%
X191900000Y-119450000D02*
X193800000Y-119450000D01*
X191900000Y-121350000D02*
X191900000Y-119450000D01*
X193800000Y-119450000D02*
X193800000Y-121350000D01*
X193800000Y-121350000D02*
X191900000Y-121350000D01*
%TO.C,TP7*%
X128300000Y-100850000D02*
X130200000Y-100850000D01*
X128300000Y-102750000D02*
X128300000Y-100850000D01*
X130200000Y-100850000D02*
X130200000Y-102750000D01*
X130200000Y-102750000D02*
X128300000Y-102750000D01*
%TO.C,TP6*%
X109300000Y-130150000D02*
X107400000Y-130150000D01*
X109300000Y-128250000D02*
X109300000Y-130150000D01*
X107400000Y-130150000D02*
X107400000Y-128250000D01*
X107400000Y-128250000D02*
X109300000Y-128250000D01*
%TO.C,TP14*%
X157200000Y-130700000D02*
G75*
G02*
X155800000Y-130700000I-700000J0D01*
G01*
X155800000Y-130700000D02*
G75*
G02*
X157200000Y-130700000I700000J0D01*
G01*
%TO.C,TP1*%
X145600000Y-138300000D02*
G75*
G02*
X144200000Y-138300000I-700000J0D01*
G01*
X144200000Y-138300000D02*
G75*
G02*
X145600000Y-138300000I700000J0D01*
G01*
%TO.C,C23*%
X113035000Y-118638748D02*
X113035000Y-119161252D01*
X111565000Y-118638748D02*
X111565000Y-119161252D01*
%TO.C,C28*%
X117611252Y-147785000D02*
X117088748Y-147785000D01*
X117611252Y-146315000D02*
X117088748Y-146315000D01*
%TO.C,TP33*%
X163500000Y-128600000D02*
G75*
G02*
X162100000Y-128600000I-700000J0D01*
G01*
X162100000Y-128600000D02*
G75*
G02*
X163500000Y-128600000I700000J0D01*
G01*
%TO.C,TP5*%
X142100000Y-121600000D02*
G75*
G02*
X140700000Y-121600000I-700000J0D01*
G01*
X140700000Y-121600000D02*
G75*
G02*
X142100000Y-121600000I700000J0D01*
G01*
%TO.C,TP4*%
X142100000Y-119400000D02*
G75*
G02*
X140700000Y-119400000I-700000J0D01*
G01*
X140700000Y-119400000D02*
G75*
G02*
X142100000Y-119400000I700000J0D01*
G01*
%TO.C,J12*%
X139260000Y-103580000D02*
X131580000Y-103580000D01*
X131580000Y-100920000D02*
X131580000Y-103580000D01*
X139260000Y-100920000D02*
X139260000Y-103580000D01*
X139260000Y-100920000D02*
X131580000Y-100920000D01*
X140530000Y-100920000D02*
X141860000Y-100920000D01*
X141860000Y-100920000D02*
X141860000Y-102250000D01*
%TO.C,TP3*%
X150100000Y-114400000D02*
G75*
G02*
X147700000Y-114400000I-1200000J0D01*
G01*
X147700000Y-114400000D02*
G75*
G02*
X150100000Y-114400000I1200000J0D01*
G01*
%TO.C,TP19*%
X124900000Y-102400000D02*
G75*
G02*
X122500000Y-102400000I-1200000J0D01*
G01*
X122500000Y-102400000D02*
G75*
G02*
X124900000Y-102400000I1200000J0D01*
G01*
%TO.C,TP18*%
X111200000Y-102400000D02*
G75*
G02*
X108800000Y-102400000I-1200000J0D01*
G01*
X108800000Y-102400000D02*
G75*
G02*
X111200000Y-102400000I1200000J0D01*
G01*
%TO.C,TP17*%
X160000000Y-103300000D02*
G75*
G02*
X157600000Y-103300000I-1200000J0D01*
G01*
X157600000Y-103300000D02*
G75*
G02*
X160000000Y-103300000I1200000J0D01*
G01*
%TO.C,TP13*%
X133000000Y-106300000D02*
G75*
G02*
X130600000Y-106300000I-1200000J0D01*
G01*
X130600000Y-106300000D02*
G75*
G02*
X133000000Y-106300000I1200000J0D01*
G01*
%TO.C,TP12*%
X136200000Y-106300000D02*
G75*
G02*
X133800000Y-106300000I-1200000J0D01*
G01*
X133800000Y-106300000D02*
G75*
G02*
X136200000Y-106300000I1200000J0D01*
G01*
%TO.C,TP2*%
X153300000Y-114400000D02*
G75*
G02*
X150900000Y-114400000I-1200000J0D01*
G01*
X150900000Y-114400000D02*
G75*
G02*
X153300000Y-114400000I1200000J0D01*
G01*
%TO.C,C20*%
X113761252Y-101065000D02*
X113238748Y-101065000D01*
X113761252Y-102535000D02*
X113238748Y-102535000D01*
%TO.C,C19*%
X121260000Y-110560000D02*
X121260000Y-109360000D01*
X121260000Y-106040000D02*
X121260000Y-107240000D01*
X117804437Y-110560000D02*
X121260000Y-110560000D01*
X117804437Y-106040000D02*
X121260000Y-106040000D01*
X116740000Y-109495563D02*
X117804437Y-110560000D01*
X116740000Y-109495563D02*
X116740000Y-109360000D01*
X116740000Y-107104437D02*
X117804437Y-106040000D01*
X116740000Y-107104437D02*
X116740000Y-107240000D01*
X116250000Y-106490000D02*
X116250000Y-106990000D01*
X116000000Y-106740000D02*
X116500000Y-106740000D01*
%TO.C,C17*%
X111035000Y-106811252D02*
X111035000Y-106288748D01*
X109565000Y-106811252D02*
X109565000Y-106288748D01*
%TO.C,TP15*%
X183700000Y-113500000D02*
G75*
G02*
X182300000Y-113500000I-700000J0D01*
G01*
X182300000Y-113500000D02*
G75*
G02*
X183700000Y-113500000I700000J0D01*
G01*
%TO.C,R46*%
X182735000Y-132227064D02*
X182735000Y-131772936D01*
X181265000Y-132227064D02*
X181265000Y-131772936D01*
%TO.C,C29*%
X124961252Y-129735000D02*
X124438748Y-129735000D01*
X124961252Y-128265000D02*
X124438748Y-128265000D01*
%TO.C,C32*%
X183065000Y-123538748D02*
X183065000Y-124061252D01*
X184535000Y-123538748D02*
X184535000Y-124061252D01*
%TO.C,TP20*%
X108500000Y-118300000D02*
G75*
G02*
X107100000Y-118300000I-700000J0D01*
G01*
X107100000Y-118300000D02*
G75*
G02*
X108500000Y-118300000I700000J0D01*
G01*
%TO.C,C13*%
X167538748Y-103160000D02*
X168061252Y-103160000D01*
X167538748Y-101690000D02*
X168061252Y-101690000D01*
%TO.C,R20*%
X110835000Y-136722936D02*
X110835000Y-137177064D01*
X109365000Y-136722936D02*
X109365000Y-137177064D01*
%TO.C,TP25*%
X111500000Y-147000000D02*
G75*
G02*
X110100000Y-147000000I-700000J0D01*
G01*
X110100000Y-147000000D02*
G75*
G02*
X111500000Y-147000000I700000J0D01*
G01*
%TO.C,J1*%
X172960000Y-149845000D02*
X165240000Y-149845000D01*
X172960000Y-148625000D02*
X171740000Y-148625000D01*
X172960000Y-141425000D02*
X172960000Y-149845000D01*
X171740000Y-148625000D02*
X171740000Y-143625000D01*
X171740000Y-144625000D02*
X166460000Y-144625000D01*
X171740000Y-143625000D02*
X172960000Y-143625000D01*
X171740000Y-143625000D02*
X171740000Y-141425000D01*
X171740000Y-141425000D02*
X172960000Y-141425000D01*
X170670000Y-148045000D02*
X170350000Y-148125000D01*
X170670000Y-144625000D02*
X170670000Y-148045000D01*
X170650000Y-140935000D02*
X170050000Y-140935000D01*
X170350000Y-148125000D02*
X170030000Y-148045000D01*
X170350000Y-144625000D02*
X170670000Y-144625000D01*
X170350000Y-141535000D02*
X170650000Y-140935000D01*
X170050000Y-140935000D02*
X170350000Y-141535000D01*
X170030000Y-148045000D02*
X170030000Y-144625000D01*
X170030000Y-144625000D02*
X170350000Y-144625000D01*
X169180000Y-143625000D02*
X169020000Y-143625000D01*
X168170000Y-148045000D02*
X167850000Y-148125000D01*
X168170000Y-144625000D02*
X168170000Y-148045000D01*
X167850000Y-148125000D02*
X167530000Y-148045000D01*
X167850000Y-144625000D02*
X168170000Y-144625000D01*
X167530000Y-148045000D02*
X167530000Y-144625000D01*
X167530000Y-144625000D02*
X167850000Y-144625000D01*
X166460000Y-148625000D02*
X166460000Y-143625000D01*
X166460000Y-143625000D02*
X165240000Y-143625000D01*
X166460000Y-141425000D02*
X166460000Y-143625000D01*
X165240000Y-149845000D02*
X165240000Y-141425000D01*
X165240000Y-148625000D02*
X166460000Y-148625000D01*
X165240000Y-141425000D02*
X166460000Y-141425000D01*
%TO.C,C27*%
X117761252Y-129735000D02*
X117238748Y-129735000D01*
X117761252Y-128265000D02*
X117238748Y-128265000D01*
%TO.C,C5*%
X158635000Y-120138747D02*
X158635000Y-120661253D01*
X157165000Y-120138747D02*
X157165000Y-120661253D01*
%TO.C,TP34*%
X191450000Y-126250000D02*
G75*
G02*
X190050000Y-126250000I-700000J0D01*
G01*
X190050000Y-126250000D02*
G75*
G02*
X191450000Y-126250000I700000J0D01*
G01*
%TO.C,R48*%
X184272936Y-136910000D02*
X185727064Y-136910000D01*
X184272936Y-135090000D02*
X185727064Y-135090000D01*
%TO.C,C35*%
X179635000Y-123538748D02*
X179635000Y-124061252D01*
X178165000Y-123538748D02*
X178165000Y-124061252D01*
%TO.C,R31*%
X109365000Y-140764564D02*
X109365000Y-140310436D01*
X110835000Y-140764564D02*
X110835000Y-140310436D01*
%TO.C,U10*%
X164965000Y-133990000D02*
X164485000Y-133990000D01*
X164725000Y-133660000D01*
X164965000Y-133990000D01*
G36*
X164965000Y-133990000D02*
G01*
X164485000Y-133990000D01*
X164725000Y-133660000D01*
X164965000Y-133990000D01*
G37*
X169760000Y-129750000D02*
X169760000Y-127550000D01*
X169760000Y-129750000D02*
X169760000Y-131950000D01*
X164240000Y-129750000D02*
X164240000Y-127550000D01*
X164240000Y-129750000D02*
X164240000Y-131950000D01*
%TO.C,R45*%
X171765000Y-132227064D02*
X171765000Y-131772936D01*
X173235000Y-132227064D02*
X173235000Y-131772936D01*
%TO.C,R35*%
X120860436Y-128265000D02*
X121314564Y-128265000D01*
X120860436Y-129735000D02*
X121314564Y-129735000D01*
%TO.C,D4*%
X121885000Y-104800000D02*
X121885000Y-100915000D01*
X121885000Y-100915000D02*
X118715000Y-100915000D01*
X118715000Y-100915000D02*
X118715000Y-104800000D01*
%TO.C,RV1*%
X142670000Y-139020000D02*
X142089000Y-139020000D01*
X142670000Y-133780000D02*
X142670000Y-139020000D01*
X142670000Y-133780000D02*
X141290000Y-133780000D01*
X140310000Y-139020000D02*
X139790000Y-139020000D01*
X138810000Y-133780000D02*
X137430000Y-133780000D01*
X138010000Y-139020000D02*
X137430000Y-139020000D01*
X137430000Y-133780000D02*
X137430000Y-139020000D01*
%TO.C,R40*%
X124735000Y-140322936D02*
X124735000Y-140777064D01*
X123265000Y-140322936D02*
X123265000Y-140777064D01*
%TO.C,C15*%
X159235000Y-113963748D02*
X159235000Y-114486252D01*
X157765000Y-113963748D02*
X157765000Y-114486252D01*
%TO.C,R41*%
X123365000Y-125872936D02*
X123365000Y-126327064D01*
X124835000Y-125872936D02*
X124835000Y-126327064D01*
%TO.C,TP23*%
X128300000Y-147000000D02*
G75*
G02*
X126900000Y-147000000I-700000J0D01*
G01*
X126900000Y-147000000D02*
G75*
G02*
X128300000Y-147000000I700000J0D01*
G01*
%TO.C,R1*%
X153672936Y-111135000D02*
X154127064Y-111135000D01*
X153672936Y-109665000D02*
X154127064Y-109665000D01*
%TO.C,R49*%
X190365000Y-132227064D02*
X190365000Y-131772936D01*
X191835000Y-132227064D02*
X191835000Y-131772936D01*
%TO.C,C37*%
X193635000Y-123538748D02*
X193635000Y-124061252D01*
X192165000Y-123538748D02*
X192165000Y-124061252D01*
%TO.C,R37*%
X125365000Y-140777064D02*
X125365000Y-140322936D01*
X126835000Y-140777064D02*
X126835000Y-140322936D01*
%TO.C,C30*%
X124961252Y-146315000D02*
X124438748Y-146315000D01*
X124961252Y-147785000D02*
X124438748Y-147785000D01*
%TO.C,C4*%
X154811252Y-133635000D02*
X154288746Y-133635000D01*
X154811252Y-132165000D02*
X154288746Y-132165000D01*
%TO.C,J13*%
X143830000Y-144270000D02*
X143830000Y-149410000D01*
X141170000Y-149410000D02*
X143830000Y-149410000D01*
X141170000Y-144270000D02*
X143830000Y-144270000D01*
X141170000Y-144270000D02*
X141170000Y-149410000D01*
X141170000Y-143000000D02*
X141170000Y-141670000D01*
X141170000Y-141670000D02*
X142500000Y-141670000D01*
%TO.C,C3*%
X146161253Y-132165000D02*
X145638748Y-132164999D01*
X146161252Y-133635001D02*
X145638747Y-133635000D01*
%TO.C,SW1*%
X132500000Y-128000000D02*
X132500000Y-129200000D01*
X132500000Y-130800000D02*
X132500000Y-132000000D01*
X132500000Y-132000000D02*
X138900000Y-132000000D01*
X138900000Y-128000000D02*
X132500000Y-128000000D01*
X138900000Y-129200000D02*
X138900000Y-128000000D01*
X138900000Y-132000000D02*
X138900000Y-130800000D01*
%TO.C,R36*%
X120772936Y-147785000D02*
X121227064Y-147785000D01*
X120772936Y-146315000D02*
X121227064Y-146315000D01*
%TO.C,C2*%
X145188748Y-117835000D02*
X145711254Y-117835000D01*
X145188748Y-116365000D02*
X145711254Y-116365000D01*
%TO.C,C18*%
X127035000Y-102561252D02*
X127035000Y-102038748D01*
X125565000Y-102561252D02*
X125565000Y-102038748D01*
%TO.C,D3*%
X177815000Y-111452500D02*
X181825000Y-111452500D01*
X177815000Y-109452500D02*
X181825000Y-109452500D01*
X177815000Y-109452500D02*
X177815000Y-111452500D01*
%TO.C,C6*%
X142535000Y-127711252D02*
X142535000Y-127188748D01*
X141065000Y-127711252D02*
X141065000Y-127188748D01*
%TO.C,R11*%
X177135000Y-114827064D02*
X177135000Y-114372936D01*
X175665000Y-114827064D02*
X175665000Y-114372936D01*
%TO.C,R51*%
X162810436Y-135090000D02*
X164264564Y-135090000D01*
X162810436Y-136910000D02*
X164264564Y-136910000D01*
%TO.C,C42*%
X170035000Y-123538748D02*
X170035000Y-124061252D01*
X168565000Y-123538748D02*
X168565000Y-124061252D01*
%TO.C,J7*%
X154160000Y-149877500D02*
X146440000Y-149877500D01*
X154160000Y-148657500D02*
X152940000Y-148657500D01*
X154160000Y-141457500D02*
X154160000Y-149877500D01*
X152940000Y-148657500D02*
X152940000Y-143657500D01*
X152940000Y-144657500D02*
X147660000Y-144657500D01*
X152940000Y-143657500D02*
X154160000Y-143657500D01*
X152940000Y-143657500D02*
X152940000Y-141457500D01*
X152940000Y-141457500D02*
X154160000Y-141457500D01*
X151870000Y-148077500D02*
X151550000Y-148157500D01*
X151870000Y-144657500D02*
X151870000Y-148077500D01*
X151850000Y-140967500D02*
X151250000Y-140967500D01*
X151550000Y-148157500D02*
X151230000Y-148077500D01*
X151550000Y-144657500D02*
X151870000Y-144657500D01*
X151550000Y-141567500D02*
X151850000Y-140967500D01*
X151250000Y-140967500D02*
X151550000Y-141567500D01*
X151230000Y-148077500D02*
X151230000Y-144657500D01*
X151230000Y-144657500D02*
X151550000Y-144657500D01*
X150380000Y-143657500D02*
X150220000Y-143657500D01*
X149370000Y-148077500D02*
X149050000Y-148157500D01*
X149370000Y-144657500D02*
X149370000Y-148077500D01*
X149050000Y-148157500D02*
X148730000Y-148077500D01*
X149050000Y-144657500D02*
X149370000Y-144657500D01*
X148730000Y-148077500D02*
X148730000Y-144657500D01*
X148730000Y-144657500D02*
X149050000Y-144657500D01*
X147660000Y-148657500D02*
X147660000Y-143657500D01*
X147660000Y-143657500D02*
X146440000Y-143657500D01*
X147660000Y-141457500D02*
X147660000Y-143657500D01*
X146440000Y-149877500D02*
X146440000Y-141457500D01*
X146440000Y-148657500D02*
X147660000Y-148657500D01*
X146440000Y-141457500D02*
X147660000Y-141457500D01*
%TO.C,C10*%
X181460000Y-106920563D02*
X181460000Y-103465000D01*
X181460000Y-103465000D02*
X180260000Y-103465000D01*
X180395563Y-107985000D02*
X181460000Y-106920563D01*
X180395563Y-107985000D02*
X180260000Y-107985000D01*
X178004437Y-107985000D02*
X178140000Y-107985000D01*
X178004437Y-107985000D02*
X176940000Y-106920563D01*
X177640000Y-108725000D02*
X177640000Y-108225000D01*
X177390000Y-108475000D02*
X177890000Y-108475000D01*
X176940000Y-106920563D02*
X176940000Y-103465000D01*
X176940000Y-103465000D02*
X178140000Y-103465000D01*
%TO.C,C12*%
X174335000Y-105936252D02*
X174335000Y-105413748D01*
X172865000Y-105936252D02*
X172865000Y-105413748D01*
%TO.C,R38*%
X126935000Y-122727064D02*
X126935000Y-122272936D01*
X125465000Y-122727064D02*
X125465000Y-122272936D01*
%TO.C,D6*%
X118040000Y-132750000D02*
X118040000Y-134750000D01*
X118040000Y-132750000D02*
X122050000Y-132750000D01*
X118040000Y-134750000D02*
X122050000Y-134750000D01*
%TO.C,R15*%
X118035000Y-102872936D02*
X118035000Y-103327064D01*
X116565000Y-102872936D02*
X116565000Y-103327064D01*
%TO.C,U4*%
X115290000Y-104477500D02*
X114960000Y-104237500D01*
X115290000Y-103997500D01*
X115290000Y-104477500D01*
G36*
X115290000Y-104477500D02*
G01*
X114960000Y-104237500D01*
X115290000Y-103997500D01*
X115290000Y-104477500D01*
G37*
X115135000Y-106450000D02*
X115135000Y-107950000D01*
X115135000Y-106450000D02*
X115135000Y-104950000D01*
X111915000Y-106450000D02*
X111915000Y-107950000D01*
X111915000Y-106450000D02*
X111915000Y-104950000D01*
%TO.C,U5*%
X115402500Y-117250000D02*
X115402500Y-118090000D01*
X115402500Y-127670000D02*
X115402500Y-126830000D01*
X118162500Y-117250000D02*
X115402500Y-117250000D01*
X118162500Y-117250000D02*
X120922500Y-117250000D01*
X118162500Y-127670000D02*
X115402500Y-127670000D01*
X118162500Y-127670000D02*
X120922500Y-127670000D01*
X120922500Y-117250000D02*
X120922500Y-118090000D01*
X120922500Y-127670000D02*
X120922500Y-126830000D01*
X114612500Y-118090000D02*
X114372500Y-117760000D01*
X114852500Y-117760000D01*
X114612500Y-118090000D01*
G36*
X114612500Y-118090000D02*
G01*
X114372500Y-117760000D01*
X114852500Y-117760000D01*
X114612500Y-118090000D01*
G37*
%TO.C,J11*%
X105930000Y-131430000D02*
X105930000Y-136570000D01*
X103270000Y-136570000D02*
X105930000Y-136570000D01*
X103270000Y-131430000D02*
X105930000Y-131430000D01*
X103270000Y-131430000D02*
X103270000Y-136570000D01*
X103270000Y-130160000D02*
X103270000Y-128830000D01*
X103270000Y-128830000D02*
X104600000Y-128830000D01*
%TO.C,R16*%
X161635000Y-106272936D02*
X161635000Y-106727064D01*
X160165000Y-106272936D02*
X160165000Y-106727064D01*
%TO.C,C1*%
X135261252Y-127535000D02*
X134738748Y-127535000D01*
X135261252Y-126065000D02*
X134738748Y-126065000D01*
%TO.C,R9*%
X145677065Y-115735000D02*
X145222937Y-115735000D01*
X145677065Y-114265000D02*
X145222937Y-114265000D01*
%TO.C,R6*%
X134772936Y-120065000D02*
X135227064Y-120065000D01*
X134772936Y-121535000D02*
X135227064Y-121535000D01*
%TO.C,R22*%
X109027064Y-130865000D02*
X108572936Y-130865000D01*
X109027064Y-132335000D02*
X108572936Y-132335000D01*
%TO.C,C31*%
X175035000Y-123538748D02*
X175035000Y-124061252D01*
X173565000Y-123538748D02*
X173565000Y-124061252D01*
%TO.C,U8*%
X183965000Y-133990000D02*
X183485000Y-133990000D01*
X183725000Y-133660000D01*
X183965000Y-133990000D01*
G36*
X183965000Y-133990000D02*
G01*
X183485000Y-133990000D01*
X183725000Y-133660000D01*
X183965000Y-133990000D01*
G37*
X188760000Y-129750000D02*
X188760000Y-127550000D01*
X188760000Y-129750000D02*
X188760000Y-131950000D01*
X183240000Y-129750000D02*
X183240000Y-127550000D01*
X183240000Y-129750000D02*
X183240000Y-131950000D01*
%TO.C,C25*%
X112935000Y-136688748D02*
X112935000Y-137211252D01*
X111465000Y-136688748D02*
X111465000Y-137211252D01*
%TO.C,RV3*%
X123910000Y-119920000D02*
X123330000Y-119920000D01*
X126210000Y-119920000D02*
X125690000Y-119920000D01*
X128570000Y-119920000D02*
X127989000Y-119920000D01*
X123330000Y-114680000D02*
X123330000Y-119920000D01*
X124710000Y-114680000D02*
X123330000Y-114680000D01*
X128570000Y-114680000D02*
X128570000Y-119920000D01*
X128570000Y-114680000D02*
X127190000Y-114680000D01*
%TO.C,C22*%
X116211252Y-134485000D02*
X115688748Y-134485000D01*
X116211252Y-133015000D02*
X115688748Y-133015000D01*
%TO.C,U9*%
X192320000Y-129750000D02*
X192320000Y-131950000D01*
X192320000Y-129750000D02*
X192320000Y-127550000D01*
X197840000Y-129750000D02*
X197840000Y-131950000D01*
X197840000Y-129750000D02*
X197840000Y-127550000D01*
X193045000Y-133990000D02*
X192565000Y-133990000D01*
X192805000Y-133660000D01*
X193045000Y-133990000D01*
G36*
X193045000Y-133990000D02*
G01*
X192565000Y-133990000D01*
X192805000Y-133660000D01*
X193045000Y-133990000D01*
G37*
%TO.C,C34*%
X185365000Y-123538748D02*
X185365000Y-124061252D01*
X186835000Y-123538748D02*
X186835000Y-124061252D01*
%TO.C,R2*%
X146327064Y-111135000D02*
X145872936Y-111135000D01*
X146327064Y-109665000D02*
X145872936Y-109665000D01*
%TO.C,C8*%
X139135000Y-122061253D02*
X139135000Y-121538747D01*
X137665000Y-122061253D02*
X137665000Y-121538747D01*
%TO.C,R28*%
X109465000Y-122727064D02*
X109465000Y-122272936D01*
X110935000Y-122727064D02*
X110935000Y-122272936D01*
%TO.C,R34*%
X110835000Y-143922936D02*
X110835000Y-144377064D01*
X109365000Y-143922936D02*
X109365000Y-144377064D01*
%TO.C,RV2*%
X136120000Y-139020000D02*
X135539000Y-139020000D01*
X136120000Y-133780000D02*
X136120000Y-139020000D01*
X136120000Y-133780000D02*
X134740000Y-133780000D01*
X133760000Y-139020000D02*
X133240000Y-139020000D01*
X132260000Y-133780000D02*
X130880000Y-133780000D01*
X131460000Y-139020000D02*
X130880000Y-139020000D01*
X130880000Y-133780000D02*
X130880000Y-139020000D01*
%TO.C,C24*%
X111565000Y-122238748D02*
X111565000Y-122761252D01*
X113035000Y-122238748D02*
X113035000Y-122761252D01*
%TO.C,RV4*%
X128420000Y-132730000D02*
X127040000Y-132730000D01*
X128420000Y-132730000D02*
X128420000Y-137970000D01*
X124560000Y-132730000D02*
X123180000Y-132730000D01*
X123180000Y-132730000D02*
X123180000Y-137970000D01*
X128420000Y-137970000D02*
X127839000Y-137970000D01*
X126060000Y-137970000D02*
X125540000Y-137970000D01*
X123760000Y-137970000D02*
X123180000Y-137970000D01*
%TO.C,J4*%
X133670000Y-144270000D02*
X133670000Y-149410000D01*
X131010000Y-149410000D02*
X133670000Y-149410000D01*
X131010000Y-144270000D02*
X133670000Y-144270000D01*
X131010000Y-144270000D02*
X131010000Y-149410000D01*
X131010000Y-143000000D02*
X131010000Y-141670000D01*
X131010000Y-141670000D02*
X132340000Y-141670000D01*
%TO.C,R10*%
X177135000Y-111227064D02*
X177135000Y-110772936D01*
X175665000Y-111227064D02*
X175665000Y-110772936D01*
%TO.C,R52*%
X193472936Y-136910000D02*
X194927064Y-136910000D01*
X193472936Y-135090000D02*
X194927064Y-135090000D01*
%TO.C,C26*%
X112935000Y-140288748D02*
X112935000Y-140811252D01*
X111465000Y-140288748D02*
X111465000Y-140811252D01*
%TO.C,R26*%
X113472936Y-146315000D02*
X113927064Y-146315000D01*
X113472936Y-147785000D02*
X113927064Y-147785000D01*
%TO.C,U6*%
X115340000Y-135300000D02*
X115340000Y-136140000D01*
X115340000Y-145720000D02*
X115340000Y-144880000D01*
X118100000Y-135300000D02*
X115340000Y-135300000D01*
X118100000Y-135300000D02*
X120860000Y-135300000D01*
X118100000Y-145720000D02*
X115340000Y-145720000D01*
X118100000Y-145720000D02*
X120860000Y-145720000D01*
X120860000Y-135300000D02*
X120860000Y-136140000D01*
X120860000Y-145720000D02*
X120860000Y-144880000D01*
X114550000Y-136140000D02*
X114310000Y-135810000D01*
X114790000Y-135810000D01*
X114550000Y-136140000D01*
G36*
X114550000Y-136140000D02*
G01*
X114310000Y-135810000D01*
X114790000Y-135810000D01*
X114550000Y-136140000D01*
G37*
%TO.C,J3*%
X190860000Y-108842500D02*
X189640000Y-108842500D01*
X190860000Y-101642500D02*
X189640000Y-101642500D01*
X190860000Y-100422500D02*
X190860000Y-108842500D01*
X189640000Y-108842500D02*
X189640000Y-106642500D01*
X189640000Y-106642500D02*
X190860000Y-106642500D01*
X189640000Y-101642500D02*
X189640000Y-106642500D01*
X188570000Y-105642500D02*
X188250000Y-105642500D01*
X188570000Y-102222500D02*
X188570000Y-105642500D01*
X188250000Y-105642500D02*
X187930000Y-105642500D01*
X188250000Y-102142500D02*
X188570000Y-102222500D01*
X187930000Y-105642500D02*
X187930000Y-102222500D01*
X187930000Y-102222500D02*
X188250000Y-102142500D01*
X186920000Y-106642500D02*
X187080000Y-106642500D01*
X186070000Y-105642500D02*
X185750000Y-105642500D01*
X186070000Y-102222500D02*
X186070000Y-105642500D01*
X186050000Y-109332500D02*
X185750000Y-108732500D01*
X185750000Y-108732500D02*
X185450000Y-109332500D01*
X185750000Y-105642500D02*
X185430000Y-105642500D01*
X185750000Y-102142500D02*
X186070000Y-102222500D01*
X185450000Y-109332500D02*
X186050000Y-109332500D01*
X185430000Y-105642500D02*
X185430000Y-102222500D01*
X185430000Y-102222500D02*
X185750000Y-102142500D01*
X184360000Y-108842500D02*
X183140000Y-108842500D01*
X184360000Y-106642500D02*
X184360000Y-108842500D01*
X184360000Y-106642500D02*
X183140000Y-106642500D01*
X184360000Y-105642500D02*
X189640000Y-105642500D01*
X184360000Y-101642500D02*
X184360000Y-106642500D01*
X183140000Y-108842500D02*
X183140000Y-100422500D01*
X183140000Y-101642500D02*
X184360000Y-101642500D01*
X183140000Y-100422500D02*
X190860000Y-100422500D01*
%TO.C,TP31*%
X182200000Y-124000000D02*
G75*
G02*
X180800000Y-124000000I-700000J0D01*
G01*
X180800000Y-124000000D02*
G75*
G02*
X182200000Y-124000000I700000J0D01*
G01*
%TO.C,TP24*%
X111600000Y-129000000D02*
G75*
G02*
X110200000Y-129000000I-700000J0D01*
G01*
X110200000Y-129000000D02*
G75*
G02*
X111600000Y-129000000I700000J0D01*
G01*
%TO.C,R39*%
X124835000Y-122272936D02*
X124835000Y-122727064D01*
X123365000Y-122272936D02*
X123365000Y-122727064D01*
%TO.C,TP35*%
X191450000Y-124000000D02*
G75*
G02*
X190050000Y-124000000I-700000J0D01*
G01*
X190050000Y-124000000D02*
G75*
G02*
X191450000Y-124000000I700000J0D01*
G01*
%TO.C,R3*%
X150227064Y-111135000D02*
X149772936Y-111135000D01*
X150227064Y-109665000D02*
X149772936Y-109665000D01*
%TO.C,C16*%
X159235000Y-110836252D02*
X159235000Y-110313748D01*
X157765000Y-110836252D02*
X157765000Y-110313748D01*
%TO.C,C9*%
X139135000Y-125138747D02*
X139135000Y-125661253D01*
X137665000Y-125138747D02*
X137665000Y-125661253D01*
%TO.C,C11*%
X176435000Y-105936252D02*
X176435000Y-105413748D01*
X174965000Y-105936252D02*
X174965000Y-105413748D01*
%TO.C,TP30*%
X172700000Y-124000000D02*
G75*
G02*
X171300000Y-124000000I-700000J0D01*
G01*
X171300000Y-124000000D02*
G75*
G02*
X172700000Y-124000000I700000J0D01*
G01*
%TO.C,U3*%
X122990000Y-106950000D02*
X122990000Y-110710000D01*
X122990000Y-110710000D02*
X124250000Y-110710000D01*
X129810000Y-106950000D02*
X129810000Y-110710000D01*
X129810000Y-110710000D02*
X128550000Y-110710000D01*
X130040000Y-105910000D02*
X129710000Y-105670000D01*
X130040000Y-105430000D01*
X130040000Y-105910000D01*
G36*
X130040000Y-105910000D02*
G01*
X129710000Y-105670000D01*
X130040000Y-105430000D01*
X130040000Y-105910000D01*
G37*
%TO.C,R30*%
X112539564Y-133015000D02*
X112085436Y-133015000D01*
X112539564Y-134485000D02*
X112085436Y-134485000D01*
%TO.C,L1*%
X174110000Y-115150000D02*
G75*
G02*
X173500000Y-115760000I-610000J0D01*
G01*
X173500000Y-108840000D02*
G75*
G02*
X174110000Y-109450000I0J-610000D01*
G01*
X167900000Y-115760000D02*
G75*
G02*
X167290000Y-115150000I0J610000D01*
G01*
X167290000Y-109500000D02*
G75*
G02*
X167950000Y-108840000I660002J-2D01*
G01*
X174110000Y-109450000D02*
X174110000Y-115150000D01*
X173500000Y-115760000D02*
X172650000Y-115760000D01*
X172650000Y-108840000D02*
X173500000Y-108840000D01*
X168750000Y-115760000D02*
X167900000Y-115760000D01*
X167950000Y-108840000D02*
X168750000Y-108840000D01*
X167290000Y-115150000D02*
X167290000Y-109500000D01*
%TO.C,C14*%
X166710000Y-114645563D02*
X166710000Y-108890000D01*
X166710000Y-108890000D02*
X164360000Y-108890000D01*
X165645563Y-115710000D02*
X166710000Y-114645563D01*
X165645563Y-115710000D02*
X164360000Y-115710000D01*
X161452500Y-116737500D02*
X161452500Y-115950000D01*
X161058750Y-116343750D02*
X161846250Y-116343750D01*
X160954437Y-115710000D02*
X162240000Y-115710000D01*
X160954437Y-115710000D02*
X159890000Y-114645563D01*
X159890000Y-114645563D02*
X159890000Y-108890000D01*
X159890000Y-108890000D02*
X162240000Y-108890000D01*
%TO.C,R5*%
X134265000Y-109272936D02*
X134265000Y-109727064D01*
X135735000Y-109272936D02*
X135735000Y-109727064D01*
%TO.C,TP32*%
X191450000Y-128450000D02*
G75*
G02*
X190050000Y-128450000I-700000J0D01*
G01*
X190050000Y-128450000D02*
G75*
G02*
X191450000Y-128450000I700000J0D01*
G01*
%TO.C,R29*%
X113035000Y-125860436D02*
X113035000Y-126314564D01*
X111565000Y-125860436D02*
X111565000Y-126314564D01*
%TO.C,R12*%
X171272936Y-103135000D02*
X171727064Y-103135000D01*
X171272936Y-101665000D02*
X171727064Y-101665000D01*
%TO.C,R27*%
X112539564Y-116435000D02*
X112085436Y-116435000D01*
X112539564Y-114965000D02*
X112085436Y-114965000D01*
%TO.C,R33*%
X110935000Y-125847936D02*
X110935000Y-126302064D01*
X109465000Y-125847936D02*
X109465000Y-126302064D01*
%TO.C,R53*%
X169727064Y-136910000D02*
X168272936Y-136910000D01*
X169727064Y-135090000D02*
X168272936Y-135090000D01*
%TO.C,R47*%
X174772936Y-136910000D02*
X176227064Y-136910000D01*
X174772936Y-135090000D02*
X176227064Y-135090000D01*
%TO.C,J9*%
X138750000Y-144270000D02*
X138750000Y-149410000D01*
X136090000Y-149410000D02*
X138750000Y-149410000D01*
X136090000Y-144270000D02*
X138750000Y-144270000D01*
X136090000Y-144270000D02*
X136090000Y-149410000D01*
X136090000Y-143000000D02*
X136090000Y-141670000D01*
X136090000Y-141670000D02*
X137420000Y-141670000D01*
%TO.C,R23*%
X108927064Y-116435000D02*
X108472936Y-116435000D01*
X108927064Y-114965000D02*
X108472936Y-114965000D01*
%TO.C,J5*%
X154580000Y-105850000D02*
X154580000Y-103930000D01*
X154580000Y-100215000D02*
X154580000Y-101920000D01*
X145420000Y-103930000D02*
X145420000Y-105850000D01*
X145420000Y-101920000D02*
X145420000Y-100215000D01*
X145420000Y-100215000D02*
X154580000Y-100215000D01*
%TO.C,TP27*%
X182200000Y-128500000D02*
G75*
G02*
X180800000Y-128500000I-700000J0D01*
G01*
X180800000Y-128500000D02*
G75*
G02*
X182200000Y-128500000I700000J0D01*
G01*
%TO.C,D1*%
X143877500Y-111595000D02*
X143877500Y-107710000D01*
X143877500Y-107710000D02*
X140707500Y-107710000D01*
X140707500Y-107710000D02*
X140707500Y-111595000D01*
%TO.C,R4*%
X131065000Y-109272936D02*
X131065000Y-109727064D01*
X132535000Y-109272936D02*
X132535000Y-109727064D01*
%TO.C,C21*%
X116261252Y-116435000D02*
X115738748Y-116435000D01*
X116261252Y-114965000D02*
X115738748Y-114965000D01*
%TO.C,R19*%
X112539564Y-132335000D02*
X112085436Y-132335000D01*
X112539564Y-130865000D02*
X112085436Y-130865000D01*
%TO.C,SW2*%
X138925000Y-119687500D02*
X138925000Y-118487500D01*
X138925000Y-116887500D02*
X138925000Y-115687500D01*
X138925000Y-115687500D02*
X132525000Y-115687500D01*
X132525000Y-119687500D02*
X138925000Y-119687500D01*
X132525000Y-118487500D02*
X132525000Y-119687500D01*
X132525000Y-115687500D02*
X132525000Y-116887500D01*
%TO.C,Q1*%
X181440000Y-113090000D02*
X181110000Y-112850000D01*
X181440000Y-112610000D01*
X181440000Y-113090000D01*
G36*
X181440000Y-113090000D02*
G01*
X181110000Y-112850000D01*
X181440000Y-112610000D01*
X181440000Y-113090000D01*
G37*
X181160000Y-114012500D02*
X181160000Y-114662500D01*
X181160000Y-114012500D02*
X181160000Y-113362500D01*
X178040000Y-114012500D02*
X178040000Y-114662500D01*
X178040000Y-114012500D02*
X178040000Y-113362500D01*
%TO.C,U7*%
X173740000Y-129750000D02*
X173740000Y-131950000D01*
X173740000Y-129750000D02*
X173740000Y-127550000D01*
X179260000Y-129750000D02*
X179260000Y-131950000D01*
X179260000Y-129750000D02*
X179260000Y-127550000D01*
X174465000Y-133990000D02*
X173985000Y-133990000D01*
X174225000Y-133660000D01*
X174465000Y-133990000D01*
G36*
X174465000Y-133990000D02*
G01*
X173985000Y-133990000D01*
X174225000Y-133660000D01*
X174465000Y-133990000D01*
G37*
%TO.C,R42*%
X123265000Y-143922936D02*
X123265000Y-144377064D01*
X124735000Y-143922936D02*
X124735000Y-144377064D01*
%TO.C,R32*%
X111465000Y-143922936D02*
X111465000Y-144377064D01*
X112935000Y-143922936D02*
X112935000Y-144377064D01*
%TO.C,R17*%
X112539564Y-114335000D02*
X112085436Y-114335000D01*
X112539564Y-112865000D02*
X112085436Y-112865000D01*
%TO.C,J2*%
X181810000Y-149845000D02*
X174090000Y-149845000D01*
X181810000Y-148625000D02*
X180590000Y-148625000D01*
X181810000Y-141425000D02*
X181810000Y-149845000D01*
X180590000Y-148625000D02*
X180590000Y-143625000D01*
X180590000Y-144625000D02*
X175310000Y-144625000D01*
X180590000Y-143625000D02*
X181810000Y-143625000D01*
X180590000Y-143625000D02*
X180590000Y-141425000D01*
X180590000Y-141425000D02*
X181810000Y-141425000D01*
X179520000Y-148045000D02*
X179200000Y-148125000D01*
X179520000Y-144625000D02*
X179520000Y-148045000D01*
X179500000Y-140935000D02*
X178900000Y-140935000D01*
X179200000Y-148125000D02*
X178880000Y-148045000D01*
X179200000Y-144625000D02*
X179520000Y-144625000D01*
X179200000Y-141535000D02*
X179500000Y-140935000D01*
X178900000Y-140935000D02*
X179200000Y-141535000D01*
X178880000Y-148045000D02*
X178880000Y-144625000D01*
X178880000Y-144625000D02*
X179200000Y-144625000D01*
X178030000Y-143625000D02*
X177870000Y-143625000D01*
X177020000Y-148045000D02*
X176700000Y-148125000D01*
X177020000Y-144625000D02*
X177020000Y-148045000D01*
X176700000Y-148125000D02*
X176380000Y-148045000D01*
X176700000Y-144625000D02*
X177020000Y-144625000D01*
X176380000Y-148045000D02*
X176380000Y-144625000D01*
X176380000Y-144625000D02*
X176700000Y-144625000D01*
X175310000Y-148625000D02*
X175310000Y-143625000D01*
X175310000Y-143625000D02*
X174090000Y-143625000D01*
X175310000Y-141425000D02*
X175310000Y-143625000D01*
X174090000Y-149845000D02*
X174090000Y-141425000D01*
X174090000Y-148625000D02*
X175310000Y-148625000D01*
X174090000Y-141425000D02*
X175310000Y-141425000D01*
%TO.C,TP22*%
X128600000Y-129000000D02*
G75*
G02*
X127200000Y-129000000I-700000J0D01*
G01*
X127200000Y-129000000D02*
G75*
G02*
X128600000Y-129000000I700000J0D01*
G01*
%TO.C,J8*%
X105930000Y-114990000D02*
X105930000Y-120130000D01*
X103270000Y-120130000D02*
X105930000Y-120130000D01*
X103270000Y-114990000D02*
X105930000Y-114990000D01*
X103270000Y-114990000D02*
X103270000Y-120130000D01*
X103270000Y-113720000D02*
X103270000Y-112390000D01*
X103270000Y-112390000D02*
X104600000Y-112390000D01*
%TO.C,J6*%
X190660000Y-149845000D02*
X182940000Y-149845000D01*
X190660000Y-148625000D02*
X189440000Y-148625000D01*
X190660000Y-141425000D02*
X190660000Y-149845000D01*
X189440000Y-148625000D02*
X189440000Y-143625000D01*
X189440000Y-144625000D02*
X184160000Y-144625000D01*
X189440000Y-143625000D02*
X190660000Y-143625000D01*
X189440000Y-143625000D02*
X189440000Y-141425000D01*
X189440000Y-141425000D02*
X190660000Y-141425000D01*
X188370000Y-148045000D02*
X188050000Y-148125000D01*
X188370000Y-144625000D02*
X188370000Y-148045000D01*
X188350000Y-140935000D02*
X187750000Y-140935000D01*
X188050000Y-148125000D02*
X187730000Y-148045000D01*
X188050000Y-144625000D02*
X188370000Y-144625000D01*
X188050000Y-141535000D02*
X188350000Y-140935000D01*
X187750000Y-140935000D02*
X188050000Y-141535000D01*
X187730000Y-148045000D02*
X187730000Y-144625000D01*
X187730000Y-144625000D02*
X188050000Y-144625000D01*
X186880000Y-143625000D02*
X186720000Y-143625000D01*
X185870000Y-148045000D02*
X185550000Y-148125000D01*
X185870000Y-144625000D02*
X185870000Y-148045000D01*
X185550000Y-148125000D02*
X185230000Y-148045000D01*
X185550000Y-144625000D02*
X185870000Y-144625000D01*
X185230000Y-148045000D02*
X185230000Y-144625000D01*
X185230000Y-144625000D02*
X185550000Y-144625000D01*
X184160000Y-148625000D02*
X184160000Y-143625000D01*
X184160000Y-143625000D02*
X182940000Y-143625000D01*
X184160000Y-141425000D02*
X184160000Y-143625000D01*
X182940000Y-149845000D02*
X182940000Y-141425000D01*
X182940000Y-148625000D02*
X184160000Y-148625000D01*
X182940000Y-141425000D02*
X184160000Y-141425000D01*
%TO.C,R7*%
X142474564Y-106835000D02*
X142020436Y-106835000D01*
X142474564Y-105365000D02*
X142020436Y-105365000D01*
%TO.C,R44*%
X125365000Y-143935436D02*
X125365000Y-144389564D01*
X126835000Y-143935436D02*
X126835000Y-144389564D01*
%TO.C,TP26*%
X172700000Y-128500000D02*
G75*
G02*
X171300000Y-128500000I-700000J0D01*
G01*
X171300000Y-128500000D02*
G75*
G02*
X172700000Y-128500000I700000J0D01*
G01*
%TO.C,C33*%
X177335000Y-123538748D02*
X177335000Y-124061252D01*
X175865000Y-123538748D02*
X175865000Y-124061252D01*
%TO.C,R21*%
X108927064Y-114335000D02*
X108472936Y-114335000D01*
X108927064Y-112865000D02*
X108472936Y-112865000D01*
%TO.C,R24*%
X113660436Y-128265000D02*
X114114564Y-128265000D01*
X113660436Y-129735000D02*
X114114564Y-129735000D01*
%TO.C,Y1*%
X137100000Y-125200000D02*
X137100000Y-121900000D01*
X137100000Y-121900000D02*
X133100000Y-121900000D01*
%TO.C,R43*%
X125465000Y-125872936D02*
X125465000Y-126327064D01*
X126935000Y-125872936D02*
X126935000Y-126327064D01*
%TO.C,C36*%
X187565000Y-123538748D02*
X187565000Y-124061252D01*
X189035000Y-123538748D02*
X189035000Y-124061252D01*
%TO.C,TP29*%
X182200000Y-126250000D02*
G75*
G02*
X180800000Y-126250000I-700000J0D01*
G01*
X180800000Y-126250000D02*
G75*
G02*
X182200000Y-126250000I700000J0D01*
G01*
%TO.C,D2*%
X140127500Y-111595000D02*
X140127500Y-107710000D01*
X140127500Y-107710000D02*
X136957500Y-107710000D01*
X136957500Y-107710000D02*
X136957500Y-111595000D01*
%TO.C,R13*%
X159535000Y-106727064D02*
X159535000Y-106272936D01*
X158065000Y-106727064D02*
X158065000Y-106272936D01*
%TO.C,C40*%
X166315000Y-123538748D02*
X166315000Y-124061252D01*
X167785000Y-123538748D02*
X167785000Y-124061252D01*
%TO.C,TP28*%
X172700000Y-126250000D02*
G75*
G02*
X171300000Y-126250000I-700000J0D01*
G01*
X171300000Y-126250000D02*
G75*
G02*
X172700000Y-126250000I700000J0D01*
G01*
%TO.C,D5*%
X118140000Y-116700000D02*
X122150000Y-116700000D01*
X118140000Y-114700000D02*
X122150000Y-114700000D01*
X118140000Y-114700000D02*
X118140000Y-116700000D01*
%TO.C,C41*%
X198035000Y-123538748D02*
X198035000Y-124061252D01*
X196565000Y-123538748D02*
X196565000Y-124061252D01*
%TO.C,R18*%
X110935000Y-118660436D02*
X110935000Y-119114564D01*
X109465000Y-118660436D02*
X109465000Y-119114564D01*
%TO.C,C39*%
X195835000Y-123538748D02*
X195835000Y-124061252D01*
X194365000Y-123538748D02*
X194365000Y-124061252D01*
%TO.C,R25*%
X109027064Y-134485000D02*
X108572936Y-134485000D01*
X109027064Y-133015000D02*
X108572936Y-133015000D01*
D11*
%TO.C,U2*%
X172224000Y-106325001D02*
X172224000Y-104924999D01*
X169174999Y-107227600D02*
X169174999Y-105175001D01*
D10*
%TO.C,R8*%
X138260436Y-106835000D02*
X138714564Y-106835000D01*
X138260436Y-105365000D02*
X138714564Y-105365000D01*
%TO.C,R14*%
X184627064Y-111235000D02*
X184172936Y-111235000D01*
X184627064Y-109765000D02*
X184172936Y-109765000D01*
%TO.C,TP16*%
X182400000Y-108300000D02*
G75*
G02*
X181000000Y-108300000I-700000J0D01*
G01*
X181000000Y-108300000D02*
G75*
G02*
X182400000Y-108300000I700000J0D01*
G01*
%TO.C,C38*%
X164065000Y-123538748D02*
X164065000Y-124061252D01*
X165535000Y-123538748D02*
X165535000Y-124061252D01*
%TO.C,C7*%
X146161252Y-135835000D02*
X145638748Y-135835000D01*
X146161252Y-134365000D02*
X145638748Y-134365000D01*
%TO.C,J10*%
X163010000Y-149845000D02*
X155290000Y-149845000D01*
X163010000Y-148625000D02*
X161790000Y-148625000D01*
X163010000Y-141425000D02*
X163010000Y-149845000D01*
X161790000Y-148625000D02*
X161790000Y-143625000D01*
X161790000Y-144625000D02*
X156510000Y-144625000D01*
X161790000Y-143625000D02*
X163010000Y-143625000D01*
X161790000Y-143625000D02*
X161790000Y-141425000D01*
X161790000Y-141425000D02*
X163010000Y-141425000D01*
X160720000Y-148045000D02*
X160400000Y-148125000D01*
X160720000Y-144625000D02*
X160720000Y-148045000D01*
X160700000Y-140935000D02*
X160100000Y-140935000D01*
X160400000Y-148125000D02*
X160080000Y-148045000D01*
X160400000Y-144625000D02*
X160720000Y-144625000D01*
X160400000Y-141535000D02*
X160700000Y-140935000D01*
X160100000Y-140935000D02*
X160400000Y-141535000D01*
X160080000Y-148045000D02*
X160080000Y-144625000D01*
X160080000Y-144625000D02*
X160400000Y-144625000D01*
X159230000Y-143625000D02*
X159070000Y-143625000D01*
X158220000Y-148045000D02*
X157900000Y-148125000D01*
X158220000Y-144625000D02*
X158220000Y-148045000D01*
X157900000Y-148125000D02*
X157580000Y-148045000D01*
X157900000Y-144625000D02*
X158220000Y-144625000D01*
X157580000Y-148045000D02*
X157580000Y-144625000D01*
X157580000Y-144625000D02*
X157900000Y-144625000D01*
X156510000Y-148625000D02*
X156510000Y-143625000D01*
X156510000Y-143625000D02*
X155290000Y-143625000D01*
X156510000Y-141425000D02*
X156510000Y-143625000D01*
X155290000Y-149845000D02*
X155290000Y-141425000D01*
X155290000Y-148625000D02*
X156510000Y-148625000D01*
X155290000Y-141425000D02*
X156510000Y-141425000D01*
%TO.C,U1*%
X144615000Y-120370001D02*
X144275000Y-120840000D01*
X143935000Y-120370000D01*
X144615000Y-120370001D01*
G36*
X144615000Y-120370001D02*
G01*
X144275000Y-120840000D01*
X143935000Y-120370000D01*
X144615000Y-120370001D01*
G37*
X155110000Y-130110000D02*
X155110000Y-129160000D01*
X155110000Y-119890000D02*
X155110000Y-120840000D01*
X154160000Y-130110000D02*
X155110000Y-130110000D01*
X154160000Y-119890000D02*
X155110000Y-119890000D01*
X145840000Y-130110000D02*
X144890000Y-130110000D01*
X145840000Y-119890000D02*
X144890000Y-119890000D01*
X144890000Y-130110000D02*
X144890000Y-129160000D01*
X144890000Y-119890000D02*
X144890000Y-120840000D01*
%TO.C,TP21*%
X108500000Y-136200000D02*
G75*
G02*
X107100000Y-136200000I-700000J0D01*
G01*
X107100000Y-136200000D02*
G75*
G02*
X108500000Y-136200000I700000J0D01*
G01*
%TO.C,R50*%
X163735000Y-132227064D02*
X163735000Y-131772936D01*
X162265000Y-132227064D02*
X162265000Y-131772936D01*
%TD*%
%LPC*%
D12*
%TO.C,TP11*%
X163500000Y-106000000D03*
%TD*%
%TO.C,TP10*%
X158550000Y-135700000D03*
%TD*%
%TO.C,TP9*%
X130450000Y-123600000D03*
%TD*%
%TO.C,TP8*%
X192850000Y-120400000D03*
%TD*%
%TO.C,TP7*%
X129250000Y-101800000D03*
%TD*%
%TO.C,TP6*%
X108350000Y-129200000D03*
%TD*%
D13*
%TO.C,TP14*%
X156500000Y-130700000D03*
%TD*%
%TO.C,TP1*%
X144900000Y-138300000D03*
%TD*%
D14*
%TO.C,C23*%
X112300000Y-117950000D03*
X112300000Y-119850000D03*
%TD*%
D15*
%TO.C,C28*%
X118300000Y-147050000D03*
X116400000Y-147050000D03*
%TD*%
D13*
%TO.C,TP33*%
X162800000Y-128600000D03*
%TD*%
%TO.C,TP5*%
X141400000Y-121600000D03*
%TD*%
%TO.C,TP4*%
X141400000Y-119400000D03*
%TD*%
D16*
%TO.C,J12*%
X132910000Y-102250000D03*
X135450000Y-102250000D03*
X137990000Y-102250000D03*
D17*
X140530000Y-102250000D03*
%TD*%
D18*
%TO.C,TP3*%
X148900000Y-114400000D03*
%TD*%
%TO.C,TP19*%
X123700000Y-102400000D03*
%TD*%
%TO.C,TP18*%
X110000000Y-102400000D03*
%TD*%
%TO.C,TP17*%
X158800000Y-103300000D03*
%TD*%
%TO.C,TP13*%
X131800000Y-106300000D03*
%TD*%
%TO.C,TP12*%
X135000000Y-106300000D03*
%TD*%
%TO.C,TP2*%
X152100000Y-114400000D03*
%TD*%
D15*
%TO.C,C20*%
X112550000Y-101800000D03*
X114450000Y-101800000D03*
%TD*%
D19*
%TO.C,C19*%
X120800000Y-108300000D03*
X117200000Y-108300000D03*
%TD*%
D20*
%TO.C,C17*%
X110300000Y-105600000D03*
X110300000Y-107500000D03*
%TD*%
D13*
%TO.C,TP15*%
X183000000Y-113500000D03*
%TD*%
D21*
%TO.C,R46*%
X182000000Y-131087500D03*
X182000000Y-132912500D03*
%TD*%
D15*
%TO.C,C29*%
X125650000Y-129000000D03*
X123750000Y-129000000D03*
%TD*%
D22*
%TO.C,H4*%
X197400000Y-145000000D03*
X196697056Y-146697056D03*
X196697056Y-143302944D03*
X195000000Y-147400000D03*
D23*
X195000000Y-145000000D03*
D22*
X195000000Y-142600000D03*
X193302944Y-146697056D03*
X193302944Y-143302944D03*
X192600000Y-145000000D03*
%TD*%
D14*
%TO.C,C32*%
X183800000Y-124750000D03*
X183800000Y-122850000D03*
%TD*%
D13*
%TO.C,TP20*%
X107800000Y-118300000D03*
%TD*%
D24*
%TO.C,C13*%
X168750000Y-102425000D03*
X166850000Y-102425000D03*
%TD*%
D25*
%TO.C,R20*%
X110100000Y-136037500D03*
X110100000Y-137862500D03*
%TD*%
D13*
%TO.C,TP25*%
X110800000Y-147000000D03*
%TD*%
D26*
%TO.C,J1*%
X167850000Y-143035000D03*
D27*
X170350000Y-143035000D03*
%TD*%
D15*
%TO.C,C27*%
X118450000Y-129000000D03*
X116550000Y-129000000D03*
%TD*%
D14*
%TO.C,C5*%
X157900000Y-121349999D03*
X157900000Y-119450001D03*
%TD*%
D13*
%TO.C,TP34*%
X190750000Y-126250000D03*
%TD*%
D28*
%TO.C,R48*%
X186462500Y-136000000D03*
X183537500Y-136000000D03*
%TD*%
D14*
%TO.C,C35*%
X178900000Y-122850000D03*
X178900000Y-124750000D03*
%TD*%
D21*
%TO.C,R31*%
X110100000Y-141450000D03*
X110100000Y-139625000D03*
%TD*%
D29*
%TO.C,U10*%
X164725000Y-126887500D03*
X165375000Y-126887500D03*
X166025000Y-126887500D03*
X166675000Y-126887500D03*
X167325000Y-126887500D03*
X167975000Y-126887500D03*
X168625000Y-126887500D03*
X169275000Y-126887500D03*
X169275000Y-132612500D03*
X168625000Y-132612500D03*
X167975000Y-132612500D03*
X167325000Y-132612500D03*
X166675000Y-132612500D03*
X166025000Y-132612500D03*
X165375000Y-132612500D03*
X164725000Y-132612500D03*
D30*
X167000000Y-129750000D03*
%TD*%
D21*
%TO.C,R45*%
X172500000Y-132912500D03*
X172500000Y-131087500D03*
%TD*%
D31*
%TO.C,R35*%
X120175000Y-129000000D03*
X122000000Y-129000000D03*
%TD*%
D32*
%TO.C,D4*%
X120300000Y-104600000D03*
X120300000Y-101800000D03*
%TD*%
D33*
%TO.C,RV1*%
X138900000Y-138400000D03*
D34*
X140050000Y-134400000D03*
D33*
X141200000Y-138400000D03*
%TD*%
D25*
%TO.C,R40*%
X124000000Y-139637500D03*
X124000000Y-141462500D03*
%TD*%
D14*
%TO.C,C15*%
X158500000Y-115175000D03*
X158500000Y-113275000D03*
%TD*%
D25*
%TO.C,R41*%
X124100000Y-127012500D03*
X124100000Y-125187500D03*
%TD*%
D22*
%TO.C,H1*%
X107400000Y-105000000D03*
X106697056Y-106697056D03*
X106697056Y-103302944D03*
X105000000Y-107400000D03*
D23*
X105000000Y-105000000D03*
D22*
X105000000Y-102600000D03*
X103302944Y-106697056D03*
X103302944Y-103302944D03*
X102600000Y-105000000D03*
%TD*%
D13*
%TO.C,TP23*%
X127600000Y-147000000D03*
%TD*%
D31*
%TO.C,R1*%
X154812500Y-110400000D03*
X152987500Y-110400000D03*
%TD*%
D21*
%TO.C,R49*%
X191100000Y-132912500D03*
X191100000Y-131087500D03*
%TD*%
D14*
%TO.C,C37*%
X192900000Y-122850000D03*
X192900000Y-124750000D03*
%TD*%
D21*
%TO.C,R37*%
X126100000Y-141462500D03*
X126100000Y-139637500D03*
%TD*%
D15*
%TO.C,C30*%
X123750000Y-147050000D03*
X125650000Y-147050000D03*
%TD*%
%TO.C,C4*%
X153600000Y-132900000D03*
X155499998Y-132900000D03*
%TD*%
D16*
%TO.C,J13*%
X142500000Y-148080000D03*
X142500000Y-145540000D03*
D17*
X142500000Y-143000000D03*
%TD*%
D15*
%TO.C,C3*%
X144950000Y-132900001D03*
X146850000Y-132899999D03*
%TD*%
D35*
%TO.C,SW1*%
X139575000Y-130000000D03*
X131825000Y-130000000D03*
%TD*%
D31*
%TO.C,R36*%
X121912500Y-147050000D03*
X120087500Y-147050000D03*
%TD*%
D24*
%TO.C,C2*%
X146400000Y-117100000D03*
X144500002Y-117100000D03*
%TD*%
D20*
%TO.C,C18*%
X126300000Y-101350000D03*
X126300000Y-103250000D03*
%TD*%
D36*
%TO.C,D3*%
X181825000Y-110452500D03*
X178525000Y-110452500D03*
%TD*%
D20*
%TO.C,C6*%
X141800000Y-126500000D03*
X141800000Y-128400000D03*
%TD*%
D21*
%TO.C,R11*%
X176400000Y-113687500D03*
X176400000Y-115512500D03*
%TD*%
D28*
%TO.C,R51*%
X162075000Y-136000000D03*
X165000000Y-136000000D03*
%TD*%
D14*
%TO.C,C42*%
X169300000Y-122850000D03*
X169300000Y-124750000D03*
%TD*%
D26*
%TO.C,J7*%
X149050000Y-143067500D03*
D27*
X151550000Y-143067500D03*
%TD*%
D37*
%TO.C,C10*%
X179200000Y-103925000D03*
X179200000Y-107525000D03*
%TD*%
D20*
%TO.C,C12*%
X173600000Y-104725000D03*
X173600000Y-106625000D03*
%TD*%
D21*
%TO.C,R38*%
X126200000Y-121587500D03*
X126200000Y-123412500D03*
%TD*%
D36*
%TO.C,D6*%
X118750000Y-133750000D03*
X122050000Y-133750000D03*
%TD*%
D25*
%TO.C,R15*%
X117300000Y-104012500D03*
X117300000Y-102187500D03*
%TD*%
D38*
%TO.C,U4*%
X114500000Y-108562500D03*
X113850000Y-108562500D03*
X113200000Y-108562500D03*
X112550000Y-108562500D03*
X112550000Y-104337500D03*
X113200000Y-104337500D03*
X113850000Y-104337500D03*
X114500000Y-104337500D03*
%TD*%
D39*
%TO.C,U5*%
X114700000Y-118650000D03*
X114700000Y-119920000D03*
X114700000Y-121190000D03*
X114700000Y-122460000D03*
X114700000Y-123730000D03*
X114700000Y-125000000D03*
X114700000Y-126270000D03*
X121625000Y-126270000D03*
X121625000Y-125000000D03*
X121625000Y-123730000D03*
X121625000Y-122460000D03*
X121625000Y-121190000D03*
X121625000Y-119920000D03*
X121625000Y-118650000D03*
%TD*%
D16*
%TO.C,J11*%
X104600000Y-135240000D03*
X104600000Y-132700000D03*
D17*
X104600000Y-130160000D03*
%TD*%
D25*
%TO.C,R16*%
X160900000Y-107412500D03*
X160900000Y-105587500D03*
%TD*%
D15*
%TO.C,C1*%
X134050000Y-126800000D03*
X135950000Y-126800000D03*
%TD*%
D40*
%TO.C,R9*%
X144537501Y-115000000D03*
X146362501Y-115000000D03*
%TD*%
D31*
%TO.C,R6*%
X135912500Y-120800000D03*
X134087500Y-120800000D03*
%TD*%
D40*
%TO.C,R22*%
X107887500Y-131600000D03*
X109712500Y-131600000D03*
%TD*%
D14*
%TO.C,C31*%
X174300000Y-122850000D03*
X174300000Y-124750000D03*
%TD*%
D29*
%TO.C,U8*%
X183725000Y-126887500D03*
X184375000Y-126887500D03*
X185025000Y-126887500D03*
X185675000Y-126887500D03*
X186325000Y-126887500D03*
X186975000Y-126887500D03*
X187625000Y-126887500D03*
X188275000Y-126887500D03*
X188275000Y-132612500D03*
X187625000Y-132612500D03*
X186975000Y-132612500D03*
X186325000Y-132612500D03*
X185675000Y-132612500D03*
X185025000Y-132612500D03*
X184375000Y-132612500D03*
X183725000Y-132612500D03*
D30*
X186000000Y-129750000D03*
%TD*%
D14*
%TO.C,C25*%
X112200000Y-136000000D03*
X112200000Y-137900000D03*
%TD*%
D33*
%TO.C,RV3*%
X124800000Y-119300000D03*
D34*
X125950000Y-115300000D03*
D33*
X127100000Y-119300000D03*
%TD*%
D15*
%TO.C,C22*%
X116900000Y-133750000D03*
X115000000Y-133750000D03*
%TD*%
D30*
%TO.C,U9*%
X195080000Y-129750000D03*
D29*
X192805000Y-132612500D03*
X193455000Y-132612500D03*
X194105000Y-132612500D03*
X194755000Y-132612500D03*
X195405000Y-132612500D03*
X196055000Y-132612500D03*
X196705000Y-132612500D03*
X197355000Y-132612500D03*
X197355000Y-126887500D03*
X196705000Y-126887500D03*
X196055000Y-126887500D03*
X195405000Y-126887500D03*
X194755000Y-126887500D03*
X194105000Y-126887500D03*
X193455000Y-126887500D03*
X192805000Y-126887500D03*
%TD*%
D14*
%TO.C,C34*%
X186100000Y-124750000D03*
X186100000Y-122850000D03*
%TD*%
D40*
%TO.C,R2*%
X145187500Y-110400000D03*
X147012500Y-110400000D03*
%TD*%
D20*
%TO.C,C8*%
X138400000Y-120850001D03*
X138400000Y-122749999D03*
%TD*%
D21*
%TO.C,R28*%
X110200000Y-123412500D03*
X110200000Y-121587500D03*
%TD*%
D25*
%TO.C,R34*%
X110100000Y-143237500D03*
X110100000Y-145062500D03*
%TD*%
D33*
%TO.C,RV2*%
X132350000Y-138400000D03*
D34*
X133500000Y-134400000D03*
D33*
X134650000Y-138400000D03*
%TD*%
D14*
%TO.C,C24*%
X112300000Y-123450000D03*
X112300000Y-121550000D03*
%TD*%
D33*
%TO.C,RV4*%
X126950000Y-137350000D03*
D34*
X125800000Y-133350000D03*
D33*
X124650000Y-137350000D03*
%TD*%
D16*
%TO.C,J4*%
X132340000Y-148080000D03*
X132340000Y-145540000D03*
D17*
X132340000Y-143000000D03*
%TD*%
D21*
%TO.C,R10*%
X176400000Y-110087500D03*
X176400000Y-111912500D03*
%TD*%
D28*
%TO.C,R52*%
X195662500Y-136000000D03*
X192737500Y-136000000D03*
%TD*%
D14*
%TO.C,C26*%
X112200000Y-139600000D03*
X112200000Y-141500000D03*
%TD*%
D31*
%TO.C,R26*%
X112787500Y-147050000D03*
X114612500Y-147050000D03*
%TD*%
D39*
%TO.C,U6*%
X114637500Y-136700000D03*
X114637500Y-137970000D03*
X114637500Y-139240000D03*
X114637500Y-140510000D03*
X114637500Y-141780000D03*
X114637500Y-143050000D03*
X114637500Y-144320000D03*
X121562500Y-144320000D03*
X121562500Y-143050000D03*
X121562500Y-141780000D03*
X121562500Y-140510000D03*
X121562500Y-139240000D03*
X121562500Y-137970000D03*
X121562500Y-136700000D03*
%TD*%
D26*
%TO.C,J3*%
X188250000Y-107232500D03*
D41*
X185750000Y-107232500D03*
%TD*%
D13*
%TO.C,TP31*%
X181500000Y-124000000D03*
%TD*%
%TO.C,TP24*%
X110900000Y-129000000D03*
%TD*%
D25*
%TO.C,R39*%
X124100000Y-121587500D03*
X124100000Y-123412500D03*
%TD*%
D13*
%TO.C,TP35*%
X190750000Y-124000000D03*
%TD*%
D40*
%TO.C,R3*%
X149087500Y-110400000D03*
X150912500Y-110400000D03*
%TD*%
D20*
%TO.C,C16*%
X158500000Y-109625000D03*
X158500000Y-111525000D03*
%TD*%
D14*
%TO.C,C9*%
X138400000Y-126349999D03*
X138400000Y-124450001D03*
%TD*%
D20*
%TO.C,C11*%
X175700000Y-104725000D03*
X175700000Y-106625000D03*
%TD*%
D13*
%TO.C,TP30*%
X172000000Y-124000000D03*
%TD*%
D42*
%TO.C,U3*%
X128700000Y-105650000D03*
X126400000Y-105650000D03*
D43*
X126400000Y-111950000D03*
D42*
X124100000Y-105650000D03*
%TD*%
D40*
%TO.C,R30*%
X111400000Y-133750000D03*
X113225000Y-133750000D03*
%TD*%
D44*
%TO.C,L1*%
X170700000Y-115025000D03*
X170700000Y-109575000D03*
%TD*%
D45*
%TO.C,C14*%
X163300000Y-109500000D03*
X163300000Y-115100000D03*
%TD*%
D25*
%TO.C,R5*%
X135000000Y-108587500D03*
X135000000Y-110412500D03*
%TD*%
D13*
%TO.C,TP32*%
X190750000Y-128450000D03*
%TD*%
D25*
%TO.C,R29*%
X112300000Y-125175000D03*
X112300000Y-127000000D03*
%TD*%
D31*
%TO.C,R12*%
X172412500Y-102400000D03*
X170587500Y-102400000D03*
%TD*%
D40*
%TO.C,R27*%
X113225000Y-115700000D03*
X111400000Y-115700000D03*
%TD*%
D25*
%TO.C,R33*%
X110200000Y-125162500D03*
X110200000Y-126987500D03*
%TD*%
D46*
%TO.C,R53*%
X170462500Y-136000000D03*
X167537500Y-136000000D03*
%TD*%
D28*
%TO.C,R47*%
X176962500Y-136000000D03*
X174037500Y-136000000D03*
%TD*%
D22*
%TO.C,H3*%
X107400000Y-145000000D03*
X106697056Y-146697056D03*
X106697056Y-143302944D03*
X105000000Y-147400000D03*
D23*
X105000000Y-145000000D03*
D22*
X105000000Y-142600000D03*
X103302944Y-146697056D03*
X103302944Y-143302944D03*
X102600000Y-145000000D03*
%TD*%
D16*
%TO.C,J9*%
X137420000Y-148080000D03*
X137420000Y-145540000D03*
D17*
X137420000Y-143000000D03*
%TD*%
D40*
%TO.C,R23*%
X109612500Y-115700000D03*
X107787500Y-115700000D03*
%TD*%
D47*
%TO.C,J5*%
X145680000Y-102925000D03*
D48*
X145680000Y-107125000D03*
D47*
X154320000Y-102925000D03*
D48*
X154320000Y-107125000D03*
D49*
X153200000Y-107725000D03*
X152400000Y-107725000D03*
D50*
X151750000Y-107725000D03*
X150750000Y-107725000D03*
X149250000Y-107725000D03*
X148250000Y-107725000D03*
D49*
X147600000Y-107725000D03*
X146800000Y-107725000D03*
X146800000Y-107725000D03*
X147600000Y-107725000D03*
D50*
X148750000Y-107725000D03*
X149750000Y-107725000D03*
X150250000Y-107725000D03*
X151250000Y-107725000D03*
D49*
X152400000Y-107725000D03*
X153200000Y-107725000D03*
D51*
X147110000Y-106605000D03*
X152890000Y-106605000D03*
%TD*%
D13*
%TO.C,TP27*%
X181500000Y-128500000D03*
%TD*%
D32*
%TO.C,D1*%
X142292500Y-111395000D03*
X142292500Y-108595000D03*
%TD*%
D25*
%TO.C,R4*%
X131800000Y-108587500D03*
X131800000Y-110412500D03*
%TD*%
D15*
%TO.C,C21*%
X116950000Y-115700000D03*
X115050000Y-115700000D03*
%TD*%
D40*
%TO.C,R19*%
X113225000Y-131600000D03*
X111400000Y-131600000D03*
%TD*%
D35*
%TO.C,SW2*%
X131850000Y-117687500D03*
X139600000Y-117687500D03*
%TD*%
D52*
%TO.C,Q1*%
X179600000Y-114950000D03*
X178650000Y-113075000D03*
X180550000Y-113075000D03*
%TD*%
D30*
%TO.C,U7*%
X176500000Y-129750000D03*
D29*
X174225000Y-132612500D03*
X174875000Y-132612500D03*
X175525000Y-132612500D03*
X176175000Y-132612500D03*
X176825000Y-132612500D03*
X177475000Y-132612500D03*
X178125000Y-132612500D03*
X178775000Y-132612500D03*
X178775000Y-126887500D03*
X178125000Y-126887500D03*
X177475000Y-126887500D03*
X176825000Y-126887500D03*
X176175000Y-126887500D03*
X175525000Y-126887500D03*
X174875000Y-126887500D03*
X174225000Y-126887500D03*
%TD*%
D25*
%TO.C,R42*%
X124000000Y-145062500D03*
X124000000Y-143237500D03*
%TD*%
%TO.C,R32*%
X112200000Y-145062500D03*
X112200000Y-143237500D03*
%TD*%
D40*
%TO.C,R17*%
X113225000Y-113600000D03*
X111400000Y-113600000D03*
%TD*%
D26*
%TO.C,J2*%
X176700000Y-143035000D03*
D27*
X179200000Y-143035000D03*
%TD*%
D13*
%TO.C,TP22*%
X127900000Y-129000000D03*
%TD*%
D16*
%TO.C,J8*%
X104600000Y-118800000D03*
X104600000Y-116260000D03*
D17*
X104600000Y-113720000D03*
%TD*%
D26*
%TO.C,J6*%
X185550000Y-143035000D03*
D27*
X188050000Y-143035000D03*
%TD*%
D40*
%TO.C,R7*%
X141335000Y-106100000D03*
X143160000Y-106100000D03*
%TD*%
D22*
%TO.C,H2*%
X197400000Y-105000000D03*
X196697056Y-106697056D03*
X196697056Y-103302944D03*
X195000000Y-107400000D03*
D23*
X195000000Y-105000000D03*
D22*
X195000000Y-102600000D03*
X193302944Y-106697056D03*
X193302944Y-103302944D03*
X192600000Y-105000000D03*
%TD*%
D25*
%TO.C,R44*%
X126100000Y-145075000D03*
X126100000Y-143250000D03*
%TD*%
D13*
%TO.C,TP26*%
X172000000Y-128500000D03*
%TD*%
D14*
%TO.C,C33*%
X176600000Y-122850000D03*
X176600000Y-124750000D03*
%TD*%
D40*
%TO.C,R21*%
X109612500Y-113600000D03*
X107787500Y-113600000D03*
%TD*%
D31*
%TO.C,R24*%
X112975000Y-129000000D03*
X114800000Y-129000000D03*
%TD*%
D53*
%TO.C,Y1*%
X136200000Y-124400000D03*
X134000000Y-124400000D03*
X134000000Y-122700000D03*
X136200000Y-122700000D03*
%TD*%
D25*
%TO.C,R43*%
X126200000Y-127012500D03*
X126200000Y-125187500D03*
%TD*%
D14*
%TO.C,C36*%
X188300000Y-124750000D03*
X188300000Y-122850000D03*
%TD*%
D13*
%TO.C,TP29*%
X181500000Y-126250000D03*
%TD*%
D32*
%TO.C,D2*%
X138542500Y-111395000D03*
X138542500Y-108595000D03*
%TD*%
D21*
%TO.C,R13*%
X158800000Y-105587500D03*
X158800000Y-107412500D03*
%TD*%
D14*
%TO.C,C40*%
X167050000Y-124750000D03*
X167050000Y-122850000D03*
%TD*%
D13*
%TO.C,TP28*%
X172000000Y-126250000D03*
%TD*%
D36*
%TO.C,D5*%
X122150000Y-115700000D03*
X118850000Y-115700000D03*
%TD*%
D14*
%TO.C,C41*%
X197300000Y-122850000D03*
X197300000Y-124750000D03*
%TD*%
D25*
%TO.C,R18*%
X110200000Y-117975000D03*
X110200000Y-119800000D03*
%TD*%
D14*
%TO.C,C39*%
X195100000Y-122850000D03*
X195100000Y-124750000D03*
%TD*%
D40*
%TO.C,R25*%
X109712500Y-133750000D03*
X107887500Y-133750000D03*
%TD*%
D54*
%TO.C,U2*%
X169749999Y-104350001D03*
X170700000Y-104350001D03*
X171649998Y-104350001D03*
X171649998Y-106900001D03*
X170700000Y-106900001D03*
X169749999Y-106900001D03*
%TD*%
D31*
%TO.C,R8*%
X139400000Y-106100000D03*
X137575000Y-106100000D03*
%TD*%
D40*
%TO.C,R14*%
X183487500Y-110500000D03*
X185312500Y-110500000D03*
%TD*%
D13*
%TO.C,TP16*%
X181700000Y-108300000D03*
%TD*%
D14*
%TO.C,C38*%
X164800000Y-124750000D03*
X164800000Y-122850000D03*
%TD*%
D15*
%TO.C,C7*%
X144950000Y-135100000D03*
X146850000Y-135100000D03*
%TD*%
D26*
%TO.C,J10*%
X157900000Y-143035000D03*
D27*
X160400000Y-143035000D03*
%TD*%
D55*
%TO.C,U1*%
X146250001Y-119325000D03*
X146750000Y-119325000D03*
X147250000Y-119325000D03*
X147750000Y-119325000D03*
X148250000Y-119325000D03*
X148750001Y-119325000D03*
X149250000Y-119325000D03*
X149750000Y-119325000D03*
X150250000Y-119325000D03*
X150750000Y-119325000D03*
X151249999Y-119325000D03*
X151750000Y-119325000D03*
X152250000Y-119325000D03*
X152750000Y-119325000D03*
X153250000Y-119325000D03*
X153749999Y-119325000D03*
D56*
X155675000Y-121250001D03*
X155675000Y-121750000D03*
X155675000Y-122250000D03*
X155675000Y-122750000D03*
X155675000Y-123250000D03*
X155675000Y-123750001D03*
X155675000Y-124250000D03*
X155675000Y-124750000D03*
X155675000Y-125250000D03*
X155675000Y-125750000D03*
X155675000Y-126249999D03*
X155675000Y-126750000D03*
X155675000Y-127250000D03*
X155675000Y-127750000D03*
X155675000Y-128250000D03*
X155675000Y-128749999D03*
D55*
X153749999Y-130675000D03*
X153250000Y-130675000D03*
X152750000Y-130675000D03*
X152250000Y-130675000D03*
X151750000Y-130675000D03*
X151249999Y-130675000D03*
X150750000Y-130675000D03*
X150250000Y-130675000D03*
X149750000Y-130675000D03*
X149250000Y-130675000D03*
X148750001Y-130675000D03*
X148250000Y-130675000D03*
X147750000Y-130675000D03*
X147250000Y-130675000D03*
X146750000Y-130675000D03*
X146250001Y-130675000D03*
D56*
X144325000Y-128749999D03*
X144325000Y-128250000D03*
X144325000Y-127750000D03*
X144325000Y-127250000D03*
X144325000Y-126750000D03*
X144325000Y-126249999D03*
X144325000Y-125750000D03*
X144325000Y-125250000D03*
X144325000Y-124750000D03*
X144325000Y-124250000D03*
X144325000Y-123750001D03*
X144325000Y-123250000D03*
X144325000Y-122750000D03*
X144325000Y-122250000D03*
X144325000Y-121750000D03*
X144325000Y-121250001D03*
%TD*%
D13*
%TO.C,TP21*%
X107800000Y-136200000D03*
%TD*%
D21*
%TO.C,R50*%
X163000000Y-131087500D03*
X163000000Y-132912500D03*
%TD*%
%LPD*%
M02*
