%TF.GenerationSoftware,KiCad,Pcbnew,8.0.1*%
%TF.CreationDate,2024-05-16T21:36:52+02:00*%
%TF.ProjectId,OpenHand_v2,4f70656e-4861-46e6-945f-76322e6b6963,rev?*%
%TF.SameCoordinates,Original*%
%TF.FileFunction,Legend,Bot*%
%TF.FilePolarity,Positive*%
%FSLAX46Y46*%
G04 Gerber Fmt 4.6, Leading zero omitted, Abs format (unit mm)*
G04 Created by KiCad (PCBNEW 8.0.1) date 2024-05-16 21:36:52*
%MOMM*%
%LPD*%
G01*
G04 APERTURE LIST*
G04 Aperture macros list*
%AMRoundRect*
0 Rectangle with rounded corners*
0 $1 Rounding radius*
0 $2 $3 $4 $5 $6 $7 $8 $9 X,Y pos of 4 corners*
0 Add a 4 corners polygon primitive as box body*
4,1,4,$2,$3,$4,$5,$6,$7,$8,$9,$2,$3,0*
0 Add four circle primitives for the rounded corners*
1,1,$1+$1,$2,$3*
1,1,$1+$1,$4,$5*
1,1,$1+$1,$6,$7*
1,1,$1+$1,$8,$9*
0 Add four rect primitives between the rounded corners*
20,1,$1+$1,$2,$3,$4,$5,0*
20,1,$1+$1,$4,$5,$6,$7,0*
20,1,$1+$1,$6,$7,$8,$9,0*
20,1,$1+$1,$8,$9,$2,$3,0*%
G04 Aperture macros list end*
%ADD10C,0.150000*%
%ADD11C,0.220000*%
%ADD12C,0.800000*%
%ADD13C,6.400000*%
%ADD14RoundRect,0.250000X0.600000X0.750000X-0.600000X0.750000X-0.600000X-0.750000X0.600000X-0.750000X0*%
%ADD15O,1.700000X2.000000*%
%ADD16R,1.700000X1.700000*%
%ADD17O,1.700000X1.700000*%
%ADD18RoundRect,0.250000X-0.600000X-0.750000X0.600000X-0.750000X0.600000X0.750000X-0.600000X0.750000X0*%
%ADD19C,0.650000*%
%ADD20O,1.000000X2.100000*%
%ADD21O,1.000000X1.800000*%
G04 APERTURE END LIST*
D10*
X154519048Y-104354819D02*
X154519048Y-105069104D01*
X154519048Y-105069104D02*
X154566667Y-105211961D01*
X154566667Y-105211961D02*
X154661905Y-105307200D01*
X154661905Y-105307200D02*
X154804762Y-105354819D01*
X154804762Y-105354819D02*
X154900000Y-105354819D01*
X153566667Y-105354819D02*
X154042857Y-105354819D01*
X154042857Y-105354819D02*
X154042857Y-104354819D01*
X152661905Y-105259580D02*
X152709524Y-105307200D01*
X152709524Y-105307200D02*
X152852381Y-105354819D01*
X152852381Y-105354819D02*
X152947619Y-105354819D01*
X152947619Y-105354819D02*
X153090476Y-105307200D01*
X153090476Y-105307200D02*
X153185714Y-105211961D01*
X153185714Y-105211961D02*
X153233333Y-105116723D01*
X153233333Y-105116723D02*
X153280952Y-104926247D01*
X153280952Y-104926247D02*
X153280952Y-104783390D01*
X153280952Y-104783390D02*
X153233333Y-104592914D01*
X153233333Y-104592914D02*
X153185714Y-104497676D01*
X153185714Y-104497676D02*
X153090476Y-104402438D01*
X153090476Y-104402438D02*
X152947619Y-104354819D01*
X152947619Y-104354819D02*
X152852381Y-104354819D01*
X152852381Y-104354819D02*
X152709524Y-104402438D01*
X152709524Y-104402438D02*
X152661905Y-104450057D01*
X151947619Y-104354819D02*
X151947619Y-105069104D01*
X151947619Y-105069104D02*
X151995238Y-105211961D01*
X151995238Y-105211961D02*
X152090476Y-105307200D01*
X152090476Y-105307200D02*
X152233333Y-105354819D01*
X152233333Y-105354819D02*
X152328571Y-105354819D01*
X150995238Y-105354819D02*
X151471428Y-105354819D01*
X151471428Y-105354819D02*
X151471428Y-104354819D01*
X150090476Y-105259580D02*
X150138095Y-105307200D01*
X150138095Y-105307200D02*
X150280952Y-105354819D01*
X150280952Y-105354819D02*
X150376190Y-105354819D01*
X150376190Y-105354819D02*
X150519047Y-105307200D01*
X150519047Y-105307200D02*
X150614285Y-105211961D01*
X150614285Y-105211961D02*
X150661904Y-105116723D01*
X150661904Y-105116723D02*
X150709523Y-104926247D01*
X150709523Y-104926247D02*
X150709523Y-104783390D01*
X150709523Y-104783390D02*
X150661904Y-104592914D01*
X150661904Y-104592914D02*
X150614285Y-104497676D01*
X150614285Y-104497676D02*
X150519047Y-104402438D01*
X150519047Y-104402438D02*
X150376190Y-104354819D01*
X150376190Y-104354819D02*
X150280952Y-104354819D01*
X150280952Y-104354819D02*
X150138095Y-104402438D01*
X150138095Y-104402438D02*
X150090476Y-104450057D01*
X149376190Y-104354819D02*
X149376190Y-105069104D01*
X149376190Y-105069104D02*
X149423809Y-105211961D01*
X149423809Y-105211961D02*
X149519047Y-105307200D01*
X149519047Y-105307200D02*
X149661904Y-105354819D01*
X149661904Y-105354819D02*
X149757142Y-105354819D01*
X148423809Y-105354819D02*
X148899999Y-105354819D01*
X148899999Y-105354819D02*
X148899999Y-104354819D01*
X147519047Y-105259580D02*
X147566666Y-105307200D01*
X147566666Y-105307200D02*
X147709523Y-105354819D01*
X147709523Y-105354819D02*
X147804761Y-105354819D01*
X147804761Y-105354819D02*
X147947618Y-105307200D01*
X147947618Y-105307200D02*
X148042856Y-105211961D01*
X148042856Y-105211961D02*
X148090475Y-105116723D01*
X148090475Y-105116723D02*
X148138094Y-104926247D01*
X148138094Y-104926247D02*
X148138094Y-104783390D01*
X148138094Y-104783390D02*
X148090475Y-104592914D01*
X148090475Y-104592914D02*
X148042856Y-104497676D01*
X148042856Y-104497676D02*
X147947618Y-104402438D01*
X147947618Y-104402438D02*
X147804761Y-104354819D01*
X147804761Y-104354819D02*
X147709523Y-104354819D01*
X147709523Y-104354819D02*
X147566666Y-104402438D01*
X147566666Y-104402438D02*
X147519047Y-104450057D01*
X146804761Y-104354819D02*
X146804761Y-105069104D01*
X146804761Y-105069104D02*
X146852380Y-105211961D01*
X146852380Y-105211961D02*
X146947618Y-105307200D01*
X146947618Y-105307200D02*
X147090475Y-105354819D01*
X147090475Y-105354819D02*
X147185713Y-105354819D01*
X145852380Y-105354819D02*
X146328570Y-105354819D01*
X146328570Y-105354819D02*
X146328570Y-104354819D01*
X144947618Y-105259580D02*
X144995237Y-105307200D01*
X144995237Y-105307200D02*
X145138094Y-105354819D01*
X145138094Y-105354819D02*
X145233332Y-105354819D01*
X145233332Y-105354819D02*
X145376189Y-105307200D01*
X145376189Y-105307200D02*
X145471427Y-105211961D01*
X145471427Y-105211961D02*
X145519046Y-105116723D01*
X145519046Y-105116723D02*
X145566665Y-104926247D01*
X145566665Y-104926247D02*
X145566665Y-104783390D01*
X145566665Y-104783390D02*
X145519046Y-104592914D01*
X145519046Y-104592914D02*
X145471427Y-104497676D01*
X145471427Y-104497676D02*
X145376189Y-104402438D01*
X145376189Y-104402438D02*
X145233332Y-104354819D01*
X145233332Y-104354819D02*
X145138094Y-104354819D01*
X145138094Y-104354819D02*
X144995237Y-104402438D01*
X144995237Y-104402438D02*
X144947618Y-104450057D01*
D11*
X186399997Y-146643702D02*
X186399997Y-147615131D01*
X186399997Y-147615131D02*
X186457139Y-147729417D01*
X186457139Y-147729417D02*
X186514282Y-147786560D01*
X186514282Y-147786560D02*
X186628568Y-147843702D01*
X186628568Y-147843702D02*
X186799997Y-147843702D01*
X186799997Y-147843702D02*
X186914282Y-147786560D01*
X186399997Y-147386560D02*
X186514282Y-147443702D01*
X186514282Y-147443702D02*
X186742854Y-147443702D01*
X186742854Y-147443702D02*
X186857139Y-147386560D01*
X186857139Y-147386560D02*
X186914282Y-147329417D01*
X186914282Y-147329417D02*
X186971425Y-147215131D01*
X186971425Y-147215131D02*
X186971425Y-146872274D01*
X186971425Y-146872274D02*
X186914282Y-146757988D01*
X186914282Y-146757988D02*
X186857139Y-146700845D01*
X186857139Y-146700845D02*
X186742854Y-146643702D01*
X186742854Y-146643702D02*
X186514282Y-146643702D01*
X186514282Y-146643702D02*
X186399997Y-146700845D01*
X185828568Y-147443702D02*
X185828568Y-146643702D01*
X185828568Y-146243702D02*
X185885711Y-146300845D01*
X185885711Y-146300845D02*
X185828568Y-146357988D01*
X185828568Y-146357988D02*
X185771425Y-146300845D01*
X185771425Y-146300845D02*
X185828568Y-146243702D01*
X185828568Y-146243702D02*
X185828568Y-146357988D01*
X185428568Y-146643702D02*
X184971425Y-146643702D01*
X185257139Y-146243702D02*
X185257139Y-147272274D01*
X185257139Y-147272274D02*
X185199996Y-147386560D01*
X185199996Y-147386560D02*
X185085711Y-147443702D01*
X185085711Y-147443702D02*
X184971425Y-147443702D01*
X184571425Y-147443702D02*
X184571425Y-146243702D01*
X184057140Y-147443702D02*
X184057140Y-146815131D01*
X184057140Y-146815131D02*
X184114282Y-146700845D01*
X184114282Y-146700845D02*
X184228568Y-146643702D01*
X184228568Y-146643702D02*
X184399997Y-146643702D01*
X184399997Y-146643702D02*
X184514282Y-146700845D01*
X184514282Y-146700845D02*
X184571425Y-146757988D01*
X182971426Y-146643702D02*
X182971426Y-147443702D01*
X183485711Y-146643702D02*
X183485711Y-147272274D01*
X183485711Y-147272274D02*
X183428568Y-147386560D01*
X183428568Y-147386560D02*
X183314283Y-147443702D01*
X183314283Y-147443702D02*
X183142854Y-147443702D01*
X183142854Y-147443702D02*
X183028568Y-147386560D01*
X183028568Y-147386560D02*
X182971426Y-147329417D01*
X182399997Y-147443702D02*
X182399997Y-146243702D01*
X182399997Y-146700845D02*
X182285712Y-146643702D01*
X182285712Y-146643702D02*
X182057140Y-146643702D01*
X182057140Y-146643702D02*
X181942854Y-146700845D01*
X181942854Y-146700845D02*
X181885712Y-146757988D01*
X181885712Y-146757988D02*
X181828569Y-146872274D01*
X181828569Y-146872274D02*
X181828569Y-147215131D01*
X181828569Y-147215131D02*
X181885712Y-147329417D01*
X181885712Y-147329417D02*
X181942854Y-147386560D01*
X181942854Y-147386560D02*
X182057140Y-147443702D01*
X182057140Y-147443702D02*
X182285712Y-147443702D01*
X182285712Y-147443702D02*
X182399997Y-147386560D01*
X181314283Y-147329417D02*
X181257140Y-147386560D01*
X181257140Y-147386560D02*
X181314283Y-147443702D01*
X181314283Y-147443702D02*
X181371426Y-147386560D01*
X181371426Y-147386560D02*
X181314283Y-147329417D01*
X181314283Y-147329417D02*
X181314283Y-147443702D01*
X180228569Y-147386560D02*
X180342854Y-147443702D01*
X180342854Y-147443702D02*
X180571426Y-147443702D01*
X180571426Y-147443702D02*
X180685711Y-147386560D01*
X180685711Y-147386560D02*
X180742854Y-147329417D01*
X180742854Y-147329417D02*
X180799997Y-147215131D01*
X180799997Y-147215131D02*
X180799997Y-146872274D01*
X180799997Y-146872274D02*
X180742854Y-146757988D01*
X180742854Y-146757988D02*
X180685711Y-146700845D01*
X180685711Y-146700845D02*
X180571426Y-146643702D01*
X180571426Y-146643702D02*
X180342854Y-146643702D01*
X180342854Y-146643702D02*
X180228569Y-146700845D01*
X179542855Y-147443702D02*
X179657140Y-147386560D01*
X179657140Y-147386560D02*
X179714283Y-147329417D01*
X179714283Y-147329417D02*
X179771426Y-147215131D01*
X179771426Y-147215131D02*
X179771426Y-146872274D01*
X179771426Y-146872274D02*
X179714283Y-146757988D01*
X179714283Y-146757988D02*
X179657140Y-146700845D01*
X179657140Y-146700845D02*
X179542855Y-146643702D01*
X179542855Y-146643702D02*
X179371426Y-146643702D01*
X179371426Y-146643702D02*
X179257140Y-146700845D01*
X179257140Y-146700845D02*
X179199998Y-146757988D01*
X179199998Y-146757988D02*
X179142855Y-146872274D01*
X179142855Y-146872274D02*
X179142855Y-147215131D01*
X179142855Y-147215131D02*
X179199998Y-147329417D01*
X179199998Y-147329417D02*
X179257140Y-147386560D01*
X179257140Y-147386560D02*
X179371426Y-147443702D01*
X179371426Y-147443702D02*
X179542855Y-147443702D01*
X178628569Y-147443702D02*
X178628569Y-146643702D01*
X178628569Y-146757988D02*
X178571426Y-146700845D01*
X178571426Y-146700845D02*
X178457141Y-146643702D01*
X178457141Y-146643702D02*
X178285712Y-146643702D01*
X178285712Y-146643702D02*
X178171426Y-146700845D01*
X178171426Y-146700845D02*
X178114284Y-146815131D01*
X178114284Y-146815131D02*
X178114284Y-147443702D01*
X178114284Y-146815131D02*
X178057141Y-146700845D01*
X178057141Y-146700845D02*
X177942855Y-146643702D01*
X177942855Y-146643702D02*
X177771426Y-146643702D01*
X177771426Y-146643702D02*
X177657141Y-146700845D01*
X177657141Y-146700845D02*
X177599998Y-146815131D01*
X177599998Y-146815131D02*
X177599998Y-147443702D01*
X176171426Y-146186560D02*
X177199998Y-147729417D01*
X175828569Y-147100845D02*
X175257141Y-147100845D01*
X175942855Y-147443702D02*
X175542855Y-146243702D01*
X175542855Y-146243702D02*
X175142855Y-147443702D01*
X174571427Y-147443702D02*
X174685712Y-147386560D01*
X174685712Y-147386560D02*
X174742855Y-147272274D01*
X174742855Y-147272274D02*
X174742855Y-146243702D01*
X173657141Y-147386560D02*
X173771427Y-147443702D01*
X173771427Y-147443702D02*
X173999999Y-147443702D01*
X173999999Y-147443702D02*
X174114284Y-147386560D01*
X174114284Y-147386560D02*
X174171427Y-147272274D01*
X174171427Y-147272274D02*
X174171427Y-146815131D01*
X174171427Y-146815131D02*
X174114284Y-146700845D01*
X174114284Y-146700845D02*
X173999999Y-146643702D01*
X173999999Y-146643702D02*
X173771427Y-146643702D01*
X173771427Y-146643702D02*
X173657141Y-146700845D01*
X173657141Y-146700845D02*
X173599999Y-146815131D01*
X173599999Y-146815131D02*
X173599999Y-146929417D01*
X173599999Y-146929417D02*
X174171427Y-147043702D01*
X173085713Y-147443702D02*
X173085713Y-146243702D01*
X172971428Y-146986560D02*
X172628570Y-147443702D01*
X172628570Y-146643702D02*
X173085713Y-147100845D01*
X172171427Y-147386560D02*
X172057141Y-147443702D01*
X172057141Y-147443702D02*
X171828570Y-147443702D01*
X171828570Y-147443702D02*
X171714284Y-147386560D01*
X171714284Y-147386560D02*
X171657141Y-147272274D01*
X171657141Y-147272274D02*
X171657141Y-147215131D01*
X171657141Y-147215131D02*
X171714284Y-147100845D01*
X171714284Y-147100845D02*
X171828570Y-147043702D01*
X171828570Y-147043702D02*
X171999999Y-147043702D01*
X171999999Y-147043702D02*
X172114284Y-146986560D01*
X172114284Y-146986560D02*
X172171427Y-146872274D01*
X172171427Y-146872274D02*
X172171427Y-146815131D01*
X172171427Y-146815131D02*
X172114284Y-146700845D01*
X172114284Y-146700845D02*
X171999999Y-146643702D01*
X171999999Y-146643702D02*
X171828570Y-146643702D01*
X171828570Y-146643702D02*
X171714284Y-146700845D01*
X170628570Y-147443702D02*
X170628570Y-146815131D01*
X170628570Y-146815131D02*
X170685712Y-146700845D01*
X170685712Y-146700845D02*
X170799998Y-146643702D01*
X170799998Y-146643702D02*
X171028570Y-146643702D01*
X171028570Y-146643702D02*
X171142855Y-146700845D01*
X170628570Y-147386560D02*
X170742855Y-147443702D01*
X170742855Y-147443702D02*
X171028570Y-147443702D01*
X171028570Y-147443702D02*
X171142855Y-147386560D01*
X171142855Y-147386560D02*
X171199998Y-147272274D01*
X171199998Y-147272274D02*
X171199998Y-147157988D01*
X171199998Y-147157988D02*
X171142855Y-147043702D01*
X171142855Y-147043702D02*
X171028570Y-146986560D01*
X171028570Y-146986560D02*
X170742855Y-146986560D01*
X170742855Y-146986560D02*
X170628570Y-146929417D01*
X170057141Y-147443702D02*
X170057141Y-146243702D01*
X170057141Y-146815131D02*
X169371427Y-146815131D01*
X169371427Y-147443702D02*
X169371427Y-146243702D01*
X168342855Y-147386560D02*
X168457141Y-147443702D01*
X168457141Y-147443702D02*
X168685713Y-147443702D01*
X168685713Y-147443702D02*
X168799998Y-147386560D01*
X168799998Y-147386560D02*
X168857141Y-147272274D01*
X168857141Y-147272274D02*
X168857141Y-146815131D01*
X168857141Y-146815131D02*
X168799998Y-146700845D01*
X168799998Y-146700845D02*
X168685713Y-146643702D01*
X168685713Y-146643702D02*
X168457141Y-146643702D01*
X168457141Y-146643702D02*
X168342855Y-146700845D01*
X168342855Y-146700845D02*
X168285713Y-146815131D01*
X168285713Y-146815131D02*
X168285713Y-146929417D01*
X168285713Y-146929417D02*
X168857141Y-147043702D01*
X167599999Y-147443702D02*
X167714284Y-147386560D01*
X167714284Y-147386560D02*
X167771427Y-147272274D01*
X167771427Y-147272274D02*
X167771427Y-146243702D01*
X166685713Y-147386560D02*
X166799999Y-147443702D01*
X166799999Y-147443702D02*
X167028571Y-147443702D01*
X167028571Y-147443702D02*
X167142856Y-147386560D01*
X167142856Y-147386560D02*
X167199999Y-147272274D01*
X167199999Y-147272274D02*
X167199999Y-146815131D01*
X167199999Y-146815131D02*
X167142856Y-146700845D01*
X167142856Y-146700845D02*
X167028571Y-146643702D01*
X167028571Y-146643702D02*
X166799999Y-146643702D01*
X166799999Y-146643702D02*
X166685713Y-146700845D01*
X166685713Y-146700845D02*
X166628571Y-146815131D01*
X166628571Y-146815131D02*
X166628571Y-146929417D01*
X166628571Y-146929417D02*
X167199999Y-147043702D01*
X166114285Y-147443702D02*
X166114285Y-146643702D01*
X166114285Y-146872274D02*
X166057142Y-146757988D01*
X166057142Y-146757988D02*
X166000000Y-146700845D01*
X166000000Y-146700845D02*
X165885714Y-146643702D01*
X165885714Y-146643702D02*
X165771428Y-146643702D01*
X164514285Y-146186560D02*
X165542857Y-147729417D01*
X164114285Y-147443702D02*
X164114285Y-146243702D01*
X164114285Y-146243702D02*
X163657142Y-146243702D01*
X163657142Y-146243702D02*
X163542857Y-146300845D01*
X163542857Y-146300845D02*
X163485714Y-146357988D01*
X163485714Y-146357988D02*
X163428571Y-146472274D01*
X163428571Y-146472274D02*
X163428571Y-146643702D01*
X163428571Y-146643702D02*
X163485714Y-146757988D01*
X163485714Y-146757988D02*
X163542857Y-146815131D01*
X163542857Y-146815131D02*
X163657142Y-146872274D01*
X163657142Y-146872274D02*
X164114285Y-146872274D01*
X162914285Y-147443702D02*
X162914285Y-146643702D01*
X162914285Y-146872274D02*
X162857142Y-146757988D01*
X162857142Y-146757988D02*
X162800000Y-146700845D01*
X162800000Y-146700845D02*
X162685714Y-146643702D01*
X162685714Y-146643702D02*
X162571428Y-146643702D01*
X162000000Y-147443702D02*
X162114285Y-147386560D01*
X162114285Y-147386560D02*
X162171428Y-147329417D01*
X162171428Y-147329417D02*
X162228571Y-147215131D01*
X162228571Y-147215131D02*
X162228571Y-146872274D01*
X162228571Y-146872274D02*
X162171428Y-146757988D01*
X162171428Y-146757988D02*
X162114285Y-146700845D01*
X162114285Y-146700845D02*
X162000000Y-146643702D01*
X162000000Y-146643702D02*
X161828571Y-146643702D01*
X161828571Y-146643702D02*
X161714285Y-146700845D01*
X161714285Y-146700845D02*
X161657143Y-146757988D01*
X161657143Y-146757988D02*
X161600000Y-146872274D01*
X161600000Y-146872274D02*
X161600000Y-147215131D01*
X161600000Y-147215131D02*
X161657143Y-147329417D01*
X161657143Y-147329417D02*
X161714285Y-147386560D01*
X161714285Y-147386560D02*
X161828571Y-147443702D01*
X161828571Y-147443702D02*
X162000000Y-147443702D01*
X161142857Y-147386560D02*
X161028571Y-147443702D01*
X161028571Y-147443702D02*
X160800000Y-147443702D01*
X160800000Y-147443702D02*
X160685714Y-147386560D01*
X160685714Y-147386560D02*
X160628571Y-147272274D01*
X160628571Y-147272274D02*
X160628571Y-147215131D01*
X160628571Y-147215131D02*
X160685714Y-147100845D01*
X160685714Y-147100845D02*
X160800000Y-147043702D01*
X160800000Y-147043702D02*
X160971429Y-147043702D01*
X160971429Y-147043702D02*
X161085714Y-146986560D01*
X161085714Y-146986560D02*
X161142857Y-146872274D01*
X161142857Y-146872274D02*
X161142857Y-146815131D01*
X161142857Y-146815131D02*
X161085714Y-146700845D01*
X161085714Y-146700845D02*
X160971429Y-146643702D01*
X160971429Y-146643702D02*
X160800000Y-146643702D01*
X160800000Y-146643702D02*
X160685714Y-146700845D01*
X160285714Y-146643702D02*
X159828571Y-146643702D01*
X160114285Y-146243702D02*
X160114285Y-147272274D01*
X160114285Y-147272274D02*
X160057142Y-147386560D01*
X160057142Y-147386560D02*
X159942857Y-147443702D01*
X159942857Y-147443702D02*
X159828571Y-147443702D01*
X159428571Y-147443702D02*
X159428571Y-146243702D01*
X158914286Y-147443702D02*
X158914286Y-146815131D01*
X158914286Y-146815131D02*
X158971428Y-146700845D01*
X158971428Y-146700845D02*
X159085714Y-146643702D01*
X159085714Y-146643702D02*
X159257143Y-146643702D01*
X159257143Y-146643702D02*
X159371428Y-146700845D01*
X159371428Y-146700845D02*
X159428571Y-146757988D01*
X157885714Y-147386560D02*
X158000000Y-147443702D01*
X158000000Y-147443702D02*
X158228572Y-147443702D01*
X158228572Y-147443702D02*
X158342857Y-147386560D01*
X158342857Y-147386560D02*
X158400000Y-147272274D01*
X158400000Y-147272274D02*
X158400000Y-146815131D01*
X158400000Y-146815131D02*
X158342857Y-146700845D01*
X158342857Y-146700845D02*
X158228572Y-146643702D01*
X158228572Y-146643702D02*
X158000000Y-146643702D01*
X158000000Y-146643702D02*
X157885714Y-146700845D01*
X157885714Y-146700845D02*
X157828572Y-146815131D01*
X157828572Y-146815131D02*
X157828572Y-146929417D01*
X157828572Y-146929417D02*
X158400000Y-147043702D01*
X157485715Y-146643702D02*
X157028572Y-146643702D01*
X157314286Y-146243702D02*
X157314286Y-147272274D01*
X157314286Y-147272274D02*
X157257143Y-147386560D01*
X157257143Y-147386560D02*
X157142858Y-147443702D01*
X157142858Y-147443702D02*
X157028572Y-147443702D01*
X156628572Y-147443702D02*
X156628572Y-146643702D01*
X156628572Y-146243702D02*
X156685715Y-146300845D01*
X156685715Y-146300845D02*
X156628572Y-146357988D01*
X156628572Y-146357988D02*
X156571429Y-146300845D01*
X156571429Y-146300845D02*
X156628572Y-146243702D01*
X156628572Y-146243702D02*
X156628572Y-146357988D01*
X155542858Y-147386560D02*
X155657143Y-147443702D01*
X155657143Y-147443702D02*
X155885715Y-147443702D01*
X155885715Y-147443702D02*
X156000000Y-147386560D01*
X156000000Y-147386560D02*
X156057143Y-147329417D01*
X156057143Y-147329417D02*
X156114286Y-147215131D01*
X156114286Y-147215131D02*
X156114286Y-146872274D01*
X156114286Y-146872274D02*
X156057143Y-146757988D01*
X156057143Y-146757988D02*
X156000000Y-146700845D01*
X156000000Y-146700845D02*
X155885715Y-146643702D01*
X155885715Y-146643702D02*
X155657143Y-146643702D01*
X155657143Y-146643702D02*
X155542858Y-146700845D01*
X155028572Y-147443702D02*
X155028572Y-146243702D01*
X155028572Y-146815131D02*
X154342858Y-146815131D01*
X154342858Y-147443702D02*
X154342858Y-146243702D01*
X153257144Y-147443702D02*
X153257144Y-146815131D01*
X153257144Y-146815131D02*
X153314286Y-146700845D01*
X153314286Y-146700845D02*
X153428572Y-146643702D01*
X153428572Y-146643702D02*
X153657144Y-146643702D01*
X153657144Y-146643702D02*
X153771429Y-146700845D01*
X153257144Y-147386560D02*
X153371429Y-147443702D01*
X153371429Y-147443702D02*
X153657144Y-147443702D01*
X153657144Y-147443702D02*
X153771429Y-147386560D01*
X153771429Y-147386560D02*
X153828572Y-147272274D01*
X153828572Y-147272274D02*
X153828572Y-147157988D01*
X153828572Y-147157988D02*
X153771429Y-147043702D01*
X153771429Y-147043702D02*
X153657144Y-146986560D01*
X153657144Y-146986560D02*
X153371429Y-146986560D01*
X153371429Y-146986560D02*
X153257144Y-146929417D01*
X152685715Y-146643702D02*
X152685715Y-147443702D01*
X152685715Y-146757988D02*
X152628572Y-146700845D01*
X152628572Y-146700845D02*
X152514287Y-146643702D01*
X152514287Y-146643702D02*
X152342858Y-146643702D01*
X152342858Y-146643702D02*
X152228572Y-146700845D01*
X152228572Y-146700845D02*
X152171430Y-146815131D01*
X152171430Y-146815131D02*
X152171430Y-147443702D01*
X151085716Y-147443702D02*
X151085716Y-146243702D01*
X151085716Y-147386560D02*
X151200001Y-147443702D01*
X151200001Y-147443702D02*
X151428573Y-147443702D01*
X151428573Y-147443702D02*
X151542858Y-147386560D01*
X151542858Y-147386560D02*
X151600001Y-147329417D01*
X151600001Y-147329417D02*
X151657144Y-147215131D01*
X151657144Y-147215131D02*
X151657144Y-146872274D01*
X151657144Y-146872274D02*
X151600001Y-146757988D01*
X151600001Y-146757988D02*
X151542858Y-146700845D01*
X151542858Y-146700845D02*
X151428573Y-146643702D01*
X151428573Y-146643702D02*
X151200001Y-146643702D01*
X151200001Y-146643702D02*
X151085716Y-146700845D01*
%LPC*%
D12*
%TO.C,H4*%
X192600000Y-145000000D03*
X193302944Y-143302944D03*
X193302944Y-146697056D03*
X195000000Y-142600000D03*
D13*
X195000000Y-145000000D03*
D12*
X195000000Y-147400000D03*
X196697056Y-143302944D03*
X196697056Y-146697056D03*
X197400000Y-145000000D03*
%TD*%
D14*
%TO.C,J1*%
X170350000Y-143035000D03*
D15*
X167850000Y-143035000D03*
%TD*%
D12*
%TO.C,H1*%
X102600000Y-105000000D03*
X103302944Y-103302944D03*
X103302944Y-106697056D03*
X105000000Y-102600000D03*
D13*
X105000000Y-105000000D03*
D12*
X105000000Y-107400000D03*
X106697056Y-103302944D03*
X106697056Y-106697056D03*
X107400000Y-105000000D03*
%TD*%
D16*
%TO.C,J13*%
X142500000Y-143000000D03*
D17*
X142500000Y-145540000D03*
X142500000Y-148080000D03*
%TD*%
D14*
%TO.C,J7*%
X151550000Y-143067500D03*
D15*
X149050000Y-143067500D03*
%TD*%
D16*
%TO.C,J12*%
X140530000Y-102000000D03*
D17*
X137990000Y-102000000D03*
X135450000Y-102000000D03*
X132910000Y-102000000D03*
%TD*%
D16*
%TO.C,J11*%
X102300000Y-126700000D03*
D17*
X102300000Y-129240000D03*
X102300000Y-131780000D03*
%TD*%
D16*
%TO.C,J4*%
X132340000Y-143000000D03*
D17*
X132340000Y-145540000D03*
X132340000Y-148080000D03*
%TD*%
D18*
%TO.C,J3*%
X185750000Y-107232500D03*
D15*
X188250000Y-107232500D03*
%TD*%
D12*
%TO.C,H3*%
X102600000Y-145000000D03*
X103302944Y-143302944D03*
X103302944Y-146697056D03*
X105000000Y-142600000D03*
D13*
X105000000Y-145000000D03*
D12*
X105000000Y-147400000D03*
X106697056Y-143302944D03*
X106697056Y-146697056D03*
X107400000Y-145000000D03*
%TD*%
D16*
%TO.C,J9*%
X137420000Y-143000000D03*
D17*
X137420000Y-145540000D03*
X137420000Y-148080000D03*
%TD*%
D19*
%TO.C,J5*%
X152890000Y-106605000D03*
X147110000Y-106605000D03*
D20*
X154320000Y-107125000D03*
D21*
X154320000Y-102925000D03*
D20*
X145680000Y-107125000D03*
D21*
X145680000Y-102925000D03*
%TD*%
D14*
%TO.C,J2*%
X179200000Y-143035000D03*
D15*
X176700000Y-143035000D03*
%TD*%
D16*
%TO.C,J8*%
X102300000Y-116945000D03*
D17*
X102300000Y-119485000D03*
X102300000Y-122025000D03*
%TD*%
D14*
%TO.C,J6*%
X188050000Y-143035000D03*
D15*
X185550000Y-143035000D03*
%TD*%
D12*
%TO.C,H2*%
X192600000Y-105000000D03*
X193302944Y-103302944D03*
X193302944Y-106697056D03*
X195000000Y-102600000D03*
D13*
X195000000Y-105000000D03*
D12*
X195000000Y-107400000D03*
X196697056Y-103302944D03*
X196697056Y-106697056D03*
X197400000Y-105000000D03*
%TD*%
D14*
%TO.C,J10*%
X160400000Y-143035000D03*
D15*
X157900000Y-143035000D03*
%TD*%
%LPD*%
M02*
